<svg xmlns="http://www.w3.org/2000/svg" xmlns:xlink="http://www.w3.org/1999/xlink" width="135" height="106" viewBox="0 0 135 106">
    <defs>
        <linearGradient id="prefix__b" x1="181.489%" x2="-16.835%" y1="-143.732%" y2="157.604%">
            <stop offset="0%" stop-color="#646664"/>
            <stop offset="100%" stop-color="#333"/>
        </linearGradient>
        <linearGradient id="prefix__e" x1="139.667%" x2=".841%" y1="-58.498%" y2="120.414%">
            <stop offset="0%" stop-color="#646664"/>
            <stop offset="100%" stop-color="#333"/>
        </linearGradient>
        <linearGradient id="prefix__h" x1="162.6%" x2="-2.67%" y1="-79.491%" y2="121.399%">
            <stop offset="0%" stop-color="#646664"/>
            <stop offset="100%" stop-color="#333"/>
        </linearGradient>
        <path id="prefix__a" d="M34.948.328c-.193.003-.386.024-.576.065L2.381 7.156C.759 7.499-.277 9.091.066 10.712c.191.906.792 1.674 1.626 2.078L30.37 26.699c1.492.722 3.286.1 4.009-1.391.128-.264.217-.544.264-.833l3.312-20.672c.023-.146.036-.292.038-.435V3.28C37.972 1.851 36.928.599 35.467.365c-.141-.023-.284-.035-.427-.037h-.092z"/>
        <path id="prefix__d" d="M34.372.393L2.381 7.156C.759 7.499-.277 9.09.066 10.712c.191.906.792 1.673 1.626 2.078L30.37 26.699c1.492.722 3.286.1 4.009-1.391.128-.264.217-.544.264-.833l3.312-20.672c.262-1.636-.852-3.175-2.488-3.438-.157-.025-.315-.038-.473-.038-.209 0-.417.022-.622.066"/>
        <path id="prefix__g" d="M34.372.392L2.38 7.156C.759 7.499-.277 9.091.066 10.712c.191.906.792 1.674 1.626 2.078L30.37 26.699c.406.197.833.294 1.255.301h.106c1.095-.02 2.138-.64 2.648-1.692.128-.264.217-.544.264-.833l3.312-20.672c.262-1.636-.852-3.176-2.488-3.438-.158-.025-.317-.037-.477-.037-.207 0-.414.021-.618.064"/>
    </defs>
    <g fill="none" fill-rule="evenodd">
        <g>
            <g transform="translate(12 11) translate(72 .672)">
                <mask id="prefix__c" fill="#fff">
                    <use xlink:href="#prefix__a"/>
                </mask>
                <path fill="url(#prefix__b)" d="M34.948.328c-.193.003-.386.024-.576.065L2.381 7.156C.759 7.499-.277 9.091.066 10.712c.191.906.792 1.674 1.626 2.078L30.37 26.699c1.492.722 3.286.1 4.009-1.391.128-.264.217-.544.264-.833l3.312-20.672c.023-.146.036-.292.038-.435V3.28C37.972 1.851 36.928.599 35.467.365c-.141-.023-.284-.035-.427-.037h-.092z" mask="url(#prefix__c)"/>
            </g>
            <g transform="translate(12 11) translate(36 26.672)">
                <mask id="prefix__f" fill="#fff">
                    <use xlink:href="#prefix__d"/>
                </mask>
                <path fill="url(#prefix__e)" d="M34.372.393L2.381 7.156C.759 7.499-.277 9.09.066 10.712c.191.906.792 1.673 1.626 2.078L30.37 26.699c1.492.722 3.286.1 4.009-1.391.128-.264.217-.544.264-.833l3.312-20.672c.262-1.636-.852-3.175-2.488-3.438-.157-.025-.315-.038-.473-.038-.209 0-.417.022-.622.066" mask="url(#prefix__f)"/>
            </g>
            <g transform="translate(12 11) translate(0 55.672)">
                <mask id="prefix__i" fill="#fff">
                    <use xlink:href="#prefix__g"/>
                </mask>
                <path fill="url(#prefix__h)" d="M34.372.392L2.38 7.156C.759 7.499-.277 9.091.066 10.712c.191.906.792 1.674 1.626 2.078L30.37 26.699c.406.197.833.294 1.255.301h.106c1.095-.02 2.138-.64 2.648-1.692.128-.264.217-.544.264-.833l3.312-20.672c.262-1.636-.852-3.176-2.488-3.438-.158-.025-.317-.037-.477-.037-.207 0-.414.021-.618.064" mask="url(#prefix__i)"/>
            </g>
        </g>
    </g>
</svg>
