<svg xmlns="http://www.w3.org/2000/svg" xmlns:xlink="http://www.w3.org/1999/xlink" width="345" height="742" viewBox="0 0 345 742">
    <defs>
        <path id="prefix__a" d="M393.825 43.239L157.24 181 0.217 94.192 248.043 0.952z"/>
        <path id="prefix__d" d="M1.03 51.9L93.432 102.951 185.235 51.9 92.832 0.852z"/>
        <path id="prefix__g" d="M1.03 51.9L93.432 102.951 185.235 51.9 92.832 0.852z"/>
        <path id="prefix__i" d="M0.237 94.239L120.305 160.574 120.216 51.952 27.814 0.902z"/>
        <path id="prefix__l" d="M1.073 51.952L0.982 160.574 121.05 94.239 93.475 0.902z"/>
        <path id="prefix__o" d="M0.854 58.053L66.812 340.678 109.854 360.257 109.104 0.497z"/>
        <path id="prefix__r" d="M0.117 360.257L43.159 340.678 109.117 58.053 0.868 0.497z"/>
        <path id="prefix__u" d="M0.738 59.021L106.674 117.549 211.921 59.021 105.985 0.497z"/>
        <path id="prefix__x" d="M242.022 1.073l-118.76 65.614L4.682 1.074C3.431.383 1.833.792 1.11 1.987c-.723 1.195-.296 2.725.954 3.415l119.888 66.337c.405.224.856.335 1.308.335.451 0 .903-.111 1.306-.334L244.635 5.403c1.25-.69 1.678-2.218.957-3.414-.484-.803-1.363-1.252-2.266-1.252-.443 0-.892.109-1.304.336"/>
        <path id="prefix__A" d="M0.873 0.063L81.929 0.063 81.929 73.824 0.873 73.824z"/>
        <path id="prefix__C" d="M110.682 3.08c-13.585 7.372-32.095 31.664-33.96 29.938C61.6 19.021 39.53.704 39.53.704s-5.335 15.059-6.402 20.931c-1.067 5.87.123 30.459.123 30.459s-.563 44.851 2.58 61.905c-3.87 1.505-16.74-14.104-21.415-22.294C9.743 83.516 5.23 64.462 5.23 64.462c-.806-3.844-3.546-4.178-4.368.278-.823 4.457 5.598 25.868 9.848 31.812 4.252 5.945 15.288 20.957 25.283 23.966.805 3.677-.46 4.781 3.892 9.796 1.128 5.682 3.258 28.608 6.448 36.937 3.189 8.328 9.51 8.857 7.736-.335-1.773-9.193-4.35-26.908-4.19-34.931 2.095 1.003 8.382 1.671 10.477-1.003.322 4.512 11.928 30.586 14.024 34.43 2.094 3.844 7.092 5.181 5.802-2.674-1.29-7.856-8.75-21.26-7.415-24.403 1.335-3.141 9.324 1.101 16.383-6.942 5.094-5.803 5.071-22.21 5.069-38.288-1.335-21.186-1.068-38.543-3.735-45.435-.106-.272.606-7.811 5.774-14.996 7.519-10.45 21.71-21.648 33.608-21.058 10.077.501 7.87-5.761 7.138-6.544-.905-.968-6.899-4.523-14.928-4.523-3.495 0-7.38.675-11.393 2.531"/>
        <path id="prefix__F" d="M37.37 18.535C12.835 28.494 1.83 35.182.344 45.568c3.97 10.336 30.929-11.098 34.498-15.224 2.38 5.407 8.565 13.27 16.655 22.339 14.721 16.505 58.59 26.038 63.498 5.976 1.195-4.892-5.651-8.964-14.426-10.672-6.305-7.103-18.986-20.261-18.587-29.737.055-1.442 20.818-2.134 27.659-8.679 6.566-6.284 2.453-8.193-3.272-8.964-.014-.002-.032-.002-.053-.002-2.459 0-50.342 10.378-68.946 17.93"/>
        <linearGradient id="prefix__b" x1="17.341%" x2="122.481%" y1="62.234%" y2="-43.071%">
            <stop offset="0%" stop-color="#646664" stop-opacity="0"/>
            <stop offset="100%" stop-color="#333"/>
        </linearGradient>
        <linearGradient id="prefix__e" x1="0%" x2="100%" y1="50%" y2="50%">
            <stop offset="0%" stop-color="#A7872D"/>
            <stop offset="100%" stop-color="#FFD8AF"/>
        </linearGradient>
        <linearGradient id="prefix__j" x1="0%" x2="100%" y1="50%" y2="50%">
            <stop offset="0%" stop-color="#A7872D"/>
            <stop offset="100%" stop-color="#FFD8AF"/>
        </linearGradient>
        <linearGradient id="prefix__m" x1="0%" x2="100%" y1="50%" y2="50%">
            <stop offset="0%" stop-color="#A7872D"/>
            <stop offset="100%" stop-color="#FFD8AF"/>
        </linearGradient>
        <linearGradient id="prefix__p" x1=".001%" x2="100%" y1="50%" y2="50%">
            <stop offset="0%" stop-color="#A7872D"/>
            <stop offset="100%" stop-color="#FFD8AF"/>
        </linearGradient>
        <linearGradient id="prefix__s" x1="0%" x2="100%" y1="50%" y2="50%">
            <stop offset="0%" stop-color="#A7872D"/>
            <stop offset="100%" stop-color="#FFD8AF"/>
        </linearGradient>
        <linearGradient id="prefix__v" x1="192.412%" x2="-47.404%" y1="22.179%" y2="69.028%">
            <stop offset="0%" stop-color="#A7872D"/>
            <stop offset="100%" stop-color="#FFD8AF"/>
        </linearGradient>
        <linearGradient id="prefix__y" x1="0%" x2="100%" y1="50.001%" y2="50.001%">
            <stop offset="0%" stop-color="#A7872D"/>
            <stop offset="100%" stop-color="#FFD8AF"/>
        </linearGradient>
        <linearGradient id="prefix__D" x1="0%" x2="100%" y1="50%" y2="50%">
            <stop offset="0%" stop-color="#A7872D"/>
            <stop offset="100%" stop-color="#FFD8AF"/>
        </linearGradient>
        <linearGradient id="prefix__G" x1="0%" x2="99.999%" y1="50%" y2="50%">
            <stop offset="0%" stop-color="#A7872D"/>
            <stop offset="100%" stop-color="#FFD8AF"/>
        </linearGradient>
    </defs>
    <g fill="none" fill-rule="evenodd">
        <g transform="translate(-52) translate(.03 561)">
            <mask id="prefix__c" fill="#fff">
                <use xlink:href="#prefix__a"/>
            </mask>
            <path fill="url(#prefix__b)" d="M393.825 43.239L157.24 181 0.217 94.192 248.043 0.952z" mask="url(#prefix__c)"/>
        </g>
        <g transform="translate(-52) translate(180.835 459)">
            <mask id="prefix__f" fill="#fff">
                <use xlink:href="#prefix__d"/>
            </mask>
            <path fill="url(#prefix__e)" d="M1.03 51.9L93.432 102.951 185.235 51.9 92.832 0.852z" mask="url(#prefix__f)"/>
        </g>
        <g transform="translate(-52) translate(180.835 459)">
            <mask id="prefix__h" fill="#fff">
                <use xlink:href="#prefix__g"/>
            </mask>
            <path fill="url(#prefix__e)" d="M1.03 51.9L93.432 102.951 185.235 51.9 92.832 0.852z" mask="url(#prefix__h)"/>
        </g>
        <path fill="#A7872E" d="M339.625 510.9L274.181 547.293 208.309 510.9 273.753 474.509z" transform="translate(-52)"/>
        <g transform="translate(-52) translate(153.662 510)">
            <mask id="prefix__k" fill="#fff">
                <use xlink:href="#prefix__i"/>
            </mask>
            <path fill="url(#prefix__j)" d="M0.237 94.239L120.305 160.574 120.216 51.952 27.814 0.902z" mask="url(#prefix__k)"/>
        </g>
        <g transform="translate(-52) translate(272.805 510)">
            <mask id="prefix__n" fill="#fff">
                <use xlink:href="#prefix__l"/>
            </mask>
            <path fill="url(#prefix__m)" d="M1.073 51.952L0.982 160.574 121.05 94.239 93.475 0.902z" mask="url(#prefix__n)"/>
        </g>
        <g transform="translate(-52) translate(164.113 162)">
            <mask id="prefix__q" fill="#fff">
                <use xlink:href="#prefix__o"/>
            </mask>
            <path fill="url(#prefix__p)" d="M0.854 58.053L66.812 340.678 109.854 360.257 109.104 0.497z" mask="url(#prefix__q)"/>
        </g>
        <g transform="translate(-52) translate(273.85 162)">
            <mask id="prefix__t" fill="#fff">
                <use xlink:href="#prefix__r"/>
            </mask>
            <path fill="url(#prefix__s)" d="M0.117 360.257L43.159 340.678 109.117 58.053 0.868 0.497z" mask="url(#prefix__t)"/>
        </g>
        <g transform="translate(-52) translate(167.248 162)">
            <mask id="prefix__w" fill="#fff">
                <use xlink:href="#prefix__u"/>
            </mask>
            <path fill="url(#prefix__v)" d="M0.738 59.021L106.674 117.549 211.921 59.021 105.985 0.497z" mask="url(#prefix__w)"/>
        </g>
        <g transform="translate(-52) translate(150.526 601)">
            <mask id="prefix__z" fill="#fff">
                <use xlink:href="#prefix__x"/>
            </mask>
            <path fill="url(#prefix__y)" d="M242.022 1.073l-118.76 65.614L4.682 1.074C3.431.383 1.833.792 1.11 1.987c-.723 1.195-.296 2.725.954 3.415l119.888 66.337c.405.224.856.335 1.308.335.451 0 .903-.111 1.306-.334L244.635 5.403c1.25-.69 1.678-2.218.957-3.414-.484-.803-1.363-1.252-2.266-1.252-.443 0-.892.109-1.304.336" mask="url(#prefix__z)"/>
        </g>
        <g transform="translate(-52) translate(310.429)">
            <mask id="prefix__B" fill="#fff">
                <use xlink:href="#prefix__A"/>
            </mask>
            <path fill="#A7872E" d="M41.401 0.063L50.968 28.237 81.929 28.237 56.881 45.65 66.448 73.824 41.401 56.412 16.354 73.824 25.921 45.65 0.873 28.237 31.834 28.237z" mask="url(#prefix__B)"/>
        </g>
        <g transform="translate(-52) translate(210.098 67)">
            <mask id="prefix__E" fill="#fff">
                <use xlink:href="#prefix__C"/>
            </mask>
            <path fill="url(#prefix__D)" d="M110.682 3.08c-13.585 7.372-32.095 31.664-33.96 29.938C61.6 19.021 39.53.704 39.53.704s-5.335 15.059-6.402 20.931c-1.067 5.87.123 30.459.123 30.459s-.563 44.851 2.58 61.905c-3.87 1.505-16.74-14.104-21.415-22.294C9.743 83.516 5.23 64.462 5.23 64.462c-.806-3.844-3.546-4.178-4.368.278-.823 4.457 5.598 25.868 9.848 31.812 4.252 5.945 15.288 20.957 25.283 23.966.805 3.677-.46 4.781 3.892 9.796 1.128 5.682 3.258 28.608 6.448 36.937 3.189 8.328 9.51 8.857 7.736-.335-1.773-9.193-4.35-26.908-4.19-34.931 2.095 1.003 8.382 1.671 10.477-1.003.322 4.512 11.928 30.586 14.024 34.43 2.094 3.844 7.092 5.181 5.802-2.674-1.29-7.856-8.75-21.26-7.415-24.403 1.335-3.141 9.324 1.101 16.383-6.942 5.094-5.803 5.071-22.21 5.069-38.288-1.335-21.186-1.068-38.543-3.735-45.435-.106-.272.606-7.811 5.774-14.996 7.519-10.45 21.71-21.648 33.608-21.058 10.077.501 7.87-5.761 7.138-6.544-.905-.968-6.899-4.523-14.928-4.523-3.495 0-7.38.675-11.393 2.531" mask="url(#prefix__E)"/>
        </g>
        <g transform="translate(-52) translate(210.098 45)">
            <mask id="prefix__H" fill="#fff">
                <use xlink:href="#prefix__F"/>
            </mask>
            <path fill="url(#prefix__G)" d="M37.37 18.535C12.835 28.494 1.83 35.182.344 45.568c3.97 10.336 30.929-11.098 34.498-15.224 2.38 5.407 8.565 13.27 16.655 22.339 14.721 16.505 58.59 26.038 63.498 5.976 1.195-4.892-5.651-8.964-14.426-10.672-6.305-7.103-18.986-20.261-18.587-29.737.055-1.442 20.818-2.134 27.659-8.679 6.566-6.284 2.453-8.193-3.272-8.964-.014-.002-.032-.002-.053-.002-2.459 0-50.342 10.378-68.946 17.93" mask="url(#prefix__H)"/>
        </g>
        <g>
            <path fill="#A7872E" d="M20.75 130.716c-.081-.74.298-1.005.417-1.69.067-.388-.158-.826.067-1.188.051.003.122-.018.175-.017.225.016-.147-1.14.443-1.15.38-.007.699.58.827.854.227.493.27 1.055.298 1.585.032.592.028 1.19.068 1.783.025.368.039.746.108 1.11.025.14.033.326.122.444.13.166.37.156.493.314.232.304.343 1.08.506 1.467.339.8.222 1.42.222 2.225.003.628.154 1.335.512 1.854.438.623.66 1.152.747 1.904.085.73.454 1.43.52 2.16.019.207-.126.453-.083.63.053.233.348.283.475.46.114.158.127.394.165.58.074.354.123.72.216 1.07.165.627.893.583 1.09 1.188.058.174-.006.373.058.54.072.181.226.328.3.537.056.167.025.354.08.514.063.17.193.281.28.456.072.15.045.358.113.493.156.287.507.373.716.613.22.255.279.628.385.94.257.764.515 1.526.774 2.288.094.282.17.558.345.72.147.133.337.165.473.354.212.296.264.703.437 1.001.174.298.544.487.753.771.218.303.455.701.522 1.067.052.28-.09.59.07.853.141.232.497.297.647.56.267.464.333.72.712 1.081.305.29.536.615.804.934.3.36.682.458.99.797.157.177.27.596.403.833.193.335.143.711.415.993.217.233.56.318.758.577.203.27.129.64.391.883.382.35.833.603 1.264.886.42.277.877.593 1.21.992.296.353.35.893.579 1.284.317.538.91.538 1.37.876.355.264.549.771.729 1.148.253.524.412 1.19.9 1.567.361.273.613.033.855.43.257.422.426.838.851 1.136.478.337 1.133.542 1.43 1.071.093.164.014.451.157.606.344.376.628.257.858.828.14.344.302.551.612.776.582.423 1.395.57 1.9 1.083.206.211 1.427 1.644 1.324 1.907-.043.115-.152.194-.297.246-.395.148-1.036.1-1.292.074-.815-.079-1.107-.525-1.712-1.022-.757-.623-1.513-1.244-2.267-1.867-.659-.54-1.392-1.398-2.16-1.776-.452-.223-1.193-.36-1.48-.803-.13-.209-.034-.488-.169-.69-.132-.208-.426-.153-.61-.26-.437-.248-.373-.805-.673-1.149-.673-.766-1.876-.96-2.592-1.692-.895-.907-1.672-2.21-2.352-3.273-.396-.62-1.113-1.133-1.283-1.874-.135-.587-.28-.704-.743-1.068-.416-.328-.55-.757-.923-1.119-.518-.505-1.25-.758-1.67-1.36-.38-.539-.697-1.298-.745-1.944-.069-.839-.522-1.187-.974-1.843-.232-.343-.26-.727-.382-1.107-.14-.442-.434-.956-.67-1.364-.177-.307-.337-.785-.578-1.042-.222-.234-.59-.254-.772-.546-.157-.248-.063-.564-.23-.805-.136-.196-.359-.314-.473-.533-.134-.247-.121-.514-.327-.735-.187-.205-.314-.232-.418-.556-.428-1.314-.633-2.824-1.298-4.059-.16-.29-.476-.41-.583-.715-.1-.279.055-.562-.037-.838-.076-.227-.26-.32-.386-.56-.13-.25-.07-.509-.193-.777-.128-.288-.473-.217-.582-.499-.118-.319.071-.75-.071-1.1-.158-.39-.549-.509-.639-.953-.137-.672-.038-1.392-.213-2.043-.127-.47-.67-.8-.846-1.248-.083-.21-.015-.535-.067-.759-.246-1.01-.862-1.92-.718-3.017.056-.43.26-.556.09-1.025-.055-.16-.107-.325-.153-.494-.173-.582-.302-1.2-.366-1.783M51.715 71.04c.32-.19 1.058-.697 1.285-.238.189.38.048.783-.152 1.113-.253.416-.302.916-.405 1.387-.166.75-.658 1.44-.703 2.213-.039.617.139 1.263-.13 1.87-.098.215-.333.343-.35.6-.024.305.155.616.087.957-.137.671-.542 1.23-.611 1.918-.076.74-.239 1.472-.368 2.203-.225 1.267-.14 2.524-.43 3.786-.229.984.314 1.995-.06 2.925-.286.711-.104 1.761-.09 2.511.01.624.038 1.252.024 1.877-.055 2.258.8 4.172.39 6.436-.428 2.351-.248 4.665.27 6.895.287 1.237.185 2.983-.038 4.224-.243 1.35-.648 2.223-.525 3.61.09 1.015.147 2.033.191 3.05.039.764.368 1.957-.044 2.635-.48.79-.075 2.048.03 2.91.09.752.185 1.51.273 2.262.189 1.56.503 2.46.079 3.963-.224.785.103 1.18.116 1.88.008.691-.355 1.208-.3 1.928.094 1.167.702 2.56.585 3.702-.072.69-.664 1.233-.44 2.058.176.643.44.795.435 1.497-.017 1.57.02 3.14.076 4.71.03.94.138 1.893.112 2.832-.03 1.05-.53 2.113-.331 3.16.476 2.455.525 4.814.824 7.318.249 2.073-.03 4.22.218 6.246.27 2.248 1.873 4.38 1.476 6.703-.513 3.025-1.847.226-3.123-.412-.522-.263-.677-.873-.854-1.359-.351-.945-1.341-1.252-2.134-1.756-.597-.379-.793-1.24-1.283-1.732-.471-.48-.835-1.057-1.31-1.526-.278-.276-.584-.749-.935-.935-.209-.11-.308-.179-.488-.343-.153-.142-.325-.265-.451-.434-.324-.437-.254-1.079-.6-1.54-.233-.314-.544-.424-.799-.664-.288-.274-.448-.642-.737-.915-.305-.284-.735-.303-1.055-.543-.422-.315-.491-.864-.787-1.264-.409-.557-.836-1.02-1.211-1.642-.396-.65-1.149-1.415-1.329-2.139-.273-1.088-.987-2.708-2.086-3.206-.253-.114-.274.011-.386-.273-.267-.682-.227-1.312-.642-1.94-.46-.706-.907-1.422-1.276-2.175-.107-.21-.129-.499-.231-.684-.116-.214-.35-.328-.487-.55-.18-.293-.193-.637-.33-.945-.073-.167-.187-.19-.27-.31-.184-.252-.138-.569-.269-.837-.111-.23-.408-.31-.463-.56-.055-.227.09-.394-.03-.634-.122-.236-.354-.36-.422-.637-.077-.318-.01-.709-.04-1.036-.027-.308.01-.697-.203-.956-.09-.117-.245-.152-.34-.258-.326-.363-.007-.782-.197-1.186-.253-.544-.62-.932-.696-1.546-.087-.714-.12-1.423-.283-2.13-.146-.662-.323-1.349-.556-1.983-.093-.254-.2-.4-.22-.676-.02-.279-.013-.555-.062-.832-.044-.246-.09-.39-.215-.552-.192-.248-.342-.207-.456-.527-.066-.182-.046-.438-.066-.629-.051-.517-.094-1.039-.146-1.555-.068-.7.014-1.785-.341-2.426-.141-.253-.384-.133-.504-.363-.172-.33.02-.785-.074-1.146-.106-.407-.421-.816-.674-1.15-.503-.679-1.227-1.377-2.17-1.325-2.013.11-2.899 3.47-3.529 4.9-.599 1.36-.273 3.046-.566 4.513-.164.823-.704 5.51.462 5.623.095.502-.252 1.061-.087 1.541.087.246.385.316.47.544.093.244-.089.63.13.828.196.18.502.03.695.301.283.39.192 1.138.189 1.585 0 .765-.06 1.134.453 1.831.478.652.446.646.554 1.304.126.77.488.587.864 1 .383.423-.084.901.297 1.36.266.321.343.174.46.677.091.424.129.792.34 1.183.034.066.714.842.696.637.069 1.022.09 1.85.876 2.642.081.08.335.017.459.195.067.101-.113.356-.057.53.217.65.517.367.823.818.16.232.123.504.24.737.122.247.365.431.48.7.224.52.216 1.103.39 1.637.262.796.857 1.452 1.224 2.202.141.29.227.611.465.851.251.255.642.335.851.632.174.251.094.601.255.846.142.218.573.263.634.361.07.111.093.4.153.47.091.102.378.148.436.217.226.275.184.533.405.827.1.127.361.072.46.253.06.114-.016.416-.008.55.04.704.38.895 1.031 1.124.255.091.48 1.372.623 1.624.201.344.67.46.835.818.1.213-.007.36.14.56.194.26.336.201.596.33.551.27.413.324.71.821.27.453.756.446 1.063.907.27.414.493.605.859.962.444.431.53.864 1.096 1.305.408.322.482.584.78.941.397.476.704.798.993 1.328.388.726.728.84 1.451 1.106.919.342 2.061.78 2.726 1.502.32.347.302.813.542 1.201.378.618 1.02.818 1.562 1.241 2.16 1.674 3.83 3.79 7.076 4.163.504 1.361 1.002 2.724 1.518 4.08.358.941 1.117 1.805 1.196 2.835.077.997.24 1.991.359 2.985.074.604.051 1.32.205 1.904.119.432.488.608.66 1.007.098.235-.024.54.102.775.117.22.375.267.48.5.133.297.09.816.131 1.141l.269 2.24c.12 1.002.58 2.264.236 3.247-.096.27-.252.34-.236.681.01.328.177.63.196.957.018.305-.083.606-.053.91.106 1.116.963 1.941.978 3.065.017 1.483.305 3 .482 4.478.12.977.17 1.99.357 2.957.141.727.59 1.273.835 1.956.175.49-.017 1 0 1.51.017.624.315.773.572 1.237.409.73.373 1.57.414 2.371.045.844.252 1.193.683 1.877.76 1.2 1.301 2.546 2.042 3.768.743 1.226 1.552 2.444 2.542 3.505.402.428.836.845 1.336 1.172.32.21 1.014.307 1.254.522.821.732 2.709.955 3.677.381 2.056-1.227 1.829-3.705 1.374-5.67-.516-2.244-1.057-4.288-1.313-6.643-.128-1.177-.095-2.36-.564-3.485-.303-.726-.392-1.152-.2-1.913.377-1.506-.197-3.513-.372-5.022-.078-.675-.343-.878-.715-1.383-.722-.98-.789-2.408-1.052-3.544-.22-.964-.404-1.94-.509-2.922-.044-.414-.098-.847-.077-1.263.03-.527.323-.832.45-1.34.091-.373.02-.455-.018-.843-.048-.533.334-1.018.31-1.578-.026-.648-.198-1.295-.32-1.93-.143-.747-.32-1.484-.29-2.25.017-.405-.015-1.5.366-1.767.424-.296.797.285 1.1.383.19.063.407-.02.536-.002.19.032.264.084.448.142 1.184.376 2.358.066 3.612-.074.855-.095 1.477-.165 2.262-.498.345-.148.706-.12 1.034-.247.442-.173.31-.423.609-.655.365-.283.993-.132 1.306-.528.43-.54.538-.929 1.275-1.212.717-.276 1.514-.45 1.974-1.069.477-.639.619-1.494 1.468-1.815.394-.15.49-.44.773-.693.351-.319.562-.189.938-.398.239-.135.325-.38.474-.614.298-.468.633-.847 1.11-1.158.431-.284.303-.382.427-.824.129-.456.51-.515.648-.89.125-.337-.089-.694.098-1.032.13-.24.444-.27.527-.56.132-.458-.077-.939-.028-1.397.77-.055.03-1.863-.033-2.312-.154-1.103-.253-2.269.165-3.335.258-.66.081-1.049.072-1.713-.008-.569.034-1.159.217-1.716.252-.77.106-1.379.145-2.144.05-.9.73-3.979-.458-4.483-.79-.336-1.747.202-2.045.892-.288.674.106 1.69.004 2.381-.05.328-.348.486-.462.768-.283.696.422 1.193.223 1.77-.134.382-.485.437-.555.897-.08.515.018 1.118.027 1.642.009.541.17 1.196-.049 1.706-.288.67-.215 1.351.068 2.018.128.296.382.557.445.88.124.618-.232.386-.429.773-.044.073-.164.78-.025.772-.814.04-.913 2.23-1.036 2.776l-.87.546c-.433.27-.83 1.147-1.13 1.563l-1.127 1.56c-.168.233-.373.683-.646.798-.155.067-.387-.083-.539-.018-.428.175-.514.656-.663 1.044.033-.089-.602.245-.641.276-.225.18-.348.467-.549.667-.312.31-.702.545-1.084.765-.8.462-1.67.81-2.557 1.083-.753.23-1.563.416-2.358.41-.296-.005-.642-.013-.926-.107-.3-.102-.475-.366-.83-.337-.22.018-.42.273-.641.295-.41.045-.792-.233-1.167-.33-.135-.036-.546-.136-.672-.128-.19.012-.319.187-.514.165-.381-.038-.484-.425-.752-.652-.62-.525-1.596-.577-1.852.316.013-.052-.617.074-.683.114-.497.304-.263 1.318-.541 1.8-.142.255-.234.137-.343.495-.343 1.14.129 2.493.357 3.614.269 1.32.552 2.694.34 4.04-.171 1.112-.016 2.285.116 3.392.09.731.179 1.47.316 2.195.116.62.52 1.117.646 1.715.15.708-.012 1.412.006 2.12.02.846.256 1.715.358 2.557.15 1.228.103 2.803.651 3.941.25.517.388.634.455 1.19.067.533.294 1.065.55 1.54.326.6.483 1.245.568 1.917.097.748.186 1.5.262 2.25.103 1.036.142 2.061.18 3.093.041 1.071.61 2.068.803 3.113.103.555.438 1.565.065 2.047-.205.27-.619.407-.94.414-.394.003-.858.02-1.15-.09-.98-.378-1.355-1.633-2.077-2.313-.26-.246-.483-.375-.662-.682-.215-.373-.348-.694-.612-1.05-.491-.666-.451-1.524-.518-2.313-.078-.934-.522-1.676-1.096-2.402-.657-.822-.669-1.89-.909-2.882-.212-.868.301-1.74.018-2.612-.208-.638-.576-1.26-1.042-1.754-.31-.33-.315-.577-.368-1.03-.108-.917-.327-1.798-.558-2.696-.171-.667-.2-1.345-.198-2.045 0-1.372-.111-2.872-.449-4.22-.262-1.068-.019-2.17-.339-3.177-.265-.833-.745-2.103-.519-2.965.442-1.702-.18-3.545-.393-5.305-.134-1.133-.272-2.266-.407-3.399-.116-.957-.11-2.014-.362-2.947-.234-.857-.898-1.392-1.181-2.199-.145-.417.125-.925.074-1.335-.065-.487-.327-.789-.437-1.253-.08-.345.091-.695-.088-1.027-.165-.306-.524-.365-.654-.71-.14-.363-.013-.963.006-1.343.047-.86.513-1.815.149-2.656-.278-.65-.573-1.199-.558-2.003.049-2.848-.696-5.634-1.235-8.424.246-1.434-.112-2.956-.329-4.373-.104-.682-.37-1.339-.44-2.007-.077-.738.157-1.465.217-2.193.036-.445-.102-.83-.076-1.288.062-1.008.211-1.776-.2-2.73-.25-.589-.245-1.157-.282-1.818-.066-1.119-.144-2.238-.205-3.357-.086-1.583.394-3.018-.117-4.596-.187-.584.037-.81.178-1.34.114-.433-.025-.818-.105-1.237-.156-.806.297-1.504-.014-2.315-.31-.815.263-1.468.317-2.297.054-.87-.367-1.835-.473-2.715-.076-.615-.09-1.273-.228-1.878-.108-.482-.216-.72-.108-1.233.078-.383.228-.755.322-1.137.15-.599.194-1.227.213-1.844.04-1.21-.007-2.466-.248-3.66-.63-3.148-1.044-5.924-.522-9.09.114-.67-.289-1.194-.248-1.86.062-1.026.282-1.366.179-2.526-.129-1.424-.487-2.825-.523-4.258-.04-1.62 1-3.052.688-4.689-.145-.765.363-2.156.082-2.648-.23-.398-.515-.516-.592-1.033-.177-1.149.388-2.29.382-3.44-.005-.907.17-1.67-.053-2.534-.122-.473-.01-.607.113-1.08.145-.552.013-1.125.084-1.692.107-.866.255-1.47.038-2.308-.178-.687-.453-1.685-.272-2.392.084-.33.259-.514.236-.887-.018-.257-.099-.483-.091-.7.034-.85.488-1.752.36-2.603-.105-.714-.232-1.05.104-1.752.288-.603.52-1.06.557-1.73.04-.763-.206-1.583-.071-2.33.07-.406.343-.635.5-.987.16-.356.099-.627.143-.998.054-.464.402-.629.521-1.015.077-.234-.076-.496-.022-.768.068-.336.351-.467.504-.754.094-.18.053-.449.044-.64-.018-.342-.058-.68-.102-1.02-.042-.333-.088-.669-.138-1.005-.015-.126-.052-.267-.043-.393.013-.194.137-.273.23-.432.074-.116.077-.267.108-.398.08-.344.262-.502.65-.453" transform="translate(-52) translate(191.286 6)"/>
            <path fill="#A7872E" d="M80.347 198.828c.192-.412.27-2.102.645-2.314.272-.151.484-.422.79-.514.325-.1.563.077.847.17.42.133.69.076 1.028.399.375.357.255.552.306 1.048.023.2.22.43.197.629-.022.221-.221.27-.245.404-.083.407.123.701.142 1.124.01.272-.022.51.228.715.34.284.463.23.563.703.093.433.185.865.276 1.3.156.722.66 1.108.914 1.76.1.254.02.492-.052.738-.063.221-.063.484-.004.704.022.08.094.114.134.179.107.19.097.419.178.619.077.177.12.322.155.519.107.62.269.978.718 1.35.274.23.587.617.912.895.154.127.215.464.274.637.043.124.058.286.12.4.1.183.195.142.357.285.313.272.374 1.034.459 1.4.186.793 1.128.2 1.384.986.126.387.574.746.742 1.103.208.436.16.917.182 1.383.01.22.007.523.124.718.13.219.143.101.374.22.145.082.115.161.142.293.08.35.003.602.235.897.2.258.325.589.41.897.08.284.019.63.259.86.154.153.256.129.338.363.06.167.052.344.138.507.107.201.155.102.336.201.39.213.19.599.276.924.052.216.074.182.26.271.385.174.87.167.982.632.028.12 0 .249.03.38.047.192.142.388.208.572.146.405.29.81.439 1.21.168.47.288 1.293.743 1.602.372.246.743.12 1.02.493.22.288.065.713.526.857.413.13.896-.019 1.302-.12.413-.099.319-.266.41-.65.062-.248.151-.486.143-.744-.017-.44-.18-.91-.297-1.302-.256-.864.051-1.904-.393-2.684-.298-.522-.466-.829-.596-1.454-.093-.436-.187-.877-.317-1.305-.096-.315-.387-.22-.573-.43-.177-.198-.125-.58-.225-.82-.093-.22-.262-.373-.3-.617-.038-.22-.023-.406-.082-.63-.157-.57-.26-1.149-.412-1.718-.093-.352-.24-.67-.37-1.004-.066-.166-.053-.448-.172-.58-.115-.131-.2-.02-.32-.101-.195-.127-.193-.472-.214-.671-.026-.288-.155-.529-.41-.69-.246-.154-.559-.192-.72-.46-.168-.275-.204-.577-.087-.867.047-.123.155-.32.07-.446-.062-.089-.205-.07-.282-.14-.196-.173-.182-.46-.237-.694-.061-.25-.139-.502-.19-.757-.015-.076-.014-.286-.061-.341-.1-.119-.247-.039-.361-.123-.256-.192-.165-.666-.283-.913-.113-.237-.403-.313-.516-.56-.113-.248-.011-.659-.142-.86-.148-.22-.418-.178-.52-.462-.138-.394-.11-.924-.158-1.34-.057-.471-.116-.942-.17-1.413-.04-.344.019-1.055-.17-1.344-.184-.286-.424-.251-.464-.645-.015-.145-.052-.358.036-.49.066-.099.188-.1.26-.192.125-.161.132-.532.176-.732.082-.376-.008-.637.38-.835.268-.137.627-.124.904-.216.213-.067.534-.136.658-.307.06-.083.002-.291.102-.422.262-.351.94-.42 1.342-.484 1.147-.184 2.305-.159 3.463-.208.864-.04 1.736-.094 2.58-.287.595-.136 1.726-.423 2.09-.952.67-.97 1.335-1.945 2-2.915.323-.464.714-.882 1.112-1.285.316-.315.923-.427 1.138-.804.333-.588.613-1.013 1.084-1.524.266-.29.653-.58.742-.976.05-.244-.11-.45 0-.686.112-.237.321-.248.37-.56.058-.361.227-.402.338-.718.09-.25-.063-.536-.006-.796.052-.228.311-.352.378-.577.101-.353.008-.689.18-1.05.216-.458-.023-.74.065-1.2.054-.28.335-.377.377-.654.031-.23-.152-.514-.14-.76.015-.33.368-.501.408-.821.025-.21-.198-.846.16-.923.085-.617.076-1.25.01-1.865-.053-.478.038-.947-.041-1.418-.07-.435-.257-.85-.343-1.282-.053-.261-.064-.53-.108-.793-.014-.099-.143-.4-.128-.481.042-.274.494-.255.51-.383.057-.425.05-.946.196-1.352.117-.32.265-.226.464-.468.195-.231.052-.94.052-1.23-.001-.499-.017-.999-.024-1.499-.008-.494-.02-.875.188-1.325.214-.466.224-.774.12-1.28-.105-.513-2.647-41.293-2.664-41.806-.014-.427.275-.803.27-1.232-.004-.506-.084-1.01-.055-1.524.03-.51.405-1.041.387-1.523-.007-.268-.244-.533-.321-.79-.2-.662-.281-2.082.016-2.725.15-.323.244-.287.163-.685-.084-.4-.2-.793-.305-1.186-.072-.266-.132-.534-.218-.794-.115-.353-.164-.258-.413-.466-.42-.344-.196-1.748.201-1.947.493-.245.807-.04 1.038.284.197.275.34.633.488.883.4.673.597 1.552.717 2.308.125.806.473 1.513.611 2.308.2 1.165-.135 2.314.194 3.462.286 1.005.85 2.523.27 3.47-.145.242-.02.443-.034.71-.02.385 2.08 40.894 2.035 41.28-.049.409.07.819.04 1.218-.032.325-.18.546-.1.875.083.33.163.62.183.995.028.588.002 1.206.092 1.79.184 1.198-.178 2.338-.247 3.525-.065 1.15.277 2.512.058 3.626-.092.488-.208.983-.321 1.466-.08.343-.225.308-.392.546-.208.298.179.901.138 1.233-.02.148-.13.24-.17.374-.029.108-.009.242-.032.357-.074.319-.242.547-.372.833-.154.343-.08.762-.01 1.125.083.418.062.35-.179.694-.115.16-.032.273-.087.433-.066.191-.226.28-.29.45-.137.368-.007.917-.05 1.31-.048.383-.27.696-.374 1.06-.114.39-.105.83-.153 1.236-.065.55-.482.788-.849 1.14-.148.138-.406.365-.464.555-.1.326.159.64-.04.975-.148.25-.482.388-.626.654-.201.371-.316.742-.696 1.005-.25.173-.653.2-.862.409-.198.197-.143.476-.244.709-.183.431-.43.906-.805 1.215-.207.172-.389.175-.619.274-.266.11-.397.272-.6.492-.11.118-.67.025-.879.195-.209.174-.185.494-.357.694-.248.284-.56.138-.86.3-.462.25-.425.803-.878 1.016-.493.234-1.065.242-1.492.623-.111.1-.07.311-.244.412-.191.106-.362-.05-.554.097-.15.115-.086.29-.25.405-.174.118-.625.076-.83.1l-1.933.214c-.511.058-1.035.084-1.542.17-.575.094-.967.357-1.164.887-.083.232 0 .497.045.726.028.137.127.334.117.468-.01.15-.152.258-.139.417.026.246.195.206.134.49-.038.184-.213.29-.17.504.05.245.356.347.47.541.132.218.139.552.155.796.033.45.072.826.216 1.252.13.376.146.781.454 1.087.14.138.168.053.251.3.099.286.088.49.105.772.02.313.221.155.421.29.401.28.42 1.024.554 1.434.184.584.39.704.75 1.142.227.278.083.77.2 1.081.089.238.304.38.442.583.144.215.1.471.223.681.122.212.385.331.502.552.15.275.285.613.271.93-.01.238-.089.45-.072.695.036.514.1 1.188.303 1.673.14.34.342.508.43.863.091.368.075.72.28 1.063.336.558.47.585.434 1.294-.04.803.237 1.382.346 2.18.133.964.269 1.927.359 2.897.081.873.13 1.756.067 2.636-.029.433-.053.865-.122 1.297-.035.216-.06.475-.168.673-.15.278-.68.406-.953.572-.31.184-.585.228-.947.245-1.142.053-2.297-.061-3.372-.436-.526-.186-1.241-.357-1.674-.696-.538-.427-.768-1.202-1.013-1.761-.254-.59-.534-1.166-.831-1.737-.231-.438-.504-.864-.702-1.315-.178-.409-.12-.883-.314-1.266-.273-.53-.886-.844-1.256-1.303-.39-.482-.756-1.055-1.081-1.565-.363-.567-.148-.927-.37-1.54-.156-.434-.602-.73-.834-1.123-.165-.279-.366-.663-.374-.988-.006-.236.145-.544-.035-.749-.158-.186-.132-.3-.158-.543-.03-.279-.03-.572-.173-.825-.208-.362-.48-.052-.67-.517-.137-.315-.117-.697-.223-1.024-.111-.343-.37-.689-.68-.758-.23-.051-.46.159-.683.095-.325-.095-.526-.504-.597-.796-.125-.495-.026-1.142-.303-1.591.008.012-.21-.035-.238-.05-.078-.052-.131-.144-.176-.224-.384-.678-.368-1.336-.922-1.937-.209-.226-.43-.423-.62-.673-.09-.117-.262-.19-.318-.333-.06-.15.058-.332-.03-.47-.163-.252-.417-.315-.574-.561-.383-.593-.236-1.346-.482-1.975-.246-.619-.27-1.257-.483-1.904-.13-.39-.413-.513-.64-.84-.223-.316-.116-.77-.257-1.088-.09-.202-.314-.19-.48-.303-.223-.15-.242-.325-.223-.574.038-.468.237-.938.436-1.362" transform="translate(-52) translate(191.286 6)"/>
            <path fill="#DA2128" d="M86.075 118.922c.08-.48-.122-1.082-.205-1.554-.04-.238-.139-.563.071-.764.24-.226.423.108.56.268.263.305.553.591.856.86.52.45.799.394.69 1.086-.058.38-.147.771-.342 1.111-.1.18-.341.494-.574.516-.142.015-.234-.08-.31-.19-.088-.129-.046-.379-.151-.474-.113-.102-.345-.01-.486-.032-.293-.049-.182-.377-.109-.827m10.069 2.122c-.202-.326.16-.927.467-1.163.341-.263.821-.23 1.17-.484.147-.107.735-.48.798-.63.103-.23-.249-.488-.13-.732.154-.32.48-.105.556-.647.022-.164-.078-.45-.006-.595.096-.194.294-.114.402-.274.154-.225.197-.576.365-.826.376-.02.336.358.326.594.742-.15.317.816.138 1.098-.092.141.02.174-.133.31-.183.164-.417.02-.65.3-.16.195-.2.472-.229.71-.128 1.016.351 1.786-.577 2.586-.139.121-.373.18-.476.325-.14.204-.004.34-.133.594-.36.024-1.09.198-1.338-.069-.175-.192-.004-.415-.084-.638-.02-.049-.04-.086-.062-.116-.112-.164-.272-.134-.404-.343m-15.448-9.213c.085.81.196 1.62.29 2.428.169 1.386.091 2.81.469 4.166.181.663.51 1.071.875 1.618.407.61.594 1.374.844 2.052.08.216.964 3.205 1.075 3.19.967-.12 2.092.83 3.062.452.603-.232.685-.767 1.368-.77.48-.002.828.222 1.251.017.49-.235.699-.384 1.262-.479.281-.05.669-.448.931-.587.325-.174.66-.304 1.018-.398.602-.162 2.219-.494 2.65.202.107.173-.086.443.058.61.288.33.985.277 1.365.512.504.313.94.863 1.356 1.276.482.476.991.993 1.555 1.378.42.285.916.332 1.342.59.254.15.412.445.668.537.236.09.428.074.643.172.249.117.305.372.653.28.017-.092.076-.148.091-.238.336-.062.69.41 1.017.323.307-.087.504-.73.656-1.036.286-.572.495-1.449.503-2.083.007-.376-.15-.97-.296-1.322-.124-.297-.25-.362-.237-.704.013-.256.06-.505.027-.762-.045-.374-.126-.748-.004-1.119.15-.462.821-.526.917-1.038.064-.363-.383-.664-.385-1.019-.003-.516.27-.978.27-1.477.004-.7-.19-1.562-.292-2.265-.054-.389-.258-.513-.396-.848-.387-.94-.034-3.314-1.518-3.53-.575-.084-1.227-.083-1.802-.03-.612.057-.6.154-1.131.484-.566.35-1.163.144-1.718.444-.627.337-1.067 1.153-1.452 1.706-.565.807-1.003 1.392-1.825 1.968-.308.217-.268.217-.46.54-.42.698-.66.13-1.306.367-.114-.808-.513-1.113-1.066-1.618-.461-.42-.73-.99-1.172-1.423-.437-.424-.974-.823-1.447-1.219-.437-.36-.406-.346-1.042-.373-.578-.023-1.36-.3-1.792-.643-.371-.294-1.18 1.865-1.2 2.106-.037.398.198.696-.242.97-.151.093-.702.16-.878.118-.737-.16-.943-2.178-.658-2.68.269-.476.5-.656.41-1.228-.058-.364-.215-.743-.376-1.075-.2-.419-.53-.728-.968-.924-.763-.339-1.383-.156-1.893.457-.246.295-.366.711-.628.983-.044.045-.083.085-.12.12-.308.3-.377.285-.322.822" transform="translate(-52) translate(191.286 6)"/>
            <path fill="#A7872E" d="M47.874 71.617c-.521.311-1.205.311-1.614.806-.601.718-1.033 1.555-1.523 2.344-.248.398-.246.424-.685.546-.382.108-.622-.025-.906.352-.355.472-.378 1.182-.906 1.536-.51.345-1.267.111-1.69.623-.193.233-.15.668-.386.867-.419.348-1.229.248-1.552.657-.358.45-.174 1.005-.912 1.257-.477.161-1.002.095-1.367.458-.389.383-.29.885-.886 1.095-.26.093-.397-.035-.616.131-.153.115-.116.343-.27.47-.425.36-.971.063-1.392.296-.218.123-.17.38-.51.483-.188.058-.56.007-.761-.005-.783-.045-1.095-.126-1.528.472-.383.532-.547.38-1.23.341-.967-.06-1.934.107-2.877.3-.375.075-.745.138-1.088.304-.304.151-.571.483-.938.483-.388.002-.694-.516-1.026-.642-.667-.254-1.5.36-1.97-.33-.709-1.047-.255-2.589.327-3.567.672-1.13 1.887-1.695 2.547-2.954.667-1.279.92-1.865 2.47-2.125.004-.118.014-.237.028-.357 1.053.076.642-.83 1.185-1.027l1.716-.617c.618-.225.8-1.113 1.102-1.593.465-.737.744-.868 1.553-1.234 1.478-.66 2.434-1.73 3.653-2.753.741-.619 1.72-.903 2.643-1.167.33-.095.847-.149 1.141-.305.304-.164.422-.42.667-.644.306-.28.646-.224 1.025-.457.248-.152.368-.32.7-.38.17-.028.54.087.685.003.474-.275.473-.67 1.1-.85.665-.19 1.35-.272 1.969-.596.116-.063.295-.456.609-.617.194-.1.442-.127.654-.187 1.202-.35 2.539-.507 3.699-.955.502-.194.59-.52.996-.783.687-.454 1.53-.722 2.351-.868.246-.043.756.016.953-.059.256-.096.32-.325.553-.44.32-.155.486-.117.824-.169.51-.078.828-.1 1.255-.37.17-.11.165-.33.38-.419.237-.1.47.092.668.026.316-.106.467-.44.756-.587.225-.119.528-.105.773-.189.826-.286 1.545-.787 2.394-1.02.912-.257 1.846-.445 2.77-.654 2.514-.574 4.656-1.75 7.068-2.64 2.03-.755 3.839-.807 5.948-1.23 1.079-.216 2.18-.965 3.154-1.18.84-.189 1.693-.322 2.54-.46.535-.088 1.104-.117 1.631-.223.567-.115.683-.417 1.205-.643.257-.109.564-.028.829-.118 1.673-.568 3.205.33 4.846.154.682-.07 1.105-.515 1.694-.782.68-.306 1.366-.242 2.09-.346 1.43-.2 2.187-1.58 3.69-1.678.863-.058 1.681-.416 2.546-.54.991-.149 1.97-.356 2.946-.572.358-.08.694-.142 1.01-.317.286-.158.53-.402.843-.508.331-.115.765-.08 1.115-.128.342-.044.488-.114.757-.292.63-.418 1.329-.404 2.04-.62.195-.06.352-.186.557-.214.565-.079 1.16.247 1.723.28 1.166.071 2.161-.746 3.13-1.22.782-.382 1.784-.534 2.629-.748.572-.145.917-.496 1.459-.695.624-.23 1.3-.28 1.95-.404 1.193-.219 2.652-.809 3.868-.702.996.091 1.903.432 2.714.977.26.171.473.313.674.484 2.91 2.534-2.728 3.978-3.345 6.073-1.326.447-2.88 1.438-3.914 2.393-.16.147-.168.264-.405.348-.363.134-.815.078-1.195.056-.435-.025-.988-.132-1.415-.04-.19.04-.322.16-.47.272-.103.082-.23.133-.323.23-.083.086-.114.24-.215.306-.134.09-.344.078-.497.092-.43.037-.8.108-1.23.077-2.783-.213-4.468.406-6.79 1.517-2.842 1.356-6.148.348-9.004 1.65-.456.205-.94.165-1.425.227-.774.102-.714.677-.637 1.282.031.228-.243.556-.203.854.04.327.25.628.372.93.14.334.345.802.27 1.17-.186.93-.638 1.213-.301 2.213.302.894.864 1.678 1.323 2.5.588 1.055.602 2.366 1.173 3.385.963 1.713 1.554 2.71 2.782 4.053.241.263.305.694.457 1.006.455.913.912 1.684 1.527 2.495.264.347.247.451.726.612.356.12.73.101.925.478.208.404.042.506.408.787.486.374.41.221.58.827.124.447.435.96.764 1.297.255.263.69.35.922.62.212.243.136.642.386.855.214.18.473.062.688.274.583.567 1.316 1.21 1.714 1.913.313.555.295 1.246.786 1.723.15.148.54.071.656.187.996.973 2.078 1.83 3.002 2.877.471.536.744.792 1.487.99.58.16 1.89-.124 1.946.774.008.142-.08.228.111.295.125.041.288-.037.412-.05.343-.043.326.164.488.367.105.131.31.142.467.146.315.01.623-.036.931-.067.195-.02.38-.02.563.042.12.04.23.098.336.164.064.044.324.298.38.292.458-.049.79.38.8.861.01.356-.28.558-.423.861-.34.718-1.059 2.821.152 3.145-.193 1.012.036 1.362.79 2.075.807.758 1.616 1.52 2.53 2.157 1.005.7 1.76.58.683 2.414-.074.123.14.314.051.421-.412.5-1.118.071-1.628.097-.458.022-.78.476-1.208.603-.141.044-.51-.028-.6.07-.162.175.11.316-.003.468-.384.527-1.156.47-1.744.446-.314-.012-.756-.123-1.055-.037-.406.116-.542.486-.849.712-.204.15-.48.16-.681.304-.128.091-.187.266-.31.35-.397.258-.815.1-1.212.313-.856.463-1.78 1.006-2.757 1.138-.372.05-.412.096-.694.295-.524.372-1.632.323-2.249.234-.81-.117-1.595-.357-2.398-.493-.532-.09-1.317.146-1.852.205-.729.08-.99.183-1.654-.1-.58-.248-1.205.2-1.701-.023-.128-.055-.129-.207-.235-.27-.544-.327-1.596-.016-2.18-.037-.503-.015-.3.001-.68-.373-.29-.284-.544-.387-.958-.39-.545-.006-.478-.026-.956-.279-.533-.278-1.676-.214-2.288-.243l-2.118-.102c-.312-.016-.69.088-.986-.023-.336-.127-.78-.27-1.085-.425-.527-.27-.533-.339-1.092-.309-.75.035-.788-.587-1.387-.884-.523-.259-1.243-.128-1.807-.228-.43-.079-.707-.37-1.052-.599-.53-.349-.742-.268-1.353-.196.002 0-.606-.639-.734-.715-.346-.199-.73-.174-1.07-.31-.357-.137-.295-.318-.598-.533-.51-.369-1.92-.034-2.329-.494-.464-.519-1.006-.93-1.686-1.157-.344-.114-.719-.068-1.063-.166-.464-.132-.486-.324-.76-.637-.65-.74-1.385-1.623-2.292-2.08-.56-.284-.868-.14-1.32-.632-.513-.565-1.073-.95-1.717-1.385-.462-.31-.982-.434-1.236-.93-.151-.293-.094-.613-.329-.869-.23-.252-.645-.292-.904-.518-.523-.446-.62-.904-1.29-1.113-.735-.229-.603-.408-.816-1.11-.12-.399-.52-.392-.798-.622-.351-.284-.355-.78-.696-1.066-.15-.12-.347.021-.488-.146-.11-.126-.04-.335-.12-.478-.154-.285-.241-.347-.513-.549-.558-.414-.773-.879-1.145-1.422-.36-.524-.895-.96-1.312-1.443-.284-.325-.352-.83-.661-1.109-.511-.459-.827-.166-1.04-.879-.134-.457-.083-.307-.409-.59-.08-.069-.233-.005-.33-.14-.094-.134.062-.378-.01-.514-.16-.29-.566-.264-.784-.49-.437-.453-.464-1.17-.954-1.575-.347-.287-.48-.223-.726-.59-.233-.344-.236-.819-.479-1.137-.215-.283-.6-.32-.824-.583-.138-.162-.166-.385-.296-.545-.306-.368-.733-.368-.93-.839-.166-.403-.04-.704-.483-.99-.735-.474-.877-.7-1.257-1.454-.323-.635-.592-1.29-.828-1.958-.338-.96-.586-1.934-.83-2.916-.194-.779-.467-.805-1.244-.989-.386-.09-.777-.547-1.215-.537-.291.011-.852.372-1.032.56-.388.397-.624 1.12-.968 1.582-.394.53-.83 1.027-1.284 1.513-.408.433-.871 1.027-1.393 1.34m1.09 4.335c.12-.056.343-.112.44-.19.328-.266.497-.57.875-.83.524-.36.852-.945 1.379-1.3.34-.229.845-.79 1.244-.74.802.101 1.09 1.14 1.707 1.531.31.196.537.267.694.616.15.336.055.708.298 1.018.241.306.562.411.768.717.333.49.395 1.171.61 1.713.371.13.815.187 1.007.511.069.113 0 .242.046.348.08.19.216.174.288.268.066.087.192.172.297.374.234.436.2 1 .454 1.428.257.436.656.522 1.043.915.16.161.223.482.337.593.223.223.54.231.74.521.148.21.109.371.286.571.18.21.505.472.69.668.177.193.208.246.479.393.477.27.924.71 1.233 1.162.194.28.186.584.323.88.132.283.387.46.536.733.163.301.037.673.224.96.257.392 1.051.337 1.395.65.191.18.523.668.648.913.121.234.063.536.231.766.29.393.83.442 1.159.774.38.384.507 1.05.696 1.54.163.418 1.524.95 1.913 1.235.383.282 1 .612 1.227 1.033.209.394.04.674.456.866.548.246.548-.019.684.653.126.606.992.822 1.458 1.161.532.381 1.049.964 1.674 1.206.277.106.447.052.72.231.257.17.325.413.664.48.367.07.521-.057.848.151.26.167.474.52.694.74.467.463.993.924 1.67 1.066.71.151 1.236.06 1.792.571.42.388.679.906 1.198 1.194.48.263 1.264.021 1.737.373.348.261.268.265.668.346.24.048.385.017.597.148.237.146.206.306.497.377.397.094.527-.109.91.176.212.16.296.405.45.605.364.49.778.628 1.385.81.709.211 1.429.384 2.158.51.346.058.722.144 1.076.144.244 0 .53.025.764-.043.103-.03.236-.089.353-.067.128.023.224.134.331.174.159.063.376.042.548.045.104 0 .205-.062.293-.06.232.003.383.227.586.298.245.087.526.15.783.188.589.088 1.198.038 1.773.205.509.145.826.544 1.287.743.423.18.812.07 1.252.172.36.082.673.295 1.02.41.397.131.776.115 1.176.21.115.027.207.081.294.14.136.096.257.21.433.273.413.147.876-.022 1.303.051.416.074.846.33 1.258.442.7.196 1.49.45 2.216.505.732.055 1.423-.16 2.103-.302 1.663-.35 3.347-.599 5.038-.789.94-.105 2.852.048 3.477-.613.272-.288.12-.288.597-.43.971-.29 1.989-.443 2.935-.695.716-.19 1.09-.908 1.826-1.075.437-.1.87-.218 1.308-.319.222-.05.527-.059.733-.148.227-.102.09-.412.322-.48.171-.055.41.06.589.05.378-.032.352-.468.639-.62.404-.217.985-.035 1.427-.28.331-.187.496-.488.87-.605.285-.086.602.04.871-.136.353-.228.245-.655.523-.95.715-.753 1.754-1.287 2.347-2.155.588-.86.974-2.275 1.344-3.253.47-1.226.589-2.564.569-3.859-.009-.664-.062-1.333-.149-1.992-.06-.464.124-1.259-.097-1.664-.16-.29-.425-.316-.518-.658-.275-.982-.248-1.926-.645-2.91-.387-.967-.92-1.918-1.736-2.614-1.106-.942-2.141-.787-3.309-.082-.976.59-1.943 1.214-3.01 1.648-.424.173-1.262.583-1.733.507-.221-.04-.215-.166-.381-.23-.784-.29-1.777.014-2.493-.266-.314-.124-.41-.44-.69-.597-.409-.229-.945-.11-1.387-.062.008 0-.443-.476-.538-.534-.318-.192-.524-.21-.892-.169-.04.008-.734-1.296-.84-1.43-.287-.367-.477-.45-.898-.576-.355-.11-.594-.12-.796-.429-.222-.342-.211-.887-.505-1.253-.283-.355-.613-.424-1.063-.576-.125-.26-.161-.823-.292-1.009-.096-.133-.76-.305-.747-.168-.032-.339-.058-.64-.318-.894-.157-.153-.451-.178-.586-.343-.191-.227-.034-.393-.178-.61-.163-.25-.582-.149-.764-.345-.158-.168-.027-.38-.111-.575-.188-.442-.74-.583-1-.978-.24-.366-.237-.746-.57-1.066-.414-.389-1.046-.518-1.5-.857-.366-.272-.765-.709-.937-1.129-.172-.424.026-.869-.132-1.287-.09-.243-.311-.385-.463-.585-.286-.384-.245-.917-.476-1.323-.23-.406-.557-.834-.84-1.225-.472-.64-.949-1.297-1.347-1.98-.328-.564-.874-.927-1.184-1.475-.24-.424-.145-1.038-.332-1.489-.238-.574-.411-1.168-.597-1.767-.163-.536-.604-1.453-.266-1.975.125-.192.306-.126.394-.34.228-.545-.082-.676.586-.976.427-.193.905-.305 1.365-.408.731-.163 1.473-.264 2.22-.363 1.076-.144 2.159-.207 3.22-.402 1.306-.238 2.527-1.04 3.845-1.11 1.064-.056 2.135-.025 3.195-.157.48-.06 1.077-.124 1.53-.294.28-.107.35-.395.58-.556.344-.242.75-.067 1.083-.237.25-.123.387-.373.639-.503.317-.162.747-.196 1.094-.268.547-.115 1.097-.228 1.648-.345.24-.052.392-.09.588-.216.257-.166.443-.406.722-.549.33-.165.797-.207 1.095-.413.152-.103.224-.336.375-.417.155-.082.264.01.41-.027.338-.082.367-.394.497-.644.121-.24.367-.396.63-.464.247-.067.272.018.44-.187.275-.33.146-.776.665-.975.671-.259 1.306-.172 1.586-.875.117-.29.236-.633.519-.818.284-.185.67-.106.932-.33.372-.318.617-1.04.861-1.458.239-.415.441-.953.724-1.329.177-.239.598-.41.697-.689.09-.274-.124-.346-.188-.58-.084-.305-.083-.654-.12-.969-.064-.57.142-1.06-.388-1.485-.315-.255-.823-.308-1.176-.457-.969-.402-1.882-.906-2.824-1.359-2.198-1.059-4.453-1.453-6.912-1.202-.21.021-.73.611-1.015.717-.406.152-.84.176-1.27.201-1.495.09-2.204.714-3.446 1.152-1.294.456-2.669.448-3.997.855-.905.277-1.86.92-2.954 1.048-1.305.151-2.613.296-3.921.428-1.438.15-2.659 1.045-4.078 1.306-1.117.21-2.251.326-3.384.43-.67.06-1.347-.012-2.014.097-.43.072-.495.22-.782.396-.31.196-.644.156-1.063.306-.54.196-.648.486-1.273.525-.725.043-1.447.005-2.167.122-1.113.182-2.028.981-3.119 1.251-1.635.403-3.42.487-5.092.687-2.031.24-3.666 1-5.624 1.256-1.59.21-3.097.687-4.592 1.223-.578.208-1.18.141-1.716.402-.537.256-.836.821-1.412 1.032-.412.152-.982.028-1.419.124-2.242.496-4.595 1.397-6.79 2.101-.8.255-4.855 1.193-4.855 2.33 0 .053-1.05-.01-1.18 0-.412.033-.782.23-1.147.403-.5.246-.739.22-.666.784-.855.095-1.714.188-2.568.282-.449.05-.962.018-1.385.195-.398.168-.607.5-.994.681-.794.373-1.663.568-2.515.773-.688.167-1.392.46-2.008.777-.855.443-3.6.441-3.448 1.718-.506.055-1.367-.128-1.769.246-.209.2-.138.575-.362.76-.563.465-1.345.42-1.987.726-.631.301-1.473.345-2.022.802-.295.248-.4.485-.753.69-.646.377-1.32.653-1.952 1.06-.642.414-.855.87-1.21 1.542-.754.084-.78.17-1.127.67-.363.526-.61.185-1.136.48-.443.248-.818.672-1.236.974-1.074.765-2.108 1.64-2.996 2.602-.88.957-1.514 1.93-2.466 2.798-.635.58-1.237 1.196-1.817 1.827-.336.366-.678.735-.967 1.138-.387.54-.18.865-.368 1.415-.08.23-.262.363-.48.507-.268.172-.426.085-.547.41-.111.303.128.417.07.721-.096.462-.822.595-.892 1.106-.04.29.1.53.163.806.084.385-.002.648-.006 1.021 0 .438.476 1.382.728 1.724.471.63 1.46.888 2.037 1.433.26.245.223.421.632.431.32.008.413-.174.766-.1.589.12.68.693 1.217.885.353.125.479-.087.768-.058.59.066 1.072.601 1.729.688.636.082 1.294.05 1.93-.014.917-.093 2.39-.206 3.105-.847.494-.445.455-.343 1.158-.474.66-.123.779-.847 1.494-.986.402-.08.488.123.871-.19.467-.38.718-.578 1.284-.78.492-.174 1.148-.379 1.557-.696.663-.517 1.473-.716 2.308-.99.292-.097.595-.155.818-.364.216-.2.228-.532.456-.72.294-.247.768-.105 1.041-.372.296-.287.272-.604.668-.867.287-.19.76-.206.974-.379.31-.253.108-.632.408-.915.265-.25.742-.139 1.013-.472.12-.145-.028-.329.149-.493.139-.128.373-.08.55-.13.711-.212.509-.546.89-.973.623-.7 1.169-1.488 2.004-1.984.4-.24.79-.312 1.196-.497" transform="translate(-52) translate(191.286 6)"/>
            <path fill="#A7872E" d="M92.584 68.696c.392-.192.874-.06 1.29-.026.281.022.823.003.966.31.037.077.008.59.074.611.31.108.625.216.933.327.455.16.514 1.568.522 1.937.003.363.006.73-.013 1.092-.014.251.016.488-.163.686-.19.202-.476.143-.725.15-.546.02-1.184.024-1.662-.269-.319-.193-.498-.506-.71-.797-.128-.179-.259-.357-.41-.522-.234-.253-.531-.338-.65-.678-.127-.37-.105-.77-.106-1.153-.003-.385.085-.69.26-1.035.102-.199.184-.533.394-.633M75 71.721c.024-.108-.038-.177.04-.262.052-.059.14-.083.215-.08.27.006.54.048.809.067.251.022.503.042.755.063.112.01.246-.004.346.048.129.088.148.225.198.336.139.296.304.583.503.846.204.272.444.515.715.722.14.106.286.204.442.287.14.078.257.114.285.28.031.178.011.39.014.57.003.247 0 .501-.065.744-.057.23-.17.446-.285.66-.119.222-.138.514-.43.564-.255.044-.518.032-.772.06-.196.022-.385.077-.585.083-.089.001-.182.005-.236-.067-.109-.142.045-.293-.152-.364-.183-.068-.4-.076-.59-.134-.227-.07-.442-.172-.608-.342-.128-.132-.222-.29-.347-.424-.12-.126-.256-.236-.405-.33-.156-.094-.33-.14-.392-.318-.065-.195-.065-.43-.098-.632-.05-.312-.11-.624-.117-.938-.008-.4.15-.762.421-1.059.114-.124.301-.224.339-.38M117.975 70.987c1.138-1.105 2.445-2.061 3.738-3.01.941-.691 2.184-1.088 2.94-1.911 2.931-3.174 6.502-4.64 10.916-4.31.376.03.774-.357 1.182-.496.73-.252 1.471-.64 2.215-.653.172-.002.34 0 .508 0 .61-.061 1.217-.048 1.824.075 1 .058 2.004.128 3.004.109 3.977-.077 7.562 1.084 10.837 3.118 3.058 1.899 3.212 5.068.552 7.588-.153.274-.33.533-.538.782-.43 1.204-1.485 1.52-2.553 1.516-.338.084-.681.14-1.024.179-.45.076-.905.129-1.342.169-.192.019-.365-.008-.513-.066-1.024.009-2.05-.023-3.074.066-1.761.16-3.735.994-5.189 1.918-.512.324-1.05.17-1.384-.161-.2.07-.402.142-.602.218-.069.11-.164.205-.286.27-1.444.778-2.835 1.639-4.223 2.507-.465.293-.955.19-1.289-.081-1.005.718-1.975 1.52-2.944 2.256-2.639 2.007-5.185 4.108-8.551 5.147.15-.355.332-.685.529-1.006-.007-.005-.012-.007-.016-.011-.49-.372-.472-.948-.17-1.417.39-.604 1.01-.987 1.68-1.26.123-.053.252-.096.38-.138.984-1.037 2.369-1.667 3.386-2.67 2.638-2.604 5.78-5.126 10.126-5.032.017 0 .033-.003.05-.01.01-.002.018-.005.03-.01.29-.113.604-.838 1.024-1.394.224.023.466.045.72.072.015-.005.03-.01.044-.013.88-.138 1.724-.655 2.647-.8.018-.003.04-.003.06-.007 1.278-.303 2.558-.504 3.732-.955 1.806-.695 3.508-1.603 5.026.4l.059-.007c.806-.152 1.57-.432 2.078-1.066.18-.222.332-.471.465-.74.163-.412.259-.862.322-1.31.04-.293.178-.504.367-.641.052-.184.106-.363.161-.54-.206-.24-.426-.474-.663-.703-1.359-.25-2.329-.967-3.145-1.873-.142.003-.292-.022-.448-.087l-.833-.34.025.123c-2.606-.748-5.028-1.447-7.481-2.151-.26.205-.622.293-1.028.14-.853-.32-1.763-.222-2.631.018-.213.058-.434.07-.636.029-.212.07-.427.14-.642.2-5.036 1.462-10.2 2.656-14.264 6.153-2.996 2.58-5.906 5.254-8.927 7.808-.855.725-.23 2.264-1.13 2.905l-1.863-1.996c2.365-2.423 4.508-4.714 6.762-6.901M75.237 111.74c.338 4.154-.095 8.31.964 12.49.606 2.384-.216 5.09-.334 7.655-.157 3.55-.269 7.104-.378 10.657-.058 1.983-.252 3.986-.058 5.948.287 2.918-2.15 4.155-3.74 5.855-.456.49-2.2.638-2.686.225-2.855-2.431-6.284-4.59-6.752-8.673-.562-4.954-.184-9.918.123-14.881.354-5.71.167-11.411-1.319-16.988-.165-.622-1.029-1.158-1.683-1.556l.488-2.808c.076.14.464.112.693.193 4.355 1.537 4.334 1.537 4.413 6.42.116 7.517.418 15.037.347 22.553-.04 4.349.517 8.417 3.36 12.127l3.33.395c.927-2.85 1.19-5.606.448-8.593-.35-1.422-1.324-3.715 1.153-4.88.154-.071.19-.883.014-1.004-1.97-1.36-1.723-2.68-.058-4.068.193-.156.414-.542.339-.69-1.91-3.728.785-7.72-1.088-11.726-1.211-2.588-1.375-6.237-3.398-9.334" transform="translate(-52) translate(191.286 6)"/>
            <path fill="#FFF" d="M79.065 173.599c-1.405 3.499-4.757 5.941-8.232 7.672-1.735.865-3.782 1.905-4.016 3.763-.176 1.398.834 2.72 2.075 3.479 1.852 1.132 4.176 1.313 6.364 1.122 1.802-.157 3.624-.56 5.137-1.509 1.74-1.091 2.95-2.837 3.664-4.705.716-1.869.974-3.868 1.128-5.852.091-1.166.144-2.358-.18-3.485-.327-1.127-1.092-2.194-2.226-2.632-1.013-.391-2.243-.206-3.083.463-.84.668-1.252 1.793-1.033 2.817M101.51 179.727c-.361 2.647-2.256 4.875-4.359 6.63-1.05.874-2.286 1.922-2.124 3.246.124.997 1.054 1.75 2.045 2.077 1.48.488 3.121.241 4.603-.24 1.22-.398 2.41-.968 3.292-1.867 1.014-1.034 1.547-2.436 1.716-3.845.169-1.408-.002-2.833-.242-4.23-.141-.823-.312-1.657-.735-2.385-.422-.728-1.138-1.345-1.999-1.467-.77-.108-1.59.217-2.054.814-.465.597-.553 1.442-.224 2.116M60.032 71.392c3.933 6.993 8.807 13.498 14.466 19.306 4.92 5.049 10.832 9.758 17.954 10.864.212.032.428.062.64.035.954-.118 1.374-1.334 1.003-2.182-.372-.849-1.233-1.39-2.047-1.878-3.08-1.853-6.162-3.705-9.243-5.556-2.849-1.712-5.714-3.436-8.198-5.607-4.36-3.813-7.374-8.87-9.427-14.17-.41-1.06-.805-2.164-1.607-2.994-.801-.83-2.142-1.306-3.192-.788-1.456.718-1.128 3.24.468 3.596M40.584 69.652c-3.108 3.432-7.598 5.352-11.817 7.429-1.011.498-2.172 1.282-2.02 2.36.121.872 1.073 1.403 1.964 1.618 1.989.48 4.11.044 5.997-.724 4.34-1.766 7.834-5.34 9.386-9.6.209-.572.385-1.194.21-1.776-.333-1.108-1.899-1.55-2.976-1.034-1.077.515-1.661 1.692-1.783 2.838" opacity=".382" transform="translate(-52) translate(191.286 6)"/>
            <path fill="#FFF" d="M34.314 270.396L45.248 306.217 73.135 322.985 52.006 328.356 62.941 364.178 38.948 331.676 17.819 337.048 24.12 311.589 0.128 279.087 28.014 295.855z" transform="translate(-52) translate(191.286 6)"/>
            <path fill="#FFF" d="M64.818 556.727L63.471 642.531 78.853 651.233 78.853 565.432zM25.877 534.59L24.53 620.394 51.302 637.143 51.302 551.342zM168.351 518.266L169.697 604.071 123.057 633.25 142.925 535.019z" opacity=".447" transform="translate(-52) translate(191.286 6)"/>
            <path stroke="#A7872E" d="M44.614 380.924s19.685 5.823 25.548-7.671" transform="translate(-52) translate(191.286 6)"/>
            <path fill="#A7872E" d="M47.24 371.975s-3.873 3.619 1.817 9.799c0 0 4.352-2.831-1.818-9.799M53.556 371.067s-3.872 3.62 1.818 9.798c0 0 4.351-2.83-1.818-9.798M59.305 369.846s-3.872 3.62 1.818 9.798c0 0 4.351-2.83-1.818-9.798M63.9 366.072s-3.873 3.619 1.817 9.799c0 0 4.352-2.831-1.818-9.8M50.167 383.368s5.082 8.046 9.765 5.915c0 0-4.405-8-9.765-5.915M56.796 382.755s5.082 8.046 9.765 5.915c0 0-4.405-8-9.765-5.915M62.33 380.955s5.082 8.046 9.765 5.915c0 0-4.405-8.001-9.766-5.915M67.313 378.728s6.24 7.376 9.614 3.59c0 0-5.664-7.531-9.614-3.59" transform="translate(-52) translate(191.286 6)"/>
            <path stroke="#A7872E" d="M35.252 375.752s-19.685-15.925-25.548-35.898" transform="translate(-52) translate(191.286 6)"/>
            <path fill="#A7872E" d="M32.626 363.902s3.872 7.897-1.817 7.79c0 0-4.352-7.639 1.817-7.79M26.31 356.016s3.872 7.897-1.818 7.79c0 0-4.351-7.639 1.818-7.79M20.561 348.443s3.872 7.897-1.817 7.79c0 0-4.352-7.64 1.817-7.79M15.967 339.592s3.872 7.897-1.819 7.79c0 0-4.35-7.639 1.819-7.79M29.7 372.061s-5.083 2.431-9.766-4.875c0 0 4.405-3.133 9.765 4.875M23.07 364.124s-5.082 2.431-9.765-4.875c0 0 4.405-3.133 9.765 4.875M17.537 356.21s-5.082 2.431-9.766-4.875c0 0 4.406-3.133 9.766 4.875M12.553 348.477s-6.24.483-9.614-7.031c0 0 5.664-1.275 9.614 7.031" transform="translate(-52) translate(191.286 6)"/>
            <path fill="#FFF" d="M134.108 264.946L174.784 242.759 137.18 402.656z" opacity=".399" transform="translate(-52) translate(191.286 6)"/>
            <path fill="#FFF" d="M92.71 502.025L117.914 490.695 93.368 322.708z" opacity=".447" transform="translate(-52) translate(191.286 6)"/>
            <path fill="#A7872E" d="M22.647 383.241L25.3 390.556 66.561 410.867 67.081 402.756zM25.977 398.998L28.63 406.313 66.561 424.681 67.081 416.569zM27.993 413.371L30.644 420.686 66.56 438.494 67.081 430.382z" transform="translate(-52) translate(191.286 6)"/>
            <g stroke="#FFF" stroke-linecap="round" stroke-width="2" opacity=".355">
                <path d="M35.13.76v26.858M.298 23.888l33.269 10.197M69.963 23.888l-33.27 10.197M14.616 61.842l16.478-21.988M55.644 61.842L39.166 39.854" transform="translate(-52) translate(191.286 6) translate(125.414)"/>
            </g>
            <path stroke="#FFF" stroke-width="3" d="M191.681 214.053L82.636 273.549 82.682 516.257" transform="translate(-52) translate(191.286 6)"/>
        </g>
    </g>
</svg>
