<svg xmlns="http://www.w3.org/2000/svg" xmlns:xlink="http://www.w3.org/1999/xlink" width="665" height="743" viewBox="0 0 665 743">
    <defs>
        <path id="prefix__a" d="M0.402 0.37L253.02 0.37 253.02 252.99 0.402 252.99z"/>
        <path id="prefix__b" d="M376.825 43.239L150.453 181 0.208 94.192 237.336 0.952z"/>
        <path id="prefix__e" d="M0.986 51.9L89.399 102.951 177.239 51.9 88.825 0.852z"/>
        <path id="prefix__h" d="M0.986 51.9L89.399 102.951 177.239 51.9 88.825 0.852z"/>
        <path id="prefix__j" d="M0.227 94.239L115.112 160.574 115.027 51.952 26.613 0.902z"/>
        <path id="prefix__m" d="M1.027 51.952L0.94 160.574 115.825 94.239 89.44 0.902z"/>
        <path id="prefix__p" d="M0.817 58.053L63.928 340.678 105.112 360.257 104.394 0.497z"/>
        <path id="prefix__s" d="M0.112 360.257L41.296 340.678 104.407 58.053 0.831 0.497z"/>
        <path id="prefix__v" d="M0.706 59.021L102.069 117.549 202.773 59.021 101.41 0.497z"/>
        <path id="prefix__y" d="M231.575 1.073L117.941 66.687 4.479 1.074C3.283.383 1.755.792 1.063 1.987.371 3.182.78 4.712 1.976 5.402l114.713 66.337c.387.224.819.335 1.251.335.432 0 .864-.111 1.25-.334L234.075 5.403c1.196-.69 1.606-2.218.916-3.414-.463-.803-1.304-1.252-2.168-1.252-.424 0-.854.109-1.248.336"/>
        <path id="prefix__B" d="M0.835 0.063L78.393 0.063 78.393 73.824 0.835 73.824z"/>
        <path id="prefix__D" d="M105.904 3.08c-12.998 7.372-30.709 31.664-32.493 29.938C58.941 19.021 37.824.704 37.824.704s-5.105 15.059-6.126 20.931c-1.021 5.87.118 30.459.118 30.459s-.539 44.851 2.468 61.905c-3.702 1.505-16.017-14.104-20.49-22.294-4.472-8.189-8.791-27.243-8.791-27.243-.771-3.844-3.393-4.178-4.179.278-.788 4.457 5.356 25.868 9.423 31.812 4.068 5.945 14.628 20.957 24.191 23.966.771 3.677-.44 4.781 3.724 9.796 1.08 5.682 3.118 28.608 6.17 36.937 3.051 8.328 9.099 8.857 7.402-.335-1.696-9.193-4.163-26.908-4.009-34.931 2.005 1.003 8.02 1.671 10.025-1.003.308 4.512 11.413 30.586 13.418 34.43 2.004 3.844 6.786 5.181 5.552-2.674-1.234-7.856-8.372-21.26-7.095-24.403 1.277-3.141 8.922 1.101 15.676-6.942 4.874-5.803 4.852-22.21 4.85-38.288-1.277-21.186-1.022-38.543-3.574-45.435-.101-.272.58-7.811 5.525-14.996 7.194-10.45 20.773-21.648 32.157-21.058 9.642.501 7.531-5.761 6.83-6.544-.866-.968-6.601-4.523-14.283-4.523-3.345 0-7.061.675-10.902 2.531"/>
        <path id="prefix__G" d="M35.757 18.535C12.281 28.494 1.751 35.182.329 45.568 4.128 55.904 29.923 34.47 33.338 30.344c2.277 5.407 8.195 13.27 15.936 22.339 14.086 16.505 56.061 26.038 60.757 5.976 1.144-4.892-5.407-8.964-13.803-10.672-6.033-7.103-18.167-20.261-17.785-29.737.053-1.442 19.92-2.134 26.465-8.679 6.283-6.284 2.347-8.193-3.13-8.964-.014-.002-.031-.002-.051-.002-2.353 0-48.169 10.378-65.97 17.93"/>
        <linearGradient id="prefix__c" x1="17.341%" x2="122.481%" y1="52.796%" y2="28.729%">
            <stop offset="0%" stop-color="#646664" stop-opacity="0"/>
            <stop offset="100%" stop-color="#333"/>
        </linearGradient>
        <linearGradient id="prefix__f" x1="0%" x2="100%" y1="50%" y2="50%">
            <stop offset="0%" stop-color="#A7872D"/>
            <stop offset="100%" stop-color="#FFD8AF"/>
        </linearGradient>
        <linearGradient id="prefix__k" x1="0%" x2="100%" y1="50%" y2="50%">
            <stop offset="0%" stop-color="#A7872D"/>
            <stop offset="100%" stop-color="#FFD8AF"/>
        </linearGradient>
        <linearGradient id="prefix__n" x1="0%" x2="100%" y1="50%" y2="50%">
            <stop offset="0%" stop-color="#A7872D"/>
            <stop offset="100%" stop-color="#FFD8AF"/>
        </linearGradient>
        <linearGradient id="prefix__q" x1=".001%" x2="100%" y1="50%" y2="50%">
            <stop offset="0%" stop-color="#A7872D"/>
            <stop offset="100%" stop-color="#FFD8AF"/>
        </linearGradient>
        <linearGradient id="prefix__t" x1="0%" x2="100%" y1="50%" y2="50%">
            <stop offset="0%" stop-color="#A7872D"/>
            <stop offset="100%" stop-color="#FFD8AF"/>
        </linearGradient>
        <linearGradient id="prefix__w" x1="192.412%" x2="-47.404%" y1="40.664%" y2="56.385%">
            <stop offset="0%" stop-color="#A7872D"/>
            <stop offset="100%" stop-color="#FFD8AF"/>
        </linearGradient>
        <linearGradient id="prefix__z" x1="0%" x2="100%" y1="50.001%" y2="50.001%">
            <stop offset="0%" stop-color="#A7872D"/>
            <stop offset="100%" stop-color="#FFD8AF"/>
        </linearGradient>
        <linearGradient id="prefix__E" x1="0%" x2="100%" y1="50%" y2="50%">
            <stop offset="0%" stop-color="#A7872D"/>
            <stop offset="100%" stop-color="#FFD8AF"/>
        </linearGradient>
        <linearGradient id="prefix__H" x1="0%" x2="99.999%" y1="50%" y2="50%">
            <stop offset="0%" stop-color="#A7872D"/>
            <stop offset="100%" stop-color="#FFD8AF"/>
        </linearGradient>
        <linearGradient id="prefix__J" x1="45.004%" x2="73.211%" y1="21.414%" y2="100%">
            <stop offset="0%" stop-color="#FFF" stop-opacity="0"/>
            <stop offset="100%" stop-color="#FFF"/>
        </linearGradient>
        <linearGradient id="prefix__K" x1="51.558%" x2="25.161%" y1="14.149%" y2="98.558%">
            <stop offset="0%" stop-color="#FFF" stop-opacity="0"/>
            <stop offset="3.37%" stop-color="#FFF" stop-opacity=".032"/>
            <stop offset="100%" stop-color="#FFF"/>
        </linearGradient>
    </defs>
    <g fill="none" fill-rule="evenodd">
        <g>
            <g opacity=".678" transform="translate(0 .937) translate(0 316.063) translate(411)"/>
            <path fill="#4D4D4D" d="M18.175 317.401L24.557 317.401 24.557 292.587 18.175 292.587z" transform="translate(0 .937) translate(0 316.063)"/>
            <path fill="#1A1A1A" d="M39.25 256.502l-25.285 16.935c-2.36 1.58-.54 8.44 4.068 15.32 4.61 6.88 10.258 11.175 12.62 9.594l25.283-16.935-16.687-24.914z" transform="translate(0 .937) translate(0 316.063)"/>
            <path fill="#918887" d="M55.936 281.415c-2.36 1.582-8.01-2.713-12.619-9.593-4.608-6.88-6.429-13.739-4.068-15.32 2.361-1.583 8.011 2.712 12.62 9.592 4.608 6.88 6.43 13.74 4.067 15.321" transform="translate(0 .937) translate(0 316.063)"/>
            <path fill="#FFF" d="M54.769 279.173c-1.504 1.008-5.833-2.817-9.67-8.544-3.835-5.727-5.725-11.186-4.22-12.194 1.505-1.008 5.834 2.818 9.67 8.544 3.835 5.727 5.725 11.186 4.22 12.194" transform="translate(0 .937) translate(0 316.063)"/>
            <path fill="#BDB0AE" d="M12.565 295.599l-2.366-3.532c-.512-.764-.307-1.8.457-2.312l17.161-11.493c.764-.512 1.8-.308 2.31.457l2.366 3.531c.512.764.308 1.798-.456 2.31l-17.162 11.495c-.764.512-1.798.308-2.31-.457" transform="translate(0 .937) translate(0 316.063)"/>
            <path fill="#8E8584" d="M29.01 283.954c-.735.493-1.731.296-2.224-.439-.492-.736-.295-1.731.44-2.224.736-.492 1.73-.295 2.223.44.493.735.296 1.73-.44 2.223" transform="translate(0 .937) translate(0 316.063)"/>
            <path fill="#1A1A1A" d="M25.886 324.331H6.166c-3.028 0-5.484-2.456-5.484-5.485 0-3.03 2.456-5.485 5.485-5.485h19.719c1.9 0 3.442 1.541 3.442 3.442v4.086c0 1.901-1.541 3.442-3.442 3.442" transform="translate(0 .937) translate(0 316.063)"/>
            <path stroke="#FFF" d="M47.824 281.744L29.72 295.318" transform="translate(0 .937) translate(0 316.063)"/>
            <path fill="#4D4D4D" d="M603.049 317.401L609.431 317.401 609.431 292.587 603.049 292.587z" transform="translate(0 .937) translate(0 316.063)"/>
            <path fill="#1A1A1A" d="M588.357 256.502l25.284 16.935c2.362 1.58.54 8.44-4.068 15.32-4.608 6.88-10.257 11.175-12.62 9.594l-25.283-16.935 16.688-24.914z" transform="translate(0 .937) translate(0 316.063)"/>
            <path fill="#918887" d="M571.67 281.415c2.362 1.582 8.012-2.713 12.62-9.593 4.608-6.88 6.429-13.739 4.067-15.32-2.361-1.583-8.011 2.712-12.619 9.592-4.608 6.88-6.429 13.74-4.068 15.321" transform="translate(0 .937) translate(0 316.063)"/>
            <path fill="#FFF" d="M572.837 279.173c1.505 1.008 5.835-2.817 9.67-8.544 3.836-5.727 5.726-11.186 4.22-12.194-1.505-1.008-5.833 2.818-9.668 8.544-3.837 5.727-5.726 11.186-4.221 12.194" transform="translate(0 .937) translate(0 316.063)"/>
            <path fill="#BDB0AE" d="M615.042 295.599l2.366-3.532c.512-.764.307-1.8-.457-2.312l-17.161-11.493c-.765-.512-1.8-.308-2.31.457l-2.366 3.531c-.512.764-.308 1.798.456 2.31l17.162 11.495c.764.512 1.798.308 2.31-.457" transform="translate(0 .937) translate(0 316.063)"/>
            <path fill="#8E8584" d="M600.82 283.515c.493-.736.296-1.731-.44-2.224-.735-.492-1.73-.295-2.222.44-.493.735-.296 1.73.439 2.223.735.493 1.73.296 2.223-.439z" transform="translate(0 .937) translate(0 316.063)"/>
            <path fill="#1A1A1A" d="M601.72 324.331h19.72c3.029 0 5.485-2.456 5.485-5.485 0-3.03-2.456-5.485-5.485-5.485h-19.72c-1.9 0-3.441 1.541-3.441 3.442v4.086c0 1.901 1.54 3.442 3.442 3.442" transform="translate(0 .937) translate(0 316.063)"/>
            <path stroke="#FFF" d="M579.783 281.744L597.886 295.318" transform="translate(0 .937) translate(0 316.063)"/>
        </g>
        <g transform="translate(0 .937) translate(45 561)">
            <mask id="prefix__d" fill="#fff">
                <use xlink:href="#prefix__b"/>
            </mask>
            <path fill="url(#prefix__c)" d="M376.825 43.239L150.453 181 0.208 94.192 237.336 0.952z" mask="url(#prefix__d)"/>
        </g>
        <g transform="translate(0 .937) translate(218 459)">
            <mask id="prefix__g" fill="#fff">
                <use xlink:href="#prefix__e"/>
            </mask>
            <path fill="url(#prefix__f)" d="M0.986 51.9L89.399 102.951 177.239 51.9 88.825 0.852z" mask="url(#prefix__g)"/>
        </g>
        <g transform="translate(0 .937) translate(218 459)">
            <mask id="prefix__i" fill="#fff">
                <use xlink:href="#prefix__h"/>
            </mask>
            <path fill="url(#prefix__f)" d="M0.986 51.9L89.399 102.951 177.239 51.9 88.825 0.852z" mask="url(#prefix__i)"/>
        </g>
        <path fill="#A7872E" d="M369.936 510.9L307.317 547.293 244.289 510.9 306.908 474.509z" transform="translate(0 .937)"/>
        <g transform="translate(0 .937) translate(192 510)">
            <mask id="prefix__l" fill="#fff">
                <use xlink:href="#prefix__j"/>
            </mask>
            <path fill="url(#prefix__k)" d="M0.227 94.239L115.112 160.574 115.027 51.952 26.613 0.902z" mask="url(#prefix__l)"/>
        </g>
        <g transform="translate(0 .937) translate(306 510)">
            <mask id="prefix__o" fill="#fff">
                <use xlink:href="#prefix__m"/>
            </mask>
            <path fill="url(#prefix__n)" d="M1.027 51.952L0.94 160.574 115.825 94.239 89.44 0.902z" mask="url(#prefix__o)"/>
        </g>
        <g transform="translate(0 .937) translate(202 162)">
            <mask id="prefix__r" fill="#fff">
                <use xlink:href="#prefix__p"/>
            </mask>
            <path fill="url(#prefix__q)" d="M0.817 58.053L63.928 340.678 105.112 360.257 104.394 0.497z" mask="url(#prefix__r)"/>
        </g>
        <g transform="translate(0 .937) translate(307 162)">
            <mask id="prefix__u" fill="#fff">
                <use xlink:href="#prefix__s"/>
            </mask>
            <path fill="url(#prefix__t)" d="M0.112 360.257L41.296 340.678 104.407 58.053 0.831 0.497z" mask="url(#prefix__u)"/>
        </g>
        <g transform="translate(0 .937) translate(205 162)">
            <mask id="prefix__x" fill="#fff">
                <use xlink:href="#prefix__v"/>
            </mask>
            <path fill="url(#prefix__w)" d="M0.706 59.021L102.069 117.549 202.773 59.021 101.41 0.497z" mask="url(#prefix__x)"/>
        </g>
        <g transform="translate(0 .937) translate(189 601)">
            <mask id="prefix__A" fill="#fff">
                <use xlink:href="#prefix__y"/>
            </mask>
            <path fill="url(#prefix__z)" d="M231.575 1.073L117.941 66.687 4.479 1.074C3.283.383 1.755.792 1.063 1.987.371 3.182.78 4.712 1.976 5.402l114.713 66.337c.387.224.819.335 1.251.335.432 0 .864-.111 1.25-.334L234.075 5.403c1.196-.69 1.606-2.218.916-3.414-.463-.803-1.304-1.252-2.168-1.252-.424 0-.854.109-1.248.336" mask="url(#prefix__A)"/>
        </g>
        <g transform="translate(0 .937) translate(342)">
            <mask id="prefix__C" fill="#fff">
                <use xlink:href="#prefix__B"/>
            </mask>
            <path fill="#A7872E" d="M39.614 0.063L48.768 28.237 78.393 28.237 54.426 45.65 63.58 73.824 39.614 56.412 15.648 73.824 24.802 45.65 0.835 28.237 30.46 28.237z" mask="url(#prefix__C)"/>
        </g>
        <g transform="translate(0 .937) translate(246 67)">
            <mask id="prefix__F" fill="#fff">
                <use xlink:href="#prefix__D"/>
            </mask>
            <path fill="url(#prefix__E)" d="M105.904 3.08c-12.998 7.372-30.709 31.664-32.493 29.938C58.941 19.021 37.824.704 37.824.704s-5.105 15.059-6.126 20.931c-1.021 5.87.118 30.459.118 30.459s-.539 44.851 2.468 61.905c-3.702 1.505-16.017-14.104-20.49-22.294-4.472-8.189-8.791-27.243-8.791-27.243-.771-3.844-3.393-4.178-4.179.278-.788 4.457 5.356 25.868 9.423 31.812 4.068 5.945 14.628 20.957 24.191 23.966.771 3.677-.44 4.781 3.724 9.796 1.08 5.682 3.118 28.608 6.17 36.937 3.051 8.328 9.099 8.857 7.402-.335-1.696-9.193-4.163-26.908-4.009-34.931 2.005 1.003 8.02 1.671 10.025-1.003.308 4.512 11.413 30.586 13.418 34.43 2.004 3.844 6.786 5.181 5.552-2.674-1.234-7.856-8.372-21.26-7.095-24.403 1.277-3.141 8.922 1.101 15.676-6.942 4.874-5.803 4.852-22.21 4.85-38.288-1.277-21.186-1.022-38.543-3.574-45.435-.101-.272.58-7.811 5.525-14.996 7.194-10.45 20.773-21.648 32.157-21.058 9.642.501 7.531-5.761 6.83-6.544-.866-.968-6.601-4.523-14.283-4.523-3.345 0-7.061.675-10.902 2.531" mask="url(#prefix__F)"/>
        </g>
        <g transform="translate(0 .937) translate(246 45)">
            <mask id="prefix__I" fill="#fff">
                <use xlink:href="#prefix__G"/>
            </mask>
            <path fill="url(#prefix__H)" d="M35.757 18.535C12.281 28.494 1.751 35.182.329 45.568 4.128 55.904 29.923 34.47 33.338 30.344c2.277 5.407 8.195 13.27 15.936 22.339 14.086 16.505 56.061 26.038 60.757 5.976 1.144-4.892-5.407-8.964-13.803-10.672-6.033-7.103-18.167-20.261-17.785-29.737.053-1.442 19.92-2.134 26.465-8.679 6.283-6.284 2.347-8.193-3.13-8.964-.014-.002-.031-.002-.051-.002-2.353 0-48.169 10.378-65.97 17.93" mask="url(#prefix__I)"/>
        </g>
        <g>
            <path fill="#A7872E" d="M19.854 130.716c-.077-.74.286-1.005.4-1.69.064-.388-.151-.826.064-1.188.049.003.117-.018.167-.017.216.016-.14-1.14.424-1.15.363-.007.669.58.79.854.219.493.26 1.055.287 1.585.03.592.026 1.19.065 1.783.024.368.037.746.103 1.11.024.14.032.326.117.444.124.166.354.156.47.314.223.304.33 1.08.486 1.467.324.8.212 1.42.212 2.225.003.628.147 1.335.49 1.854.419.623.632 1.152.715 1.904.08.73.434 1.43.498 2.16.017.207-.121.453-.08.63.05.233.333.283.454.46.109.158.122.394.158.58.07.354.118.72.207 1.07.158.627.854.583 1.043 1.188.055.174-.006.373.055.54.069.181.217.328.287.537.054.167.024.354.076.514.06.17.186.281.268.456.07.15.044.358.109.493.149.287.485.373.685.613.21.255.267.628.368.94.246.764.493 1.526.74 2.288.09.282.163.558.33.72.142.133.324.165.454.354.203.296.252.703.418 1.001.166.298.52.487.72.771.209.303.436.701.5 1.067.05.28-.086.59.067.853.135.232.475.297.619.56.255.464.318.72.68 1.081.293.29.514.615.77.934.287.36.653.458.947.797.15.177.259.596.386.833.185.335.137.711.397.993.208.233.537.318.726.577.194.27.123.64.374.883.365.35.797.603 1.209.886.402.277.839.593 1.158.992.283.353.334.893.554 1.284.303.538.87.538 1.31.876.34.264.526.771.698 1.148.242.524.395 1.19.862 1.567.345.273.586.033.818.43.246.422.407.838.814 1.136.457.337 1.084.542 1.369 1.071.088.164.013.451.149.606.33.376.6.257.82.828.136.344.29.551.587.776.557.423 1.335.57 1.818 1.083.197.211 1.365 1.644 1.267 1.907-.041.115-.146.194-.284.246-.378.148-.992.1-1.237.074-.78-.079-1.06-.525-1.638-1.022l-2.17-1.867c-.63-.54-1.331-1.398-2.066-1.776-.432-.223-1.141-.36-1.415-.803-.126-.209-.033-.488-.162-.69-.127-.208-.408-.153-.584-.26-.418-.248-.357-.805-.644-1.149-.644-.766-1.795-.96-2.48-1.692-.857-.907-1.6-2.21-2.251-3.273-.38-.62-1.065-1.133-1.227-1.874-.13-.587-.268-.704-.711-1.068-.398-.328-.527-.757-.883-1.119-.496-.505-1.197-.758-1.598-1.36-.364-.539-.667-1.298-.713-1.944-.066-.839-.5-1.187-.932-1.843-.222-.343-.248-.727-.366-1.107-.134-.442-.415-.956-.641-1.364-.17-.307-.322-.785-.553-1.042-.212-.234-.564-.254-.738-.546-.151-.248-.061-.564-.22-.805-.131-.196-.344-.314-.453-.533-.128-.247-.116-.514-.313-.735-.18-.205-.3-.232-.4-.556-.41-1.314-.606-2.824-1.242-4.059-.153-.29-.455-.41-.558-.715-.095-.279.053-.562-.035-.838-.073-.227-.248-.32-.37-.56-.124-.25-.066-.509-.184-.777-.123-.288-.453-.217-.557-.499-.113-.319.068-.75-.068-1.1-.151-.39-.525-.509-.611-.953-.131-.672-.037-1.392-.204-2.043-.122-.47-.642-.8-.81-1.248-.08-.21-.014-.535-.064-.759-.235-1.01-.825-1.92-.687-3.017.054-.43.249-.556.087-1.025-.053-.16-.103-.325-.147-.494-.166-.582-.29-1.2-.35-1.783M49.483 71.04c.306-.19 1.012-.697 1.23-.238.18.38.046.783-.146 1.113-.242.416-.29.916-.387 1.387-.16.75-.63 1.44-.673 2.213-.037.617.133 1.263-.124 1.87-.094.215-.32.343-.336.6-.022.305.149.616.084.957-.131.671-.52 1.23-.585 1.918-.072.74-.228 1.472-.352 2.203-.215 1.267-.133 2.524-.411 3.786-.22.984.3 1.995-.057 2.925-.274.711-.1 1.761-.087 2.511.009.624.037 1.252.023 1.877-.052 2.258.765 4.172.373 6.436-.41 2.351-.237 4.665.258 6.895.275 1.237.178 2.983-.036 4.224-.232 1.35-.62 2.223-.502 3.61.087 1.015.14 2.033.183 3.05.037.764.352 1.957-.042 2.635-.46.79-.072 2.048.028 2.91.086.752.177 1.51.262 2.262.18 1.56.48 2.46.075 3.963-.214.785.099 1.18.11 1.88.009.691-.338 1.208-.286 1.928.09 1.167.672 2.56.56 3.702-.07.69-.635 1.233-.422 2.058.169.643.422.795.417 1.497-.016 1.57.02 3.14.073 4.71.029.94.132 1.893.107 2.832-.028 1.05-.508 2.113-.317 3.16.456 2.455.503 4.814.789 7.318.238 2.073-.03 4.22.208 6.246.259 2.248 1.792 4.38 1.413 6.703-.491 3.025-1.768.226-2.99-.412-.498-.263-.646-.873-.816-1.359-.336-.945-1.283-1.252-2.042-1.756-.571-.379-.758-1.24-1.227-1.732-.451-.48-.8-1.057-1.254-1.526-.266-.276-.558-.749-.894-.935-.2-.11-.295-.179-.467-.343-.147-.142-.311-.265-.432-.434-.31-.437-.243-1.079-.573-1.54-.224-.314-.521-.424-.765-.664-.276-.274-.43-.642-.706-.915-.291-.284-.703-.303-1.01-.543-.403-.315-.47-.864-.752-1.264-.391-.557-.8-1.02-1.16-1.642-.378-.65-1.098-1.415-1.27-2.139-.262-1.088-.945-2.708-1.996-3.206-.242-.114-.263.011-.37-.273-.255-.682-.217-1.312-.614-1.94-.44-.706-.868-1.422-1.221-2.175-.102-.21-.123-.499-.221-.684-.111-.214-.334-.328-.466-.55-.173-.293-.185-.637-.315-.945-.071-.167-.18-.19-.26-.31-.175-.252-.131-.569-.256-.837-.107-.23-.391-.31-.443-.56-.053-.227.085-.394-.03-.634-.116-.236-.338-.36-.403-.637-.074-.318-.01-.709-.038-1.036-.026-.308.009-.697-.194-.956-.086-.117-.235-.152-.325-.258-.313-.363-.007-.782-.19-1.186-.241-.544-.593-.932-.665-1.546-.083-.714-.115-1.423-.271-2.13-.14-.662-.31-1.349-.532-1.983-.09-.254-.192-.4-.21-.676-.02-.279-.013-.555-.06-.832-.042-.246-.086-.39-.206-.552-.183-.248-.327-.207-.436-.527-.063-.182-.044-.438-.063-.629-.05-.517-.09-1.039-.14-1.555-.065-.7.014-1.785-.326-2.426-.135-.253-.367-.133-.482-.363-.165-.33.019-.785-.071-1.146-.101-.407-.403-.816-.645-1.15-.481-.679-1.174-1.377-2.076-1.325-1.926.11-2.774 3.47-3.377 4.9-.573 1.36-.261 3.046-.542 4.513-.156.823-.673 5.51.443 5.623.09.502-.242 1.061-.084 1.541.084.246.369.316.45.544.089.244-.085.63.124.828.188.18.48.03.665.301.27.39.184 1.138.18 1.585 0 .765-.056 1.134.435 1.831.457.652.426.646.53 1.304.12.77.467.587.826 1 .367.423-.08.901.285 1.36.254.321.328.174.439.677.088.424.124.792.326 1.183.033.066.683.842.666.637.066 1.022.087 1.85.838 2.642.078.08.32.017.439.195.065.101-.108.356-.054.53.208.65.495.367.787.818.153.232.118.504.23.737.117.247.349.431.459.7.215.52.207 1.103.374 1.637.25.796.819 1.452 1.17 2.202.136.29.218.611.446.851.24.255.614.335.814.632.166.251.09.601.244.846.136.218.548.263.606.361.067.111.089.4.147.47.087.102.362.148.417.217.216.275.176.533.388.827.095.127.345.072.439.253.059.114-.015.416-.007.55.039.704.363.895.987 1.124.244.091.458 1.372.596 1.624.192.344.64.46.799.818.096.213-.007.36.133.56.186.26.322.201.57.33.528.27.396.324.68.821.258.453.724.446 1.017.907.258.414.472.605.822.962.425.431.507.864 1.049 1.305.39.322.46.584.747.941.379.476.673.798.949 1.328.372.726.697.84 1.389 1.106.879.342 1.972.78 2.608 1.502.306.347.289.813.519 1.201.36.618.975.818 1.494 1.241 2.067 1.674 3.665 3.79 6.77 4.163.483 1.361.96 2.724 1.453 4.08.343.941 1.069 1.805 1.145 2.835.073.997.23 1.991.343 2.985.07.604.049 1.32.196 1.904.114.432.467.608.63 1.007.096.235-.021.54.099.775.112.22.359.267.459.5.128.297.087.816.126 1.141.085.746.17 1.492.257 2.24.115 1.002.555 2.264.226 3.247-.092.27-.241.34-.226.681.01.328.17.63.188.957.017.305-.08.606-.051.91.102 1.116.922 1.941.936 3.065.016 1.483.292 3 .46 4.478.116.977.163 1.99.343 2.957.135.727.565 1.273.799 1.956.167.49-.016 1 0 1.51.016.624.3.773.547 1.237.39.73.357 1.57.396 2.371.043.844.24 1.193.654 1.877.727 1.2 1.245 2.546 1.954 3.768.71 1.226 1.485 2.444 2.432 3.505.385.428.8.845 1.278 1.172.307.21.97.307 1.2.522.786.732 2.592.955 3.518.381 1.968-1.227 1.75-3.705 1.315-5.67-.494-2.244-1.011-4.288-1.256-6.643-.123-1.177-.091-2.36-.54-3.485-.29-.726-.375-1.152-.192-1.913.36-1.506-.188-3.513-.355-5.022-.075-.675-.328-.878-.684-1.383-.691-.98-.755-2.408-1.007-3.544-.211-.964-.387-1.94-.487-2.922-.042-.414-.094-.847-.074-1.263.029-.527.309-.832.43-1.34.088-.373.02-.455-.016-.843-.046-.533.319-1.018.297-1.578-.026-.648-.19-1.295-.307-1.93-.137-.747-.306-1.484-.277-2.25.016-.405-.015-1.5.35-1.767.406-.296.762.285 1.053.383.182.063.389-.02.512-.002.182.032.253.084.429.142 1.133.376 2.256.066 3.456-.074.818-.095 1.413-.165 2.164-.498.33-.148.676-.12.99-.247.423-.173.296-.423.582-.655.35-.283.95-.132 1.25-.528.41-.54.515-.929 1.22-1.212.686-.276 1.449-.45 1.889-1.069.456-.639.592-1.494 1.404-1.815.377-.15.47-.44.74-.693.336-.319.538-.189.898-.398.228-.135.31-.38.453-.614.285-.468.606-.847 1.062-1.158.413-.284.29-.382.409-.824.123-.456.488-.515.62-.89.119-.337-.085-.694.094-1.032.124-.24.424-.27.504-.56.126-.458-.074-.939-.027-1.397.736-.055.029-1.863-.032-2.312-.147-1.103-.242-2.269.158-3.335.247-.66.078-1.049.069-1.713-.007-.569.033-1.159.208-1.716.24-.77.1-1.379.139-2.144.047-.9.698-3.979-.44-4.483-.755-.336-1.67.202-1.955.892-.276.674.1 1.69.003 2.381-.047.328-.333.486-.442.768-.27.696.404 1.193.214 1.77-.128.382-.464.437-.531.897-.077.515.017 1.118.026 1.642.008.541.162 1.196-.047 1.706-.276.67-.206 1.351.065 2.018.122.296.365.557.426.88.118.618-.222.386-.411.773-.042.073-.157.78-.024.772-.78.04-.873 2.23-.991 2.776l-.833.546c-.414.27-.794 1.147-1.081 1.563-.358.518-.72 1.04-1.078 1.56-.161.233-.357.683-.618.798-.15.067-.371-.083-.516-.018-.41.175-.492.656-.634 1.044.03-.089-.576.245-.614.276-.215.18-.333.467-.525.667-.3.31-.672.545-1.037.765-.765.462-1.598.81-2.447 1.083-.72.23-1.495.416-2.256.41-.283-.005-.614-.013-.886-.107-.288-.102-.455-.366-.794-.337-.21.018-.403.273-.614.295-.392.045-.757-.233-1.116-.33-.13-.036-.523-.136-.643-.128-.182.012-.305.187-.492.165-.365-.038-.463-.425-.72-.652-.592-.525-1.527-.577-1.772.316.013-.052-.59.074-.653.114-.476.304-.252 1.318-.518 1.8-.136.255-.224.137-.328.495-.328 1.14.123 2.493.342 3.614.257 1.32.528 2.694.324 4.04-.163 1.112-.014 2.285.112 3.392.086.731.17 1.47.302 2.195.11.62.497 1.117.618 1.715.144.708-.011 1.412.006 2.12.019.846.245 1.715.343 2.557.143 1.228.098 2.803.623 3.941.238.517.37.634.435 1.19.064.533.28 1.065.526 1.54.312.6.462 1.245.544 1.917.092.748.178 1.5.25 2.25.099 1.036.136 2.061.172 3.093.04 1.071.585 2.068.769 3.113.098.555.419 1.565.062 2.047-.196.27-.592.407-.9.414-.376.003-.82.02-1.1-.09-.938-.378-1.296-1.633-1.987-2.313-.248-.246-.462-.375-.633-.682-.206-.373-.333-.694-.586-1.05-.47-.666-.432-1.524-.496-2.313-.074-.934-.5-1.676-1.048-2.402-.63-.822-.64-1.89-.87-2.882-.203-.868.288-1.74.017-2.612-.2-.638-.551-1.26-.997-1.754-.297-.33-.301-.577-.352-1.03-.103-.917-.313-1.798-.534-2.696-.164-.667-.192-1.345-.19-2.045 0-1.372-.106-2.872-.43-4.22-.25-1.068-.017-2.17-.323-3.177-.254-.833-.713-2.103-.497-2.965.423-1.702-.172-3.545-.376-5.305-.128-1.133-.26-2.266-.39-3.399-.11-.957-.104-2.014-.346-2.947-.224-.857-.86-1.392-1.13-2.199-.14-.417.12-.925.07-1.335-.061-.487-.312-.789-.417-1.253-.076-.345.087-.695-.084-1.027-.158-.306-.502-.365-.626-.71-.134-.363-.013-.963.006-1.343.045-.86.49-1.815.142-2.656-.266-.65-.548-1.199-.534-2.003.047-2.848-.666-5.634-1.181-8.424.235-1.434-.108-2.956-.315-4.373-.1-.682-.355-1.339-.421-2.007-.074-.738.15-1.465.207-2.193.035-.445-.097-.83-.072-1.288.059-1.008.202-1.776-.191-2.73-.24-.589-.235-1.157-.271-1.818-.063-1.119-.137-2.238-.196-3.357-.082-1.583.377-3.018-.112-4.596-.18-.584.036-.81.17-1.34.11-.433-.023-.818-.1-1.237-.15-.806.284-1.504-.013-2.315-.297-.815.25-1.468.303-2.297.052-.87-.351-1.835-.452-2.715-.073-.615-.086-1.273-.22-1.878-.102-.482-.205-.72-.102-1.233.075-.383.218-.755.308-1.137.144-.599.186-1.227.204-1.844.039-1.21-.007-2.466-.237-3.66-.603-3.148-1-5.924-.5-9.09.109-.67-.276-1.194-.237-1.86.059-1.026.27-1.366.17-2.526-.122-1.424-.465-2.825-.5-4.258-.038-1.62.957-3.052.659-4.689-.14-.765.347-2.156.079-2.648-.22-.398-.493-.516-.567-1.033-.17-1.149.37-2.29.366-3.44-.005-.907.163-1.67-.051-2.534-.117-.473-.01-.607.108-1.08.139-.552.012-1.125.08-1.692.103-.866.244-1.47.037-2.308-.171-.687-.434-1.685-.261-2.392.08-.33.248-.514.226-.887-.017-.257-.094-.483-.087-.7.033-.85.467-1.752.344-2.603-.1-.714-.221-1.05.1-1.752.276-.603.498-1.06.533-1.73.038-.763-.197-1.583-.068-2.33.068-.406.328-.635.478-.987.153-.356.095-.627.137-.998.052-.464.385-.629.499-1.015.074-.234-.073-.496-.021-.768.065-.336.336-.467.482-.754.09-.18.05-.449.042-.64-.017-.342-.055-.68-.097-1.02-.041-.333-.085-.669-.132-1.005-.015-.126-.05-.267-.042-.393.013-.194.132-.273.22-.432.07-.116.074-.267.104-.398.077-.344.25-.502.622-.453" transform="translate(0 .937) translate(228 6)"/>
            <path fill="#A7872E" d="M76.879 198.828c.183-.412.257-2.102.617-2.314.26-.151.464-.422.755-.514.311-.1.54.077.811.17.403.133.66.076.984.399.358.357.243.552.292 1.048.023.2.21.43.19.629-.022.221-.213.27-.236.404-.079.407.118.701.136 1.124.01.272-.02.51.219.715.325.284.442.23.538.703.09.433.177.865.264 1.3.15.722.633 1.108.876 1.76.094.254.019.492-.05.738-.06.221-.06.484-.005.704.022.08.09.114.129.179.102.19.093.419.17.619.073.177.114.322.148.519.103.62.258.978.688 1.35.261.23.561.617.873.895.146.127.204.464.261.637.041.124.055.286.114.4.096.183.188.142.343.285.3.272.358 1.034.439 1.4.177.793 1.08.2 1.325.986.12.387.548.746.71 1.103.198.436.151.917.174 1.383.008.22.005.523.117.718.124.219.138.101.359.22.138.082.11.161.135.293.078.35.004.602.226.897.192.258.31.589.393.897.076.284.017.63.247.86.147.153.245.129.323.363.057.167.05.344.132.507.103.201.149.102.322.201.374.213.181.599.264.924.05.216.07.182.248.271.368.174.834.167.94.632.026.12 0 .249.03.38.044.192.135.388.198.572.14.405.278.81.42 1.21.16.47.275 1.293.71 1.602.356.246.712.12.978.493.208.288.06.713.501.857.397.13.859-.019 1.246-.12.395-.099.305-.266.392-.65.06-.248.145-.486.138-.744-.016-.44-.172-.91-.284-1.302-.246-.864.049-1.904-.377-2.684-.285-.522-.446-.829-.57-1.454-.088-.436-.178-.877-.302-1.305-.093-.315-.372-.22-.55-.43-.168-.198-.118-.58-.215-.82-.089-.22-.25-.373-.287-.617-.035-.22-.022-.406-.079-.63-.15-.57-.249-1.149-.394-1.718-.088-.352-.228-.67-.353-1.004-.064-.166-.05-.448-.165-.58-.11-.131-.19-.02-.306-.101-.187-.127-.184-.472-.205-.671-.025-.288-.148-.529-.392-.69-.235-.154-.534-.192-.688-.46-.162-.275-.197-.577-.085-.867.046-.123.15-.32.067-.446-.059-.089-.196-.07-.27-.14-.186-.173-.173-.46-.225-.694-.06-.25-.133-.502-.183-.757-.014-.076-.013-.286-.058-.341-.096-.119-.237-.039-.346-.123-.245-.192-.157-.666-.27-.913-.109-.237-.386-.313-.493-.56-.11-.248-.012-.659-.137-.86-.142-.22-.4-.178-.497-.462-.133-.394-.106-.924-.152-1.34-.055-.471-.11-.942-.163-1.413-.037-.344.019-1.055-.161-1.344-.176-.286-.406-.251-.444-.645-.016-.145-.05-.358.033-.49.063-.099.18-.1.248-.192.12-.161.127-.532.17-.732.079-.376-.007-.637.364-.835.255-.137.6-.124.864-.216.204-.067.511-.136.63-.307.056-.083.001-.291.097-.422.252-.351.9-.42 1.285-.484 1.098-.184 2.206-.159 3.314-.208.826-.04 1.66-.094 2.469-.287.569-.136 1.65-.423 1.999-.952.64-.97 1.276-1.945 1.913-2.915.31-.464.683-.882 1.064-1.285.303-.315.884-.427 1.09-.804.318-.588.585-1.013 1.037-1.524.254-.29.624-.58.71-.976.047-.244-.106-.45 0-.686.106-.237.306-.248.353-.56.055-.361.218-.402.323-.718.088-.25-.06-.536-.005-.796.05-.228.297-.352.361-.577.098-.353.009-.689.173-1.05.207-.458-.022-.74.063-1.2.05-.28.32-.377.36-.654.03-.23-.145-.514-.135-.76.015-.33.352-.501.391-.821.025-.21-.19-.846.154-.923.08-.617.073-1.25.009-1.865-.05-.478.037-.947-.04-1.418-.066-.435-.246-.85-.328-1.282-.05-.261-.06-.53-.102-.793-.014-.099-.137-.4-.123-.481.04-.274.472-.255.489-.383.053-.425.047-.946.187-1.352.111-.32.252-.226.444-.468.186-.231.049-.94.049-1.23-.002-.499-.017-.999-.023-1.499-.008-.494-.02-.875.18-1.325.204-.466.215-.774.115-1.28-.1-.513-2.534-41.293-2.55-41.806-.012-.427.264-.803.258-1.232-.003-.506-.08-1.01-.052-1.524.03-.51.388-1.041.37-1.523-.007-.268-.233-.533-.306-.79-.192-.662-.27-2.082.014-2.725.144-.323.234-.287.156-.685-.08-.4-.19-.793-.291-1.186-.069-.266-.126-.534-.209-.794-.11-.353-.156-.258-.394-.466-.403-.344-.189-1.748.192-1.947.472-.245.772-.04.993.284.188.275.325.633.466.883.383.673.572 1.552.686 2.308.12.806.453 1.513.585 2.308.192 1.165-.129 2.314.186 3.462.273 1.005.813 2.523.258 3.47-.139.242-.02.443-.032.71-.019.385 1.99 40.894 1.947 41.28-.046.409.067.819.038 1.218-.03.325-.172.546-.096.875.08.33.156.62.175.995.028.588.002 1.206.088 1.79.176 1.198-.17 2.338-.236 3.525-.061 1.15.266 2.512.055 3.626-.087.488-.198.983-.306 1.466-.076.343-.215.308-.376.546-.199.298.171.901.132 1.233-.019.148-.123.24-.162.374-.028.108-.009.242-.03.357-.072.319-.233.547-.357.833-.147.343-.076.762-.009 1.125.08.418.06.35-.172.694-.11.16-.03.273-.082.433-.064.191-.216.28-.278.45-.131.368-.006.917-.047 1.31-.046.383-.258.696-.358 1.06-.11.39-.101.83-.147 1.236-.063.55-.462.788-.813 1.14-.141.138-.388.365-.444.555-.094.326.153.64-.037.975-.142.25-.463.388-.6.654-.192.371-.302.742-.665 1.005-.24.173-.626.2-.826.409-.19.197-.136.476-.233.709-.176.431-.412.906-.77 1.215-.198.172-.373.175-.593.274-.254.11-.38.272-.573.492-.106.118-.641.025-.841.195-.2.174-.178.494-.343.694-.237.284-.535.138-.822.3-.442.25-.406.803-.84 1.016-.472.234-1.02.242-1.427.623-.108.1-.068.311-.234.412-.183.106-.346-.05-.53.097-.143.115-.082.29-.24.405-.166.118-.597.076-.794.1l-1.85.214c-.488.058-.99.084-1.474.17-.552.094-.927.357-1.115.887-.08.232 0 .497.044.726.026.137.12.334.111.468-.01.15-.145.258-.132.417.024.246.185.206.127.49-.035.184-.204.29-.162.504.049.245.34.347.45.541.126.218.133.552.148.796.032.45.069.826.207 1.252.124.376.14.781.434 1.087.135.138.16.053.24.3.095.286.085.49.1.772.02.313.212.155.403.29.385.28.402 1.024.53 1.434.177.584.375.704.718 1.142.218.278.08.77.192 1.081.084.238.29.38.422.583.138.215.096.471.213.681.118.212.37.331.481.552.143.275.272.613.26.93-.01.238-.085.45-.07.695.035.514.096 1.188.29 1.673.135.34.328.508.413.863.087.368.07.72.267 1.063.322.558.45.585.415 1.294-.037.803.227 1.382.332 2.18.126.964.257 1.927.343 2.897.078.873.124 1.756.063 2.636-.026.433-.05.865-.115 1.297-.034.216-.058.475-.162.673-.144.278-.65.406-.912.572-.296.184-.56.228-.906.245-1.093.053-2.197-.061-3.226-.436-.503-.186-1.188-.357-1.602-.696-.515-.427-.735-1.202-.97-1.761-.243-.59-.51-1.166-.795-1.737-.22-.438-.482-.864-.67-1.315-.172-.409-.117-.883-.302-1.266-.26-.53-.847-.844-1.201-1.303-.374-.482-.724-1.055-1.035-1.565-.347-.567-.142-.927-.354-1.54-.148-.434-.575-.73-.797-1.123-.158-.279-.35-.663-.358-.988-.007-.236.138-.544-.034-.749-.151-.186-.127-.3-.151-.543-.03-.279-.03-.572-.166-.825-.198-.362-.458-.052-.641-.517-.13-.315-.112-.697-.213-1.024-.106-.343-.353-.689-.65-.758-.222-.051-.44.159-.654.095-.312-.095-.504-.504-.572-.796-.12-.495-.025-1.142-.29-1.591.008.012-.2-.035-.227-.05-.074-.052-.125-.144-.168-.224-.368-.678-.353-1.336-.883-1.937-.2-.226-.41-.423-.593-.673-.087-.117-.25-.19-.305-.333-.057-.15.056-.332-.028-.47-.156-.252-.398-.315-.55-.561-.366-.593-.225-1.346-.46-1.975-.236-.619-.26-1.257-.462-1.904-.124-.39-.395-.513-.612-.84-.215-.316-.112-.77-.246-1.088-.087-.202-.302-.19-.46-.303-.213-.15-.231-.325-.213-.574.035-.468.227-.938.416-1.362" transform="translate(0 .937) translate(228 6)"/>
            <path fill="#DA2128" d="M82.36 118.922c.076-.48-.117-1.082-.197-1.554-.037-.238-.132-.563.069-.764.228-.226.404.108.534.268.252.305.53.591.82.86.498.45.764.394.66 1.086-.055.38-.14.771-.326 1.111-.097.18-.328.494-.55.516-.136.015-.224-.08-.297-.19-.083-.129-.043-.379-.144-.474-.109-.102-.33-.01-.466-.032-.28-.049-.173-.377-.103-.827m9.633 2.122c-.192-.326.154-.927.448-1.163.326-.263.785-.23 1.118-.484.142-.107.704-.48.764-.63.1-.23-.237-.488-.123-.732.147-.32.459-.105.531-.647.022-.164-.075-.45-.005-.595.091-.194.28-.114.385-.274.146-.225.188-.576.349-.826.36-.02.322.358.312.594.71-.15.302.816.131 1.098-.088.141.02.174-.127.31-.174.164-.398.02-.623.3-.153.195-.19.472-.218.71-.123 1.016.337 1.786-.552 2.586-.132.121-.356.18-.456.325-.133.204-.004.34-.127.594-.344.024-1.043.198-1.28-.069-.167-.192-.004-.415-.08-.638-.02-.049-.038-.086-.06-.116-.106-.164-.26-.134-.386-.343m-14.781-9.213c.082.81.188 1.62.278 2.428.16 1.386.087 2.81.448 4.166.174.663.488 1.071.838 1.618.388.61.567 1.374.806 2.052.076.216.924 3.205 1.03 3.19.924-.12 2.002.83 2.93.452.576-.232.654-.767 1.308-.77.46-.002.793.222 1.198.017.467-.235.667-.384 1.206-.479.27-.05.64-.448.892-.587.31-.174.631-.304.974-.398.576-.162 2.123-.494 2.535.202.102.173-.083.443.055.61.276.33.944.277 1.306.512.483.313.9.863 1.299 1.276.46.476.947.993 1.487 1.378.403.285.877.332 1.285.59.243.15.394.445.639.537.225.09.408.074.614.172.239.117.293.372.626.28.016-.092.073-.148.087-.238.32-.062.66.41.972.323.294-.087.483-.73.629-1.036.272-.572.472-1.449.48-2.083.007-.376-.142-.97-.282-1.322-.12-.297-.24-.362-.227-.704.011-.256.057-.505.025-.762-.042-.374-.12-.748-.004-1.119.144-.462.786-.526.877-1.038.063-.363-.365-.664-.368-1.019-.003-.516.26-.978.26-1.477.002-.7-.182-1.562-.28-2.265-.052-.389-.248-.513-.38-.848-.37-.94-.031-3.314-1.451-3.53-.552-.084-1.175-.083-1.726-.03-.584.057-.572.154-1.081.484-.541.35-1.114.144-1.645.444-.6.337-1.02 1.153-1.388 1.706-.541.807-.96 1.392-1.746 1.968-.295.217-.257.217-.441.54-.402.698-.63.13-1.25.367-.109-.808-.49-1.113-1.02-1.618-.44-.42-.697-.99-1.12-1.423-.419-.424-.933-.823-1.386-1.219-.417-.36-.387-.346-.996-.373-.553-.023-1.302-.3-1.716-.643-.355-.294-1.129 1.865-1.148 2.106-.034.398.19.696-.23.97-.146.093-.672.16-.84.118-.707-.16-.904-2.178-.63-2.68.257-.476.479-.656.392-1.228-.056-.364-.206-.743-.36-1.075-.19-.419-.507-.728-.927-.924-.73-.339-1.322-.156-1.81.457-.236.295-.35.711-.602.983-.041.045-.079.085-.115.12-.293.3-.36.285-.307.822" transform="translate(0 .937) translate(228 6)"/>
            <path fill="#A7872E" d="M45.808 71.617c-.5.311-1.153.311-1.545.806-.575.718-.988 1.555-1.457 2.344-.237.398-.235.424-.655.546-.366.108-.595-.025-.867.352-.34.472-.362 1.182-.867 1.536-.488.345-1.212.111-1.617.623-.185.233-.143.668-.37.867-.4.348-1.175.248-1.484.657-.343.45-.167 1.005-.873 1.257-.456.161-.96.095-1.308.458-.372.383-.277.885-.848 1.095-.248.093-.38-.035-.59.131-.146.115-.11.343-.257.47-.407.36-.93.063-1.332.296-.21.123-.163.38-.488.483-.18.058-.536.007-.73-.005-.748-.045-1.046-.126-1.461.472-.366.532-.523.38-1.176.341-.926-.06-1.851.107-2.753.3-.36.075-.713.138-1.041.304-.291.151-.547.483-.898.483-.371.002-.664-.516-.982-.642-.638-.254-1.435.36-1.884-.33-.68-1.047-.245-2.589.312-3.567.643-1.13 1.806-1.695 2.437-2.954.639-1.279.88-1.865 2.364-2.125.004-.118.013-.237.027-.357 1.007.076.614-.83 1.133-1.027.547-.205 1.094-.41 1.642-.617.592-.225.765-1.113 1.055-1.593.445-.737.712-.868 1.486-1.234 1.414-.66 2.329-1.73 3.495-2.753.709-.619 1.646-.903 2.529-1.167.315-.095.81-.149 1.092-.305.29-.164.403-.42.638-.644.293-.28.618-.224.98-.457.238-.152.353-.32.67-.38.164-.028.518.087.656.003.453-.275.452-.67 1.053-.85.636-.19 1.292-.272 1.883-.596.11-.063.283-.456.583-.617.186-.1.423-.127.626-.187 1.15-.35 2.429-.507 3.539-.955.48-.194.565-.52.953-.783.658-.454 1.464-.722 2.25-.868.235-.043.723.016.912-.059.245-.096.306-.325.529-.44.306-.155.465-.117.788-.169.489-.078.792-.1 1.2-.37.163-.11.159-.33.364-.419.227-.1.45.092.64.026.302-.106.447-.44.723-.587.215-.119.505-.105.74-.189.79-.286 1.478-.787 2.29-1.02.873-.257 1.767-.445 2.65-.654 2.406-.574 4.456-1.75 6.764-2.64 1.942-.755 3.673-.807 5.69-1.23 1.033-.216 2.087-.965 3.019-1.18.803-.189 1.62-.322 2.43-.46.512-.088 1.057-.117 1.56-.223.543-.115.654-.417 1.154-.643.246-.109.539-.028.793-.118 1.6-.568 3.067.33 4.637.154.652-.07 1.057-.515 1.62-.782.652-.306 1.308-.242 2-.346 1.368-.2 2.093-1.58 3.53-1.678.827-.058 1.61-.416 2.437-.54.949-.149 1.885-.356 2.819-.572.343-.08.664-.142.967-.317.273-.158.506-.402.806-.508.317-.115.732-.08 1.067-.128.327-.044.467-.114.724-.292.604-.418 1.272-.404 1.952-.62.187-.06.337-.186.533-.214.54-.079 1.11.247 1.649.28 1.116.071 2.068-.746 2.994-1.22.749-.382 1.708-.534 2.516-.748.548-.145.878-.496 1.396-.695.597-.23 1.244-.28 1.867-.404 1.14-.219 2.537-.809 3.7-.702.953.091 1.82.432 2.597.977.248.171.453.313.645.484 2.785 2.534-2.61 3.978-3.201 6.073-1.268.447-2.755 1.438-3.745 2.393-.152.147-.16.264-.387.348-.348.134-.78.078-1.144.056-.416-.025-.945-.132-1.354-.04-.182.04-.308.16-.45.272-.098.082-.22.133-.308.23-.08.086-.11.24-.206.306-.128.09-.33.078-.476.092-.411.037-.765.108-1.177.077-2.662-.213-4.275.406-6.496 1.517-2.72 1.356-5.883.348-8.616 1.65-.436.205-.9.165-1.363.227-.741.102-.683.677-.61 1.282.03.228-.232.556-.194.854.039.327.239.628.356.93.133.334.33.802.259 1.17-.18.93-.611 1.213-.29 2.213.29.894.828 1.678 1.267 2.5.563 1.055.576 2.366 1.123 3.385.92 1.713 1.486 2.71 2.66 4.053.232.263.293.694.439 1.006.435.913.872 1.684 1.46 2.495.253.347.237.451.695.612.34.12.699.101.886.478.199.404.04.506.39.787.465.374.392.221.554.827.12.447.417.96.732 1.297.244.263.66.35.882.62.203.243.13.642.369.855.205.18.453.062.659.274.558.567 1.259 1.21 1.64 1.913.299.555.282 1.246.752 1.723.144.148.516.071.628.187.953.973 1.988 1.83 2.872 2.877.45.536.712.792 1.423.99.555.16 1.808-.124 1.862.774.007.142-.077.228.106.295.12.041.276-.037.394-.05.328-.043.312.164.467.367.1.131.297.142.447.146.3.01.596-.036.89-.067.187-.02.364-.02.539.042.115.04.22.098.322.164.06.044.31.298.364.292.438-.049.756.38.765.861.009.356-.268.558-.405.861-.325.718-1.013 2.821.146 3.145-.185 1.012.034 1.362.756 2.075.772.758 1.546 1.52 2.42 2.157.962.7 1.685.58.654 2.414-.071.123.134.314.049.421-.394.5-1.07.071-1.558.097-.438.022-.746.476-1.156.603-.135.044-.488-.028-.574.07-.155.175.105.316-.003.468-.367.527-1.106.47-1.67.446-.3-.012-.722-.123-1.008-.037-.388.116-.52.486-.812.712-.196.15-.46.16-.652.304-.122.091-.18.266-.296.35-.38.258-.78.1-1.16.313-.82.463-1.703 1.006-2.638 1.138-.356.05-.394.096-.664.295-.502.372-1.562.323-2.152.234-.775-.117-1.526-.357-2.295-.493-.51-.09-1.26.146-1.772.205-.697.08-.947.183-1.582-.1-.556-.248-1.153.2-1.628-.023-.122-.055-.123-.207-.225-.27-.52-.327-1.527-.016-2.086-.037-.481-.015-.286.001-.65-.373-.277-.284-.521-.387-.917-.39-.521-.006-.457-.026-.915-.279-.51-.278-1.603-.214-2.19-.243-.675-.035-1.35-.068-2.026-.102-.298-.016-.66.088-.943-.023-.321-.127-.747-.27-1.038-.425-.504-.27-.51-.339-1.045-.309-.718.035-.754-.587-1.327-.884-.501-.259-1.19-.128-1.73-.228-.411-.079-.676-.37-1.006-.599-.506-.349-.71-.268-1.294-.196.002 0-.58-.639-.703-.715-.331-.199-.698-.174-1.024-.31-.341-.137-.282-.318-.572-.533-.488-.369-1.836-.034-2.228-.494-.444-.519-.963-.93-1.613-1.157-.33-.114-.688-.068-1.017-.166-.444-.132-.465-.324-.727-.637-.622-.74-1.326-1.623-2.194-2.08-.535-.284-.83-.14-1.262-.632-.492-.565-1.027-.95-1.644-1.385-.442-.31-.94-.434-1.182-.93-.145-.293-.09-.613-.315-.869-.22-.252-.617-.292-.865-.518-.5-.446-.593-.904-1.234-1.113-.704-.229-.577-.408-.781-1.11-.115-.399-.497-.392-.764-.622-.336-.284-.34-.78-.666-1.066-.143-.12-.332.021-.467-.146-.104-.126-.037-.335-.114-.478-.148-.285-.231-.347-.491-.549-.534-.414-.74-.879-1.096-1.422-.344-.524-.856-.96-1.255-1.443-.272-.325-.337-.83-.633-1.109-.49-.459-.791-.166-.994-.879-.13-.457-.08-.307-.392-.59-.076-.069-.223-.005-.315-.14-.091-.134.058-.378-.011-.514-.153-.29-.541-.264-.75-.49-.418-.453-.444-1.17-.912-1.575-.332-.287-.46-.223-.695-.59-.223-.344-.226-.819-.458-1.137-.206-.283-.574-.32-.79-.583-.131-.162-.158-.385-.282-.545-.293-.368-.701-.368-.89-.839-.16-.403-.038-.704-.462-.99-.703-.474-.84-.7-1.203-1.454-.31-.635-.566-1.29-.792-1.958-.323-.96-.561-1.934-.795-2.916-.185-.779-.446-.805-1.19-.989-.37-.09-.743-.547-1.162-.537-.28.011-.815.372-.988.56-.371.397-.597 1.12-.926 1.582-.377.53-.794 1.027-1.228 1.513-.391.433-.834 1.027-1.333 1.34m1.043 4.335c.115-.056.328-.112.42-.19.315-.266.476-.57.838-.83.5-.36.815-.945 1.319-1.3.326-.229.809-.79 1.19-.74.768.101 1.043 1.14 1.634 1.531.296.196.514.267.664.616.144.336.053.708.285 1.018.23.306.538.411.735.717.319.49.378 1.171.583 1.713.356.13.78.187.964.511.066.113 0 .242.044.348.077.19.207.174.276.268.063.087.184.172.284.374.224.436.19 1 .434 1.428.246.436.628.522.998.915.154.161.214.482.323.593.213.223.516.231.708.521.142.21.104.371.274.571.172.21.483.472.66.668.169.193.199.246.458.393.457.27.884.71 1.18 1.162.186.28.178.584.309.88.126.283.37.46.513.733.156.301.035.673.214.96.246.392 1.006.337 1.335.65.183.18.5.668.62.913.116.234.06.536.22.766.278.393.796.442 1.11.774.363.384.485 1.05.666 1.54.156.418 1.458.95 1.83 1.235.367.282.958.612 1.174 1.033.2.394.038.674.437.866.524.246.524-.019.654.653.12.606.949.822 1.395 1.161.509.381 1.004.964 1.602 1.206.265.106.428.052.689.231.246.17.31.413.635.48.35.07.499-.057.812.151.248.167.453.52.664.74.447.463.95.924 1.597 1.066.68.151 1.183.06 1.715.571.402.388.65.906 1.147 1.194.459.263 1.209.021 1.662.373.333.261.256.265.639.346.229.048.368.017.57.148.228.146.198.306.477.377.379.094.504-.109.87.176.203.16.283.405.43.605.349.49.745.628 1.326.81.678.211 1.367.384 2.065.51.33.058.69.144 1.029.144.234 0 .507.025.73-.043.1-.03.227-.089.339-.067.123.023.215.134.317.174.152.063.36.042.524.045.1 0 .196-.062.28-.06.223.003.367.227.56.298.236.087.505.15.75.188.564.088 1.147.038 1.697.205.487.145.79.544 1.23.743.406.18.778.07 1.199.172.344.082.644.295.977.41.379.131.742.115 1.125.21.11.027.198.081.28.14.13.096.247.21.415.273.395.147.838-.022 1.247.051.398.074.809.33 1.204.442.669.196 1.426.45 2.12.505.7.055 1.362-.16 2.012-.302 1.59-.35 3.203-.599 4.82-.789.9-.105 2.73.048 3.328-.613.26-.288.115-.288.57-.43.93-.29 1.904-.443 2.809-.695.685-.19 1.043-.908 1.747-1.075.419-.1.833-.218 1.252-.319.212-.05.504-.059.7-.148.219-.102.088-.412.309-.48.164-.055.392.06.564.05.362-.032.337-.468.61-.62.388-.217.944-.035 1.367-.28.317-.187.474-.488.832-.605.273-.086.576.04.834-.136.337-.228.234-.655.5-.95.684-.753 1.678-1.287 2.246-2.155.562-.86.932-2.275 1.286-3.253.449-1.226.563-2.564.544-3.859-.008-.664-.06-1.333-.142-1.992-.058-.464.118-1.259-.093-1.664-.153-.29-.407-.316-.496-.658-.263-.982-.237-1.926-.617-2.91-.37-.967-.88-1.918-1.661-2.614-1.058-.942-2.05-.787-3.166-.082-.934.59-1.86 1.214-2.88 1.648-.406.173-1.208.583-1.658.507-.212-.04-.206-.166-.365-.23-.75-.29-1.7.014-2.385-.266-.301-.124-.393-.44-.66-.597-.392-.229-.905-.11-1.328-.062.008 0-.424-.476-.515-.534-.304-.192-.501-.21-.853-.169-.038.008-.702-1.296-.804-1.43-.274-.367-.456-.45-.86-.576-.34-.11-.567-.12-.761-.429-.212-.342-.202-.887-.483-1.253-.271-.355-.586-.424-1.017-.576-.12-.26-.154-.823-.28-1.009-.091-.133-.727-.305-.714-.168-.031-.339-.056-.64-.304-.894-.151-.153-.432-.178-.561-.343-.183-.227-.033-.393-.17-.61-.156-.25-.557-.149-.731-.345-.152-.168-.026-.38-.107-.575-.18-.442-.707-.583-.956-.978-.231-.366-.227-.746-.546-1.066-.396-.389-1.001-.518-1.435-.857-.35-.272-.732-.709-.897-1.129-.164-.424.025-.869-.126-1.287-.086-.243-.298-.385-.443-.585-.274-.384-.234-.917-.455-1.323-.221-.406-.533-.834-.805-1.225-.451-.64-.907-1.297-1.288-1.98-.314-.564-.836-.927-1.133-1.475-.23-.424-.14-1.038-.318-1.489-.227-.574-.393-1.168-.571-1.767-.156-.536-.578-1.453-.254-1.975.119-.192.292-.126.377-.34.218-.545-.08-.676.56-.976.409-.193.866-.305 1.306-.408.7-.163 1.41-.264 2.124-.363 1.03-.144 2.066-.207 3.082-.402 1.249-.238 2.418-1.04 3.679-1.11 1.018-.056 2.042-.025 3.057-.157.459-.06 1.03-.124 1.463-.294.269-.107.335-.395.556-.556.329-.242.717-.067 1.036-.237.24-.123.37-.373.61-.503.305-.162.716-.196 1.048-.268.523-.115 1.05-.228 1.577-.345.23-.052.375-.09.563-.216.245-.166.423-.406.69-.549.317-.165.763-.207 1.048-.413.146-.103.214-.336.359-.417.148-.082.253.01.393-.027.323-.082.35-.394.475-.644.116-.24.35-.396.602-.464.237-.067.26.018.422-.187.263-.33.139-.776.636-.975.642-.259 1.25-.172 1.517-.875.112-.29.226-.633.497-.818.272-.185.64-.106.892-.33.356-.318.59-1.04.824-1.458.228-.415.422-.953.692-1.329.17-.239.573-.41.667-.689.087-.274-.118-.346-.18-.58-.08-.305-.08-.654-.114-.969-.062-.57.135-1.06-.372-1.485-.301-.255-.787-.308-1.125-.457-.927-.402-1.801-.906-2.702-1.359-2.103-1.059-4.261-1.453-6.614-1.202-.2.021-.7.611-.971.717-.388.152-.804.176-1.215.201-1.43.09-2.11.714-3.297 1.152-1.238.456-2.554.448-3.825.855-.866.277-1.78.92-2.826 1.048-1.25.151-2.5.296-3.752.428-1.376.15-2.544 1.045-3.902 1.306-1.07.21-2.154.326-3.238.43-.641.06-1.29-.012-1.927.097-.412.072-.474.22-.748.396-.296.196-.616.156-1.017.306-.517.196-.62.486-1.218.525-.694.043-1.385.005-2.074.122-1.065.182-1.94.981-2.984 1.251-1.565.403-3.272.487-4.872.687-1.944.24-3.508 1-5.382 1.256-1.521.21-2.963.687-4.393 1.223-.553.208-1.13.141-1.642.402-.514.256-.8.821-1.351 1.032-.395.152-.94.028-1.358.124-2.145.496-4.397 1.397-6.497 2.101-.765.255-4.645 1.193-4.645 2.33 0 .053-1.006-.01-1.13 0-.394.033-.748.23-1.097.403-.48.246-.707.22-.637.784-.818.095-1.64.188-2.457.282-.43.05-.921.018-1.326.195-.38.168-.58.5-.951.681-.76.373-1.591.568-2.406.773-.658.167-1.332.46-1.921.777-.82.443-3.445.441-3.3 1.718-.484.055-1.308-.128-1.692.246-.2.2-.132.575-.347.76-.538.465-1.287.42-1.901.726-.604.301-1.41.345-1.935.802-.282.248-.382.485-.72.69-.618.377-1.264.653-1.868 1.06-.614.414-.818.87-1.158 1.542-.721.084-.746.17-1.078.67-.347.526-.584.185-1.087.48-.424.248-.783.672-1.183.974-1.027.765-2.017 1.64-2.866 2.602-.843.957-1.45 1.93-2.36 2.798-.607.58-1.183 1.196-1.738 1.827-.322.366-.65.735-.926 1.138-.37.54-.171.865-.352 1.415-.076.23-.25.363-.46.507-.255.172-.407.085-.522.41-.107.303.122.417.066.721-.091.462-.786.595-.853 1.106-.038.29.096.53.156.806.08.385-.002.648-.006 1.021 0 .438.456 1.382.697 1.724.45.63 1.397.888 1.949 1.433.249.245.213.421.605.431.306.008.395-.174.733-.1.563.12.65.693 1.164.885.338.125.458-.087.735-.058.565.066 1.026.601 1.654.688.609.082 1.238.05 1.847-.014.877-.093 2.286-.206 2.97-.847.474-.445.436-.343 1.109-.474.63-.123.745-.847 1.429-.986.385-.08.467.123.834-.19.447-.38.687-.578 1.228-.78.47-.174 1.099-.379 1.49-.696.635-.517 1.41-.716 2.209-.99.279-.097.569-.155.782-.364.207-.2.218-.532.437-.72.28-.247.734-.105.996-.372.283-.287.26-.604.639-.867.274-.19.727-.206.932-.379.297-.253.103-.632.39-.915.254-.25.71-.139.969-.472.115-.145-.026-.329.143-.493.133-.128.357-.08.526-.13.68-.212.487-.546.85-.973.598-.7 1.12-1.488 1.919-1.984.383-.24.757-.312 1.145-.497" transform="translate(0 .937) translate(228 6)"/>
            <path fill="#A7872E" d="M88.588 68.696c.375-.192.836-.06 1.233-.026.27.022.788.003.925.31.036.077.008.59.071.611.297.108.598.216.893.327.435.16.492 1.568.499 1.937.003.363.006.73-.012 1.092-.014.251.015.488-.156.686-.182.202-.456.143-.694.15-.522.02-1.133.024-1.59-.269-.305-.193-.477-.506-.679-.797-.123-.179-.248-.357-.393-.522-.224-.253-.508-.338-.621-.678-.122-.37-.101-.77-.102-1.153-.003-.385.081-.69.249-1.035.097-.199.176-.533.377-.633M71.762 71.721c.023-.108-.036-.177.038-.262.05-.059.135-.083.206-.08.258.006.517.048.774.067l.723.063c.107.01.235-.004.331.048.123.088.141.225.19.336.132.296.29.583.481.846.195.272.424.515.684.722.133.106.273.204.423.287.133.078.246.114.272.28.03.178.011.39.014.57.003.247 0 .501-.062.744-.055.23-.164.446-.273.66-.114.222-.132.514-.412.564-.244.044-.495.032-.738.06-.188.022-.369.077-.56.083-.085.001-.174.005-.226-.067-.104-.142.043-.293-.145-.364-.175-.068-.383-.076-.564-.134-.218-.07-.424-.172-.583-.342-.122-.132-.212-.29-.332-.424-.114-.126-.245-.236-.387-.33-.149-.094-.316-.14-.375-.318-.062-.195-.062-.43-.094-.632-.047-.312-.106-.624-.112-.938-.008-.4.144-.762.403-1.059.11-.124.288-.224.324-.38M112.883 70.987c1.089-1.105 2.339-2.061 3.576-3.01.9-.691 2.09-1.088 2.814-1.911 2.804-3.174 6.22-4.64 10.444-4.31.36.03.74-.357 1.13-.496.699-.252 1.409-.64 2.12-.653.165-.002.326 0 .487 0 .583-.061 1.164-.048 1.745.075.957.058 1.917.128 2.874.109 3.806-.077 7.236 1.084 10.369 3.118 2.926 1.899 3.074 5.068.529 7.588-.147.274-.316.533-.515.782-.412 1.204-1.421 1.52-2.443 1.516-.323.084-.652.14-.98.179-.43.076-.866.129-1.284.169-.184.019-.35-.008-.491-.066-.98.009-1.961-.023-2.941.066-1.685.16-3.574.994-4.965 1.918-.49.324-1.004.17-1.324-.161-.191.07-.385.142-.576.218-.066.11-.157.205-.274.27-1.382.778-2.713 1.639-4.041 2.507-.445.293-.913.19-1.233-.081-.962.718-1.89 1.52-2.817 2.256-2.525 2.007-4.961 4.108-8.182 5.147.143-.355.318-.685.506-1.006l-.015-.011c-.47-.372-.452-.948-.163-1.417.374-.604.967-.987 1.607-1.26.119-.053.242-.096.365-.138.94-1.037 2.266-1.667 3.239-2.67 2.524-2.604 5.53-5.126 9.689-5.032.016 0 .032-.003.048-.01.009-.002.017-.005.029-.01.277-.113.578-.838.98-1.394.214.023.445.045.688.072.015-.005.029-.01.043-.013.842-.138 1.649-.655 2.532-.8.018-.003.038-.003.058-.007 1.223-.303 2.447-.504 3.57-.955 1.729-.695 3.357-1.603 4.81.4l.056-.007c.77-.152 1.503-.432 1.988-1.066.173-.222.318-.471.445-.74.156-.412.248-.862.308-1.31.039-.293.17-.504.352-.641.049-.184.1-.363.154-.54-.197-.24-.408-.474-.635-.703-1.3-.25-2.228-.967-3.01-1.873-.135.003-.278-.022-.428-.087l-.797-.34.024.123c-2.493-.748-4.811-1.447-7.158-2.151-.25.205-.595.293-.983.14-.817-.32-1.687-.222-2.518.018-.204.058-.415.07-.608.029-.203.07-.41.14-.615.2-4.818 1.462-9.76 2.656-13.648 6.153-2.867 2.58-5.651 5.254-8.542 7.808-.818.725-.22 2.264-1.081 2.905l-1.782-1.996c2.262-2.423 4.313-4.714 6.47-6.901M71.989 111.74c.324 4.154-.09 8.31.923 12.49.58 2.384-.207 5.09-.32 7.655-.15 3.55-.257 7.104-.361 10.657-.056 1.983-.242 3.986-.056 5.948.275 2.918-2.058 4.155-3.578 5.855-.437.49-2.106.638-2.571.225-2.731-2.431-6.012-4.59-6.46-8.673-.538-4.954-.176-9.918.118-14.881.338-5.71.159-11.411-1.262-16.988-.158-.622-.985-1.158-1.611-1.556l.467-2.808c.073.14.444.112.663.193 4.167 1.537 4.147 1.537 4.223 6.42.11 7.517.4 15.037.332 22.553-.038 4.349.494 8.417 3.214 12.127.947.117 2.082.257 3.187.395.887-2.85 1.139-5.606.429-8.593-.336-1.422-1.267-3.715 1.103-4.88.147-.071.18-.883.013-1.004-1.884-1.36-1.648-2.68-.055-4.068.184-.156.396-.542.324-.69-1.828-3.728.75-7.72-1.041-11.726-1.16-2.588-1.316-6.237-3.251-9.334" transform="translate(0 .937) translate(228 6)"/>
            <path fill="#FFF" d="M75.652 173.599c-1.344 3.499-4.552 5.941-7.877 7.672-1.66.865-3.618 1.905-3.842 3.763-.169 1.398.798 2.72 1.985 3.479 1.772 1.132 3.996 1.313 6.09 1.122 1.724-.157 3.467-.56 4.915-1.509 1.664-1.091 2.822-2.837 3.506-4.705.685-1.869.932-3.868 1.079-5.852.087-1.166.138-2.358-.173-3.485-.312-1.127-1.044-2.194-2.129-2.632-.969-.391-2.146-.206-2.95.463-.803.668-1.198 1.793-.989 2.817M97.129 179.727c-.347 2.647-2.16 4.875-4.172 6.63-1.004.874-2.186 1.922-2.031 3.246.117.997 1.007 1.75 1.956 2.077 1.415.488 2.986.241 4.404-.24 1.168-.398 2.306-.968 3.15-1.867.97-1.034 1.48-2.436 1.641-3.845.163-1.408 0-2.833-.23-4.23-.135-.823-.3-1.657-.703-2.385-.404-.728-1.09-1.345-1.913-1.467-.737-.108-1.521.217-1.965.814-.446.597-.53 1.442-.216 2.116M57.441 71.392c3.763 6.993 8.427 13.498 13.841 19.306 4.707 5.049 10.365 9.758 17.179 10.864.203.032.41.062.613.035.912-.118 1.314-1.334.959-2.182-.356-.849-1.179-1.39-1.958-1.878l-8.844-5.556c-2.726-1.712-5.468-3.436-7.844-5.607-4.173-3.813-7.056-8.87-9.021-14.17-.392-1.06-.77-2.164-1.537-2.994-.767-.83-2.05-1.306-3.054-.788-1.394.718-1.08 3.24.447 3.596M38.833 69.652c-2.974 3.432-7.27 5.352-11.307 7.429-.968.498-2.08 1.282-1.934 2.36.117.872 1.028 1.403 1.88 1.618 1.903.48 3.932.044 5.738-.724 4.152-1.766 7.496-5.34 8.98-9.6.2-.572.369-1.194.202-1.776-.32-1.108-1.817-1.55-2.848-1.034-1.03.515-1.59 1.692-1.706 2.838" opacity=".382" transform="translate(0 .937) translate(228 6)"/>
            <path fill="#FFF" d="M32.833 270.396L43.295 306.217 69.978 322.985 49.761 328.356 60.224 364.178 37.267 331.676 17.05 337.048 23.079 311.589 0.122 279.087 26.805 295.855z" transform="translate(0 .937) translate(228 6)"/>
            <path fill="#FFF" d="M62.02 556.727L60.732 642.531 75.45 651.233 75.45 565.432zM24.76 534.59L23.471 620.394 49.088 637.143 49.088 551.342zM161.084 518.266L162.372 604.071 117.746 633.25 136.756 535.019z" opacity=".447" transform="translate(0 .937) translate(228 6)"/>
            <path stroke="#A7872E" d="M42.688 380.924s18.835 5.823 24.445-7.671" transform="translate(0 .937) translate(228 6)"/>
            <path fill="#A7872E" d="M45.2 371.975s-3.705 3.619 1.74 9.799c0 0 4.163-2.831-1.74-9.799M51.244 371.067s-3.705 3.62 1.74 9.798c0 0 4.163-2.83-1.74-9.798M56.745 369.846s-3.705 3.62 1.74 9.798c0 0 4.163-2.83-1.74-9.798M61.141 366.072s-3.705 3.619 1.74 9.799c0 0 4.163-2.831-1.74-9.8M48.001 383.368s4.863 8.046 9.344 5.915c0 0-4.215-8-9.344-5.915M54.344 382.755s4.863 8.046 9.344 5.915c0 0-4.215-8-9.344-5.915M59.639 380.955s4.863 8.046 9.344 5.915c0 0-4.215-8.001-9.344-5.915M64.407 378.728s5.97 7.376 9.2 3.59c0 0-5.42-7.531-9.2-3.59" transform="translate(0 .937) translate(228 6)"/>
            <path stroke="#A7872E" d="M33.73 375.752s-18.835-15.925-24.445-35.898" transform="translate(0 .937) translate(228 6)"/>
            <path fill="#A7872E" d="M31.218 363.902s3.705 7.897-1.74 7.79c0 0-4.163-7.639 1.74-7.79M25.174 356.016s3.705 7.897-1.74 7.79c0 0-4.163-7.639 1.74-7.79M19.674 348.443s3.704 7.897-1.74 7.79c0 0-4.164-7.64 1.74-7.79M15.277 339.592s3.706 7.897-1.74 7.79c0 0-4.163-7.639 1.74-7.79M28.417 372.061s-4.863 2.431-9.344-4.875c0 0 4.215-3.133 9.344 4.875M22.074 364.124s-4.863 2.431-9.344-4.875c0 0 4.215-3.133 9.344 4.875M16.78 356.21s-4.863 2.431-9.344-4.875c0 0 4.215-3.133 9.344 4.875M12.011 348.477s-5.97.483-9.199-7.031c0 0 5.42-1.275 9.2 7.031" transform="translate(0 .937) translate(228 6)"/>
            <path fill="#FFF" d="M128.319 264.946L167.239 242.759 131.259 402.656z" opacity=".399" transform="translate(0 .937) translate(228 6)"/>
            <path fill="#FFF" d="M88.708 502.025L112.824 490.695 89.338 322.708z" opacity=".447" transform="translate(0 .937) translate(228 6)"/>
            <path fill="#A7872E" d="M21.67 383.241L24.208 390.556 63.688 410.867 64.186 402.756zM24.856 398.998L27.394 406.313 63.688 424.681 64.185 416.569zM26.784 413.371L29.321 420.686 63.687 438.494 64.185 430.382z" transform="translate(0 .937) translate(228 6)"/>
            <g stroke="#FFF" stroke-linecap="round" stroke-width="2" opacity=".355">
                <path d="M33.614.759L33.614 27.618M.285 23.888L32.118 34.085M66.943 23.888L35.11 34.085M13.986 61.842L29.752 39.854M53.242 61.842L37.476 39.854" transform="translate(0 .937) translate(228 6) translate(120)"/>
            </g>
            <path stroke="#FFF" stroke-width="3" d="M183.407 214.053L79.069 273.549 79.113 516.257" transform="translate(0 .937) translate(228 6)"/>
        </g>
        <path fill="url(#prefix__J)" d="M233.516 254.808l339.321 344.428 13.891-20.738-174.591-479.71c-6.179-.461-12.123-.682-17.882-.682-152.833.014-160.739 156.702-160.739 156.702" transform="translate(0 .937) rotate(-1 410.122 348.671)"/>
        <path fill="url(#prefix__K)" d="M212.618 102.512L38.027 582.222l13.89 20.737 339.321-344.427s-7.904-156.689-160.737-156.702c-5.759 0-11.704.221-17.883.682" transform="translate(0 .937)"/>
    </g>
</svg>
