<svg xmlns="http://www.w3.org/2000/svg" xmlns:xlink="http://www.w3.org/1999/xlink" width="585" height="838" viewBox="0 0 585 838">
    <defs>
        <path id="prefix__a" d="M0.466 0.903L583.01 0.903 583.01 339.783 0.466 339.783z"/>
    </defs>
    <g fill="none" fill-rule="evenodd" transform="translate(.95 .06)">
        <path fill="#DA2128" d="M186.757 702.909L186.728 712.628 165.716 724.846 165.746 715.128z"/>
        <path fill="#EA404A" d="M157.85 710.569L144.617 702.923 144.588 712.642 157.85 720.302 165.716 724.846 165.746 715.127z"/>
        <path fill="#DA2128" d="M165.628 690.705L157.85 695.22 144.617 702.924 157.85 710.569 165.746 715.127 186.756 702.909z"/>
        <path fill="#F8833A" d="M194.065 697.404L194.029 709.692 167.461 725.131 167.496 712.842z"/>
        <path fill="#EA404A" d="M167.496 712.842L167.46 725.13 140.737 709.704 140.772 697.416z"/>
        <path fill="#FDFFDB" d="M193.843 697.533L167.495 712.843 140.994 697.545 167.341 682.223z"/>
        <path fill="#F8833A" d="M182.864 678.911L182.804 697.51 167.519 706.394 167.566 687.796z"/>
        <path fill="#EA404A" d="M167.566 687.795L167.519 706.394 152.115 697.509 152.174 678.91z"/>
        <path fill="#FDFFDB" d="M182.994 678.625L167.568 687.586 152.047 678.625 167.473 669.667z"/>
        <path fill="#434852" d="M171.245 441.144l-.662 236.958-1.5 2.103c-2.058 1.19-5.35 1.175-7.396 0l-1.558-2.162.677-236.973 1.543 2.161c2.044 1.191 5.338 1.206 7.411 0l1.485-2.087z"/>
        <path fill="#DA2128" d="M354.334 810.316L354.305 820.035 333.293 832.253 333.324 822.535z"/>
        <path fill="#EA404A" d="M325.428 817.976L312.195 810.33 312.165 820.049 325.428 827.71 333.294 832.253 333.324 822.535z"/>
        <path fill="#DA2128" d="M333.206 798.113L325.428 802.627 312.195 810.331 325.428 817.976 333.324 822.535 354.334 810.316z"/>
        <path fill="#F8833A" d="M359.574 808.329L359.538 820.617 332.97 836.055 333.005 823.767z"/>
        <path fill="#EA404A" d="M333.005 823.766L332.969 836.054 306.246 820.628 306.281 808.34z"/>
        <path fill="#FDFFDB" d="M359.574 808.329L333.005 823.767 306.282 808.341 332.85 792.891z"/>
        <path fill="#F8833A" d="M348.502 789.55L348.442 808.304 333.028 817.264 333.076 798.51z"/>
        <path fill="#EA404A" d="M333.076 798.51L333.029 817.264 317.495 808.304 317.555 789.55z"/>
        <path fill="#FDFFDB" d="M348.502 789.55L333.076 798.51 317.555 789.55 332.981 780.59z"/>
        <path fill="#434852" d="M338.823 570.32l-.663 216.959-1.5 2.104c-2.057 1.19-5.35 1.175-7.395 0l-1.56-2.163.678-216.972 1.544 2.16c2.043 1.192 5.337 1.207 7.41 0l1.486-2.087z"/>
        <mask id="prefix__b" fill="#fff">
            <use xlink:href="#prefix__a"/>
        </mask>
        <path fill="#EA404A" d="M563.801 339.783L583.01 325.529 19.675 0.903 0.466 15.157z" mask="url(#prefix__b)"/>
        <path fill="#434852" d="M0.466 15.157L0.353 497.049 563.696 821.674 563.801 339.783z"/>
        <path fill="#C10021" d="M0.466 15.157L0.353 497.049 563.696 821.674 563.801 339.783z"/>
        <path fill="#1A1A1A" d="M19.378 42.24L19.273 491.767 544.782 794.592 544.88 345.064z"/>
        <path fill="#C10021" d="M582.954 324.877L583.067 806.768 563.906 821.673 563.801 339.782z"/>
        <path fill="#FFF" d="M455.309 200.897c1.93 0 1.934-3 0-3-1.93 0-1.934 3 0 3"/>
    </g>
</svg>
