<svg xmlns="http://www.w3.org/2000/svg" xmlns:xlink="http://www.w3.org/1999/xlink" width="584" height="836" viewBox="0 0 584 836">
    <defs>
        <path id="prefix__a" d="M0.466 0.903L583.01 0.903 583.01 339.783 0.466 339.783z"/>
    </defs>
    <g fill="none" fill-rule="evenodd">
        <path fill="#DA2128" d="M262.757 749.909L262.728 759.628 241.716 771.846 241.746 762.128z" transform="translate(-76 -47.04)"/>
        <path fill="#EA404A" d="M233.85 757.569L220.617 749.923 220.588 759.642 233.85 767.302 241.716 771.846 241.746 762.127z" transform="translate(-76 -47.04)"/>
        <path fill="#DA2128" d="M241.628 737.705L233.85 742.22 220.617 749.924 233.85 757.569 241.746 762.127 262.756 749.909z" transform="translate(-76 -47.04)"/>
        <path fill="#F8833A" d="M270.065 744.404L270.029 756.692 243.461 772.131 243.496 759.842z" transform="translate(-76 -47.04)"/>
        <path fill="#EA404A" d="M243.496 759.842L243.46 772.13 216.737 756.704 216.772 744.416z" transform="translate(-76 -47.04)"/>
        <path fill="#FDFFDB" d="M269.843 744.533L243.495 759.843 216.994 744.545 243.341 729.223z" transform="translate(-76 -47.04)"/>
        <path fill="#F8833A" d="M258.864 725.911L258.804 744.51 243.519 753.394 243.566 734.796z" transform="translate(-76 -47.04)"/>
        <path fill="#EA404A" d="M243.566 734.795L243.519 753.394 228.115 744.509 228.174 725.91z" transform="translate(-76 -47.04)"/>
        <path fill="#FDFFDB" d="M258.994 725.625L243.568 734.586 228.047 725.625 243.473 716.667z" transform="translate(-76 -47.04)"/>
        <path fill="#434852" d="M247.245 488.144l-.662 236.958-1.5 2.103c-2.058 1.19-5.35 1.175-7.396 0l-1.558-2.162.677-236.973 1.543 2.161c2.044 1.191 5.338 1.206 7.411 0l1.485-2.087z" transform="translate(-76 -47.04)"/>
        <path fill="#DA2128" d="M430.334 857.316L430.305 867.035 409.293 879.253 409.324 869.535z" transform="translate(-76 -47.04)"/>
        <path fill="#EA404A" d="M401.428 864.976L388.195 857.33 388.165 867.049 401.428 874.71 409.294 879.253 409.324 869.535z" transform="translate(-76 -47.04)"/>
        <path fill="#DA2128" d="M409.206 845.113L401.428 849.627 388.195 857.331 401.428 864.976 409.324 869.535 430.334 857.316z" transform="translate(-76 -47.04)"/>
        <path fill="#F8833A" d="M435.574 855.329L435.538 867.617 408.97 883.055 409.005 870.767z" transform="translate(-76 -47.04)"/>
        <path fill="#EA404A" d="M409.005 870.766L408.969 883.054 382.246 867.628 382.281 855.34z" transform="translate(-76 -47.04)"/>
        <path fill="#FDFFDB" d="M435.574 855.329L409.005 870.767 382.282 855.341 408.85 839.891z" transform="translate(-76 -47.04)"/>
        <path fill="#F8833A" d="M424.502 836.55L424.442 855.304 409.028 864.264 409.076 845.51z" transform="translate(-76 -47.04)"/>
        <path fill="#EA404A" d="M409.076 845.51L409.029 864.264 393.495 855.304 393.555 836.55z" transform="translate(-76 -47.04)"/>
        <path fill="#FDFFDB" d="M424.502 836.55L409.076 845.51 393.555 836.55 408.981 827.59z" transform="translate(-76 -47.04)"/>
        <path fill="#434852" d="M414.823 617.32l-.663 216.959-1.5 2.104c-2.057 1.19-5.35 1.175-7.395 0l-1.56-2.163.678-216.972 1.544 2.16c2.043 1.192 5.337 1.207 7.41 0l1.486-2.087z" transform="translate(-76 -47.04)"/>
        <g transform="translate(-76 -47.04) translate(76 47)">
            <mask id="prefix__b" fill="#fff">
                <use xlink:href="#prefix__a"/>
            </mask>
            <path fill="#EA404A" d="M563.801 339.783L583.01 325.529 19.675 0.903 0.466 15.157z" mask="url(#prefix__b)"/>
        </g>
        <path fill="#434852" d="M76.466 62.157L76.353 544.049 639.696 868.674 639.801 386.783z" transform="translate(-76 -47.04)"/>
        <path fill="#C10021" d="M76.466 62.157L76.353 544.049 639.696 868.674 639.801 386.783z" transform="translate(-76 -47.04)"/>
        <path fill="#1A1A1A" d="M95.378 89.24L95.273 538.767 620.782 841.592 620.88 392.064z" transform="translate(-76 -47.04)"/>
        <path fill="#C10021" d="M658.954 371.877L659.067 853.768 639.906 868.673 639.801 386.782z" transform="translate(-76 -47.04)"/>
        <path fill="#FFF" d="M531.309 247.897c1.93 0 1.934-3 0-3-1.93 0-1.934 3 0 3" transform="translate(-76 -47.04)"/>
    </g>
</svg>
