<svg xmlns="http://www.w3.org/2000/svg" xmlns:xlink="http://www.w3.org/1999/xlink" width="680" height="211" viewBox="0 0 680 211">
    <defs>
        <path id="prefix__a" d="M657.015 169.722l-21.789 17.499H38.48l-21.789-17.499V29.541l23.126-19.086h594.072l23.126 19.086v140.181zM.599 197.012h665.814V.664H.599v196.348z"/>
        <path id="prefix__e" d="M632.051 73.464L654.159 73.464 654.159 68.246 632.051 68.246z"/>
        <path id="prefix__g" d="M632.051 87.097L654.159 87.097 654.159 81.879 632.051 81.879z"/>
        <path id="prefix__i" d="M632.051 100.73L654.159 100.73 654.159 95.512 632.051 95.512z"/>
        <path id="prefix__k" d="M632.051 114.363L654.159 114.363 654.159 109.145 632.051 109.145z"/>
        <path id="prefix__m" d="M632.051 127.996L654.159 127.996 654.159 122.778 632.051 122.778z"/>
        <path id="prefix__o" d="M31.883 73.464L53.99 73.464 53.99 68.246 31.883 68.246z"/>
        <path id="prefix__q" d="M31.883 87.097L53.99 87.097 53.99 81.879 31.883 81.879z"/>
        <path id="prefix__s" d="M31.883 100.73L53.99 100.73 53.99 95.512 31.883 95.512z"/>
        <path id="prefix__u" d="M31.883 114.363L53.99 114.363 53.99 109.145 31.883 109.145z"/>
        <path id="prefix__w" d="M31.883 127.996L53.99 127.996 53.99 122.778 31.883 122.778z"/>
        <path id="prefix__y" d="M632.051 141.629L654.159 141.629 654.159 136.411 632.051 136.411z"/>
        <path id="prefix__A" d="M632.051 155.262L654.159 155.262 654.159 150.044 632.051 150.044z"/>
        <path id="prefix__C" d="M31.883 141.629L53.99 141.629 53.99 136.411 31.883 136.411z"/>
        <path id="prefix__E" d="M31.883 155.262L53.99 155.262 53.99 150.044 31.883 150.044z"/>
        <path id="prefix__F" d="M0 58.677L372.837 58.677 372.837 0 0 0z"/>
        <filter id="prefix__d" width="249.3%" height="732.4%" x="-74.6%" y="-316.2%" filterUnits="objectBoundingBox">
            <feMorphology in="SourceAlpha" operator="dilate" radius=".5" result="shadowSpreadOuter1"/>
            <feOffset in="shadowSpreadOuter1" result="shadowOffsetOuter1"/>
            <feGaussianBlur in="shadowOffsetOuter1" result="shadowBlurOuter1" stdDeviation="5"/>
            <feColorMatrix in="shadowBlurOuter1" values="0 0 0 0 1 0 0 0 0 1 0 0 0 0 1 0 0 0 0.789335664 0"/>
        </filter>
        <filter id="prefix__f" width="249.3%" height="732.4%" x="-74.6%" y="-316.2%" filterUnits="objectBoundingBox">
            <feMorphology in="SourceAlpha" operator="dilate" radius=".5" result="shadowSpreadOuter1"/>
            <feOffset in="shadowSpreadOuter1" result="shadowOffsetOuter1"/>
            <feGaussianBlur in="shadowOffsetOuter1" result="shadowBlurOuter1" stdDeviation="5"/>
            <feColorMatrix in="shadowBlurOuter1" values="0 0 0 0 1 0 0 0 0 1 0 0 0 0 1 0 0 0 0.789335664 0"/>
        </filter>
        <filter id="prefix__h" width="249.3%" height="732.4%" x="-74.6%" y="-316.2%" filterUnits="objectBoundingBox">
            <feMorphology in="SourceAlpha" operator="dilate" radius=".5" result="shadowSpreadOuter1"/>
            <feOffset in="shadowSpreadOuter1" result="shadowOffsetOuter1"/>
            <feGaussianBlur in="shadowOffsetOuter1" result="shadowBlurOuter1" stdDeviation="5"/>
            <feColorMatrix in="shadowBlurOuter1" values="0 0 0 0 1 0 0 0 0 1 0 0 0 0 1 0 0 0 0.789335664 0"/>
        </filter>
        <filter id="prefix__j" width="249.3%" height="732.4%" x="-74.6%" y="-316.2%" filterUnits="objectBoundingBox">
            <feMorphology in="SourceAlpha" operator="dilate" radius=".5" result="shadowSpreadOuter1"/>
            <feOffset in="shadowSpreadOuter1" result="shadowOffsetOuter1"/>
            <feGaussianBlur in="shadowOffsetOuter1" result="shadowBlurOuter1" stdDeviation="5"/>
            <feColorMatrix in="shadowBlurOuter1" values="0 0 0 0 1 0 0 0 0 1 0 0 0 0 1 0 0 0 0.789335664 0"/>
        </filter>
        <filter id="prefix__l" width="249.3%" height="732.4%" x="-74.6%" y="-316.2%" filterUnits="objectBoundingBox">
            <feMorphology in="SourceAlpha" operator="dilate" radius=".5" result="shadowSpreadOuter1"/>
            <feOffset in="shadowSpreadOuter1" result="shadowOffsetOuter1"/>
            <feGaussianBlur in="shadowOffsetOuter1" result="shadowBlurOuter1" stdDeviation="5"/>
            <feColorMatrix in="shadowBlurOuter1" values="0 0 0 0 1 0 0 0 0 1 0 0 0 0 1 0 0 0 0.789335664 0"/>
        </filter>
        <filter id="prefix__n" width="249.3%" height="732.4%" x="-74.6%" y="-316.2%" filterUnits="objectBoundingBox">
            <feMorphology in="SourceAlpha" operator="dilate" radius=".5" result="shadowSpreadOuter1"/>
            <feOffset in="shadowSpreadOuter1" result="shadowOffsetOuter1"/>
            <feGaussianBlur in="shadowOffsetOuter1" result="shadowBlurOuter1" stdDeviation="5"/>
            <feColorMatrix in="shadowBlurOuter1" values="0 0 0 0 1 0 0 0 0 1 0 0 0 0 1 0 0 0 0.789335664 0"/>
        </filter>
        <filter id="prefix__p" width="249.3%" height="732.4%" x="-74.6%" y="-316.2%" filterUnits="objectBoundingBox">
            <feMorphology in="SourceAlpha" operator="dilate" radius=".5" result="shadowSpreadOuter1"/>
            <feOffset in="shadowSpreadOuter1" result="shadowOffsetOuter1"/>
            <feGaussianBlur in="shadowOffsetOuter1" result="shadowBlurOuter1" stdDeviation="5"/>
            <feColorMatrix in="shadowBlurOuter1" values="0 0 0 0 1 0 0 0 0 1 0 0 0 0 1 0 0 0 0.789335664 0"/>
        </filter>
        <filter id="prefix__r" width="249.3%" height="732.4%" x="-74.6%" y="-316.2%" filterUnits="objectBoundingBox">
            <feMorphology in="SourceAlpha" operator="dilate" radius=".5" result="shadowSpreadOuter1"/>
            <feOffset in="shadowSpreadOuter1" result="shadowOffsetOuter1"/>
            <feGaussianBlur in="shadowOffsetOuter1" result="shadowBlurOuter1" stdDeviation="5"/>
            <feColorMatrix in="shadowBlurOuter1" values="0 0 0 0 1 0 0 0 0 1 0 0 0 0 1 0 0 0 0.789335664 0"/>
        </filter>
        <filter id="prefix__t" width="249.3%" height="732.4%" x="-74.6%" y="-316.2%" filterUnits="objectBoundingBox">
            <feMorphology in="SourceAlpha" operator="dilate" radius=".5" result="shadowSpreadOuter1"/>
            <feOffset in="shadowSpreadOuter1" result="shadowOffsetOuter1"/>
            <feGaussianBlur in="shadowOffsetOuter1" result="shadowBlurOuter1" stdDeviation="5"/>
            <feColorMatrix in="shadowBlurOuter1" values="0 0 0 0 1 0 0 0 0 1 0 0 0 0 1 0 0 0 0.789335664 0"/>
        </filter>
        <filter id="prefix__v" width="249.3%" height="732.4%" x="-74.6%" y="-316.2%" filterUnits="objectBoundingBox">
            <feMorphology in="SourceAlpha" operator="dilate" radius=".5" result="shadowSpreadOuter1"/>
            <feOffset in="shadowSpreadOuter1" result="shadowOffsetOuter1"/>
            <feGaussianBlur in="shadowOffsetOuter1" result="shadowBlurOuter1" stdDeviation="5"/>
            <feColorMatrix in="shadowBlurOuter1" values="0 0 0 0 1 0 0 0 0 1 0 0 0 0 1 0 0 0 0.789335664 0"/>
        </filter>
        <filter id="prefix__x" width="249.3%" height="732.4%" x="-74.6%" y="-316.2%" filterUnits="objectBoundingBox">
            <feMorphology in="SourceAlpha" operator="dilate" radius=".5" result="shadowSpreadOuter1"/>
            <feOffset in="shadowSpreadOuter1" result="shadowOffsetOuter1"/>
            <feGaussianBlur in="shadowOffsetOuter1" result="shadowBlurOuter1" stdDeviation="5"/>
            <feColorMatrix in="shadowBlurOuter1" values="0 0 0 0 1 0 0 0 0 1 0 0 0 0 1 0 0 0 0.789335664 0"/>
        </filter>
        <filter id="prefix__z" width="249.3%" height="732.4%" x="-74.6%" y="-316.2%" filterUnits="objectBoundingBox">
            <feMorphology in="SourceAlpha" operator="dilate" radius=".5" result="shadowSpreadOuter1"/>
            <feOffset in="shadowSpreadOuter1" result="shadowOffsetOuter1"/>
            <feGaussianBlur in="shadowOffsetOuter1" result="shadowBlurOuter1" stdDeviation="5"/>
            <feColorMatrix in="shadowBlurOuter1" values="0 0 0 0 1 0 0 0 0 1 0 0 0 0 1 0 0 0 0.789335664 0"/>
        </filter>
        <filter id="prefix__B" width="249.3%" height="732.4%" x="-74.6%" y="-316.2%" filterUnits="objectBoundingBox">
            <feMorphology in="SourceAlpha" operator="dilate" radius=".5" result="shadowSpreadOuter1"/>
            <feOffset in="shadowSpreadOuter1" result="shadowOffsetOuter1"/>
            <feGaussianBlur in="shadowOffsetOuter1" result="shadowBlurOuter1" stdDeviation="5"/>
            <feColorMatrix in="shadowBlurOuter1" values="0 0 0 0 1 0 0 0 0 1 0 0 0 0 1 0 0 0 0.789335664 0"/>
        </filter>
        <filter id="prefix__D" width="249.3%" height="732.4%" x="-74.6%" y="-316.2%" filterUnits="objectBoundingBox">
            <feMorphology in="SourceAlpha" operator="dilate" radius=".5" result="shadowSpreadOuter1"/>
            <feOffset in="shadowSpreadOuter1" result="shadowOffsetOuter1"/>
            <feGaussianBlur in="shadowOffsetOuter1" result="shadowBlurOuter1" stdDeviation="5"/>
            <feColorMatrix in="shadowBlurOuter1" values="0 0 0 0 1 0 0 0 0 1 0 0 0 0 1 0 0 0 0.789335664 0"/>
        </filter>
        <linearGradient id="prefix__b" x1="0%" x2="100%" y1="50%" y2="50%">
            <stop offset="0%" stop-color="#F0233D"/>
            <stop offset="100%" stop-color="#FF7979"/>
        </linearGradient>
    </defs>
    <g fill="none" fill-rule="evenodd">
        <g transform="translate(6 7)">
            <mask id="prefix__c" fill="#fff">
                <use xlink:href="#prefix__a"/>
            </mask>
            <path fill="url(#prefix__b)" d="M657.015 169.722l-21.789 17.499H38.48l-21.789-17.499V29.541l23.126-19.086h594.072l23.126 19.086v140.181zM.599 197.012h665.814V.664H.599v196.348z" mask="url(#prefix__c)"/>
        </g>
        <path fill="#1A1A1A" d="M679.12 11.688L679.12 8.315 671.703.914 668.444.914 656.545.914 656.545 6.59 669.348 6.59 673.431 10.665 673.431 23.489 679.12 23.489zM668.347 210.807L671.72 210.807 679.12 203.39 679.12 200.131 679.12 188.232 673.444 188.232 673.444 201.035 669.369 205.118 656.545 205.118 656.545 210.807zM.695 200.034L.695 203.407 8.112 210.807 11.371 210.807 23.27 210.807 23.27 205.131 10.467 205.131 6.384 201.056 6.384 188.232.695 188.232zM11.468.914L8.096.914.695 8.331.695 11.59.695 23.489 6.372 23.489 6.372 10.686 10.446 6.603 23.27 6.603 23.27.914z"/>
        <g opacity=".8">
            <path fill="#000" d="M617.889 0.455L333.489 0.455 23.817 0.455 0.691 19.54 0.691 159.722 22.48 177.221 333.489 177.221 619.226 177.221 641.015 159.722 641.015 19.54z" opacity=".872" transform="translate(22 17)"/>
            <path stroke="#FFF" stroke-width="3" d="M617.889 0.455L333.489 0.455 23.817 0.455 0.691 19.54 0.691 159.722 22.48 177.221 333.489 177.221 619.226 177.221 641.015 159.722 641.015 19.54z" transform="translate(22 17)"/>
        </g>
        <g fill-rule="nonzero">
            <use fill="#000" filter="url(#prefix__d)" xlink:href="#prefix__e"/>
            <use fill="#FFF" xlink:href="#prefix__e"/>
        </g>
        <g fill-rule="nonzero">
            <use fill="#000" filter="url(#prefix__f)" xlink:href="#prefix__g"/>
            <use fill="#FFF" xlink:href="#prefix__g"/>
        </g>
        <g fill-rule="nonzero">
            <use fill="#000" filter="url(#prefix__h)" xlink:href="#prefix__i"/>
            <use fill="#FFF" xlink:href="#prefix__i"/>
        </g>
        <g fill-rule="nonzero">
            <use fill="#000" filter="url(#prefix__j)" xlink:href="#prefix__k"/>
            <use fill="#FFF" xlink:href="#prefix__k"/>
        </g>
        <g fill-rule="nonzero">
            <use fill="#000" filter="url(#prefix__l)" xlink:href="#prefix__m"/>
            <use fill="#FFF" xlink:href="#prefix__m"/>
        </g>
        <g fill-rule="nonzero">
            <use fill="#000" filter="url(#prefix__n)" xlink:href="#prefix__o"/>
            <use fill="#FFF" xlink:href="#prefix__o"/>
        </g>
        <g fill-rule="nonzero">
            <use fill="#000" filter="url(#prefix__p)" xlink:href="#prefix__q"/>
            <use fill="#FFF" xlink:href="#prefix__q"/>
        </g>
        <g fill-rule="nonzero">
            <use fill="#000" filter="url(#prefix__r)" xlink:href="#prefix__s"/>
            <use fill="#FFF" xlink:href="#prefix__s"/>
        </g>
        <g fill-rule="nonzero">
            <use fill="#000" filter="url(#prefix__t)" xlink:href="#prefix__u"/>
            <use fill="#FFF" xlink:href="#prefix__u"/>
        </g>
        <g fill-rule="nonzero">
            <use fill="#000" filter="url(#prefix__v)" xlink:href="#prefix__w"/>
            <use fill="#FFF" xlink:href="#prefix__w"/>
        </g>
        <g fill-rule="nonzero">
            <use fill="#000" filter="url(#prefix__x)" xlink:href="#prefix__y"/>
            <use fill="#FFF" xlink:href="#prefix__y"/>
        </g>
        <g fill-rule="nonzero">
            <use fill="#000" filter="url(#prefix__z)" xlink:href="#prefix__A"/>
            <use fill="#FFF" xlink:href="#prefix__A"/>
        </g>
        <g fill-rule="nonzero">
            <use fill="#000" filter="url(#prefix__B)" xlink:href="#prefix__C"/>
            <use fill="#FFF" xlink:href="#prefix__C"/>
        </g>
        <g fill-rule="nonzero">
            <use fill="#000" filter="url(#prefix__D)" xlink:href="#prefix__E"/>
            <use fill="#FFF" xlink:href="#prefix__E"/>
        </g>
        <path fill="#FFF" d="M557.993 23.489L623.005 23.489 623.005 17.454 557.993 17.454zM110.881 195.169L175.893 195.169 175.893 189.134 110.881 189.134z"/>
        <g transform="translate(154 76)">
            <path fill="#FFF" d="M41.878 19.919l-.3.96c.78 3.66 1.8 7.199 3 10.56 1.2-3.541 2.1-7.38 2.76-11.52h-5.46zM17.34 45.538h5.58v-4.92h-5.58v4.92zm-4.26-24.959v2.88h9.66v-2.88h-9.66zM30.6 49.558c3.78-2.16 6.84-4.98 9.24-8.4-1.14-2.7-2.1-5.58-2.94-8.58-.6 1.08-1.2 2.04-1.86 3-.96-1.32-3.12-3.599-4.92-5.22h-17.28c-.06 1.14-.12 2.281-.24 3.42h18v15.78zm24.658-29.639c-1.02 7.979-2.819 15.239-5.699 21.419 2.46 3.66 5.46 6.72 9.06 8.939-2.1 1.741-5.04 5.34-6.48 7.8-3-2.279-5.58-5.04-7.74-8.22-2.64 3.361-5.88 6.121-9.72 8.281-.9-1.561-2.46-3.54-4.08-5.281v1.68H22.92v-2.159h-5.58v3.479h-7.32v-6.839c-.84 3-1.98 5.819-3.36 8.219-1.38-1.5-4.86-4.139-6.659-4.979 4.74-8.46 5.1-20.999 5.1-29.819V5.159c7.44-.719 15.6-2.04 20.698-3.719l6.54 6.299c-5.76 1.68-12.719 2.821-19.259 3.48v2.52h17.34v12.48c3.42-6.361 5.22-15.48 6.12-24.9l8.64 1.141c-.362 3.18-.84 6.359-1.44 9.419h14.218v8.04h-2.7zM83.519 47.817l9.54-.72c.3-.42.6-.84.899-1.32H83.519v2.04zm0-14.939h2.94v-1.8h-2.94v1.8zm0-6.72h2.94v-1.8h-2.94v1.8zm-10.859 6.72h3v-1.8h-3v1.8zm0-6.72h3v-1.8h-3v1.8zm47.038-11.699s-.06 2.7-.06 3.72c-.48 24.298-.9 33.298-2.82 36.118-1.5 2.28-3 3-5.1 3.48-1.92.42-4.68.42-7.56.36-.18-2.4-1.14-5.94-2.52-8.28 2.4.24 4.44.24 5.64.24.9 0 1.44-.24 2.04-1.08 1.14-1.559 1.62-8.579 1.92-26.579h-3.66c-.84 16.2-3.54 28.26-13.379 36.238-.781-1.38-2.34-3.239-3.84-4.739-9.12.9-18.48 1.74-25.499 2.34l-.96-7.2c3.3-.18 7.32-.42 11.76-.72v-2.58H65.58v-6.06h10.08v-1.559h-9.84V19.08h9.84v-1.5H64.38V11.4h11.28V9.96c-3.241.18-6.48.3-9.54.36-.24-1.74-1.08-4.44-1.86-6.12 8.999-.42 19.139-1.44 25.979-2.88l3.66 6.42c-3.12.66-6.66 1.14-10.38 1.56v2.1h10.859v6.18H83.519v1.5h10.08v19.08h-10.08v1.558h10.439v6.06c3.781-5.999 4.98-13.679 5.4-23.339h-4.739V14.46h4.92V2.28h8.339c0 4.26 0 8.34-.06 12.18h11.88zM168.478 19.379c.6 4.38 1.44 8.52 2.52 12.359.96-3.72 1.56-7.86 1.98-12.36h-4.5zm-21.299 11.1h3.12v-1.32h-3.12v1.32zm0-13.02h1.86v-1.32h-1.86v1.32zm0-6.42h1.86v-1.2h-1.86v1.2zm9.54 32.159c-.54 2.16-1.8 4.499-4.26 6.6 1.5.66 2.94 1.319 4.26 1.979 4.739-2.58 8.159-6.06 10.619-10.44-1.26-3.06-2.28-6.42-3.12-10.02-.54 1.202-1.139 2.34-1.8 3.362-.899-1.261-3.06-3.601-4.619-4.981v5.82h-11.7c-.48.96-1.02 1.92-1.56 2.88l5.82-.3v-1.62h6.72v1.32l1.319-.06-.06 5.34-1.619.12zm-16.26 1.8c1.68.6 3.48 1.26 5.22 1.92 1.74-1.08 2.88-2.22 3.54-3.36l-8.1.48-.66.96zm-1.56-27.54h1.86v-1.32h-1.86v1.32zm0-6.42h1.86v-1.2h-1.86v1.2zm-1.62 19.44h3.48v-1.32h-3.48v1.32zm42.899-11.1c-.9 8.76-2.4 16.14-5.1 22.32 2.34 4.079 5.339 7.379 9.239 9.66-1.619 1.32-3.779 4.019-4.799 5.879-3.36-2.22-6.12-5.1-8.34-8.46-2.76 3.84-6.24 7.02-10.679 9.66-.42-1.02-1.38-2.64-2.4-4.08l-4.2 3.48c-2.1-1.32-4.86-2.76-7.92-4.2-4.08 1.68-9.54 3.06-16.859 3.96-.54-1.62-1.98-4.08-3.12-5.52 4.68-.54 8.459-1.2 11.52-1.98-2.4-.9-4.8-1.68-7.08-2.34.84-.96 1.68-2.1 2.519-3.3l-4.499.24-.6-5.64c2.58-.06 5.639-.18 8.939-.36.66-1.02 1.261-2.098 1.801-3.178h-8.4v-11.46h10.559v-1.26h-8.939v-6.18h-4.86v-6.06h4.86v-6h8.939V1.14h6.42v3.42h9.36v6h4.2v6.06h-4.2v6.18h-9.36v1.26h10.62v3.899c3.599-6.6 5.339-16.62 6.179-26.88l7.2.962c-.36 3.3-.78 6.6-1.32 9.779h14.099v7.56h-3.779zM216.539 46.378c-.42-6.24-1.8-16.5-3.24-24.419l7.86-1.8c1.68 7.68 3.36 17.699 3.96 23.759l-8.58 2.46zm7.08-35.579c-.54-2.52-1.68-6.06-2.58-8.759l8.34-2.04c1.139 2.88 2.4 6.6 3.059 9.119l-6.06 1.68h17.7v8.46h-34.08v-8.46h13.62zm22.259 36.599v8.4h-37.86v-8.4h20.88c1.92-7.68 3.78-18.719 4.44-27.299l9.12 1.38c-1.44 8.939-3.54 18.719-5.58 25.919h9zM211.26 3.96c-1.441 3.899-3.241 7.859-5.281 11.699v42.418h-8.82V29.339c-.84 1.079-1.74 2.1-2.58 2.999-.78-2.159-3.12-7.02-4.56-9.179 5.16-5.22 10.14-13.5 13.02-21.779l8.22 2.58zM308.938 47.998v8.52h-54.599v-8.52h22.68v-10.32h-15.54v-8.4h15.54V20.1H265.5c-1.68 3.12-3.42 5.94-5.22 8.16-1.74-1.5-5.64-4.08-7.86-5.28 4.62-4.92 8.46-13.14 10.5-21.24l9.06 2.04c-.72 2.64-1.62 5.22-2.64 7.8h7.68V1.14h9.12v10.44h19.618v8.52H286.14v9.178h17.219v8.4h-17.22v10.32h22.8z"/>
            <mask id="prefix__G" fill="#fff">
                <use xlink:href="#prefix__F"/>
            </mask>
            <path fill="#FFF" d="M345.839 47.818h16.199v-6.72h-16.199v6.72zm12.359-20.94v6.36h12.12v24.599h-8.28v-2.16h-16.199v2.4h-7.86V33.239h11.939v-6.36h-15.359v-8.34h15.359v-5.52c-3.659.54-7.379.96-10.919 1.26-.3-2.1-1.44-5.52-2.34-7.44 10.08-.96 20.819-3 27.479-5.82l6.66 6.84c-3.84 1.5-8.1 2.76-12.6 3.66v7.02h14.639v8.34h-14.639zM330 14.82c-2.34-1.741-7.5-4.621-10.8-6.6l4.92-6.3c3.179 1.619 8.459 4.26 11.039 5.88L330 14.82zm-13.08 36.778c3.18-4.441 7.74-11.7 11.399-18.72l6.42 5.82c-3.18 6.3-6.78 12.78-10.44 18.78l-7.379-5.88zm10.74-20.22c-2.46-1.74-7.8-4.62-11.34-6.48l4.68-6.48c3.299 1.5 8.819 4.08 11.519 5.7l-4.859 7.26z" mask="url(#prefix__G)"/>
        </g>
    </g>
</svg>
