<svg xmlns="http://www.w3.org/2000/svg" xmlns:xlink="http://www.w3.org/1999/xlink" width="680" height="211" viewBox="0 0 680 211">
    <defs>
        <path id="prefix__a" d="M657.015 169.722l-21.789 17.499H38.48l-21.789-17.499V29.541l23.126-19.086h594.072l23.126 19.086v140.181zM.599 197.012h665.814V.664H.599v196.348z"/>
        <path id="prefix__e" d="M632.051 73.464L654.159 73.464 654.159 68.246 632.051 68.246z"/>
        <path id="prefix__g" d="M632.051 87.097L654.159 87.097 654.159 81.879 632.051 81.879z"/>
        <path id="prefix__i" d="M632.051 100.73L654.159 100.73 654.159 95.512 632.051 95.512z"/>
        <path id="prefix__k" d="M632.051 114.363L654.159 114.363 654.159 109.145 632.051 109.145z"/>
        <path id="prefix__m" d="M632.051 127.996L654.159 127.996 654.159 122.778 632.051 122.778z"/>
        <path id="prefix__o" d="M31.883 73.464L53.99 73.464 53.99 68.246 31.883 68.246z"/>
        <path id="prefix__q" d="M31.883 87.097L53.99 87.097 53.99 81.879 31.883 81.879z"/>
        <path id="prefix__s" d="M31.883 100.73L53.99 100.73 53.99 95.512 31.883 95.512z"/>
        <path id="prefix__u" d="M31.883 114.363L53.99 114.363 53.99 109.145 31.883 109.145z"/>
        <path id="prefix__w" d="M31.883 127.996L53.99 127.996 53.99 122.778 31.883 122.778z"/>
        <path id="prefix__y" d="M632.051 141.629L654.159 141.629 654.159 136.411 632.051 136.411z"/>
        <path id="prefix__A" d="M632.051 155.262L654.159 155.262 654.159 150.044 632.051 150.044z"/>
        <path id="prefix__C" d="M31.883 141.629L53.99 141.629 53.99 136.411 31.883 136.411z"/>
        <path id="prefix__E" d="M31.883 155.262L53.99 155.262 53.99 150.044 31.883 150.044z"/>
        <path id="prefix__F" d="M0 58.797L493.195 58.797 493.195 0 0 0z"/>
        <filter id="prefix__d" width="249.3%" height="732.4%" x="-74.6%" y="-316.2%" filterUnits="objectBoundingBox">
            <feMorphology in="SourceAlpha" operator="dilate" radius=".5" result="shadowSpreadOuter1"/>
            <feOffset in="shadowSpreadOuter1" result="shadowOffsetOuter1"/>
            <feGaussianBlur in="shadowOffsetOuter1" result="shadowBlurOuter1" stdDeviation="5"/>
            <feColorMatrix in="shadowBlurOuter1" values="0 0 0 0 1 0 0 0 0 1 0 0 0 0 1 0 0 0 0.789335664 0"/>
        </filter>
        <filter id="prefix__f" width="249.3%" height="732.4%" x="-74.6%" y="-316.2%" filterUnits="objectBoundingBox">
            <feMorphology in="SourceAlpha" operator="dilate" radius=".5" result="shadowSpreadOuter1"/>
            <feOffset in="shadowSpreadOuter1" result="shadowOffsetOuter1"/>
            <feGaussianBlur in="shadowOffsetOuter1" result="shadowBlurOuter1" stdDeviation="5"/>
            <feColorMatrix in="shadowBlurOuter1" values="0 0 0 0 1 0 0 0 0 1 0 0 0 0 1 0 0 0 0.789335664 0"/>
        </filter>
        <filter id="prefix__h" width="249.3%" height="732.4%" x="-74.6%" y="-316.2%" filterUnits="objectBoundingBox">
            <feMorphology in="SourceAlpha" operator="dilate" radius=".5" result="shadowSpreadOuter1"/>
            <feOffset in="shadowSpreadOuter1" result="shadowOffsetOuter1"/>
            <feGaussianBlur in="shadowOffsetOuter1" result="shadowBlurOuter1" stdDeviation="5"/>
            <feColorMatrix in="shadowBlurOuter1" values="0 0 0 0 1 0 0 0 0 1 0 0 0 0 1 0 0 0 0.789335664 0"/>
        </filter>
        <filter id="prefix__j" width="249.3%" height="732.4%" x="-74.6%" y="-316.2%" filterUnits="objectBoundingBox">
            <feMorphology in="SourceAlpha" operator="dilate" radius=".5" result="shadowSpreadOuter1"/>
            <feOffset in="shadowSpreadOuter1" result="shadowOffsetOuter1"/>
            <feGaussianBlur in="shadowOffsetOuter1" result="shadowBlurOuter1" stdDeviation="5"/>
            <feColorMatrix in="shadowBlurOuter1" values="0 0 0 0 1 0 0 0 0 1 0 0 0 0 1 0 0 0 0.789335664 0"/>
        </filter>
        <filter id="prefix__l" width="249.3%" height="732.4%" x="-74.6%" y="-316.2%" filterUnits="objectBoundingBox">
            <feMorphology in="SourceAlpha" operator="dilate" radius=".5" result="shadowSpreadOuter1"/>
            <feOffset in="shadowSpreadOuter1" result="shadowOffsetOuter1"/>
            <feGaussianBlur in="shadowOffsetOuter1" result="shadowBlurOuter1" stdDeviation="5"/>
            <feColorMatrix in="shadowBlurOuter1" values="0 0 0 0 1 0 0 0 0 1 0 0 0 0 1 0 0 0 0.789335664 0"/>
        </filter>
        <filter id="prefix__n" width="249.3%" height="732.4%" x="-74.6%" y="-316.2%" filterUnits="objectBoundingBox">
            <feMorphology in="SourceAlpha" operator="dilate" radius=".5" result="shadowSpreadOuter1"/>
            <feOffset in="shadowSpreadOuter1" result="shadowOffsetOuter1"/>
            <feGaussianBlur in="shadowOffsetOuter1" result="shadowBlurOuter1" stdDeviation="5"/>
            <feColorMatrix in="shadowBlurOuter1" values="0 0 0 0 1 0 0 0 0 1 0 0 0 0 1 0 0 0 0.789335664 0"/>
        </filter>
        <filter id="prefix__p" width="249.3%" height="732.4%" x="-74.6%" y="-316.2%" filterUnits="objectBoundingBox">
            <feMorphology in="SourceAlpha" operator="dilate" radius=".5" result="shadowSpreadOuter1"/>
            <feOffset in="shadowSpreadOuter1" result="shadowOffsetOuter1"/>
            <feGaussianBlur in="shadowOffsetOuter1" result="shadowBlurOuter1" stdDeviation="5"/>
            <feColorMatrix in="shadowBlurOuter1" values="0 0 0 0 1 0 0 0 0 1 0 0 0 0 1 0 0 0 0.789335664 0"/>
        </filter>
        <filter id="prefix__r" width="249.3%" height="732.4%" x="-74.6%" y="-316.2%" filterUnits="objectBoundingBox">
            <feMorphology in="SourceAlpha" operator="dilate" radius=".5" result="shadowSpreadOuter1"/>
            <feOffset in="shadowSpreadOuter1" result="shadowOffsetOuter1"/>
            <feGaussianBlur in="shadowOffsetOuter1" result="shadowBlurOuter1" stdDeviation="5"/>
            <feColorMatrix in="shadowBlurOuter1" values="0 0 0 0 1 0 0 0 0 1 0 0 0 0 1 0 0 0 0.789335664 0"/>
        </filter>
        <filter id="prefix__t" width="249.3%" height="732.4%" x="-74.6%" y="-316.2%" filterUnits="objectBoundingBox">
            <feMorphology in="SourceAlpha" operator="dilate" radius=".5" result="shadowSpreadOuter1"/>
            <feOffset in="shadowSpreadOuter1" result="shadowOffsetOuter1"/>
            <feGaussianBlur in="shadowOffsetOuter1" result="shadowBlurOuter1" stdDeviation="5"/>
            <feColorMatrix in="shadowBlurOuter1" values="0 0 0 0 1 0 0 0 0 1 0 0 0 0 1 0 0 0 0.789335664 0"/>
        </filter>
        <filter id="prefix__v" width="249.3%" height="732.4%" x="-74.6%" y="-316.2%" filterUnits="objectBoundingBox">
            <feMorphology in="SourceAlpha" operator="dilate" radius=".5" result="shadowSpreadOuter1"/>
            <feOffset in="shadowSpreadOuter1" result="shadowOffsetOuter1"/>
            <feGaussianBlur in="shadowOffsetOuter1" result="shadowBlurOuter1" stdDeviation="5"/>
            <feColorMatrix in="shadowBlurOuter1" values="0 0 0 0 1 0 0 0 0 1 0 0 0 0 1 0 0 0 0.789335664 0"/>
        </filter>
        <filter id="prefix__x" width="249.3%" height="732.4%" x="-74.6%" y="-316.2%" filterUnits="objectBoundingBox">
            <feMorphology in="SourceAlpha" operator="dilate" radius=".5" result="shadowSpreadOuter1"/>
            <feOffset in="shadowSpreadOuter1" result="shadowOffsetOuter1"/>
            <feGaussianBlur in="shadowOffsetOuter1" result="shadowBlurOuter1" stdDeviation="5"/>
            <feColorMatrix in="shadowBlurOuter1" values="0 0 0 0 1 0 0 0 0 1 0 0 0 0 1 0 0 0 0.789335664 0"/>
        </filter>
        <filter id="prefix__z" width="249.3%" height="732.4%" x="-74.6%" y="-316.2%" filterUnits="objectBoundingBox">
            <feMorphology in="SourceAlpha" operator="dilate" radius=".5" result="shadowSpreadOuter1"/>
            <feOffset in="shadowSpreadOuter1" result="shadowOffsetOuter1"/>
            <feGaussianBlur in="shadowOffsetOuter1" result="shadowBlurOuter1" stdDeviation="5"/>
            <feColorMatrix in="shadowBlurOuter1" values="0 0 0 0 1 0 0 0 0 1 0 0 0 0 1 0 0 0 0.789335664 0"/>
        </filter>
        <filter id="prefix__B" width="249.3%" height="732.4%" x="-74.6%" y="-316.2%" filterUnits="objectBoundingBox">
            <feMorphology in="SourceAlpha" operator="dilate" radius=".5" result="shadowSpreadOuter1"/>
            <feOffset in="shadowSpreadOuter1" result="shadowOffsetOuter1"/>
            <feGaussianBlur in="shadowOffsetOuter1" result="shadowBlurOuter1" stdDeviation="5"/>
            <feColorMatrix in="shadowBlurOuter1" values="0 0 0 0 1 0 0 0 0 1 0 0 0 0 1 0 0 0 0.789335664 0"/>
        </filter>
        <filter id="prefix__D" width="249.3%" height="732.4%" x="-74.6%" y="-316.2%" filterUnits="objectBoundingBox">
            <feMorphology in="SourceAlpha" operator="dilate" radius=".5" result="shadowSpreadOuter1"/>
            <feOffset in="shadowSpreadOuter1" result="shadowOffsetOuter1"/>
            <feGaussianBlur in="shadowOffsetOuter1" result="shadowBlurOuter1" stdDeviation="5"/>
            <feColorMatrix in="shadowBlurOuter1" values="0 0 0 0 1 0 0 0 0 1 0 0 0 0 1 0 0 0 0.789335664 0"/>
        </filter>
        <linearGradient id="prefix__b" x1="0%" x2="100%" y1="50%" y2="50%">
            <stop offset="0%" stop-color="#F0233D"/>
            <stop offset="100%" stop-color="#FF7979"/>
        </linearGradient>
    </defs>
    <g fill="none" fill-rule="evenodd">
        <g transform="translate(6 7)">
            <mask id="prefix__c" fill="#fff">
                <use xlink:href="#prefix__a"/>
            </mask>
            <path fill="url(#prefix__b)" d="M657.015 169.722l-21.789 17.499H38.48l-21.789-17.499V29.541l23.126-19.086h594.072l23.126 19.086v140.181zM.599 197.012h665.814V.664H.599v196.348z" mask="url(#prefix__c)"/>
        </g>
        <path fill="#1A1A1A" d="M679.12 11.688L679.12 8.315 671.703.914 668.444.914 656.545.914 656.545 6.59 669.348 6.59 673.431 10.665 673.431 23.489 679.12 23.489zM668.347 210.807L671.72 210.807 679.12 203.39 679.12 200.131 679.12 188.232 673.444 188.232 673.444 201.035 669.369 205.118 656.545 205.118 656.545 210.807zM.695 200.034L.695 203.407 8.112 210.807 11.371 210.807 23.27 210.807 23.27 205.131 10.467 205.131 6.384 201.056 6.384 188.232.695 188.232zM11.468.914L8.096.914.695 8.331.695 11.59.695 23.489 6.372 23.489 6.372 10.686 10.446 6.603 23.27 6.603 23.27.914z"/>
        <g opacity=".8">
            <path fill="#000" d="M617.889 0.455L333.489 0.455 23.817 0.455 0.691 19.54 0.691 159.722 22.48 177.221 333.489 177.221 619.226 177.221 641.015 159.722 641.015 19.54z" opacity=".872" transform="translate(22 17)"/>
            <path stroke="#FFF" stroke-width="3" d="M617.889 0.455L333.489 0.455 23.817 0.455 0.691 19.54 0.691 159.722 22.48 177.221 333.489 177.221 619.226 177.221 641.015 159.722 641.015 19.54z" transform="translate(22 17)"/>
        </g>
        <g fill-rule="nonzero">
            <use fill="#000" filter="url(#prefix__d)" xlink:href="#prefix__e"/>
            <use fill="#FFF" xlink:href="#prefix__e"/>
        </g>
        <g fill-rule="nonzero">
            <use fill="#000" filter="url(#prefix__f)" xlink:href="#prefix__g"/>
            <use fill="#FFF" xlink:href="#prefix__g"/>
        </g>
        <g fill-rule="nonzero">
            <use fill="#000" filter="url(#prefix__h)" xlink:href="#prefix__i"/>
            <use fill="#FFF" xlink:href="#prefix__i"/>
        </g>
        <g fill-rule="nonzero">
            <use fill="#000" filter="url(#prefix__j)" xlink:href="#prefix__k"/>
            <use fill="#FFF" xlink:href="#prefix__k"/>
        </g>
        <g fill-rule="nonzero">
            <use fill="#000" filter="url(#prefix__l)" xlink:href="#prefix__m"/>
            <use fill="#FFF" xlink:href="#prefix__m"/>
        </g>
        <g fill-rule="nonzero">
            <use fill="#000" filter="url(#prefix__n)" xlink:href="#prefix__o"/>
            <use fill="#FFF" xlink:href="#prefix__o"/>
        </g>
        <g fill-rule="nonzero">
            <use fill="#000" filter="url(#prefix__p)" xlink:href="#prefix__q"/>
            <use fill="#FFF" xlink:href="#prefix__q"/>
        </g>
        <g fill-rule="nonzero">
            <use fill="#000" filter="url(#prefix__r)" xlink:href="#prefix__s"/>
            <use fill="#FFF" xlink:href="#prefix__s"/>
        </g>
        <g fill-rule="nonzero">
            <use fill="#000" filter="url(#prefix__t)" xlink:href="#prefix__u"/>
            <use fill="#FFF" xlink:href="#prefix__u"/>
        </g>
        <g fill-rule="nonzero">
            <use fill="#000" filter="url(#prefix__v)" xlink:href="#prefix__w"/>
            <use fill="#FFF" xlink:href="#prefix__w"/>
        </g>
        <g fill-rule="nonzero">
            <use fill="#000" filter="url(#prefix__x)" xlink:href="#prefix__y"/>
            <use fill="#FFF" xlink:href="#prefix__y"/>
        </g>
        <g fill-rule="nonzero">
            <use fill="#000" filter="url(#prefix__z)" xlink:href="#prefix__A"/>
            <use fill="#FFF" xlink:href="#prefix__A"/>
        </g>
        <g fill-rule="nonzero">
            <use fill="#000" filter="url(#prefix__B)" xlink:href="#prefix__C"/>
            <use fill="#FFF" xlink:href="#prefix__C"/>
        </g>
        <g fill-rule="nonzero">
            <use fill="#000" filter="url(#prefix__D)" xlink:href="#prefix__E"/>
            <use fill="#FFF" xlink:href="#prefix__E"/>
        </g>
        <path fill="#FFF" d="M557.993 23.489L623.005 23.489 623.005 17.454 557.993 17.454zM110.881 195.169L175.893 195.169 175.893 189.134 110.881 189.134z"/>
        <g transform="translate(94 76)">
            <path fill="#FFF" d="M55.917.78v46.737c0 4.38-.72 6.72-3.18 8.1-2.4 1.44-5.998 1.74-10.799 1.74-.3-2.4-1.44-6.3-2.58-8.76 2.88.12 5.88.12 6.9.12.96 0 1.32-.299 1.32-1.259V.78h8.34zM18 49.736h9.178v-3.06H18v3.06zM23.939 13.5l-3.84-2.4c-.9.84-1.74 1.62-2.64 2.4h6.48zm-10.74 12.18V27.298h12.24v-1.62h-12.24zm12.24 8.04v-1.5h-12.42l-.06 1.5h12.48zm11.46 6.958V12.06l-4.32 7.26c-1.62-1.26-4.02-2.88-6.6-4.5v3.6H13.8v-2.04c-1.68 1.26-3.42 2.4-5.16 3.42H33.3v19.798h-20.94l-.18 1.261h22.56v16.38h-7.56v-1.2h-9.18v1.5h-7.2v-10.02c-.78 3-1.8 5.76-3.18 8.22-1.68-1.08-5.46-2.58-7.619-3.24 4.74-7.92 5.16-19.2 5.16-26.4v-4.38l-.6.3c-.78-1.979-3-6.42-4.44-8.399C7.26 10.8 14.58 5.94 18.6.36l7.98 3.181c-.361.54-.721 1.02-1.08 1.5 4.139 2.34 8.758 4.92 11.398 6.78V6.66h8.16v34.017h-8.16zM120.418 28.379h-5.04v29.038h-8.46V28.379h-4.08c0 8.939-.78 21.659-5.76 29.219-1.38-1.5-4.92-4.2-6.72-5.101 1.02-1.62 1.74-3.42 2.34-5.34l-4.078 2.58c-.96-2.28-2.94-5.94-4.56-8.58l5.58-3.178c1.32 1.92 2.758 4.259 3.84 6.239 1.138-5.28 1.258-11.04 1.258-15.9v-21.9c6.54-1.26 13.56-3.3 18-5.458l6.6 6.42c-4.92 1.979-10.86 3.539-16.5 4.619v8.34h17.58v8.04zm-45.539-14.88c.6 1.68 1.26 3.66 1.5 4.98l-4.32 1.2h7.92c.72-1.86 1.62-4.26 2.1-6.18h-7.2zm8.76 24.179v19.5h-8.46v-19.5H64.44v-7.26h10.74v-3.66H64.02v-7.08h5.1c-.3-1.5-.9-3.54-1.38-5.04l4.68-1.14h-7.44V6.48h9.48c-.42-1.5-.9-3.06-1.38-4.38L81.84 0c.78 1.98 1.74 4.44 2.4 6.48h8.038v7.019H85.56l4.56.84c-.9 1.98-1.68 3.78-2.4 5.34h5.52v7.08h-9.6v3.66h8.4v7.259h-8.4zm-9 3.18c-1.56 4.2-4.08 9.299-6.06 12.48-1.26-1.08-4.018-3-5.64-3.9 1.92-2.76 3.9-6.96 5.1-10.56l6.6 1.98zM159.659 38.698v10.02h5.7l-3.24-1.32c1.5-2.34 3.24-5.82 4.38-8.7h-6.84zm3.48-20.939c-2.82-1.8-5.46-3.78-7.86-5.82-2.22 2.16-4.68 4.08-7.26 5.82h15.12zm-19.86 20.94c1.86 2.64 3.66 5.818 4.44 8.1l-4.38 1.92h6.9v-10.02h-6.96zm16.38-12.96v5.16h18.239v7.8h-7.32l4.74 1.68c-1.92 3-3.9 6-5.58 8.34h11.58v7.918H128.88v-7.919h10.86c-1.02-2.58-2.76-5.94-4.5-8.52l3.6-1.5h-6.9v-7.8h18.299v-5.16h-11.76v-2.76c-2.16.96-4.44 1.861-6.72 2.64-1.2-2.52-3.6-5.879-5.82-8.1C137.34 14.46 148.08 8.94 153.78 0l8.28 3.66c-.54.84-1.14 1.68-1.68 2.46 5.82 4.8 15.179 9.18 24.119 11.46-1.98 1.858-4.68 5.398-6 7.618-2.46-.84-4.92-1.8-7.32-2.939v3.48h-11.52z"/>
            <mask id="prefix__G" fill="#fff">
                <use xlink:href="#prefix__F"/>
            </mask>
            <path fill="#FFF" d="M235.618 30.359h2.28v-11.22h-2.28v11.22zm-8.4 0h2.4v-11.22h-2.4v11.22zm13.2 27.298c-.12-1.32-.36-2.88-.66-4.62-6.18 1.26-12.48 2.4-17.579 3.3l-1.68-7.8c2.399-.3 5.279-.66 8.399-1.14v-9.66h-7.679V11.82h7.679v-9.96h7.5v9.96h7.8v25.919h-7.86v8.58l2.04-.36c-.42-1.8-.78-3.6-1.2-5.22l5.76-1.2c1.44 5.34 3.06 12.42 3.66 16.56l-6.18 1.559zM200.22 19.379h10.139v-2.22H200.22v2.22zm7.739 26.819v9.24h-6v-9.24h-3.299v-5.1h5.819c1.08-2.4 2.28-5.58 2.88-7.86l5.16 1.98c-1.02 1.92-2.1 4.02-3.06 5.88h1.92v5.1h-3.42zm-5.64-12.54c1.14 1.74 2.221 4.14 2.64 5.7l-4.56 1.74c-.359-1.62-1.379-4.08-2.399-5.94l4.319-1.5zm-9.359-8.58h25.139v-13.62H192.96v13.62zm26.519 24.659c0 2.94-.42 4.74-2.22 5.82-1.74 1.02-3.96 1.14-6.84 1.14-.18-1.92-.96-4.62-1.74-6.42 1.26.06 2.76.06 3.24.06.48 0 .66-.18.66-.72v-16.8H197.52v24.9h-6.54V26.52h28.499v23.218zM190.02 10.02h30.839V2.76H190.02v7.26zM256.2 7.38L266.94 7.38 266.94 43.018 284.279 43.018 284.279 52.018 256.2 52.018zM311.638 41.878v-5.46c-6.66.9-8.82 2.82-8.82 5.22 0 1.98 1.44 2.94 3.66 2.94 2.16 0 3.6-1.02 5.16-2.7m-18.959.6c0-7.2 5.64-11.1 18.96-12.539-.24-2.76-1.68-4.38-5.16-4.38-2.7 0-5.52 1.08-8.94 3l-3.72-7.02c4.5-2.7 9.36-4.5 14.7-4.5 8.82 0 13.798 4.92 13.798 15.6v19.379h-8.7l-.779-3.42h-.24c-2.82 2.519-6 4.259-9.78 4.259-6.3 0-10.139-4.679-10.139-10.379M355.137 34.559c0-6-1.74-8.82-5.52-8.82-1.98 0-3.6.9-5.459 2.88v13.5c1.68 1.5 3.48 1.979 5.1 1.979 3.24 0 5.88-2.7 5.88-9.54m-12.18 13.8h-.24l-.84 3.66h-8.34V4.08h10.62v11.519l-.24 5.1c2.52-2.28 5.7-3.66 8.82-3.66 8.16 0 13.378 6.84 13.378 17.28 0 11.819-7.019 18.539-14.339 18.539-3 0-6.119-1.5-8.82-4.5M402.657 26.938h13.499v-1.44h-13.499v1.44zm0-4.86h13.499v-1.38h-13.499v1.38zm0-4.8h13.499v-1.32h-13.499v1.32zm2.28-6.24h-14.34V5.34h7.92c-.48-1.2-1.08-2.46-1.62-3.54l6.899-1.62c.96 1.559 2.04 3.54 2.641 5.16h6.419c.84-1.62 1.68-3.481 2.16-4.92l8.22 1.2c-.84 1.38-1.68 2.64-2.4 3.72h8.16v5.699h-16.2l-.66 1.32h12.42v18.12h-29.939v-18.12h10.079l.241-1.32zm11.819 28.86h12.539v6.48h-12.539v4.44c0 3.719-.66 5.7-3.42 6.839-2.64 1.08-5.94 1.14-10.14 1.14-.36-2.28-1.559-5.4-2.639-7.5 2.4.18 5.759.18 6.599.12.9 0 1.2-.18 1.2-.84v-4.2h-15.239c1.92 1.5 3.84 3.12 4.98 4.44l-6.36 5.28c-1.44-1.98-4.86-5.04-7.5-7.08l3.24-2.64h-13.319V39.9h34.198v-1.201h-1.08c-7.02 0-12.059-.54-16.199-2.52-2.34-1.14-4.08-2.46-5.4-2.46-1.8 0-4.86 3.12-7.32 6l-4.379-6.96c1.5-1.2 3.18-2.34 4.799-3.3 1.5-1.62 2.94-3.78 4.02-6.06h-8.4c1.321-2.34 2.82-5.34 4.201-8.338h-4.92V8.999h5.099c-.54-1.8-1.44-4.2-1.98-6.06l7.2-2.22c.78 2.04 1.86 4.8 2.46 6.54L381.538 9h7.739c-1.26 2.7-2.64 5.64-3.96 8.34h1.86l1.14-.36 4.02 1.56c-.96 3.3-2.4 6.48-4.14 9.3 1.02.479 2.22 1.14 3.84 1.92 3.78 1.8 9.299 2.04 15.42 2.04 5.999 0 16.739-.481 23.158-1.5-.84 2.1-2.039 5.699-2.099 7.739-2.82.18-7.26.42-11.76.54v1.32zM483.356 21.839h1.68v-2.22h-1.68v2.22zm-5.64 0h1.68v-2.22h-1.68v2.22zm-5.58 0h1.62v-2.22h-1.62v2.22zm-5.579 3.78h24.359v-9.72h-24.359v9.72zm-13.08 17.819h22.079v-1.44h-22.079v1.44zm0-5.4h22.079v-1.44h-22.079v1.44zm0-5.4h22.079v-1.44h-22.079v1.44zm-7.08-11.64h3.12v-1.92h-3.12v1.92zm0-6.18h9.54v-1.74h-9.54v1.74zm0-6.058h3.12V7.14h-3.12v1.62zm18.24 16.919h-25.559V2.399h25.019v4.74h-7.86v1.62h6.96v.36c3.119-2.46 5.099-5.46 6.179-8.28l7.38 1.2c-.18.54-.42 1.02-.66 1.56h15.719v5.22h-18.599c-.24.42-.6.84-.9 1.26h16.919v4.62h-18.959v-2.22c-.779.78-1.62 1.56-2.52 2.28-1.02-1.32-2.94-3.12-4.559-4.26v8.58h-6.96v1.92h8.4v4.68zm19.079 25.018c1.74 0 2.1-.6 2.4-3.96 1.62 1.08 4.92 2.16 7.079 2.52-.84 6.18-2.94 7.86-8.579 7.86h-8.1c-7.979 0-9.959-1.92-9.959-8.04v-1.44h-5.34c-1.74 5.76-6.18 8.7-21.599 10.08-.48-1.92-2.281-4.98-3.66-6.6 11.279-.42 14.879-1.32 16.379-3.48h-7.08V27h38.939v20.639h-9.12v1.38c0 1.559.42 1.679 2.64 1.679h6z" mask="url(#prefix__G)"/>
        </g>
    </g>
</svg>
