<svg xmlns="http://www.w3.org/2000/svg" xmlns:xlink="http://www.w3.org/1999/xlink" width="3840" height="903" viewBox="0 0 3840 903">
    <defs>
        <path id="prefix__a" d="M0 0H3840V904H0z"/>
        <path id="prefix__c" d="M441.268.703C197.486 1.185 0 198.957 0 442.851c0 211.67 148.739 388.597 347.401 431.972 54.365 182.622 223.545 315.79 423.829 315.79 97.708 0 188.01-31.698 261.194-85.365 37.716 14.496 78.671 22.462 121.492 22.462 187.1 0 338.775-151.676 338.775-338.776 0-187.101-151.675-338.776-338.775-338.776-17.909 0-35.49 1.401-52.648 4.079-60.904-68.269-142.67-117.522-235.29-137.745C811.688 134.126 642.915 1.076 443 .703h-1.732z"/>
        <path id="prefix__f" d="M826.449 80.965c-11.13 10.615-21.225 21.905-30.302 33.74-78.313-6.33-158.32 11.522-227.867 53.85-142.028-81.272-326.096-63.76-450.567 54.948-151.759 144.732-157.455 385.086-12.724 536.845C179.525 838.502 279.421 877.918 379.516 878h.569c68.198-.043 136.452-18.346 196.834-55.097 142.027 81.273 326.096 63.76 450.567-54.948 60.723-57.91 98.056-131.132 111.73-207.86 32.031-13.345 62.205-32.669 88.817-58.048 116.278-110.895 120.643-295.055 9.748-411.333C1180.615 30.772 1103.968.571 1027.198.568 955.045.565 882.786 27.237 826.449 80.965"/>
        <linearGradient id="prefix__d" x1="74.24%" x2="26.156%" y1="34.962%" y2="63.099%">
            <stop offset="0%" stop-color="#FFF" stop-opacity="0"/>
            <stop offset="16.166%" stop-color="#FFF" stop-opacity=".021"/>
            <stop offset="100%" stop-color="#FFF"/>
        </linearGradient>
        <linearGradient id="prefix__g" x1="114.527%" x2="15.471%" y1="13.304%" y2="143.19%">
            <stop offset="0%" stop-color="#FFF" stop-opacity="0"/>
            <stop offset="100%" stop-color="#FFF"/>
        </linearGradient>
    </defs>
    <g fill="none" fill-rule="evenodd">
        <mask id="prefix__b" fill="#fff">
            <use xlink:href="#prefix__a"/>
        </mask>
        <g mask="url(#prefix__b)">
            <g transform="translate(-257 119)">
                <mask id="prefix__e" fill="#fff">
                    <use xlink:href="#prefix__c"/>
                </mask>
                <path fill="url(#prefix__d)" d="M441.268 90C197.486 90.482 0 288.254 0 532.148c0 211.67 148.739 388.597 347.401 431.972 54.365 182.622 223.545 315.79 423.829 315.79 97.708 0 188.01-31.698 261.194-85.365 37.716 14.496 78.671 22.462 121.492 22.462 187.1 0 338.775-151.676 338.775-338.776 0-187.101-151.675-338.776-338.775-338.776-17.909 0-35.49 1.401-52.648 4.079-60.904-68.269-142.67-117.522-235.29-137.745C811.688 223.423 642.915 90.373 443 90h-1.732z" mask="url(#prefix__e)"/>
                <g transform="translate(869 454)">
                    <mask id="prefix__h" fill="#fff">
                        <use xlink:href="#prefix__f"/>
                    </mask>
                    <path fill="url(#prefix__g)" d="M826.449 80.965c-11.13 10.615-21.225 21.905-30.302 33.74-78.313-6.33-158.32 11.522-227.867 53.85-142.028-81.272-326.096-63.76-450.567 54.948-151.759 144.732-157.455 385.086-12.724 536.845C179.525 838.502 279.421 877.918 379.516 878h.569c68.198-.043 136.452-18.346 196.834-55.097 142.027 81.273 326.096 63.76 450.567-54.948 60.723-57.91 98.056-131.132 111.73-207.86 32.031-13.345 62.205-32.669 88.817-58.048 116.278-110.895 120.643-295.055 9.748-411.333C1180.615 30.772 1103.968.571 1027.198.568 955.045.565 882.786 27.237 826.449 80.965" mask="url(#prefix__h)"/>
                </g>
            </g>
        </g>
        <g mask="url(#prefix__b)">
            <g>
                <path fill="url(#prefix__d)" d="M460.674 0C206.553.502.691 206.6.691 460.76c0 220.58 155.047 404.956 362.135 450.157C419.497 1101.227 595.852 1240 804.631 1240c101.852 0 195.984-33.032 272.272-88.958 39.315 15.106 82.007 23.407 126.645 23.407 195.035 0 353.143-158.06 353.143-353.037 0-194.977-158.108-353.037-353.143-353.037-18.669 0-36.996 1.46-54.881 4.25-63.487-71.142-148.721-122.468-245.27-143.543C846.805 139.04 670.874.39 462.48 0h-1.806z" transform="matrix(-1 0 0 1 4217 0)"/>
                <path fill="url(#prefix__g)" d="M1602.911 574.32c-11.13 10.615-21.225 21.905-30.302 33.74-78.313-6.33-158.32 11.522-227.867 53.85-142.028-81.272-326.096-63.76-450.567 54.948-151.759 144.732-157.455 385.086-12.724 536.845 74.536 78.154 174.432 117.57 274.527 117.652h.57c68.197-.043 136.451-18.346 196.833-55.097 142.027 81.273 326.096 63.76 450.567-54.948 60.723-57.91 98.056-131.132 111.73-207.86 32.031-13.345 62.205-32.67 88.817-58.048 116.278-110.895 120.643-295.055 9.748-411.333-57.166-59.942-133.813-90.143-210.583-90.146-72.153-.003-144.412 26.669-200.749 80.397" transform="matrix(-1 0 0 1 4217 0) rotate(27 1435.582 932.639)"/>
            </g>
        </g>
    </g>
</svg>
