<svg width="260px" height="308px" viewBox="0 0 260 308" version="1.1" xmlns="http://www.w3.org/2000/svg" xmlns:xlink="http://www.w3.org/1999/xlink">
    <defs>
        <polygon id="path-1" points="0 308 260 308 260 0 0 0"></polygon>
    </defs>
    <g id="design" stroke="none" stroke-width="1" fill="none" fill-rule="evenodd">
        <g id="img/mainpage/btn-pic/lntroduction">
            <path d="M139.130443,259.121374 L138.60588,259.008041 C137.981211,256.720066 137.356541,254.432091 136.731872,252.14545 L136.669138,251.317459 C139.189172,250.624133 141.586408,249.584144 143.688661,248.036161 L143.318932,247.825497 C142.153683,242.472222 140.298361,233.909649 142.966554,226.227066 C147.164387,235.482965 147.761026,235.334966 152.80243,241.282901 C153.252245,241.936228 153.686043,242.598887 154.141198,243.25088 L153.204194,241.76023 C153.768799,242.429556 154.386794,243.176214 155.067524,244.016205 C155.39988,243.426878 155.765606,242.841551 156.117983,242.254891 C157.255202,243.769541 158.444477,245.226858 159.661781,246.576177 C159.276035,246.832174 158.971709,247.210837 158.82355,247.680165 C158.577953,248.446823 156.570468,248.881485 154.253318,249.160149 C152.057631,249.418813 149.572301,249.71481 147.446022,250.874797 C147.421996,250.88813 147.066949,251.096128 147.041588,251.110794 C145.19294,252.221449 142.094953,254.078762 141.43558,257.402726 C141.192653,258.617379 141.32079,259.882699 141.789292,261.185351 C141.145936,261.580013 140.493237,261.88401 139.835198,262.109341 C139.404069,260.280028 139.130443,259.121374 139.130443,259.121374 Z M66.635409,162.605093 C66.6060442,161.822435 66.5833532,161.03311 66.5379712,160.246452 C67.9434777,162.041099 69.3983704,163.803747 70.9413575,165.499728 C70.1057952,166.526384 69.2582201,167.541039 68.4119798,168.557028 L67.0959026,166.718381 C66.7902416,165.382396 66.6874648,163.977078 66.635409,162.605093 Z M251.77918,60.9448684 C252.362472,53.8156128 251.815218,50.1983189 249.838433,48.0476757 C247.797579,45.8276999 244.801034,45.8183667 240.996957,45.8077002 C235.791377,45.790367 228.643716,45.7743672 219.209605,40.3890926 C206.012794,32.8638413 187.865343,26.7212417 173.074824,22.469288 C173.736867,20.4039772 173.672799,18.4626651 172.845245,16.6746846 C170.357245,11.3080764 162.072365,9.8440924 161.061949,9.68409414 C130.776155,6.1121331 109.920469,17.4360096 102.097417,22.6852857 C101.530143,22.9212831 100.965537,23.1666138 100.402267,23.4132777 C99.3851769,21.7266295 98.0077005,20.5719754 96.2765117,19.9799818 C90.6865204,18.0680027 83.8899024,23.0292819 83.0716921,23.6492752 C57.6043962,44.6437128 52.3974821,69.7487724 51.3843963,77.2033577 C51.3643748,77.2660237 51.3416838,77.3286897 51.3216624,77.392689 C49.6865766,77.2500239 48.174289,77.5553539 46.8101603,78.3460119 C41.683332,81.3126462 40.9825809,89.6885549 40.914508,90.7085438 C40.0802805,122.852193 54.0112117,142.923974 59.0392675,149.09324 C59.4663919,149.839899 59.884173,150.591891 60.3313189,151.325216 C60.1124177,151.323883 59.8921816,151.318549 59.669276,151.353216 C58.6655336,151.505214 57.797937,152.042541 57.1278855,152.7852 L19.3313751,99.9471097 C17.5080876,97.4004708 13.9309203,96.8058106 11.3801864,98.6257907 C8.8294525,100.445771 8.23414779,104.020399 10.0561006,106.568371 L42.0690788,151.319883 C41.1694479,151.227884 40.2885037,151.383882 39.506332,151.91321 C37.2545853,153.43586 37.5175338,156.805156 38.2836883,159.410461 C40.8838084,168.243698 46.3336496,176.060946 52.9834435,182.435543 C53.5480486,182.978204 54.1780572,183.516865 54.852113,183.93286 C53.8657224,184.990182 52.8860057,186.054171 51.8862675,187.099492 C59.1180185,189.979461 66.1161858,193.439423 72.792675,197.43938 C73.3145677,197.75271 73.8698295,198.108706 74.0807222,198.679366 C74.3143059,199.316693 74.0500227,200.018018 73.7870742,200.644678 C69.9055807,209.900577 66.0240871,219.156476 62.1425936,228.413709 C61.9010013,228.989702 61.6607438,229.664362 61.9583962,230.213689 C62.1586108,230.588351 62.5577052,230.801682 62.9354434,230.99368 C63.6028254,231.336343 64.2688726,231.677673 64.9362545,232.019003 C61.2629842,245.132193 57.3134177,258.166717 53.0675336,271.105243 C53.5160143,271.181242 53.9778426,271.258575 54.4356666,271.334574 C53.0782117,274.870535 51.8475594,278.491829 50.8678426,282.081123 C50.7664006,282.454452 50.7704049,282.857115 50.882525,283.227777 C51.1000916,283.951769 53.3531731,290.227701 66.9811129,294.214324 C67.4509498,294.352989 67.9381386,294.486321 68.4373403,294.619653 C76.8009711,296.832962 82.3963016,296.836962 86.0428766,294.628986 C88.2398981,293.298334 89.6854474,291.167691 90.3341427,288.297055 C90.982838,285.447753 92.2562028,279.602484 93.408104,274.277208 C95.675868,268.214608 98.5656319,261.324016 100.136649,256.186739 C100.774666,264.345317 102.412422,272.423895 104.988516,280.193144 C105.240786,285.226422 105.739988,290.406366 106.622267,295.338312 C106.68767,295.724974 106.863859,296.083637 107.125473,296.370301 C107.652705,296.954294 112.698112,301.96224 127.871709,299.147604 C136.379494,297.566288 141.434245,295.175647 143.78343,291.617019 C144.218563,290.957026 144.558928,290.257034 144.801855,289.515709 C145.339764,287.870393 145.389151,286.039747 144.942005,284.051768 C144.809863,283.457108 144.644352,282.727783 144.457485,281.905125 C144.588292,281.898459 144.719099,281.882459 144.851241,281.878459 C143.967627,278.646494 143.084013,275.413196 142.201734,272.178565 C141.71588,270.10392 141.232696,268.04261 140.796228,266.187963 C141.657151,265.923966 142.512734,265.573303 143.356305,265.113308 C143.540503,265.011976 143.720696,264.883977 143.904893,264.771979 C146.687876,268.087942 150.383837,268.719936 154.386794,266.537293 L154.386794,266.537293 C158.959696,264.039987 162.620953,258.48938 162.771781,258.254716 C163.198906,257.602723 163.226936,256.769399 162.849198,256.093407 C162.507498,255.48008 161.87749,255.082751 161.186082,255.029418 C162.133764,252.982774 162.566228,250.957463 162.758434,249.701476 C163.846266,250.685466 164.932764,251.545456 166.00191,252.246782 C166.176764,252.441446 166.338271,252.637444 166.531811,252.832109 C169.037163,255.345415 173.074824,257.590724 177.216597,254.880087 C177.535605,254.673422 177.783871,254.418758 178.001438,254.148095 C178.46994,254.221427 178.94912,254.25876 179.43364,254.241427 C181.349026,254.170761 183.066867,253.296104 184.398961,251.717454 C185.704361,250.169471 185.696352,248.680154 185.457429,247.701498 C185.438743,247.624166 185.408043,247.550833 185.386687,247.476167 C185.668322,247.453501 185.949957,247.418835 186.232927,247.358835 C188.038863,246.978839 189.520451,245.842852 190.510846,244.084204 C191.44785,242.434889 191.593339,240.697575 190.932631,239.046926 C189.653927,235.845627 185.541519,233.702984 182.897352,232.613663 C183.755605,231.192345 184.192073,229.369698 183.304455,227.347053 C182.071133,224.503084 178.779605,224.208421 176.210185,224.467085 C175.677614,223.916424 175.1357,223.361764 174.589781,222.804436 C174.276112,222.483107 173.961108,222.161777 173.646103,221.839114 C174.063884,221.503117 174.472322,221.147121 174.894108,220.823125 C169.757936,215.428517 166.562511,208.528592 163.456515,201.760666 C163.189563,201.179339 162.92261,200.596679 162.654322,200.014018 C166.461069,199.522024 170.430657,198.787365 174.561751,197.73671 C175.470726,197.463379 183.495326,194.922074 185.250541,189.270135 C185.664318,187.93415 185.692348,186.572832 185.345309,185.19418 C185.948622,184.866183 186.542592,184.522187 187.137897,184.179524 C195.000991,181.276889 218.774472,170.391675 234.341824,140.568 C234.762274,139.68001 238.335437,131.748096 235.196073,126.505487 C234.142944,124.745506 232.49718,123.556186 230.313506,122.928192 C230.328189,122.845527 230.341536,122.762861 230.356219,122.681528 C244.022866,107.200364 250.998343,70.4234317 251.77918,60.9448684 Z" id="Stroke-1" stroke="#FFFFFF" stroke-width="13"></path>
            <path d="M142.599252,264.212894 C143.510801,263.701014 144.406098,263.06951 145.270242,262.293344 C146.156057,261.501877 146.246805,260.124809 145.480182,259.217891 C144.710851,258.309582 143.360457,258.216387 142.486832,259.003681 C135.505958,265.247781 126.474436,258.500146 126.387751,258.427816 C125.445049,257.714244 124.124453,257.911763 123.416071,258.882665 C122.71988,259.849395 122.917631,261.213945 123.857624,261.93169 C127.469962,264.680262 135.51273,268.186918 142.599252,264.212894" id="Fill-3" fill="#694336"></path>
            <path d="M144.767754,263.155002 C140.398793,257.196719 145.172742,254.355501 147.875389,252.714215 C152.232078,250.04816 159.519135,252.061838 160.790006,248 C160.790006,248 160.451834,253.674161 157.171023,257.209132 L161,257.104311 C161,257.104311 151.328014,272.096563 144.767754,263.155002" id="Fill-5" fill="#B62823"></path>
            <path d="M155.825812,257.521478 C155.459705,256.773381 155.620229,255.896929 156.22853,255.296637 C157.070578,254.475935 157.688736,253.482795 158.140738,252.496138 C157.200123,252.671169 156.200368,252.778781 155.175267,252.892875 C153.172941,253.113285 151.104434,253.338881 149.344301,254.223112 C149.337261,254.228298 149.327404,254.233484 149.317547,254.237374 C147.822139,255.064558 145.771937,256.197723 145.456521,257.661503 C145.260795,258.570368 145.714205,259.716498 146.804079,261.068776 C148.441706,263.101731 150.199022,263.436235 152.677288,262.190272 C154.369831,261.338454 155.975071,259.94339 157.245183,258.646863 C156.624208,258.486094 156.097577,258.081577 155.825812,257.521478 M143.258468,263.489392 C141.396953,261.177684 140.681635,258.951547 141.129413,256.873214 C141.826425,253.640972 145.09323,251.834909 147.044865,250.754902 C147.071619,250.741937 147.446175,250.538382 147.471521,250.525417 C149.714633,249.397438 152.336526,249.110905 154.65286,248.858083 C157.097332,248.587108 159.215123,248.16444 159.474214,247.418937 C159.806527,246.443949 160.879504,245.850139 161.979234,246.03295 C163.073332,246.21965 163.847791,247.128515 163.780202,248.151475 C163.770345,248.329099 163.54364,251.42391 161.966561,254.565395 C162.69596,254.617257 163.360586,255.003622 163.721061,255.600024 C164.119555,256.257364 164.089985,257.067693 163.639391,257.701695 C163.480275,257.929884 159.617841,263.328623 154.793671,265.755722 L154.793671,265.755722 C150.338424,267.996121 146.240836,267.193571 143.258468,263.489392" id="Fill-7" fill="#694336"></path>
            <path d="M70.8754616,242 C70.8754616,242 57.4396915,263.454284 52,283.386835 C52,283.386835 53.8703964,289.622455 68.1462371,293.404014 C80.9509493,296.793083 86.189667,294.593537 87.5428908,288.615111 C88.9054933,282.635346 93,263.501168 93,263.501168" id="Fill-9" fill="#FFFFFF"></path>
            <path d="M67.1921802,293.929551 C53.5600752,289.939506 51.3060843,283.65475 51.0870947,282.929894 C50.9749293,282.556119 50.9722587,282.155646 51.0724064,281.780537 C56.5124294,261.846328 69.5756955,240.86021 70.1285108,239.975165 C70.7480912,238.999346 72.0513466,238.71234 73.0140998,239.31305 C73.994212,239.927108 74.2906492,241.219301 73.6790806,242.19779 C73.5455503,242.406036 60.7159623,263.022384 55.3159983,282.146302 C56.0904738,283.449174 59.2164174,287.519314 69.7212435,290.289252 C76.7182294,292.142107 81.5546957,292.300961 84.0931061,290.76181 C85.3135727,290.026275 86.0706893,288.851554 86.4739508,287.078794 C87.8279477,281.122426 91.905962,262.075932 91.905962,262.075932 L96,262.948964 C96,262.948964 91.9126385,282.038174 90.555971,288.005221 C89.9056786,290.880617 88.4595458,293.012468 86.2616376,294.344708 C82.6135907,296.555319 77.0160019,296.551314 68.6489954,294.335364 C68.1495922,294.201873 67.663542,294.068382 67.1921802,293.929551" id="Fill-11" fill="#694336"></path>
            <path d="M108.113207,249 C108.113207,249 105.203417,273.917198 108.792643,294.075557 C108.792643,294.075557 113.105013,298.860944 127.456621,296.188826 C140.326183,293.786177 144.074342,289.592824 142.74858,283.661865 C141.433413,277.726923 136.987275,258.864136 136.987275,258.864136" id="Fill-13" fill="#FFFFFF"></path>
            <path d="M143.551349,290.394382 C144.096257,288.731378 144.146286,286.879549 143.693322,284.867219 C142.35201,278.838323 137.806152,259.648358 137.806152,259.648358 L132.243493,258.446625 C132.243493,258.446625 138.215847,279.76626 139.554455,285.792459 C139.954685,287.590339 139.777556,288.967409 138.9798,290.196117 C137.326146,292.695344 132.833021,294.645631 125.628877,295.986285 C114.910549,297.970291 110.23759,295.661237 108.912504,294.772414 C105.555167,274.976861 108.341905,250.60771 108.371652,250.360889 C108.508217,249.19827 107.675306,248.150294 106.513827,248.014071 C105.348291,247.879196 104.289574,248.730255 104.162474,249.867248 C104.040782,250.915224 101.198607,275.734857 104.875046,296.284358 C104.9413,296.675495 105.119781,297.038308 105.384799,297.329637 C105.91889,297.919039 111.029938,302.984931 126.400943,300.137727 C135.019414,298.538114 140.139927,296.119811 142.519674,292.520007 C142.960468,291.852377 143.305261,291.144285 143.551349,290.394382" id="Fill-15" fill="#694336"></path>
            <mask id="mask-2" fill="white">
                <use xlink:href="#path-1"></use>
            </mask>
            <g id="Clip-18"></g>
            <polygon id="Fill-17" fill="#FFFFFF" mask="url(#mask-2)" points="84 249 125 249 125 180 84 180"></polygon>
            <path d="M72.6032365,183.946019 L72.6032365,183.946019 C70.0347377,185.764315 66.4326567,185.170205 64.5966706,182.624592 L10.0641211,106.990167 C8.22813501,104.443222 8.82892987,100.873235 11.3960846,99.0536078 C13.9659275,97.2353125 17.5680085,97.8307543 19.4039946,100.375036 L73.9365441,176.010792 C75.7711861,178.555074 75.1717353,182.126392 72.6032365,183.946019" id="Fill-19" fill="#F7B62D" mask="url(#mask-2)"></path>
            <path d="M72.6032365,183.946019 L72.6032365,183.946019 C70.0347377,185.764315 66.4326567,185.170205 64.5966706,182.624592 L10.0641211,106.990167 C8.22813501,104.443222 8.82892987,100.873235 11.3960846,99.0536078 C13.9659275,97.2353125 17.5680085,97.8307543 19.4039946,100.375036 L73.9365441,176.010792 C75.7711861,178.555074 75.1717353,182.126392 72.6032365,183.946019 Z" id="Stroke-20" stroke="#694336" stroke-width="4" mask="url(#mask-2)"></path>
            <path d="M135.861497,252.187068 C138.574777,261.975713 141.28672,271.763041 144,281.551686 C141.467338,281.62674 138.964109,282.071799 136.459543,282.447069 C126.188413,283.988972 115.73934,284.385311 105.37857,283.624235 C102.017742,274.821828 99.9239137,265.553296 99.1800361,256.178107 C97.0420569,263.068607 92.4597173,273.157469 90.3217381,280.046652 C79.2719446,274.991688 64.0104124,272.92704 52,270.912427 C56.5087546,257.37239 60.6977488,243.730964 64.5616311,230 L96.7878541,239.807079 L135.187191,243.403096 L135.861497,252.187068 Z" id="Fill-21" fill="#226E9D" mask="url(#mask-2)"></path>
            <path d="M132.39472,251.977779 C135.088789,261.994164 137.78153,272.01055 140.475599,282.026936 C141.542333,280.605455 142.610396,279.183974 143.678459,277.762494 C140.433089,277.901273 137.240856,278.530498 134.032682,278.9913 C130.922812,279.437281 127.790359,279.74583 124.656578,279.960062 C118.220303,280.395265 111.762774,280.354843 105.329156,279.883262 C106.397219,280.707856 107.463953,281.532449 108.532016,282.357042 C105.321185,273.609884 103.240854,264.474682 102.496929,255.167015 C102.200688,251.460387 97.1247323,250.497014 95.9729779,254.272359 C93.4462918,262.558715 89.7054147,270.409869 87.1774002,278.696225 L92.0567472,276.683246 C79.8470878,271.002714 66.3329038,269.256516 53.2132654,266.99562 C53.9864154,268.37668 54.7595654,269.756392 55.5327155,271.138798 C60.0042326,257.283742 64.1635671,243.324937 68.0040769,229.274511 C66.6424295,230.058683 65.2807821,230.842855 63.9191348,231.627027 C73.8146579,234.731379 83.710181,237.834384 93.6057041,240.938736 C96.2426505,241.764677 98.7573807,241.972172 101.511229,242.237605 C107.931563,242.857398 114.351896,243.47719 120.77223,244.096983 L134.928048,245.463221 C133.820132,244.33951 132.713545,243.217147 131.606957,242.094783 L132.276489,251.083122 C132.41199,252.896689 133.705887,254.451559 135.59758,254.451559 C137.290008,254.451559 139.054172,252.90612 138.918671,251.083122 L138.24914,242.094783 C138.103011,240.143785 136.835683,238.910936 134.928048,238.726346 C124.479896,237.717162 114.031743,236.709326 103.584919,235.701489 C101.592264,235.508815 99.6022663,235.317487 97.61094,235.124813 C97.4116746,235.105949 97.2110807,235.079002 97.0104868,235.066876 C96.3808079,235.026454 97.6468078,235.139634 97.6667344,235.162539 C97.4887239,234.960433 96.7501132,234.874201 96.5083378,234.798748 L80.1074614,229.655818 C75.2998498,228.146758 70.4922383,226.639045 65.6846268,225.131333 C63.9682869,224.59373 62.0686228,225.771336 61.5996847,227.483849 C57.7578465,241.534275 53.5998404,255.491733 49.1269949,269.348137 C48.6089047,270.952861 49.7340903,273.19624 51.4464449,273.491315 C63.8978798,275.639031 77.1091803,277.106322 88.7037736,282.499864 C90.6751733,283.417427 92.9016328,282.718139 93.5831207,280.486886 C96.1098068,272.20053 99.8506839,264.350723 102.378698,256.06302 C100.204048,255.76525 98.0293975,255.466133 95.8547471,255.167015 C96.6478236,265.082348 98.7042432,274.822522 102.127624,284.147704 C102.676268,285.644637 103.756287,286.50561 105.329156,286.620137 C111.762774,287.091718 118.220303,287.132139 124.656578,286.696937 C127.956414,286.473273 131.244294,286.117566 134.520218,285.666195 C137.570308,285.245814 140.596487,284.631411 143.678459,284.499369 C145.819899,284.407747 147.46716,282.420369 146.879991,280.236274 C144.185922,270.219889 141.493181,260.202156 138.799112,250.187118 C137.676583,246.008908 131.266878,247.783401 132.39472,251.977779" id="Fill-22" fill="#694336" mask="url(#mask-2)"></path>
            <path d="M81.416711,230 C91.7261669,232.8638 103.336304,235.178879 114,236.306369 C113.440247,238.634513 113.234734,239.614371 113.390221,242 C109.816727,241.828851 106.201319,241.649864 102.7752,240.651715 C101.247372,240.206206 99.8087804,239.9227 98.240391,239.636581 C96.9843275,239.406641 95.6566047,239.068263 94.3816123,238.97681 C92.0506613,238.810887 89.7481034,238.400653 87.4482497,237.989113 C84.3182313,237.42994 81.0665275,236.823734 78.5043742,234.993359 C78.3218461,234.864017 78.1352618,234.717692 78.0514341,234.512575 C77.9621982,234.294393 78.0054641,234.047469 78.0581944,233.817529 C78.6165951,231.380947 79.2966812,231.425367 81.416711,230" id="Fill-23" fill="#694336" mask="url(#mask-2)"></path>
            <path d="M81.7820721,232.169974 C92.3329577,235.349901 103.12609,237.66611 114.035079,238.947801 C113.399182,238.068808 112.764601,237.189815 112.130021,236.310822 C111.648161,238.522885 111.351936,240.64191 111.466477,242.915072 L113.441312,240.832151 C109.785234,240.640522 106.341121,240.235046 102.802217,239.226912 C99.6016674,238.31737 96.3550385,237.868847 93.0807619,237.423102 C89.8670469,236.985689 86.4242511,236.452461 83.3645733,235.288802 C82.7945042,235.073567 81.7188774,234.175133 81.1461752,234.154304 C80.885497,233.88769 80.8130864,233.965452 80.9289434,234.387591 C80.9105116,234.852777 80.932893,234.89999 80.9960878,234.530618 C81.12906,234.287611 81.0961461,233.936291 81.2264852,233.682175 C81.639884,232.867058 82.6075532,232.460194 83.3040117,231.960293 C85.3933872,230.46059 83.4185521,226.848803 81.3107448,228.363782 C80.1943047,229.165012 78.901446,229.850988 78.123361,231.056305 C77.3860892,232.199135 76.7120122,234.130697 77.1267275,235.512369 C77.6559833,237.280075 79.8204026,238.239608 81.3015289,238.88809 C83.2579322,239.744866 85.3130772,240.200331 87.3866541,240.609972 C91.6246502,241.44453 95.9008264,241.851394 100.113808,242.826201 C102.247946,243.319159 104.305725,244.038461 106.47541,244.373117 C108.785967,244.729991 111.111006,244.875796 113.441312,244.997994 C114.468226,245.05215 115.471442,244.000969 115.416147,242.915072 C115.318722,240.986287 115.528054,239.296343 115.93882,237.417548 C116.250844,235.987275 115.331887,234.933317 114.035079,234.781958 C103.482877,233.541925 93.0346824,231.228493 82.8326844,228.152712 C80.3838889,227.415358 79.3385428,231.434008 81.7820721,232.169974" id="Fill-24" fill="#694336" mask="url(#mask-2)"></path>
            <path d="M104.088657,245 C104.446648,242.843358 104.8487,240.025083 104.991896,237.841694 C105.007042,237.620681 105.013926,237.381367 104.890006,237.19977 C104.78674,237.049143 104.610498,236.97031 104.442518,236.899923 C100.406858,235.214871 95.9443627,234.22946 91.5892648,234 C90.9710419,236.819683 90.9132126,239.300102 91.081193,242.184541 C91.093585,242.42667 91.118369,242.684285 91.2670729,242.870105 C91.4736062,243.126312 91.8384816,243.15869 92.1620504,243.174175 C96.0200916,243.354364 100.361421,243.968134 104.088657,245" id="Fill-25" fill="#C8C9CA" mask="url(#mask-2)"></path>
            <path d="M107.023977,244.477585 C107.345175,242.539647 107.629469,240.591998 107.837222,238.637413 C107.949299,237.585905 108.20079,236.360994 107.697809,235.381621 C107.107352,234.233008 105.899102,233.895915 104.775594,233.474202 C100.892521,232.020401 96.7688913,231.232463 92.6397944,231.002186 C91.7869124,230.955021 90.8465554,231.677759 90.6620376,232.530896 C90.2164615,234.597845 89.9936734,236.71196 90.0046078,238.828849 C90.010075,239.865098 89.9403683,241.05394 90.2000599,242.061058 C90.5772962,243.524569 91.8347504,244.105812 93.2083824,244.205691 C97.1133244,244.484521 100.683401,244.892362 104.502235,245.931385 C105.571071,246.221313 106.730116,245.565161 107.023977,244.477585 C107.316472,243.395558 106.665876,242.20949 105.59294,241.916787 C102.173211,240.987354 98.6427715,240.447728 95.1177993,240.164736 C94.7173275,240.131443 94.3168556,240.105086 93.9163838,240.080116 C93.7195649,240.069018 93.522746,240.059308 93.325927,240.049597 C93.2206836,240.045435 93.1168069,240.038499 93.0115635,240.030176 C93.3929002,240.339525 93.77287,240.646099 94.1528399,240.954061 C94.1842762,241.194049 94.192477,241.214857 94.1774422,241.016485 C94.1692414,240.8847 94.1624075,240.752915 94.1555735,240.621129 C94.1460059,240.404724 94.1364383,240.188319 94.1282375,239.971913 C94.1145695,239.548813 94.1050019,239.1271 94.1050019,238.703999 C94.1022683,236.8812 94.2485157,235.341392 94.6161844,233.637893 C93.9573877,234.145613 93.2985911,234.654721 92.6397944,235.163829 C94.8143701,235.284516 96.7087522,235.548087 98.8409572,236.036386 C99.9111601,236.28331 100.971795,236.573238 102.018763,236.908944 C102.498509,237.062925 102.976888,237.226616 103.451167,237.400018 C103.686256,237.487412 103.921346,237.576194 104.156435,237.66775 C104.31225,237.728788 104.466698,237.791212 104.622513,237.853637 C104.433895,237.781502 104.279447,237.65804 104.156435,237.481864 C104.063493,237.132286 103.97055,236.782708 103.876241,236.431742 C104.006087,237.590066 103.717693,238.899596 103.571445,240.049597 C103.537275,240.313168 103.530441,240.365882 103.550943,240.210514 C103.529074,240.367269 103.507206,240.525412 103.485337,240.683554 C103.440233,240.99429 103.395128,241.306413 103.348657,241.615762 C103.261182,242.201166 103.166873,242.786571 103.06983,243.370588 C102.886679,244.477585 103.358225,245.610939 104.502235,245.931385 C105.486329,246.204667 106.839459,245.591518 107.023977,244.477585" id="Fill-26" fill="#FFFFFF" mask="url(#mask-2)"></path>
            <path d="M147.185476,191 C147.185476,191 137.27634,208.484473 152.412038,234.620083 C157.541269,243.484008 164.389133,251.020671 169.229037,252.629875 C176.194231,254.945268 183.559418,245.990909 181.711454,237.099056 C179.848825,228.213853 163.113158,219.546757 160.877203,207.159872" id="Fill-27" fill="#FFFFFF" mask="url(#mask-2)"></path>
            <path d="M161.815154,248.009338 C158.076246,244.267297 154.448567,239.273014 151.744224,234.608479 C136.173482,207.754696 146.055456,189.709327 146.484291,188.955045 C146.996213,188.051241 148.144688,187.734843 149.053283,188.240813 C149.956517,188.756128 150.282164,189.900234 149.778282,190.802702 C149.684475,190.968244 140.589145,207.841471 155.019454,232.724776 C159.996624,241.308908 166.662333,248.558028 170.881001,249.962462 C173.66441,250.884956 176.025684,249.29362 177.18756,248.26566 C179.808816,245.948078 181.997216,241.419714 180.980073,236.540243 C180.244352,233.031829 176.4572,229.176312 172.44893,225.092507 C167.251982,219.797846 161.360856,213.794294 160.030127,206.438373 C159.845192,205.414418 160.528648,204.434519 161.553832,204.254292 C162.583037,204.06205 163.565338,204.742907 163.747593,205.770866 C164.875966,211.990691 170.099716,217.312052 175.151932,222.458527 C179.558215,226.948175 183.716578,231.185506 184.680117,235.77261 C185.827252,241.275533 183.825127,247.428607 179.700267,251.078532 C176.685019,253.752563 173.034558,254.644352 169.688302,253.532286 C167.203738,252.707248 164.480633,250.675359 161.815154,248.009338" id="Fill-28" fill="#694336" mask="url(#mask-2)"></path>
            <path d="M179.282422,233 C179.282422,233 183.160443,230.494181 181.651297,226.985454 C180.13931,223.47238 173,225.69124 173,225.69124" id="Fill-29" fill="#FFFFFF" mask="url(#mask-2)"></path>
            <path d="M177.333239,234.451153 C177.241509,234.358882 177.15502,234.252111 177.082947,234.137431 C176.537809,233.271398 176.790722,232.127234 177.64381,231.574924 C177.73685,231.518243 179.864984,230.09331 179.135076,228.415289 C178.659391,227.350215 175.423946,227.645483 173.386231,228.27161 C172.412584,228.569514 171.378657,228.023795 171.08119,227.035174 C170.782412,226.053143 171.334102,225.014431 172.311681,224.715209 C173.145113,224.460803 180.539854,222.326699 182.51991,226.92313 C184.123873,230.603438 181.335284,233.627302 179.631728,234.710831 C178.886095,235.188006 177.932104,235.05619 177.333239,234.451153" id="Fill-30" fill="#694336" mask="url(#mask-2)"></path>
            <path d="M165,249.237587 C165,249.237587 169.94466,256.578877 175.400349,253.031945 C177.663879,251.557221 172.789999,249 172.789999,249" id="Fill-31" fill="#FFFFFF" mask="url(#mask-2)"></path>
            <path d="M166.015728,253.52903 C165.319114,252.782825 164.741467,252.012641 164.315833,251.331324 C163.742151,250.421491 163.972153,249.191452 164.826066,248.579254 C165.678657,247.964235 166.839238,248.220963 167.411598,249.116691 C167.547748,249.332512 170.552305,253.997347 173.751174,252.798342 C173.341401,252.442872 172.780938,252.040853 172.265418,251.746039 C171.354666,251.249509 171.009664,250.032167 171.49346,249.057446 C171.975934,248.089778 173.099503,247.717381 174.008934,248.230838 C175.455034,249.047572 177.896485,250.75157 177.996945,252.969024 C178.044532,254.048129 177.534299,255.044008 176.59711,255.695703 C172.49542,258.56203 168.496834,256.188 166.015728,253.52903" id="Fill-32" fill="#694336" mask="url(#mask-2)"></path>
            <path d="M171,248.406749 C171,248.406749 177.793279,255.223715 182.223617,250.078627 C185.484447,246.295555 177.418924,243 177.418924,243" id="Fill-33" fill="#FFFFFF" mask="url(#mask-2)"></path>
            <path d="M170.583775,250.160576 L170.529576,250.107989 C169.81045,249.393567 169.826313,248.25203 170.561302,247.555565 C171.291003,246.860382 172.46487,246.86936 173.187961,247.570956 C173.197215,247.586348 173.210434,247.594044 173.22101,247.604305 C174.065718,248.426467 176.632891,250.458145 178.78498,250.381188 C179.632332,250.34784 180.328985,249.984857 180.978049,249.235804 C181.325715,248.836907 181.276804,248.644514 181.254331,248.552165 C181.000522,247.524782 178.720206,246.108764 177.172235,245.47643 C176.217807,245.081381 175.777607,244.027063 176.172862,243.111269 C176.569439,242.189061 177.658702,241.755534 178.609165,242.140322 C179.513359,242.50587 184.081923,244.495221 184.87772,247.704349 C185.114344,248.645796 185.122275,250.079771 183.829435,251.568899 C182.510157,253.086244 180.808843,253.927646 178.911885,253.995625 C174.853584,254.137997 171.19979,250.762128 170.583775,250.160576" id="Fill-34" fill="#694336" mask="url(#mask-2)"></path>
            <path d="M179,242.810184 C179,242.810184 186.194504,247.913502 189.388791,242.538787 C192.895639,236.669174 180.167548,233 180.167548,233" id="Fill-35" fill="#FFFFFF" mask="url(#mask-2)"></path>
            <path d="M177.536094,245.036982 C176.902175,244.339209 176.811615,243.217889 177.365474,242.405256 C177.977081,241.507914 179.133359,241.321266 179.952335,241.984582 C180.788373,242.662255 183.35686,244.314801 185.221867,243.879769 C185.681229,243.773524 186.361084,243.493553 186.963503,242.324854 C187.434677,241.418897 187.317868,240.818755 187.160372,240.395209 C186.269211,237.918544 181.546976,235.678777 179.405039,234.959467 C178.436442,234.632117 177.873397,233.503619 178.172638,232.435422 C178.467941,231.36579 179.503473,230.764212 180.481257,231.087255 C181.326482,231.367226 188.804886,233.974544 190.600333,238.894852 C191.248689,240.670873 191.106944,242.543088 190.184283,244.317672 C189.211749,246.211424 187.754917,247.434681 185.977845,247.843869 C182.155958,248.726854 178.18445,245.592617 177.740838,245.232244 C177.668653,245.171942 177.599092,245.105898 177.536094,245.036982" id="Fill-36" fill="#694336" mask="url(#mask-2)"></path>
            <path d="M105,180.802118 C102.304312,187.927703 99.4932072,195.018704 96.1886009,201.88092 C94.5873726,205.206282 92.8707284,208.477107 91.3729763,211.851684 C87.4156738,220.760993 85.0065348,230.322073 80.7427834,239.089056 C80.5650166,239.454846 80.3434713,239.855219 79.9534455,239.968282 C79.5965852,240.073363 79.2238054,239.897784 78.8921508,239.727525 C73.2553495,236.82781 67.6185481,233.928095 61.9817467,231.02971 C61.6063137,230.836839 61.2096548,230.624015 61.0106621,230.251575 C60.7148262,229.703555 60.9522909,229.030502 61.1937354,228.45455 C65.0515416,219.220686 68.9080211,209.985491 72.7671539,200.750297 C73.0271711,200.126459 73.2911682,199.426803 73.0576833,198.790994 C72.8494043,198.223022 72.297531,197.866544 71.7788232,197.55529 C65.1430782,193.564856 58.1862916,190.1118 51,187.240018 C57.8015723,180.098472 64.3112885,172.676265 70.5079229,165 L105,180.802118 Z" id="Fill-37" fill="#226E9D" mask="url(#mask-2)"></path>
            <path d="M103.298281,180.062943 C101.373012,185.001245 99.4030005,189.926346 97.2106344,194.757724 C95.027759,199.566661 92.4883022,204.202671 90.2308566,208.975967 C88.0235764,213.641019 86.2338897,218.468436 84.4726754,223.305094 C83.5724088,225.776225 82.673498,228.248676 81.7000169,230.693406 C81.2824234,231.742845 80.8566949,232.788323 80.4011383,233.823241 C80.1570901,234.377662 79.9035512,234.929442 79.644589,235.478582 C79.4723994,235.846876 79.2974982,236.211209 79.1198854,236.575543 C78.700936,237.214446 78.747034,237.292329 79.2581794,236.807871 C79.8276251,236.658706 80.3984267,236.50822 80.9678724,236.357735 C80.7848363,236.352454 80.6004443,236.347174 80.4174082,236.340574 C80.9868539,236.491059 81.5562997,236.640225 82.1271013,236.792031 C78.8921071,235.442941 75.787272,233.668796 72.6553204,232.104538 C71.0662956,231.311189 69.4772708,230.51784 67.8868901,229.72317 C66.7995199,229.18063 64.6410494,228.458564 64.0051683,227.681055 C64.2953145,228.166833 64.5868165,228.652611 64.8769626,229.138389 C64.8389996,229.70205 64.9013674,229.691489 65.0640662,229.109348 C65.1494831,228.910021 65.2362558,228.710693 65.3216726,228.511366 C65.6172421,227.81306 65.9209465,227.117395 66.2205834,226.419089 C66.7778268,225.125441 67.3364259,223.829154 67.8923134,222.535506 C68.9213832,220.143578 69.9490972,217.75297 70.978167,215.362362 C72.0492674,212.87143 73.1203677,210.381819 74.1928239,207.890887 C75.1920656,205.567602 76.6563546,203.105711 77.2298678,200.647781 C77.9077794,197.750274 76.1831723,195.803202 73.7887886,194.405271 C71.468975,193.050901 69.0976403,191.777054 66.7005448,190.558649 C62.0107524,188.177282 57.1867334,186.063884 52.2786534,184.147173 C52.7775964,185.984681 53.2751835,187.823509 53.7741264,189.662336 C60.7213645,182.567075 67.3703215,175.206484 73.7115066,167.592444 C72.3421252,167.765371 70.9740996,167.935657 69.6033623,168.107263 C79.8872813,172.682552 90.1712003,177.25784 100.453764,181.833128 C101.920764,182.485232 103.387765,183.137336 104.856121,183.78944 C106.519717,184.531308 108.504642,184.252777 109.493037,182.606677 C110.34585,181.187625 109.949949,178.835298 108.276863,178.092111 C97.9943002,173.516822 87.7103812,168.941534 77.4264622,164.366246 L73.0254601,162.409934 C71.7645445,161.847593 69.91249,161.730109 68.9186716,162.926073 C62.5774865,170.538793 55.9285295,177.900704 48.9799356,184.994645 C47.0790714,186.937756 48.140681,189.600294 50.4767644,190.511128 C55.0336862,192.291873 59.4875654,194.311547 63.8316229,196.539789 C65.855867,197.579988 67.8557062,198.665068 69.828429,199.795029 C70.0101093,199.897993 71.1151052,200.713783 71.300853,200.659661 C71.0500257,200.233285 70.7991984,199.80955 70.5483711,199.384494 C70.4060097,199.744867 70.2555133,200.103921 70.0982378,200.459014 C69.5898041,201.656298 69.069168,202.849622 68.555311,204.044266 C66.4985272,208.826802 64.4417434,213.608017 62.3836038,218.389233 C61.4413066,220.580514 60.4990095,222.771795 59.5553565,224.964395 C58.516796,227.377444 57.1148748,230.026782 59.2123333,232.348747 C60.6644199,233.957886 63.1347298,234.759156 65.0613546,235.720151 C67.6441978,237.011159 70.227041,238.299526 72.8098842,239.590534 C74.9425941,240.654493 77.2041072,242.20291 79.5144299,242.823332 C82.7412892,243.687964 84.3628537,241.223434 85.4990336,238.810385 C89.5597241,230.178587 92.0042733,220.926367 96.0853011,212.30777 C98.3888448,207.439431 100.977111,202.709696 103.193882,197.801756 C105.571996,192.538722 107.738602,187.191205 109.834704,181.818608 C110.485499,180.151386 109.114762,178.199035 107.467437,177.758138 C105.56115,177.2486 103.950432,178.390442 103.298281,180.062943" id="Fill-38" fill="#694336" mask="url(#mask-2)"></path>
            <path d="M158.580608,192 C159.959268,195.039659 161.337927,198.077988 162.717904,201.118978 C165.780714,207.873037 168.934381,214.761512 174,220.144796 C166.19023,226.205483 159.26928,234.620442 154.440679,243.294916 C147.323531,234.419484 147.195804,236.008517 142.504148,225.538728 L142.504148,225.540059 C139.871922,233.20708 141.702234,241.753793 142.851775,247.097152 L143.216521,247.307426 C139.177984,250.313814 134.046526,251.423742 129.040162,251.739154 C124.035114,252.053234 119.003731,251.651318 114,252 C115.017864,235.178068 116.038362,218.333511 118.466488,201.660633 C118.90629,198.642268 119.417197,195.554698 120.9249,192.911632 L158.580608,192 Z" id="Fill-39" fill="#226E9D" mask="url(#mask-2)"></path>
            <path d="M155.996415,193.958226 C160.595872,203.788026 164.61569,214.471676 172.272038,222.491001 L172.272038,217.831728 C163.905598,224.184204 156.98355,232.416991 151.768142,241.420614 C153.529922,241.197929 155.289013,240.975243 157.049448,240.753875 C155.684405,239.108108 154.287084,237.488694 152.866901,235.88641 C152.377368,235.33299 151.883801,234.782205 151.400992,234.224831 C151.158915,233.945486 150.922218,233.662187 150.682831,233.378889 C150.569862,233.241851 150.458238,233.104814 150.347958,232.966459 C150.575242,233.257663 150.616933,233.307735 150.471687,233.117991 C148.35486,230.262605 146.866089,227.03959 145.382696,223.840293 C144.77616,222.534484 142.910824,221.970522 141.586127,222.326292 C140.091976,222.729499 139.224534,224.047166 139.116945,225.501871 C139.185533,224.57028 138.764589,226.131717 138.717518,226.306966 C138.569582,226.866975 138.440475,227.433572 138.332885,228.004122 C138.101568,229.232189 137.936148,230.478702 137.836628,231.72258 C137.65776,233.94285 137.735763,236.174979 137.968425,238.387343 C138.193019,240.523283 138.533271,242.649998 138.956905,244.756949 C139.357677,246.754533 139.520406,248.792965 141.510814,249.899806 L141.510814,244.211434 C133.362244,249.907712 122.724318,247.833703 113.366709,248.406888 C114.488331,249.504505 115.608608,250.60344 116.728885,251.701057 C117.344836,241.859398 117.959442,232.013785 118.872609,222.19189 C119.323141,217.337603 119.84764,212.489903 120.478384,207.655381 C121.027091,203.461245 121.232857,198.638581 123.342959,194.860828 C122.374652,195.405025 121.40769,195.949221 120.440728,196.4921 C131.659638,196.229885 142.878548,195.965033 154.097457,195.702818 C155.697853,195.665923 157.298249,195.627711 158.89999,195.589498 C163.219714,195.488038 163.235853,188.899699 158.89999,189.00116 L133.24255,189.603334 C129.19987,189.699524 125.157189,189.793078 121.114508,189.88795 C120.89126,189.893221 120.665321,189.88795 120.442073,189.903762 C117.261454,190.129083 116.199006,193.959543 115.53464,196.513183 C114.13463,201.891903 113.713686,207.636933 113.082941,213.139514 C111.612998,225.955149 110.808765,238.832715 110.004533,251.701057 C109.899633,253.400849 111.633171,255.101958 113.366709,254.995227 C123.968323,254.344299 135.668697,256.356377 144.903923,249.899806 C146.883572,248.514937 147.257446,245.518561 144.903923,244.211434 C144.780195,244.141598 144.655122,244.071762 144.531393,244.003243 C145.046479,244.660759 145.561564,245.316958 146.07665,245.973156 C145.381352,242.838425 144.730434,239.69974 144.535428,236.489902 C144.421114,234.622767 144.417079,232.729279 144.643018,230.87005 C144.864921,229.052986 145.7095,227.307076 145.841297,225.501871 C143.752713,226.05661 141.66413,226.611348 139.57689,227.166086 C141.093904,230.437855 142.608229,233.763648 144.82323,236.64934 C147.156581,239.689199 149.846322,242.462889 152.295331,245.41183 C153.673823,247.073409 156.592192,246.442246 157.575293,244.74509 C162.53383,236.184203 169.072591,228.529872 177.026155,222.491001 C178.496098,221.376254 178.141052,219.000499 177.026155,217.831728 C173.526802,214.165977 170.989031,209.797908 168.739063,205.315203 C166.311571,200.476727 164.095225,195.532838 161.802221,190.63375 C161.045059,189.015654 158.659258,188.616401 157.202763,189.451802 C155.506882,190.422923 155.236563,192.336177 155.996415,193.958226" id="Fill-40" fill="#694336" mask="url(#mask-2)"></path>
            <path d="M107.393245,196.209792 C102.905403,204.312081 98.8889668,212.663958 95.3683202,221.212317 C95.1529363,221.735388 94.9361977,222.288994 95.0174747,222.846582 C95.0906239,223.340446 95.3886394,223.769258 95.6785272,224.178156 L101.923306,233 C105.044341,230.073989 108.082744,227.063012 111.034452,223.97238 C111.565462,223.417446 112.107308,222.834634 112.337593,222.108442 C112.571941,221.374284 112.458154,220.584367 112.353848,219.823657 C111.079155,210.591588 111.298603,201.164362 113,192" id="Fill-41" fill="#DA2128" mask="url(#mask-2)"></path>
            <path d="M105.045251,196.179961 C101.587616,202.730074 98.4087186,209.430383 95.5422657,216.274241 C94.3832386,219.041557 91.8862742,222.81505 93.5612888,225.776424 C95.37632,228.985023 97.7475287,231.978297 99.8088856,235.026067 C100.527119,236.085409 101.906543,236.371179 102.863324,235.428803 C105.623468,232.714653 108.322679,229.936703 110.946695,227.085649 C112.042196,225.89472 113.137697,224.750311 113.442363,223.08487 C113.776847,221.2586 113.196037,219.181119 113.026202,217.353521 C112.287225,209.401141 112.598374,201.363695 113.964833,193.500369 C114.40044,190.992239 110.653697,189.914288 110.2142,192.441026 C108.930714,199.823195 108.452324,207.331635 108.937196,214.817479 C109.053877,216.615836 109.227601,218.410205 109.446702,220.1966 C109.543935,220.995426 109.827858,221.992298 109.485595,222.75125 C109.186115,223.414502 108.461399,223.980725 107.984305,224.49777 C105.426407,227.267745 102.799798,229.968603 100.113552,232.609649 C101.131266,232.743894 102.150276,232.87814 103.16799,233.013714 C101.293322,230.24241 99.4056894,227.480411 97.5426894,224.701132 C96.9929943,223.879709 96.8335308,223.710905 97.0902281,222.748592 C97.3015496,221.960398 97.7151174,221.173534 98.0210798,220.41857 C98.6239295,218.931237 99.2462259,217.453208 99.8801904,215.979167 C102.48476,209.934135 105.335656,204.004741 108.403059,198.192313 C109.594497,195.934066 106.237986,193.920384 105.045251,196.179961" id="Fill-42" fill="#694336" mask="url(#mask-2)"></path>
            <path d="M92.6554233,182.61731 C89.3908072,186.116914 86.3741865,189.833717 83.5701332,193.736496 C83.0124717,194.512979 83.369375,195.548743 83.8784872,196.205767 C86.0933875,199.060565 88.3082878,201.918077 90.5231881,204.772875 L90.9207679,201.57599 C89.0575224,202.738 87.2900635,204.069696 85.6656283,205.569721 C84.2734428,206.855262 81.9194551,208.716378 82.0021202,210.835417 C82.0585425,212.31508 83.1764898,213.997008 83.7289027,215.357211 C84.3587322,216.904747 84.9400123,218.488936 85.6905591,219.978101 C86.8609922,222.303478 90.2607591,220.246883 89.0890139,217.924221 C88.5287281,216.809723 88.0786625,215.640926 87.6102268,214.484346 C87.186404,213.436365 86.8190035,211.730002 86.0881389,210.86664 C86.0474624,210.781118 86.0067859,210.696954 85.9634852,210.612789 C85.8152128,210.25577 85.744357,210.474326 85.753542,211.268456 C85.7705999,211.279316 86.4279844,210.496045 86.4883431,210.428171 C87.1129239,209.738567 87.7676842,209.078828 88.4486873,208.448953 C89.8290635,207.175629 91.3249085,206.078779 92.907355,205.091885 C94.0843489,204.357484 94.094846,202.911759 93.306247,201.893642 C91.0913467,199.037487 88.8764465,196.181332 86.6615462,193.325177 C86.7638934,194.147815 86.8662407,194.970453 86.9699002,195.79309 C89.5718832,192.169954 92.4100522,188.745012 95.4384822,185.496542 C97.1980683,183.609634 94.4176336,180.726329 92.6554233,182.61731" id="Fill-43" fill="#694336" mask="url(#mask-2)"></path>
            <path d="M125.902271,196.956526 C126.21811,200.10223 126.668923,203.231557 127.3033,206.326765 C127.446373,207.020049 127.494963,207.953524 127.798655,208.586759 C127.913383,209.510682 128.034859,209.445174 128.161735,208.394332 C127.887737,208.495322 127.609691,208.588124 127.330295,208.674102 C125.911719,209.121733 124.472896,209.396044 122.992232,209.507952 C121.587153,209.613036 120.303551,211.209771 121.242969,212.588149 C122.149994,213.917396 122.706087,215.331257 123.119107,216.887049 C123.295923,217.546214 123.627959,218.374606 123.634708,219.058336 C123.642806,219.968611 122.889652,220.466737 122.27417,221.131361 C119.704266,223.909952 117.133012,226.689908 114.561758,229.469864 C112.782802,231.392769 115.6402,234.294186 117.424556,232.364457 C119.088785,230.565743 120.751664,228.768393 122.415893,226.968313 C123.966744,225.292424 125.934664,223.639736 127.180474,221.715466 C128.28996,220.002729 127.5638,217.880573 127.09544,216.066847 C126.589288,214.105729 125.883374,212.197836 124.740145,210.521947 C124.157057,211.548224 123.57397,212.574501 122.992232,213.602143 C125.597229,213.405622 131.694003,213.034416 131.982847,209.507952 C132.135368,207.647825 131.229693,205.450609 130.890908,203.616411 C130.483287,201.409642 130.176896,199.19059 129.951489,196.956526 C129.69099,194.362174 125.639071,194.333515 125.902271,196.956526" id="Fill-44" fill="#694336" mask="url(#mask-2)"></path>
            <path d="M132.477194,215.054453 C138.323448,225.106348 144.666069,234.877675 151.482748,244.340107 C152.557745,245.831974 154.534846,246.521255 156.252611,245.548708 C157.777963,244.685421 158.585256,242.436829 157.503288,240.93552 C150.685215,231.474437 144.343988,221.701761 138.49634,211.651215 C136.297546,207.867591 130.272823,211.262736 132.477194,215.054453" id="Fill-45" fill="#694336" mask="url(#mask-2)"></path>
            <path d="M58.2218247,164.731128 C58.3486102,163.235536 58.2584226,161.674 57.594432,160.331396 C56.9291344,158.988792 55.5946181,157.91128 54.1084818,157.896773 C52.6197314,157.882265 51.1453588,159.180028 51.246003,160.676939 C50.1859709,158.354418 48.6906852,156.235003 46.8620971,154.463768 C44.9446284,152.606807 41.9383721,151.112534 39.7359626,152.616039 C37.530939,154.123501 37.7884314,157.454953 38.5386884,160.032014 C41.0848567,168.77081 46.4216152,176.504631 52.9334277,182.808803 C54.1816776,184.016883 55.7436238,185.261891 57.4441192,184.951957 L68,170.344215 C66.634114,168.278873 66.3936135,165.675435 66.3021187,163.193332 C66.210624,160.711229 66.2093169,158.144719 65.2172523,155.870997 C64.2238807,153.598593 61.9142916,151.687559 59.479224,152.063435 C56.9644253,152.449862 55.2822288,155.282783 55.6416725,157.824235" id="Fill-46" fill="#FFFFFF" mask="url(#mask-2)"></path>
            <path d="M61.8188089,163.567551 C62.0865644,159.442156 60.5629404,154.972181 56.3807895,153.473529 C52.2394137,151.991286 47.9227055,154.991324 47.7691198,159.364215 C49.878544,158.788547 51.9906865,158.214246 54.1001106,157.638578 C52.4120276,154.076545 49.7657333,150.457082 46.3202499,148.438825 C42.6926384,146.313912 37.88799,146.378179 35.3626613,150.152156 C33.3402237,153.17544 33.8988406,157.14632 34.923651,160.4171 C36.1074838,164.192445 37.7588693,167.848827 39.7663561,171.252243 C41.8295686,174.750009 44.2978123,178.027626 46.9916774,181.056379 C49.5768093,183.962068 52.8456013,188.016359 57.0861962,188 C59.3627977,187.991746 60.3359598,186.54779 61.4926093,184.953421 C62.6438221,183.363155 63.7977532,181.771521 64.9503251,180.181254 C67.1412992,177.15797 69.3322732,174.136054 71.5232473,171.114138 C72.2069073,170.169276 72.1090474,168.615929 71.5232473,167.661495 C69.8800168,164.986894 70.3231046,161.692869 70.063504,158.690095 C69.7454594,154.992692 68.7070573,151.386903 65.7155351,148.987146 C63.0705999,146.866335 59.3926993,146.248277 56.4120503,148.094244 C53.666537,149.793902 52.0273839,153.189114 52.3399919,156.406566 C52.5180425,158.242961 53.773911,159.825023 55.7379045,159.825023 C57.4368608,159.825023 59.3152269,158.2539 59.1358171,156.406566 C59.0515489,155.547849 59.1915429,154.013646 60.2027616,153.805803 C61.5999833,153.518653 62.6139204,155.638097 62.9034226,156.682777 C63.5299977,158.940327 63.3247638,161.322308 63.5177652,163.638655 C63.7393091,166.287275 64.248996,168.823771 65.6557318,171.114138 L65.6557318,167.661495 C61.9968595,172.711241 58.336628,177.758252 54.6777557,182.80663 C55.6563546,182.2419 56.6335942,181.678539 57.6121931,181.113809 C55.9281876,181.272426 54.3814578,178.987529 53.3308232,177.888153 C51.8697208,176.356684 50.4643441,174.756846 49.1758556,173.073597 C46.5975196,169.708468 44.3481014,165.978247 42.7171034,162.055225 C41.9573301,160.225667 41.1608594,158.219716 40.8659206,156.246582 C40.7938848,155.7721 40.7449549,155.047387 40.787089,154.697337 C40.8509698,154.177732 40.8795122,153.774354 41.3253184,153.715556 C42.3936221,153.57745 43.8982178,155.020039 44.6077019,155.737916 C46.1489951,157.300834 47.2934121,159.108515 48.2325951,161.089853 C49.7643741,164.322346 54.4534935,162.514666 54.564945,159.364215 C54.5731,159.126291 54.1585547,160.356935 54.1436039,159.900229 C54.1395264,159.797676 54.8802713,160.969523 54.5703817,160.266688 C55.0664769,161.390677 55.1045336,162.324599 55.0229837,163.567551 C54.9033771,165.41215 56.6702917,166.986008 58.4208963,166.986008 C60.3604248,166.986008 61.6992024,165.41762 61.8188089,163.567551" id="Fill-47" fill="#694336" mask="url(#mask-2)"></path>
            <path d="M108.082928,191 C107.377641,192.58855 107.005157,194.343742 107,196.100299 C106.997477,197.075557 107.128038,198.108183 107.704044,198.864896 C108.798455,200.304562 110.877196,200.101042 112.578334,199.728149 C113.251621,199.579265 113.941548,199.418088 114.511154,199.008316 C115.343162,198.410048 115.801407,197.350104 115.942208,196.29016 C116.08173,195.230216 115.942208,194.15388 115.802687,193.09257 C115.727166,192.522987 115.626045,191.897401 115.210041,191.529972" id="Fill-48" fill="#DA2128" mask="url(#mask-2)"></path>
            <path d="M104.473837,189.058156 C102.737506,192.966511 101.619499,199.758248 106.563296,201.625427 C108.30521,202.2834 110.296965,201.954413 112.055628,201.552319 C113.190385,201.292055 114.256749,200.832936 115.120727,199.999505 C115.9205,199.228946 116.478805,198.119166 116.752375,197.026932 C117.067818,195.762163 117.04409,194.450604 116.890556,193.165365 C116.721668,191.738296 116.610007,190.226422 115.533873,189.180977 C114.731308,188.401645 113.357876,188.286135 112.573457,189.180977 C111.83091,190.02903 111.715062,191.450251 112.573457,192.283682 C112.633475,192.340707 112.740949,192.500082 112.590206,192.264674 C112.364092,191.912293 112.646037,192.551258 112.526001,192.137466 C112.428297,191.805556 112.553916,192.267598 112.572061,192.348017 C112.609747,192.511779 112.636266,192.679928 112.66139,192.846614 C112.672556,192.927033 112.682326,193.004528 112.693493,193.083484 C112.732574,193.352522 112.654411,192.734028 112.703263,193.165365 C112.750719,193.576232 112.793988,193.988562 112.810737,194.402353 C112.820507,194.624602 112.823299,194.84685 112.817716,195.069098 C112.814924,195.164139 112.809341,195.259179 112.803758,195.35422 C112.799571,195.420017 112.807945,195.816263 112.793988,195.519444 C112.782821,195.235785 112.785613,195.539914 112.766072,195.630568 C112.750719,195.708063 112.732574,195.785557 112.714429,195.860127 C112.689305,195.962479 112.485524,196.459613 112.627892,196.196424 C112.774447,195.925925 112.548333,196.358724 112.510647,196.428908 C112.461796,196.519562 112.400382,196.602905 112.355718,196.695021 C112.235682,196.93774 112.599976,196.431832 112.41434,196.620451 C112.368279,196.668702 112.048649,196.962597 112.048649,197.000613 C112.048649,196.952362 112.382237,196.787137 112.167289,196.888026 C112.098897,196.921656 112.024921,196.974294 111.960716,197.015234 C111.69273,197.190694 112.009568,197.041553 112.026317,197.003537 C112.013755,197.031318 111.829514,197.075183 111.800203,197.08688 C111.595026,197.157064 111.387057,197.214088 111.179088,197.266726 C110.86225,197.345683 110.544016,197.414404 110.224386,197.474353 C110.086205,197.500672 109.948024,197.524066 109.811239,197.548923 C109.441362,197.613258 109.901964,197.528453 109.94942,197.529915 C109.8573,197.528453 109.759596,197.55331 109.667476,197.562083 C109.342263,197.59425 109.015654,197.611796 108.689045,197.603023 C108.550864,197.600099 108.415475,197.588401 108.27869,197.579629 C108.213089,197.575242 107.96883,197.547461 108.28846,197.585477 C108.642985,197.626418 108.253566,197.569393 108.174008,197.551847 C108.046993,197.51968 107.924166,197.475815 107.798547,197.440723 C107.446815,197.344221 107.925562,197.464118 107.940915,197.512369 C107.933936,197.490437 107.792964,197.436337 107.770632,197.421715 C107.717593,197.386623 107.660367,197.351531 107.604536,197.320826 C107.31003,197.161451 107.684095,197.366153 107.717593,197.427564 C107.692469,197.379312 107.612911,197.328137 107.573829,197.290121 C107.321196,197.031318 107.621285,197.252105 107.582204,197.347145 C107.589183,197.326675 107.317009,196.942126 107.342132,196.930429 C107.35609,196.923118 107.469147,197.328137 107.400754,197.07957 C107.372839,196.975756 107.333758,196.873405 107.305842,196.768129 C107.265365,196.608754 107.238846,196.446454 107.206743,196.284154 C107.142538,195.9771 107.224888,196.68771 107.222097,196.371884 C107.220701,196.262222 107.206743,196.151097 107.202556,196.038511 C107.183015,195.567695 107.198369,195.095417 107.236054,194.626064 C107.241637,194.533948 107.251408,194.444756 107.259782,194.35264 C107.279323,194.10261 107.261178,194.206424 107.248616,194.39358 C107.265365,194.155248 107.322592,193.911067 107.368652,193.677121 C107.462168,193.201919 107.580808,192.731103 107.723176,192.269061 C107.785985,192.067282 107.852982,191.866966 107.925562,191.668113 C107.94929,191.60524 108.088866,191.248472 107.982788,191.508737 C107.871127,191.785085 108.090262,191.271867 108.090262,191.271867 C108.550864,190.233733 108.401517,188.859302 107.337945,188.271513 C106.413949,187.758295 104.967937,187.946913 104.473837,189.058156" id="Fill-49" fill="#694336" mask="url(#mask-2)"></path>
            <path d="M222.908015,136.239573 C206.469251,182.059854 155.122348,205.442884 108.22977,188.462874 C61.333207,171.485532 36.651155,120.57485 53.0925757,74.7585709 C69.5339964,28.9396239 120.876914,5.55792762 167.774805,22.5366035 C214.671368,39.5112774 239.34678,90.4219596 222.908015,136.239573" id="Fill-50" fill="#B62823" mask="url(#mask-2)"></path>
            <path d="M141.883738,18.8502478 C103.194867,17.1448395 68.594412,39.7229044 55.7823502,75.030434 C39.6091776,119.603484 64.0006267,169.311354 110.151056,185.836813 C118.870692,188.960738 127.929914,190.745839 137.074702,191.149611 C175.766247,192.85502 210.369376,170.278283 223.174753,134.969425 C231.003975,113.386182 229.669692,89.976664 219.412555,69.0548641 C209.148734,48.1131412 191.177354,32.1707615 168.812732,24.1643744 C160.091759,21.0404489 151.0312,19.2540205 141.883738,18.8502478 M136.907583,194.90576 C127.380425,194.486049 117.945517,192.625241 108.868914,189.376465 C60.7531574,172.14706 35.3402729,120.278209 52.2206959,73.7566906 C65.5982907,36.8885264 101.698812,13.3156401 142.050857,15.0940994 C151.582026,15.5138104 161.015597,17.3746181 170.094874,20.6260507 C193.392692,28.9671441 212.115442,45.5815927 222.817785,67.4092248 C233.52414,89.2527952 234.917249,113.698309 226.737744,136.244497 C213.361486,173.113989 177.264976,196.685547 136.907583,194.90576" id="Fill-51" fill="#694336" mask="url(#mask-2)"></path>
            <path d="M141.883738,18.8502478 C103.194867,17.1448395 68.594412,39.7229044 55.7823502,75.030434 C39.6091776,119.603484 64.0006267,169.311354 110.151056,185.836813 C118.870692,188.960738 127.929914,190.745839 137.074702,191.149611 C175.766247,192.85502 210.369376,170.278283 223.174753,134.969425 C231.003975,113.386182 229.669692,89.976664 219.412555,69.0548641 C209.148734,48.1131412 191.177354,32.1707615 168.812732,24.1643744 C160.091759,21.0404489 151.0312,19.2540205 141.883738,18.8502478 Z M136.907583,194.90576 C127.380425,194.486049 117.945517,192.625241 108.868914,189.376465 C60.7531574,172.14706 35.3402729,120.278209 52.2206959,73.7566906 C65.5982907,36.8885264 101.698812,13.3156401 142.050857,15.0940994 C151.582026,15.5138104 161.015597,17.3746181 170.094874,20.6260507 C193.392692,28.9671441 212.115442,45.5815927 222.817785,67.4092248 C233.52414,89.2527952 234.917249,113.698309 226.737744,136.244497 C213.361486,173.113989 177.264976,196.685547 136.907583,194.90576 Z" id="Stroke-52" stroke="#6A4337" stroke-width="2.887" mask="url(#mask-2)"></path>
            <path d="M165.366403,117.009015 C152.043388,112.246353 143.063235,115.562567 136.265887,113.184554 C129.491291,110.708341 123.772633,102.143778 110.45631,97.379789 C97.0703938,92.5998761 76.547196,99.7485132 74.1341979,126.546281 C71.7332447,153.276372 102.186806,167.28701 114.412396,171.674126 L114.413734,171.674126 C114.425779,171.678107 114.44853,171.68607 114.460575,171.694032 C114.477973,171.695359 114.499387,171.703321 114.518123,171.707302 C126.751742,176.066551 159.22885,184.544858 174.570057,162.440747 C189.954091,140.283555 178.745628,121.791582 165.366403,117.009015" id="Fill-53" fill="#FFFFFF" mask="url(#mask-2)"></path>
            <path d="M126.686293,90 C126.686293,90 118.369863,115.949248 159.637261,131 C159.637261,131 160.456685,116.512106 164,111.00711" id="Fill-54" fill="#B62823" mask="url(#mask-2)"></path>
            <path d="M160.636155,131.998139 C160.447837,131.990043 160.26219,131.953612 160.079215,131.887496 C137.960521,123.830826 129.782708,112.543933 126.816364,104.496708 C123.528144,95.5697399 125.690463,88.610051 125.782618,88.3186023 C126.107166,87.3147231 127.187658,86.7750032 128.165309,87.0893901 C129.154981,87.4145713 129.699901,88.4872648 129.383367,89.4884453 C129.078852,90.4653384 122.498404,113.087701 159.033448,127.413218 C159.455495,122.849885 160.64684,113.429073 163.523699,108.966939 C164.093996,108.079099 165.265308,107.834876 166.140119,108.406979 C167.016265,108.981781 167.263349,110.166466 166.693053,111.050258 C163.999169,115.230389 162.831864,126.291949 162.608821,130.198173 C162.575431,130.79996 162.262903,131.351824 161.763393,131.685101 C161.425489,131.909085 161.03149,132.01568 160.636155,131.998139" id="Fill-55" fill="#694336" mask="url(#mask-2)"></path>
            <path d="M160.636155,131.998139 C160.447837,131.990043 160.26219,131.953612 160.079215,131.887496 C137.960521,123.830826 129.782708,112.543933 126.816364,104.496708 C123.528144,95.5697399 125.690463,88.610051 125.782618,88.3186023 C126.107166,87.3147231 127.187658,86.7750032 128.165309,87.0893901 C129.154981,87.4145713 129.699901,88.4872648 129.383367,89.4884453 C129.078852,90.4653384 122.498404,113.087701 159.033448,127.413218 C159.455495,122.849885 160.64684,113.429073 163.523699,108.966939 C164.093996,108.079099 165.265308,107.834876 166.140119,108.406979 C167.016265,108.981781 167.263349,110.166466 166.693053,111.050258 C163.999169,115.230389 162.831864,126.291949 162.608821,130.198173 C162.575431,130.79996 162.262903,131.351824 161.763393,131.685101 C161.425489,131.909085 161.03149,132.01568 160.636155,131.998139 Z" id="Stroke-56" stroke="#6A4337" stroke-width="1.155" mask="url(#mask-2)"></path>
            <path d="M182,114.044521 C182,114.044521 185.948092,115.858469 188.87873,119.984206 C190.443942,122.19272 191.182225,123.69684 191.940354,128 C191.940354,128 196.085586,127.604109 201.561843,124.174822 C207.016932,120.766719 210.007109,115.122297 206.467851,107.895637 C202.756591,100.308834 193.553197,101.128421 189.144671,104.329972 C184.726883,107.543439 182,114.044521 182,114.044521" id="Fill-57" fill="#FFFFFF" mask="url(#mask-2)"></path>
            <path d="M183.354707,112.260679 C184.939403,113.268722 187.367846,115.111237 189.370411,117.929752 C190.845633,120.015266 191.688046,121.606772 192.407634,124.87657 C194.00034,124.453326 196.598334,123.544084 199.623541,121.649497 C202.800943,119.665455 207.579062,115.212709 203.880993,107.669076 C202.003923,103.833172 198.707702,102.899898 196.273918,102.79175 C193.750687,102.679597 191.04055,103.437966 189.208871,104.770452 C186.460017,106.767846 184.384025,110.26729 183.354707,112.260679 M190.834953,128.998198 C189.9605,128.959478 189.214211,128.318603 189.056676,127.436065 C188.330412,123.310432 187.686922,122.094105 186.287797,120.116738 C183.681793,116.457075 180.130578,114.769437 180.095867,114.750745 C179.176023,114.323495 178.754149,113.240683 179.146652,112.304739 C179.266806,112.016345 182.158509,105.221735 186.986024,101.711609 C189.517266,99.8717637 193.05513,98.8650559 196.440799,99.0145934 C201.328391,99.2308887 205.175985,101.714279 207.273337,106.005472 C210.876618,113.351501 208.76725,120.399791 201.628776,124.856543 C195.794638,128.508195 191.287533,128.974165 191.096621,128.990187 C191.008509,128.999533 190.920396,129.002203 190.834953,128.998198" id="Fill-58" fill="#694336" mask="url(#mask-2)"></path>
            <path d="M183.354707,112.260679 C184.939403,113.268722 187.367846,115.111237 189.370411,117.929752 C190.845633,120.015266 191.688046,121.606772 192.407634,124.87657 C194.00034,124.453326 196.598334,123.544084 199.623541,121.649497 C202.800943,119.665455 207.579062,115.212709 203.880993,107.669076 C202.003923,103.833172 198.707702,102.899898 196.273918,102.79175 C193.750687,102.679597 191.04055,103.437966 189.208871,104.770452 C186.460017,106.767846 184.384025,110.26729 183.354707,112.260679 Z M190.834953,128.998198 C189.9605,128.959478 189.214211,128.318603 189.056676,127.436065 C188.330412,123.310432 187.686922,122.094105 186.287797,120.116738 C183.681793,116.457075 180.130578,114.769437 180.095867,114.750745 C179.176023,114.323495 178.754149,113.240683 179.146652,112.304739 C179.266806,112.016345 182.158509,105.221735 186.986024,101.711609 C189.517266,99.8717637 193.05513,98.8650559 196.440799,99.0145934 C201.328391,99.2308887 205.175985,101.714279 207.273337,106.005472 C210.876618,113.351501 208.76725,120.399791 201.628776,124.856543 C195.794638,128.508195 191.287533,128.974165 191.096621,128.990187 C191.008509,128.999533 190.920396,129.002203 190.834953,128.998198 Z" id="Stroke-59" stroke="#6A4337" stroke-width="1.155" mask="url(#mask-2)"></path>
            <path d="M102.823134,85.5550059 C102.823134,85.5550059 98.5429815,84.4126571 93.5613855,85.7369256 C90.8972501,86.4445398 89.3378878,87.1347646 85.9493773,90 C85.9493773,90 82.9493585,87.0130389 80.8760541,80.8130547 C78.8148901,74.6451739 80.1327941,68.3261393 87.6085604,64.9873775 C95.4512355,61.4773973 102.143274,68.0465715 103.527275,73.3918006 C104.908579,78.7330168 102.823134,85.5550059 102.823134,85.5550059" id="Fill-60" fill="#FFFFFF" mask="url(#mask-2)"></path>
            <path d="M91.8898514,65.824032 C90.6042828,65.764759 89.2964589,66.0382228 87.9991082,66.6403818 C80.4938488,70.1186248 81.3107478,76.654812 82.4654031,80.2394768 C83.5663839,83.6611412 84.9606105,86.041488 85.8992589,87.3980297 C88.4808691,85.3207831 90.1146671,84.6229791 92.5352539,83.9561587 C94.5513187,83.4011486 96.6786598,83.1694453 98.8636028,83.2691316 C99.526024,83.3001152 100.117752,83.3566939 100.625696,83.4240495 C101.094365,81.2053561 101.714894,77.1438136 100.892759,73.839348 C99.968511,70.1388315 96.2636647,66.0234045 91.8898514,65.824032 M85.545793,91.998417 C85.0980695,91.9768632 84.6542734,91.7882675 84.3138988,91.4380184 C84.1842947,91.3033072 81.0698673,88.0352136 78.9451445,81.4411007 C76.3530612,73.3826771 79.1663879,66.5514724 86.4778956,63.1634859 C88.3041361,62.3161525 90.182742,61.92549 92.053493,62.0117052 C98.2024906,62.2932516 103.203379,67.7638732 104.48502,72.8909812 C105.936848,78.7199346 103.867109,85.8677105 103.778088,86.1681165 C103.48877,87.1515082 102.492519,87.7294192 101.527688,87.4573026 C101.517215,87.4559555 100.395288,87.1582438 98.698652,87.0801113 C96.8933576,86.9979375 95.1430468,87.1865331 93.4974667,87.6391627 C91.1986292,88.2749996 89.9510254,88.8057617 86.8300524,91.5430931 C86.462186,91.8677471 85.998753,92.0172765 85.545793,91.998417" id="Fill-61" fill="#694336" mask="url(#mask-2)"></path>
            <path d="M91.8898514,65.824032 C90.6042828,65.764759 89.2964589,66.0382228 87.9991082,66.6403818 C80.4938488,70.1186248 81.3107478,76.654812 82.4654031,80.2394768 C83.5663839,83.6611412 84.9606105,86.041488 85.8992589,87.3980297 C88.4808691,85.3207831 90.1146671,84.6229791 92.5352539,83.9561587 C94.5513187,83.4011486 96.6786598,83.1694453 98.8636028,83.2691316 C99.526024,83.3001152 100.117752,83.3566939 100.625696,83.4240495 C101.094365,81.2053561 101.714894,77.1438136 100.892759,73.839348 C99.968511,70.1388315 96.2636647,66.0234045 91.8898514,65.824032 Z M85.545793,91.998417 C85.0980695,91.9768632 84.6542734,91.7882675 84.3138988,91.4380184 C84.1842947,91.3033072 81.0698673,88.0352136 78.9451445,81.4411007 C76.3530612,73.3826771 79.1663879,66.5514724 86.4778956,63.1634859 C88.3041361,62.3161525 90.182742,61.92549 92.053493,62.0117052 C98.2024906,62.2932516 103.203379,67.7638732 104.48502,72.8909812 C105.936848,78.7199346 103.867109,85.8677105 103.778088,86.1681165 C103.48877,87.1515082 102.492519,87.7294192 101.527688,87.4573026 C101.517215,87.4559555 100.395288,87.1582438 98.698652,87.0801113 C96.8933576,86.9979375 95.1430468,87.1865331 93.4974667,87.6391627 C91.1986292,88.2749996 89.9510254,88.8057617 86.8300524,91.5430931 C86.462186,91.8677471 85.998753,92.0172765 85.545793,91.998417 Z" id="Stroke-62" stroke="#6A4337" stroke-width="1.155" mask="url(#mask-2)"></path>
            <g id="Group-65" mask="url(#mask-2)">
                <g transform="translate(43.000000, 79.000000)">
                    <path d="M19.1089438,70.7942667 C19.1089438,70.7942667 -0.88568125,49.7436 0.08425625,11.7569333 C0.08425625,11.7569333 1.11719375,-3.95373333 11.7445063,1.31693333" id="Fill-63" stroke="none" fill="#B62823" fill-rule="evenodd"></path>
                    <path d="M19.1089438,70.7942667 C19.1089438,70.7942667 -0.88568125,49.7436 0.08425625,11.7569333 C0.08425625,11.7569333 1.11719375,-3.95373333 11.7445063,1.31693333" id="Stroke-64" stroke="#6A4337" stroke-width="1.732" fill="none"></path>
                </g>
            </g>
            <path d="M61.0400026,151.998043 C60.5760971,151.976521 60.1188188,151.782821 59.7715524,151.416942 C58.925919,150.529148 39.0469068,129.162913 40.0356882,90.4860457 C40.1032858,89.455667 40.799144,81.0054851 45.8888498,78.0125442 C48.3329689,76.5759326 51.2330408,76.6674022 54.5095389,78.2909886 C55.4413262,78.7523723 55.8283559,79.8930527 55.3724031,80.8386875 C54.9191012,81.7843223 53.7964499,82.1757586 52.8633372,81.7130298 C50.7585318,80.673235 49.0937739,80.5373757 47.7749569,81.3054517 C44.9119974,82.9841889 43.923216,88.631095 43.7840444,90.6636045 C42.8403281,127.681912 62.2779675,148.567931 62.4754586,148.775083 C63.1938494,149.529708 63.1713168,150.7363 62.4264172,151.465367 C62.0407129,151.843352 61.5357187,152.020911 61.0400026,151.998043" id="Fill-66" fill="#694336" mask="url(#mask-2)"></path>
            <path d="M61.0400026,151.998043 C60.5760971,151.976521 60.1188188,151.782821 59.7715524,151.416942 C58.925919,150.529148 39.0469068,129.162913 40.0356882,90.4860457 C40.1032858,89.455667 40.799144,81.0054851 45.8888498,78.0125442 C48.3329689,76.5759326 51.2330408,76.6674022 54.5095389,78.2909886 C55.4413262,78.7523723 55.8283559,79.8930527 55.3724031,80.8386875 C54.9191012,81.7843223 53.7964499,82.1757586 52.8633372,81.7130298 C50.7585318,80.673235 49.0937739,80.5373757 47.7749569,81.3054517 C44.9119974,82.9841889 43.923216,88.631095 43.7840444,90.6636045 C42.8403281,127.681912 62.2779675,148.567931 62.4754586,148.775083 C63.1938494,149.529708 63.1713168,150.7363 62.4264172,151.465367 C62.0407129,151.843352 61.5357187,152.020911 61.0400026,151.998043 Z" id="Stroke-67" stroke="#6A4337" stroke-width="2.887" mask="url(#mask-2)"></path>
            <g id="Group-70" mask="url(#mask-2)">
                <g transform="translate(53.000000, 21.000000)">
                    <path d="M0.656,58.8138667 C0.656,58.8138667 2.54933333,28.6245333 31.8613333,4.4352 C31.8613333,4.4352 44.4013333,-5.0808 47.508,6.52053333" id="Fill-68" stroke="none" fill="#B62823" fill-rule="evenodd"></path>
                    <path d="M0.656,58.8138667 C0.656,58.8138667 2.54933333,28.6245333 31.8613333,4.4352 C31.8613333,4.4352 44.4013333,-5.0808 47.508,6.52053333" id="Stroke-69" stroke="#6A4337" stroke-width="1.732" fill="none"></path>
                </g>
            </g>
            <path d="M52.8182424,80.9981241 C52.8074973,80.9981241 52.7940658,80.9981241 52.7833207,80.9967871 C51.7356675,80.9299348 50.9391825,80.0327766 51.0036535,78.9885433 C51.0842422,77.7183491 53.3058041,47.6147474 83.1263099,23.1173816 C83.9496578,22.495655 90.7889522,17.520505 96.4140436,19.4364927 C99.1231671,20.3617288 100.980737,22.6306967 101.93437,26.1805552 C102.207028,27.1900253 101.605299,28.2275733 100.589881,28.4963197 C99.5838658,28.7744253 98.5335264,28.1687433 98.2622111,27.1579361 C97.6470507,24.8702496 96.6383488,23.5171585 95.1823796,23.0197773 C92.0206162,21.9340955 86.9959107,24.9451242 85.488902,26.0856249 C56.9873646,49.499983 54.8195285,78.9310503 54.8007245,79.2265375 C54.7362535,80.2574004 53.8524641,81.0435837 52.8182424,80.9981241" id="Fill-71" fill="#694336" mask="url(#mask-2)"></path>
            <path d="M52.8182424,80.9981241 C52.8074973,80.9981241 52.7940658,80.9981241 52.7833207,80.9967871 C51.7356675,80.9299348 50.9391825,80.0327766 51.0036535,78.9885433 C51.0842422,77.7183491 53.3058041,47.6147474 83.1263099,23.1173816 C83.9496578,22.495655 90.7889522,17.520505 96.4140436,19.4364927 C99.1231671,20.3617288 100.980737,22.6306967 101.93437,26.1805552 C102.207028,27.1900253 101.605299,28.2275733 100.589881,28.4963197 C99.5838658,28.7744253 98.5335264,28.1687433 98.2622111,27.1579361 C97.6470507,24.8702496 96.6383488,23.5171585 95.1823796,23.0197773 C92.0206162,21.9340955 86.9959107,24.9451242 85.488902,26.0856249 C56.9873646,49.499983 54.8195285,78.9310503 54.8007245,79.2265375 C54.7362535,80.2574004 53.8524641,81.0435837 52.8182424,80.9981241 Z" id="Stroke-72" stroke="#6A4337" stroke-width="2.887" mask="url(#mask-2)"></path>
            <path d="M180.906241,182 C188.391323,191.445114 173.401291,195.994706 173.401291,195.994706 C136.818301,205.465394 112.449067,189.525671 112.449067,189.525671 L111,183.685233" id="Fill-73" fill="#B62823" mask="url(#mask-2)"></path>
            <path d="M145.982331,200.910833 C124.69305,199.954275 111.613859,191.609824 110.867851,191.121369 C109.989488,190.547433 109.736808,189.361572 110.299656,188.47014 C110.863841,187.574638 112.032318,187.315485 112.914692,187.888064 C113.155339,188.048169 137.327043,203.381605 172.948219,194.168789 C174.8119,193.594854 180.063363,191.345244 181.048681,188.109226 C181.500564,186.630291 180.999215,184.998035 179.515222,183.128335 C178.858789,182.299318 178.987134,181.093104 179.798651,180.425548 C180.620863,179.756635 181.806721,179.893674 182.463154,180.714551 C184.766685,183.620861 185.507344,186.493252 184.661067,189.257097 C182.904341,195.007305 174.865377,197.594763 173.956265,197.872911 C163.574999,200.555346 154.169693,201.278532 145.982331,200.910833" id="Fill-74" fill="#694336" mask="url(#mask-2)"></path>
            <path d="M145.982331,200.910833 C124.69305,199.954275 111.613859,191.609824 110.867851,191.121369 C109.989488,190.547433 109.736808,189.361572 110.299656,188.47014 C110.863841,187.574638 112.032318,187.315485 112.914692,187.888064 C113.155339,188.048169 137.327043,203.381605 172.948219,194.168789 C174.8119,193.594854 180.063363,191.345244 181.048681,188.109226 C181.500564,186.630291 180.999215,184.998035 179.515222,183.128335 C178.858789,182.299318 178.987134,181.093104 179.798651,180.425548 C180.620863,179.756635 181.806721,179.893674 182.463154,180.714551 C184.766685,183.620861 185.507344,186.493252 184.661067,189.257097 C182.904341,195.007305 174.865377,197.594763 173.956265,197.872911 C163.574999,200.555346 154.169693,201.278532 145.982331,200.910833 Z" id="Stroke-75" stroke="#6A4337" stroke-width="1.732" mask="url(#mask-2)"></path>
            <path d="M227.528048,124 C240.050639,124.654265 233.048386,139.476701 233.048386,139.476701 C214.699962,174.539955 184.27111,183 184.27111,183 L182,174.377057" id="Fill-76" fill="#B62823" mask="url(#mask-2)"></path>
            <path d="M183.793261,184.997864 C183.006422,184.963027 182.295215,184.424393 182.069646,183.616443 C181.791001,182.60617 182.373501,181.56106 183.369987,181.279684 C183.664554,181.195271 212.966015,172.535597 230.513984,138.552104 C231.369821,136.703064 233.285834,131.05813 231.501182,128.050089 C230.675864,126.663309 229.078302,125.922352 226.615615,125.791044 C225.579323,125.736108 224.783196,124.845085 224.837598,123.798635 C224.889346,122.757545 225.766413,121.956294 226.797397,122.00185 C226.801378,122.00185 226.808012,122.00319 226.810666,122.00319 C230.568386,122.202833 233.232759,123.582914 234.728151,126.107256 C237.84897,131.374343 234.296915,139.346656 233.878949,140.239019 C215.510968,175.811615 185.645584,184.57446 184.381068,184.932209 C184.183363,184.985805 183.989639,185.007243 183.793261,184.997864" id="Fill-77" fill="#694336" mask="url(#mask-2)"></path>
            <path d="M183.793261,184.997864 C183.006422,184.963027 182.295215,184.424393 182.069646,183.616443 C181.791001,182.60617 182.373501,181.56106 183.369987,181.279684 C183.664554,181.195271 212.966015,172.535597 230.513984,138.552104 C231.369821,136.703064 233.285834,131.05813 231.501182,128.050089 C230.675864,126.663309 229.078302,125.922352 226.615615,125.791044 C225.579323,125.736108 224.783196,124.845085 224.837598,123.798635 C224.889346,122.757545 225.766413,121.956294 226.797397,122.00185 C226.801378,122.00185 226.808012,122.00319 226.810666,122.00319 C230.568386,122.202833 233.232759,123.582914 234.728151,126.107256 C237.84897,131.374343 234.296915,139.346656 233.878949,140.239019 C215.510968,175.811615 185.645584,184.57446 184.381068,184.932209 C184.183363,184.985805 183.989639,185.007243 183.793261,184.997864 Z" id="Stroke-78" stroke="#6A4337" stroke-width="2.887" mask="url(#mask-2)"></path>
            <g id="Group-81" mask="url(#mask-2)">
                <g transform="translate(146.000000, 17.000000)">
                    <path d="M0.977164557,0.103705 C0.977164557,0.103705 46.5458354,9.7270175 72.1512152,24.4368425 C95.0093165,37.57778 105.504,20.26518 103.640582,43.2608175 C102.886975,52.523005 95.6207089,91.65023 81.2808987,105.684617" id="Fill-79" stroke="none" fill="#B62823" fill-rule="evenodd"></path>
                    <path d="M0.977164557,0.103705 C0.977164557,0.103705 46.5458354,9.7270175 72.1512152,24.4368425 C95.0093165,37.57778 105.504,20.26518 103.640582,43.2608175 C102.886975,52.523005 95.6207089,91.65023 81.2808987,105.684617" id="Stroke-80" stroke="#6A4337" stroke-width="1.732" fill="none"></path>
                </g>
            </g>
            <path d="M226.377876,124.998056 C225.913789,124.976534 225.457704,124.785527 225.108306,124.422343 C224.38017,123.669073 224.396173,122.461151 225.145646,121.728058 C238.892205,108.244526 246.264243,69.3865587 247.013716,60.159002 C247.473802,54.4704689 247.171079,51.2556205 246.061539,50.0369374 C245.180042,49.0711377 243.298358,49.020023 239.993743,49.0052266 C234.690089,48.9998461 226.659261,48.9702533 216.365345,43.0382526 C191.231334,28.564709 145.954908,18.8717392 145.500156,18.7775804 C144.479967,18.5596702 143.825178,17.5494814 144.041218,16.5191158 C144.251924,15.4900952 145.241442,14.8067718 146.276301,15.0488943 C148.155317,15.4457061 192.582252,24.9570841 218.239028,39.7305906 C227.664782,45.1635499 234.807445,45.1796914 240.008412,45.1971781 C243.807786,45.2079391 246.801677,45.2173549 248.840723,47.4569879 C250.817091,49.6266743 251.361192,53.2759981 250.779751,60.4683808 C249.970267,70.3967474 242.490208,110.028162 227.77947,124.461351 C227.38873,124.842022 226.879302,125.020923 226.377876,124.998056" id="Fill-82" fill="#694336" mask="url(#mask-2)"></path>
            <path d="M226.377876,124.998056 C225.913789,124.976534 225.457704,124.785527 225.108306,124.422343 C224.38017,123.669073 224.396173,122.461151 225.145646,121.728058 C238.892205,108.244526 246.264243,69.3865587 247.013716,60.159002 C247.473802,54.4704689 247.171079,51.2556205 246.061539,50.0369374 C245.180042,49.0711377 243.298358,49.020023 239.993743,49.0052266 C234.690089,48.9998461 226.659261,48.9702533 216.365345,43.0382526 C191.231334,28.564709 145.954908,18.8717392 145.500156,18.7775804 C144.479967,18.5596702 143.825178,17.5494814 144.041218,16.5191158 C144.251924,15.4900952 145.241442,14.8067718 146.276301,15.0488943 C148.155317,15.4457061 192.582252,24.9570841 218.239028,39.7305906 C227.664782,45.1635499 234.807445,45.1796914 240.008412,45.1971781 C243.807786,45.2079391 246.801677,45.2173549 248.840723,47.4569879 C250.817091,49.6266743 251.361192,53.2759981 250.779751,60.4683808 C249.970267,70.3967474 242.490208,110.028162 227.77947,124.461351 C227.38873,124.842022 226.879302,125.020923 226.377876,124.998056 Z" id="Stroke-83" stroke="#6A4337" stroke-width="2.887" mask="url(#mask-2)"></path>
            <path d="M99,26.1851435 C99,26.1851435 122.230371,6.10533365 160.161609,10.676972 C160.161609,10.676972 175.780275,13.2275949 169.519142,23.7909332 L161.066009,39" id="Fill-84" fill="#B62823" mask="url(#mask-2)"></path>
            <path d="M99.7950451,28.9978861 C99.2873128,28.9746537 98.7928373,28.7423293 98.4415343,28.3118459 C97.7747214,27.4959773 97.8741468,26.2783242 98.6655728,25.5895507 C99.6293361,24.7504497 122.686744,5.08350704 160.61156,9.70129588 C161.616419,9.86392295 169.843537,11.3644652 172.315915,16.8650867 C173.501066,19.5081182 173.145786,22.4777706 171.254052,25.6865803 C170.715829,26.6035783 169.558518,26.8919339 168.674295,26.3370886 C167.788746,25.7808767 167.506378,24.5919225 168.044601,23.6776577 C169.264219,21.608604 169.545261,19.9140026 168.906287,18.492724 C167.516984,15.3987098 161.939883,13.8353034 160.095873,13.5332817 C123.969994,9.15465027 101.311614,28.3542109 101.086249,28.5469035 C100.711084,28.8721577 100.247099,29.019752 99.7950451,28.9978861" id="Fill-85" fill="#694336" mask="url(#mask-2)"></path>
            <path d="M99.7950451,28.9978861 C99.2873128,28.9746537 98.7928373,28.7423293 98.4415343,28.3118459 C97.7747214,27.4959773 97.8741468,26.2783242 98.6655728,25.5895507 C99.6293361,24.7504497 122.686744,5.08350704 160.61156,9.70129588 C161.616419,9.86392295 169.843537,11.3644652 172.315915,16.8650867 C173.501066,19.5081182 173.145786,22.4777706 171.254052,25.6865803 C170.715829,26.6035783 169.558518,26.8919339 168.674295,26.3370886 C167.788746,25.7808767 167.506378,24.5919225 168.044601,23.6776577 C169.264219,21.608604 169.545261,19.9140026 168.906287,18.492724 C167.516984,15.3987098 161.939883,13.8353034 160.095873,13.5332817 C123.969994,9.15465027 101.311614,28.3542109 101.086249,28.5469035 C100.711084,28.8721577 100.247099,29.019752 99.7950451,28.9978861 Z" id="Stroke-86" stroke="#6A4337" stroke-width="2.887" mask="url(#mask-2)"></path>
            <path d="M117.023582,158.174616 C116.17411,157.74101 115.78737,156.783999 116.117117,155.924484 L120.226063,145.21391 C120.593805,144.258181 121.710603,143.764281 122.722912,144.110652 C123.733865,144.458307 124.257661,145.514098 123.891275,146.47111 L120.38483,155.607619 C123.619878,156.958467 127.237596,159.200901 134.720003,157.980904 C135.77845,157.805153 136.786689,158.47737 136.971238,159.481847 C137.154431,160.485041 136.443372,161.438204 135.383568,161.610107 C124.37029,163.408673 117.499883,158.41451 117.030367,158.178464 C117.02901,158.177181 117.024939,158.175899 117.023582,158.174616" id="Fill-87" fill="#6A4337" mask="url(#mask-2)"></path>
            <path d="M131.747361,144.354137 C130.955442,146.437715 128.549438,147.512983 126.378535,146.759376 L117.762292,143.777772 C115.590014,143.022853 114.461255,140.723959 115.253174,138.641694 C116.042343,136.560742 118.451097,135.489413 120.623374,136.239081 L129.239617,139.225936 C131.41052,139.976917 132.537905,142.275811 131.747361,144.354137" id="Fill-88" fill="#EBA521" mask="url(#mask-2)"></path>
            <path d="M128.877349,141.120364 C128.780877,141.069713 128.68165,141.02706 128.578287,140.989738 L119.939961,137.958687 C119.384561,137.764081 118.780926,137.79074 118.242064,138.034663 C117.70458,138.277254 117.295266,138.707786 117.094054,139.247617 C116.675092,140.368599 117.282862,141.606878 118.422603,142.013417 L127.058173,145.037804 C127.614951,145.235075 128.21583,145.207084 128.753314,144.964493 C129.290798,144.72057 129.70149,144.286039 129.905458,143.743542 C130.108048,143.203711 130.080485,142.619894 129.828281,142.098724 C129.624313,141.67619 129.292176,141.336296 128.877349,141.120364 M116.246483,145.255069 C113.590763,143.868836 112.311828,140.765808 113.373013,137.942692 C113.932548,136.443161 115.066776,135.24487 116.564839,134.566416 C118.060146,133.890627 119.737371,133.817317 121.287804,134.358481 L129.927509,137.390865 C131.480699,137.929363 132.715533,139.030351 133.41564,140.477898 C134.114369,141.925445 134.18879,143.55027 133.626499,145.0498 L133.625121,145.051133 C133.061452,146.551996 131.928602,147.752954 130.433295,148.430075 C128.93661,149.109862 127.259385,149.184505 125.708952,148.63801 L117.073381,145.612291 C116.785345,145.510989 116.508334,145.391027 116.246483,145.255069" id="Fill-89" fill="#6A4337" mask="url(#mask-2)"></path>
            <path d="M105.628259,114.309737 C102.187513,113.084496 98.0215745,115.595122 95.4057527,120.0597 L99.3437329,124.385809 L93.4666821,124.845974 C92.143099,130.309208 93.6946404,135.382211 97.3633449,136.689974 C101.459471,138.147396 106.642674,134.327608 108.927956,128.145454 C111.210389,121.9633 109.727235,115.771355 105.628259,114.309737" id="Fill-90" fill="#6A4337" mask="url(#mask-2)"></path>
            <path d="M158.628259,133.30925 C155.187513,132.085385 151.021575,134.594658 148.405753,139.059317 L152.343733,143.386904 L146.466682,143.845679 C145.143099,149.310411 146.69464,154.383506 150.363345,155.689894 C154.459471,157.147343 159.642674,153.328884 161.927956,147.145219 C164.210389,140.964351 162.727235,134.770894 158.628259,133.30925" id="Fill-91" fill="#6A4337" mask="url(#mask-2)"></path>
        </g>
    </g>
</svg>