<svg xmlns="http://www.w3.org/2000/svg" width="686" height="574" viewBox="0 0 686 574">
    <defs>
        <radialGradient id="prefix__a" cx="50%" cy="55.188%" r="63.211%" fx="50%" fy="55.188%">
            <stop offset="0%" stop-color="#FFF" stop-opacity="0"/>
            <stop offset="100%" stop-color="#FFF"/>
        </radialGradient>
    </defs>
    <g fill="none" fill-rule="evenodd" opacity=".46">
        <path fill="url(#prefix__a)" d="M83.389 246.713c0 136.257 110.457 246.714 246.714 246.714 136.255 0 246.713-110.457 246.713-246.714C576.816 110.457 466.358 0 330.103 0 193.846 0 83.389 110.457 83.389 246.713" transform="translate(0 .163)"/>
        <path fill="#F1F1F1" d="M252.619 408.82c0 69.76-56.551 126.31-126.31 126.31C56.551 535.13 0 478.58 0 408.82c0-69.758 56.551-126.31 126.309-126.31 69.759 0 126.31 56.552 126.31 126.31" transform="translate(0 .163)"/>
        <path fill="#F1F1F1" d="M462.805 447.212c0 69.76-56.552 126.31-126.31 126.31-69.759 0-126.31-56.55-126.31-126.31 0-69.759 56.551-126.31 126.31-126.31 69.758 0 126.31 56.551 126.31 126.31M601.144 190.054c0 69.759-56.55 126.31-126.31 126.31-69.759 0-126.309-56.551-126.309-126.31 0-69.76 56.55-126.31 126.31-126.31 69.758 0 126.31 56.55 126.31 126.31" transform="translate(0 .163)"/>
        <path fill="#F1F1F1" d="M685.02 358.517c0 69.759-56.55 126.31-126.31 126.31-69.759 0-126.309-56.551-126.309-126.31 0-69.76 56.55-126.31 126.31-126.31 69.758 0 126.31 56.55 126.31 126.31" transform="translate(0 .163)"/>
        <path fill="#F1F1F1" d="M675.833 258.035c0 51.075-41.404 92.479-92.479 92.479-51.074 0-92.479-41.404-92.479-92.48 0-51.074 41.405-92.478 92.48-92.478 51.074 0 92.478 41.404 92.478 92.479M378.928 278.75c0 69.759-56.55 126.31-126.31 126.31-69.757 0-126.308-56.551-126.308-126.31 0-69.76 56.55-126.31 126.309-126.31 69.758 0 126.31 56.55 126.31 126.31" transform="translate(0 .163)"/>
        <path fill="#F1F1F1" d="M474.835 320.125c0 69.759-56.551 126.31-126.31 126.31-69.76 0-126.31-56.551-126.31-126.31s56.55-126.31 126.31-126.31c69.759 0 126.31 56.551 126.31 126.31" transform="translate(0 .163)"/>
        <path fill="#F1F1F1" d="M453.618 346.73c0 51.075-41.404 92.479-92.479 92.479-51.075 0-92.479-41.404-92.479-92.479 0-51.074 41.404-92.479 92.479-92.479 51.075 0 92.479 41.405 92.479 92.479" transform="translate(0 .163)"/>
    </g>
</svg>
