<svg width="347px" height="1365px" viewBox="0 0 347 1365" version="1.1" xmlns="http://www.w3.org/2000/svg" xmlns:xlink="http://www.w3.org/1999/xlink">
    <defs>
        <linearGradient x1="50%" y1="65.8408415%" x2="50%" y2="100%" id="linearGradient-1">
            <stop stop-color="#FFFFFF" stop-opacity="0" offset="0%"></stop>
            <stop stop-color="#FFFFFF" offset="100%"></stop>
        </linearGradient>
        <path d="M45.859,-0.001 L45.859,25.348 L71.207,39.983 L71.207,14.635 L45.859,-0.001 Z M0,42.878 L25.348,57.512 L25.348,32.164 L0,17.528 L0,42.878 Z M91.716,48.738 L117.066,63.373 L117.066,38.024 L91.716,23.39 L91.716,48.738 Z M45.859,72.129 L71.207,86.763 L71.207,61.414 L45.859,46.779 L45.859,72.129 Z M137.575,75.526 L162.923,90.162 L162.923,64.812 L137.575,50.178 L137.575,75.526 Z M0,89.232 L25.348,103.867 L25.348,78.518 L0,63.883 L0,89.232 Z M91.716,95.518 L117.066,110.153 L117.066,84.804 L91.716,70.169 L91.716,95.518 Z M183.433,102.314 L208.782,116.949 L208.782,91.6 L183.433,76.966 L183.433,102.314 Z M45.859,118.483 L71.207,133.118 L71.207,107.768 L45.859,93.135 L45.859,118.483 Z M137.575,122.306 L162.923,136.941 L162.923,111.593 L137.575,96.958 L137.575,122.306 Z M229.291,129.102 L254.64,143.738 L254.64,118.388 L229.291,103.754 L229.291,129.102 Z M0,136.012 L25.348,150.647 L25.348,125.298 L0,110.664 L0,136.012 Z M91.716,141.873 L117.066,156.508 L117.066,131.159 L91.716,116.524 L91.716,141.873 Z M183.433,149.094 L208.782,163.73 L208.782,138.381 L183.433,123.745 L183.433,149.094 Z M275.15,154.955 L300.498,169.59 L300.498,144.242 L275.15,129.606 L275.15,154.955 Z M45.859,165.262 L71.207,179.898 L71.207,154.549 L45.859,139.914 L45.859,165.262 Z M137.575,168.661 L162.923,183.296 L162.923,157.947 L137.575,143.312 L137.575,168.661 Z M229.291,175.259 L254.64,189.893 L254.64,164.545 L229.291,149.91 L229.291,175.259 Z M321.008,175.882 L346.357,190.517 L346.357,165.169 L321.008,150.534 L321.008,175.882 Z M0,182.792 L25.348,197.427 L25.348,172.078 L0,157.443 L0,182.792 Z M91.716,188.652 L117.066,203.288 L117.066,177.94 L91.716,163.304 L91.716,188.652 Z M183.433,195.449 L208.782,210.084 L208.782,184.736 L183.433,170.1 L183.433,195.449 Z M275.15,201.735 L300.498,216.37 L300.498,191.021 L275.15,176.386 L275.15,201.735 Z M45.859,212.043 L71.207,226.678 L71.207,201.329 L45.859,186.694 L45.859,212.043 Z M137.575,215.441 L162.923,230.076 L162.923,204.727 L137.575,190.092 L137.575,215.441 Z M229.291,222.237 L254.64,236.872 L254.64,211.523 L229.291,196.888 L229.291,222.237 Z M321.008,222.35 L346.357,236.986 L346.357,211.637 L321.008,197.002 L321.008,222.35 Z M0,229.572 L25.348,244.208 L25.348,218.858 L0,204.223 L0,229.572 Z M91.716,235.433 L117.066,250.068 L117.066,224.719 L91.716,210.084 L91.716,235.433 Z M183.433,242.229 L208.782,256.864 L208.782,231.516 L183.433,216.88 L183.433,242.229 Z M275.15,248.089 L300.498,262.725 L300.498,237.376 L275.15,222.741 L275.15,248.089 Z M45.859,258.823 L71.207,273.458 L71.207,248.109 L45.859,233.474 L45.859,258.823 Z M137.575,262.221 L162.923,276.856 L162.923,251.507 L137.575,236.872 L137.575,262.221 Z M229.291,268.393 L254.64,283.028 L254.64,257.68 L229.291,243.045 L229.291,268.393 Z M321.008,269.017 L346.357,283.652 L346.357,258.303 L321.008,243.669 L321.008,269.017 Z M0,276.352 L25.348,290.987 L25.348,265.638 L0,251.004 L0,276.352 Z M91.716,282.525 L117.066,297.16 L117.066,271.811 L91.716,257.176 L91.716,282.525 Z M183.433,289.009 L208.782,303.644 L208.782,278.295 L183.433,263.66 L183.433,289.009 Z M275.15,294.87 L300.498,309.504 L300.498,284.156 L275.15,269.521 L275.15,294.87 Z M45.859,305.603 L71.207,320.238 L71.207,294.889 L45.859,280.254 L45.859,305.603 Z M137.575,309 L162.923,323.636 L162.923,298.288 L137.575,283.652 L137.575,309 Z M229.291,315.174 L254.64,329.808 L254.64,304.46 L229.291,289.824 L229.291,315.174 Z M321.008,315.485 L346.357,330.121 L346.357,304.771 L321.008,290.136 L321.008,315.485 Z M0,323.132 L25.348,337.767 L25.348,312.419 L0,297.784 L0,323.132 Z M91.716,329.304 L117.066,343.94 L117.066,318.591 L91.716,303.956 L91.716,329.304 Z M183.433,335.478 L208.782,350.112 L208.782,324.764 L183.433,310.128 L183.433,335.478 Z M275.15,341.65 L300.498,356.285 L300.498,330.936 L275.15,316.301 L275.15,341.65 Z M45.859,352.382 L71.207,367.018 L71.207,341.669 L45.859,327.034 L45.859,352.382 Z M137.575,355.781 L162.923,370.416 L162.923,345.067 L137.575,330.432 L137.575,355.781 Z M229.291,361.954 L254.64,376.589 L254.64,351.239 L229.291,336.605 L229.291,361.954 Z M321.008,362.265 L346.357,376.9 L346.357,351.551 L321.008,336.917 L321.008,362.265 Z M0,369.911 L25.348,384.547 L25.348,359.199 L0,344.563 L0,369.911 Z M91.716,376.085 L117.066,390.72 L117.066,365.371 L91.716,350.736 L91.716,376.085 Z M183.433,382.257 L208.782,396.893 L208.782,371.544 L183.433,356.908 L183.433,382.257 Z M275.15,388.43 L300.498,403.065 L300.498,377.716 L275.15,363.08 L275.15,388.43 Z M45.859,396.389 L71.207,411.023 L71.207,385.675 L45.859,371.04 L45.859,396.389 Z M137.575,402.561 L162.923,417.196 L162.923,391.847 L137.575,377.212 L137.575,402.561 Z M229.291,408.734 L254.64,423.369 L254.64,398.019 L229.291,383.385 L229.291,408.734 Z M321.008,409.045 L346.357,423.68 L346.357,398.332 L321.008,383.697 L321.008,409.045 Z M0,416.693 L25.348,431.327 L25.348,405.978 L0,391.343 L0,416.693 Z M91.716,422.865 L117.066,437.5 L117.066,412.151 L91.716,397.516 L91.716,422.865 Z M183.433,429.037 L208.782,443.672 L208.782,418.323 L183.433,403.689 L183.433,429.037 Z M275.15,435.21 L300.498,449.845 L300.498,424.496 L275.15,409.862 L275.15,435.21 Z M45.859,443.168 L71.207,457.804 L71.207,432.455 L45.859,417.819 L45.859,443.168 Z M137.575,449.341 L162.923,463.976 L162.923,438.627 L137.575,423.992 L137.575,449.341 Z M229.291,455.513 L254.64,470.149 L254.64,444.8 L229.291,430.165 L229.291,455.513 Z M321.008,455.825 L346.357,470.46 L346.357,445.112 L321.008,430.476 L321.008,455.825 Z M0,463.472 L25.348,478.107 L25.348,452.758 L0,438.123 L0,463.472 Z M91.716,469.645 L117.066,484.28 L117.066,458.931 L91.716,444.296 L91.716,469.645 Z M183.433,475.817 L208.782,490.452 L208.782,465.104 L183.433,450.469 L183.433,475.817 Z M275.15,481.989 L300.498,496.625 L300.498,471.276 L275.15,456.641 L275.15,481.989 Z M45.859,489.949 L71.207,504.584 L71.207,479.234 L45.859,464.6 L45.859,489.949 Z M137.575,496.121 L162.923,510.756 L162.923,485.408 L137.575,470.773 L137.575,496.121 Z M229.291,502.293 L254.64,516.928 L254.64,491.58 L229.291,476.945 L229.291,502.293 Z M321.008,502.606 L346.357,517.241 L346.357,491.892 L321.008,477.256 L321.008,502.606 Z M0,510.252 L25.348,524.888 L25.348,499.538 L0,484.904 L0,510.252 Z M91.716,516.424 L117.066,531.06 L117.066,505.712 L91.716,491.076 L91.716,516.424 Z M183.433,522.597 L208.782,537.232 L208.782,511.884 L183.433,497.248 L183.433,522.597 Z M275.15,528.77 L300.498,543.405 L300.498,518.056 L275.15,503.421 L275.15,528.77 Z M45.859,536.728 L71.207,551.363 L71.207,526.015 L45.859,511.38 L45.859,536.728 Z M137.575,542.901 L162.923,557.536 L162.923,532.187 L137.575,517.552 L137.575,542.901 Z M229.291,549.074 L254.64,563.709 L254.64,538.36 L229.291,523.725 L229.291,549.074 Z M321.008,549.386 L346.357,564.02 L346.357,538.671 L321.008,524.036 L321.008,549.386 Z M0,557.032 L25.348,571.667 L25.348,546.319 L0,531.684 L0,557.032 Z M91.716,563.205 L117.066,577.84 L117.066,552.491 L91.716,537.856 L91.716,563.205 Z M183.433,569.378 L208.782,584.012 L208.782,558.664 L183.433,544.028 L183.433,569.378 Z M275.15,575.55 L300.498,590.185 L300.498,564.836 L275.15,550.201 L275.15,575.55 Z M45.859,583.509 L71.207,598.144 L71.207,572.795 L45.859,558.16 L45.859,583.509 Z M137.575,589.681 L162.923,604.317 L162.923,578.968 L137.575,564.332 L137.575,589.681 Z M229.291,595.854 L254.64,610.489 L254.64,585.14 L229.291,570.504 L229.291,595.854 Z M321.008,596.165 L346.357,610.801 L346.357,585.452 L321.008,570.817 L321.008,596.165 Z M0,603.812 L25.348,618.447 L25.348,593.099 L0,578.464 L0,603.812 Z M91.716,609.985 L117.066,624.62 L117.066,599.271 L91.716,584.636 L91.716,609.985 Z M183.433,616.158 L208.782,630.793 L208.782,605.443 L183.433,590.808 L183.433,616.158 Z M275.15,622.33 L300.498,636.965 L300.498,611.616 L275.15,596.981 L275.15,622.33 Z M45.859,630.289 L71.207,644.924 L71.207,619.575 L45.859,604.94 L45.859,630.289 Z M137.575,636.461 L162.923,651.096 L162.923,625.747 L137.575,611.112 L137.575,636.461 Z M229.291,642.634 L254.64,657.269 L254.64,631.92 L229.291,617.285 L229.291,642.634 Z M321.008,648.806 L346.357,663.441 L346.357,638.093 L321.008,623.458 L321.008,648.806 Z M0,650.28 L25.348,664.916 L25.348,639.567 L0,624.932 L0,650.28 Z M91.716,656.765 L117.066,671.4 L117.066,646.051 L91.716,631.416 L91.716,656.765 Z M183.433,662.937 L208.782,677.573 L208.782,652.223 L183.433,637.589 L183.433,662.937 Z M275.15,669.109 L300.498,683.745 L300.498,658.397 L275.15,643.761 L275.15,669.109 Z M45.859,679.531 L71.207,694.166 L71.207,668.818 L45.859,654.183 L45.859,679.531 Z M137.575,683.241 L162.923,697.876 L162.923,672.528 L137.575,657.893 L137.575,683.241 Z M229.291,689.414 L254.64,704.048 L254.64,678.7 L229.291,664.065 L229.291,689.414 Z M321.008,695.586 L346.357,710.221 L346.357,684.873 L321.008,670.238 L321.008,695.586 Z M0,697.061 L25.348,711.696 L25.348,686.347 L0,671.712 L0,697.061 Z M91.716,702.921 L117.066,717.556 L117.066,692.208 L91.716,677.573 L91.716,702.921 Z M183.433,709.717 L208.782,724.352 L208.782,699.004 L183.433,684.369 L183.433,709.717 Z M275.15,715.89 L300.498,730.525 L300.498,705.176 L275.15,690.541 L275.15,715.89 Z M45.859,726.312 L71.207,740.946 L71.207,715.598 L45.859,700.963 L45.859,726.312 Z M137.575,729.709 L162.923,744.345 L162.923,718.996 L137.575,704.361 L137.575,729.709 Z M229.291,736.194 L254.64,750.829 L254.64,725.48 L229.291,710.845 L229.291,736.194 Z M321.008,742.366 L346.357,757.002 L346.357,731.653 L321.008,717.017 L321.008,742.366 Z M0,743.841 L25.348,758.476 L25.348,733.127 L0,718.492 L0,743.841 Z M91.716,749.702 L117.066,764.337 L117.066,738.988 L91.716,724.352 L91.716,749.702 Z M183.433,756.498 L208.782,771.132 L208.782,745.784 L183.433,731.149 L183.433,756.498 Z M275.15,762.671 L300.498,777.305 L300.498,751.956 L275.15,737.321 L275.15,762.671 Z M45.859,773.091 L71.207,787.727 L71.207,762.378 L45.859,747.742 L45.859,773.091 Z M137.575,776.489 L162.923,791.124 L162.923,765.776 L137.575,751.141 L137.575,776.489 Z M229.291,783.285 L254.64,797.921 L254.64,772.572 L229.291,757.937 L229.291,783.285 Z M321.008,789.146 L346.357,803.782 L346.357,778.432 L321.008,763.797 L321.008,789.146 Z M0,790.62 L25.348,805.256 L25.348,779.907 L0,765.272 L0,790.62 Z M91.716,796.481 L117.066,811.117 L117.066,785.768 L91.716,771.132 L91.716,796.481 Z M183.433,803.278 L208.782,817.913 L208.782,792.564 L183.433,777.928 L183.433,803.278 Z M275.15,809.138 L300.498,823.773 L300.498,798.425 L275.15,783.789 L275.15,809.138 Z M45.859,819.871 L71.207,834.507 L71.207,809.157 L45.859,794.523 L45.859,819.871 Z M137.575,823.269 L162.923,837.904 L162.923,812.556 L137.575,797.921 L137.575,823.269 Z M229.291,829.442 L254.64,844.077 L254.64,818.728 L229.291,804.093 L229.291,829.442 Z M321.008,830.065 L346.357,844.7 L346.357,819.352 L321.008,804.717 L321.008,830.065 Z M0,837.4 L25.348,852.036 L25.348,826.687 L0,812.052 L0,837.4 Z M91.716,843.573 L117.066,858.208 L117.066,832.86 L91.716,818.224 L91.716,843.573 Z M183.433,850.057 L208.782,864.693 L208.782,839.344 L183.433,824.709 L183.433,850.057 Z M275.15,855.919 L300.498,870.554 L300.498,845.204 L275.15,830.569 L275.15,855.919 Z M45.859,866.651 L71.207,881.286 L71.207,855.938 L45.859,841.303 L45.859,866.651 Z M137.575,870.05 L162.923,884.684 L162.923,859.336 L137.575,844.7 L137.575,870.05 Z M229.291,876.222 L254.64,890.858 L254.64,865.508 L229.291,850.873 L229.291,876.222 Z M321.008,876.534 L346.357,891.169 L346.357,865.821 L321.008,851.185 L321.008,876.534 Z M0,884.18 L25.348,898.815 L25.348,873.467 L0,858.832 L0,884.18 Z M91.716,890.354 L117.066,904.989 L117.066,879.639 L91.716,865.004 L91.716,890.354 Z M183.433,896.526 L208.782,911.161 L208.782,885.812 L183.433,871.177 L183.433,896.526 Z M275.15,902.698 L300.498,917.333 L300.498,891.984 L275.15,877.35 L275.15,902.698 Z M45.859,913.431 L71.207,928.066 L71.207,902.718 L45.859,888.083 L45.859,913.431 Z M137.575,916.83 L162.923,931.465 L162.923,906.116 L137.575,891.48 L137.575,916.83 Z M229.291,923.002 L254.64,937.637 L254.64,912.288 L229.291,897.654 L229.291,923.002 Z M321.008,923.313 L346.357,937.949 L346.357,912.601 L321.008,897.965 L321.008,923.313 Z M0,930.961 L25.348,945.596 L25.348,920.247 L0,905.612 L0,930.961 Z M91.716,937.133 L117.066,951.769 L117.066,926.42 L91.716,911.784 L91.716,937.133 Z M183.433,943.306 L208.782,957.941 L208.782,932.592 L183.433,917.957 L183.433,943.306 Z M275.15,949.478 L300.498,964.114 L300.498,938.765 L275.15,924.13 L275.15,949.478 Z M45.859,957.437 L71.207,972.072 L71.207,946.723 L45.859,932.088 L45.859,957.437 Z M137.575,963.61 L162.923,978.245 L162.923,952.895 L137.575,938.261 L137.575,963.61 Z M229.291,969.782 L254.64,984.417 L254.64,959.069 L229.291,944.434 L229.291,969.782 Z M321.008,970.094 L346.357,984.728 L346.357,959.38 L321.008,944.745 L321.008,970.094 Z M0,977.741 L25.348,992.376 L25.348,967.027 L0,952.391 L0,977.741 Z M91.716,983.913 L117.066,998.549 L117.066,973.2 L91.716,958.565 L91.716,983.913 Z M183.433,990.086 L208.782,1004.721 L208.782,979.373 L183.433,964.737 L183.433,990.086 Z M275.15,996.258 L300.498,1010.893 L300.498,985.545 L275.15,970.91 L275.15,996.258 Z M45.859,1004.217 L71.207,1018.852 L71.207,993.503 L45.859,978.869 L45.859,1004.217 Z M137.575,1010.389 L162.923,1025.025 L162.923,999.676 L137.575,985.041 L137.575,1010.389 Z M229.291,1016.562 L254.64,1031.197 L254.64,1005.849 L229.291,991.213 L229.291,1016.562 Z M321.008,1016.874 L346.357,1031.509 L346.357,1006.16 L321.008,991.525 L321.008,1016.874 Z M0,1024.521 L25.348,1039.156 L25.348,1013.807 L0,999.173 L0,1024.521 Z M91.716,1030.693 L117.066,1045.328 L117.066,1019.98 L91.716,1005.345 L91.716,1030.693 Z M183.433,1036.866 L208.782,1051.5 L208.782,1026.152 L183.433,1011.517 L183.433,1036.866 Z M275.15,1043.039 L300.498,1057.674 L300.498,1032.324 L275.15,1017.69 L275.15,1043.039 Z M45.859,1050.997 L71.207,1065.632 L71.207,1040.284 L45.859,1025.648 L45.859,1050.997 Z M137.575,1057.17 L162.923,1071.805 L162.923,1046.456 L137.575,1031.821 L137.575,1057.17 Z M229.291,1063.342 L254.64,1077.978 L254.64,1052.629 L229.291,1037.993 L229.291,1063.342 Z M321.008,1063.654 L346.357,1078.289 L346.357,1052.94 L321.008,1038.305 L321.008,1063.654 Z M0,1071.301 L25.348,1085.936 L25.348,1060.587 L0,1045.952 L0,1071.301 Z M91.716,1077.473 L117.066,1092.108 L117.066,1066.76 L91.716,1052.125 L91.716,1077.473 Z M183.433,1083.646 L208.782,1098.282 L208.782,1072.932 L183.433,1058.297 L183.433,1083.646 Z M275.15,1089.819 L300.498,1104.454 L300.498,1079.105 L275.15,1064.469 L275.15,1089.819 Z M45.859,1097.778 L71.207,1112.412 L71.207,1087.063 L45.859,1072.428 L45.859,1097.778 Z M137.575,1103.95 L162.923,1118.585 L162.923,1093.236 L137.575,1078.601 L137.575,1103.95 Z M229.291,1110.123 L254.64,1124.757 L254.64,1099.408 L229.291,1084.773 L229.291,1110.123 Z M321.008,1110.434 L346.357,1125.069 L346.357,1099.721 L321.008,1085.086 L321.008,1110.434 Z M0,1118.081 L25.348,1132.716 L25.348,1107.367 L0,1092.732 L0,1118.081 Z M91.716,1124.253 L117.066,1138.889 L117.066,1113.54 L91.716,1098.904 L91.716,1124.253 Z M183.433,1130.426 L208.782,1145.061 L208.782,1119.712 L183.433,1105.077 L183.433,1130.426 Z M275.15,1136.598 L300.498,1151.234 L300.498,1125.885 L275.15,1111.25 L275.15,1136.598 Z M45.859,1144.557 L71.207,1159.193 L71.207,1133.843 L45.859,1119.208 L45.859,1144.557 Z M137.575,1150.73 L162.923,1165.365 L162.923,1140.016 L137.575,1125.381 L137.575,1150.73 Z M229.291,1156.902 L254.64,1171.537 L254.64,1146.188 L229.291,1131.554 L229.291,1156.902 Z M321.008,1157.214 L346.357,1171.849 L346.357,1146.5 L321.008,1131.865 L321.008,1157.214 Z M0,1164.861 L25.348,1179.496 L25.348,1154.147 L0,1139.512 L0,1164.861 Z M91.716,1171.034 L117.066,1185.669 L117.066,1160.319 L91.716,1145.684 L91.716,1171.034 Z M183.433,1177.206 L208.782,1191.841 L208.782,1166.493 L183.433,1151.858 L183.433,1177.206 Z M275.15,1183.378 L300.498,1198.013 L300.498,1172.665 L275.15,1158.03 L275.15,1183.378 Z M45.859,1191.337 L71.207,1205.973 L71.207,1180.623 L45.859,1165.989 L45.859,1191.337 Z M137.575,1197.509 L162.923,1212.145 L162.923,1186.796 L137.575,1172.161 L137.575,1197.509 Z M229.291,1203.682 L254.64,1218.317 L254.64,1192.969 L229.291,1178.333 L229.291,1203.682 Z M321.008,1209.855 L346.357,1224.49 L346.357,1199.141 L321.008,1184.506 L321.008,1209.855 Z M91.716,1217.813 L117.066,1232.448 L117.066,1207.1 L91.716,1192.465 L91.716,1217.813 Z M183.433,1223.986 L208.782,1238.621 L208.782,1213.273 L183.433,1198.637 L183.433,1223.986 Z M275.15,1230.158 L300.498,1244.793 L300.498,1219.445 L275.15,1204.81 L275.15,1230.158 Z M137.575,1244.29 L162.923,1258.925 L162.923,1233.576 L137.575,1218.941 L137.575,1244.29 Z M229.291,1250.462 L254.64,1265.097 L254.64,1239.749 L229.291,1225.114 L229.291,1250.462 Z M321.008,1256.635 L346.357,1271.27 L346.357,1245.921 L321.008,1231.286 L321.008,1256.635 Z M183.433,1270.766 L208.782,1285.401 L208.782,1260.053 L183.433,1245.417 L183.433,1270.766 Z M275.15,1276.939 L300.498,1291.574 L300.498,1266.225 L275.15,1251.589 L275.15,1276.939 Z M229.291,1297.243 L254.64,1311.878 L254.64,1286.528 L229.291,1271.893 L229.291,1297.243 Z M321.008,1303.415 L346.357,1318.05 L346.357,1292.701 L321.008,1278.066 L321.008,1303.415 Z M275.15,1323.719 L300.498,1338.354 L300.498,1313.004 L275.15,1298.37 L275.15,1323.719 Z M321.008,1350.194 L346.357,1364.83 L346.357,1339.482 L321.008,1324.846 L321.008,1350.194 Z" id="path-2"></path>
    </defs>
    <g id="Symbols" stroke="none" stroke-width="1" fill="none" fill-rule="evenodd">
        <g id="img/general/-_1" transform="translate(0.000000, -1.000000)">
            <g id="Group-3" transform="translate(0.000000, 1.000000)">
                <mask id="mask-3" fill="white">
                    <use xlink:href="#path-2"></use>
                </mask>
                <use id="Clip-2" fill="url(#linearGradient-1)" xlink:href="#path-2"></use>
                <path d="M45.859,-0.001 L45.859,25.348 L71.207,39.983 L71.207,14.635 L45.859,-0.001 Z M0,42.878 L25.348,57.512 L25.348,32.164 L0,17.528 L0,42.878 Z M91.716,48.738 L117.066,63.373 L117.066,38.024 L91.716,23.39 L91.716,48.738 Z M45.859,72.129 L71.207,86.763 L71.207,61.414 L45.859,46.779 L45.859,72.129 Z M137.575,75.526 L162.923,90.162 L162.923,64.812 L137.575,50.178 L137.575,75.526 Z M0,89.232 L25.348,103.867 L25.348,78.518 L0,63.883 L0,89.232 Z M91.716,95.518 L117.066,110.153 L117.066,84.804 L91.716,70.169 L91.716,95.518 Z M183.433,102.314 L208.782,116.949 L208.782,91.6 L183.433,76.966 L183.433,102.314 Z M45.859,118.483 L71.207,133.118 L71.207,107.768 L45.859,93.135 L45.859,118.483 Z M137.575,122.306 L162.923,136.941 L162.923,111.593 L137.575,96.958 L137.575,122.306 Z M229.291,129.102 L254.64,143.738 L254.64,118.388 L229.291,103.754 L229.291,129.102 Z M0,136.012 L25.348,150.647 L25.348,125.298 L0,110.664 L0,136.012 Z M91.716,141.873 L117.066,156.508 L117.066,131.159 L91.716,116.524 L91.716,141.873 Z M183.433,149.094 L208.782,163.73 L208.782,138.381 L183.433,123.745 L183.433,149.094 Z M275.15,154.955 L300.498,169.59 L300.498,144.242 L275.15,129.606 L275.15,154.955 Z M45.859,165.262 L71.207,179.898 L71.207,154.549 L45.859,139.914 L45.859,165.262 Z M137.575,168.661 L162.923,183.296 L162.923,157.947 L137.575,143.312 L137.575,168.661 Z M229.291,175.259 L254.64,189.893 L254.64,164.545 L229.291,149.91 L229.291,175.259 Z M321.008,175.882 L346.357,190.517 L346.357,165.169 L321.008,150.534 L321.008,175.882 Z M0,182.792 L25.348,197.427 L25.348,172.078 L0,157.443 L0,182.792 Z M91.716,188.652 L117.066,203.288 L117.066,177.94 L91.716,163.304 L91.716,188.652 Z M183.433,195.449 L208.782,210.084 L208.782,184.736 L183.433,170.1 L183.433,195.449 Z M275.15,201.735 L300.498,216.37 L300.498,191.021 L275.15,176.386 L275.15,201.735 Z M45.859,212.043 L71.207,226.678 L71.207,201.329 L45.859,186.694 L45.859,212.043 Z M137.575,215.441 L162.923,230.076 L162.923,204.727 L137.575,190.092 L137.575,215.441 Z M229.291,222.237 L254.64,236.872 L254.64,211.523 L229.291,196.888 L229.291,222.237 Z M321.008,222.35 L346.357,236.986 L346.357,211.637 L321.008,197.002 L321.008,222.35 Z M0,229.572 L25.348,244.208 L25.348,218.858 L0,204.223 L0,229.572 Z M91.716,235.433 L117.066,250.068 L117.066,224.719 L91.716,210.084 L91.716,235.433 Z M183.433,242.229 L208.782,256.864 L208.782,231.516 L183.433,216.88 L183.433,242.229 Z M275.15,248.089 L300.498,262.725 L300.498,237.376 L275.15,222.741 L275.15,248.089 Z M45.859,258.823 L71.207,273.458 L71.207,248.109 L45.859,233.474 L45.859,258.823 Z M137.575,262.221 L162.923,276.856 L162.923,251.507 L137.575,236.872 L137.575,262.221 Z M229.291,268.393 L254.64,283.028 L254.64,257.68 L229.291,243.045 L229.291,268.393 Z M321.008,269.017 L346.357,283.652 L346.357,258.303 L321.008,243.669 L321.008,269.017 Z M0,276.352 L25.348,290.987 L25.348,265.638 L0,251.004 L0,276.352 Z M91.716,282.525 L117.066,297.16 L117.066,271.811 L91.716,257.176 L91.716,282.525 Z M183.433,289.009 L208.782,303.644 L208.782,278.295 L183.433,263.66 L183.433,289.009 Z M275.15,294.87 L300.498,309.504 L300.498,284.156 L275.15,269.521 L275.15,294.87 Z M45.859,305.603 L71.207,320.238 L71.207,294.889 L45.859,280.254 L45.859,305.603 Z M137.575,309 L162.923,323.636 L162.923,298.288 L137.575,283.652 L137.575,309 Z M229.291,315.174 L254.64,329.808 L254.64,304.46 L229.291,289.824 L229.291,315.174 Z M321.008,315.485 L346.357,330.121 L346.357,304.771 L321.008,290.136 L321.008,315.485 Z M0,323.132 L25.348,337.767 L25.348,312.419 L0,297.784 L0,323.132 Z M91.716,329.304 L117.066,343.94 L117.066,318.591 L91.716,303.956 L91.716,329.304 Z M183.433,335.478 L208.782,350.112 L208.782,324.764 L183.433,310.128 L183.433,335.478 Z M275.15,341.65 L300.498,356.285 L300.498,330.936 L275.15,316.301 L275.15,341.65 Z M45.859,352.382 L71.207,367.018 L71.207,341.669 L45.859,327.034 L45.859,352.382 Z M137.575,355.781 L162.923,370.416 L162.923,345.067 L137.575,330.432 L137.575,355.781 Z M229.291,361.954 L254.64,376.589 L254.64,351.239 L229.291,336.605 L229.291,361.954 Z M321.008,362.265 L346.357,376.9 L346.357,351.551 L321.008,336.917 L321.008,362.265 Z M0,369.911 L25.348,384.547 L25.348,359.199 L0,344.563 L0,369.911 Z M91.716,376.085 L117.066,390.72 L117.066,365.371 L91.716,350.736 L91.716,376.085 Z M183.433,382.257 L208.782,396.893 L208.782,371.544 L183.433,356.908 L183.433,382.257 Z M275.15,388.43 L300.498,403.065 L300.498,377.716 L275.15,363.08 L275.15,388.43 Z M45.859,396.389 L71.207,411.023 L71.207,385.675 L45.859,371.04 L45.859,396.389 Z M137.575,402.561 L162.923,417.196 L162.923,391.847 L137.575,377.212 L137.575,402.561 Z M229.291,408.734 L254.64,423.369 L254.64,398.019 L229.291,383.385 L229.291,408.734 Z M321.008,409.045 L346.357,423.68 L346.357,398.332 L321.008,383.697 L321.008,409.045 Z M0,416.693 L25.348,431.327 L25.348,405.978 L0,391.343 L0,416.693 Z M91.716,422.865 L117.066,437.5 L117.066,412.151 L91.716,397.516 L91.716,422.865 Z M183.433,429.037 L208.782,443.672 L208.782,418.323 L183.433,403.689 L183.433,429.037 Z M275.15,435.21 L300.498,449.845 L300.498,424.496 L275.15,409.862 L275.15,435.21 Z M45.859,443.168 L71.207,457.804 L71.207,432.455 L45.859,417.819 L45.859,443.168 Z M137.575,449.341 L162.923,463.976 L162.923,438.627 L137.575,423.992 L137.575,449.341 Z M229.291,455.513 L254.64,470.149 L254.64,444.8 L229.291,430.165 L229.291,455.513 Z M321.008,455.825 L346.357,470.46 L346.357,445.112 L321.008,430.476 L321.008,455.825 Z M0,463.472 L25.348,478.107 L25.348,452.758 L0,438.123 L0,463.472 Z M91.716,469.645 L117.066,484.28 L117.066,458.931 L91.716,444.296 L91.716,469.645 Z M183.433,475.817 L208.782,490.452 L208.782,465.104 L183.433,450.469 L183.433,475.817 Z M275.15,481.989 L300.498,496.625 L300.498,471.276 L275.15,456.641 L275.15,481.989 Z M45.859,489.949 L71.207,504.584 L71.207,479.234 L45.859,464.6 L45.859,489.949 Z M137.575,496.121 L162.923,510.756 L162.923,485.408 L137.575,470.773 L137.575,496.121 Z M229.291,502.293 L254.64,516.928 L254.64,491.58 L229.291,476.945 L229.291,502.293 Z M321.008,502.606 L346.357,517.241 L346.357,491.892 L321.008,477.256 L321.008,502.606 Z M0,510.252 L25.348,524.888 L25.348,499.538 L0,484.904 L0,510.252 Z M91.716,516.424 L117.066,531.06 L117.066,505.712 L91.716,491.076 L91.716,516.424 Z M183.433,522.597 L208.782,537.232 L208.782,511.884 L183.433,497.248 L183.433,522.597 Z M275.15,528.77 L300.498,543.405 L300.498,518.056 L275.15,503.421 L275.15,528.77 Z M45.859,536.728 L71.207,551.363 L71.207,526.015 L45.859,511.38 L45.859,536.728 Z M137.575,542.901 L162.923,557.536 L162.923,532.187 L137.575,517.552 L137.575,542.901 Z M229.291,549.074 L254.64,563.709 L254.64,538.36 L229.291,523.725 L229.291,549.074 Z M321.008,549.386 L346.357,564.02 L346.357,538.671 L321.008,524.036 L321.008,549.386 Z M0,557.032 L25.348,571.667 L25.348,546.319 L0,531.684 L0,557.032 Z M91.716,563.205 L117.066,577.84 L117.066,552.491 L91.716,537.856 L91.716,563.205 Z M183.433,569.378 L208.782,584.012 L208.782,558.664 L183.433,544.028 L183.433,569.378 Z M275.15,575.55 L300.498,590.185 L300.498,564.836 L275.15,550.201 L275.15,575.55 Z M45.859,583.509 L71.207,598.144 L71.207,572.795 L45.859,558.16 L45.859,583.509 Z M137.575,589.681 L162.923,604.317 L162.923,578.968 L137.575,564.332 L137.575,589.681 Z M229.291,595.854 L254.64,610.489 L254.64,585.14 L229.291,570.504 L229.291,595.854 Z M321.008,596.165 L346.357,610.801 L346.357,585.452 L321.008,570.817 L321.008,596.165 Z M0,603.812 L25.348,618.447 L25.348,593.099 L0,578.464 L0,603.812 Z M91.716,609.985 L117.066,624.62 L117.066,599.271 L91.716,584.636 L91.716,609.985 Z M183.433,616.158 L208.782,630.793 L208.782,605.443 L183.433,590.808 L183.433,616.158 Z M275.15,622.33 L300.498,636.965 L300.498,611.616 L275.15,596.981 L275.15,622.33 Z M45.859,630.289 L71.207,644.924 L71.207,619.575 L45.859,604.94 L45.859,630.289 Z M137.575,636.461 L162.923,651.096 L162.923,625.747 L137.575,611.112 L137.575,636.461 Z M229.291,642.634 L254.64,657.269 L254.64,631.92 L229.291,617.285 L229.291,642.634 Z M321.008,648.806 L346.357,663.441 L346.357,638.093 L321.008,623.458 L321.008,648.806 Z M0,650.28 L25.348,664.916 L25.348,639.567 L0,624.932 L0,650.28 Z M91.716,656.765 L117.066,671.4 L117.066,646.051 L91.716,631.416 L91.716,656.765 Z M183.433,662.937 L208.782,677.573 L208.782,652.223 L183.433,637.589 L183.433,662.937 Z M275.15,669.109 L300.498,683.745 L300.498,658.397 L275.15,643.761 L275.15,669.109 Z M45.859,679.531 L71.207,694.166 L71.207,668.818 L45.859,654.183 L45.859,679.531 Z M137.575,683.241 L162.923,697.876 L162.923,672.528 L137.575,657.893 L137.575,683.241 Z M229.291,689.414 L254.64,704.048 L254.64,678.7 L229.291,664.065 L229.291,689.414 Z M321.008,695.586 L346.357,710.221 L346.357,684.873 L321.008,670.238 L321.008,695.586 Z M0,697.061 L25.348,711.696 L25.348,686.347 L0,671.712 L0,697.061 Z M91.716,702.921 L117.066,717.556 L117.066,692.208 L91.716,677.573 L91.716,702.921 Z M183.433,709.717 L208.782,724.352 L208.782,699.004 L183.433,684.369 L183.433,709.717 Z M275.15,715.89 L300.498,730.525 L300.498,705.176 L275.15,690.541 L275.15,715.89 Z M45.859,726.312 L71.207,740.946 L71.207,715.598 L45.859,700.963 L45.859,726.312 Z M137.575,729.709 L162.923,744.345 L162.923,718.996 L137.575,704.361 L137.575,729.709 Z M229.291,736.194 L254.64,750.829 L254.64,725.48 L229.291,710.845 L229.291,736.194 Z M321.008,742.366 L346.357,757.002 L346.357,731.653 L321.008,717.017 L321.008,742.366 Z M0,743.841 L25.348,758.476 L25.348,733.127 L0,718.492 L0,743.841 Z M91.716,749.702 L117.066,764.337 L117.066,738.988 L91.716,724.352 L91.716,749.702 Z M183.433,756.498 L208.782,771.132 L208.782,745.784 L183.433,731.149 L183.433,756.498 Z M275.15,762.671 L300.498,777.305 L300.498,751.956 L275.15,737.321 L275.15,762.671 Z M45.859,773.091 L71.207,787.727 L71.207,762.378 L45.859,747.742 L45.859,773.091 Z M137.575,776.489 L162.923,791.124 L162.923,765.776 L137.575,751.141 L137.575,776.489 Z M229.291,783.285 L254.64,797.921 L254.64,772.572 L229.291,757.937 L229.291,783.285 Z M321.008,789.146 L346.357,803.782 L346.357,778.432 L321.008,763.797 L321.008,789.146 Z M0,790.62 L25.348,805.256 L25.348,779.907 L0,765.272 L0,790.62 Z M91.716,796.481 L117.066,811.117 L117.066,785.768 L91.716,771.132 L91.716,796.481 Z M183.433,803.278 L208.782,817.913 L208.782,792.564 L183.433,777.928 L183.433,803.278 Z M275.15,809.138 L300.498,823.773 L300.498,798.425 L275.15,783.789 L275.15,809.138 Z M45.859,819.871 L71.207,834.507 L71.207,809.157 L45.859,794.523 L45.859,819.871 Z M137.575,823.269 L162.923,837.904 L162.923,812.556 L137.575,797.921 L137.575,823.269 Z M229.291,829.442 L254.64,844.077 L254.64,818.728 L229.291,804.093 L229.291,829.442 Z M321.008,830.065 L346.357,844.7 L346.357,819.352 L321.008,804.717 L321.008,830.065 Z M0,837.4 L25.348,852.036 L25.348,826.687 L0,812.052 L0,837.4 Z M91.716,843.573 L117.066,858.208 L117.066,832.86 L91.716,818.224 L91.716,843.573 Z M183.433,850.057 L208.782,864.693 L208.782,839.344 L183.433,824.709 L183.433,850.057 Z M275.15,855.919 L300.498,870.554 L300.498,845.204 L275.15,830.569 L275.15,855.919 Z M45.859,866.651 L71.207,881.286 L71.207,855.938 L45.859,841.303 L45.859,866.651 Z M137.575,870.05 L162.923,884.684 L162.923,859.336 L137.575,844.7 L137.575,870.05 Z M229.291,876.222 L254.64,890.858 L254.64,865.508 L229.291,850.873 L229.291,876.222 Z M321.008,876.534 L346.357,891.169 L346.357,865.821 L321.008,851.185 L321.008,876.534 Z M0,884.18 L25.348,898.815 L25.348,873.467 L0,858.832 L0,884.18 Z M91.716,890.354 L117.066,904.989 L117.066,879.639 L91.716,865.004 L91.716,890.354 Z M183.433,896.526 L208.782,911.161 L208.782,885.812 L183.433,871.177 L183.433,896.526 Z M275.15,902.698 L300.498,917.333 L300.498,891.984 L275.15,877.35 L275.15,902.698 Z M45.859,913.431 L71.207,928.066 L71.207,902.718 L45.859,888.083 L45.859,913.431 Z M137.575,916.83 L162.923,931.465 L162.923,906.116 L137.575,891.48 L137.575,916.83 Z M229.291,923.002 L254.64,937.637 L254.64,912.288 L229.291,897.654 L229.291,923.002 Z M321.008,923.313 L346.357,937.949 L346.357,912.601 L321.008,897.965 L321.008,923.313 Z M0,930.961 L25.348,945.596 L25.348,920.247 L0,905.612 L0,930.961 Z M91.716,937.133 L117.066,951.769 L117.066,926.42 L91.716,911.784 L91.716,937.133 Z M183.433,943.306 L208.782,957.941 L208.782,932.592 L183.433,917.957 L183.433,943.306 Z M275.15,949.478 L300.498,964.114 L300.498,938.765 L275.15,924.13 L275.15,949.478 Z M45.859,957.437 L71.207,972.072 L71.207,946.723 L45.859,932.088 L45.859,957.437 Z M137.575,963.61 L162.923,978.245 L162.923,952.895 L137.575,938.261 L137.575,963.61 Z M229.291,969.782 L254.64,984.417 L254.64,959.069 L229.291,944.434 L229.291,969.782 Z M321.008,970.094 L346.357,984.728 L346.357,959.38 L321.008,944.745 L321.008,970.094 Z M0,977.741 L25.348,992.376 L25.348,967.027 L0,952.391 L0,977.741 Z M91.716,983.913 L117.066,998.549 L117.066,973.2 L91.716,958.565 L91.716,983.913 Z M183.433,990.086 L208.782,1004.721 L208.782,979.373 L183.433,964.737 L183.433,990.086 Z M275.15,996.258 L300.498,1010.893 L300.498,985.545 L275.15,970.91 L275.15,996.258 Z M45.859,1004.217 L71.207,1018.852 L71.207,993.503 L45.859,978.869 L45.859,1004.217 Z M137.575,1010.389 L162.923,1025.025 L162.923,999.676 L137.575,985.041 L137.575,1010.389 Z M229.291,1016.562 L254.64,1031.197 L254.64,1005.849 L229.291,991.213 L229.291,1016.562 Z M321.008,1016.874 L346.357,1031.509 L346.357,1006.16 L321.008,991.525 L321.008,1016.874 Z M0,1024.521 L25.348,1039.156 L25.348,1013.807 L0,999.173 L0,1024.521 Z M91.716,1030.693 L117.066,1045.328 L117.066,1019.98 L91.716,1005.345 L91.716,1030.693 Z M183.433,1036.866 L208.782,1051.5 L208.782,1026.152 L183.433,1011.517 L183.433,1036.866 Z M275.15,1043.039 L300.498,1057.674 L300.498,1032.324 L275.15,1017.69 L275.15,1043.039 Z M45.859,1050.997 L71.207,1065.632 L71.207,1040.284 L45.859,1025.648 L45.859,1050.997 Z M137.575,1057.17 L162.923,1071.805 L162.923,1046.456 L137.575,1031.821 L137.575,1057.17 Z M229.291,1063.342 L254.64,1077.978 L254.64,1052.629 L229.291,1037.993 L229.291,1063.342 Z M321.008,1063.654 L346.357,1078.289 L346.357,1052.94 L321.008,1038.305 L321.008,1063.654 Z M0,1071.301 L25.348,1085.936 L25.348,1060.587 L0,1045.952 L0,1071.301 Z M91.716,1077.473 L117.066,1092.108 L117.066,1066.76 L91.716,1052.125 L91.716,1077.473 Z M183.433,1083.646 L208.782,1098.282 L208.782,1072.932 L183.433,1058.297 L183.433,1083.646 Z M275.15,1089.819 L300.498,1104.454 L300.498,1079.105 L275.15,1064.469 L275.15,1089.819 Z M45.859,1097.778 L71.207,1112.412 L71.207,1087.063 L45.859,1072.428 L45.859,1097.778 Z M137.575,1103.95 L162.923,1118.585 L162.923,1093.236 L137.575,1078.601 L137.575,1103.95 Z M229.291,1110.123 L254.64,1124.757 L254.64,1099.408 L229.291,1084.773 L229.291,1110.123 Z M321.008,1110.434 L346.357,1125.069 L346.357,1099.721 L321.008,1085.086 L321.008,1110.434 Z M0,1118.081 L25.348,1132.716 L25.348,1107.367 L0,1092.732 L0,1118.081 Z M91.716,1124.253 L117.066,1138.889 L117.066,1113.54 L91.716,1098.904 L91.716,1124.253 Z M183.433,1130.426 L208.782,1145.061 L208.782,1119.712 L183.433,1105.077 L183.433,1130.426 Z M275.15,1136.598 L300.498,1151.234 L300.498,1125.885 L275.15,1111.25 L275.15,1136.598 Z M45.859,1144.557 L71.207,1159.193 L71.207,1133.843 L45.859,1119.208 L45.859,1144.557 Z M137.575,1150.73 L162.923,1165.365 L162.923,1140.016 L137.575,1125.381 L137.575,1150.73 Z M229.291,1156.902 L254.64,1171.537 L254.64,1146.188 L229.291,1131.554 L229.291,1156.902 Z M321.008,1157.214 L346.357,1171.849 L346.357,1146.5 L321.008,1131.865 L321.008,1157.214 Z M0,1164.861 L25.348,1179.496 L25.348,1154.147 L0,1139.512 L0,1164.861 Z M91.716,1171.034 L117.066,1185.669 L117.066,1160.319 L91.716,1145.684 L91.716,1171.034 Z M183.433,1177.206 L208.782,1191.841 L208.782,1166.493 L183.433,1151.858 L183.433,1177.206 Z M275.15,1183.378 L300.498,1198.013 L300.498,1172.665 L275.15,1158.03 L275.15,1183.378 Z M45.859,1191.337 L71.207,1205.973 L71.207,1180.623 L45.859,1165.989 L45.859,1191.337 Z M137.575,1197.509 L162.923,1212.145 L162.923,1186.796 L137.575,1172.161 L137.575,1197.509 Z M229.291,1203.682 L254.64,1218.317 L254.64,1192.969 L229.291,1178.333 L229.291,1203.682 Z M321.008,1209.855 L346.357,1224.49 L346.357,1199.141 L321.008,1184.506 L321.008,1209.855 Z M91.716,1217.813 L117.066,1232.448 L117.066,1207.1 L91.716,1192.465 L91.716,1217.813 Z M183.433,1223.986 L208.782,1238.621 L208.782,1213.273 L183.433,1198.637 L183.433,1223.986 Z M275.15,1230.158 L300.498,1244.793 L300.498,1219.445 L275.15,1204.81 L275.15,1230.158 Z M137.575,1244.29 L162.923,1258.925 L162.923,1233.576 L137.575,1218.941 L137.575,1244.29 Z M229.291,1250.462 L254.64,1265.097 L254.64,1239.749 L229.291,1225.114 L229.291,1250.462 Z M321.008,1256.635 L346.357,1271.27 L346.357,1245.921 L321.008,1231.286 L321.008,1256.635 Z M183.433,1270.766 L208.782,1285.401 L208.782,1260.053 L183.433,1245.417 L183.433,1270.766 Z M275.15,1276.939 L300.498,1291.574 L300.498,1266.225 L275.15,1251.589 L275.15,1276.939 Z M229.291,1297.243 L254.64,1311.878 L254.64,1286.528 L229.291,1271.893 L229.291,1297.243 Z M321.008,1303.415 L346.357,1318.05 L346.357,1292.701 L321.008,1278.066 L321.008,1303.415 Z M275.15,1323.719 L300.498,1338.354 L300.498,1313.004 L275.15,1298.37 L275.15,1323.719 Z M321.008,1350.194 L346.357,1364.83 L346.357,1339.482 L321.008,1324.846 L321.008,1350.194 Z" id="Fill-1" mask="url(#mask-3)"></path>
            </g>
        </g>
    </g>
</svg>