<svg width="347px" height="1366px" viewBox="0 0 347 1366" version="1.1" xmlns="http://www.w3.org/2000/svg" xmlns:xlink="http://www.w3.org/1999/xlink">
    <defs>
        <linearGradient x1="50%" y1="50%" x2="50%" y2="100%" id="linearGradient-1">
            <stop stop-color="#EEEEEE" stop-opacity="0" offset="0%"></stop>
            <stop stop-color="#D8D8D8" offset="100%"></stop>
        </linearGradient>
        <path d="M45.859,0.999 L45.859,26.348 L71.207,40.983 L71.207,15.635 L45.859,0.999 Z M0,43.878 L25.348,58.512 L25.348,33.164 L0,18.528 L0,43.878 Z M91.716,49.738 L117.066,64.373 L117.066,39.024 L91.716,24.39 L91.716,49.738 Z M45.859,73.129 L71.207,87.763 L71.207,62.414 L45.859,47.779 L45.859,73.129 Z M137.575,76.526 L162.923,91.162 L162.923,65.812 L137.575,51.178 L137.575,76.526 Z M0,90.232 L25.348,104.867 L25.348,79.518 L0,64.883 L0,90.232 Z M91.716,96.518 L117.066,111.153 L117.066,85.804 L91.716,71.169 L91.716,96.518 Z M183.433,103.314 L208.782,117.949 L208.782,92.6 L183.433,77.966 L183.433,103.314 Z M45.859,119.483 L71.207,134.118 L71.207,108.768 L45.859,94.135 L45.859,119.483 Z M137.575,123.306 L162.923,137.941 L162.923,112.593 L137.575,97.958 L137.575,123.306 Z M229.291,130.102 L254.64,144.738 L254.64,119.388 L229.291,104.754 L229.291,130.102 Z M0,137.012 L25.348,151.647 L25.348,126.298 L0,111.664 L0,137.012 Z M91.716,142.873 L117.066,157.508 L117.066,132.159 L91.716,117.524 L91.716,142.873 Z M183.433,150.094 L208.782,164.73 L208.782,139.381 L183.433,124.745 L183.433,150.094 Z M275.15,155.955 L300.498,170.59 L300.498,145.242 L275.15,130.606 L275.15,155.955 Z M45.859,166.262 L71.207,180.898 L71.207,155.549 L45.859,140.914 L45.859,166.262 Z M137.575,169.661 L162.923,184.296 L162.923,158.947 L137.575,144.312 L137.575,169.661 Z M229.291,176.259 L254.64,190.893 L254.64,165.545 L229.291,150.91 L229.291,176.259 Z M321.008,176.882 L346.357,191.517 L346.357,166.169 L321.008,151.534 L321.008,176.882 Z M0,183.792 L25.348,198.427 L25.348,173.078 L0,158.443 L0,183.792 Z M91.716,189.652 L117.066,204.288 L117.066,178.94 L91.716,164.304 L91.716,189.652 Z M183.433,196.449 L208.782,211.084 L208.782,185.736 L183.433,171.1 L183.433,196.449 Z M275.15,202.735 L300.498,217.37 L300.498,192.021 L275.15,177.386 L275.15,202.735 Z M45.859,213.043 L71.207,227.678 L71.207,202.329 L45.859,187.694 L45.859,213.043 Z M137.575,216.441 L162.923,231.076 L162.923,205.727 L137.575,191.092 L137.575,216.441 Z M229.291,223.237 L254.64,237.872 L254.64,212.523 L229.291,197.888 L229.291,223.237 Z M321.008,223.35 L346.357,237.986 L346.357,212.637 L321.008,198.002 L321.008,223.35 Z M0,230.572 L25.348,245.208 L25.348,219.858 L0,205.223 L0,230.572 Z M91.716,236.433 L117.066,251.068 L117.066,225.719 L91.716,211.084 L91.716,236.433 Z M183.433,243.229 L208.782,257.864 L208.782,232.516 L183.433,217.88 L183.433,243.229 Z M275.15,249.089 L300.498,263.725 L300.498,238.376 L275.15,223.741 L275.15,249.089 Z M45.859,259.823 L71.207,274.458 L71.207,249.109 L45.859,234.474 L45.859,259.823 Z M137.575,263.221 L162.923,277.856 L162.923,252.507 L137.575,237.872 L137.575,263.221 Z M229.291,269.393 L254.64,284.028 L254.64,258.68 L229.291,244.045 L229.291,269.393 Z M321.008,270.017 L346.357,284.652 L346.357,259.303 L321.008,244.669 L321.008,270.017 Z M0,277.352 L25.348,291.987 L25.348,266.638 L0,252.004 L0,277.352 Z M91.716,283.525 L117.066,298.16 L117.066,272.811 L91.716,258.176 L91.716,283.525 Z M183.433,290.009 L208.782,304.644 L208.782,279.295 L183.433,264.66 L183.433,290.009 Z M275.15,295.87 L300.498,310.504 L300.498,285.156 L275.15,270.521 L275.15,295.87 Z M45.859,306.603 L71.207,321.238 L71.207,295.889 L45.859,281.254 L45.859,306.603 Z M137.575,310 L162.923,324.636 L162.923,299.288 L137.575,284.652 L137.575,310 Z M229.291,316.174 L254.64,330.808 L254.64,305.46 L229.291,290.824 L229.291,316.174 Z M321.008,316.485 L346.357,331.121 L346.357,305.771 L321.008,291.136 L321.008,316.485 Z M0,324.132 L25.348,338.767 L25.348,313.419 L0,298.784 L0,324.132 Z M91.716,330.304 L117.066,344.94 L117.066,319.591 L91.716,304.956 L91.716,330.304 Z M183.433,336.478 L208.782,351.112 L208.782,325.764 L183.433,311.128 L183.433,336.478 Z M275.15,342.65 L300.498,357.285 L300.498,331.936 L275.15,317.301 L275.15,342.65 Z M45.859,353.382 L71.207,368.018 L71.207,342.669 L45.859,328.034 L45.859,353.382 Z M137.575,356.781 L162.923,371.416 L162.923,346.067 L137.575,331.432 L137.575,356.781 Z M229.291,362.954 L254.64,377.589 L254.64,352.239 L229.291,337.605 L229.291,362.954 Z M321.008,363.265 L346.357,377.9 L346.357,352.551 L321.008,337.917 L321.008,363.265 Z M0,370.911 L25.348,385.547 L25.348,360.199 L0,345.563 L0,370.911 Z M91.716,377.085 L117.066,391.72 L117.066,366.371 L91.716,351.736 L91.716,377.085 Z M183.433,383.257 L208.782,397.893 L208.782,372.544 L183.433,357.908 L183.433,383.257 Z M275.15,389.43 L300.498,404.065 L300.498,378.716 L275.15,364.08 L275.15,389.43 Z M45.859,397.389 L71.207,412.023 L71.207,386.675 L45.859,372.04 L45.859,397.389 Z M137.575,403.561 L162.923,418.196 L162.923,392.847 L137.575,378.212 L137.575,403.561 Z M229.291,409.734 L254.64,424.369 L254.64,399.019 L229.291,384.385 L229.291,409.734 Z M321.008,410.045 L346.357,424.68 L346.357,399.332 L321.008,384.697 L321.008,410.045 Z M0,417.693 L25.348,432.327 L25.348,406.978 L0,392.343 L0,417.693 Z M91.716,423.865 L117.066,438.5 L117.066,413.151 L91.716,398.516 L91.716,423.865 Z M183.433,430.037 L208.782,444.672 L208.782,419.323 L183.433,404.689 L183.433,430.037 Z M275.15,436.21 L300.498,450.845 L300.498,425.496 L275.15,410.862 L275.15,436.21 Z M45.859,444.168 L71.207,458.804 L71.207,433.455 L45.859,418.819 L45.859,444.168 Z M137.575,450.341 L162.923,464.976 L162.923,439.627 L137.575,424.992 L137.575,450.341 Z M229.291,456.513 L254.64,471.149 L254.64,445.8 L229.291,431.165 L229.291,456.513 Z M321.008,456.825 L346.357,471.46 L346.357,446.112 L321.008,431.476 L321.008,456.825 Z M0,464.472 L25.348,479.107 L25.348,453.758 L0,439.123 L0,464.472 Z M91.716,470.645 L117.066,485.28 L117.066,459.931 L91.716,445.296 L91.716,470.645 Z M183.433,476.817 L208.782,491.452 L208.782,466.104 L183.433,451.469 L183.433,476.817 Z M275.15,482.989 L300.498,497.625 L300.498,472.276 L275.15,457.641 L275.15,482.989 Z M45.859,490.949 L71.207,505.584 L71.207,480.234 L45.859,465.6 L45.859,490.949 Z M137.575,497.121 L162.923,511.756 L162.923,486.408 L137.575,471.773 L137.575,497.121 Z M229.291,503.293 L254.64,517.928 L254.64,492.58 L229.291,477.945 L229.291,503.293 Z M321.008,503.606 L346.357,518.241 L346.357,492.892 L321.008,478.256 L321.008,503.606 Z M0,511.252 L25.348,525.888 L25.348,500.538 L0,485.904 L0,511.252 Z M91.716,517.424 L117.066,532.06 L117.066,506.712 L91.716,492.076 L91.716,517.424 Z M183.433,523.597 L208.782,538.232 L208.782,512.884 L183.433,498.248 L183.433,523.597 Z M275.15,529.77 L300.498,544.405 L300.498,519.056 L275.15,504.421 L275.15,529.77 Z M45.859,537.728 L71.207,552.363 L71.207,527.015 L45.859,512.38 L45.859,537.728 Z M137.575,543.901 L162.923,558.536 L162.923,533.187 L137.575,518.552 L137.575,543.901 Z M229.291,550.074 L254.64,564.709 L254.64,539.36 L229.291,524.725 L229.291,550.074 Z M321.008,550.386 L346.357,565.02 L346.357,539.671 L321.008,525.036 L321.008,550.386 Z M0,558.032 L25.348,572.667 L25.348,547.319 L0,532.684 L0,558.032 Z M91.716,564.205 L117.066,578.84 L117.066,553.491 L91.716,538.856 L91.716,564.205 Z M183.433,570.378 L208.782,585.012 L208.782,559.664 L183.433,545.028 L183.433,570.378 Z M275.15,576.55 L300.498,591.185 L300.498,565.836 L275.15,551.201 L275.15,576.55 Z M45.859,584.509 L71.207,599.144 L71.207,573.795 L45.859,559.16 L45.859,584.509 Z M137.575,590.681 L162.923,605.317 L162.923,579.968 L137.575,565.332 L137.575,590.681 Z M229.291,596.854 L254.64,611.489 L254.64,586.14 L229.291,571.504 L229.291,596.854 Z M321.008,597.165 L346.357,611.801 L346.357,586.452 L321.008,571.817 L321.008,597.165 Z M0,604.812 L25.348,619.447 L25.348,594.099 L0,579.464 L0,604.812 Z M91.716,610.985 L117.066,625.62 L117.066,600.271 L91.716,585.636 L91.716,610.985 Z M183.433,617.158 L208.782,631.793 L208.782,606.443 L183.433,591.808 L183.433,617.158 Z M275.15,623.33 L300.498,637.965 L300.498,612.616 L275.15,597.981 L275.15,623.33 Z M45.859,631.289 L71.207,645.924 L71.207,620.575 L45.859,605.94 L45.859,631.289 Z M137.575,637.461 L162.923,652.096 L162.923,626.747 L137.575,612.112 L137.575,637.461 Z M229.291,643.634 L254.64,658.269 L254.64,632.92 L229.291,618.285 L229.291,643.634 Z M321.008,649.806 L346.357,664.441 L346.357,639.093 L321.008,624.458 L321.008,649.806 Z M0,651.28 L25.348,665.916 L25.348,640.567 L0,625.932 L0,651.28 Z M91.716,657.765 L117.066,672.4 L117.066,647.051 L91.716,632.416 L91.716,657.765 Z M183.433,663.937 L208.782,678.573 L208.782,653.223 L183.433,638.589 L183.433,663.937 Z M275.15,670.109 L300.498,684.745 L300.498,659.397 L275.15,644.761 L275.15,670.109 Z M45.859,680.531 L71.207,695.166 L71.207,669.818 L45.859,655.183 L45.859,680.531 Z M137.575,684.241 L162.923,698.876 L162.923,673.528 L137.575,658.893 L137.575,684.241 Z M229.291,690.414 L254.64,705.048 L254.64,679.7 L229.291,665.065 L229.291,690.414 Z M321.008,696.586 L346.357,711.221 L346.357,685.873 L321.008,671.238 L321.008,696.586 Z M0,698.061 L25.348,712.696 L25.348,687.347 L0,672.712 L0,698.061 Z M91.716,703.921 L117.066,718.556 L117.066,693.208 L91.716,678.573 L91.716,703.921 Z M183.433,710.717 L208.782,725.352 L208.782,700.004 L183.433,685.369 L183.433,710.717 Z M275.15,716.89 L300.498,731.525 L300.498,706.176 L275.15,691.541 L275.15,716.89 Z M45.859,727.312 L71.207,741.946 L71.207,716.598 L45.859,701.963 L45.859,727.312 Z M137.575,730.709 L162.923,745.345 L162.923,719.996 L137.575,705.361 L137.575,730.709 Z M229.291,737.194 L254.64,751.829 L254.64,726.48 L229.291,711.845 L229.291,737.194 Z M321.008,743.366 L346.357,758.002 L346.357,732.653 L321.008,718.017 L321.008,743.366 Z M0,744.841 L25.348,759.476 L25.348,734.127 L0,719.492 L0,744.841 Z M91.716,750.702 L117.066,765.337 L117.066,739.988 L91.716,725.352 L91.716,750.702 Z M183.433,757.498 L208.782,772.132 L208.782,746.784 L183.433,732.149 L183.433,757.498 Z M275.15,763.671 L300.498,778.305 L300.498,752.956 L275.15,738.321 L275.15,763.671 Z M45.859,774.091 L71.207,788.727 L71.207,763.378 L45.859,748.742 L45.859,774.091 Z M137.575,777.489 L162.923,792.124 L162.923,766.776 L137.575,752.141 L137.575,777.489 Z M229.291,784.285 L254.64,798.921 L254.64,773.572 L229.291,758.937 L229.291,784.285 Z M321.008,790.146 L346.357,804.782 L346.357,779.432 L321.008,764.797 L321.008,790.146 Z M0,791.62 L25.348,806.256 L25.348,780.907 L0,766.272 L0,791.62 Z M91.716,797.481 L117.066,812.117 L117.066,786.768 L91.716,772.132 L91.716,797.481 Z M183.433,804.278 L208.782,818.913 L208.782,793.564 L183.433,778.928 L183.433,804.278 Z M275.15,810.138 L300.498,824.773 L300.498,799.425 L275.15,784.789 L275.15,810.138 Z M45.859,820.871 L71.207,835.507 L71.207,810.157 L45.859,795.523 L45.859,820.871 Z M137.575,824.269 L162.923,838.904 L162.923,813.556 L137.575,798.921 L137.575,824.269 Z M229.291,830.442 L254.64,845.077 L254.64,819.728 L229.291,805.093 L229.291,830.442 Z M321.008,831.065 L346.357,845.7 L346.357,820.352 L321.008,805.717 L321.008,831.065 Z M0,838.4 L25.348,853.036 L25.348,827.687 L0,813.052 L0,838.4 Z M91.716,844.573 L117.066,859.208 L117.066,833.86 L91.716,819.224 L91.716,844.573 Z M183.433,851.057 L208.782,865.693 L208.782,840.344 L183.433,825.709 L183.433,851.057 Z M275.15,856.919 L300.498,871.554 L300.498,846.204 L275.15,831.569 L275.15,856.919 Z M45.859,867.651 L71.207,882.286 L71.207,856.938 L45.859,842.303 L45.859,867.651 Z M137.575,871.05 L162.923,885.684 L162.923,860.336 L137.575,845.7 L137.575,871.05 Z M229.291,877.222 L254.64,891.858 L254.64,866.508 L229.291,851.873 L229.291,877.222 Z M321.008,877.534 L346.357,892.169 L346.357,866.821 L321.008,852.185 L321.008,877.534 Z M0,885.18 L25.348,899.815 L25.348,874.467 L0,859.832 L0,885.18 Z M91.716,891.354 L117.066,905.989 L117.066,880.639 L91.716,866.004 L91.716,891.354 Z M183.433,897.526 L208.782,912.161 L208.782,886.812 L183.433,872.177 L183.433,897.526 Z M275.15,903.698 L300.498,918.333 L300.498,892.984 L275.15,878.35 L275.15,903.698 Z M45.859,914.431 L71.207,929.066 L71.207,903.718 L45.859,889.083 L45.859,914.431 Z M137.575,917.83 L162.923,932.465 L162.923,907.116 L137.575,892.48 L137.575,917.83 Z M229.291,924.002 L254.64,938.637 L254.64,913.288 L229.291,898.654 L229.291,924.002 Z M321.008,924.313 L346.357,938.949 L346.357,913.601 L321.008,898.965 L321.008,924.313 Z M0,931.961 L25.348,946.596 L25.348,921.247 L0,906.612 L0,931.961 Z M91.716,938.133 L117.066,952.769 L117.066,927.42 L91.716,912.784 L91.716,938.133 Z M183.433,944.306 L208.782,958.941 L208.782,933.592 L183.433,918.957 L183.433,944.306 Z M275.15,950.478 L300.498,965.114 L300.498,939.765 L275.15,925.13 L275.15,950.478 Z M45.859,958.437 L71.207,973.072 L71.207,947.723 L45.859,933.088 L45.859,958.437 Z M137.575,964.61 L162.923,979.245 L162.923,953.895 L137.575,939.261 L137.575,964.61 Z M229.291,970.782 L254.64,985.417 L254.64,960.069 L229.291,945.434 L229.291,970.782 Z M321.008,971.094 L346.357,985.728 L346.357,960.38 L321.008,945.745 L321.008,971.094 Z M0,978.741 L25.348,993.376 L25.348,968.027 L0,953.391 L0,978.741 Z M91.716,984.913 L117.066,999.549 L117.066,974.2 L91.716,959.565 L91.716,984.913 Z M183.433,991.086 L208.782,1005.721 L208.782,980.373 L183.433,965.737 L183.433,991.086 Z M275.15,997.258 L300.498,1011.893 L300.498,986.545 L275.15,971.91 L275.15,997.258 Z M45.859,1005.217 L71.207,1019.852 L71.207,994.503 L45.859,979.869 L45.859,1005.217 Z M137.575,1011.389 L162.923,1026.025 L162.923,1000.676 L137.575,986.041 L137.575,1011.389 Z M229.291,1017.562 L254.64,1032.197 L254.64,1006.849 L229.291,992.213 L229.291,1017.562 Z M321.008,1017.874 L346.357,1032.509 L346.357,1007.16 L321.008,992.525 L321.008,1017.874 Z M0,1025.521 L25.348,1040.156 L25.348,1014.807 L0,1000.173 L0,1025.521 Z M91.716,1031.693 L117.066,1046.328 L117.066,1020.98 L91.716,1006.345 L91.716,1031.693 Z M183.433,1037.866 L208.782,1052.5 L208.782,1027.152 L183.433,1012.517 L183.433,1037.866 Z M275.15,1044.039 L300.498,1058.674 L300.498,1033.324 L275.15,1018.69 L275.15,1044.039 Z M45.859,1051.997 L71.207,1066.632 L71.207,1041.284 L45.859,1026.648 L45.859,1051.997 Z M137.575,1058.17 L162.923,1072.805 L162.923,1047.456 L137.575,1032.821 L137.575,1058.17 Z M229.291,1064.342 L254.64,1078.978 L254.64,1053.629 L229.291,1038.993 L229.291,1064.342 Z M321.008,1064.654 L346.357,1079.289 L346.357,1053.94 L321.008,1039.305 L321.008,1064.654 Z M0,1072.301 L25.348,1086.936 L25.348,1061.587 L0,1046.952 L0,1072.301 Z M91.716,1078.473 L117.066,1093.108 L117.066,1067.76 L91.716,1053.125 L91.716,1078.473 Z M183.433,1084.646 L208.782,1099.282 L208.782,1073.932 L183.433,1059.297 L183.433,1084.646 Z M275.15,1090.819 L300.498,1105.454 L300.498,1080.105 L275.15,1065.469 L275.15,1090.819 Z M45.859,1098.778 L71.207,1113.412 L71.207,1088.063 L45.859,1073.428 L45.859,1098.778 Z M137.575,1104.95 L162.923,1119.585 L162.923,1094.236 L137.575,1079.601 L137.575,1104.95 Z M229.291,1111.123 L254.64,1125.757 L254.64,1100.408 L229.291,1085.773 L229.291,1111.123 Z M321.008,1111.434 L346.357,1126.069 L346.357,1100.721 L321.008,1086.086 L321.008,1111.434 Z M0,1119.081 L25.348,1133.716 L25.348,1108.367 L0,1093.732 L0,1119.081 Z M91.716,1125.253 L117.066,1139.889 L117.066,1114.54 L91.716,1099.904 L91.716,1125.253 Z M183.433,1131.426 L208.782,1146.061 L208.782,1120.712 L183.433,1106.077 L183.433,1131.426 Z M275.15,1137.598 L300.498,1152.234 L300.498,1126.885 L275.15,1112.25 L275.15,1137.598 Z M45.859,1145.557 L71.207,1160.193 L71.207,1134.843 L45.859,1120.208 L45.859,1145.557 Z M137.575,1151.73 L162.923,1166.365 L162.923,1141.016 L137.575,1126.381 L137.575,1151.73 Z M229.291,1157.902 L254.64,1172.537 L254.64,1147.188 L229.291,1132.554 L229.291,1157.902 Z M321.008,1158.214 L346.357,1172.849 L346.357,1147.5 L321.008,1132.865 L321.008,1158.214 Z M0,1165.861 L25.348,1180.496 L25.348,1155.147 L0,1140.512 L0,1165.861 Z M91.716,1172.034 L117.066,1186.669 L117.066,1161.319 L91.716,1146.684 L91.716,1172.034 Z M183.433,1178.206 L208.782,1192.841 L208.782,1167.493 L183.433,1152.858 L183.433,1178.206 Z M275.15,1184.378 L300.498,1199.013 L300.498,1173.665 L275.15,1159.03 L275.15,1184.378 Z M45.859,1192.337 L71.207,1206.973 L71.207,1181.623 L45.859,1166.989 L45.859,1192.337 Z M137.575,1198.509 L162.923,1213.145 L162.923,1187.796 L137.575,1173.161 L137.575,1198.509 Z M229.291,1204.682 L254.64,1219.317 L254.64,1193.969 L229.291,1179.333 L229.291,1204.682 Z M321.008,1210.855 L346.357,1225.49 L346.357,1200.141 L321.008,1185.506 L321.008,1210.855 Z M91.716,1218.813 L117.066,1233.448 L117.066,1208.1 L91.716,1193.465 L91.716,1218.813 Z M183.433,1224.986 L208.782,1239.621 L208.782,1214.273 L183.433,1199.637 L183.433,1224.986 Z M275.15,1231.158 L300.498,1245.793 L300.498,1220.445 L275.15,1205.81 L275.15,1231.158 Z M137.575,1245.29 L162.923,1259.925 L162.923,1234.576 L137.575,1219.941 L137.575,1245.29 Z M229.291,1251.462 L254.64,1266.097 L254.64,1240.749 L229.291,1226.114 L229.291,1251.462 Z M321.008,1257.635 L346.357,1272.27 L346.357,1246.921 L321.008,1232.286 L321.008,1257.635 Z M183.433,1271.766 L208.782,1286.401 L208.782,1261.053 L183.433,1246.417 L183.433,1271.766 Z M275.15,1277.939 L300.498,1292.574 L300.498,1267.225 L275.15,1252.589 L275.15,1277.939 Z M229.291,1298.243 L254.64,1312.878 L254.64,1287.528 L229.291,1272.893 L229.291,1298.243 Z M321.008,1304.415 L346.357,1319.05 L346.357,1293.701 L321.008,1279.066 L321.008,1304.415 Z M275.15,1324.719 L300.498,1339.354 L300.498,1314.004 L275.15,1299.37 L275.15,1324.719 Z M321.008,1351.194 L346.357,1365.83 L346.357,1340.482 L321.008,1325.846 L321.008,1351.194 Z" id="path-2"></path>
        <linearGradient x1="50%" y1="30.2535335%" x2="50%" y2="64.1449121%" id="linearGradient-4">
            <stop stop-color="#FFFFFF" stop-opacity="0" offset="0%"></stop>
            <stop stop-color="#FFFFFF" offset="100%"></stop>
        </linearGradient>
    </defs>
    <g id="Symbols" stroke="none" stroke-width="1" fill="none" fill-rule="evenodd">
        <g id="img/general/floating_square">
            <g id="Group-3-Copy">
                <mask id="mask-3" fill="white">
                    <use xlink:href="#path-2"></use>
                </mask>
                <use id="Clip-2" fill="url(#linearGradient-1)" xlink:href="#path-2"></use>
                <path d="M45.859,0.999 L45.859,26.348 L71.207,40.983 L71.207,15.635 L45.859,0.999 Z M0,43.878 L25.348,58.512 L25.348,33.164 L0,18.528 L0,43.878 Z M91.716,49.738 L117.066,64.373 L117.066,39.024 L91.716,24.39 L91.716,49.738 Z M45.859,73.129 L71.207,87.763 L71.207,62.414 L45.859,47.779 L45.859,73.129 Z M137.575,76.526 L162.923,91.162 L162.923,65.812 L137.575,51.178 L137.575,76.526 Z M0,90.232 L25.348,104.867 L25.348,79.518 L0,64.883 L0,90.232 Z M91.716,96.518 L117.066,111.153 L117.066,85.804 L91.716,71.169 L91.716,96.518 Z M183.433,103.314 L208.782,117.949 L208.782,92.6 L183.433,77.966 L183.433,103.314 Z M45.859,119.483 L71.207,134.118 L71.207,108.768 L45.859,94.135 L45.859,119.483 Z M137.575,123.306 L162.923,137.941 L162.923,112.593 L137.575,97.958 L137.575,123.306 Z M229.291,130.102 L254.64,144.738 L254.64,119.388 L229.291,104.754 L229.291,130.102 Z M0,137.012 L25.348,151.647 L25.348,126.298 L0,111.664 L0,137.012 Z M91.716,142.873 L117.066,157.508 L117.066,132.159 L91.716,117.524 L91.716,142.873 Z M183.433,150.094 L208.782,164.73 L208.782,139.381 L183.433,124.745 L183.433,150.094 Z M275.15,155.955 L300.498,170.59 L300.498,145.242 L275.15,130.606 L275.15,155.955 Z M45.859,166.262 L71.207,180.898 L71.207,155.549 L45.859,140.914 L45.859,166.262 Z M137.575,169.661 L162.923,184.296 L162.923,158.947 L137.575,144.312 L137.575,169.661 Z M229.291,176.259 L254.64,190.893 L254.64,165.545 L229.291,150.91 L229.291,176.259 Z M321.008,176.882 L346.357,191.517 L346.357,166.169 L321.008,151.534 L321.008,176.882 Z M0,183.792 L25.348,198.427 L25.348,173.078 L0,158.443 L0,183.792 Z M91.716,189.652 L117.066,204.288 L117.066,178.94 L91.716,164.304 L91.716,189.652 Z M183.433,196.449 L208.782,211.084 L208.782,185.736 L183.433,171.1 L183.433,196.449 Z M275.15,202.735 L300.498,217.37 L300.498,192.021 L275.15,177.386 L275.15,202.735 Z M45.859,213.043 L71.207,227.678 L71.207,202.329 L45.859,187.694 L45.859,213.043 Z M137.575,216.441 L162.923,231.076 L162.923,205.727 L137.575,191.092 L137.575,216.441 Z M229.291,223.237 L254.64,237.872 L254.64,212.523 L229.291,197.888 L229.291,223.237 Z M321.008,223.35 L346.357,237.986 L346.357,212.637 L321.008,198.002 L321.008,223.35 Z M0,230.572 L25.348,245.208 L25.348,219.858 L0,205.223 L0,230.572 Z M91.716,236.433 L117.066,251.068 L117.066,225.719 L91.716,211.084 L91.716,236.433 Z M183.433,243.229 L208.782,257.864 L208.782,232.516 L183.433,217.88 L183.433,243.229 Z M275.15,249.089 L300.498,263.725 L300.498,238.376 L275.15,223.741 L275.15,249.089 Z M45.859,259.823 L71.207,274.458 L71.207,249.109 L45.859,234.474 L45.859,259.823 Z M137.575,263.221 L162.923,277.856 L162.923,252.507 L137.575,237.872 L137.575,263.221 Z M229.291,269.393 L254.64,284.028 L254.64,258.68 L229.291,244.045 L229.291,269.393 Z M321.008,270.017 L346.357,284.652 L346.357,259.303 L321.008,244.669 L321.008,270.017 Z M0,277.352 L25.348,291.987 L25.348,266.638 L0,252.004 L0,277.352 Z M91.716,283.525 L117.066,298.16 L117.066,272.811 L91.716,258.176 L91.716,283.525 Z M183.433,290.009 L208.782,304.644 L208.782,279.295 L183.433,264.66 L183.433,290.009 Z M275.15,295.87 L300.498,310.504 L300.498,285.156 L275.15,270.521 L275.15,295.87 Z M45.859,306.603 L71.207,321.238 L71.207,295.889 L45.859,281.254 L45.859,306.603 Z M137.575,310 L162.923,324.636 L162.923,299.288 L137.575,284.652 L137.575,310 Z M229.291,316.174 L254.64,330.808 L254.64,305.46 L229.291,290.824 L229.291,316.174 Z M321.008,316.485 L346.357,331.121 L346.357,305.771 L321.008,291.136 L321.008,316.485 Z M0,324.132 L25.348,338.767 L25.348,313.419 L0,298.784 L0,324.132 Z M91.716,330.304 L117.066,344.94 L117.066,319.591 L91.716,304.956 L91.716,330.304 Z M183.433,336.478 L208.782,351.112 L208.782,325.764 L183.433,311.128 L183.433,336.478 Z M275.15,342.65 L300.498,357.285 L300.498,331.936 L275.15,317.301 L275.15,342.65 Z M45.859,353.382 L71.207,368.018 L71.207,342.669 L45.859,328.034 L45.859,353.382 Z M137.575,356.781 L162.923,371.416 L162.923,346.067 L137.575,331.432 L137.575,356.781 Z M229.291,362.954 L254.64,377.589 L254.64,352.239 L229.291,337.605 L229.291,362.954 Z M321.008,363.265 L346.357,377.9 L346.357,352.551 L321.008,337.917 L321.008,363.265 Z M0,370.911 L25.348,385.547 L25.348,360.199 L0,345.563 L0,370.911 Z M91.716,377.085 L117.066,391.72 L117.066,366.371 L91.716,351.736 L91.716,377.085 Z M183.433,383.257 L208.782,397.893 L208.782,372.544 L183.433,357.908 L183.433,383.257 Z M275.15,389.43 L300.498,404.065 L300.498,378.716 L275.15,364.08 L275.15,389.43 Z M45.859,397.389 L71.207,412.023 L71.207,386.675 L45.859,372.04 L45.859,397.389 Z M137.575,403.561 L162.923,418.196 L162.923,392.847 L137.575,378.212 L137.575,403.561 Z M229.291,409.734 L254.64,424.369 L254.64,399.019 L229.291,384.385 L229.291,409.734 Z M321.008,410.045 L346.357,424.68 L346.357,399.332 L321.008,384.697 L321.008,410.045 Z M0,417.693 L25.348,432.327 L25.348,406.978 L0,392.343 L0,417.693 Z M91.716,423.865 L117.066,438.5 L117.066,413.151 L91.716,398.516 L91.716,423.865 Z M183.433,430.037 L208.782,444.672 L208.782,419.323 L183.433,404.689 L183.433,430.037 Z M275.15,436.21 L300.498,450.845 L300.498,425.496 L275.15,410.862 L275.15,436.21 Z M45.859,444.168 L71.207,458.804 L71.207,433.455 L45.859,418.819 L45.859,444.168 Z M137.575,450.341 L162.923,464.976 L162.923,439.627 L137.575,424.992 L137.575,450.341 Z M229.291,456.513 L254.64,471.149 L254.64,445.8 L229.291,431.165 L229.291,456.513 Z M321.008,456.825 L346.357,471.46 L346.357,446.112 L321.008,431.476 L321.008,456.825 Z M0,464.472 L25.348,479.107 L25.348,453.758 L0,439.123 L0,464.472 Z M91.716,470.645 L117.066,485.28 L117.066,459.931 L91.716,445.296 L91.716,470.645 Z M183.433,476.817 L208.782,491.452 L208.782,466.104 L183.433,451.469 L183.433,476.817 Z M275.15,482.989 L300.498,497.625 L300.498,472.276 L275.15,457.641 L275.15,482.989 Z M45.859,490.949 L71.207,505.584 L71.207,480.234 L45.859,465.6 L45.859,490.949 Z M137.575,497.121 L162.923,511.756 L162.923,486.408 L137.575,471.773 L137.575,497.121 Z M229.291,503.293 L254.64,517.928 L254.64,492.58 L229.291,477.945 L229.291,503.293 Z M321.008,503.606 L346.357,518.241 L346.357,492.892 L321.008,478.256 L321.008,503.606 Z M0,511.252 L25.348,525.888 L25.348,500.538 L0,485.904 L0,511.252 Z M91.716,517.424 L117.066,532.06 L117.066,506.712 L91.716,492.076 L91.716,517.424 Z M183.433,523.597 L208.782,538.232 L208.782,512.884 L183.433,498.248 L183.433,523.597 Z M275.15,529.77 L300.498,544.405 L300.498,519.056 L275.15,504.421 L275.15,529.77 Z M45.859,537.728 L71.207,552.363 L71.207,527.015 L45.859,512.38 L45.859,537.728 Z M137.575,543.901 L162.923,558.536 L162.923,533.187 L137.575,518.552 L137.575,543.901 Z M229.291,550.074 L254.64,564.709 L254.64,539.36 L229.291,524.725 L229.291,550.074 Z M321.008,550.386 L346.357,565.02 L346.357,539.671 L321.008,525.036 L321.008,550.386 Z M0,558.032 L25.348,572.667 L25.348,547.319 L0,532.684 L0,558.032 Z M91.716,564.205 L117.066,578.84 L117.066,553.491 L91.716,538.856 L91.716,564.205 Z M183.433,570.378 L208.782,585.012 L208.782,559.664 L183.433,545.028 L183.433,570.378 Z M275.15,576.55 L300.498,591.185 L300.498,565.836 L275.15,551.201 L275.15,576.55 Z M45.859,584.509 L71.207,599.144 L71.207,573.795 L45.859,559.16 L45.859,584.509 Z M137.575,590.681 L162.923,605.317 L162.923,579.968 L137.575,565.332 L137.575,590.681 Z M229.291,596.854 L254.64,611.489 L254.64,586.14 L229.291,571.504 L229.291,596.854 Z M321.008,597.165 L346.357,611.801 L346.357,586.452 L321.008,571.817 L321.008,597.165 Z M0,604.812 L25.348,619.447 L25.348,594.099 L0,579.464 L0,604.812 Z M91.716,610.985 L117.066,625.62 L117.066,600.271 L91.716,585.636 L91.716,610.985 Z M183.433,617.158 L208.782,631.793 L208.782,606.443 L183.433,591.808 L183.433,617.158 Z M275.15,623.33 L300.498,637.965 L300.498,612.616 L275.15,597.981 L275.15,623.33 Z M45.859,631.289 L71.207,645.924 L71.207,620.575 L45.859,605.94 L45.859,631.289 Z M137.575,637.461 L162.923,652.096 L162.923,626.747 L137.575,612.112 L137.575,637.461 Z M229.291,643.634 L254.64,658.269 L254.64,632.92 L229.291,618.285 L229.291,643.634 Z M321.008,649.806 L346.357,664.441 L346.357,639.093 L321.008,624.458 L321.008,649.806 Z M0,651.28 L25.348,665.916 L25.348,640.567 L0,625.932 L0,651.28 Z M91.716,657.765 L117.066,672.4 L117.066,647.051 L91.716,632.416 L91.716,657.765 Z M183.433,663.937 L208.782,678.573 L208.782,653.223 L183.433,638.589 L183.433,663.937 Z M275.15,670.109 L300.498,684.745 L300.498,659.397 L275.15,644.761 L275.15,670.109 Z M45.859,680.531 L71.207,695.166 L71.207,669.818 L45.859,655.183 L45.859,680.531 Z M137.575,684.241 L162.923,698.876 L162.923,673.528 L137.575,658.893 L137.575,684.241 Z M229.291,690.414 L254.64,705.048 L254.64,679.7 L229.291,665.065 L229.291,690.414 Z M321.008,696.586 L346.357,711.221 L346.357,685.873 L321.008,671.238 L321.008,696.586 Z M0,698.061 L25.348,712.696 L25.348,687.347 L0,672.712 L0,698.061 Z M91.716,703.921 L117.066,718.556 L117.066,693.208 L91.716,678.573 L91.716,703.921 Z M183.433,710.717 L208.782,725.352 L208.782,700.004 L183.433,685.369 L183.433,710.717 Z M275.15,716.89 L300.498,731.525 L300.498,706.176 L275.15,691.541 L275.15,716.89 Z M45.859,727.312 L71.207,741.946 L71.207,716.598 L45.859,701.963 L45.859,727.312 Z M137.575,730.709 L162.923,745.345 L162.923,719.996 L137.575,705.361 L137.575,730.709 Z M229.291,737.194 L254.64,751.829 L254.64,726.48 L229.291,711.845 L229.291,737.194 Z M321.008,743.366 L346.357,758.002 L346.357,732.653 L321.008,718.017 L321.008,743.366 Z M0,744.841 L25.348,759.476 L25.348,734.127 L0,719.492 L0,744.841 Z M91.716,750.702 L117.066,765.337 L117.066,739.988 L91.716,725.352 L91.716,750.702 Z M183.433,757.498 L208.782,772.132 L208.782,746.784 L183.433,732.149 L183.433,757.498 Z M275.15,763.671 L300.498,778.305 L300.498,752.956 L275.15,738.321 L275.15,763.671 Z M45.859,774.091 L71.207,788.727 L71.207,763.378 L45.859,748.742 L45.859,774.091 Z M137.575,777.489 L162.923,792.124 L162.923,766.776 L137.575,752.141 L137.575,777.489 Z M229.291,784.285 L254.64,798.921 L254.64,773.572 L229.291,758.937 L229.291,784.285 Z M321.008,790.146 L346.357,804.782 L346.357,779.432 L321.008,764.797 L321.008,790.146 Z M0,791.62 L25.348,806.256 L25.348,780.907 L0,766.272 L0,791.62 Z M91.716,797.481 L117.066,812.117 L117.066,786.768 L91.716,772.132 L91.716,797.481 Z M183.433,804.278 L208.782,818.913 L208.782,793.564 L183.433,778.928 L183.433,804.278 Z M275.15,810.138 L300.498,824.773 L300.498,799.425 L275.15,784.789 L275.15,810.138 Z M45.859,820.871 L71.207,835.507 L71.207,810.157 L45.859,795.523 L45.859,820.871 Z M137.575,824.269 L162.923,838.904 L162.923,813.556 L137.575,798.921 L137.575,824.269 Z M229.291,830.442 L254.64,845.077 L254.64,819.728 L229.291,805.093 L229.291,830.442 Z M321.008,831.065 L346.357,845.7 L346.357,820.352 L321.008,805.717 L321.008,831.065 Z M0,838.4 L25.348,853.036 L25.348,827.687 L0,813.052 L0,838.4 Z M91.716,844.573 L117.066,859.208 L117.066,833.86 L91.716,819.224 L91.716,844.573 Z M183.433,851.057 L208.782,865.693 L208.782,840.344 L183.433,825.709 L183.433,851.057 Z M275.15,856.919 L300.498,871.554 L300.498,846.204 L275.15,831.569 L275.15,856.919 Z M45.859,867.651 L71.207,882.286 L71.207,856.938 L45.859,842.303 L45.859,867.651 Z M137.575,871.05 L162.923,885.684 L162.923,860.336 L137.575,845.7 L137.575,871.05 Z M229.291,877.222 L254.64,891.858 L254.64,866.508 L229.291,851.873 L229.291,877.222 Z M321.008,877.534 L346.357,892.169 L346.357,866.821 L321.008,852.185 L321.008,877.534 Z M0,885.18 L25.348,899.815 L25.348,874.467 L0,859.832 L0,885.18 Z M91.716,891.354 L117.066,905.989 L117.066,880.639 L91.716,866.004 L91.716,891.354 Z M183.433,897.526 L208.782,912.161 L208.782,886.812 L183.433,872.177 L183.433,897.526 Z M275.15,903.698 L300.498,918.333 L300.498,892.984 L275.15,878.35 L275.15,903.698 Z M45.859,914.431 L71.207,929.066 L71.207,903.718 L45.859,889.083 L45.859,914.431 Z M137.575,917.83 L162.923,932.465 L162.923,907.116 L137.575,892.48 L137.575,917.83 Z M229.291,924.002 L254.64,938.637 L254.64,913.288 L229.291,898.654 L229.291,924.002 Z M321.008,924.313 L346.357,938.949 L346.357,913.601 L321.008,898.965 L321.008,924.313 Z M0,931.961 L25.348,946.596 L25.348,921.247 L0,906.612 L0,931.961 Z M91.716,938.133 L117.066,952.769 L117.066,927.42 L91.716,912.784 L91.716,938.133 Z M183.433,944.306 L208.782,958.941 L208.782,933.592 L183.433,918.957 L183.433,944.306 Z M275.15,950.478 L300.498,965.114 L300.498,939.765 L275.15,925.13 L275.15,950.478 Z M45.859,958.437 L71.207,973.072 L71.207,947.723 L45.859,933.088 L45.859,958.437 Z M137.575,964.61 L162.923,979.245 L162.923,953.895 L137.575,939.261 L137.575,964.61 Z M229.291,970.782 L254.64,985.417 L254.64,960.069 L229.291,945.434 L229.291,970.782 Z M321.008,971.094 L346.357,985.728 L346.357,960.38 L321.008,945.745 L321.008,971.094 Z M0,978.741 L25.348,993.376 L25.348,968.027 L0,953.391 L0,978.741 Z M91.716,984.913 L117.066,999.549 L117.066,974.2 L91.716,959.565 L91.716,984.913 Z M183.433,991.086 L208.782,1005.721 L208.782,980.373 L183.433,965.737 L183.433,991.086 Z M275.15,997.258 L300.498,1011.893 L300.498,986.545 L275.15,971.91 L275.15,997.258 Z M45.859,1005.217 L71.207,1019.852 L71.207,994.503 L45.859,979.869 L45.859,1005.217 Z M137.575,1011.389 L162.923,1026.025 L162.923,1000.676 L137.575,986.041 L137.575,1011.389 Z M229.291,1017.562 L254.64,1032.197 L254.64,1006.849 L229.291,992.213 L229.291,1017.562 Z M321.008,1017.874 L346.357,1032.509 L346.357,1007.16 L321.008,992.525 L321.008,1017.874 Z M0,1025.521 L25.348,1040.156 L25.348,1014.807 L0,1000.173 L0,1025.521 Z M91.716,1031.693 L117.066,1046.328 L117.066,1020.98 L91.716,1006.345 L91.716,1031.693 Z M183.433,1037.866 L208.782,1052.5 L208.782,1027.152 L183.433,1012.517 L183.433,1037.866 Z M275.15,1044.039 L300.498,1058.674 L300.498,1033.324 L275.15,1018.69 L275.15,1044.039 Z M45.859,1051.997 L71.207,1066.632 L71.207,1041.284 L45.859,1026.648 L45.859,1051.997 Z M137.575,1058.17 L162.923,1072.805 L162.923,1047.456 L137.575,1032.821 L137.575,1058.17 Z M229.291,1064.342 L254.64,1078.978 L254.64,1053.629 L229.291,1038.993 L229.291,1064.342 Z M321.008,1064.654 L346.357,1079.289 L346.357,1053.94 L321.008,1039.305 L321.008,1064.654 Z M0,1072.301 L25.348,1086.936 L25.348,1061.587 L0,1046.952 L0,1072.301 Z M91.716,1078.473 L117.066,1093.108 L117.066,1067.76 L91.716,1053.125 L91.716,1078.473 Z M183.433,1084.646 L208.782,1099.282 L208.782,1073.932 L183.433,1059.297 L183.433,1084.646 Z M275.15,1090.819 L300.498,1105.454 L300.498,1080.105 L275.15,1065.469 L275.15,1090.819 Z M45.859,1098.778 L71.207,1113.412 L71.207,1088.063 L45.859,1073.428 L45.859,1098.778 Z M137.575,1104.95 L162.923,1119.585 L162.923,1094.236 L137.575,1079.601 L137.575,1104.95 Z M229.291,1111.123 L254.64,1125.757 L254.64,1100.408 L229.291,1085.773 L229.291,1111.123 Z M321.008,1111.434 L346.357,1126.069 L346.357,1100.721 L321.008,1086.086 L321.008,1111.434 Z M0,1119.081 L25.348,1133.716 L25.348,1108.367 L0,1093.732 L0,1119.081 Z M91.716,1125.253 L117.066,1139.889 L117.066,1114.54 L91.716,1099.904 L91.716,1125.253 Z M183.433,1131.426 L208.782,1146.061 L208.782,1120.712 L183.433,1106.077 L183.433,1131.426 Z M275.15,1137.598 L300.498,1152.234 L300.498,1126.885 L275.15,1112.25 L275.15,1137.598 Z M45.859,1145.557 L71.207,1160.193 L71.207,1134.843 L45.859,1120.208 L45.859,1145.557 Z M137.575,1151.73 L162.923,1166.365 L162.923,1141.016 L137.575,1126.381 L137.575,1151.73 Z M229.291,1157.902 L254.64,1172.537 L254.64,1147.188 L229.291,1132.554 L229.291,1157.902 Z M321.008,1158.214 L346.357,1172.849 L346.357,1147.5 L321.008,1132.865 L321.008,1158.214 Z M0,1165.861 L25.348,1180.496 L25.348,1155.147 L0,1140.512 L0,1165.861 Z M91.716,1172.034 L117.066,1186.669 L117.066,1161.319 L91.716,1146.684 L91.716,1172.034 Z M183.433,1178.206 L208.782,1192.841 L208.782,1167.493 L183.433,1152.858 L183.433,1178.206 Z M275.15,1184.378 L300.498,1199.013 L300.498,1173.665 L275.15,1159.03 L275.15,1184.378 Z M45.859,1192.337 L71.207,1206.973 L71.207,1181.623 L45.859,1166.989 L45.859,1192.337 Z M137.575,1198.509 L162.923,1213.145 L162.923,1187.796 L137.575,1173.161 L137.575,1198.509 Z M229.291,1204.682 L254.64,1219.317 L254.64,1193.969 L229.291,1179.333 L229.291,1204.682 Z M321.008,1210.855 L346.357,1225.49 L346.357,1200.141 L321.008,1185.506 L321.008,1210.855 Z M91.716,1218.813 L117.066,1233.448 L117.066,1208.1 L91.716,1193.465 L91.716,1218.813 Z M183.433,1224.986 L208.782,1239.621 L208.782,1214.273 L183.433,1199.637 L183.433,1224.986 Z M275.15,1231.158 L300.498,1245.793 L300.498,1220.445 L275.15,1205.81 L275.15,1231.158 Z M137.575,1245.29 L162.923,1259.925 L162.923,1234.576 L137.575,1219.941 L137.575,1245.29 Z M229.291,1251.462 L254.64,1266.097 L254.64,1240.749 L229.291,1226.114 L229.291,1251.462 Z M321.008,1257.635 L346.357,1272.27 L346.357,1246.921 L321.008,1232.286 L321.008,1257.635 Z M183.433,1271.766 L208.782,1286.401 L208.782,1261.053 L183.433,1246.417 L183.433,1271.766 Z M275.15,1277.939 L300.498,1292.574 L300.498,1267.225 L275.15,1252.589 L275.15,1277.939 Z M229.291,1298.243 L254.64,1312.878 L254.64,1287.528 L229.291,1272.893 L229.291,1298.243 Z M321.008,1304.415 L346.357,1319.05 L346.357,1293.701 L321.008,1279.066 L321.008,1304.415 Z M275.15,1324.719 L300.498,1339.354 L300.498,1314.004 L275.15,1299.37 L275.15,1324.719 Z M321.008,1351.194 L346.357,1365.83 L346.357,1340.482 L321.008,1325.846 L321.008,1351.194 Z" id="Fill-1" fill="url(#linearGradient-4)" mask="url(#mask-3)"></path>
            </g>
        </g>
    </g>
</svg>