<svg xmlns="http://www.w3.org/2000/svg" xmlns:xlink="http://www.w3.org/1999/xlink" width="500" height="120" viewBox="0 0 500 120">
    <defs>
        <path id="prefix__a" d="M12.725 0C5.697 0 0 5.696 0 12.725v94.551C0 114.303 5.697 120 12.725 120h474.55c7.027 0 12.725-5.697 12.725-12.724V12.725C500 5.696 494.302 0 487.275 0H12.725z"/>
        <path id="prefix__d" d="M10.072.086C4.581.086.113 4.553.113 10.044v91.912c0 5.491 4.468 9.959 9.959 9.959h471.856c5.491 0 9.959-4.468 9.959-9.959V10.044c0-5.491-4.468-9.958-9.959-9.958H10.072zm-5.959 101.87V10.044c0-3.285 2.673-5.958 5.959-5.958h471.856c3.286 0 5.958 2.673 5.958 5.958v91.912c0 3.285-2.672 5.958-5.958 5.958H10.072c-3.286 0-5.959-2.673-5.959-5.958z"/>
        <path id="prefix__g" d="M0 120L500 120 500 0 0 0z"/>
        <linearGradient id="prefix__b" x1="50%" x2="50%" y1="150.527%" y2="-84.612%">
            <stop offset="0%" stop-color="#8A1C1F"/>
            <stop offset="100%" stop-color="#E4283F"/>
        </linearGradient>
        <linearGradient id="prefix__e" x1="0%" x2="100%" y1="50%" y2="50%">
            <stop offset="0%" stop-color="#C10021"/>
            <stop offset="100%" stop-color="#F0233D"/>
        </linearGradient>
    </defs>
    <g fill="none" fill-rule="evenodd">
        <mask id="prefix__c" fill="#fff">
            <use xlink:href="#prefix__a"/>
        </mask>
        <path fill="url(#prefix__b)" d="M12.725 0C5.697 0 0 5.696 0 12.725v94.551C0 114.303 5.697 120 12.725 120h474.55c7.027 0 12.725-5.697 12.725-12.724V12.725C500 5.696 494.302 0 487.275 0H12.725z" mask="url(#prefix__c)"/>
        <g transform="translate(4 4)">
            <mask id="prefix__f" fill="#fff">
                <use xlink:href="#prefix__d"/>
            </mask>
            <path fill="url(#prefix__e)" d="M10.072.086C4.581.086.113 4.553.113 10.044v91.912c0 5.491 4.468 9.959 9.959 9.959h471.856c5.491 0 9.959-4.468 9.959-9.959V10.044c0-5.491-4.468-9.958-9.959-9.958H10.072zm-5.959 101.87V10.044c0-3.285 2.673-5.958 5.959-5.958h471.856c3.286 0 5.958 2.673 5.958 5.958v91.912c0 3.285-2.672 5.958-5.958 5.958H10.072c-3.286 0-5.959-2.673-5.959-5.958z" mask="url(#prefix__f)"/>
        </g>
        <g>
            <path fill="#FFF" d="M216.567 52.608c-4.06 5.705-9.819 10.752-15.305 14.317-1.207-1.754-3.51-4.114-5.486-5.594 4.773-2.634 10.588-7.187 13.495-11.74l7.296 3.017zm.933 14.756c-4.06 7.735-10.204 13.769-17.17 17.993-1.207-1.975-3.511-4.608-5.486-6.254 6.089-3.016 12.123-8.228 15.25-14.427l7.406 2.688zm-27.209 5.705h-4.333v1.865l4.333-1.865zm-13.22-4.991h10.368v-1.865h-10.368v1.865zm-.933-20.736h12.068v-1.316h-12.068v1.316zm0-5.705h12.068V40.32h-12.068v1.316zm1.427 33.023c-.714 1.59-1.591 3.346-2.579 4.992h2.469c.549 0 .713-.165.713-.658v-5.925h-5.87l5.267 1.59zm14.043-1.591c1.59 2.798 3.455 6.309 4.224 8.612l-5.925 2.743c-.713-2.36-2.413-6.2-3.949-9.106v3.895c0 3.126-.439 4.717-2.524 5.705-1.974.932-4.388.987-7.296.987-.274-1.646-.987-3.73-1.7-5.375-.933 1.48-1.92 2.907-2.798 3.949-1.207-1.152-3.84-3.182-5.321-4.17 1.701-1.92 3.456-4.717 4.553-7.24h-1.152V61.166h25.453v11.903h-3.565zm6.363-13.165h-31.652v-5.98h12.123c-.164-.383-.329-.767-.493-1.096l4.223-.824h-13.549V35.658h27.483v9.709c4.443-2.468 9.435-6.582 12.013-10.751l7.57 3.016c-3.84 5.486-9.216 10.258-14.537 13.605-1.151-1.536-3.181-3.62-5.046-5.102v5.869h-10.148c.329.604.658 1.262.932 1.92h11.081v5.98zM268.674 59.849v25.946h-8.447V67.858h-18.87c-1.153 6.637-3.512 13.001-8.503 18.157-1.317-1.92-4.224-4.992-6.034-6.309 6.692-7.241 7.46-17.334 7.46-26.275V34.78h8.064v10.806h16.292V33.738h8.283v19.857h-24.575c0 2.03-.055 4.169-.165 6.254h26.495zM328.956 51.017c-.658.933-1.426 1.865-2.25 2.743.879 1.097 1.646 2.194 2.25 3.182v-5.925zm0 9.271v-2.304l-3.182 2.304h3.182zm-3.785 0c-.603-.988-1.317-2.139-2.194-3.292-1.591 1.153-3.346 2.25-5.375 3.292h7.569zm-10.587 0h2.578c-.548-1.042-1.7-2.524-2.578-3.182v3.182zm5.1-7.515c-1.041.767-2.248 1.48-3.564 2.194-.33-.603-.933-1.427-1.536-2.085v4.169c2.249-.987 4.224-2.139 5.87-3.346l-.77-.932zm-5.1-7.845v6.034c.823-.438 1.59-.878 2.249-1.371-.658-.714-1.371-1.427-2.084-2.085l3.785-2.468c.548.494 1.15 1.042 1.755 1.59.439-.548.878-1.096 1.207-1.645l4.553.823c-.768 1.371-1.7 2.633-2.798 3.84l.768.878c.549-.658 1.042-1.317 1.48-1.976l3.457.604v-4.224h-14.372zm18.596 38.618c-.384-1.425-.932-3.181-1.536-5.047-.713 5.102-2.414 6.529-6.308 6.529h-5.266c-5.705 0-7.022-1.756-7.022-6.967v-5.76c-.877 4.06-2.03 8.887-3.62 12.123l-5.486-2.578c.659-1.262 1.317-2.798 1.866-4.443l-4.334 1.371c-.22-2.359-.988-5.924-1.646-8.667l4.882-1.426c.603 2.193 1.262 4.882 1.646 7.076.658-2.139 1.206-4.334 1.536-6.363l5.156 1.81v-1.536h6.528v8.338c0 1.426.219 1.591 1.536 1.591h3.51c1.098 0 1.427-.603 1.592-4.114l-2.633 1.316c-.933-2.194-3.072-5.925-4.663-8.667l3.4-1.536h-14.536V38.675h8.996c.549-1.81 1.097-3.895 1.317-5.486l8.064 1.152c-.768 1.536-1.536 3.017-2.25 4.334h12.234v27.921h-11.63c1.536 2.469 3.456 5.596 4.443 7.516l-2.25 1.096c1.153.713 2.963 1.371 4.444 1.755-.713-2.084-1.481-4.223-2.14-6.033l5.213-2.085c1.535 3.949 3.4 8.942 4.388 12.233l-5.431 2.468zm-33.736-13.549c.658 3.675 1.207 8.284 1.426 11.41l-5.321 1.372c-.054-3.182-.603-7.9-1.152-11.52l5.047-1.262zm-5.266 1.372c-.384 4.936-1.317 10.093-2.578 13.384-1.207-.658-3.84-1.426-5.211-1.81 1.37-3.182 2.029-7.954 2.358-12.452l5.43.878zm8.064-3.073c-.11-.767-.274-1.645-.44-2.633-9.983 2.14-11.957 2.744-13.22 3.511-.328-1.316-1.426-4.607-2.248-6.363 1.48-.384 2.633-1.646 4.333-3.675.658-.714 1.7-2.14 3.018-4.059-3.566.438-4.718.767-5.541 1.152-.384-1.372-1.481-4.663-2.304-6.474 1.152-.329 2.085-1.316 3.18-2.962 1.099-1.536 4.39-7.515 6.145-13.275l6.857 2.798c-1.865 4.388-4.498 8.996-7.186 12.836l2.633-.164c1.372-2.36 2.688-4.938 3.73-7.461l6.199 3.401c-2.907 5.485-6.692 11.136-10.697 15.908l3.84-.713c-.274-.987-.548-1.974-.822-2.907l5.1-1.481c1.208 3.456 2.469 8.009 2.853 10.752l-5.43 1.809z"/>
            <mask id="prefix__h" fill="#fff">
                <use xlink:href="#prefix__g"/>
            </mask>
            <path fill="#FFF" d="M389.731 53.047h1.536v-2.03h-1.536v2.03zm-5.156 0h1.536v-2.03h-1.536v2.03zm-5.102 0h1.481v-2.03h-1.481v2.03zm-5.101 3.456h22.271v-8.886h-22.271v8.886zm-11.959 16.291H382.6v-1.316h-20.187v1.316zm0-4.936H382.6v-1.316h-20.187v1.316zm0-4.938H382.6v-1.316h-20.187v1.316zm-6.473-10.641h2.853v-1.755h-2.853v1.755zm0-5.651h8.722v-1.591h-8.722v1.591zm0-5.54h2.853v-1.481h-2.853v1.481zm16.676 15.47h-23.368V35.274h22.875v4.333h-7.187v1.481h6.363v.329c2.853-2.249 4.663-4.992 5.651-7.57l6.747 1.098c-.165.493-.384.932-.604 1.426h14.372v4.772h-17.004c-.22.384-.549.769-.824 1.152h15.47v4.224h-17.334V44.49c-.714.713-1.481 1.425-2.305 2.084-.932-1.207-2.687-2.853-4.169-3.895v7.845h-6.363v1.755h7.68v4.279zm17.444 22.874c1.591 0 1.92-.549 2.194-3.62 1.481.987 4.499 1.975 6.473 2.304-.767 5.65-2.687 7.186-7.844 7.186h-7.406c-7.295 0-9.105-1.756-9.105-7.35v-1.318h-4.883c-1.59 5.267-5.65 7.954-19.748 9.216-.439-1.755-2.084-4.553-3.346-6.034 10.313-.384 13.605-1.206 14.976-3.182h-6.473v-18.87h35.601v18.87h-8.338v1.262c0 1.427.384 1.536 2.414 1.536h5.485zM88.006 56.333L108.365 56.333 108.365 35.975 88.006 35.975zM115.763 56.732L136.122 56.732 136.122 36.374 115.763 36.374zM88.006 84.025L108.365 84.025 108.365 63.667 88.006 63.667zM115.763 84.424L136.122 84.424 136.122 64.065 115.763 64.065z" mask="url(#prefix__h)"/>
        </g>
    </g>
</svg>
