<svg xmlns="http://www.w3.org/2000/svg" xmlns:xlink="http://www.w3.org/1999/xlink" width="3840" height="250" viewBox="0 0 3840 250">
    <defs>
        <linearGradient id="prefix__a" x1="50%" x2="50%" y1="210.572%" y2="-39.812%">
            <stop offset="0%" stop-opacity="0"/>
            <stop offset="100%"/>
        </linearGradient>
        <path id="prefix__b" d="M0 0L714.698 0 714.698 106.287 0 106.287z"/>
    </defs>
    <g fill="none" fill-rule="evenodd">
        <path fill="url(#prefix__a)" fill-rule="nonzero" d="M0 0H3840V250H0z"/>
        <g transform="translate(1563 72)">
            <mask id="prefix__c" fill="#fff">
                <use xlink:href="#prefix__b"/>
            </mask>
            <path fill="#FFF" d="M188.996 74.889h10.432V62.148h-10.432v12.741zm-18.482-31.993v-7.07c-.839 1.96-1.54 3.92-2.24 5.32l-2.73-1.05v2.8h4.97zm0-14.351h-4.97v8.751c.77-2.451 1.47-5.181 1.82-7.211l3.15 1.05v-2.59zm-2.17 41.654c1.26 3.711 2.451 8.541 2.8 11.762l-6.16 1.259c-.211-3.22-1.331-8.19-2.52-11.971l5.88-1.05zm-13.581-27.303h4.831v-2.94l-3.711 1.26c-.071-1.96-.56-4.621-1.12-7.141v8.821zm0-14.351v2.52l3.15-.98c.63 1.96 1.26 4.27 1.681 6.371v-7.911h-4.831zm43.754 14.911v9.521h10.572v33.184h-9.661V84.06h-10.432v2.381h-9.171V80.07l-5.74 2.311c-.7-3.151-2.66-7.982-4.691-11.552l5.811-2.1c-10.432.49-21.143.98-29.053 1.26l-.28-8.471c3.5-.07 7.7-.14 12.251-.21v-2.171h-10.361v-7.56h10.361v-2.03h-10.781V21.894h30.943v27.653h-11.271v2.03h10.711v7.56h-10.711v1.891c3.92-.07 7.981-.21 11.901-.35l-.21 7.841-3.36.21c1.75 2.731 3.501 6.301 4.48 9.24V52.977h8.821V20.074h9.871v14.001h12.812v9.381h-12.812zM161.344 70.76c.769 3.919 1.259 8.96 1.259 12.321l-6.37.769c.14-2.73-.14-6.58-.56-10.01-.91 4.69-2.241 9.59-4.971 12.671l-6.511-3.291c2.521-3.01 4.201-7.77 4.901-12.251l6.441 1.96-.21-1.469 6.021-.7zM273.557 43.246c.978.84 2.1 1.54 3.36 2.24 1.19-.63 2.24-1.4 3.22-2.24h-6.58zm-23.523-5.46h3.71v-1.33h-3.71v1.33zm10.572 11.83c3.01-.28 5.81-.7 8.33-1.26-1.33-1.12-2.52-2.31-3.57-3.64l4.62-1.47h-5.25v-5.11c-.63.28-1.26.49-1.96.7-.49-.7-1.33-1.75-2.312-2.731v4.76h-10.43v1.4h12.252v4.622h-12.251v3.71h3.57v-3.01h7v2.03zm-10.571-16.171h3.71v-1.26h-3.71v1.26zm-10.922 4.34h3.29v-1.33h-3.29v1.33zm0-4.34h3.29v-1.26h-3.29v1.26zm52.435 4.76c-1.54 4.27-3.85 7.632-6.93 10.152 3.57.91 7.56 1.54 11.832 1.89-1.751 1.61-3.921 4.83-4.971 6.93-2.522-.35-4.971-.77-7.212-1.4l4.69 4.2c-6.3.84-13.79 1.47-21.702 1.89v1.682h19.882v5.95h-19.882v1.19h28.353v6.3h-28.353v1.192c0 4.269-1.05 6.089-4.2 7.21-3.15 1.12-7.14 1.12-12.392 1.12-.56-2.31-1.96-5.46-3.15-7.491 2.802.14 7.142.14 8.121.07 1.12 0 1.54-.28 1.54-1.19v-.91h-28.422v-6.301h28.423v-1.19H235.12v-5.95h22.054v-1.261c-7.98.21-16.102.21-23.663.07-.07-1.54-.77-4.06-1.33-5.461 17.433.28 37.734-.28 49.845-1.75-1.96-.56-3.85-1.33-5.67-2.1-3.71 1.4-7.982 2.31-12.813 2.94-.558-1.75-1.75-4.27-2.938-5.88v5.25H232.25v-7.77h6.721v3.01h3.431v-3.71h-13.231v-4.621h13.232v-1.4h-9.732V29.105h9.732v-1.331h-11.341v-4.76h11.34v-2.94h7.632v2.94h11.97v4.76h-11.97v1.33h10.43v2.452c4.48-1.611 5.11-3.501 5.11-5.811v-3.921h21.213v5.18c0 1.4.14 2.03 1.12 2.03h2.87c1.12 0 3.08-.14 4.06-.49.14 2.1.35 4.972.63 7.072-1.12.42-2.87.489-4.48.489h-4.2c-6.44 0-8.122-2.31-8.401-7.63h-4.69c-.492 3.29-2.242 6.37-6.512 8.61h18.272l1.47-.21 4.621 1.33zM365.887 31.346c1.4-2.311 3.08-5.672 3.92-8.052l8.751 2.73c-2.45 2.94-4.76 5.81-6.51 7.771l-6.16-2.45zm2.8 13.09c-2.38-1.54-5.39-3.36-8.26-5.04-1.892 2.03-4.41 3.64-7.841 5.04h16.101zM351.046 76.15l8.821-.07c-.7-.63-1.4-1.19-2.03-1.75l3.22-1.4h-10.01v3.22zm0-10.362h7.142v-3.01h-7.142v3.01zm0-10.15h15.542v-2.94h-15.541v2.94zM333.964 65.79h7.001v-3.012h-7v3.012zm-8.47-10.153h15.471v-2.94h-15.471v2.94zm12.04-11.2c-1.75-1.401-4.62-3.361-7.35-5.111-1.89 2.03-4.48 3.78-7.98 5.11h15.33zm32.834 42.635c-.7-.912-1.54-1.96-2.52-3.08-17.991.698-37.034 1.188-50.124 1.398l-.772-8.96c6.511 0 14.912-.07 24.013-.14v-3.36h-16.452V58.297h-8.75v-13.86h1.75c-.98-2.03-2.73-4.481-4.13-5.811 6.16-1.47 9.45-3.43 11.2-6.44l-6.37 2.03c-.56-2.382-1.96-6.372-3.08-9.312l7-2.03c1.05 2.45 2.311 5.6 3.08 7.91 1.192-2.73 1.401-6.23 1.54-10.78h8.751c-.138 4.69-.49 8.68-1.4 12.111 3.291 1.89 7.772 4.55 10.151 6.3l-6.23 6.022h10.43c-.978-2.1-2.87-4.691-4.339-6.16 5.88-1.541 9.031-3.642 10.781-6.582l-6.442 1.96c-.42-1.89-1.189-4.83-2.029-7.42-2.17 2.8-4.13 5.53-5.67 7.35l-5.81-2.17c1.259-2.31 2.798-5.67 3.57-8.05l7.77 2.38-.49-1.4 7.14-1.82c.98 2.38 2.03 5.46 2.73 7.77 1.12-2.73 1.33-6.16 1.54-10.36h9.103c-.21 4.69-.63 8.82-1.681 12.32 4.2 2.1 9.731 5.04 12.671 6.931l-4.76 5.25h4.27v13.861h-8.54V71.95c4.2 3.36 8.54 7.63 11.06 10.57l-8.96 4.552zM436.376 31.136h-4.971v-7.771h4.97v-3.361h10.012v3.36h15.332v7.771h-15.332v1.47h-10.011v-1.47zm6.3 36.613c-1.19-1.12-2.31-2.31-3.29-3.57h-17.852c-1.05 1.26-2.24 2.45-3.57 3.57h6.86v-3.08h9.87v3.08h7.983zm-28.002-18.902h30.103v-2.24h-30.103v2.24zm0-7.49h30.103v-2.17h-30.103v2.17zm-.91-10.221h-14.912v-7.771h14.912v-3.361h9.87v3.36h5.81v7.771h-5.81v1.47h-9.87v-1.47zm37.174 33.043c3.64 2.17 8.12 3.78 12.95 4.76-1.96 1.75-4.62 5.25-5.88 7.56-2.31-.7-4.481-1.54-6.58-2.59v3.64c0 3.78-.63 5.741-3.08 6.931-2.381 1.12-5.461 1.12-9.102 1.12-.42-2.38-1.47-5.32-2.45-7.42 1.4.07 3.36.07 3.92.07.63 0 .91-.14.91-.84v-2.1h-6.931v11.132h-9.871V75.31h-5.6v10.15h-9.731V73.49c-2.31 1.19-4.831 2.31-7.631 3.36-.98-2.31-3.64-6.021-5.53-7.561 4.69-1.4 8.47-3.15 11.62-5.11h-9.52v-7.772h17.642c.42-.628.77-1.33 1.12-1.96h-12.252V33.587h50.056v20.861h-27.163c-.35.63-.63 1.331-.98 1.96h34.934v7.772h-10.851zM508.685 58.018h9.731v-9.941h-9.731v9.941zm-9.591 8.75h29.543V39.255h-29.543v27.513zm-4.83 6.511h39.273V32.535h-39.273v40.744zm50.404-51.175v64.407h-11.131V82.73h-39.273v3.781h-10.572V22.104h60.976zM582.744 74.889h29.822v-3.29h-29.822v3.29zm0-10.92h29.822v-3.08h-29.822v3.08zm0-10.711h29.822v-2.801h-29.822v2.801zm21.702-14.632c-.56 1.05-1.051 2.1-1.61 3.08h20.372v44.805h-10.642V83.64h-29.822v2.871h-10.151V41.706h18.622c.349-1.05.63-2.03.84-3.08h-25.763v-9.381h14.911c-1.33-1.96-3.08-4.131-4.62-5.811l9.1-4.06c2.661 2.45 5.532 5.81 7.001 8.261l-3.08 1.61h14.632c1.82-2.87 3.71-6.581 4.83-9.451l11.831 2.381c-1.75 2.589-3.57 4.969-5.25 7.07h14.631v9.381h-25.832zM668.634 64.459h26.812v-2.45h-26.812v2.45zm0-9.591h26.812v-2.451h-26.812v2.451zm0-9.522h26.812v-2.45h-26.812v2.45zm27.163 26.744c6.93 2.519 14.351 5.53 18.901 7.7l-10.36 6.721c-4.411-2.59-12.322-6.441-19.813-9.101l6.231-5.32h-17.362l6.441 5.25c-6.441 3.36-15.962 7.071-23.242 9.101-1.681-2.24-4.691-5.671-7.001-7.841 5.81-1.4 12.951-4.06 18.061-6.51h-9.66V35.265h17.712c.21-.98.35-2.03.489-3.01h-23.802v-9.241h58.946v9.241h-23.382c-.351 1.05-.7 2.03-1.05 3.01h19.741V72.09h-10.85zM84.714 87.352c0 6.265-5.096 11.36-11.361 11.36H42.516c-3.128 0-6.148-1.308-8.287-3.589L8.625 67.816c-1.464-1.534-1.394-3.984.203-5.429 1.507-1.36 3.922-1.22 5.384.312l10.974 11.492c2.353 2.465 6.526.792 6.526-2.615V11.361c0-2.128 1.765-3.846 3.923-3.786 2.044.056 3.707 1.824 3.707 3.943 0 41.67-.071 15.207-.071 37.712 0 2.098 1.708 3.807 3.822 3.785 2.112.022 3.823-1.686 3.823-3.785V37.15c.337-1.746 1.874-3.068 3.716-3.068 2.087 0 3.787 1.7 3.787 3.788v11.36c0 2.092 1.695 3.787 3.787 3.787 2.09 0 3.786-1.695 3.786-3.787v-6.312c0-2.087 1.7-3.787 3.787-3.787 2.088 0 3.788 1.7 3.788 3.787v6.312c0 2.092 1.695 3.787 3.786 3.787 2.092 0 3.787-1.695 3.787-3.787v-1.262c0-2.088 1.699-3.787 3.787-3.787s3.787 1.7 3.787 3.787v39.384zM75.906 37.78c-2.838-5.572-9.598-7.795-15.147-5.05-2.58-5.064-8.481-7.456-13.843-5.594V11.518C46.916 5.336 41.948.171 35.84.004c-6.4-.18-11.702 4.944-11.702 11.357v50.765l-4.45-4.658c-4.27-4.47-11.42-4.785-15.938-.699-4.77 4.311-5.007 11.65-.616 16.264l25.568 27.27c3.565 3.802 8.6 5.984 13.813 5.984h30.837c10.44 0 18.935-8.495 18.935-18.935V47.968c0-8.389-8.85-13.915-16.382-10.188z" mask="url(#prefix__c)"/>
        </g>
    </g>
</svg>
