<svg xmlns="http://www.w3.org/2000/svg" xmlns:xlink="http://www.w3.org/1999/xlink" width="48" height="43" viewBox="0 0 48 43">
    <defs>
        <path id="prefix__a" d="M0.014 0.823L43.019 0.823 43.019 43 0.014 43z"/>
        <path id="prefix__c" d="M0.298 0.496L19.053 0.496 19.053 26.065 0.298 26.065z"/>
    </defs>
    <g fill="none" fill-rule="evenodd">
        <g transform="translate(0 -1) translate(3 .504)">
            <mask id="prefix__b" fill="#fff">
                <use xlink:href="#prefix__a"/>
            </mask>
            <path fill="#1A1A1A" d="M26.332.823L1.048 17.758C-1.313 19.34.508 26.2 5.116 33.08c4.609 6.88 10.258 11.175 12.62 9.593l25.283-16.935L26.332.823z" mask="url(#prefix__b)"/>
        </g>
        <g transform="translate(0 -1) translate(28 .504)">
            <mask id="prefix__d" fill="#fff">
                <use xlink:href="#prefix__c"/>
            </mask>
            <path fill="#918887" d="M18.019 25.737c-2.361 1.582-8.011-2.713-12.619-9.593C.792 9.264-1.029 2.405 1.332.824c2.361-1.583 8.011 2.712 12.62 9.592 4.608 6.88 6.429 13.74 4.067 15.321" mask="url(#prefix__d)"/>
        </g>
        <path fill="#FFF" d="M44.852 23.999c-1.505 1.008-5.833-2.817-9.67-8.544-3.836-5.727-5.726-11.185-4.22-12.193 1.505-1.008 5.833 2.817 9.67 8.544 3.835 5.726 5.724 11.185 4.22 12.193" transform="translate(0 -1)"/>
        <path fill="#BDB0AE" d="M2.648 40.424L.282 36.892c-.512-.764-.307-1.798.457-2.31l17.16-11.495c.765-.512 1.8-.308 2.31.457l2.367 3.532c.512.764.308 1.798-.456 2.31L4.958 40.881c-.764.512-1.798.308-2.31-.457" transform="translate(0 -1)"/>
        <path fill="#8E8584" d="M19.093 28.78c-.735.493-1.731.296-2.224-.44-.492-.735-.295-1.73.44-2.222.736-.493 1.73-.296 2.223.439.493.736.296 1.73-.44 2.223" transform="translate(0 -1)"/>
        <path stroke="#FFF" d="M37.907 26.57L19.803 40.144" transform="translate(0 -1)"/>
    </g>
</svg>
