<svg xmlns="http://www.w3.org/2000/svg" xmlns:xlink="http://www.w3.org/1999/xlink" width="909" height="170" viewBox="0 0 909 170">
    <defs>
        <filter id="prefix__a" width="115.7%" height="168.3%" x="-7.9%" y="-37.1%" filterUnits="objectBoundingBox">
            <feMorphology in="SourceAlpha" operator="dilate" radius="5" result="shadowSpreadOuter1"/>
            <feOffset dy="-5" in="shadowSpreadOuter1" result="shadowOffsetOuter1"/>
            <feGaussianBlur in="shadowOffsetOuter1" result="shadowBlurOuter1" stdDeviation="13.5"/>
            <feColorMatrix in="shadowBlurOuter1" result="shadowMatrixOuter1" values="0 0 0 0 0.897843071 0 0 0 0 0.0543701463 0 0 0 0 0.0543701463 0 0 0 0.261500219 0"/>
            <feOffset dy="2" in="SourceAlpha" result="shadowOffsetOuter2"/>
            <feGaussianBlur in="shadowOffsetOuter2" result="shadowBlurOuter2" stdDeviation="9.5"/>
            <feColorMatrix in="shadowBlurOuter2" result="shadowMatrixOuter2" values="0 0 0 0 0.579766757 0 0 0 0 0 0 0 0 0 0 0 0 0 0.5 0"/>
            <feMerge>
                <feMergeNode in="shadowMatrixOuter1"/>
                <feMergeNode in="shadowMatrixOuter2"/>
            </feMerge>
        </filter>
        <filter id="prefix__c" width="112%" height="151.9%" x="-6%" y="-25.9%" filterUnits="objectBoundingBox">
            <feMorphology in="SourceAlpha" operator="dilate" radius="10" result="shadowSpreadOuter1"/>
            <feOffset in="shadowSpreadOuter1" result="shadowOffsetOuter1"/>
            <feGaussianBlur in="shadowOffsetOuter1" result="shadowBlurOuter1" stdDeviation="4.5"/>
            <feComposite in="shadowBlurOuter1" in2="SourceAlpha" operator="out" result="shadowBlurOuter1"/>
            <feColorMatrix in="shadowBlurOuter1" values="0 0 0 0 1 0 0 0 0 1 0 0 0 0 1 0 0 0 0.5 0"/>
        </filter>
        <filter id="prefix__g" width="110.5%" height="150.8%" x="-5.2%" y="-25.4%" filterUnits="objectBoundingBox">
            <feOffset dy="1" in="SourceAlpha" result="shadowOffsetOuter1"/>
            <feGaussianBlur in="shadowOffsetOuter1" result="shadowBlurOuter1" stdDeviation="3.5"/>
            <feColorMatrix in="shadowBlurOuter1" result="shadowMatrixOuter1" values="0 0 0 0 1 0 0 0 0 1 0 0 0 0 1 0 0 0 0.588450612 0"/>
            <feMerge>
                <feMergeNode in="shadowMatrixOuter1"/>
                <feMergeNode in="SourceGraphic"/>
            </feMerge>
        </filter>
        <linearGradient id="prefix__f" x1="50.25%" x2="49.763%" y1="55.72%" y2="46.58%">
            <stop offset="0%" stop-color="#FF5969"/>
            <stop offset="100%" stop-color="#F0233D"/>
        </linearGradient>
        <linearGradient id="prefix__e" x1="98.137%" x2="-.988%" y1="71.445%" y2="71.445%">
            <stop offset="0%" stop-color="#DFDFDF"/>
            <stop offset="24.982%" stop-color="#DF6565"/>
            <stop offset="65.76%" stop-color="#FDFDFD"/>
            <stop offset="83.768%" stop-color="#E36666"/>
            <stop offset="100%" stop-color="#DDD"/>
        </linearGradient>
        <path id="prefix__b" d="M162.793 0L0.288 170 908.325 168 746.819 0z"/>
        <path id="prefix__d" d="M604.407 34.473L294.213 34.473 190.311 34.473 84.458 140.471 294.213 140.471 604.407 140.471 824.212 140.471 718.359 34.473z"/>
    </defs>
    <g fill="none" fill-rule="evenodd">
        <use fill="#000" filter="url(#prefix__a)" xlink:href="#prefix__b"/>
        <use fill="#F7E7EA" xlink:href="#prefix__b"/>
        <use fill="#000" filter="url(#prefix__c)" xlink:href="#prefix__d"/>
        <path fill="url(#prefix__f)" stroke="url(#prefix__e)" stroke-width="8" d="M720.017 30.473H188.653L74.81 144.471h759.05L720.017 30.473z"/>
        <path fill="#C10021" fill-rule="nonzero" d="M278.493 47.773L278.493 50.773 202.814 50.773 133.134 116.085 137.191 128.819 191.4 128.82 191.4 131.82 111.963 131.82 201.628 47.773zM703.476 47.773L793.143 131.82 713.704 131.82 713.704 128.82 767.913 128.819 771.97 116.086 702.29 50.773 626.611 50.773 626.611 47.773z"/>
        <g fill="#FFF" filter="url(#prefix__g)" transform="translate(293 52)">
            <path d="M107.985 7.386v55.197h9.06v-3.24h33.659v3.24h9.539V7.386h-52.258zm9.06 43.857h33.658V16.325h-33.658v34.918zm4.14-5.58h25.318V22.085h-25.318v23.578zm8.22-7.5h8.339v-8.518h-8.34v8.519z"/>
            <g>
                <path d="M192.885 52.041h25.559v-2.82h-25.559v2.82zm0-9.36h25.559v-2.64h-25.559v2.64zm0-9.18h25.559v-2.399h-25.559v2.399zm18.599-12.539c-.48.899-.9 1.8-1.38 2.64h17.459V62h-9.119v-2.46h-25.559V62h-8.7V23.602h15.959c.301-.901.54-1.741.721-2.64h-22.08v-8.04h12.78c-1.14-1.68-2.64-3.539-3.96-4.98l7.8-3.479c2.279 2.099 4.739 4.979 6 7.079l-2.641 1.38h12.54c1.56-2.46 3.18-5.64 4.14-8.1l10.139 2.04c-1.5 2.22-3.059 4.26-4.5 6.06h12.54v8.04h-22.139zM266.504 43.101h22.979v-2.1h-22.979v2.1zm0-8.22h22.979v-2.1h-22.979v2.1zm0-8.159h22.979v-2.101h-22.979v2.101zm23.28 22.919c5.939 2.16 12.299 4.74 16.199 6.599l-8.88 5.76c-3.779-2.22-10.56-5.52-16.979-7.8l5.34-4.559h-14.88l5.52 4.5c-5.52 2.88-13.679 6.059-19.919 7.798-1.44-1.919-4.02-4.859-6-6.718 4.98-1.2 11.1-3.481 15.479-5.58h-8.279V18.082h15.18c.179-.84.3-1.74.42-2.58h-20.4v-7.92h50.518v7.92h-20.039c-.3.9-.6 1.74-.9 2.58h16.919v31.559h-9.299zM37.148.417L.001 28.441 13.201 28.441 13.201 60.503 27.083 60.503 27.083 41.279 47.213 41.279 47.213 60.503 61.095 60.503 61.095 28.441 74.295 28.441z" transform="translate(0 .583)"/>
            </g>
        </g>
    </g>
</svg>
