<svg xmlns="http://www.w3.org/2000/svg" xmlns:xlink="http://www.w3.org/1999/xlink" width="3840" height="2160" viewBox="0 0 3840 2160">
    <defs>
        <linearGradient id="prefix__c" x1="50%" x2="50%" y1="99.666%" y2="-10.411%">
            <stop offset="0%" stop-color="#E5E5E5"/>
            <stop offset="83%" stop-color="#FFF"/>
        </linearGradient>
        <linearGradient id="prefix__d" x1="50.072%" x2="49.906%" y1="9.461%" y2="103.175%">
            <stop offset="1%" stop-color="#FDD7C0"/>
            <stop offset="6%" stop-color="#FDE0CE" stop-opacity=".78"/>
            <stop offset="12%" stop-color="#FEE8DB" stop-opacity=".58"/>
            <stop offset="18%" stop-color="#FEEFE6" stop-opacity=".4"/>
            <stop offset="24%" stop-color="#FEF5EF" stop-opacity=".26"/>
            <stop offset="30%" stop-color="#FFF9F6" stop-opacity=".14"/>
            <stop offset="37%" stop-color="#FFFCFB" stop-opacity=".06"/>
            <stop offset="43%" stop-color="#FFFEFE" stop-opacity=".02"/>
            <stop offset="49%" stop-color="#FFF" stop-opacity="0"/>
            <stop offset="99%" stop-color="#F1F1F1" stop-opacity="0"/>
        </linearGradient>
        <path id="prefix__a" d="M0 0H3840V2160H0z"/>
    </defs>
    <g fill="none" fill-rule="evenodd">
        <mask id="prefix__b" fill="#fff">
            <use xlink:href="#prefix__a"/>
        </mask>
        <use fill="#D8D8D8" xlink:href="#prefix__a"/>
        <g mask="url(#prefix__b)">
            <g>
                <path fill="url(#prefix__c)" fill-rule="nonzero" d="M123.24 1067.5H4203.24V3365.12H123.24z" transform="translate(-277 -1139)"/>
                <path stroke="#E5E5E5" d="M244.91 995.15v2527.91M348.43 995.15v2527.91M451.95 995.15v2527.91M555.48 995.15v2527.91M659 995.15v2527.91M762.52 995.15v2527.91M866.04 995.15v2527.91M969.56 995.15v2527.91M1073.08 995.15v2527.91M1176.6 995.15v2527.91M1280.12 995.15v2527.91M1383.64 995.15v2527.91M1487.16 995.15v2527.91M1590.68 995.15v2527.91M1694.2 995.15v2527.91M1797.72 995.15v2527.91M1901.24 995.15v2527.91M2004.76 995.15v2527.91M2108.28 995.15v2527.91M2211.8 995.15v2527.91M2315.32 995.15v2527.91M2418.84 995.15v2527.91M2522.37 995.15v2527.91M2625.89 995.15v2527.91M2729.41 995.15v2527.91M2832.93 995.15v2527.91M2936.45 995.15v2527.91M3039.97 995.15v2527.91M3143.49 995.15v2527.91M3247.01 995.15v2527.91M3350.53 995.15v2527.91M3454.05 995.15v2527.91M3557.57 995.15v2527.91M3661.09 995.15v2527.91M3764.61 995.15v2527.91M3868.13 995.15v2527.91M3971.65 995.15v2527.91M4075.17 995.15v2527.91M4178.69 995.15v2527.91M4282.21 995.15v2527.91M4385.73 995.15v2527.91M4385.74 965.1H117.51M4385.74 1068.62H117.51M4385.74 1172.14H117.51M4385.74 1275.66H117.51M4385.74 1379.18H117.51M4385.74 1482.7H117.51M4385.74 1586.22H117.51M4385.74 1689.74H117.51M4385.74 1793.26H117.51M4385.74 1896.78H117.51M4385.74 2000.3H117.51M4385.74 2103.83H117.51M4385.74 2207.35H117.51M4385.74 2310.87H117.51M4385.74 2414.39H117.51M4385.74 2517.91H117.51M4385.74 2621.43H117.51M4385.74 2724.95H117.51M4385.74 2828.47H117.51M4385.74 2931.99H117.51M4385.74 3035.51H117.51M4385.74 3139.03H117.51M4385.74 3242.55H117.51M4385.74 3346.07H117.51M4385.74 3449.59H117.51" transform="translate(-277 -1139)"/>
                <path fill="#FFF" fill-rule="nonzero" d="M4091.34 3124.3s-102.55-139.32-223.75 13.93c0 0-172.7-208.75-417.6 11.54 0 0-227.42-157-364.74 37.22 0 0-151-168-366.23 6.19-127-128-312.5-120.23-398.9-11.37-215.25-174.22-366.23-6.19-366.23-6.19-137.32-194.22-364.73-37.21-364.73-37.21-244.91-220.29-417.6-11.55-417.6-11.55-121.2-153.24-223.76-13.93-223.76-13.93-171-219.29-389.23-20.9-389.23-20.9s-172.47-156.73-346.5 48.12l-.45 1183.91h2227.62v11.37h1852.38v-1314c-63.9-3.34-135.48 19.79-200.28 102.87z" opacity=".49" transform="translate(-277 -1139)"/>
                <path fill="#FFF" fill-rule="nonzero" d="M4322.46 2644.24s-114.25-155.21-249.28 15.52c0 0-192.41-232.57-465.26 12.86 0 0-253.37-174.92-406.36 41.47 0 0-168.21-187.21-408 6.89-141.48-142.62-348.16-134-444.41-12.67-239.82-194.09-408-6.89-408-6.89-153-216.38-406.36-41.46-406.36-41.46-272.84-245.43-465.25-12.86-465.25-12.86-135-170.74-249.29-15.52-249.29-15.52-190.61-244.28-433.71-23.28-433.71-23.28s-192.16-174.61-386 53.61l-.5 1319h2481.73v12.67h2063.82v-1464c-71.19-3.67-150.94 22.1-223.13 114.66z" opacity=".49" transform="translate(-277 -1139)"/>
                <path fill="url(#prefix__d)" fill-rule="nonzero" d="M243.24 1123.71H4316.37V3433.01H243.24z" transform="translate(-277 -1139)"/>
                <path fill="#FFF" fill-rule="nonzero" d="M322.87 1508.88s79.28 90 256.87 4.74c0 0 250.53 182.45 537.52-90 0 0 199.79 199 450.31 19 0 0 100 109.7 279.16 109.7 249.76 0 330.47-111.49 330.47-111.49 308.53 241.78 567.8-5.8 567.8-5.8 287 272.49 537.52 90 537.52 90 177.59 85.27 256.87-4.73 256.87-4.73 166.28 214.24 327.1 47.06 327.1 47.06s151.5 233.35 372.15 73.78V11.37H2008.37V0H159.08v1616.94c49.69-5.64 106.42-34.14 163.79-108.06z" opacity=".2" transform="translate(-277 -1139)"/>
                <path fill="#FFF" fill-rule="nonzero" d="M268.56 1357.89s102.55 139.32 223.75-13.93c0 0 172.7 208.75 417.6-11.54 0 0 227.42 157 364.74-37.22 0 0 151 168 366.23-6.19 127 128 312.51 120.24 398.9 11.38 215.25 174.21 366.23 6.18 366.23 6.18 137.32 194.22 364.74 37.22 364.74 37.22 244.9 220.29 417.6 11.54 417.6 11.54 121.2 153.25 223.75 13.97 223.75 13.97 171 219.29 389.23 20.89 389.23 20.89s172.48 156.74 346.51-48.11l.4-1183.94H1920.71v-11.38H68.24v1314c63.94 3.34 135.52-19.79 200.32-102.87z" opacity=".49" transform="translate(-277 -1139)"/>
            </g>
        </g>
    </g>
</svg>
