<svg xmlns="http://www.w3.org/2000/svg" xmlns:xlink="http://www.w3.org/1999/xlink" width="1001" height="244" viewBox="0 0 1001 244">
    <defs>
        <linearGradient id="prefix__f" x1="50.25%" x2="49.763%" y1="328.607%" y2="-116.566%">
            <stop offset="0%" stop-color="#FF5969"/>
            <stop offset="100%" stop-color="#F0233D"/>
        </linearGradient>
        <linearGradient id="prefix__e" x1="98.137%" x2="-.988%" y1="71.445%" y2="71.445%">
            <stop offset="0%" stop-color="#DFDFDF"/>
            <stop offset="24.982%" stop-color="#DF6565"/>
            <stop offset="65.76%" stop-color="#FDFDFD"/>
            <stop offset="83.768%" stop-color="#E36666"/>
            <stop offset="100%" stop-color="#DDD"/>
        </linearGradient>
        <filter id="prefix__a" width="115.7%" height="168.3%" x="-7.9%" y="-37.1%" filterUnits="objectBoundingBox">
            <feMorphology in="SourceAlpha" operator="dilate" radius="5" result="shadowSpreadOuter1"/>
            <feOffset dy="-5" in="shadowSpreadOuter1" result="shadowOffsetOuter1"/>
            <feGaussianBlur in="shadowOffsetOuter1" result="shadowBlurOuter1" stdDeviation="13.5"/>
            <feColorMatrix in="shadowBlurOuter1" result="shadowMatrixOuter1" values="0 0 0 0 0.897843071 0 0 0 0 0.0543701463 0 0 0 0 0.0543701463 0 0 0 0.261500219 0"/>
            <feOffset dy="2" in="SourceAlpha" result="shadowOffsetOuter2"/>
            <feGaussianBlur in="shadowOffsetOuter2" result="shadowBlurOuter2" stdDeviation="9.5"/>
            <feColorMatrix in="shadowBlurOuter2" result="shadowMatrixOuter2" values="0 0 0 0 0.579766757 0 0 0 0 0 0 0 0 0 0 0 0 0 0.5 0"/>
            <feMerge>
                <feMergeNode in="shadowMatrixOuter1"/>
                <feMergeNode in="shadowMatrixOuter2"/>
            </feMerge>
        </filter>
        <filter id="prefix__c" width="112%" height="151.9%" x="-6%" y="-25.9%" filterUnits="objectBoundingBox">
            <feMorphology in="SourceAlpha" operator="dilate" radius="10" result="shadowSpreadOuter1"/>
            <feOffset in="shadowSpreadOuter1" result="shadowOffsetOuter1"/>
            <feGaussianBlur in="shadowOffsetOuter1" result="shadowBlurOuter1" stdDeviation="4.5"/>
            <feComposite in="shadowBlurOuter1" in2="SourceAlpha" operator="out" result="shadowBlurOuter1"/>
            <feColorMatrix in="shadowBlurOuter1" values="0 0 0 0 1 0 0 0 0 1 0 0 0 0 1 0 0 0 0.5 0"/>
        </filter>
        <path id="prefix__b" d="M162.793 0L0.288 170 908.325 168 746.819 0z"/>
        <path id="prefix__d" d="M604.407 34.473L294.213 34.473 190.311 34.473 84.458 140.471 294.213 140.471 604.407 140.471 824.212 140.471 718.359 34.473z"/>
    </defs>
    <g fill="none" fill-rule="evenodd" transform="translate(46 42)">
        <use fill="#000" filter="url(#prefix__a)" xlink:href="#prefix__b"/>
        <use fill="#F7E7EA" xlink:href="#prefix__b"/>
        <use fill="#000" filter="url(#prefix__c)" xlink:href="#prefix__d"/>
        <path fill="url(#prefix__f)" stroke="url(#prefix__e)" stroke-width="8" d="M188.653 30.473h531.364L833.86 144.471H74.81L188.653 30.473z"/>
        <path fill="#C10021" fill-rule="nonzero" d="M278.493 47.773L278.493 50.773 202.814 50.773 133.134 116.085 137.191 128.819 191.4 128.82 191.4 131.82 111.963 131.82 201.628 47.773zM703.476 47.773L793.143 131.82 713.704 131.82 713.704 128.82 767.913 128.819 771.97 116.086 702.29 50.773 626.611 50.773 626.611 47.773z"/>
        <path fill="#FFF" d="M320.092 57.429L282.945 85.453 296.145 85.453 296.145 117.515 310.027 117.515 310.027 98.291 330.157 98.291 330.157 117.515 344.039 117.515 344.039 85.453 357.239 85.453z"/>
        <text fill="#FFF" font-family="NotoSansCJKtc-Black, Noto Sans CJK TC" font-size="60" font-weight="700" letter-spacing=".2">
            <tspan x="388" y="113">回首頁</tspan>
        </text>
    </g>
</svg>
