<svg xmlns="http://www.w3.org/2000/svg" xmlns:xlink="http://www.w3.org/1999/xlink" width="59" height="59" viewBox="0 0 59 59">
    <defs>
        <path id="prefix__a" d="M0 0.081L58.919 0.081 58.919 59 0 59z"/>
    </defs>
    <g fill="none" fill-rule="evenodd">
        <g transform="translate(0 -1) translate(0 .92)">
            <mask id="prefix__b" fill="#fff">
                <use xlink:href="#prefix__a"/>
            </mask>
            <path fill="#FFF" d="M58.92 29.54C58.92 45.81 45.73 59 29.46 59 13.19 59 0 45.81 0 29.54 0 13.27 13.19.08 29.46.08c16.27 0 29.46 13.19 29.46 29.46" mask="url(#prefix__b)"/>
        </g>
        <path fill="#1A1A1A" d="M57.837 30.46c0 15.672-12.705 28.377-28.377 28.377-15.673 0-28.378-12.705-28.378-28.378 0-15.672 12.705-28.377 28.378-28.377 15.672 0 28.377 12.705 28.377 28.377" transform="translate(0 -1)"/>
        <path stroke="#FFF" d="M57.837 30.46c0 15.672-12.705 28.377-28.377 28.377-15.673 0-28.378-12.705-28.378-28.378 0-15.672 12.705-28.377 28.378-28.377 15.672 0 28.377 12.705 28.377 28.377z" transform="translate(0 -1)"/>
        <path stroke="#333" stroke-width="6" d="M45.418 30.46c0 8.812-7.145 15.957-15.958 15.957S13.502 39.272 13.502 30.46s7.145-15.958 15.958-15.958 15.958 7.145 15.958 15.958z" transform="translate(0 -1)"/>
        <path stroke="#FF5A6A" stroke-width="6" d="M29.46 14.501c8.813 0 15.958 7.145 15.958 15.958S38.273 46.417 29.46 46.417 13.502 39.272 13.502 30.46" transform="translate(0 -1)"/>
    </g>
</svg>
