<svg xmlns="http://www.w3.org/2000/svg" xmlns:xlink="http://www.w3.org/1999/xlink" width="489" height="474" viewBox="0 0 489 474">
    <defs>
        <path id="prefix__a" d="M154.625 0.252L156.702 15.275 0.02 64.091 0.02 48.935z"/>
        <path id="prefix__d" d="M0.004 29.272L0.005 83.335 89.064 54.233 89.064 0.826z"/>
        <path id="prefix__g" d="M14.723 6.557l.005 9.989-13.301 2.009c-.754.131-1.365.942-1.365 1.812L.054 33.38c0 .872.61 1.471 1.364 1.34 0 0 19.337-3.988 19.337-4.859l-.488-28.797s-.143-.043-.385-.096c-.469-.102-.904-.152-1.304-.152-2.704 0-3.857 2.256-3.855 5.741"/>
        <path id="prefix__j" d="M17.997 1.641c-5.364 2.355-2.619 13.72-2.619 13.72L2.501 17.39c-.127.013-.248.037-.362.07-1.003.29-1.491 1.346-1.491 2.737v13.11l1.853 2.162-.433-14.004c.087-1.949 1.861-1.768 1.861-1.768l12.799-2.151s.053-7.124.291-11.492c.238-4.369 5.247-3.99 5.247-3.99L21.149.997c-.184-.035-.372-.051-.561-.051-.947 0-1.921.4-2.591.695"/>
        <path id="prefix__m" d="M0.466 4.302L7.351 12.716 7.351 8.169 0.466 0.033z"/>
        <path id="prefix__p" d="M3.622 2.383c-1.071.185-1.939 1.339-1.939 2.576L.333 8.04 13.76 5.788 15.111.467 3.622 2.383z"/>
        <path id="prefix__s" d="M14.451 4.02l.575 10.935-13.31 2.238c-.754.13-1.365.942-1.365 1.812v12.784c0 .87.611 1.47 1.365 1.339l17.972-3.045c.754-.132 1.364-.943 1.364-1.813V17.427L21.341.995 17.579.369c-1.566.272-2.895 1.824-3.128 3.651"/>
        <path id="prefix__v" d="M1.466 2.534c-1.624.54 0 6.499 0 6.499l8.498 10.05 15-7.981L15.696.461S4.246 1.607 1.466 2.534"/>
        <path id="prefix__y" d="M15.37 6.151l.006 9.989-13.311 2.238c-.753.131-1.364.942-1.364 1.813v12.783c0 .87.612 1.47 1.365 1.339l17.972-3.045c.753-.131 1.365-.942 1.365-1.813L21.691.903S21.55.86 21.307.808c-.506-.11-.987-.164-1.438-.164-2.798 0-4.501 2.061-4.499 5.507"/>
        <path id="prefix__B" d="M17.717 1.183c-1.904.993-2.838 3.295-2.799 6.284l.108 8.488S1.901 18.021 1.787 18.054C.783 18.344.295 19.4.295 20.791V33.9l1.853 2.162-.03-14.123c.085-1.949 1.859-1.769 1.859-1.769l12.399-2.03s.052-7.124.29-11.492c.239-4.369 6.025-3.745 6.025-3.745L20.534.791c-.307-.059-.601-.087-.881-.087-.733 0-1.377.188-1.936.479"/>
        <path id="prefix__E" d="M14.921 5.834l.006 9.989-13.302 2.009c-.754.131-1.365.942-1.365 1.813L.253 32.658c0 .87.61 1.469 1.363 1.339 0 0 19.338-3.988 19.338-4.858L20.465.34s-.142-.042-.384-.095c-.47-.102-.904-.151-1.304-.151-2.705 0-3.858 2.255-3.856 5.74"/>
        <path id="prefix__H" d="M18.194.918c-5.363 2.355-2.618 13.721-2.618 13.721L2.699 16.668c-.128.012-.247.036-.362.07-1.002.289-1.491 1.345-1.491 2.737v13.109l1.853 2.163-.432-14.004c.086-1.95 1.86-1.77 1.86-1.77l12.8-2.15s.051-7.123.29-11.492c.239-4.368 5.247-3.991 5.247-3.991L21.348.275c-.184-.036-.372-.052-.561-.052-.947 0-1.922.401-2.593.695"/>
        <path id="prefix__K" d="M0.665 4.579L7.549 12.993 7.549 8.446 0.665 0.311z"/>
        <path id="prefix__N" d="M3.821 2.66c-1.072.186-1.939 1.339-1.939 2.575L.531 8.318l13.428-2.252 1.35-5.322L3.821 2.66z"/>
        <path id="prefix__Q" d="M14.649 4.298l.575 10.934-13.31 2.238c-.753.131-1.365.943-1.365 1.813v12.783c0 .871.612 1.47 1.365 1.34l17.972-3.046c.754-.131 1.365-.943 1.365-1.813V17.704l.289-16.431-3.763-.627c-1.565.272-2.895 1.824-3.128 3.652"/>
        <path id="prefix__T" d="M1.665 2.811c-1.625.541 0 6.5 0 6.5l8.498 10.047 14.999-7.978L15.894.738S4.445 1.885 1.665 2.811"/>
        <path id="prefix__W" d="M15.569 6.428l.005 9.989-13.31 2.238C1.511 18.787.9 19.597.9 20.468v12.784c0 .869.611 1.469 1.365 1.338l17.971-3.046c.754-.129 1.365-.941 1.365-1.812l.288-28.552s-.142-.043-.384-.096C21 .974 20.52.92 20.069.92c-2.799 0-4.502 2.061-4.5 5.508"/>
        <path id="prefix__Z" d="M17.915 1.46c-1.904.992-2.837 3.295-2.8 6.284l.109 8.489S2.099 18.298 1.985 18.332C.982 18.621.493 19.677.493 21.068v13.109l1.854 2.163-.031-14.124c.086-1.949 1.859-1.768 1.859-1.768l12.399-2.031s.052-7.123.291-11.492c.238-4.37 6.024-3.745 6.024-3.745l-2.158-2.112c-.306-.06-.598-.087-.878-.087-.734 0-1.379.188-1.938.479"/>
        <path id="prefix__ac" d="M14.892 6.249l.006 9.989-13.302 2.008c-.754.132-1.364.942-1.364 1.813L.223 33.073c0 .87.611 1.469 1.365 1.338 0 0 19.336-3.988 19.336-4.858L20.436.756s-.143-.044-.385-.097c-.469-.102-.904-.151-1.304-.151-2.704 0-3.858 2.255-3.855 5.741"/>
        <path id="prefix__af" d="M18.166 1.333c-5.363 2.355-2.618 13.72-2.618 13.72L2.67 17.082c-.127.013-.248.037-.361.07-1.004.291-1.493 1.345-1.493 2.737v13.109l1.854 2.163-.432-14.004c.087-1.949 1.86-1.769 1.86-1.769l12.8-2.15s.052-7.123.289-11.493c.239-4.367 5.249-3.989 5.249-3.989L21.319.689c-.184-.036-.371-.052-.559-.052-.948.001-1.923.401-2.594.696"/>
        <path id="prefix__ai" d="M0.635 4.993L7.52 13.408 7.52 8.861 0.635 0.726z"/>
        <path id="prefix__al" d="M3.791 2.074c-1.071.186-1.939 1.34-1.939 2.575L.501 7.732 13.929 5.48 15.28.159 3.791 2.074z"/>
        <path id="prefix__ao" d="M14.62 3.712l.576 10.935-13.311 2.238c-.754.131-1.365.942-1.365 1.813L.521 31.48c0 .871.61 1.47 1.364 1.34l17.972-3.046c.754-.13 1.365-.941 1.365-1.812l-.001-10.844L21.51.687 17.748.062c-1.565.27-2.895 1.823-3.128 3.65"/>
        <path id="prefix__ar" d="M1.635 2.226c-1.623.541 0 6.5 0 6.5l8.499 10.047 15-7.979L15.866.152S4.416 1.299 1.635 2.226"/>
        <path id="prefix__au" d="M15.539 5.842l.007 9.99-13.31 2.238c-.754.13-1.366.942-1.366 1.812v12.784c0 .87.612 1.47 1.366 1.339l17.972-3.046c.753-.13 1.364-.942 1.364-1.812L21.861.595S21.718.552 21.476.5C20.97.39 20.49.336 20.039.336c-2.798 0-4.501 2.06-4.5 5.506"/>
        <path id="prefix__ax" d="M17.886.874c-1.904.992-2.838 3.296-2.798 6.285l.108 8.488S2.07 17.712 1.957 17.746c-1.004.29-1.493 1.345-1.493 2.737v13.109l1.854 2.162-.031-14.124c.085-1.948 1.86-1.768 1.86-1.768l12.399-2.031s.051-7.123.29-11.492c.238-4.368 6.025-3.745 6.025-3.745L20.703.483c-.307-.06-.601-.088-.881-.087-.733 0-1.377.187-1.936.478"/>
        <path id="prefix__aA" d="M15.405 5.842l.005 9.989L2.109 17.84c-.754.131-1.364.942-1.364 1.813L.736 32.665c0 .87.611 1.471 1.365 1.34 0 0 19.335-3.988 19.335-4.858L20.949.349s-.142-.043-.386-.096C20.094.151 19.66.102 19.26.102c-2.704 0-3.857 2.255-3.855 5.74"/>
        <path id="prefix__aD" d="M17.679.926c-5.363 2.356-2.619 13.721-2.619 13.721L2.184 16.675c-.128.013-.25.037-.362.071C.818 17.036.33 18.091.33 19.483v13.109l1.854 2.162-.433-14.004c.086-1.949 1.859-1.769 1.859-1.769l12.8-2.15s.052-7.124.292-11.492c.236-4.369 5.247-3.99 5.247-3.99L20.833.282c-.184-.036-.372-.051-.56-.051-.949 0-1.924.4-2.594.695"/>
        <path id="prefix__aG" d="M0.148 4.587L7.033 13.002 7.034 8.455 0.148 0.319z"/>
        <path id="prefix__aJ" d="M3.304 2.668c-1.071.186-1.94 1.339-1.94 2.575L.014 8.326l13.427-2.253L14.792.752 3.304 2.668z"/>
        <path id="prefix__aM" d="M14.132 4.306l.576 10.935-13.31 2.236c-.754.132-1.365.944-1.364 1.813v12.784c0 .871.61 1.47 1.364 1.34l17.971-3.047c.754-.13 1.365-.942 1.365-1.812V17.712l.288-16.432-3.761-.625c-1.566.271-2.896 1.823-3.129 3.651"/>
        <path id="prefix__aP" d="M1.148 2.819c-1.623.541 0 6.5 0 6.5l8.498 10.047 15.001-7.978L15.378.746S3.929 1.893 1.148 2.819"/>
        <path id="prefix__aS" d="M15.052 6.436l.007 9.989-13.311 2.239c-.753.13-1.365.942-1.365 1.812v12.783c0 .87.612 1.47 1.365 1.34l17.972-3.046c.754-.131 1.365-.942 1.365-1.812l.288-28.553s-.142-.042-.385-.095c-.506-.11-.986-.164-1.437-.164-2.798 0-4.501 2.061-4.499 5.507"/>
        <path id="prefix__aV" d="M18.399 1.468c-1.903.992-2.837 3.295-2.799 6.284l.108 8.489S2.582 18.306 2.469 18.339C1.466 18.63.978 19.685.978 21.077v13.109l1.854 2.162-.033-14.124c.086-1.948 1.861-1.768 1.861-1.768l12.399-2.031s.051-7.124.29-11.492c.238-4.369 6.024-3.745 6.024-3.745l-2.158-2.113c-.305-.059-.597-.086-.876-.086-.734 0-1.38.188-1.94.479"/>
        <path id="prefix__aY" d="M15.602 6.12l.007 9.989-13.302 2.008c-.754.131-1.365.943-1.365 1.813L.934 32.942c0 .871.611 1.47 1.366 1.34 0 0 19.335-3.988 19.335-4.858L21.146.625s-.141-.041-.384-.094c-.469-.103-.904-.152-1.304-.152-2.704 0-3.857 2.254-3.856 5.741"/>
        <path id="prefix__bb" d="M17.877 1.203c-5.363 2.355-2.619 13.721-2.619 13.721L2.382 16.952c-.128.013-.249.038-.362.07-1.003.291-1.492 1.347-1.492 2.738v13.11l1.854 2.161-.432-14.004c.085-1.948 1.859-1.769 1.859-1.769l12.8-2.149s.051-7.125.29-11.492c.238-4.37 5.247-3.992 5.247-3.992L21.031.56c-.184-.036-.372-.052-.56-.052-.948 0-1.924.401-2.594.695"/>
        <path id="prefix__be" d="M0.346 4.865L7.231 13.279 7.231 8.73 0.346 0.596z"/>
        <path id="prefix__bh" d="M3.503 1.946c-1.072.185-1.94 1.337-1.94 2.575L.212 7.601 13.64 5.35 14.991.03 3.503 1.946z"/>
        <path id="prefix__bk" d="M14.331 4.583l.576 10.934-13.311 2.238c-.754.131-1.365.942-1.365 1.812v12.784c0 .871.611 1.471 1.365 1.34l17.972-3.046c.753-.131 1.365-.943 1.365-1.813V17.99l.288-16.433-3.762-.625c-1.565.272-2.895 1.823-3.128 3.651"/>
        <path id="prefix__bn" d="M1.346 2.096c-1.623.541 0 6.5 0 6.5l8.499 10.048 15-7.979L15.576.024S4.127 1.17 1.346 2.096"/>
        <path id="prefix__bq" d="M15.251 5.714l.006 9.989-13.31 2.238c-.755.129-1.366.941-1.366 1.813v12.782c0 .87.611 1.47 1.366 1.339l17.971-3.045c.754-.131 1.364-.942 1.364-1.813L21.571.465s-.142-.043-.384-.096c-.506-.11-.985-.163-1.436-.163-2.799 0-4.502 2.061-4.5 5.508"/>
        <path id="prefix__bt" d="M17.597.746c-1.904.992-2.837 3.295-2.799 6.284l.109 8.487s-13.126 2.066-13.24 2.099C.664 17.907.176 18.963.176 20.354v13.108l1.854 2.163-.033-14.124c.087-1.949 1.86-1.768 1.86-1.768l12.4-2.03s.052-7.125.291-11.492c.237-4.37 6.023-3.746 6.023-3.746L20.413.352c-.305-.059-.597-.086-.876-.086-.735 0-1.381.188-1.94.48"/>
        <path id="prefix__bw" d="M14.759 6.685l.006 9.989-13.302 2.008c-.753.131-1.365.942-1.365 1.813L.09 33.508c0 .871.611 1.47 1.365 1.338 0 0 19.336-3.987 19.336-4.858l-.488-28.797s-.143-.042-.385-.095c-.469-.103-.904-.152-1.304-.152-2.704 0-3.858 2.255-3.855 5.741"/>
        <path id="prefix__bz" d="M18.033.769c-5.364 2.354-2.618 13.719-2.618 13.719L2.538 16.517c-.128.014-.249.038-.363.071-1.003.29-1.491 1.346-1.491 2.737v13.109l1.854 2.163-.433-14.005c.086-1.948 1.86-1.768 1.86-1.768l12.8-2.15s.052-7.124.29-11.492c.238-4.369 5.248-3.991 5.248-3.991L21.186.125c-.183-.036-.371-.052-.559-.052-.948 0-1.923.401-2.594.696"/>
        <path id="prefix__bC" d="M0.502 4.43L7.387 12.844 7.387 8.296 0.502 0.161z"/>
        <path id="prefix__bF" d="M3.659 2.51c-1.071.186-1.94 1.339-1.94 2.577L.368 8.167l13.428-2.252 1.351-5.32L3.659 2.51z"/>
        <path id="prefix__bI" d="M14.487 4.147l.575 10.935-13.309 2.239c-.754.13-1.366.942-1.366 1.812v12.783c0 .87.612 1.47 1.366 1.34l17.971-3.045c.754-.132 1.364-.943 1.364-1.813V17.554l.289-16.431-3.763-.626c-1.564.272-2.894 1.823-3.127 3.65"/>
        <path id="prefix__bL" d="M1.502 2.661c-1.623.541 0 6.5 0 6.5L10 19.209l15.001-7.979L15.733.589S4.283 1.734 1.502 2.661"/>
        <path id="prefix__bO" d="M15.406 6.279l.007 9.989-13.311 2.238c-.753.13-1.365.941-1.365 1.812v12.784c0 .869.612 1.47 1.366 1.338l17.972-3.045c.752-.131 1.364-.942 1.364-1.813l.288-28.551s-.142-.044-.384-.096c-.506-.11-.986-.163-1.437-.163-2.798 0-4.502 2.06-4.5 5.507"/>
        <path id="prefix__bR" d="M17.753 1.311c-1.904.991-2.838 3.295-2.799 6.284l.108 8.487S1.937 18.149 1.824 18.181C.819 18.472.332 19.527.332 20.918v13.109l1.853 2.162-.031-14.123c.086-1.949 1.859-1.769 1.859-1.769l12.4-2.029s.051-7.124.29-11.493c.238-4.368 6.024-3.744 6.024-3.744L20.57.918c-.306-.059-.6-.087-.88-.087-.733 0-1.378.189-1.937.48"/>
        <path id="prefix__bU" d="M0.73 1.314L0.42 32.529 2.542 31.551 2.542 0.756z"/>
        <path id="prefix__bX" d="M0.73 1.314L0.42 32.529 2.542 31.551 2.542 0.756z"/>
        <path id="prefix__bZ" d="M0.609 31.116L2.42 32.529 2.73 1.314 0.919 0.756z"/>
        <path id="prefix__cc" d="M0.724 0.784L0.724 2.812 2.498 1.39 2.498 0.179z"/>
        <path id="prefix__cf" d="M0.334 0.619L21.234 21.444 23.009 20.838 1.575 0.619z"/>
        <path id="prefix__ci" d="M0.334 1.986L21.234 23.471 21.234 21.444 0.334 0.619z"/>
        <path id="prefix__cl" d="M1.033 0.944L0.724 32.158 2.846 31.18 2.846 0.385z"/>
        <path id="prefix__co" d="M1.033 0.944L0.724 32.158 2.846 31.18 2.846 0.385z"/>
        <path id="prefix__cq" d="M0.913 30.746L2.724 32.158 3.033 0.944 1.222 0.385z"/>
        <path id="prefix__ct" d="M1.113 1.459L0.803 32.673 2.925 31.694 2.925 0.9z"/>
        <path id="prefix__cw" d="M1.113 1.459L0.803 32.673 2.925 31.694 2.925 0.9z"/>
        <path id="prefix__cy" d="M0.992 31.26L2.803 32.673 3.113 1.459 1.301 0.9z"/>
        <path id="prefix__cB" d="M0.129 22.944L0.129 29.336 70.925 6.55 70.925 1.012 70.183 0.367z"/>
        <path id="prefix__cE" d="M0.119 5.978L88.129 108.336 88.129 101.945 0.119 0.277z"/>
        <path id="prefix__cH" d="M0.416 0.72L0.106 31.935 2.229 30.957 2.229 0.161z"/>
        <path id="prefix__cK" d="M0.416 0.72L0.106 31.935 2.229 30.957 2.229 0.161z"/>
        <path id="prefix__cM" d="M0.296 30.522L2.106 31.935 2.416 0.72 0.605 0.161z"/>
        <path id="prefix__cP" d="M0.41 1.19L0.41 3.217 2.184 1.796 2.184 0.584z"/>
        <path id="prefix__cS" d="M0.019 0.024L20.921 20.849 22.696 20.243 1.26 0.024z"/>
        <path id="prefix__cV" d="M0.019 1.391L20.921 22.876 20.921 20.85 0.019 0.024z"/>
        <path id="prefix__cY" d="M0.72 1.348L0.41 32.564 2.531 31.585 2.531 0.79z"/>
        <path id="prefix__db" d="M0.72 1.348L0.41 32.564 2.531 31.585 2.531 0.79z"/>
        <path id="prefix__dd" d="M0.598 31.152L2.41 32.564 2.72 1.348 0.909 0.79z"/>
        <path id="prefix__dg" d="M0.799 0.864L0.49 32.078 2.612 31.1 2.612 0.305z"/>
        <path id="prefix__dj" d="M0.799 0.864L0.49 32.078 2.612 31.1 2.612 0.305z"/>
        <path id="prefix__dl" d="M0.677 30.666L2.49 32.078 2.799 0.864 0.988 0.305z"/>
        <path id="prefix__do" d="M0.813 23.348L0.813 29.741 71.612 6.955 71.612 1.417 70.868 0.774z"/>
        <path id="prefix__dr" d="M0.805 6.384L88.813 108.741 88.813 102.35 0.805 0.682z"/>
        <path id="prefix__du" d="M37.31.876L4.425 11.668C2.124 12.996.26 16.225.26 18.881l.001 31.408c0 2.656 1.864 3.731 4.164 2.405L37.31 41.902c2.301-1.328 4.165-4.557 4.165-7.214L41.474 3.28c0-1.883-.938-2.972-2.304-2.972-.56 0-1.192.183-1.86.568"/>
        <path id="prefix__dx" d="M0.971 9.268L5.089 17.919 28.901 9.268 18.228 0.318z"/>
        <path id="prefix__dA" d="M0.522 1.733L10.925 9.6 13.592 8.998 3.096 0.848z"/>
        <path id="prefix__dD" d="M10.925 13.6L1.603 5.798C.938 5.31.001 5.785.001 6.61v9.15c0 .32.151.62.409.809l15.921 12.699-.252-28.248C15.151.45 14.373.2 13.72.2c-4.771 0-2.795 13.4-2.795 13.4"/>
        <path id="prefix__dG" d="M0.079 5.02L0.331 33.268 17.738 26.285 17.738 0.135z"/>
        <path id="prefix__dJ" d="M17.692.663C15.25.942.752 6.417.752 6.417s2.48-.156 3.327.603l17.659-4.885S20.362.633 18.219.633c-.171 0-.347.01-.527.03"/>
        <path id="prefix__dM" d="M0.406 9.538L4.525 18.188 28.337 9.538 17.665 0.588z"/>
        <path id="prefix__dP" d="M0.958 1.002L11.361 8.869 14.027 8.268 3.532 0.118z"/>
        <path id="prefix__dS" d="M11.361 13.869L2.039 6.068c-.666-.489-1.603-.014-1.603.811v9.15c0 .32.152.62.409.81l15.921 12.699-.252-28.249c-.927-.57-1.705-.82-2.358-.82-4.772.001-2.795 13.4-2.795 13.4"/>
        <path id="prefix__dV" d="M0.514 5.289L0.766 33.538 18.174 26.555 18.174 0.405z"/>
        <path id="prefix__dY" d="M17.128.933C14.686 1.212.188 6.688.188 6.688s2.479-.158 3.326.601l17.66-4.884S19.798.903 17.656.903c-.172 0-.348.009-.528.03"/>
        <path id="prefix__eb" d="M0 491L488.267 491 488.267 0.172 0 0.172z"/>
        <path id="prefix__ed" d="M.732 12.341c0 5.089 3.274 9.409 7.829 10.98h7.574c4.555-1.571 7.827-5.891 7.827-10.98 0-6.414-5.2-11.614-11.614-11.614C5.933.727.732 5.927.732 12.341"/>
        <linearGradient id="prefix__b" x1="0%" x2="100.001%" y1="50%" y2="50%">
            <stop offset="0%" stop-color="gray"/>
            <stop offset="100%" stop-color="#666"/>
        </linearGradient>
        <linearGradient id="prefix__e" x1="0%" x2="100%" y1="50%" y2="50%">
            <stop offset="0%" stop-color="#646664"/>
            <stop offset="100%" stop-color="#333"/>
        </linearGradient>
        <linearGradient id="prefix__h" x1="-.001%" x2="100%" y1="29.522%" y2="70.53%">
            <stop offset="0%" stop-color="#646664"/>
            <stop offset="100%" stop-color="#333"/>
        </linearGradient>
        <linearGradient id="prefix__k" x1="-.002%" x2="100.002%" y1="28.317%" y2="70.396%">
            <stop offset="0%" stop-color="#646664"/>
            <stop offset="100%" stop-color="#333"/>
        </linearGradient>
        <linearGradient id="prefix__n" x1="-.001%" x2="100.002%" y1="31.764%" y2="68.243%">
            <stop offset="0%" stop-color="#646664"/>
            <stop offset="100%" stop-color="#333"/>
        </linearGradient>
        <linearGradient id="prefix__q" x1="-.006%" x2="99.998%" y1="-15.565%" y2="115.57%">
            <stop offset="0%" stop-color="#646664"/>
            <stop offset="100%" stop-color="#333"/>
        </linearGradient>
        <linearGradient id="prefix__t" x1="0%" x2="99.999%" y1="28.589%" y2="71.621%">
            <stop offset="0%" stop-color="#646664"/>
            <stop offset="100%" stop-color="#333"/>
        </linearGradient>
        <linearGradient id="prefix__w" x1=".001%" x2="100.002%" y1="6.386%" y2="93.784%">
            <stop offset="0%" stop-color="#646664"/>
            <stop offset="100%" stop-color="#333"/>
        </linearGradient>
        <linearGradient id="prefix__z" x1=".002%" x2="100.001%" y1="28.622%" y2="70.491%">
            <stop offset="0%" stop-color="#646664"/>
            <stop offset="100%" stop-color="#333"/>
        </linearGradient>
        <linearGradient id="prefix__C" x1=".002%" x2="100%" y1="29.131%" y2="71.694%">
            <stop offset="0%" stop-color="#646664"/>
            <stop offset="100%" stop-color="#333"/>
        </linearGradient>
        <linearGradient id="prefix__F" x1="-.005%" x2="99.996%" y1="29.52%" y2="70.53%">
            <stop offset="0%" stop-color="#646664"/>
            <stop offset="100%" stop-color="#333"/>
        </linearGradient>
        <linearGradient id="prefix__I" x1="0%" x2="100.003%" y1="28.316%" y2="70.395%">
            <stop offset="0%" stop-color="#646664"/>
            <stop offset="100%" stop-color="#333"/>
        </linearGradient>
        <linearGradient id="prefix__L" x1="-.012%" x2="100.005%" y1="31.759%" y2="68.242%">
            <stop offset="0%" stop-color="#646664"/>
            <stop offset="100%" stop-color="#333"/>
        </linearGradient>
        <linearGradient id="prefix__O" x1="-.005%" x2="100%" y1="-15.562%" y2="115.557%">
            <stop offset="0%" stop-color="#646664"/>
            <stop offset="100%" stop-color="#333"/>
        </linearGradient>
        <linearGradient id="prefix__R" x1=".001%" x2="99.996%" y1="28.589%" y2="71.62%">
            <stop offset="0%" stop-color="#646664"/>
            <stop offset="100%" stop-color="#333"/>
        </linearGradient>
        <linearGradient id="prefix__U" x1="0%" x2="100.003%" y1="6.387%" y2="93.795%">
            <stop offset="0%" stop-color="#646664"/>
            <stop offset="100%" stop-color="#333"/>
        </linearGradient>
        <linearGradient id="prefix__X" x1="-.002%" x2="100.002%" y1="28.624%" y2="70.493%">
            <stop offset="0%" stop-color="#646664"/>
            <stop offset="100%" stop-color="#333"/>
        </linearGradient>
        <linearGradient id="prefix__aa" x1=".003%" x2="100.001%" y1="29.131%" y2="71.692%">
            <stop offset="0%" stop-color="#646664"/>
            <stop offset="100%" stop-color="#333"/>
        </linearGradient>
        <linearGradient id="prefix__ad" x1="0%" x2="100.001%" y1="29.522%" y2="70.531%">
            <stop offset="0%" stop-color="#646664"/>
            <stop offset="100%" stop-color="#333"/>
        </linearGradient>
        <linearGradient id="prefix__ag" x1=".004%" x2="99.998%" y1="28.318%" y2="70.397%">
            <stop offset="0%" stop-color="#646664"/>
            <stop offset="100%" stop-color="#333"/>
        </linearGradient>
        <linearGradient id="prefix__aj" x1=".002%" x2="100.005%" y1="31.756%" y2="68.238%">
            <stop offset="0%" stop-color="#646664"/>
            <stop offset="100%" stop-color="#333"/>
        </linearGradient>
        <linearGradient id="prefix__am" x1=".002%" x2="100%" y1="-15.569%" y2="115.567%">
            <stop offset="0%" stop-color="#646664"/>
            <stop offset="100%" stop-color="#333"/>
        </linearGradient>
        <linearGradient id="prefix__ap" x1=".001%" x2="100%" y1="28.586%" y2="71.62%">
            <stop offset="0%" stop-color="#646664"/>
            <stop offset="100%" stop-color="#333"/>
        </linearGradient>
        <linearGradient id="prefix__as" x1="0%" x2="99.999%" y1="6.39%" y2="93.793%">
            <stop offset="0%" stop-color="#646664"/>
            <stop offset="100%" stop-color="#333"/>
        </linearGradient>
        <linearGradient id="prefix__av" x1=".003%" x2="99.997%" y1="28.621%" y2="70.491%">
            <stop offset="0%" stop-color="#646664"/>
            <stop offset="100%" stop-color="#333"/>
        </linearGradient>
        <linearGradient id="prefix__ay" x1=".003%" x2="99.997%" y1="29.13%" y2="71.693%">
            <stop offset="0%" stop-color="#646664"/>
            <stop offset="100%" stop-color="#333"/>
        </linearGradient>
        <linearGradient id="prefix__aB" x1="-.001%" x2="100.005%" y1="29.52%" y2="70.529%">
            <stop offset="0%" stop-color="#646664"/>
            <stop offset="100%" stop-color="#333"/>
        </linearGradient>
        <linearGradient id="prefix__aE" x1="-.001%" x2="99.998%" y1="28.317%" y2="70.397%">
            <stop offset="0%" stop-color="#646664"/>
            <stop offset="100%" stop-color="#333"/>
        </linearGradient>
        <linearGradient id="prefix__aH" x1="0%" x2="99.988%" y1="31.757%" y2="68.236%">
            <stop offset="0%" stop-color="#646664"/>
            <stop offset="100%" stop-color="#333"/>
        </linearGradient>
        <linearGradient id="prefix__aK" x1=".001%" x2="100.005%" y1="-15.562%" y2="115.556%">
            <stop offset="0%" stop-color="#646664"/>
            <stop offset="100%" stop-color="#333"/>
        </linearGradient>
        <linearGradient id="prefix__aN" x1="-.004%" x2="100.004%" y1="28.586%" y2="71.619%">
            <stop offset="0%" stop-color="#646664"/>
            <stop offset="100%" stop-color="#333"/>
        </linearGradient>
        <linearGradient id="prefix__aQ" x1="-.001%" x2="99.998%" y1="6.387%" y2="93.795%">
            <stop offset="0%" stop-color="#646664"/>
            <stop offset="100%" stop-color="#333"/>
        </linearGradient>
        <linearGradient id="prefix__aT" x1=".002%" x2="100.001%" y1="28.621%" y2="70.49%">
            <stop offset="0%" stop-color="#646664"/>
            <stop offset="100%" stop-color="#333"/>
        </linearGradient>
        <linearGradient id="prefix__aW" x1="-.003%" x2="100%" y1="29.131%" y2="71.692%">
            <stop offset="0%" stop-color="#646664"/>
            <stop offset="100%" stop-color="#333"/>
        </linearGradient>
        <linearGradient id="prefix__aZ" x1="0%" x2="100.002%" y1="29.521%" y2="70.53%">
            <stop offset="0%" stop-color="#646664"/>
            <stop offset="100%" stop-color="#333"/>
        </linearGradient>
        <linearGradient id="prefix__bc" x1="0%" x2="100.003%" y1="28.317%" y2="70.397%">
            <stop offset="0%" stop-color="#646664"/>
            <stop offset="100%" stop-color="#333"/>
        </linearGradient>
        <linearGradient id="prefix__bf" x1=".004%" x2="100.007%" y1="31.758%" y2="68.237%">
            <stop offset="0%" stop-color="#646664"/>
            <stop offset="100%" stop-color="#333"/>
        </linearGradient>
        <linearGradient id="prefix__bi" x1=".003%" x2="100%" y1="-15.58%" y2="115.591%">
            <stop offset="0%" stop-color="#646664"/>
            <stop offset="100%" stop-color="#333"/>
        </linearGradient>
        <linearGradient id="prefix__bl" x1=".002%" x2="100.001%" y1="28.587%" y2="71.619%">
            <stop offset="0%" stop-color="#646664"/>
            <stop offset="100%" stop-color="#333"/>
        </linearGradient>
        <linearGradient id="prefix__bo" x1=".001%" x2="100%" y1="6.382%" y2="93.79%">
            <stop offset="0%" stop-color="#646664"/>
            <stop offset="100%" stop-color="#333"/>
        </linearGradient>
        <linearGradient id="prefix__br" x1=".003%" x2="100.002%" y1="28.622%" y2="70.492%">
            <stop offset="0%" stop-color="#646664"/>
            <stop offset="100%" stop-color="#333"/>
        </linearGradient>
        <linearGradient id="prefix__bu" x1="-.001%" x2="100.002%" y1="29.131%" y2="71.693%">
            <stop offset="0%" stop-color="#646664"/>
            <stop offset="100%" stop-color="#333"/>
        </linearGradient>
        <linearGradient id="prefix__bx" x1="0%" x2="100.001%" y1="29.522%" y2="70.532%">
            <stop offset="0%" stop-color="#646664"/>
            <stop offset="100%" stop-color="#333"/>
        </linearGradient>
        <linearGradient id="prefix__bA" x1="-.001%" x2="99.998%" y1="28.317%" y2="70.396%">
            <stop offset="0%" stop-color="#646664"/>
            <stop offset="100%" stop-color="#333"/>
        </linearGradient>
        <linearGradient id="prefix__bD" x1=".002%" x2="100.004%" y1="31.759%" y2="68.239%">
            <stop offset="0%" stop-color="#646664"/>
            <stop offset="100%" stop-color="#333"/>
        </linearGradient>
        <linearGradient id="prefix__bG" x1=".002%" x2="99.999%" y1="-15.575%" y2="115.578%">
            <stop offset="0%" stop-color="#646664"/>
            <stop offset="100%" stop-color="#333"/>
        </linearGradient>
        <linearGradient id="prefix__bJ" x1=".001%" x2="100%" y1="28.587%" y2="71.62%">
            <stop offset="0%" stop-color="#646664"/>
            <stop offset="100%" stop-color="#333"/>
        </linearGradient>
        <linearGradient id="prefix__bM" x1="0%" x2="99.999%" y1="6.383%" y2="93.791%">
            <stop offset="0%" stop-color="#646664"/>
            <stop offset="100%" stop-color="#333"/>
        </linearGradient>
        <linearGradient id="prefix__bP" x1=".002%" x2="100.001%" y1="28.621%" y2="70.491%">
            <stop offset="0%" stop-color="#646664"/>
            <stop offset="100%" stop-color="#333"/>
        </linearGradient>
        <linearGradient id="prefix__bS" x1="-.002%" x2="100.001%" y1="29.133%" y2="71.695%">
            <stop offset="0%" stop-color="#646664"/>
            <stop offset="100%" stop-color="#333"/>
        </linearGradient>
        <linearGradient id="prefix__bV" x1="57.627%" x2="40.152%" y1="97.841%" y2="-12.101%">
            <stop offset="0%" stop-color="gray"/>
            <stop offset="100%" stop-color="#666"/>
        </linearGradient>
        <linearGradient id="prefix__ca" x1="42.396%" x2="59.883%" y1="97.851%" y2="-12.114%">
            <stop offset="0%" stop-color="gray"/>
            <stop offset="100%" stop-color="#666"/>
        </linearGradient>
        <linearGradient id="prefix__cd" x1="-.006%" x2="99.999%" y1="49.983%" y2="49.983%">
            <stop offset="0%" stop-color="#979797"/>
            <stop offset="100%" stop-color="#E4E4E4"/>
        </linearGradient>
        <linearGradient id="prefix__cg" x1="-.004%" x2="100.001%" y1="49.998%" y2="49.998%">
            <stop offset="0%" stop-color="gray"/>
            <stop offset="100%" stop-color="#666"/>
        </linearGradient>
        <linearGradient id="prefix__cj" x1="-.005%" x2="100.005%" y1="49.999%" y2="49.999%">
            <stop offset="0%" stop-color="gray"/>
            <stop offset="100%" stop-color="#666"/>
        </linearGradient>
        <linearGradient id="prefix__cm" x1="57.596%" x2="40.121%" y1="97.842%" y2="-12.101%">
            <stop offset="0%" stop-color="gray"/>
            <stop offset="100%" stop-color="#666"/>
        </linearGradient>
        <linearGradient id="prefix__cr" x1="42.385%" x2="59.881%" y1="97.852%" y2="-12.113%">
            <stop offset="0%" stop-color="gray"/>
            <stop offset="100%" stop-color="#666"/>
        </linearGradient>
        <linearGradient id="prefix__cu" x1="57.606%" x2="40.13%" y1="97.84%" y2="-12.102%">
            <stop offset="0%" stop-color="gray"/>
            <stop offset="100%" stop-color="#666"/>
        </linearGradient>
        <linearGradient id="prefix__cz" x1="42.374%" x2="59.862%" y1="97.85%" y2="-12.115%">
            <stop offset="0%" stop-color="gray"/>
            <stop offset="100%" stop-color="#666"/>
        </linearGradient>
        <linearGradient id="prefix__cC" x1="-.001%" x2="100%" y1="50.002%" y2="50.002%">
            <stop offset="0%" stop-color="#979797"/>
            <stop offset="100%" stop-color="#E4E4E4"/>
        </linearGradient>
        <linearGradient id="prefix__cF" x1="-.001%" x2="99.999%" y1="50%" y2="50%">
            <stop offset="0%" stop-color="#979797"/>
            <stop offset="100%" stop-color="#E4E4E4"/>
        </linearGradient>
        <linearGradient id="prefix__cI" x1="57.612%" x2="40.145%" y1="97.839%" y2="-12.099%">
            <stop offset="0%" stop-color="gray"/>
            <stop offset="100%" stop-color="#666"/>
        </linearGradient>
        <linearGradient id="prefix__cN" x1="42.381%" x2="59.876%" y1="97.849%" y2="-12.112%">
            <stop offset="0%" stop-color="gray"/>
            <stop offset="100%" stop-color="#666"/>
        </linearGradient>
        <linearGradient id="prefix__cQ" x1=".009%" x2="100.014%" y1="49.997%" y2="49.997%">
            <stop offset="0%" stop-color="#979797"/>
            <stop offset="100%" stop-color="#E4E4E4"/>
        </linearGradient>
        <linearGradient id="prefix__cT" x1=".001%" x2="99.998%" y1="50%" y2="50%">
            <stop offset="0%" stop-color="gray"/>
            <stop offset="100%" stop-color="#666"/>
        </linearGradient>
        <linearGradient id="prefix__cW" x1=".001%" x2="100.002%" y1="50.001%" y2="50.001%">
            <stop offset="0%" stop-color="gray"/>
            <stop offset="100%" stop-color="#666"/>
        </linearGradient>
        <linearGradient id="prefix__cZ" x1="57.635%" x2="40.152%" y1="97.84%" y2="-12.099%">
            <stop offset="0%" stop-color="gray"/>
            <stop offset="100%" stop-color="#666"/>
        </linearGradient>
        <linearGradient id="prefix__de" x1="42.405%" x2="59.884%" y1="97.85%" y2="-12.112%">
            <stop offset="0%" stop-color="gray"/>
            <stop offset="100%" stop-color="#666"/>
        </linearGradient>
        <linearGradient id="prefix__dh" x1="57.57%" x2="40.095%" y1="97.841%" y2="-12.101%">
            <stop offset="0%" stop-color="gray"/>
            <stop offset="100%" stop-color="#666"/>
        </linearGradient>
        <linearGradient id="prefix__dm" x1="42.414%" x2="59.893%" y1="97.851%" y2="-12.114%">
            <stop offset="0%" stop-color="gray"/>
            <stop offset="100%" stop-color="#666"/>
        </linearGradient>
        <linearGradient id="prefix__dp" x1=".002%" x2="99.999%" y1="50%" y2="50%">
            <stop offset="0%" stop-color="#979797"/>
            <stop offset="100%" stop-color="#E4E4E4"/>
        </linearGradient>
        <linearGradient id="prefix__ds" x1="0%" x2="100.001%" y1="50%" y2="50%">
            <stop offset="0%" stop-color="#979797"/>
            <stop offset="100%" stop-color="#E4E4E4"/>
        </linearGradient>
        <linearGradient id="prefix__dv" x1=".001%" x2="100%" y1="50%" y2="50%">
            <stop offset="0%" stop-color="#646664"/>
            <stop offset="100%" stop-color="#333"/>
        </linearGradient>
        <linearGradient id="prefix__dy" x1="34.451%" x2="57.081%" y1="9.142%" y2="74.58%">
            <stop offset="0%" stop-color="#646664"/>
            <stop offset="100%" stop-color="#333"/>
        </linearGradient>
        <linearGradient id="prefix__dB" x1="46.805%" x2="47.969%" y1="-43.741%" y2="-8.981%">
            <stop offset="0%" stop-color="#646664"/>
            <stop offset="100%" stop-color="#333"/>
        </linearGradient>
        <linearGradient id="prefix__dE" x1="48.232%" x2="52.931%" y1="-15.175%" y2="189.797%">
            <stop offset="0%" stop-color="#646664"/>
            <stop offset="100%" stop-color="#333"/>
        </linearGradient>
        <linearGradient id="prefix__dH" x1="-.004%" x2="100.004%" y1="50.001%" y2="50.001%">
            <stop offset="0%" stop-color="#646664"/>
            <stop offset="100%" stop-color="#333"/>
        </linearGradient>
        <linearGradient id="prefix__dK" x1=".002%" x2="100.003%" y1="50.003%" y2="50.003%">
            <stop offset="0%" stop-color="#646664"/>
            <stop offset="100%" stop-color="#333"/>
        </linearGradient>
        <linearGradient id="prefix__dN" x1="34.451%" x2="57.081%" y1="9.14%" y2="74.582%">
            <stop offset="0%" stop-color="#646664"/>
            <stop offset="100%" stop-color="#333"/>
        </linearGradient>
        <linearGradient id="prefix__dQ" x1="46.804%" x2="47.968%" y1="-43.751%" y2="-8.987%">
            <stop offset="0%" stop-color="#646664"/>
            <stop offset="100%" stop-color="#333"/>
        </linearGradient>
        <linearGradient id="prefix__dT" x1="48.235%" x2="52.934%" y1="-15.173%" y2="189.792%">
            <stop offset="0%" stop-color="#646664"/>
            <stop offset="100%" stop-color="#333"/>
        </linearGradient>
        <linearGradient id="prefix__dW" x1="-.001%" x2="100.001%" y1="50%" y2="50%">
            <stop offset="0%" stop-color="#646664"/>
            <stop offset="100%" stop-color="#333"/>
        </linearGradient>
        <linearGradient id="prefix__dZ" x1="0%" x2="100.001%" y1="50.004%" y2="50.004%">
            <stop offset="0%" stop-color="#646664"/>
            <stop offset="100%" stop-color="#333"/>
        </linearGradient>
        <linearGradient id="prefix__ee" x1=".005%" x2="100.003%" y1="49.999%" y2="49.999%">
            <stop offset="0%" stop-color="#979797"/>
            <stop offset="100%" stop-color="#E4E4E4"/>
        </linearGradient>
    </defs>
    <g fill="none" fill-rule="evenodd">
        <path fill="#F1F1F1" d="M0 112.204L311.02 459.762 465.625 411.079 151.735 64.745z" transform="translate(0 -1)"/>
        <g transform="translate(0 -1) translate(311 410.828)">
            <mask id="prefix__c" fill="#fff">
                <use xlink:href="#prefix__a"/>
            </mask>
            <path fill="url(#prefix__b)" d="M154.625 0.252L156.702 15.275 0.02 64.091 0.02 48.935z" mask="url(#prefix__c)"/>
        </g>
        <path fill="#E5E5E5" d="M0 121.759L311.02 474.919 311.02 459.763 0 112.204zM465.625 411.08L467.702 426.102 311.02 474.919 311.02 459.763z" transform="translate(0 -1)"/>
        <path stroke="#FFF" d="M323.565 254.472L169.068 302.746 169.068 312.949" transform="translate(0 -1)"/>
        <g>
            <path fill="#3C3C3B" d="M9.573 12.393L41.97.74c2.3-1.327 4.165-.251 4.165 2.404v31.409c0 2.655-1.864 5.885-4.164 7.212L9.574 53.418c-2.301 1.329-4.165.25-4.165-2.404V19.606c0-2.655 1.864-5.885 4.164-7.213" transform="translate(0 -1) translate(28 .828)"/>
            <path fill="#3C3C3B" d="M39.263 2.304L44.863.421 48.619 2.587 41.095 5.295zM6.487 53.614L13.025 51.129 16.783 53.294 10.365 55.828z" transform="translate(0 -1) translate(28 .828)"/>
            <path fill="#878787" d="M13.096 55.434l32.398-11.652c2.3-1.328 4.165-4.558 4.165-7.213V5.16c0-2.656-1.865-3.733-4.166-2.405L13.096 14.409c-2.301 1.327-4.165 4.556-4.165 7.212l.001 31.409c0 2.655 1.864 3.73 4.164 2.404" transform="translate(0 -1) translate(28 .828)"/>
            <path fill="#3C3C3B" d="M43.61 9.137c0 .919.645 1.291 1.439.832.796-.459 1.44-1.576 1.44-2.495 0-.918-.644-1.29-1.44-.831-.794.459-1.44 1.576-1.44 2.494M12.103 20.274c0 .919.646 1.29 1.44.832.796-.46 1.44-1.576 1.44-2.494 0-.92-.644-1.291-1.44-.832-.794.459-1.44 1.576-1.44 2.494M43.61 39.211c0 .918.645 1.29 1.44.831.795-.459 1.44-1.576 1.44-2.494 0-.919-.645-1.29-1.44-.832-.795.46-1.44 1.576-1.44 2.495M12.104 50.348c0 .918.645 1.29 1.44.83.795-.458 1.44-1.575 1.44-2.493 0-.92-.645-1.291-1.44-.832-.795.46-1.44 1.576-1.44 2.495M20.513 30.639c0 3.942 2.769 5.54 6.184 3.569 3.414-1.971 6.182-6.765 6.182-10.71 0-3.942-2.768-5.54-6.183-3.568-3.414 1.97-6.183 6.766-6.183 10.709M46.535 45.881c0 3.942 2.77 5.541 6.184 3.57 3.414-1.972 6.181-6.766 6.181-10.71 0-3.942-2.767-5.54-6.181-3.569-3.416 1.972-6.184 6.766-6.184 10.71" transform="translate(0 -1) translate(28 .828)"/>
            <path fill="#3C3C3B" d="M21.886 34.327L48.194 49.78 57.153 34.778 30.957 19.442z" transform="translate(0 -1) translate(28 .828)"/>
            <path fill="#3C3C3B" d="M0.178 112.215L106.892 76.327 106.891 7.946 0.177 43.834z" transform="translate(0 -1) translate(28 .828)"/>
        </g>
        <g transform="translate(0 -1) translate(37 18.828)">
            <mask id="prefix__f" fill="#fff">
                <use xlink:href="#prefix__d"/>
            </mask>
            <path fill="url(#prefix__e)" d="M0.004 29.272L0.005 83.335 89.064 54.233 89.064 0.826z" mask="url(#prefix__f)"/>
        </g>
        <g>
            <path fill="#1D1D1B" d="M106.532 16.993L110.891 14.476 110.891 12.813 106.532 15.33zM106.532 20.154L110.891 17.636 110.891 15.973 106.532 18.491zM106.532 23.313L110.891 20.796 110.891 19.133 106.532 21.65zM106.532 26.473L110.891 23.955 110.891 22.292 106.532 24.81zM106.532 29.632L110.891 27.115 110.891 25.452 106.532 27.969zM106.532 32.792L110.891 30.275 110.891 28.612 106.532 31.129zM106.532 35.952L110.891 33.434 110.891 31.771 106.532 34.289zM106.532 39.112L110.891 36.595 110.891 34.932 106.532 37.449zM106.532 42.272L110.891 39.754 110.891 38.091 106.532 40.609zM106.532 45.431L110.891 42.914 110.891 41.251 106.532 43.768zM4.177 50.364L8.536 47.846 8.536 46.184 4.177 48.702zM4.177 53.524L8.536 51.007 8.536 49.344 4.177 51.861zM4.177 56.684L8.536 54.167 8.536 52.504 4.177 55.021zM4.177 59.843L8.536 57.326 8.536 55.663 4.177 58.181zM4.177 63.003L8.536 60.486 8.536 58.823 4.177 61.34zM4.177 66.163L8.536 63.645 8.536 61.982 4.177 64.5zM4.177 69.323L8.536 66.805 8.536 65.142 4.177 67.659zM4.177 72.483L8.536 69.965 8.536 68.302 4.177 70.82zM4.177 75.642L8.536 73.125 8.536 71.462 4.177 73.979zM4.177 78.802L8.537 76.284 8.537 74.622 4.177 77.139z" transform="translate(0 -1) translate(24 5.828)"/>
            <path fill="#E30613" d="M14.32 99.389L17.344 97.643 17.344 96.312 14.32 98.058z" transform="translate(0 -1) translate(24 5.828)"/>
            <path fill="#706F6F" d="M110.889 2.944L4.177 38.835 0.048 36.451 106.76 0.56z" transform="translate(0 -1) translate(24 5.828)"/>
            <path fill="#575756" d="M0.047 104.831L0.048 36.45 4.177 38.834 4.176 107.215z" transform="translate(0 -1) translate(24 5.828)"/>
            <path fill="#1D1D1B" d="M1.994 49.131L4.178 50.392 4.178 48.729 1.994 47.468zM1.994 52.291L4.178 53.552 4.178 51.889 1.994 50.628zM1.994 55.451L4.178 56.711 4.178 55.048 1.994 53.788zM1.994 58.611L4.178 59.872 4.178 58.209 1.994 56.948zM1.994 61.771L4.176 63.031 4.176 61.368 1.994 60.108zM1.994 64.93L4.176 66.191 4.176 64.528 1.994 63.267zM1.994 68.09L4.176 69.35 4.176 67.688 1.994 66.427zM1.994 71.249L4.176 72.51 4.176 70.847 1.994 69.586zM1.994 74.409L4.176 75.67 4.176 74.007 1.994 72.746zM1.994 77.569L4.176 78.83 4.176 77.167 1.994 75.907z" transform="translate(0 -1) translate(24 5.828)"/>
            <path fill="#E5E5E5" d="M97.478 39.759L77.703 71.568 97.478 62.365z" transform="translate(0 -1) translate(24 5.828)"/>
            <path stroke="#000" stroke-linecap="round" d="M302.807 308.125v22.232" transform="translate(0 -1) translate(24 5.828)"/>
            <path fill="#000" d="M314.922 325.086c0 .985-.799 1.784-1.783 1.784-.986 0-1.784-.799-1.784-1.784s.798-1.784 1.784-1.784c.984 0 1.783.8 1.783 1.784M294.403 325.086c0 .985-.8 1.784-1.783 1.784-.986 0-1.784-.799-1.784-1.784s.798-1.784 1.784-1.784c.984 0 1.783.8 1.783 1.784M304.59 331.559c0 .984-.798 1.783-1.783 1.783-.986 0-1.784-.8-1.784-1.783 0-.985.798-1.784 1.784-1.784.985 0 1.783.799 1.783 1.784" transform="translate(0 -1) translate(24 5.828)"/>
        </g>
        <g transform="translate(0 -1) translate(315 282.828)">
            <mask id="prefix__i" fill="#fff">
                <use xlink:href="#prefix__g"/>
            </mask>
            <path fill="url(#prefix__h)" d="M14.723 6.557l.005 9.989-13.301 2.009c-.754.131-1.365.942-1.365 1.812L.054 33.38c0 .872.61 1.471 1.364 1.34 0 0 19.337-3.988 19.337-4.859l-.488-28.797s-.143-.043-.385-.096c-.469-.102-.904-.152-1.304-.152-2.704 0-3.857 2.256-3.855 5.741" mask="url(#prefix__i)"/>
        </g>
        <g transform="translate(0 -1) translate(313 281.828)">
            <mask id="prefix__l" fill="#fff">
                <use xlink:href="#prefix__j"/>
            </mask>
            <path fill="url(#prefix__k)" d="M17.997 1.641c-5.364 2.355-2.619 13.72-2.619 13.72L2.501 17.39c-.127.013-.248.037-.362.07-1.003.29-1.491 1.346-1.491 2.737v13.11l1.853 2.162-.433-14.004c.087-1.949 1.861-1.768 1.861-1.768l12.799-2.151s.053-7.124.291-11.492c.238-4.369 5.247-3.99 5.247-3.99L21.149.997c-.184-.035-.372-.051-.561-.051-.947 0-1.921.4-2.591.695" mask="url(#prefix__l)"/>
        </g>
        <g transform="translate(0 -1) translate(316 311.828)">
            <mask id="prefix__o" fill="#fff">
                <use xlink:href="#prefix__m"/>
            </mask>
            <path fill="url(#prefix__n)" d="M0.466 4.302L7.351 12.716 7.351 8.169 0.466 0.033z" mask="url(#prefix__o)"/>
        </g>
        <g transform="translate(0 -1) translate(317 305.828)">
            <mask id="prefix__r" fill="#fff">
                <use xlink:href="#prefix__p"/>
            </mask>
            <path fill="url(#prefix__q)" d="M3.622 2.383c-1.071.185-1.939 1.339-1.939 2.576L.333 8.04 13.76 5.788 15.111.467 3.622 2.383z" mask="url(#prefix__r)"/>
        </g>
        <g transform="translate(0 -1) translate(323 292.828)">
            <mask id="prefix__u" fill="#fff">
                <use xlink:href="#prefix__s"/>
            </mask>
            <path fill="url(#prefix__t)" d="M14.451 4.02l.575 10.935-13.31 2.238c-.754.13-1.365.942-1.365 1.812v12.784c0 .87.611 1.47 1.365 1.339l17.972-3.045c.754-.132 1.364-.943 1.364-1.813V17.427L21.341.995 17.579.369c-1.566.272-2.895 1.824-3.128 3.651" mask="url(#prefix__u)"/>
        </g>
        <path fill="#4D4D4D" d="M345.692 294.733l-6.317 15.233-.517 4.156-4.92-6.031-2.544-1.999s-8.987-22.808 3.873-22.2l10.425 10.84z" transform="translate(0 -1)"/>
        <g transform="translate(0 -1) translate(315 302.828)">
            <mask id="prefix__x" fill="#fff">
                <use xlink:href="#prefix__v"/>
            </mask>
            <path fill="url(#prefix__w)" d="M1.466 2.534c-1.624.54 0 6.499 0 6.499l8.498 10.05 15-7.981L15.696.461S4.246 1.607 1.466 2.534" mask="url(#prefix__x)"/>
        </g>
        <g transform="translate(0 -1) translate(324 293.828)">
            <mask id="prefix__A" fill="#fff">
                <use xlink:href="#prefix__y"/>
            </mask>
            <path fill="url(#prefix__z)" d="M15.37 6.151l.006 9.989-13.311 2.238c-.753.131-1.364.942-1.364 1.813v12.783c0 .87.612 1.47 1.365 1.339l17.972-3.045c.753-.131 1.365-.942 1.365-1.813L21.691.903S21.55.86 21.307.808c-.506-.11-.987-.164-1.438-.164-2.798 0-4.501 2.061-4.499 5.507" mask="url(#prefix__A)"/>
        </g>
        <g transform="translate(0 -1) translate(323 291.828)">
            <mask id="prefix__D" fill="#fff">
                <use xlink:href="#prefix__B"/>
            </mask>
            <path fill="url(#prefix__C)" d="M17.717 1.183c-1.904.993-2.838 3.295-2.799 6.284l.108 8.488S1.901 18.021 1.787 18.054C.783 18.344.295 19.4.295 20.791V33.9l1.853 2.162-.03-14.123c.085-1.949 1.859-1.769 1.859-1.769l12.399-2.03s.052-7.124.29-11.492c.239-4.369 6.025-3.745 6.025-3.745L20.534.791c-.307-.059-.601-.087-.881-.087-.733 0-1.377.188-1.936.479" mask="url(#prefix__D)"/>
        </g>
        <g>
            <path stroke="#000" stroke-linecap="round" d="M.808 1.302h9.999M20.496 1.302h-9.689M31.005 11.403v22.232" transform="translate(0 -1) translate(316 327.828)"/>
            <path fill="#000" d="M43.12 28.363c0 .986-.798 1.784-1.782 1.784-.986 0-1.785-.798-1.785-1.784 0-.985.799-1.784 1.785-1.784.983 0 1.782.8 1.782 1.784M22.6 28.363c0 .986-.798 1.784-1.782 1.784-.986 0-1.784-.798-1.784-1.784 0-.985.798-1.784 1.784-1.784.984 0 1.783.8 1.783 1.784M32.788 34.835c0 .985-.798 1.784-1.783 1.784-.986 0-1.784-.799-1.784-1.784 0-.984.798-1.783 1.784-1.783.985 0 1.783.8 1.783 1.783" transform="translate(0 -1) translate(316 327.828)"/>
        </g>
        <g transform="translate(0 -1) translate(335 308.828)">
            <mask id="prefix__G" fill="#fff">
                <use xlink:href="#prefix__E"/>
            </mask>
            <path fill="url(#prefix__F)" d="M14.921 5.834l.006 9.989-13.302 2.009c-.754.131-1.365.942-1.365 1.813L.253 32.658c0 .87.61 1.469 1.363 1.339 0 0 19.338-3.988 19.338-4.858L20.465.34s-.142-.042-.384-.095c-.47-.102-.904-.151-1.304-.151-2.705 0-3.858 2.255-3.856 5.74" mask="url(#prefix__G)"/>
        </g>
        <g transform="translate(0 -1) translate(333 307.828)">
            <mask id="prefix__J" fill="#fff">
                <use xlink:href="#prefix__H"/>
            </mask>
            <path fill="url(#prefix__I)" d="M18.194.918c-5.363 2.355-2.618 13.721-2.618 13.721L2.699 16.668c-.128.012-.247.036-.362.07-1.002.289-1.491 1.345-1.491 2.737v13.109l1.853 2.163-.432-14.004c.086-1.95 1.86-1.77 1.86-1.77l12.8-2.15s.051-7.123.29-11.492c.239-4.368 5.247-3.991 5.247-3.991L21.348.275c-.184-.036-.372-.052-.561-.052-.947 0-1.922.401-2.593.695" mask="url(#prefix__J)"/>
        </g>
        <g transform="translate(0 -1) translate(336 336.828)">
            <mask id="prefix__M" fill="#fff">
                <use xlink:href="#prefix__K"/>
            </mask>
            <path fill="url(#prefix__L)" d="M0.665 4.579L7.549 12.993 7.549 8.446 0.665 0.311z" mask="url(#prefix__M)"/>
        </g>
        <g transform="translate(0 -1) translate(337 330.828)">
            <mask id="prefix__P" fill="#fff">
                <use xlink:href="#prefix__N"/>
            </mask>
            <path fill="url(#prefix__O)" d="M3.821 2.66c-1.072.186-1.939 1.339-1.939 2.575L.531 8.318l13.428-2.252 1.35-5.322L3.821 2.66z" mask="url(#prefix__P)"/>
        </g>
        <g transform="translate(0 -1) translate(343 317.828)">
            <mask id="prefix__S" fill="#fff">
                <use xlink:href="#prefix__Q"/>
            </mask>
            <path fill="url(#prefix__R)" d="M14.649 4.298l.575 10.934-13.31 2.238c-.753.131-1.365.943-1.365 1.813v12.783c0 .871.612 1.47 1.365 1.34l17.972-3.046c.754-.131 1.365-.943 1.365-1.813V17.704l.289-16.431-3.763-.627c-1.565.272-2.895 1.824-3.128 3.652" mask="url(#prefix__S)"/>
        </g>
        <path fill="#4D4D4D" d="M365.89 320.01l-6.316 15.234-.518 4.156-4.919-6.033-2.545-1.997s-8.987-22.81 3.873-22.202l10.425 10.842z" transform="translate(0 -1)"/>
        <g transform="translate(0 -1) translate(335 327.828)">
            <mask id="prefix__V" fill="#fff">
                <use xlink:href="#prefix__T"/>
            </mask>
            <path fill="url(#prefix__U)" d="M1.665 2.811c-1.625.541 0 6.5 0 6.5l8.498 10.047 14.999-7.978L15.894.738S4.445 1.885 1.665 2.811" mask="url(#prefix__V)"/>
        </g>
        <g transform="translate(0 -1) translate(344 318.828)">
            <mask id="prefix__Y" fill="#fff">
                <use xlink:href="#prefix__W"/>
            </mask>
            <path fill="url(#prefix__X)" d="M15.569 6.428l.005 9.989-13.31 2.238C1.511 18.787.9 19.597.9 20.468v12.784c0 .869.611 1.469 1.365 1.338l17.971-3.046c.754-.129 1.365-.941 1.365-1.812l.288-28.552s-.142-.043-.384-.096C21 .974 20.52.92 20.069.92c-2.799 0-4.502 2.061-4.5 5.508" mask="url(#prefix__Y)"/>
        </g>
        <g transform="translate(0 -1) translate(343 316.828)">
            <mask id="prefix__ab" fill="#fff">
                <use xlink:href="#prefix__Z"/>
            </mask>
            <path fill="url(#prefix__aa)" d="M17.915 1.46c-1.904.992-2.837 3.295-2.8 6.284l.109 8.489S2.099 18.298 1.985 18.332C.982 18.621.493 19.677.493 21.068v13.109l1.854 2.163-.031-14.124c.086-1.949 1.859-1.768 1.859-1.768l12.399-2.031s.052-7.123.291-11.492c.238-4.37 6.024-3.745 6.024-3.745l-2.158-2.112c-.306-.06-.598-.087-.878-.087-.734 0-1.379.188-1.938.479" mask="url(#prefix__ab)"/>
        </g>
        <g>
            <path stroke="#000" stroke-linecap="round" d="M.006.58h10M19.695.58h-9.69M35.976 11.818V34.05" transform="translate(0 -1) translate(337 353.828)"/>
            <path fill="#000" d="M48.091 28.778c0 .985-.798 1.784-1.783 1.784-.986 0-1.784-.8-1.784-1.784s.798-1.783 1.784-1.783c.985 0 1.783.799 1.783 1.783M27.572 28.778c0 .985-.798 1.784-1.783 1.784-.986 0-1.784-.8-1.784-1.784s.798-1.783 1.784-1.783c.985 0 1.783.799 1.783 1.783M37.76 35.25c0 .985-.799 1.784-1.784 1.784-.986 0-1.783-.799-1.783-1.784s.797-1.784 1.783-1.784c.985 0 1.784.8 1.784 1.784" transform="translate(0 -1) translate(337 353.828)"/>
        </g>
        <g transform="translate(0 -1) translate(361 334.828)">
            <mask id="prefix__ae" fill="#fff">
                <use xlink:href="#prefix__ac"/>
            </mask>
            <path fill="url(#prefix__ad)" d="M14.892 6.249l.006 9.989-13.302 2.008c-.754.132-1.364.942-1.364 1.813L.223 33.073c0 .87.611 1.469 1.365 1.338 0 0 19.336-3.988 19.336-4.858L20.436.756s-.143-.044-.385-.097c-.469-.102-.904-.151-1.304-.151-2.704 0-3.858 2.255-3.855 5.741" mask="url(#prefix__ae)"/>
        </g>
        <g transform="translate(0 -1) translate(359 333.828)">
            <mask id="prefix__ah" fill="#fff">
                <use xlink:href="#prefix__af"/>
            </mask>
            <path fill="url(#prefix__ag)" d="M18.166 1.333c-5.363 2.355-2.618 13.72-2.618 13.72L2.67 17.082c-.127.013-.248.037-.361.07-1.004.291-1.493 1.345-1.493 2.737v13.109l1.854 2.163-.432-14.004c.087-1.949 1.86-1.769 1.86-1.769l12.8-2.15s.052-7.123.289-11.493c.239-4.367 5.249-3.989 5.249-3.989L21.319.689c-.184-.036-.371-.052-.559-.052-.948.001-1.923.401-2.594.696" mask="url(#prefix__ah)"/>
        </g>
        <g transform="translate(0 -1) translate(362 362.828)">
            <mask id="prefix__ak" fill="#fff">
                <use xlink:href="#prefix__ai"/>
            </mask>
            <path fill="url(#prefix__aj)" d="M0.635 4.993L7.52 13.408 7.52 8.861 0.635 0.726z" mask="url(#prefix__ak)"/>
        </g>
        <g transform="translate(0 -1) translate(363 357.828)">
            <mask id="prefix__an" fill="#fff">
                <use xlink:href="#prefix__al"/>
            </mask>
            <path fill="url(#prefix__am)" d="M3.791 2.074c-1.071.186-1.939 1.34-1.939 2.575L.501 7.732 13.929 5.48 15.28.159 3.791 2.074z" mask="url(#prefix__an)"/>
        </g>
        <g transform="translate(0 -1) translate(369 344.828)">
            <mask id="prefix__aq" fill="#fff">
                <use xlink:href="#prefix__ao"/>
            </mask>
            <path fill="url(#prefix__ap)" d="M14.62 3.712l.576 10.935-13.311 2.238c-.754.131-1.365.942-1.365 1.813L.521 31.48c0 .871.61 1.47 1.364 1.34l17.972-3.046c.754-.13 1.365-.941 1.365-1.812l-.001-10.844L21.51.687 17.748.062c-1.565.27-2.895 1.823-3.128 3.65" mask="url(#prefix__aq)"/>
        </g>
        <path fill="#4D4D4D" d="M391.86 346.424l-6.315 15.235-.518 4.156-4.92-6.033-2.544-1.997s-8.987-22.81 3.873-22.202l10.425 10.84z" transform="translate(0 -1)"/>
        <g transform="translate(0 -1) translate(361 354.828)">
            <mask id="prefix__at" fill="#fff">
                <use xlink:href="#prefix__ar"/>
            </mask>
            <path fill="url(#prefix__as)" d="M1.635 2.226c-1.623.541 0 6.5 0 6.5l8.499 10.047 15-7.979L15.866.152S4.416 1.299 1.635 2.226" mask="url(#prefix__at)"/>
        </g>
        <g transform="translate(0 -1) translate(370 345.828)">
            <mask id="prefix__aw" fill="#fff">
                <use xlink:href="#prefix__au"/>
            </mask>
            <path fill="url(#prefix__av)" d="M15.539 5.842l.007 9.99-13.31 2.238c-.754.13-1.366.942-1.366 1.812v12.784c0 .87.612 1.47 1.366 1.339l17.972-3.046c.753-.13 1.364-.942 1.364-1.812L21.861.595S21.718.552 21.476.5C20.97.39 20.49.336 20.039.336c-2.798 0-4.501 2.06-4.5 5.506" mask="url(#prefix__aw)"/>
        </g>
        <g transform="translate(0 -1) translate(369 343.828)">
            <mask id="prefix__az" fill="#fff">
                <use xlink:href="#prefix__ax"/>
            </mask>
            <path fill="url(#prefix__ay)" d="M17.886.874c-1.904.992-2.838 3.296-2.798 6.285l.108 8.488S2.07 17.712 1.957 17.746c-1.004.29-1.493 1.345-1.493 2.737v13.109l1.854 2.162-.031-14.124c.085-1.948 1.86-1.768 1.86-1.768l12.399-2.031s.051-7.123.29-11.492c.238-4.368 6.025-3.745 6.025-3.745L20.703.483c-.307-.06-.601-.088-.881-.087-.733 0-1.377.187-1.936.478" mask="url(#prefix__az)"/>
        </g>
        <g>
            <path stroke="#000" stroke-linecap="round" d="M212.978 257.994h9.998M232.666 257.994h-9.69M12.489.41v22.232" transform="translate(0 -1) translate(150 122.828)"/>
            <path fill="#000" d="M24.605 17.371c0 .985-.8 1.783-1.784 1.783-.986 0-1.783-.798-1.783-1.783 0-.985.797-1.784 1.783-1.784.985 0 1.784.8 1.784 1.784M4.085 17.371c0 .985-.799 1.783-1.784 1.783-.986 0-1.784-.798-1.784-1.783 0-.985.798-1.784 1.784-1.784.985 0 1.784.8 1.784 1.784M14.273 23.844c0 .984-.8 1.783-1.784 1.783-.985 0-1.783-.799-1.783-1.783 0-.985.798-1.784 1.783-1.784.985 0 1.784.799 1.784 1.784" transform="translate(0 -1) translate(150 122.828)"/>
        </g>
        <g transform="translate(0 -1) translate(150 92.828)">
            <mask id="prefix__aC" fill="#fff">
                <use xlink:href="#prefix__aA"/>
            </mask>
            <path fill="url(#prefix__aB)" d="M15.405 5.842l.005 9.989L2.109 17.84c-.754.131-1.364.942-1.364 1.813L.736 32.665c0 .87.611 1.471 1.365 1.34 0 0 19.335-3.988 19.335-4.858L20.949.349s-.142-.043-.386-.096C20.094.151 19.66.102 19.26.102c-2.704 0-3.857 2.255-3.855 5.74" mask="url(#prefix__aC)"/>
        </g>
        <g transform="translate(0 -1) translate(149 91.828)">
            <mask id="prefix__aF" fill="#fff">
                <use xlink:href="#prefix__aD"/>
            </mask>
            <path fill="url(#prefix__aE)" d="M17.679.926c-5.363 2.356-2.619 13.721-2.619 13.721L2.184 16.675c-.128.013-.25.037-.362.071C.818 17.036.33 18.091.33 19.483v13.109l1.854 2.162-.433-14.004c.086-1.949 1.859-1.769 1.859-1.769l12.8-2.15s.052-7.124.292-11.492c.236-4.369 5.247-3.99 5.247-3.99L20.833.282c-.184-.036-.372-.051-.56-.051-.949 0-1.924.4-2.594.695" mask="url(#prefix__aF)"/>
        </g>
        <g transform="translate(0 -1) translate(152 120.828)">
            <mask id="prefix__aI" fill="#fff">
                <use xlink:href="#prefix__aG"/>
            </mask>
            <path fill="url(#prefix__aH)" d="M0.148 4.587L7.033 13.002 7.034 8.455 0.148 0.319z" mask="url(#prefix__aI)"/>
        </g>
        <g transform="translate(0 -1) translate(153 114.828)">
            <mask id="prefix__aL" fill="#fff">
                <use xlink:href="#prefix__aJ"/>
            </mask>
            <path fill="url(#prefix__aK)" d="M3.304 2.668c-1.071.186-1.94 1.339-1.94 2.575L.014 8.326l13.427-2.253L14.792.752 3.304 2.668z" mask="url(#prefix__aL)"/>
        </g>
        <g transform="translate(0 -1) translate(159 101.828)">
            <mask id="prefix__aO" fill="#fff">
                <use xlink:href="#prefix__aM"/>
            </mask>
            <path fill="url(#prefix__aN)" d="M14.132 4.306l.576 10.935-13.31 2.236c-.754.132-1.365.944-1.364 1.813v12.784c0 .871.61 1.47 1.364 1.34l17.971-3.047c.754-.13 1.365-.942 1.365-1.812V17.712l.288-16.432-3.761-.625c-1.566.271-2.896 1.823-3.129 3.651" mask="url(#prefix__aO)"/>
        </g>
        <path fill="#4D4D4D" d="M181.373 104.018l-6.316 15.234-.518 4.156-4.918-6.032-2.546-1.998s-8.987-22.808 3.873-22.201l10.425 10.84z" transform="translate(0 -1)"/>
        <g transform="translate(0 -1) translate(151 111.828)">
            <mask id="prefix__aR" fill="#fff">
                <use xlink:href="#prefix__aP"/>
            </mask>
            <path fill="url(#prefix__aQ)" d="M1.148 2.819c-1.623.541 0 6.5 0 6.5l8.498 10.047 15.001-7.978L15.378.746S3.929 1.893 1.148 2.819" mask="url(#prefix__aR)"/>
        </g>
        <g transform="translate(0 -1) translate(160 102.828)">
            <mask id="prefix__aU" fill="#fff">
                <use xlink:href="#prefix__aS"/>
            </mask>
            <path fill="url(#prefix__aT)" d="M15.052 6.436l.007 9.989-13.311 2.239c-.753.13-1.365.942-1.365 1.812v12.783c0 .87.612 1.47 1.365 1.34l17.972-3.046c.754-.131 1.365-.942 1.365-1.812l.288-28.553s-.142-.042-.385-.095c-.506-.11-.986-.164-1.437-.164-2.798 0-4.501 2.061-4.499 5.507" mask="url(#prefix__aU)"/>
        </g>
        <g transform="translate(0 -1) translate(158 100.828)">
            <mask id="prefix__aX" fill="#fff">
                <use xlink:href="#prefix__aV"/>
            </mask>
            <path fill="url(#prefix__aW)" d="M18.399 1.468c-1.903.992-2.837 3.295-2.799 6.284l.108 8.489S2.582 18.306 2.469 18.339C1.466 18.63.978 19.685.978 21.077v13.109l1.854 2.162-.033-14.124c.086-1.948 1.861-1.768 1.861-1.768l12.399-2.031s.051-7.124.29-11.492c.238-4.369 6.024-3.745 6.024-3.745l-2.158-2.113c-.305-.059-.597-.086-.876-.086-.734 0-1.38.188-1.94.479" mask="url(#prefix__aX)"/>
        </g>
        <g>
            <path stroke="#000" stroke-linecap="round" d="M.49.587h9.999M20.179.587h-9.69M30.687 10.688V32.92" transform="translate(0 -1) translate(152 137.828)"/>
            <path fill="#000" d="M42.803 27.649c0 .984-.799 1.783-1.784 1.783-.986 0-1.783-.8-1.783-1.783 0-.985.797-1.784 1.783-1.784.985 0 1.784.799 1.784 1.784M22.284 27.649c0 .984-.8 1.783-1.784 1.783-.986 0-1.785-.8-1.785-1.783 0-.985.799-1.784 1.785-1.784.985 0 1.784.799 1.784 1.784M32.471 34.12c0 .985-.799 1.784-1.784 1.784s-1.783-.799-1.783-1.784c0-.984.798-1.783 1.783-1.783.985 0 1.784.8 1.784 1.783" transform="translate(0 -1) translate(152 137.828)"/>
        </g>
        <g transform="translate(0 -1) translate(170 117.828)">
            <mask id="prefix__ba" fill="#fff">
                <use xlink:href="#prefix__aY"/>
            </mask>
            <path fill="url(#prefix__aZ)" d="M15.602 6.12l.007 9.989-13.302 2.008c-.754.131-1.365.943-1.365 1.813L.934 32.942c0 .871.611 1.47 1.366 1.34 0 0 19.335-3.988 19.335-4.858L21.146.625s-.141-.041-.384-.094c-.469-.103-.904-.152-1.304-.152-2.704 0-3.857 2.254-3.856 5.741" mask="url(#prefix__ba)"/>
        </g>
        <g transform="translate(0 -1) translate(169 116.828)">
            <mask id="prefix__bd" fill="#fff">
                <use xlink:href="#prefix__bb"/>
            </mask>
            <path fill="url(#prefix__bc)" d="M17.877 1.203c-5.363 2.355-2.619 13.721-2.619 13.721L2.382 16.952c-.128.013-.249.038-.362.07-1.003.291-1.492 1.347-1.492 2.738v13.11l1.854 2.161-.432-14.004c.085-1.948 1.859-1.769 1.859-1.769l12.8-2.149s.051-7.125.29-11.492c.238-4.37 5.247-3.992 5.247-3.992L21.031.56c-.184-.036-.372-.052-.56-.052-.948 0-1.924.401-2.594.695" mask="url(#prefix__bd)"/>
        </g>
        <g transform="translate(0 -1) translate(172 145.828)">
            <mask id="prefix__bg" fill="#fff">
                <use xlink:href="#prefix__be"/>
            </mask>
            <path fill="url(#prefix__bf)" d="M0.346 4.865L7.231 13.279 7.231 8.73 0.346 0.596z" mask="url(#prefix__bg)"/>
        </g>
        <g transform="translate(0 -1) translate(173 140.828)">
            <mask id="prefix__bj" fill="#fff">
                <use xlink:href="#prefix__bh"/>
            </mask>
            <path fill="url(#prefix__bi)" d="M3.503 1.946c-1.072.185-1.94 1.337-1.94 2.575L.212 7.601 13.64 5.35 14.991.03 3.503 1.946z" mask="url(#prefix__bj)"/>
        </g>
        <g transform="translate(0 -1) translate(179 126.828)">
            <mask id="prefix__bm" fill="#fff">
                <use xlink:href="#prefix__bk"/>
            </mask>
            <path fill="url(#prefix__bl)" d="M14.331 4.583l.576 10.934-13.311 2.238c-.754.131-1.365.942-1.365 1.812v12.784c0 .871.611 1.471 1.365 1.34l17.972-3.046c.753-.131 1.365-.943 1.365-1.813V17.99l.288-16.433-3.762-.625c-1.565.272-2.895 1.823-3.128 3.651" mask="url(#prefix__bm)"/>
        </g>
        <path fill="#4D4D4D" d="M201.572 129.295l-6.316 15.234-.518 4.156-4.918-6.033-2.546-1.997s-8.987-22.809 3.873-22.202l10.425 10.842z" transform="translate(0 -1)"/>
        <g transform="translate(0 -1) translate(171 137.828)">
            <mask id="prefix__bp" fill="#fff">
                <use xlink:href="#prefix__bn"/>
            </mask>
            <path fill="url(#prefix__bo)" d="M1.346 2.096c-1.623.541 0 6.5 0 6.5l8.499 10.048 15-7.979L15.576.024S4.127 1.17 1.346 2.096" mask="url(#prefix__bp)"/>
        </g>
        <g transform="translate(0 -1) translate(180 128.828)">
            <mask id="prefix__bs" fill="#fff">
                <use xlink:href="#prefix__bq"/>
            </mask>
            <path fill="url(#prefix__br)" d="M15.251 5.714l.006 9.989-13.31 2.238c-.755.129-1.366.941-1.366 1.813v12.782c0 .87.611 1.47 1.366 1.339l17.971-3.045c.754-.131 1.364-.942 1.364-1.813L21.571.465s-.142-.043-.384-.096c-.506-.11-.985-.163-1.436-.163-2.799 0-4.502 2.061-4.5 5.508" mask="url(#prefix__bs)"/>
        </g>
        <g transform="translate(0 -1) translate(179 126.828)">
            <mask id="prefix__bv" fill="#fff">
                <use xlink:href="#prefix__bt"/>
            </mask>
            <path fill="url(#prefix__bu)" d="M17.597.746c-1.904.992-2.837 3.295-2.799 6.284l.109 8.487s-13.126 2.066-13.24 2.099C.664 17.907.176 18.963.176 20.354v13.108l1.854 2.163-.033-14.124c.087-1.949 1.86-1.768 1.86-1.768l12.4-2.03s.052-7.125.291-11.492c.237-4.37 6.023-3.746 6.023-3.746L20.413.352c-.305-.059-.597-.086-.876-.086-.735 0-1.381.188-1.94.48" mask="url(#prefix__bv)"/>
        </g>
        <g>
            <path stroke="#000" stroke-linecap="round" d="M.689.865h9.998M20.377.865h-9.69M34.843 15.253v22.232" transform="translate(0 -1) translate(172 162.828)"/>
            <path fill="#000" d="M46.958 32.213c0 .985-.799 1.784-1.783 1.784-.986 0-1.784-.799-1.784-1.784 0-.984.798-1.783 1.784-1.783.984 0 1.783.8 1.783 1.783M26.439 32.213c0 .985-.8 1.784-1.783 1.784-.986 0-1.784-.799-1.784-1.784 0-.984.798-1.783 1.784-1.783.984 0 1.783.8 1.783 1.783M36.626 38.686c0 .985-.798 1.784-1.783 1.784-.986 0-1.784-.8-1.784-1.784 0-.985.798-1.783 1.784-1.783.985 0 1.783.798 1.783 1.783" transform="translate(0 -1) translate(172 162.828)"/>
        </g>
        <g transform="translate(0 -1) translate(195 146.828)">
            <mask id="prefix__by" fill="#fff">
                <use xlink:href="#prefix__bw"/>
            </mask>
            <path fill="url(#prefix__bx)" d="M14.759 6.685l.006 9.989-13.302 2.008c-.753.131-1.365.942-1.365 1.813L.09 33.508c0 .871.611 1.47 1.365 1.338 0 0 19.336-3.987 19.336-4.858l-.488-28.797s-.143-.042-.385-.095c-.469-.103-.904-.152-1.304-.152-2.704 0-3.858 2.255-3.855 5.741" mask="url(#prefix__by)"/>
        </g>
        <g transform="translate(0 -1) translate(193 146.828)">
            <mask id="prefix__bB" fill="#fff">
                <use xlink:href="#prefix__bz"/>
            </mask>
            <path fill="url(#prefix__bA)" d="M18.033.769c-5.364 2.354-2.618 13.719-2.618 13.719L2.538 16.517c-.128.014-.249.038-.363.071-1.003.29-1.491 1.346-1.491 2.737v13.109l1.854 2.163-.433-14.005c.086-1.948 1.86-1.768 1.86-1.768l12.8-2.15s.052-7.124.29-11.492c.238-4.369 5.248-3.991 5.248-3.991L21.186.125c-.183-.036-.371-.052-.559-.052-.948 0-1.923.401-2.594.696" mask="url(#prefix__bB)"/>
        </g>
        <g transform="translate(0 -1) translate(196 175.828)">
            <mask id="prefix__bE" fill="#fff">
                <use xlink:href="#prefix__bC"/>
            </mask>
            <path fill="url(#prefix__bD)" d="M0.502 4.43L7.387 12.844 7.387 8.296 0.502 0.161z" mask="url(#prefix__bE)"/>
        </g>
        <g transform="translate(0 -1) translate(197 169.828)">
            <mask id="prefix__bH" fill="#fff">
                <use xlink:href="#prefix__bF"/>
            </mask>
            <path fill="url(#prefix__bG)" d="M3.659 2.51c-1.071.186-1.94 1.339-1.94 2.577L.368 8.167l13.428-2.252 1.351-5.32L3.659 2.51z" mask="url(#prefix__bH)"/>
        </g>
        <g transform="translate(0 -1) translate(203 156.828)">
            <mask id="prefix__bK" fill="#fff">
                <use xlink:href="#prefix__bI"/>
            </mask>
            <path fill="url(#prefix__bJ)" d="M14.487 4.147l.575 10.935-13.309 2.239c-.754.13-1.366.942-1.366 1.812v12.783c0 .87.612 1.47 1.366 1.34l17.971-3.045c.754-.132 1.364-.943 1.364-1.813V17.554l.289-16.431-3.763-.626c-1.564.272-2.894 1.823-3.127 3.65" mask="url(#prefix__bK)"/>
        </g>
        <path fill="#4D4D4D" d="M225.728 158.86l-6.316 15.234-.518 4.156-4.92-6.032-2.544-1.998s-8.987-22.809 3.873-22.202l10.425 10.841z" transform="translate(0 -1)"/>
        <g transform="translate(0 -1) translate(195 166.828)">
            <mask id="prefix__bN" fill="#fff">
                <use xlink:href="#prefix__bL"/>
            </mask>
            <path fill="url(#prefix__bM)" d="M1.502 2.661c-1.623.541 0 6.5 0 6.5L10 19.209l15.001-7.979L15.733.589S4.283 1.734 1.502 2.661" mask="url(#prefix__bN)"/>
        </g>
        <g transform="translate(0 -1) translate(204 157.828)">
            <mask id="prefix__bQ" fill="#fff">
                <use xlink:href="#prefix__bO"/>
            </mask>
            <path fill="url(#prefix__bP)" d="M15.406 6.279l.007 9.989-13.311 2.238c-.753.13-1.365.941-1.365 1.812v12.784c0 .869.612 1.47 1.366 1.338l17.972-3.045c.752-.131 1.364-.942 1.364-1.813l.288-28.551s-.142-.044-.384-.096c-.506-.11-.986-.163-1.437-.163-2.798 0-4.502 2.06-4.5 5.507" mask="url(#prefix__bQ)"/>
        </g>
        <g transform="translate(0 -1) translate(203 155.828)">
            <mask id="prefix__bT" fill="#fff">
                <use xlink:href="#prefix__bR"/>
            </mask>
            <path fill="url(#prefix__bS)" d="M17.753 1.311c-1.904.991-2.838 3.295-2.799 6.284l.108 8.487S1.937 18.149 1.824 18.181C.819 18.472.332 19.527.332 20.918v13.109l1.853 2.162-.031-14.123c.086-1.949 1.859-1.769 1.859-1.769l12.4-2.029s.051-7.124.29-11.493c.238-4.368 6.024-3.744 6.024-3.744L20.57.918c-.306-.059-.6-.087-.88-.087-.733 0-1.378.189-1.937.48" mask="url(#prefix__bT)"/>
        </g>
        <g stroke="#000" stroke-linecap="round">
            <path d="M.844 1.43h10M20.533 1.43h-9.69" transform="translate(0 -1) translate(196 191.828)"/>
        </g>
        <g transform="translate(0 -1) translate(58 118.828)">
            <mask id="prefix__bW" fill="#fff">
                <use xlink:href="#prefix__bU"/>
            </mask>
            <path fill="url(#prefix__bV)" d="M0.73 1.314L0.42 32.529 2.542 31.551 2.542 0.756z" mask="url(#prefix__bW)"/>
        </g>
        <g transform="translate(0 -1) translate(58 118.828)">
            <mask id="prefix__bY" fill="#fff">
                <use xlink:href="#prefix__bX"/>
            </mask>
            <path fill="url(#prefix__bV)" d="M0.73 1.314L0.42 32.529 2.542 31.551 2.542 0.756z" mask="url(#prefix__bY)"/>
        </g>
        <g transform="translate(0 -1) translate(56 118.828)">
            <mask id="prefix__cb" fill="#fff">
                <use xlink:href="#prefix__bZ"/>
            </mask>
            <path fill="url(#prefix__ca)" d="M0.609 31.116L2.42 32.529 2.73 1.314 0.919 0.756z" mask="url(#prefix__cb)"/>
        </g>
        <g transform="translate(0 -1) translate(144 237.828)">
            <mask id="prefix__ce" fill="#fff">
                <use xlink:href="#prefix__cc"/>
            </mask>
            <path fill="url(#prefix__cd)" d="M0.724 0.784L0.724 2.812 2.498 1.39 2.498 0.179z" mask="url(#prefix__ce)"/>
        </g>
        <g transform="translate(0 -1) translate(191 199.828)">
            <mask id="prefix__ch" fill="#fff">
                <use xlink:href="#prefix__cf"/>
            </mask>
            <path fill="url(#prefix__cg)" d="M0.334 0.619L21.234 21.444 23.009 20.838 1.575 0.619z" mask="url(#prefix__ch)"/>
        </g>
        <g transform="translate(0 -1) translate(191 199.828)">
            <mask id="prefix__ck" fill="#fff">
                <use xlink:href="#prefix__ci"/>
            </mask>
            <path fill="url(#prefix__cj)" d="M0.334 1.986L21.234 23.471 21.234 21.444 0.334 0.619z" mask="url(#prefix__ck)"/>
        </g>
        <g transform="translate(0 -1) translate(144 217.828)">
            <mask id="prefix__cn" fill="#fff">
                <use xlink:href="#prefix__cl"/>
            </mask>
            <path fill="url(#prefix__cm)" d="M1.033 0.944L0.724 32.158 2.846 31.18 2.846 0.385z" mask="url(#prefix__cn)"/>
        </g>
        <g transform="translate(0 -1) translate(144 217.828)">
            <mask id="prefix__cp" fill="#fff">
                <use xlink:href="#prefix__co"/>
            </mask>
            <path fill="url(#prefix__cm)" d="M1.033 0.944L0.724 32.158 2.846 31.18 2.846 0.385z" mask="url(#prefix__cp)"/>
        </g>
        <g transform="translate(0 -1) translate(142 217.828)">
            <mask id="prefix__cs" fill="#fff">
                <use xlink:href="#prefix__cq"/>
            </mask>
            <path fill="url(#prefix__cr)" d="M0.913 30.746L2.724 32.158 3.033 0.944 1.222 0.385z" mask="url(#prefix__cs)"/>
        </g>
        <g transform="translate(0 -1) translate(212 196.828)">
            <mask id="prefix__cv" fill="#fff">
                <use xlink:href="#prefix__ct"/>
            </mask>
            <path fill="url(#prefix__cu)" d="M1.113 1.459L0.803 32.673 2.925 31.694 2.925 0.9z" mask="url(#prefix__cv)"/>
        </g>
        <g transform="translate(0 -1) translate(212 196.828)">
            <mask id="prefix__cx" fill="#fff">
                <use xlink:href="#prefix__cw"/>
            </mask>
            <path fill="url(#prefix__cu)" d="M1.113 1.459L0.803 32.673 2.925 31.694 2.925 0.9z" mask="url(#prefix__cx)"/>
        </g>
        <g transform="translate(0 -1) translate(210 196.828)">
            <mask id="prefix__cA" fill="#fff">
                <use xlink:href="#prefix__cy"/>
            </mask>
            <path fill="url(#prefix__cz)" d="M0.992 31.26L2.803 32.673 3.113 1.459 1.301 0.9z" mask="url(#prefix__cA)"/>
        </g>
        <g transform="translate(0 -1) translate(144 195.828)">
            <mask id="prefix__cD" fill="#fff">
                <use xlink:href="#prefix__cB"/>
            </mask>
            <path fill="url(#prefix__cC)" d="M0.129 22.944L0.129 29.336 70.925 6.55 70.925 1.012 70.183 0.367z" mask="url(#prefix__cD)"/>
        </g>
        <path fill="#FFF" d="M56.118 117.105L144.129 218.772 214.925 196.84 124.865 97.577z" transform="translate(0 -1)"/>
        <g transform="translate(0 -1) translate(56 116.828)">
            <mask id="prefix__cG" fill="#fff">
                <use xlink:href="#prefix__cE"/>
            </mask>
            <path fill="url(#prefix__cF)" d="M0.119 5.978L88.129 108.336 88.129 101.945 0.119 0.277z" mask="url(#prefix__cG)"/>
        </g>
        <g transform="translate(0 -1) translate(232 309.828)">
            <mask id="prefix__cJ" fill="#fff">
                <use xlink:href="#prefix__cH"/>
            </mask>
            <path fill="url(#prefix__cI)" d="M0.416 0.72L0.106 31.935 2.229 30.957 2.229 0.161z" mask="url(#prefix__cJ)"/>
        </g>
        <g transform="translate(0 -1) translate(232 309.828)">
            <mask id="prefix__cL" fill="#fff">
                <use xlink:href="#prefix__cK"/>
            </mask>
            <path fill="url(#prefix__cI)" d="M0.416 0.72L0.106 31.935 2.229 30.957 2.229 0.161z" mask="url(#prefix__cL)"/>
        </g>
        <g transform="translate(0 -1) translate(230 309.828)">
            <mask id="prefix__cO" fill="#fff">
                <use xlink:href="#prefix__cM"/>
            </mask>
            <path fill="url(#prefix__cN)" d="M0.296 30.522L2.106 31.935 2.416 0.72 0.605 0.161z" mask="url(#prefix__cO)"/>
        </g>
        <g transform="translate(0 -1) translate(318 427.828)">
            <mask id="prefix__cR" fill="#fff">
                <use xlink:href="#prefix__cP"/>
            </mask>
            <path fill="url(#prefix__cQ)" d="M0.41 1.19L0.41 3.217 2.184 1.796 2.184 0.584z" mask="url(#prefix__cR)"/>
        </g>
        <g transform="translate(0 -1) translate(365 390.828)">
            <mask id="prefix__cU" fill="#fff">
                <use xlink:href="#prefix__cS"/>
            </mask>
            <path fill="url(#prefix__cT)" d="M0.019 0.024L20.921 20.849 22.696 20.243 1.26 0.024z" mask="url(#prefix__cU)"/>
        </g>
        <g transform="translate(0 -1) translate(365 390.828)">
            <mask id="prefix__cX" fill="#fff">
                <use xlink:href="#prefix__cV"/>
            </mask>
            <path fill="url(#prefix__cW)" d="M0.019 1.391L20.921 22.876 20.921 20.85 0.019 0.024z" mask="url(#prefix__cX)"/>
        </g>
        <g transform="translate(0 -1) translate(318 407.828)">
            <mask id="prefix__da" fill="#fff">
                <use xlink:href="#prefix__cY"/>
            </mask>
            <path fill="url(#prefix__cZ)" d="M0.72 1.348L0.41 32.564 2.531 31.585 2.531 0.79z" mask="url(#prefix__da)"/>
        </g>
        <g transform="translate(0 -1) translate(318 407.828)">
            <mask id="prefix__dc" fill="#fff">
                <use xlink:href="#prefix__db"/>
            </mask>
            <path fill="url(#prefix__cZ)" d="M0.72 1.348L0.41 32.564 2.531 31.585 2.531 0.79z" mask="url(#prefix__dc)"/>
        </g>
        <g transform="translate(0 -1) translate(316 407.828)">
            <mask id="prefix__df" fill="#fff">
                <use xlink:href="#prefix__dd"/>
            </mask>
            <path fill="url(#prefix__de)" d="M0.598 31.152L2.41 32.564 2.72 1.348 0.909 0.79z" mask="url(#prefix__df)"/>
        </g>
        <g transform="translate(0 -1) translate(386 387.828)">
            <mask id="prefix__di" fill="#fff">
                <use xlink:href="#prefix__dg"/>
            </mask>
            <path fill="url(#prefix__dh)" d="M0.799 0.864L0.49 32.078 2.612 31.1 2.612 0.305z" mask="url(#prefix__di)"/>
        </g>
        <g transform="translate(0 -1) translate(386 387.828)">
            <mask id="prefix__dk" fill="#fff">
                <use xlink:href="#prefix__dj"/>
            </mask>
            <path fill="url(#prefix__dh)" d="M0.799 0.864L0.49 32.078 2.612 31.1 2.612 0.305z" mask="url(#prefix__dk)"/>
        </g>
        <g transform="translate(0 -1) translate(384 387.828)">
            <mask id="prefix__dn" fill="#fff">
                <use xlink:href="#prefix__dl"/>
            </mask>
            <path fill="url(#prefix__dm)" d="M0.677 30.666L2.49 32.078 2.799 0.864 0.988 0.305z" mask="url(#prefix__dn)"/>
        </g>
        <g transform="translate(0 -1) translate(317 385.828)">
            <mask id="prefix__dq" fill="#fff">
                <use xlink:href="#prefix__do"/>
            </mask>
            <path fill="url(#prefix__dp)" d="M0.813 23.348L0.813 29.741 71.612 6.955 71.612 1.417 70.868 0.774z" mask="url(#prefix__dq)"/>
        </g>
        <path fill="#FFF" d="M229.805 307.719L317.814 409.386 388.612 387.454 298.552 288.191z" transform="translate(0 -1)"/>
        <g transform="translate(0 -1) translate(229 306.828)">
            <mask id="prefix__dt" fill="#fff">
                <use xlink:href="#prefix__dr"/>
            </mask>
            <path fill="url(#prefix__ds)" d="M0.805 6.384L88.813 108.741 88.813 102.35 0.805 0.682z" mask="url(#prefix__dt)"/>
        </g>
        <g>
            <path fill="#3C3C3B" d="M4.431 107.808L112.429 71.415 112.429 3.035 4.43 39.427z" transform="translate(0 -1) translate(338 361.828)"/>
            <path fill="#1D1D1B" d="M108.069 17.082L112.429 14.564 112.429 12.902 108.069 15.419zM108.069 20.241L112.429 17.724 112.429 16.061 108.069 18.578zM108.069 23.402L112.429 20.885 112.429 19.222 108.069 21.739zM108.069 26.561L112.429 24.044 112.429 22.381 108.069 24.899zM108.07 29.721L112.429 27.204 112.429 25.541 108.07 28.058zM108.07 32.881L112.429 30.363 112.429 28.7 108.07 31.218zM108.07 36.04L112.429 33.523 112.429 31.86 108.07 34.377zM108.07 39.2L112.429 36.682 112.429 35.019 108.07 37.537zM108.07 42.36L112.429 39.843 112.429 38.18 108.07 40.697zM108.07 45.52L112.429 43.003 112.429 41.34 108.07 43.857zM4.43 50.958L8.79 48.44 8.79 46.777 4.43 49.294zM4.43 54.117L8.79 51.6 8.79 49.937 4.43 52.454zM4.43 57.278L8.79 54.76 8.79 53.097 4.43 55.615zM4.431 60.437L8.79 57.92 8.79 56.257 4.43 58.774zM4.431 63.597L8.79 61.079 8.79 59.416 4.431 61.934zM4.431 66.756L8.79 64.239 8.79 62.576 4.431 65.093zM4.431 69.916L8.79 67.399 8.79 65.736 4.431 68.253zM4.431 73.076L8.79 70.558 8.79 68.895 4.431 71.413zM4.431 76.236L8.79 73.719 8.79 72.056 4.431 74.573zM4.431 79.396L8.79 76.878 8.79 75.215 4.431 77.733z" transform="translate(0 -1) translate(338 361.828)"/>
            <path fill="#706F6F" d="M112.427 3.033L4.43 39.428 0.302 37.044 108.298 0.648z" transform="translate(0 -1) translate(338 361.828)"/>
            <path fill="#575756" d="M0.301 105.425L0.302 37.044 4.43 39.427 4.429 107.808z" transform="translate(0 -1) translate(338 361.828)"/>
            <path fill="#1D1D1B" d="M2.247 49.725L4.43 50.986 4.43 49.323 2.247 48.062zM2.247 52.885L4.43 54.145 4.43 52.483 2.247 51.222zM2.246 56.044L4.43 57.305 4.43 55.642 2.246 54.381zM2.246 59.204L4.43 60.465 4.43 58.802 2.246 57.541zM2.246 62.364L4.43 63.624 4.43 61.962 2.246 60.7zM2.246 65.524L4.43 66.785 4.43 65.122 2.246 63.861zM2.246 68.684L4.43 69.944 4.43 68.281 2.246 67.021zM2.246 71.843L4.43 73.104 4.43 71.441 2.246 70.18zM2.246 75.003L4.43 76.263 4.43 74.601 2.246 73.34zM2.246 78.162L4.43 79.423 4.43 77.76 2.246 76.499z" transform="translate(0 -1) translate(338 361.828)"/>
            <path fill="#878787" d="M48.902 42.653l32.886-10.791c2.3-1.328 4.164-.251 4.164 2.404v31.408c0 2.656-1.864 5.885-4.164 7.213l-32.885 10.79c-2.301 1.33-4.165.253-4.165-2.403V49.866c0-2.655 1.864-5.885 4.164-7.213" transform="translate(0 -1) translate(338 361.828)"/>
            <path fill="#878787" d="M79.079 33.425L84.678 31.542 88.435 33.707 80.911 36.416zM45.816 83.874L52.354 81.388 56.112 83.553 49.694 86.088z" transform="translate(0 -1) translate(338 361.828)"/>
        </g>
        <g transform="translate(0 -1) translate(386 394.828)">
            <mask id="prefix__dw" fill="#fff">
                <use xlink:href="#prefix__du"/>
            </mask>
            <path fill="url(#prefix__dv)" d="M37.31.876L4.425 11.668C2.124 12.996.26 16.225.26 18.881l.001 31.408c0 2.656 1.864 3.731 4.164 2.405L37.31 41.902c2.301-1.328 4.165-4.557 4.165-7.214L41.474 3.28c0-1.883-.938-2.972-2.304-2.972-.56 0-1.192.183-1.86.568" mask="url(#prefix__dw)"/>
        </g>
        <g>
            <path fill="#878787" d="M263.425 165.258c0 .918.646 1.29 1.44.831.796-.459 1.441-1.576 1.441-2.494 0-.919-.645-1.29-1.44-.832-.795.46-1.44 1.576-1.44 2.495M231.433 175.534c0 .918.645 1.29 1.439.831.796-.459 1.441-1.576 1.441-2.494 0-.919-.645-1.29-1.441-.832-.794.46-1.439 1.576-1.439 2.495M263.426 195.331c0 .918.645 1.291 1.44.832.795-.46 1.44-1.576 1.44-2.495 0-.918-.645-1.29-1.44-.83-.795.458-1.44 1.575-1.44 2.493M231.433 205.608c0 .918.645 1.29 1.44.83.795-.458 1.44-1.575 1.44-2.493 0-.918-.645-1.291-1.44-.832-.795.46-1.44 1.576-1.44 2.495" transform="translate(0 -1) translate(158 236.828)"/>
            <path stroke="#000" stroke-linecap="round" d="M11.068.37v19.46" transform="translate(0 -1) translate(158 236.828)"/>
            <path fill="#000" d="M21.671 15.215c0 .862-.698 1.562-1.56 1.562-.863 0-1.562-.7-1.562-1.562 0-.862.7-1.562 1.561-1.562.863 0 1.561.7 1.561 1.562M3.712 15.215c0 .862-.699 1.562-1.562 1.562-.862 0-1.56-.7-1.56-1.562 0-.862.698-1.562 1.56-1.562.863 0 1.562.7 1.562 1.562M12.63 20.88c0 .862-.7 1.561-1.563 1.561-.862 0-1.56-.699-1.56-1.56 0-.863.698-1.563 1.56-1.563.863 0 1.562.7 1.562 1.562" transform="translate(0 -1) translate(158 236.828)"/>
            <path stroke="#000" stroke-linecap="round" d="M2.317 13.654h8.75M19.548 13.654h-8.48" transform="translate(0 -1) translate(158 236.828)"/>
        </g>
        <g transform="translate(0 -1) translate(155 216.828)">
            <mask id="prefix__dz" fill="#fff">
                <use xlink:href="#prefix__dx"/>
            </mask>
            <path fill="url(#prefix__dy)" d="M0.971 9.268L5.089 17.919 28.901 9.268 18.228 0.318z" mask="url(#prefix__dz)"/>
        </g>
        <g transform="translate(0 -1) translate(151 221.828)">
            <mask id="prefix__dC" fill="#fff">
                <use xlink:href="#prefix__dA"/>
            </mask>
            <path fill="url(#prefix__dB)" d="M0.522 1.733L10.925 9.6 13.592 8.998 3.096 0.848z" mask="url(#prefix__dC)"/>
        </g>
        <g transform="translate(0 -1) translate(151 217.828)">
            <mask id="prefix__dF" fill="#fff">
                <use xlink:href="#prefix__dD"/>
            </mask>
            <path fill="url(#prefix__dE)" d="M10.925 13.6L1.603 5.798C.938 5.31.001 5.785.001 6.61v9.15c0 .32.151.62.409.809l15.921 12.699-.252-28.248C15.151.45 14.373.2 13.72.2c-4.771 0-2.795 13.4-2.795 13.4" mask="url(#prefix__dF)"/>
        </g>
        <g transform="translate(0 -1) translate(167 213.828)">
            <mask id="prefix__dI" fill="#fff">
                <use xlink:href="#prefix__dG"/>
            </mask>
            <path fill="url(#prefix__dH)" d="M0.079 5.02L0.331 33.268 17.738 26.285 17.738 0.135z" mask="url(#prefix__dI)"/>
        </g>
        <g transform="translate(0 -1) translate(163 211.828)">
            <mask id="prefix__dL" fill="#fff">
                <use xlink:href="#prefix__dJ"/>
            </mask>
            <path fill="url(#prefix__dK)" d="M17.692.663C15.25.942.752 6.417.752 6.417s2.48-.156 3.327.603l17.659-4.885S20.362.633 18.219.633c-.171 0-.347.01-.527.03" mask="url(#prefix__dL)"/>
        </g>
        <g>
            <path stroke="#000" stroke-linecap="round" d="M10.503.64v19.459" transform="translate(0 -1) translate(196 229.828)"/>
            <path fill="#000" d="M21.107 15.485c0 .862-.7 1.562-1.561 1.562-.862 0-1.561-.7-1.561-1.562 0-.862.699-1.562 1.56-1.562.863 0 1.562.7 1.562 1.562M3.148 15.485c0 .862-.7 1.562-1.562 1.562-.862 0-1.561-.7-1.561-1.562 0-.862.699-1.562 1.56-1.562.864 0 1.563.7 1.563 1.562M12.064 21.15c0 .862-.698 1.562-1.561 1.562-.862 0-1.561-.7-1.561-1.562 0-.862.699-1.562 1.56-1.562.864 0 1.562.7 1.562 1.562" transform="translate(0 -1) translate(196 229.828)"/>
            <path stroke="#000" stroke-linecap="round" d="M1.752 13.923h8.751M18.984 13.923h-8.48" transform="translate(0 -1) translate(196 229.828)"/>
        </g>
        <g transform="translate(0 -1) translate(193 209.828)">
            <mask id="prefix__dO" fill="#fff">
                <use xlink:href="#prefix__dM"/>
            </mask>
            <path fill="url(#prefix__dN)" d="M0.406 9.538L4.525 18.188 28.337 9.538 17.665 0.588z" mask="url(#prefix__dO)"/>
        </g>
        <g transform="translate(0 -1) translate(188 215.828)">
            <mask id="prefix__dR" fill="#fff">
                <use xlink:href="#prefix__dP"/>
            </mask>
            <path fill="url(#prefix__dQ)" d="M0.958 1.002L11.361 8.869 14.027 8.268 3.532 0.118z" mask="url(#prefix__dR)"/>
        </g>
        <g transform="translate(0 -1) translate(188 210.828)">
            <mask id="prefix__dU" fill="#fff">
                <use xlink:href="#prefix__dS"/>
            </mask>
            <path fill="url(#prefix__dT)" d="M11.361 13.869L2.039 6.068c-.666-.489-1.603-.014-1.603.811v9.15c0 .32.152.62.409.81l15.921 12.699-.252-28.249c-.927-.57-1.705-.82-2.358-.82-4.772.001-2.795 13.4-2.795 13.4" mask="url(#prefix__dU)"/>
        </g>
        <g transform="translate(0 -1) translate(204 206.828)">
            <mask id="prefix__dX" fill="#fff">
                <use xlink:href="#prefix__dV"/>
            </mask>
            <path fill="url(#prefix__dW)" d="M0.514 5.289L0.766 33.538 18.174 26.555 18.174 0.405z" mask="url(#prefix__dX)"/>
        </g>
        <g transform="translate(0 -1) translate(201 204.828)">
            <mask id="prefix__ea" fill="#fff">
                <use xlink:href="#prefix__dY"/>
            </mask>
            <path fill="url(#prefix__dZ)" d="M17.128.933C14.686 1.212.188 6.688.188 6.688s2.479-.158 3.326.601l17.66-4.884S19.798.903 17.656.903c-.172 0-.348.009-.528.03" mask="url(#prefix__ea)"/>
        </g>
        <g transform="translate(0 -1) translate(0 .828)">
            <path fill="#888" d="M339.491 88.584H173.84c-13.685 0-24.78-11.094-24.78-24.778 0-13.685 11.095-24.779 24.78-24.779H339.49c13.685 0 24.778 11.094 24.778 24.78 0 13.683-11.093 24.777-24.778 24.777"/>
            <mask id="prefix__ec" fill="#fff">
                <use xlink:href="#prefix__eb"/>
            </mask>
            <path fill="#FFF" d="M195.287 60.153h4.561v-5.07h-4.561v5.07zm-3.299 3.15h11.399V51.934h-11.399v11.369zm-7.23 10.621h12.39v-1.771h-12.39v1.771zm0-4.351h12.39v-1.68h-12.39v1.68zm-3.51-4.47h19.56v12.63h-3.66v-.96h-12.39v.99h-3.51v-12.66zm1.71-8.4c.031-.24.031-.45.031-.66v-1.29h-1.5c-.42.72-.901 1.38-1.38 1.95h2.849zm5.58 7.95c-.84-.75-2.52-1.98-3.87-2.91-1.08 1.53-2.82 3.06-5.519 4.32-.481-.72-1.471-1.83-2.25-2.4 3.059-1.2 4.59-2.67 5.34-4.17h-4.981v-2.79h2.011c-.721-.45-1.681-.99-2.28-1.29 1.53-1.439 2.7-3.63 3.299-5.849l3.15.66c-.18.569-.36 1.17-.6 1.769h7.44v2.76h-3.9v1.351c0 .21 0 .389-.03.599h4.62v2.79h-4.95c1.26.661 4.26 2.371 5.04 2.88l-2.52 2.28zM233.658 74.433c1.02 0 1.229-.51 1.38-3.271.72.54 2.16 1.08 3.09 1.29-.361 3.93-1.29 5.1-4.14 5.1h-4.26c-3.54 0-4.41-1.05-4.41-4.32v-9.42h3.54v3h7.59v3.15h-7.59v3.27c0 1.05.21 1.2 1.38 1.2h3.42zm-3.78-11.46c-3.6 0-4.56-1.32-4.56-4.65v-8.52h3.54v3.54h7.38v3.06h-7.38v1.98c0 1.11.18 1.53 1.14 1.53h4.38c.84 0 2.1-.09 2.759-.24.06.93.21 2.22.33 3.03-.63.21-1.89.27-3.03.27h-4.56zm-14.82.51v2.13l1.5-1.29c1.02.72 2.31 1.77 3.21 2.55v-3.39h-4.71zm0 3.78c0 1.14-.06 2.49-.21 3.84 1.35-.6 3.12-1.5 4.92-2.46v-.99l-1.44 1.41c-.75-.78-2.13-1.95-3.27-2.88v1.08zm6.39-15.3c1.26 2.16 2.85 5.1 3.57 6.9l-3.12 1.26c-.18-.54-.45-1.17-.75-1.89-7.59.75-8.82.93-9.69 1.29-.18-.69-.75-2.31-1.11-3.21.54-.12 1.05-.54 1.65-1.2.6-.66 2.43-2.97 3.54-5.34l3.6 1.02c-1.02 1.74-2.37 3.48-3.69 4.98l4.38-.33c-.45-.87-.87-1.71-1.26-2.43l2.88-1.05zm1.68 22.499c0 1.47-.27 2.22-1.26 2.7-.96.45-2.31.51-4.14.51-.15-.84-.63-2.01-1.08-2.79 1.08.06 2.25.06 2.61.06.39 0 .51-.12.51-.51v-3.06c-1.5 1.08-3 2.1-4.35 2.97l-.75-2.1c-.33 2.04-.99 4.08-2.13 5.64-.51-.69-1.86-1.98-2.49-2.4 1.59-2.34 1.71-5.64 1.71-8.25v-6.748h11.37v13.978zM264.167 60.574h-3.119l2.34.569c-.6 1.2-1.17 2.37-1.65 3.21h2.43v-3.78zm-5.939 0v3.779h2.79l-1.8-.51c.42-.9.9-2.28 1.17-3.27h-2.16zm1.44-5.55c-.9-.63-1.77-1.29-2.52-1.95-.78.66-1.65 1.32-2.55 1.95h5.07zm-4.32 5.55h-2.34c.54 1.02 1.02 2.31 1.2 3.18l-1.92.599h3.06v-3.78zm-3.66 14.008h10.47v-1.198h-10.47v1.198zm0-3.538h10.47v-1.2h-10.47v1.2zm-.12-6.691c-.15-.93-.54-2.16-1.02-3.12l2.31-.66h-3.39v3.78h2.1zm-3.39 3.15h17.64v10.14h-3.66v-.72h-10.47v.81h-3.51v-10.23zm18.09-9.12c-1.41-.51-2.76-1.14-4.08-1.83v.78h-10.53v-.6c-1.17.6-2.37 1.17-3.63 1.65h18.24zm-6.81-7.77c-.15.18-.3.39-.45.57 2.76 2.4 7.68 4.47 12.45 5.4-.75.63-1.77 1.89-2.25 2.73-.6-.15-1.23-.36-1.86-.54v7.74h-20.85v-7.56c-.63.21-1.26.42-1.86.57-.36-.66-1.32-2.1-1.92-2.76 5.52-1.29 10.86-3.78 13.59-7.26l3.15 1.11zM295.188 66.603c-.061-.75-.09-1.47-.12-2.28-.78.21-1.62.42-2.55.57v1.71h2.67zm8.46-4.59h-17.91v-2.55h7.23v-1.23h-5.34v-2.22h5.34v-1.14h-6.3v-2.37h3.27c-.33-.63-.75-1.32-1.14-1.86l2.52-.9c.66.84 1.38 1.98 1.71 2.76h3.69c.51-.84 1.11-1.95 1.35-2.76l3.12.78c-.45.69-.96 1.38-1.41 1.98h3.239v2.37h-6.63v1.14h5.7v2.22h-5.7v1.23h7.23l.03 2.55zm-1.11 8.7c-.75 1.2-1.741 2.31-2.88 3.27.45.75.96 1.14 1.559 1.14.45 0 .75-.78.84-2.4.57.54 1.41.96 2.04 1.23-.42 2.879-1.38 3.929-3.21 3.929-1.53 0-2.7-.78-3.57-2.13-.99.66-2.04 1.2-3.06 1.65-.36-.54-1.11-1.38-1.68-1.86 1.26-.51 2.55-1.23 3.75-2.04-.39-1.26-.69-2.67-.9-4.32h-2.91v1.14l2.4-.24.06 2.52-2.46.3v2.01c0 1.38-.27 2.01-1.2 2.43-.93.39-2.22.42-3.988.42-.12-.75-.511-1.8-.87-2.52 1.019.03 2.159.03 2.489.03.36-.03.48-.12.48-.45v-1.53c-1.29.15-2.49.3-3.6.42l-.33-2.73c1.14-.09 2.46-.21 3.93-.36v-1.44h-3.75v-2.58h3.75v-1.29c-.96.12-1.89.182-2.79.24-.09-.598-.42-1.5-.69-2.07 2.52-.238 5.52-.69 7.29-1.26l1.83 2.102c-.03-.571-.06-1.141-.06-1.681h2.97c0 1.41.029 2.76.09 3.96h3.09c-.6-.87-1.8-1.98-2.85-2.76l2.039-1.38c1.11.75 2.46 1.89 3.06 2.76l-1.95 1.38h2.13v2.58h-5.25c.09.84.24 1.56.39 2.22.54-.6 1.05-1.2 1.41-1.86l2.4 1.17zm-23.13 2.67h2.97v-3.54h-2.97v3.54zm-2.4-7.74h7.979v-2.67h-7.98v2.67zm0-4.05h7.979v-2.7h-7.98v2.7zm7.92 14.52h-5.52v1.26h-2.52v-10.26h8.04v9zm.81-18.57h-9.78v-2.79h4.17c-.27-1.11-.87-2.73-1.5-3.96l2.55-.93c.69 1.23 1.44 2.97 1.71 3.99l-2.19.9h5.04v2.79zM327.377 62.583c-.539-.48-1.079-.9-1.56-1.32l1.47-.99h-5.189c-1.08 1.02-2.28 1.98-3.48 2.88l8.76-.57zm-14.099-5.37h19.11v-1.83h-19.11v1.83zm-.15.66h-3.33v-5.729h11.52c-.24-.63-.51-1.29-.81-1.8l3.48-1.02c.51.87 1.02 1.92 1.35 2.82h10.68v5.73h-3.18v2.4h-3.54c1.83 1.47 3.9 3.33 5.01 4.68l-2.82 1.92c-.39-.54-.93-1.2-1.59-1.892-13.41 1.08-15.03 1.201-16.23 1.681-.18-.66-.66-2.25-1.02-3.09.66-.09 1.32-.48 2.13-1.08.48-.33 1.56-1.14 2.76-2.22h-4.41v-2.4zm23.16 15.93v3.15h-26.58v-3.15h11.34v-2.58h-8.73v-3.06h8.73v-2.28h3.66v2.28h9.18v3.06h-9.18v2.58h11.58z" mask="url(#prefix__ec)"/>
            <path fill="#888" d="M463.489 284.17H297.837c-13.685 0-24.78-11.094-24.78-24.778 0-13.685 11.095-24.779 24.78-24.779h165.652c13.685 0 24.778 11.094 24.778 24.78 0 13.683-11.093 24.777-24.778 24.777" mask="url(#prefix__ec)"/>
            <path fill="#FFF" d="M317.245 260.479h6.63v-1.95h-6.63v1.95zm0-4.619h6.63v-1.92h-6.63v1.92zm0-4.561h6.63v-1.949h-6.63v1.949zm8.371 18.81c.509 0 .599-.39.69-3.39.6.54 2.01 1.08 2.909 1.319-.3 4.08-1.139 5.16-3.18 5.16h-1.979c-2.641 0-3.21-1.02-3.21-3.99v-5.88h-1.681c-.42 4.891-1.589 8.191-7.349 10.05-.3-.809-1.17-2.01-1.77-2.609 4.8-1.38 5.61-3.75 5.94-7.441h-1.98V246.53h13.289v16.798h-3.149v5.88c0 .811.059.901.479.901h.991zm-14.7-5.55c-.509-.75-1.35-1.861-2.19-2.88v11.64h-3.51v-11.01c-1.139 1.019-2.25 1.95-3.42 2.639-.239-.989-.929-2.969-1.349-3.629 3-1.65 5.91-4.59 7.71-7.77h-6.84v-3.21h5.099c-.57-1.05-1.41-2.309-2.19-3.239l2.73-1.681c1.02 1.141 2.161 2.67 2.67 3.78l-1.679 1.14h2.13l.629-.149 1.89 1.38c-.87 2.189-2.07 4.319-3.45 6.269 1.2 1.05 3.39 3.18 3.96 3.78l-2.19 2.94zM358.976 246.86c-.271 9.869-.24 22.169.869 22.529.15.06.3-1.89.39-3.81.48.93 1.35 2.34 1.86 2.88-.45 4.38-1.98 5.31-3.84 4.53-2.85-1.2-2.88-11.58-2.85-22.74h-3.63v7.92h2.88v3.33h-2.88v11.82h-3.33v-11.82h-3.36v-3.33h3.36v-7.92h-2.94v-3.39h13.47zm-20.88 21.959h3.18v-3.36h-3.18v3.36zm6 2.88h-6v1.26h-2.73v-10.35h8.73v9.09zm-8.76-10.53h8.76v-2.7h-8.76v2.7zm0-4.02h8.7v-2.7h-8.7v2.7zm9.75-4.05h-10.98v-2.82h4.77c-.39-1.14-1.14-2.64-1.77-3.78l2.55-1.29c.72 1.23 1.59 2.88 2.01 3.99l-1.83 1.08h5.25v2.82zM388.165 256.16h-3.119l2.34.568c-.6 1.201-1.17 2.37-1.65 3.21h2.43v-3.779zm-5.939 0v3.778h2.79l-1.8-.509c.42-.9.9-2.28 1.17-3.27h-2.16zm1.44-5.55c-.9-.63-1.77-1.29-2.52-1.95-.78.66-1.65 1.32-2.55 1.95h5.07zm-4.32 5.55h-2.34c.54 1.02 1.02 2.31 1.2 3.18l-1.92.598h3.06v-3.779zm-3.66 14.008h10.47v-1.199h-10.47v1.2zm0-3.539h10.47v-1.2h-10.47v1.2zm-.12-6.69c-.15-.93-.54-2.16-1.02-3.12l2.31-.66h-3.39v3.78h2.1zm-3.39 3.15h17.64v10.14h-3.66v-.72h-10.47v.81h-3.51v-10.23zm18.09-9.12c-1.41-.51-2.76-1.14-4.08-1.83v.78h-10.53v-.6c-1.17.6-2.37 1.17-3.63 1.65h18.24zm-6.81-7.77c-.15.18-.3.39-.45.57 2.76 2.4 7.68 4.47 12.45 5.4-.75.63-1.77 1.89-2.25 2.73-.6-.15-1.23-.36-1.86-.54v7.74h-20.85v-7.56c-.63.21-1.26.42-1.86.57-.36-.66-1.32-2.1-1.92-2.76 5.52-1.29 10.86-3.78 13.59-7.26l3.15 1.11zM419.186 262.189c-.061-.75-.09-1.47-.12-2.28-.78.21-1.62.42-2.55.57v1.71h2.67zm8.46-4.59h-17.91v-2.55h7.23v-1.23h-5.34v-2.22h5.34v-1.14h-6.3v-2.37h3.27c-.33-.63-.75-1.32-1.14-1.86l2.52-.9c.66.84 1.38 1.98 1.71 2.76h3.69c.51-.84 1.11-1.95 1.35-2.76l3.12.78c-.45.69-.96 1.38-1.41 1.98h3.239v2.37h-6.63v1.14h5.7v2.22h-5.7v1.23h7.23l.03 2.55zm-1.11 8.7c-.75 1.2-1.741 2.31-2.88 3.27.45.75.96 1.14 1.559 1.14.45 0 .75-.78.84-2.4.57.54 1.41.96 2.04 1.23-.42 2.879-1.38 3.929-3.21 3.929-1.53 0-2.7-.78-3.57-2.13-.99.66-2.04 1.2-3.06 1.65-.36-.54-1.11-1.38-1.68-1.86 1.26-.51 2.55-1.23 3.75-2.04-.39-1.26-.69-2.67-.9-4.32h-2.91v1.14l2.4-.24.06 2.52-2.46.3v2.01c0 1.38-.27 2.01-1.2 2.43-.93.39-2.22.42-3.988.42-.12-.75-.511-1.8-.87-2.52 1.019.03 2.159.03 2.489.03.36-.03.48-.12.48-.45v-1.53c-1.29.15-2.49.3-3.6.42l-.33-2.73c1.14-.09 2.46-.21 3.93-.36v-1.44h-3.75v-2.58h3.75v-1.29c-.96.12-1.89.182-2.79.24-.09-.598-.42-1.5-.69-2.07 2.52-.238 5.52-.69 7.29-1.26l1.83 2.102c-.03-.571-.06-1.141-.06-1.681h2.97c0 1.41.029 2.76.09 3.96h3.09c-.6-.87-1.8-1.98-2.85-2.76l2.039-1.38c1.11.75 2.46 1.89 3.06 2.76l-1.95 1.38h2.13v2.58h-5.25c.09.84.24 1.56.39 2.22.54-.6 1.05-1.2 1.41-1.86l2.4 1.17zm-23.13 2.67h2.97v-3.54h-2.97v3.54zm-2.4-7.74h7.979v-2.67h-7.98v2.67zm0-4.05h7.979v-2.7h-7.98v2.7zm7.92 14.52h-5.52v1.26h-2.52v-10.26h8.04v9zm.81-18.57h-9.78v-2.79h4.17c-.27-1.11-.87-2.73-1.5-3.96l2.55-.93c.69 1.23 1.44 2.97 1.71 3.99l-2.19.9h5.04v2.79zM451.375 258.17c-.539-.48-1.079-.9-1.56-1.32l1.47-.99h-5.189c-1.08 1.02-2.28 1.98-3.48 2.878l8.76-.569zm-14.099-5.37h19.11v-1.83h-19.11v1.83zm-.15.66h-3.33v-5.73h11.52c-.24-.63-.51-1.29-.81-1.8l3.48-1.02c.51.87 1.02 1.92 1.35 2.82h10.68v5.73h-3.18v2.4h-3.54c1.83 1.47 3.9 3.33 5.01 4.68l-2.82 1.92c-.39-.54-.93-1.2-1.59-1.892-13.41 1.08-15.03 1.201-16.23 1.681-.18-.66-.66-2.25-1.02-3.09.66-.09 1.32-.48 2.13-1.08.48-.33 1.56-1.14 2.76-2.22h-4.41v-2.4zm23.16 15.93v3.148h-26.58v-3.149h11.34v-2.58h-8.73v-3.06h8.73v-2.28h3.66v2.28h9.18v3.06h-9.18v2.58h11.58z" mask="url(#prefix__ec)"/>
        </g>
        <g transform="translate(0 -1) translate(253 225.828)">
            <mask id="prefix__ef" fill="#fff">
                <use xlink:href="#prefix__ed"/>
            </mask>
            <path fill="url(#prefix__ee)" d="M.732 12.341c0 5.089 3.274 9.409 7.829 10.98h7.574c4.555-1.571 7.827-5.891 7.827-10.98 0-6.414-5.2-11.614-11.614-11.614C5.933.727.732 5.927.732 12.341" mask="url(#prefix__ef)"/>
        </g>
        <g>
            <path fill="#1A1A1A" d="M22.116 25.426s.538-9.653 16.11-8.896c0 0-10.936 2.825-13.523 9.197l-2.587-.301z" transform="translate(0 -1) translate(246 200.828)"/>
            <path fill="gray" d="M16.828 25.426S16.293 15.773.721 16.53c0 0 10.935 2.825 13.521 9.197l2.586-.301zM18.943 25.426s-1.04-10.607-5.311-20.952c0 0 7.884 7.122 7.92 21.253l-2.61-.301zM24.35 25.426s-.234-5.259 13.578-9.667c0 0-8.816 3.419-11.168 9.968l-2.41-.301z" transform="translate(0 -1) translate(246 200.828)"/>
            <path fill="gray" d="M21.552 25.727h-5.96S11.362 15.406 2.073 9.823c0 0 11.214 2.126 19.48 15.904" transform="translate(0 -1) translate(246 200.828)"/>
            <path fill="#1A1A1A" d="M20.354 25.727s-9.875-12.184-9.287-18.394c0 0 6.466 10.366 9.287 11.894 2.82 1.528 3.056 6.5 3.056 6.5h-3.056z" transform="translate(0 -1) translate(246 200.828)"/>
            <path fill="#1A1A1A" d="M23.41.888S17.948 11.82 20.267 22.4l3.143-2.117s-1.998-9.521 0-19.396" transform="translate(0 -1) translate(246 200.828)"/>
            <path fill="gray" d="M20.354 25.727s-1.881-13.124 11.99-18.394c0 0-8.934 9.183-8.934 18.394h-3.056z" transform="translate(0 -1) translate(246 200.828)"/>
            <path fill="#FFF" d="M3.073 17.228S6.6 14.29 9.422 15.582c2.82 1.293.763 4.292-2.587 3.879-3.35-.411-3.762-2.233-3.762-2.233" transform="translate(0 -1) translate(246 200.828)"/>
            <path stroke="#1A1A1A" stroke-linecap="round" stroke-width=".25" d="M3.485 17.377s4.878-.208 5.29 1.556" transform="translate(0 -1) translate(246 200.828)"/>
            <path fill="gray" d="M10.34 18.3s8.065 1.335 9.774 7.126l.172-2.092s-1.92-5.162-9.537-5.957l-.41.922z" transform="translate(0 -1) translate(246 200.828)"/>
            <path fill="#1A1A1A" d="M20.354 25.727h-2.527S9.75 18.815 6.912 9.529c0 0 10.268 13.41 13.442 16.198" transform="translate(0 -1) translate(246 200.828)"/>
            <path fill="gray" d="M31.933 14.348s-5.29 1.362-7.936 11.379h.707s2.409-8.852 7.64-10.85l-.411-.53z" transform="translate(0 -1) translate(246 200.828)"/>
            <path fill="#FFF" d="M38.663 12.05s-2.409 3.908-5.495 3.58c-3.086-.329-2.089-3.825 1.218-4.501 3.307-.675 4.277.921 4.277.921" transform="translate(0 -1) translate(246 200.828)"/>
            <path stroke="#1A1A1A" stroke-linecap="round" stroke-width=".25" d="M38.226 12.04s-4.56 1.75-5.511.208" transform="translate(0 -1) translate(246 200.828)"/>
            <path fill="gray" d="M20.813 13.301s-3.693 4.024-.454 13.864l.592-.385s-2.802-8.734.496-13.26l-.634-.219z" transform="translate(0 -1) translate(246 200.828)"/>
            <path fill="#FFF" d="M24.463 8.642s.45 4.16-2.044 5.223c-2.494 1.062-3.762-2.162-1.68-4.123 2.08-1.96 3.724-1.1 3.724-1.1" transform="translate(0 -1) translate(246 200.828)"/>
            <path stroke="#1A1A1A" stroke-linecap="round" stroke-width=".25" d="M24.13 8.822s-2.398 3.356-3.996 2.532" transform="translate(0 -1) translate(246 200.828)"/>
            <path fill="gray" d="M23.41 25.727L25.951 25.727 28.035 17.965 25.238 18.416 23.175 25.727" transform="translate(0 -1) translate(246 200.828)"/>
            <path fill="#1A1A1A" d="M24.703 25.727s1.83-5.795 13.522-6.794c0 0-9.345 2.89-10.552 6.794h-2.97z" transform="translate(0 -1) translate(246 200.828)"/>
            <path fill="gray" d="M24.97 18.558s2.613-1.55 4.023 0c1.412 1.55-2.997 11.248-2.997 11.248s.064-11.916-1.026-11.248" transform="translate(0 -1) translate(246 200.828)"/>
            <path fill="#FFF" d="M25.304 27.338H13.391c-.357 0-.647-.29-.647-.646 0-.358.29-.648.647-.648h11.913c.357 0 .647.29.647.648 0 .356-.29.646-.647.646" transform="translate(0 -1) translate(246 200.828)"/>
        </g>
    </g>
</svg>
