<svg xmlns="http://www.w3.org/2000/svg" width="1251" height="1392" viewBox="0 0 1251 1392">
    <defs>
        <linearGradient id="prefix__a" x1="0%" x2="100%" y1="50.131%" y2="50.131%">
            <stop offset="0%" stop-color="#656665"/>
            <stop offset="100%" stop-color="#333"/>
        </linearGradient>
        <linearGradient id="prefix__b" x1="0%" x2="100%" y1="50.001%" y2="50.001%">
            <stop offset="0%" stop-color="#656665"/>
            <stop offset="100%" stop-color="#333"/>
        </linearGradient>
        <linearGradient id="prefix__c" x1="0%" x2="99.785%" y1="50%" y2="50%">
            <stop offset="0%" stop-color="#656665"/>
            <stop offset="100%" stop-color="#333"/>
        </linearGradient>
        <linearGradient id="prefix__d" x1=".036%" x2="100%" y1="50.002%" y2="50.002%">
            <stop offset="0%" stop-color="#656665"/>
            <stop offset="100%" stop-color="#333"/>
        </linearGradient>
    </defs>
    <g fill="none">
        <path fill="#D80C18" d="M1205.19 645.78v72.74h5.27c3.836-.045 7.63.804 11.08 2.48 4.23 2.14 7 5.48 7 9.25V1144c0 3.82-2.74 7.19-7 9.35-3.45 1.68-7.243 2.532-11.08 2.49h-5.27v89.92l-115.8 76H168.31l-130-85.31v-80.59H33c-9.9 0-17.89-5.24-17.89-11.84V730.25c0-6.5 8-11.73 17.89-11.73h5.3v-72.74H33c-9.9 0-17.89-5.24-17.89-11.74V220.27c0-6.5 8-11.84 17.89-11.84h5.3v-83.11l115.8-76.08h-1.28C152.82 40.85 163.2 34 176 34h877c12.78 0 23.16 6.81 23.16 15.2h-1l130 109.57v49.62h5.27c3.84-.043 7.636.82 11.08 2.52 4.23 2.17 7 5.56 7 9.32V634c0 3.76-2.74 7.12-7 9.24-3.447 1.688-7.242 2.544-11.08 2.5l-5.24.04z"/>
        <g opacity=".75" style="mix-blend-mode:multiply" fill="#F74B5B">
            <path d="M1040.26 8.54c0 4.396-3.584 8-8.005 8-4.42 0-7.995-3.575-7.995-8s3.584-8 7.995-8 8.005 3.604 8.005 8zM250.51 8.54c0 4.396-3.584 8-8.005 8-4.42 0-7.995-3.604-7.995-8s3.584-8 7.995-8 8.005 3.604 8.005 8z" transform="translate(23)"/>
            <path d="M242.83 8.66H1033.6399999999999V11.280000000000001H242.83z" transform="translate(23)"/>
            <path d="M554.72 6.69H720.69V13.57H554.72zM56.75 236.15L23.9 217.82V217h-5.25c-9.93 0-18 5.28-18 11.79v413.75c0 6.52 8 11.8 18 11.8h.47l.67 72.7h-4.55c-3.863-.003-7.57 1.53-10.302 4.261C2.205 734.031.67 737.737.67 741.6v408.23c0 3.863 1.535 7.568 4.268 10.299 2.733 2.73 6.439 4.261 10.302 4.261h8.66v-.09l32.85-25V236.15zM87.71 1065.79c-6.29 0-11.39-3.35-11.39-7.48 0-4.13 5.1-7.47 11.39-7.47 6.29 0 11.4 3.34 11.4 7.47s-5.11 7.48-11.4 7.48zM87.71 276.1c-6.29 0-11.39-3.34-11.39-7.47s5.1-7.48 11.39-7.48c6.29 0 11.4 3.35 11.4 7.48 0 4.13-5.11 7.47-11.4 7.47z" transform="translate(23)"/>
            <path d="M84.98 268.63H90.45V1059.27H84.98z" transform="translate(23)"/>
            <path d="M80.19 548.82H94.55V778.11H80.19z" transform="translate(23)"/>
        </g>
        <path fill="url(#prefix__a)" d="M1076.26 49.28H152.8C152.8 40.86 163.2 34 176 34h877c12.83 0 23.23 6.83 23.23 15.25l.03.03z"/>
        <path fill="url(#prefix__b)" d="M1205.28 645.83V208.48h8.72c8.006.027 14.488 6.514 14.51 14.52v408.27c0 8.022-6.488 14.532-14.51 14.56h-8.72z"/>
        <path fill="url(#prefix__c)" d="M1205.28 1155.89V718.53h8.72c8.041 0 14.56 6.519 14.56 14.56v408.23c.003 3.863-1.53 7.57-4.261 10.302-2.73 2.733-6.436 4.268-10.299 4.268h-8.72z"/>
        <path fill="#FA7985" d="M893.55 1391.48H350.11c-24.81 0-44.92-13.2-44.92-29.48h633.28c0 16.28-20.11 29.48-44.92 29.48zM1084.57 1370.56L973.88 1370.56 973.88 1365.33 1081.27 1365.33 1244.87 1257.96 1250.52 1261.67zM276.64 1370.56L165.95 1370.56 164.78 1369.8 0 1261.67 5.65 1257.96 169.25 1365.33 276.64 1365.33z"/>
        <path fill="url(#prefix__d)" d="M71.25 227.64L38.4 209.31v-.83h-5.25c-9.93 0-18 5.28-18 11.8V634c0 6.51 8 11.79 18 11.79h.46l.67 72.7h-4.55c-8.041 0-14.56 6.519-14.56 14.56v408.23c-.003 3.863 1.53 7.57 4.261 10.302 2.73 2.733 6.436 4.268 10.299 4.268h8.67v-.1l32.85-25V227.64z"/>
        <path fill="#FFF" d="M101.815 1064.33c-6.082 0-11.005-4.926-11.005-11s4.923-11 11.005-11c6.081 0 10.995 4.926 10.995 11s-4.923 11-10.995 11zM101.815 274.64c-6.082 0-11.005-4.926-11.005-11s4.923-11 11.005-11c6.081 0 10.995 4.926 10.995 11s-4.923 11-10.995 11z"/>
        <path fill="#FFF" d="M99.47 260.12H104.94V1050.76H99.47z"/>
        <path fill="#FFF" d="M94.68 540.32H109.04V769.61H94.68z"/>
    </g>
</svg>
