<svg xmlns="http://www.w3.org/2000/svg" width="1259" height="1414" viewBox="0 0 1259 1414">
    <defs>
        <linearGradient id="prefix__a" x1="0%" x2="100%" y1="50.131%" y2="50.131%">
            <stop offset="0%" stop-color="#656665"/>
            <stop offset="100%" stop-color="#333"/>
        </linearGradient>
        <linearGradient id="prefix__b" x1="0%" x2="100%" y1="50.001%" y2="50.001%">
            <stop offset="0%" stop-color="#656665"/>
            <stop offset="100%" stop-color="#333"/>
        </linearGradient>
        <linearGradient id="prefix__c" x1="0%" x2="99.785%" y1="50%" y2="50%">
            <stop offset="0%" stop-color="#656665"/>
            <stop offset="100%" stop-color="#333"/>
        </linearGradient>
        <linearGradient id="prefix__d" x1=".036%" x2="100%" y1="50.002%" y2="50.002%">
            <stop offset="0%" stop-color="#656665"/>
            <stop offset="100%" stop-color="#333"/>
        </linearGradient>
    </defs>
    <g fill="none">
        <path fill="#D80C18" d="M1205.19 659.78v72.74h5.27c3.836-.045 7.63.804 11.08 2.48 4.23 2.14 7 5.48 7 9.25V1158c0 3.82-2.74 7.19-7 9.35-3.45 1.68-7.243 2.532-11.08 2.49h-5.27v89.92l-115.8 76H168.31l-130-85.31v-80.59H33c-9.9 0-17.89-5.24-17.89-11.84V744.25c0-6.5 8-11.73 17.89-11.73h5.3v-72.74H33c-9.9 0-17.89-5.24-17.89-11.74V234.27c0-6.5 8-11.84 17.89-11.84h5.3v-83.11l115.8-76.08h-1.28C152.82 54.85 163.2 48 176 48h877c12.78 0 23.16 6.81 23.16 15.2h-1l130 109.57v49.62h5.27c3.84-.043 7.636.82 11.08 2.52 4.23 2.17 7 5.56 7 9.32V648c0 3.76-2.74 7.12-7 9.24-3.447 1.688-7.242 2.544-11.08 2.5l-5.24.04z"/>
        <g opacity=".75" style="mix-blend-mode:multiply" fill="#F74B5B">
            <path d="M1055.91 6c0 3-3.73 5.46-8.33 5.46s-8.32-2.44-8.32-5.46 3.73-5.46 8.32-5.46 8.33 2.46 8.33 5.46zM266.16 6c0 3-3.73 5.46-8.33 5.46S249.51 9 249.51 6s3.73-5.46 8.32-5.46S266.16 3 266.16 6z" transform="translate(8 8)"/>
            <path d="M257.83 4.66H1048.6399999999999V7.28H257.83z" transform="translate(8 8)"/>
            <path d="M569.72 2.69H735.69V9.57H569.72zM1076.77 63.78H153.31c0-8.41 10.4-15.24 23.23-15.24h877c12.83 0 23.23 6.83 23.23 15.24zM1205.79 660.34V223h8.67c8.03.011 14.534 6.52 14.54 14.55v408.23c0 8.041-6.519 14.56-14.56 14.56h-8.65zM1205.79 1170.39V733h8.67c3.865.005 7.57 1.547 10.297 4.286 2.727 2.738 4.254 6.449 4.243 10.314v408.23c0 8.041-6.519 14.56-14.56 14.56h-8.65zM894.05 1406H350.61c-24.8 0-44.92-13.2-44.92-29.48H939c0 16.27-20.14 29.48-44.95 29.48zM1085.08 1385.07L974.39 1385.07 974.39 1379.83 1081.77 1379.83 1245.38 1272.47 1251.03 1276.18zM277.15 1385.07L166.45 1385.07 165.28 1384.3.51 1276.18 6.16 1272.47 169.76 1379.83 277.15 1379.83zM71.75 242.15L38.9 223.82V223h-5.25c-9.93 0-18 5.28-18 11.79v413.75c0 6.52 8 11.8 18 11.8h.47l.67 72.7h-4.55c-3.863-.003-7.57 1.53-10.302 4.261-2.733 2.73-4.268 6.436-4.268 10.299v408.23c0 3.863 1.535 7.568 4.268 10.299 2.733 2.73 6.439 4.264 10.302 4.261h8.66v-.09l32.85-25V242.15zM102.71 1071.79c-6.29 0-11.39-3.35-11.39-7.48 0-4.13 5.1-7.47 11.39-7.47 6.29 0 11.4 3.34 11.4 7.47s-5.11 7.48-11.4 7.48zM102.71 282.1c-6.29 0-11.39-3.34-11.39-7.47s5.1-7.48 11.39-7.48c6.29 0 11.4 3.35 11.4 7.48 0 4.13-5.11 7.47-11.4 7.47z" transform="translate(8 8)"/>
            <path d="M99.98 274.63H105.45V1065.27H99.98z" transform="translate(8 8)"/>
            <path d="M95.19 554.82H109.55V784.11H95.19z" transform="translate(8 8)"/>
        </g>
        <path fill="#FFF" d="M1055.4 5.46c0 3-3.73 5.46-8.32 5.46s-8.33-2.44-8.33-5.46 3.73-5.46 8.33-5.46 8.32 2.45 8.32 5.46zM265.65 5.46c0 3-3.73 5.46-8.32 5.46S249 8.48 249 5.46 252.73 0 257.33 0s8.32 2.45 8.32 5.46z"/>
        <path fill="#FFC2BB" d="M257.33 4.15H1048.1399999999999V6.7700000000000005H257.33z"/>
        <path fill="#FFF" d="M569.22 2.18H735.19V9.06H569.22z"/>
        <path fill="url(#prefix__a)" d="M1076.26 63.28H152.8C152.8 54.86 163.2 48 176 48h877c12.83 0 23.23 6.83 23.23 15.25l.03.03z"/>
        <path fill="url(#prefix__b)" d="M1205.28 659.83V222.48h8.72c8.006.027 14.488 6.514 14.51 14.52v408.27c0 8.022-6.488 14.532-14.51 14.56h-8.72z"/>
        <path fill="url(#prefix__c)" d="M1205.28 1169.89V732.53h8.72c8.041 0 14.56 6.519 14.56 14.56v408.23c.003 3.863-1.53 7.57-4.261 10.302-2.73 2.733-6.436 4.268-10.299 4.268h-8.72z"/>
        <path fill="#FFC2BB" d="M893.55 1405.48H350.11c-24.81 0-44.92-13.2-44.92-29.48h633.28c0 16.28-20.11 29.48-44.92 29.48zM1084.57 1384.56L973.88 1384.56 973.88 1379.33 1081.27 1379.33 1244.87 1271.96 1250.52 1275.67zM276.64 1384.56L165.95 1384.56 164.78 1383.8 0 1275.67 5.65 1271.96 169.25 1379.33 276.64 1379.33z"/>
        <path fill="url(#prefix__d)" d="M71.25 241.64L38.4 223.31v-.83h-5.25c-9.93 0-18 5.28-18 11.8V648c0 6.51 8 11.79 18 11.79h.46l.67 72.7h-4.55c-8.041 0-14.56 6.519-14.56 14.56v408.23c-.003 3.863 1.53 7.57 4.261 10.302 2.73 2.733 6.436 4.268 10.299 4.268h8.67v-.1l32.85-25V241.64z"/>
        <path fill="#FFF" d="M102.21 1071.29c-6.3 0-11.4-3.35-11.4-7.48 0-4.13 5.1-7.48 11.4-7.48 6.3 0 11.39 3.35 11.39 7.48 0 4.13-5.1 7.48-11.39 7.48zM102.21 281.6c-6.3 0-11.4-3.35-11.4-7.48 0-4.13 5.1-7.48 11.4-7.48 6.3 0 11.39 3.35 11.39 7.48 0 4.13-5.1 7.48-11.39 7.48z"/>
        <path fill="#FFF" d="M99.47 274.12H104.94V1064.76H99.47z"/>
        <path fill="#FFF" d="M94.68 554.32H109.04V783.61H94.68z"/>
    </g>
</svg>
