<svg width="406px" height="105px" viewBox="0 0 406 105" version="1.1" xmlns="http://www.w3.org/2000/svg" xmlns:xlink="http://www.w3.org/1999/xlink">
    <g id="Symbols" stroke="none" stroke-width="1" fill="none" fill-rule="evenodd">
        <g id="img/intro/frame/小標">
            <g id="frame">
                <polygon id="Rectangle" fill-opacity="0.6" fill="#FFFFFF" points="83 5 400 5 400.3852 75.6524 371.249142 100 83 100"></polygon>
                <path d="M39.0672,-0.0006 L0.0002,26.7444 L0.0002,104.9074 L77.9192,104.9074 L82.9192,104.9074 L372.3012,104.9074 L405.3862,78.0334 L405.3862,-0.0006 L39.0672,-0.0006 Z M82.9192,4.9994 L371.4132,4.9994 L371.4132,10.7434 L394.6422,10.7434 L394.6422,33.9714 L400.3852,33.9714 L400.3852,75.6524 L370.5252,99.9064 L82.9192,99.9064 L82.9192,4.9994 Z" id="Fill-1" fill="#C10021"></path>
                <polygon id="Fill-2" fill="#C10021" points="393.142 70.934 396.142 70.934 396.142 41.455 393.142 41.455"></polygon>
                <path d="M41.46,57.8211 C36.285,57.8211 32.091,53.6271 32.091,48.4531 C32.091,43.2791 36.285,39.0841 41.46,39.0841 C46.634,39.0841 50.828,43.2791 50.828,48.4531 C50.828,53.6271 46.634,57.8211 41.46,57.8211 M62.806,53.1521 C62.806,41.3631 53.249,31.8051 41.46,31.8051 C29.67,31.8051 20.113,41.3631 20.113,53.1521 C20.113,60.1311 23.463,66.3271 28.641,70.2221 L28.642,70.2221 C29.204,70.6451 29.787,71.0411 30.39,71.4071 C36.268,75.5361 41.46,80.5851 41.46,80.5851 C41.46,80.5851 46.651,75.5361 52.529,71.4071 C53.133,71.0411 53.716,70.6451 54.277,70.2221 L54.278,70.2221 C59.457,66.3271 62.806,60.1311 62.806,53.1521" id="Fill-3" fill="#FFFFFF"></path>
            </g>
        </g>
    </g>
</svg>