<svg xmlns="http://www.w3.org/2000/svg" xmlns:xlink="http://www.w3.org/1999/xlink" width="533" height="106" viewBox="0 0 533 106">
    <defs>
        <path id="prefix__a" d="M0 105L532.749 105 532.749 0.093 0 0.093z"/>
    </defs>
    <g fill="none" fill-rule="evenodd">
        <path fill="#C10021" d="M77.92 1v104.907h421.744l33.084-26.874V1H77.92zm5 5h444.83v70.652l-29.86 24.254H82.92V6z"/>
        <path fill="#C10021" d="M39.841 3.5L2.5 29.063 2.5 103.407 80.419 103.407 80.419 3.5z"/>
        <path fill="#C10021" d="M39.067 1L0 27.743v78.163h82.92V1H39.066zM5 30.38L40.614 6H77.92v94.907H5V30.381z"/>
        <g transform="translate(0 .907)">
            <path fill="#1A1A1A" d="M150.402 30.1v38.212c0 3.103-.582 4.655-2.377 5.577-1.697.97-4.461 1.163-8.34 1.163-.243-1.6-.922-4.17-1.697-5.77 2.473.048 4.994.048 5.77.048.776 0 1.116-.242 1.116-1.066V30.1h5.528zm-14.306 31.908h5.432v-27.06h-5.432v27.06zm-16.73 7.274h8.972V65.84h-8.971v3.442zm7.225-29.095c-1.551-.97-3.151-1.988-4.606-2.91-1.02.969-2.085 1.988-3.152 2.91h7.758zm-10.62 8.97V51.05h11.009v-1.891h-11.008zm11.009 7.274v-1.987h-11.105c0 .63-.048 1.308-.097 1.987h11.202zm-10.038-12.85V41.69c-1.697 1.26-3.394 2.473-5.188 3.49h20.463v15.228H115.39c-.097.485-.145 1.018-.242 1.504h18.233v12.947h-5.043v-1.31h-8.971v1.503h-4.801V65.015c-.68 3.055-1.697 6.013-3.103 8.485-1.116-.726-3.638-1.794-5.044-2.23 3.83-6.158 4.219-14.84 4.219-20.512V45.86l-1.116.582c-.533-1.358-2.036-4.267-3.006-5.53 5.625-2.374 11.299-6.351 14.403-11.005l5.285 2.085c-.291.436-.582.824-.873 1.212 3.589 2.084 7.613 4.46 9.844 6.06l-2.958 4.85c-1.31-1.067-3.201-2.327-5.286-3.685v3.152h-9.99zM205.348 51.242h-4.51v23.81h-5.625v-23.81h-4.51v.582c0 7.13-.63 17.118-4.751 23.325-.97-1.018-3.25-2.86-4.462-3.443.92-1.406 1.649-3.007 2.182-4.703l-3.443 2.133c-.776-1.94-2.424-5.043-3.782-7.274l3.782-2.037c1.309 1.94 2.812 4.51 3.638 6.353 1.357-4.656 1.502-9.893 1.502-14.354V34.56c5.286-.969 11.154-2.472 14.694-4.12l4.412 4.218c-3.976 1.6-9.02 2.764-13.772 3.637v7.613h14.645v5.334zM168.446 39.46c.727 1.6 1.357 3.685 1.6 5.043l-3.492.97h6.983c.728-1.746 1.6-4.219 2.085-6.013h-7.176zm6.982 19.348v16.1h-5.576v-16.1h-9.02v-4.849h9.02v-3.735h-9.311v-4.752h4.704c-.243-1.455-.825-3.54-1.406-5.042l3.976-.97h-6.546v-4.704h8.292c-.437-1.31-.97-2.667-1.455-3.83l5.77-1.408c.728 1.601 1.6 3.59 2.183 5.238h6.935v4.704h-6.062l3.928.775c-.728 1.843-1.455 3.735-2.183 5.237h5.044v4.752h-8.293v3.735h7.517v4.85h-7.517zm-6.788 2.813c-1.213 3.491-3.201 7.468-4.898 9.94-.873-.727-2.716-1.988-3.783-2.618 1.649-2.279 3.249-5.577 4.268-8.583l4.413 1.261z"/>
            <mask id="prefix__b" fill="#fff">
                <use xlink:href="#prefix__a"/>
            </mask>
            <path fill="#1A1A1A" d="M231.394 65.306h9.407v-3.88h-9.407v3.88zm8.341-19.98c.969-1.843 1.988-4.073 2.521-5.867h-12.221c.873 1.6 1.892 3.491 2.425 4.752l-3.103 1.115h10.378zm-17.264 9.069c4.51-.777 6.062-2.085 6.644-4.414h-6.644v4.414zm35.303-14.936h-14.208l4.557.921c-.969 1.746-2.036 3.443-3.006 4.946h10.426v24.537c0 2.571-.631 3.686-2.425 4.365-1.746.678-4.364.727-8.244.727-.242-1.261-.873-3.055-1.551-4.219 2.328.097 5.091.097 5.819.049.775 0 1.066-.243 1.066-.97V49.981h-7.515v1.261c0 .922.096 1.359.921 1.359h2.376c.727 0 2.182-.098 2.812-.291.049 1.308.146 2.521.34 3.831-.679.242-1.988.338-3.055.338h-3.88c-3.927 0-4.606-1.842-4.606-5.285v-1.213h-3.443c-.583 3.589-2.085 5.916-6.304 7.468h17.554v11.832h-14.014v1.989h-4.801V57.886c-.582.145-1.164.291-1.843.436-.34-1.066-1.357-2.667-2.279-3.588v20.367h-5.528V45.326h9.989c-.533-1.455-1.454-3.346-2.231-4.848l3.202-1.019h-13.24v-4.85h19.107c-.291-1.26-.728-2.521-1.115-3.636l5.576-1.407c.582 1.552 1.26 3.444 1.697 5.043h17.846v4.85zM294.972 39.605c1.067 1.503 2.425 2.909 4.025 4.122 1.309-1.164 2.376-2.57 3.201-4.122h-7.226zm15.906 17.36s-.097 1.502-.194 2.181c-.776 8.39-1.649 12.123-3.055 13.675-1.067 1.115-2.086 1.505-3.54 1.698-1.213.145-3.201.194-5.431.097-.049-1.6-.679-3.88-1.552-5.335 1.746.194 3.394.243 4.171.243.678 0 1.066-.097 1.551-.534.679-.63 1.309-2.715 1.843-7.224h-5.626c-1.648 5.77-5.091 10.474-12.753 13.48-.631-1.358-2.133-3.394-3.345-4.46 5.818-2.135 8.63-5.239 10.134-9.02h-5.868v-4.801h7.08c.242-1.407.388-2.813.486-4.317h5.77c-.145 1.455-.291 2.91-.485 4.316h10.814zm-2.279-17.36c-1.261 2.764-2.861 5.092-4.85 7.08 2.667 1.26 5.674 2.23 8.923 2.86-1.261 1.163-2.861 3.444-3.637 4.898-3.685-.921-6.983-2.377-9.892-4.17-2.861 1.745-6.207 3.054-9.893 4.072-.291-.532-.776-1.26-1.358-2.035-.679 3.005-1.503 5.915-2.376 8.097l-3.879-1.793c.533-1.794 1.115-4.22 1.552-6.694h-2.571v17.07c0 2.62-.387 4.172-2.084 5.044-1.65.921-3.832 1.017-6.838 1.017-.146-1.599-.921-3.927-1.649-5.478 1.794.049 3.734.049 4.364.049.582-.05.777-.147.777-.728V58.516c-1.697 3.589-3.735 6.837-6.062 8.971-.485-1.648-1.746-4.024-2.619-5.575 2.667-2.377 5.189-6.16 6.886-9.992h-6.062v-5.043h11.106c-2.716-1.648-6.353-3.49-9.36-4.703l3.637-3.684c1.164.435 2.522.968 3.831 1.551 1.067-.921 2.134-1.988 3.055-3.055h-11.638v-4.85h15.663l.873-.194 3.685 2.328c-1.649 2.715-4.364 5.673-7.079 8.002 1.406.727 2.618 1.455 3.54 2.134l-2.377 2.471h2.328l.775-.242 3.493 1.165-.195 1.116c2.134-.582 4.17-1.31 5.916-2.231-1.26-1.214-2.425-2.57-3.443-4.026-.727.776-1.454 1.456-2.182 2.086-1.115-.921-3.345-2.473-4.704-3.25 3.782-2.714 7.371-7.078 9.263-11.54l5.382 1.455c-.533 1.164-1.115 2.278-1.794 3.393h14.305v4.802h-2.812zM357.193 45.229h2.57V42.95h-2.57v2.279zm0-5.77h2.57v-2.23h-2.57v2.23zm-5.819 5.77h2.327V42.95h-2.327v2.279zm0-5.77h2.327v-2.23h-2.327v2.23zm-2.473 26.38c.582 1.454 1.213 3.103 1.648 4.461h3.929c.582-1.455 1.212-3.104 1.599-4.461h-7.176zm-1.601-3.443h10.523v-2.521H347.3v2.521zm-1.891-17.167h2.473V42.95h-2.473v2.279zm0-5.77h2.473v-2.23h-2.473v2.23zm18.816 9.553h-23.083V33.445h5.723v-3.442h4.46v3.442h2.134v-3.442h4.51v3.442h6.256v15.567zm-23.81 5.77h24.731V50.66h-24.731v4.122zM365.533 70.3v4.171H339.93V70.3h5.722c-.388-1.212-.873-2.473-1.31-3.54l3.056-.921h-5.141v-9.456h20.901v9.456h-5.529l3.735 1.018c-.777 1.212-1.456 2.376-2.134 3.443h6.303zm-33.798-25.021h1.794v-4.511h-1.794v4.511zm-4.074 12.316l1.649-1.649c1.406.921 2.958 1.989 4.025 2.909v-4.024h-5.674v2.764zm0 2.716c0 1.406-.048 2.861-.145 4.46 1.648-.678 3.637-1.648 5.819-2.714v-2.134l-1.94 2.134c-.824-.826-2.327-2.134-3.734-3.202v1.456zm-.727-15.033h1.89V37.52h4.705v-1.989h-6.595v9.747zm-2.133 5.818h11.104v-1.939h-11.104v1.939zm13.286 1.65v17.506c0 2.085-.34 3.248-1.697 3.976-1.261.727-3.055.776-5.625.776-.146-1.213-.728-3.056-1.31-4.219 1.358.048 2.813.048 3.249.048.486 0 .631-.193.631-.63V65.79c-1.6 1.067-3.152 2.085-4.704 3.007l-1.261-2.716c-.387 3.298-1.212 6.789-2.91 9.311-.824-.825-2.958-2.28-4.024-2.764 2.376-3.638 2.57-8.583 2.57-12.414v-7.42h-2.425v-7.516h1.891V31.457h15.761v13.821h2.036v7.468h-2.182zM409.861 55.704h3.056v-4.559h-3.056v4.559zm-3.734 3.637h10.765V47.557h-10.765v11.784zm8.243 1.6c-.338 1.94-.775 3.83-1.357 5.625 2.036 1.358 4.364 3.055 5.625 4.267l-3.346 3.929c-.922-1.019-2.57-2.377-4.218-3.638-.826 1.552-1.795 3.007-2.862 4.171-.824-.873-2.958-2.474-4.171-3.201 2.814-2.764 4.462-7.177 5.19-12.026l5.139.873zm-3.54-20.318c-1.89-1.406-3.733-2.861-5.382-4.365-1.358 1.552-2.958 3.007-4.656 4.365h10.038zm-12.898 15.081h2.667v-4.559h-2.667v4.559zm-3.734 3.637h10.378V47.557h-10.378v11.784zm-10.377 1.357c.582 2.522 1.212 5.723 1.406 7.808l-2.425.484c-.145-2.133-.728-5.43-1.31-7.904l2.329-.388zm-3.637-6.594h3.006v-3.055h-3.006v3.055zm0-7.274h3.006v-2.861h-3.006v2.861zm0-7.129h3.006v-3.2h-3.006v3.2zm.824 21.53c.242 2.765.388 6.402.388 8.827l-2.522.291c.097-2.425-.049-6.111-.242-8.923l2.376-.195zm21.239-.096c-.291 1.261-.63 2.521-1.018 3.734 1.746 1.067 3.589 2.473 4.558 3.54l-2.812 3.734c-.776-.825-2.085-1.989-3.443-3.007-1.164 2.425-2.57 4.51-4.17 6.159-.728-.824-2.522-2.279-3.637-3.104-.146.485-.291.825-.485 1.067-.728 1.067-1.552 1.455-2.667 1.6-.97.194-2.473.243-4.025.194-.049-1.309-.534-3.104-1.115-4.267 1.212.146 2.23.146 2.715.146.533 0 .873-.049 1.213-.535.291-.484.484-1.648.678-4.169l-1.697.63c-.34-1.697-1.164-4.316-1.939-6.255l2.036-.679c.631 1.406 1.26 3.2 1.697 4.703.098-1.552.146-3.491.242-5.818h-12.656V31.797H392.5v4.704h-4.946v3.2h4.171v1.115c5.14-2.861 9.844-7.273 12.414-11.492l5.14 1.794c-.291.533-.63 1.019-.97 1.503 2.91 2.57 7.129 5.141 10.862 6.547-.824 1.31-1.794 3.831-2.134 5.285-1.503-.775-3.005-1.648-4.509-2.667v3.201h-14.257v-2.425c-1.115.728-2.231 1.407-3.346 2.085-.679-.92-2.134-2.472-3.2-3.345v2.667h-4.171v2.861h4.316v4.219h-4.316v3.055h5.383s0 1.26-.049 1.842c-.242 9.02-.484 13.675-1.066 15.906 2.861-2.716 4.704-6.935 5.577-11.541l4.848.824zm-28.998 9.747c.921-2.813 1.649-7.274 1.989-10.475l2.86 1.019c-.291 3.2-.921 7.807-1.745 10.522l-3.104-1.066zM458.164 61.813h3.928v-5.285h-3.928v5.285zm-4.752 3.88h13.675V52.648h-13.675v13.045zm-5.189-18.96h7.953v-3.977h-7.953v3.977zm-5.382 3.782h19.057V38.974h-19.057v11.541zm-.291 11.298h3.782v-5.285h-3.782v5.285zm-4.655 3.88h13.384V52.648h-13.384v13.045zm24.1 2.522c3.055 0 6.935-.242 8.923-.631.194 1.406.533 4.025.824 5.383-1.842.485-6.159.533-10.038.533h-19.106c-8.534 0-12.56-2.618-12.56-11.541V36.743h-1.939v-5.092h41.219v5.092h-33.606v25.605c0 4.218 1.406 5.867 6.402 5.867h19.881z" mask="url(#prefix__b)"/>
            <path fill="#C10021" d="M2.499 102.5L10.744 102.5 10.744 71.027 2.499 71.027z" mask="url(#prefix__b)"/>
            <path fill="#C10021" d="M2.499 102.5L33.972 102.5 33.972 94.256 2.499 94.256zM522.005 34.064L530.249 34.064 530.249 2.592 522.005 2.592z" mask="url(#prefix__b)"/>
            <path fill="#C10021" d="M498.777 10.837L530.25 10.837 530.25 2.593 498.777 2.593z" mask="url(#prefix__b)"/>
            <path fill="#FFF" d="M10.744 34.065L10.744 62.575" mask="url(#prefix__b)"/>
            <path fill="#C10021" d="M9.244 62.574L12.244 62.574 12.244 34.064 9.244 34.064z" mask="url(#prefix__b)"/>
            <path fill="#FFF" d="M522.005 41.548L522.005 71.027" mask="url(#prefix__b)"/>
            <path fill="#C10021" d="M520.505 71.027L523.505 71.027 523.505 41.548 520.505 41.548z" mask="url(#prefix__b)"/>
            <path fill="#FFF" d="M41.46 57.914c-5.175 0-9.369-4.194-9.369-9.368s4.194-9.369 9.368-9.369c5.175 0 9.37 4.195 9.37 9.37 0 5.173-4.195 9.367-9.37 9.367m21.347-4.669c0-11.789-9.557-21.347-21.347-21.347-11.789 0-21.346 9.558-21.346 21.347 0 6.98 3.35 13.175 8.528 17.07h.001c.561.423 1.144.82 1.748 1.185 5.878 4.13 11.07 9.178 11.07 9.178S46.65 75.63 52.53 71.5c.602-.366 1.185-.762 1.747-1.185h.001c5.178-3.895 8.528-10.09 8.528-17.07" mask="url(#prefix__b)"/>
        </g>
    </g>
</svg>
