<svg xmlns="http://www.w3.org/2000/svg" xmlns:xlink="http://www.w3.org/1999/xlink" width="241" height="196" viewBox="0 0 241 196">
    <defs>
        <path id="prefix__a" d="M0 0.33L181.818 0.33 181.818 87.72 0 87.72z"/>
        <path id="prefix__c" d="M.457 44.719V57c1.219-.361 133.609-42.54 143.361-45.215V.435C136.829 2.366 1.675 44.359.457 44.719"/>
        <path id="prefix__f" d="M0 13.131L38.457 56 38.457 43.55 0 0.621z"/>
        <path id="prefix__i" d="M.808 3.076v3.79c1.219-.36 3.171-1.213 12.923-3.888V.116C6.743 2.048 2.027 2.714.808 3.076"/>
        <path id="prefix__l" d="M3.234 1.661c-1.185-.075-2.01-.149-2.426-.026v45.231c1.219-.36 3.171-.7 12.923-3.375V.676c-4.6 1.272-8.215 1.128-10.497.985"/>
        <path id="prefix__o" d="M0.71 0.338L0.71 40.177 13.579 37.615 13.579 0.19z"/>
        <path id="prefix__r" d="M11.472.89L.351 2.536 34.949 38.29c1.218-.361 6.492-.629 13.481-2.561L11.479.89h-.007z"/>
        <path id="prefix__u" d="M0.351 2.682L0.351 39.886 3.332 43.304 0.351 39.976 0.351 43.998 38.808 86.866 38.808 82.904 6.71 47.075 6.71 9.413 34.949 39.306 34.949 78.585 38.808 82.904 38.808 41.635 34.949 36.29 6.71 7.107 6.71 6.957 0.351 0.536z"/>
        <path id="prefix__x" d="M.949 3.29s4.856 11.478 13.643 9.601c0 0 7.259-2.62-.162-12.162L.949 3.29z"/>
        <path id="prefix__A" d="M2.64.777C1.184 1.01.154 2.148.341 3.318.53 4.488 1.863 5.246 3.32 5.012c1.457-.234 2.486-1.371 2.298-2.541C5.454 1.444 4.407.734 3.169.734c-.173 0-.35.014-.529.043"/>
        <path id="prefix__D" d="M.938 3.01v3.793c1.218-.362 3.17-1.214 12.923-3.888V.052C6.873 1.984 2.155 2.65.938 3.01"/>
        <path id="prefix__G" d="M3.36 1.596C2.177 1.522 1.353 1.448.938 1.57v45.233c1.218-.362 3.17-.701 12.923-3.375V.611C9.259 1.884 5.642 1.74 3.36 1.596"/>
        <path id="prefix__J" d="M0.839 0.274L0.839 40.112 13.709 37.551 13.709 0.126z"/>
        <path id="prefix__M" d="M.48 2.471l34.598 35.755c1.218-.361 6.492-.628 13.481-2.561L11.606.826.48 2.471z"/>
        <path id="prefix__P" d="M0.48 2.618L0.48 39.822 3.46 43.24 0.48 39.912 0.48 43.933 38.938 86.803 38.938 82.841 6.839 47.01 6.839 9.349 35.078 39.242 35.078 78.52 38.938 82.841 38.938 41.57 35.078 36.226 6.839 7.043 6.839 6.893 0.48 0.471z"/>
        <path id="prefix__S" d="M.078 3.226s4.857 11.477 13.642 9.6c0 0 7.26-2.619-.161-12.161L.078 3.226z"/>
        <path id="prefix__V" d="M2.77.712C1.312.947.283 2.084.472 3.254c.187 1.169 1.52 1.928 2.977 1.694 1.457-.234 2.487-1.372 2.299-2.542C5.582 1.38 4.535.67 3.295.67c-.172 0-.348.013-.525.042"/>
        <path id="prefix__Y" d="M.308 3.566v3.792c1.218-.361 3.171-1.213 12.924-3.888V.607C6.244 2.54 1.526 3.206.308 3.566"/>
        <path id="prefix__ab" d="M2.733 1.152C1.549 1.077.724 1.003.308 1.126v45.232c1.218-.361 3.171-1.213 12.924-3.888V.167c-4.6 1.272-8.218 1.128-10.499.985"/>
        <path id="prefix__ae" d="M0.21 0.829L0.21 40.668 13.08 38.107 13.08 0.682z"/>
        <path id="prefix__ah" d="M.851 2.027l34.598 35.755c1.218-.361 6.492-.628 13.48-2.562L11.977.382.851 2.027z"/>
        <path id="prefix__ak" d="M0.851 2.174L0.851 39.378 3.832 42.795 0.851 39.468 0.851 43.489 39.308 86.358 39.308 82.396 7.21 46.566 7.21 8.904 35.449 38.797 35.449 78.076 39.308 82.396 39.308 41.126 35.449 35.782 7.21 6.598 7.21 6.448 0.851 0.027z"/>
        <path id="prefix__an" d="M.449 2.782s4.856 11.477 13.642 9.6c0 0 7.261-2.619-.162-12.162L.449 2.782z"/>
        <path id="prefix__aq" d="M3.14.268C1.683.502.654 1.639.842 2.809c.188 1.17 1.521 1.928 2.978 1.694 1.457-.234 2.487-1.371 2.298-2.541C5.953.935 4.906.226 3.666.226c-.172 0-.348.013-.526.042"/>
        <linearGradient id="prefix__d" x1="0%" x2="100%" y1="49.999%" y2="49.999%">
            <stop offset="0%" stop-color="#646664"/>
            <stop offset="100%" stop-color="#4D4D4D"/>
        </linearGradient>
        <linearGradient id="prefix__g" x1="0%" x2="100%" y1="50%" y2="50%">
            <stop offset="0%" stop-color="gray"/>
            <stop offset="100%" stop-color="#666"/>
        </linearGradient>
        <linearGradient id="prefix__j" x1=".001%" x2="100.006%" y1="50.007%" y2="50.007%">
            <stop offset="0%" stop-color="#646664"/>
            <stop offset="100%" stop-color="#4D4D4D"/>
        </linearGradient>
        <linearGradient id="prefix__m" x1=".001%" x2="100.006%" y1="50%" y2="50%">
            <stop offset="0%" stop-color="#646664"/>
            <stop offset="100%" stop-color="#4D4D4D"/>
        </linearGradient>
        <linearGradient id="prefix__p" x1="-.001%" x2="100.005%" y1="50%" y2="50%">
            <stop offset="0%" stop-color="#646664"/>
            <stop offset="100%" stop-color="#4D4D4D"/>
        </linearGradient>
        <linearGradient id="prefix__s" x1="0%" x2="99.999%" y1="50%" y2="50%">
            <stop offset="0%" stop-color="#646664"/>
            <stop offset="100%" stop-color="#4D4D4D"/>
        </linearGradient>
        <linearGradient id="prefix__v" x1="50.307%" x2="49.771%" y1="-.381%" y2="87.613%">
            <stop offset="0%" stop-color="#646664"/>
            <stop offset="100%" stop-color="#333"/>
        </linearGradient>
        <linearGradient id="prefix__y" x1="-.002%" x2="99.998%" y1="50.001%" y2="50.001%">
            <stop offset="0%" stop-color="#979797"/>
            <stop offset="100%" stop-color="#E4E4E4"/>
        </linearGradient>
        <linearGradient id="prefix__B" x1=".428%" x2="99.589%" y1="59.804%" y2="40.198%">
            <stop offset="0%" stop-color="#F0233D"/>
            <stop offset="100%" stop-color="#FF7979"/>
        </linearGradient>
        <linearGradient id="prefix__E" x1="-.005%" x2="99.999%" y1="49.998%" y2="49.998%">
            <stop offset="0%" stop-color="#646664"/>
            <stop offset="100%" stop-color="#4D4D4D"/>
        </linearGradient>
        <linearGradient id="prefix__H" x1="-.005%" x2="99.999%" y1="50%" y2="50%">
            <stop offset="0%" stop-color="#646664"/>
            <stop offset="100%" stop-color="#4D4D4D"/>
        </linearGradient>
        <linearGradient id="prefix__K" x1=".001%" x2="99.999%" y1="50.001%" y2="50.001%">
            <stop offset="0%" stop-color="#646664"/>
            <stop offset="100%" stop-color="#4D4D4D"/>
        </linearGradient>
        <linearGradient id="prefix__N" x1=".001%" x2="99.999%" y1="50%" y2="50%">
            <stop offset="0%" stop-color="#646664"/>
            <stop offset="100%" stop-color="#4D4D4D"/>
        </linearGradient>
        <linearGradient id="prefix__Q" x1="50.306%" x2="49.771%" y1="-.38%" y2="87.612%">
            <stop offset="0%" stop-color="#646664"/>
            <stop offset="100%" stop-color="#333"/>
        </linearGradient>
        <linearGradient id="prefix__T" x1="-.001%" x2="100%" y1="50.004%" y2="50.004%">
            <stop offset="0%" stop-color="#979797"/>
            <stop offset="100%" stop-color="#E4E4E4"/>
        </linearGradient>
        <linearGradient id="prefix__W" x1=".403%" x2="99.574%" y1="59.801%" y2="40.196%">
            <stop offset="0%" stop-color="#F0233D"/>
            <stop offset="100%" stop-color="#FF7979"/>
        </linearGradient>
        <linearGradient id="prefix__Z" x1=".003%" x2="99.999%" y1="50.006%" y2="50.006%">
            <stop offset="0%" stop-color="#646664"/>
            <stop offset="100%" stop-color="#4D4D4D"/>
        </linearGradient>
        <linearGradient id="prefix__ac" x1=".003%" x2="99.999%" y1="50%" y2="50%">
            <stop offset="0%" stop-color="#646664"/>
            <stop offset="100%" stop-color="#4D4D4D"/>
        </linearGradient>
        <linearGradient id="prefix__af" x1=".001%" x2="99.999%" y1="49.999%" y2="49.999%">
            <stop offset="0%" stop-color="#646664"/>
            <stop offset="100%" stop-color="#4D4D4D"/>
        </linearGradient>
        <linearGradient id="prefix__ai" x1=".001%" x2="100.001%" y1="49.999%" y2="49.999%">
            <stop offset="0%" stop-color="#646664"/>
            <stop offset="100%" stop-color="#4D4D4D"/>
        </linearGradient>
        <linearGradient id="prefix__al" x1="50.001%" x2="50.001%" y1="-4.298%" y2="72.725%">
            <stop offset="0%" stop-color="#646664"/>
            <stop offset="100%" stop-color="#333"/>
        </linearGradient>
        <linearGradient id="prefix__ao" x1="-.001%" x2="99.999%" y1="50.005%" y2="50.005%">
            <stop offset="0%" stop-color="#979797"/>
            <stop offset="100%" stop-color="#E4E4E4"/>
        </linearGradient>
        <linearGradient id="prefix__ar" x1=".417%" x2="99.588%" y1="59.804%" y2="40.194%">
            <stop offset="0%" stop-color="#F0233D"/>
            <stop offset="100%" stop-color="#FF7979"/>
        </linearGradient>
    </defs>
    <g fill="none" fill-rule="evenodd">
        <g transform="translate(29 28) translate(0 38.11)">
            <mask id="prefix__b" fill="#fff">
                <use xlink:href="#prefix__a"/>
            </mask>
            <path fill="#B2B2B2" d="M0 44.621l38.462 43.1c1.218-.362 136.368-42.355 143.356-44.287L142.295.33 0 44.621z" mask="url(#prefix__b)"/>
        </g>
        <g transform="translate(29 28) translate(38 81.11)">
            <mask id="prefix__e" fill="#fff">
                <use xlink:href="#prefix__c"/>
            </mask>
            <path fill="url(#prefix__d)" d="M.457 44.719V57c1.219-.361 133.609-42.54 143.361-45.215V.435C136.829 2.366 1.675 44.359.457 44.719" mask="url(#prefix__e)"/>
        </g>
        <g transform="translate(29 28) translate(0 82.11)">
            <mask id="prefix__h" fill="#fff">
                <use xlink:href="#prefix__f"/>
            </mask>
            <path fill="url(#prefix__g)" d="M0 13.131L38.457 56 38.457 43.55 0 0.621z" mask="url(#prefix__h)"/>
        </g>
        <path fill="#1A1A1A" d="M126.351 42.087l38.462 43.099c1.218-.362 5.93-1.028 12.918-2.96l-38.128-42.1-13.252 1.96z" transform="translate(29 28)"/>
        <g transform="translate(29 28) translate(164 82.11)">
            <mask id="prefix__k" fill="#fff">
                <use xlink:href="#prefix__i"/>
            </mask>
            <path fill="url(#prefix__j)" d="M.808 3.076v3.79c1.219-.36 3.171-1.213 12.923-3.888V.116C6.743 2.048 2.027 2.714.808 3.076" mask="url(#prefix__k)"/>
        </g>
        <g transform="translate(29 28) translate(164 42.11)">
            <mask id="prefix__n" fill="#fff">
                <use xlink:href="#prefix__l"/>
            </mask>
            <path fill="url(#prefix__m)" d="M3.234 1.661c-1.185-.075-2.01-.149-2.426-.026v45.231c1.219-.36 3.171-.7 12.923-3.375V.676c-4.6 1.272-8.215 1.128-10.497.985" mask="url(#prefix__n)"/>
        </g>
        <g transform="translate(29 28) translate(132 9.11)">
            <mask id="prefix__q" fill="#fff">
                <use xlink:href="#prefix__o"/>
            </mask>
            <path fill="url(#prefix__p)" d="M0.71 0.338L0.71 40.177 13.579 37.615 13.579 0.19z" mask="url(#prefix__q)"/>
        </g>
        <g transform="translate(29 28) translate(126 .11)">
            <mask id="prefix__t" fill="#fff">
                <use xlink:href="#prefix__r"/>
            </mask>
            <path fill="url(#prefix__s)" d="M11.472.89L.351 2.536 34.949 38.29c1.218-.361 6.492-.629 13.481-2.561L11.479.89h-.007z" mask="url(#prefix__t)"/>
        </g>
        <g transform="translate(29 28) translate(126 2.11)">
            <mask id="prefix__w" fill="#fff">
                <use xlink:href="#prefix__u"/>
            </mask>
            <path fill="url(#prefix__v)" d="M0.351 2.682L0.351 39.886 3.332 43.304 0.351 39.976 0.351 43.998 38.808 86.866 38.808 82.904 6.71 47.075 6.71 9.413 34.949 39.306 34.949 78.585 38.808 82.904 38.808 41.635 34.949 36.29 6.71 7.107 6.71 6.957 0.351 0.536z" mask="url(#prefix__w)"/>
        </g>
        <g transform="translate(29 28) translate(160 35.11)">
            <mask id="prefix__z" fill="#fff">
                <use xlink:href="#prefix__x"/>
            </mask>
            <path fill="url(#prefix__y)" d="M.949 3.29s4.856 11.478 13.643 9.601c0 0 7.259-2.62-.162-12.162L.949 3.29z" mask="url(#prefix__z)"/>
        </g>
        <g transform="translate(29 28) translate(168 38.11)">
            <mask id="prefix__C" fill="#fff">
                <use xlink:href="#prefix__A"/>
            </mask>
            <path fill="url(#prefix__B)" d="M2.64.777C1.184 1.01.154 2.148.341 3.318.53 4.488 1.863 5.246 3.32 5.012c1.457-.234 2.486-1.371 2.298-2.541C5.454 1.444 4.407.734 3.169.734c-.173 0-.35.014-.529.043" mask="url(#prefix__C)"/>
        </g>
        <path fill="#1A1A1A" d="M82.48 53.022l38.462 43.1c1.218-.362 5.931-1.028 12.92-2.96l-38.129-42.1-13.253 1.96z" transform="translate(29 28)"/>
        <g transform="translate(29 28) translate(120 93.11)">
            <mask id="prefix__F" fill="#fff">
                <use xlink:href="#prefix__D"/>
            </mask>
            <path fill="url(#prefix__E)" d="M.938 3.01v3.793c1.218-.362 3.17-1.214 12.923-3.888V.052C6.873 1.984 2.155 2.65.938 3.01" mask="url(#prefix__F)"/>
        </g>
        <g transform="translate(29 28) translate(120 53.11)">
            <mask id="prefix__I" fill="#fff">
                <use xlink:href="#prefix__G"/>
            </mask>
            <path fill="url(#prefix__H)" d="M3.36 1.596C2.177 1.522 1.353 1.448.938 1.57v45.233c1.218-.362 3.17-.701 12.923-3.375V.611C9.259 1.884 5.642 1.74 3.36 1.596" mask="url(#prefix__I)"/>
        </g>
        <g transform="translate(29 28) translate(88 20.11)">
            <mask id="prefix__L" fill="#fff">
                <use xlink:href="#prefix__J"/>
            </mask>
            <path fill="url(#prefix__K)" d="M0.839 0.274L0.839 40.112 13.709 37.551 13.709 0.126z" mask="url(#prefix__L)"/>
        </g>
        <g transform="translate(29 28) translate(82 11.11)">
            <mask id="prefix__O" fill="#fff">
                <use xlink:href="#prefix__M"/>
            </mask>
            <path fill="url(#prefix__N)" d="M.48 2.471l34.598 35.755c1.218-.361 6.492-.628 13.481-2.561L11.606.826.48 2.471z" mask="url(#prefix__O)"/>
        </g>
        <g transform="translate(29 28) translate(82 13.11)">
            <mask id="prefix__R" fill="#fff">
                <use xlink:href="#prefix__P"/>
            </mask>
            <path fill="url(#prefix__Q)" d="M0.48 2.618L0.48 39.822 3.46 43.24 0.48 39.912 0.48 43.933 38.938 86.803 38.938 82.841 6.839 47.01 6.839 9.349 35.078 39.242 35.078 78.52 38.938 82.841 38.938 41.57 35.078 36.226 6.839 7.043 6.839 6.893 0.48 0.471z" mask="url(#prefix__R)"/>
        </g>
        <g transform="translate(29 28) translate(117 46.11)">
            <mask id="prefix__U" fill="#fff">
                <use xlink:href="#prefix__S"/>
            </mask>
            <path fill="url(#prefix__T)" d="M.078 3.226s4.857 11.477 13.642 9.6c0 0 7.26-2.619-.161-12.161L.078 3.226z" mask="url(#prefix__U)"/>
        </g>
        <g transform="translate(29 28) translate(124 49.11)">
            <mask id="prefix__X" fill="#fff">
                <use xlink:href="#prefix__V"/>
            </mask>
            <path fill="url(#prefix__W)" d="M2.77.712C1.312.947.283 2.084.472 3.254c.187 1.169 1.52 1.928 2.977 1.694 1.457-.234 2.487-1.372 2.299-2.542C5.582 1.38 4.535.67 3.295.67c-.172 0-.348.013-.525.042" mask="url(#prefix__X)"/>
        </g>
        <path fill="#1A1A1A" d="M37.851 64.578l38.462 43.099c1.218-.362 5.931-1.027 12.92-2.96l-38.13-42.1-13.252 1.96z" transform="translate(29 28)"/>
        <g transform="translate(29 28) translate(76 104.11)">
            <mask id="prefix__aa" fill="#fff">
                <use xlink:href="#prefix__Y"/>
            </mask>
            <path fill="url(#prefix__Z)" d="M.308 3.566v3.792c1.218-.361 3.171-1.213 12.924-3.888V.607C6.244 2.54 1.526 3.206.308 3.566" mask="url(#prefix__aa)"/>
        </g>
        <g transform="translate(29 28) translate(76 65.11)">
            <mask id="prefix__ad" fill="#fff">
                <use xlink:href="#prefix__ab"/>
            </mask>
            <path fill="url(#prefix__ac)" d="M2.733 1.152C1.549 1.077.724 1.003.308 1.126v45.232c1.218-.361 3.171-1.213 12.924-3.888V.167c-4.6 1.272-8.218 1.128-10.499.985" mask="url(#prefix__ad)"/>
        </g>
        <g transform="translate(29 28) translate(44 31.11)">
            <mask id="prefix__ag" fill="#fff">
                <use xlink:href="#prefix__ae"/>
            </mask>
            <path fill="url(#prefix__af)" d="M0.21 0.829L0.21 40.668 13.08 38.107 13.08 0.682z" mask="url(#prefix__ag)"/>
        </g>
        <g transform="translate(29 28) translate(37 23.11)">
            <mask id="prefix__aj" fill="#fff">
                <use xlink:href="#prefix__ah"/>
            </mask>
            <path fill="url(#prefix__ai)" d="M.851 2.027l34.598 35.755c1.218-.361 6.492-.628 13.48-2.562L11.977.382.851 2.027z" mask="url(#prefix__aj)"/>
        </g>
        <g transform="translate(29 28) translate(37 25.11)">
            <mask id="prefix__am" fill="#fff">
                <use xlink:href="#prefix__ak"/>
            </mask>
            <path fill="url(#prefix__al)" d="M0.851 2.174L0.851 39.378 3.832 42.795 0.851 39.468 0.851 43.489 39.308 86.358 39.308 82.396 7.21 46.566 7.21 8.904 35.449 38.797 35.449 78.076 39.308 82.396 39.308 41.126 35.449 35.782 7.21 6.598 7.21 6.448 0.851 0.027z" mask="url(#prefix__am)"/>
        </g>
        <g transform="translate(29 28) translate(72 58.11)">
            <mask id="prefix__ap" fill="#fff">
                <use xlink:href="#prefix__an"/>
            </mask>
            <path fill="url(#prefix__ao)" d="M.449 2.782s4.856 11.477 13.642 9.6c0 0 7.261-2.619-.162-12.162L.449 2.782z" mask="url(#prefix__ap)"/>
        </g>
        <g transform="translate(29 28) translate(79 61.11)">
            <mask id="prefix__as" fill="#fff">
                <use xlink:href="#prefix__aq"/>
            </mask>
            <path fill="url(#prefix__ar)" d="M3.14.268C1.683.502.654 1.639.842 2.809c.188 1.17 1.521 1.928 2.978 1.694 1.457-.234 2.487-1.371 2.298-2.541C5.953.935 4.906.226 3.666.226c-.172 0-.348.013-.526.042" mask="url(#prefix__as)"/>
        </g>
    </g>
</svg>
