<svg xmlns="http://www.w3.org/2000/svg" xmlns:xlink="http://www.w3.org/1999/xlink" width="533" height="106" viewBox="0 0 533 106">
    <defs>
        <path id="prefix__a" d="M0 105L532.749 105 532.749 0.093 0 0.093z"/>
    </defs>
    <g fill="none" fill-rule="evenodd">
        <path fill="#C10021" d="M77.92 1v104.907h421.744l33.084-26.874V1H77.92zm5 5h444.83v70.652l-29.86 24.254H82.92V6z"/>
        <path fill="#C10021" d="M39.841 3.5L2.5 29.063 2.5 103.407 80.419 103.407 80.419 3.5z"/>
        <path fill="#C10021" d="M39.067 1L0 27.743v78.163h82.92V1H39.066zM5 30.38L40.614 6H77.92v94.907H5V30.381z"/>
        <g transform="translate(0 .907)">
            <path fill="#1A1A1A" d="M139.441 43.823c.582 4.122 1.406 8.05 2.474 11.638 1.018-3.443 1.648-7.323 2.085-11.638h-4.559zm-17.069 9.795h3.88v-1.794h-3.88v1.794zm0-10.28h2.812v-1.745h-2.813v1.745zm0-5.238h2.813v-1.552h-2.813V38.1zm7.516 24.974c-.436 1.94-1.503 3.88-3.685 5.723 1.746.775 3.298 1.551 4.655 2.23 3.88-2.279 6.692-5.334 8.632-9.262-1.115-2.91-2.085-6.159-2.862-9.65-.533 1.261-1.163 2.474-1.842 3.54-.728-.873-2.473-2.716-3.54-3.54v4.995h-9.699c-.484.921-1.018 1.843-1.55 2.813l5.673-.29v-1.699h4.51v1.503l1.551-.096-.049 3.636-1.794.097zM116.7 65.062c1.6.533 3.25 1.115 4.848 1.746 1.794-1.067 2.813-2.279 3.395-3.443l-7.37.39-.873 1.307zm-1.31-21.724h2.618v-1.745h-2.618v1.745zm0-5.238h2.618v-1.552h-2.618V38.1zm-1.358 15.518h3.977v-1.794h-3.977v1.794zm34.818-9.795c-.776 7.128-2.037 13.19-4.17 18.281 1.891 3.686 4.412 6.644 7.661 8.583-1.115.825-2.52 2.668-3.249 3.93-2.909-1.94-5.14-4.51-7.03-7.663-2.183 3.442-5.045 6.256-8.682 8.583-.338-.824-1.308-2.376-2.18-3.49l-3.105 2.666c-1.649-1.068-3.83-2.23-6.256-3.346-3.2 1.454-7.564 2.715-13.578 3.588-.387-1.115-1.357-2.764-2.085-3.686 4.268-.582 7.614-1.308 10.233-2.18-2.183-.874-4.413-1.65-6.45-2.232.68-.776 1.455-1.746 2.133-2.812l-4.364.242-.436-3.83c2.133-.098 4.655-.196 7.467-.34.631-.97 1.213-2.037 1.698-3.007h-7.128v-8.777h8.68v-1.359h-7.37v-5.09h-3.686V37.81h3.685v-4.897h7.37v-2.958h4.365v2.958h7.807v4.897h3.298v4.075h-3.298v5.09h-7.807v1.36h8.874v3.54c3.201-5.19 4.8-13.434 5.674-21.775l4.85.631c-.34 2.715-.728 5.431-1.262 8.05h11.493v5.043h-3.152zM181.878 66.42c-.39-5.043-1.552-13.528-2.861-20.026l5.237-1.164c1.454 6.352 2.812 14.693 3.297 19.59l-5.673 1.6zm5.625-28.32c-.34-2.084-1.31-5.188-2.134-7.467l5.48-1.358c.969 2.328 1.939 5.383 2.473 7.372L188.23 38.1h14.935v5.577h-27.011V38.1h11.348zm17.312 29.678v5.578H174.41v-5.578h16.875c1.649-6.303 3.298-15.711 3.977-22.694l6.012.92c-1.211 7.275-3.006 15.713-4.703 21.774h8.244zm-28.223-35.932c-1.261 3.297-2.764 6.643-4.51 9.795v33.556h-5.82V50.709c-1.017 1.26-2.035 2.473-3.054 3.589-.533-1.455-2.134-4.607-3.103-6.014 4.364-4.364 8.583-11.25 11.056-18.135l5.43 1.697zM258.065 68.215v5.674H214.47v-5.674h18.718v-9.747h-13.142v-5.576h13.142v-8.535H223.15c-1.406 2.667-2.91 5.14-4.51 7.03-1.164-.92-3.733-2.666-5.188-3.442 3.781-4.074 6.934-10.765 8.583-17.36L228 31.894c-.68 2.328-1.457 4.607-2.28 6.838h7.468v-8.73h6.062v8.73h16.34v5.625h-16.34v8.535h14.499v5.576h-14.5v9.747h18.816z"/>
            <mask id="prefix__b" fill="#fff">
                <use xlink:href="#prefix__a"/>
            </mask>
            <path fill="#1A1A1A" d="M289.492 68.021h14.597v-7.128h-14.597v7.128zm10.184-18.476v6.11h9.892v19.349h-5.479v-1.746h-14.597v1.988h-5.188V55.655h9.892v-6.11h-12.899v-5.528h12.899v-5.673c-3.201.484-6.401.824-9.456 1.115-.194-1.406-.969-3.637-1.6-4.946 8.244-.825 17.311-2.425 22.646-4.559l4.461 4.559c-3.152 1.212-6.74 2.133-10.571 2.861v6.643h12.317v5.528h-12.317zm-21.483-9.456c-1.89-1.454-6.012-3.734-8.825-5.334l3.249-4.17c2.716 1.357 6.935 3.491 9.02 4.849l-3.444 4.655zm-10.425 30.696c2.57-3.637 6.303-9.65 9.213-15.275l4.219 3.879c-2.57 5.091-5.625 10.62-8.583 15.324l-4.849-3.928zm8.34-17.458c-1.988-1.406-6.158-3.684-9.019-5.236l3.103-4.268c2.667 1.31 6.983 3.395 9.117 4.704l-3.201 4.8zM357.193 45.229h2.57V42.95h-2.57v2.279zm0-5.77h2.57v-2.23h-2.57v2.23zm-5.819 5.77h2.327V42.95h-2.327v2.279zm0-5.77h2.327v-2.23h-2.327v2.23zm-2.474 26.38c.582 1.454 1.213 3.103 1.649 4.461h3.929c.582-1.455 1.211-3.104 1.599-4.461H348.9zm-1.6-3.443h10.523v-2.521H347.3v2.521zm-1.891-17.167h2.473V42.95h-2.473v2.279zm0-5.77h2.473v-2.23h-2.473v2.23zm18.816 9.553h-23.083V33.445h5.722v-3.442h4.461v3.442h2.134v-3.442h4.51v3.442h6.256v15.567zm-23.81 5.77h24.731V50.66h-24.731v4.122zM365.533 70.3v4.171H339.93V70.3h5.721c-.387-1.212-.873-2.473-1.309-3.54l3.055-.921h-5.14v-9.456h20.9v9.456h-5.528l3.734 1.018c-.776 1.212-1.455 2.376-2.134 3.443h6.304zm-33.799-25.021h1.794v-4.511h-1.794v4.511zm-4.073 12.316l1.649-1.649c1.406.921 2.958 1.989 4.025 2.909v-4.024h-5.674v2.764zm0 2.716c0 1.406-.049 2.861-.145 4.46 1.648-.678 3.636-1.648 5.819-2.714v-2.134l-1.94 2.134c-.825-.826-2.328-2.134-3.734-3.202v1.456zm-.727-15.033h1.89V37.52h4.704v-1.989h-6.594v9.747zm-2.134 5.818h11.104v-1.939H324.8v1.939zm13.287 1.65v17.506c0 2.085-.34 3.248-1.697 3.976-1.261.727-3.055.776-5.625.776-.146-1.213-.728-3.056-1.31-4.219 1.357.048 2.813.048 3.249.048.485 0 .631-.193.631-.63V65.79c-1.601 1.067-3.152 2.085-4.704 3.007l-1.261-2.716c-.388 3.298-1.213 6.789-2.91 9.311-.824-.825-2.958-2.28-4.024-2.764 2.376-3.638 2.57-8.583 2.57-12.414v-7.42h-2.425v-7.516h1.891V31.457h15.76v13.821h2.037v7.468h-2.182zM409.86 55.704h3.056v-4.559h-3.056v4.559zm-3.733 3.637h10.765V47.557h-10.765v11.784zm8.243 1.6c-.339 1.94-.775 3.83-1.357 5.625 2.036 1.358 4.364 3.055 5.625 4.267l-3.346 3.929c-.922-1.019-2.57-2.377-4.219-3.638-.825 1.552-1.795 3.007-2.861 4.171-.824-.873-2.958-2.474-4.171-3.201 2.813-2.764 4.462-7.177 5.189-12.026l5.14.873zm-3.54-20.318c-1.891-1.406-3.733-2.861-5.383-4.365-1.357 1.552-2.958 3.007-4.655 4.365h10.038zm-12.898 15.081h2.667v-4.559h-2.667v4.559zm-3.735 3.637h10.378V47.557h-10.378v11.784zm-10.377 1.357c.582 2.522 1.212 5.723 1.407 7.808l-2.425.484c-.146-2.133-.728-5.43-1.31-7.904l2.328-.388zm-3.636-6.594h3.006v-3.055h-3.006v3.055zm-.001-7.274h3.006v-2.861h-3.006v2.861zm.001-7.129h3.006v-3.2h-3.006v3.2zm.824 21.53c.242 2.765.388 6.402.388 8.827l-2.522.291c.097-2.425-.049-6.111-.242-8.923l2.376-.195zm21.239-.096c-.291 1.261-.63 2.521-1.018 3.734 1.746 1.067 3.588 2.473 4.558 3.54l-2.812 3.734c-.777-.825-2.085-1.989-3.444-3.007-1.163 2.425-2.569 4.51-4.17 6.159-.727-.824-2.521-2.279-3.636-3.104-.146.485-.291.825-.486 1.067-.727 1.067-1.552 1.455-2.667 1.6-.969.194-2.472.243-4.024.194-.049-1.309-.534-3.104-1.115-4.267 1.212.146 2.23.146 2.714.146.534 0 .874-.049 1.213-.535.291-.484.485-1.648.679-4.169l-1.697.63c-.34-1.697-1.164-4.316-1.94-6.255l2.036-.679c.631 1.406 1.261 3.2 1.698 4.703.097-1.552.145-3.491.242-5.818h-12.656V31.797H392.5v4.704h-4.946v3.2h4.171v1.115c5.139-2.861 9.843-7.273 12.414-11.492l5.139 1.794c-.291.533-.63 1.019-.969 1.503 2.91 2.57 7.128 5.141 10.862 6.547-.824 1.31-1.794 3.831-2.134 5.285-1.503-.775-3.006-1.648-4.51-2.667v3.201h-14.256v-2.425c-1.116.728-2.231 1.407-3.346 2.085-.679-.92-2.134-2.472-3.2-3.345v2.667h-4.171v2.861h4.316v4.219h-4.316v3.055h5.383s0 1.26-.049 1.842c-.242 9.02-.485 13.675-1.067 15.906 2.862-2.716 4.704-6.935 5.577-11.541l4.849.824zm-28.998 9.747c.921-2.813 1.648-7.274 1.988-10.475l2.861 1.019c-.291 3.2-.921 7.807-1.745 10.522l-3.104-1.066zM458.164 61.813h3.928v-5.285h-3.928v5.285zm-4.752 3.88h13.675V52.648h-13.675v13.045zm-5.189-18.96h7.953v-3.977h-7.953v3.977zm-5.383 3.782h19.057V38.974H442.84v11.541zm-.29 11.298h3.782v-5.285h-3.782v5.285zm-4.655 3.88h13.384V52.648h-13.384v13.045zm24.1 2.522c3.055 0 6.935-.242 8.923-.631.193 1.406.533 4.025.824 5.383-1.843.485-6.159.533-10.038.533h-19.106c-8.535 0-12.56-2.618-12.56-11.541V36.743h-1.939v-5.092h41.218v5.092h-33.605v25.605c0 4.218 1.406 5.867 6.401 5.867h19.882z" mask="url(#prefix__b)"/>
            <path fill="#C10021" d="M2.5 102.5L10.744 102.5 10.744 71.027 2.5 71.027z" mask="url(#prefix__b)"/>
            <path fill="#C10021" d="M2.5 102.5L33.973 102.5 33.973 94.256 2.5 94.256zM522.005 34.064L530.249 34.064 530.249 2.592 522.005 2.592z" mask="url(#prefix__b)"/>
            <path fill="#C10021" d="M498.776 10.837L530.249 10.837 530.249 2.593 498.776 2.593z" mask="url(#prefix__b)"/>
            <path fill="#FFF" d="M10.744 34.065L10.744 62.575" mask="url(#prefix__b)"/>
            <path fill="#C10021" d="M9.244 62.574L12.244 62.574 12.244 34.064 9.244 34.064z" mask="url(#prefix__b)"/>
            <path fill="#FFF" d="M522.005 41.548L522.005 71.027" mask="url(#prefix__b)"/>
            <path fill="#C10021" d="M520.505 71.027L523.505 71.027 523.505 41.548 520.505 41.548z" mask="url(#prefix__b)"/>
            <path fill="#FFF" d="M41.46 57.914c-5.175 0-9.369-4.194-9.369-9.368s4.194-9.369 9.369-9.369c5.174 0 9.368 4.195 9.368 9.37 0 5.173-4.194 9.367-9.368 9.367m21.346-4.669c0-11.789-9.557-21.347-21.346-21.347-11.79 0-21.347 9.558-21.347 21.347 0 6.98 3.35 13.175 8.528 17.07h.001c.562.423 1.145.82 1.748 1.185 5.878 4.13 11.07 9.178 11.07 9.178s5.191-5.049 11.069-9.178c.604-.366 1.187-.762 1.748-1.185h.001c5.179-3.895 8.528-10.09 8.528-17.07" mask="url(#prefix__b)"/>
        </g>
    </g>
</svg>
