<svg xmlns="http://www.w3.org/2000/svg" xmlns:xlink="http://www.w3.org/1999/xlink" width="193" height="179" viewBox="0 0 193 179">
    <defs>
        <path id="prefix__b" d="M172.182 121.21l-.604-7.542-.062.02-26.49-28.424c.017-2.038-.561-4.109-1.775-6.001l.002-.012-.008.001c-.451-.702-.984-1.38-1.612-2.021l-6.201-6.594c-.387-.395-.951-.559-1.49-.433 0 0-.9.14-.536.511v2.08L118.85 57.179c.179-.455.247-.921.207-1.385.119-1.391-.731-2.805-2.572-3.867-1.076-.622-2.362-1.05-3.725-1.284l-.48-.515V8.038l1.446-.462V1.354L112.28.321 87.627 8.035 4.635 34.007V80.505l-.041.008v2.829l-3.48 1.097-.14-.148v5.457l60.532 66.403v.194l110.676-35.135z"/>
        <path id="prefix__c" d="M0.974 5.748L61.506 72.151 61.506 64.746 0.974 0.291z"/>
        <path id="prefix__f" d="M0.505 34.666L0.505 42.345 111.182 7.21 111.182 0.161z"/>
        <path id="prefix__i" d="M4.259 2.993c-4.932 2.848-4.932 7.464 0 10.311 4.932 2.848 12.929 2.848 17.86 0 4.933-2.847 4.933-7.463 0-10.311-2.466-1.424-5.698-2.136-8.93-2.136-3.232 0-6.464.712-8.93 2.136"/>
        <path id="prefix__l" d="M.534 27.622v35.573l44.869-14.042 1.446-.379 42.535-13.521V.73L.534 27.622zm46.505-11.327L87.146 3.743v29.669L47.039 45.869V16.295zM2.671 29.32l42.315-12.612v30.238L2.671 60.472V29.32z"/>
        <path id="prefix__o" d="M.341 14.961c0 .439.309 1.056.689 1.378l7.113 6.011c.38.321.688.226.688-.212v-6.454c0-.44-.308-1.057-.688-1.378l-4.759-4.023.003-5.041C3.388 3.223 2.228 1.366.389.531.268.476.196.448.196.448l.145 14.513z"/>
        <path id="prefix__r" d="M.196.448s2.921 1.649 3.041 3.935c.121 2.286.147 5.9.147 5.9l4.501 3.805s.895.51.938 1.524l-.217 6.924.936-.464v-6.618c0-.702-.247-1.401-.754-1.888-.057-.056-.118-.108-.182-.158L4.065 9.639s1.386-4.807-1.321-7.816C2.337 1.372 1.319.557.759.289L.196.448z"/>
        <path id="prefix__u" d="M0.791 3.577L0.791 5.732 10.119 2.619 10.119 0.464z"/>
        <path id="prefix__x" d="M.181 4.106l4.818 4.07V6.169c0-.624-.438-1.501-.978-1.958L.181.969v3.137z"/>
        <path id="prefix__A" d="M.301 9.118v5.475c0 .439.308 1.055.689 1.378l7.112 6.012c.381.321.689.225.689-.215v-6.453c0-.439-.308-1.056-.689-1.377L3.343 9.915l.291-5.325c-.118-1.002-.789-2.236-1.579-2.904L.156.726l.145 8.392z"/>
        <path id="prefix__D" d="M.473 3.726l3.19 9.834.261 2.273 8.334-2.578 1.285-.144S17.688 4.505 11.196.448L.473 3.726z"/>
        <path id="prefix__G" d="M.365 4.362l5.612 7.492 10.142-3.39s.819-2.458 0-3.282c-1.404-1.411-5.224-4.25-5.224-4.25L.365 4.362z"/>
        <path id="prefix__J" d="M.619 15.237c0 .439.309 1.057.69 1.378l7.111 6.012c.381.321.69.227.69-.213V15.96c0-.439-.309-1.056-.69-1.378L3.661 10.56l.004-5.041C3.666 3.499 2.507 1.643.668.807.545.752.473.726.473.726l.146 14.511z"/>
        <path id="prefix__M" d="M.473.726S3.395 2.373 3.515 4.66c.121 2.285.146 5.9.146 5.9l4.502 3.804s.896.512.939 1.525l-.219 6.923.936-.463V15.73c0-.702-.247-1.4-.752-1.887-.058-.055-.119-.109-.184-.158l-4.54-3.77.055-4.248c.019-1.496-.451-2.976-1.413-4.122-.389-.466-.863-.887-1.422-1.154L.473.726z"/>
        <path id="prefix__P" d="M0.69 4.744L0.69 11.594 15.927 6.712 15.927 0.004z"/>
        <path id="prefix__S" d="M0.594 7.799L48.69 59.594 48.69 52.744 0.594 0.513z"/>
        <path id="prefix__V" d="M0.751 33.034L34.257 67.585 34.257 31.712 0.751 0.178z"/>
        <path id="prefix__Y" d="M0.467 1.527L0.467 2.131 2.536 0.764 2.595 0.193z"/>
        <path id="prefix__ab" d="M0.467 1.574L0.467 2.178 2.536 0.811 2.595 0.239z"/>
        <path id="prefix__ae" d="M0.467 1.764L0.467 2.368 2.536 1.001 2.595 0.43z"/>
        <path id="prefix__ah" d="M0.467 1.956L0.467 2.56 2.536 1.191 2.595 0.62z"/>
        <path id="prefix__ak" d="M0.467 2.147L0.467 2.75 2.536 1.382 2.595 0.81z"/>
        <path id="prefix__an" d="M0.467 1.337L0.467 1.94 2.536 0.573 2.595 0.002z"/>
        <path id="prefix__aq" d="M0.467 1.718L0.467 2.321 2.536 0.954 2.595 0.382z"/>
        <path id="prefix__at" d="M0.467 1.91L0.467 2.513 2.536 1.145 2.595 0.573z"/>
        <path id="prefix__aw" d="M34.257 31.905L37.786 30.068 5.536 0.593 0.751 0.178z"/>
        <path id="prefix__az" d="M.873 2.38l.001 19.624c0 .383.143.75.401 1.032l21.22 21.155c.94 1.026 2.65.36 2.65-1.03v-21.41c0-.404-.159-.79-.444-1.076L3.481 1.304C3.17.991 2.787.851 2.411.851 1.626.851.873 1.46.873 2.38"/>
        <path id="prefix__aC" d="M2.099 1.599c-1.727.997-1.727 2.613 0 3.611 1.728.997 4.528.997 6.255 0 1.727-.998 1.727-2.614 0-3.611C7.49 1.1 6.359.851 5.227.851c-1.132 0-2.264.249-3.128.748"/>
        <path id="prefix__aF" d="M1.254.397c-.537.31-.537.813 0 1.123.537.311 1.408.311 1.945 0 .538-.31.538-.813 0-1.123-.268-.155-.62-.233-.972-.233-.353 0-.705.078-.973.233"/>
        <path id="prefix__aI" d="M1.254 1.048c-.537.31-.537.814 0 1.124.537.31 1.408.31 1.945 0 .538-.31.538-.814 0-1.124-.268-.155-.62-.232-.972-.232-.353 0-.705.077-.973.232"/>
        <path id="prefix__aL" d="M.832.753v8.644h.003c.008.139.044.276.113.384.154.237.404.237.558 0 .068-.108.105-.245.112-.384h.003V.753H.832z"/>
        <path id="prefix__aO" d="M2.968 2.434c-3.457 1.997-3.457 5.232 0 7.228 3.456 1.997 9.061 1.997 12.518 0 3.457-1.996 3.457-5.231 0-7.228C13.758 1.436 11.492.937 9.227.937c-2.266 0-4.531.499-6.259 1.497"/>
        <path id="prefix__aR" d="M23.759.58l-10.99 2.571c-1.179.275-1.621 1.721-.8 2.609l11.069 11.875c2.156 2.328 1.469 6.074-1.372 7.486l-19.9 10.078c-.99.492-1.181 1.823-.368 2.573l7.76 7.162c.497.458 1.229.549 1.823.227l23.254-13.18c6.95-3.774 8.363-13.148 2.833-18.802L25.247 1.014c-.3-.308-.709-.476-1.128-.476-.12 0-.241.014-.36.042"/>
        <path id="prefix__aU" d="M.569 5.087l12.256 13.858s1.292-2.245.245-4.095C12.022 12.999.569.703.569.703v4.384z"/>
        <linearGradient id="prefix__d" x1="-.001%" x2="100%" y1="50%" y2="50%">
            <stop offset="0%" stop-color="#C10021"/>
            <stop offset="100%" stop-color="#F0233D"/>
        </linearGradient>
        <linearGradient id="prefix__g" x1=".001%" x2="100%" y1="50%" y2="50%">
            <stop offset="0%" stop-color="#C10021"/>
            <stop offset="100%" stop-color="#F0233D"/>
        </linearGradient>
        <linearGradient id="prefix__j" x1=".001%" x2="99.997%" y1="50.004%" y2="50.004%">
            <stop offset="0%" stop-color="#979797"/>
            <stop offset="100%" stop-color="#E4E4E4"/>
        </linearGradient>
        <linearGradient id="prefix__m" x1="-113.026%" x2="100%" y1="49.999%" y2="49.999%">
            <stop offset="0%" stop-color="#646664"/>
            <stop offset="100%" stop-color="#333"/>
        </linearGradient>
        <linearGradient id="prefix__p" x1="-.003%" x2="100.006%" y1="50.003%" y2="50.003%">
            <stop offset="0%" stop-color="#C10021"/>
            <stop offset="100%" stop-color="#F0233D"/>
        </linearGradient>
        <linearGradient id="prefix__s" x1="-.002%" x2="99.992%" y1="49.998%" y2="49.998%">
            <stop offset="0%" stop-color="#C10021"/>
            <stop offset="100%" stop-color="#F0233D"/>
        </linearGradient>
        <linearGradient id="prefix__v" x1=".002%" x2="99.995%" y1="49.999%" y2="49.999%">
            <stop offset="0%" stop-color="#C10021"/>
            <stop offset="100%" stop-color="#F0233D"/>
        </linearGradient>
        <linearGradient id="prefix__y" x1=".003%" x2="100.008%" y1="50.001%" y2="50.001%">
            <stop offset="0%" stop-color="#C10021"/>
            <stop offset="100%" stop-color="#F0233D"/>
        </linearGradient>
        <linearGradient id="prefix__B" x1="-.006%" x2="100.003%" y1="49.998%" y2="49.998%">
            <stop offset="0%" stop-color="#C10021"/>
            <stop offset="100%" stop-color="#F0233D"/>
        </linearGradient>
        <linearGradient id="prefix__E" x1=".004%" x2="100%" y1="50.003%" y2="50.003%">
            <stop offset="0%" stop-color="#C10021"/>
            <stop offset="100%" stop-color="#F0233D"/>
        </linearGradient>
        <linearGradient id="prefix__H" x1="-.001%" x2="99.998%" y1="50.001%" y2="50.001%">
            <stop offset="0%" stop-color="#C10021"/>
            <stop offset="100%" stop-color="#F0233D"/>
        </linearGradient>
        <linearGradient id="prefix__K" x1=".01%" x2="99.995%" y1="49.998%" y2="49.998%">
            <stop offset="0%" stop-color="#C10021"/>
            <stop offset="100%" stop-color="#F0233D"/>
        </linearGradient>
        <linearGradient id="prefix__N" x1=".009%" x2="100.004%" y1="49.999%" y2="49.999%">
            <stop offset="0%" stop-color="#C10021"/>
            <stop offset="100%" stop-color="#F0233D"/>
        </linearGradient>
        <linearGradient id="prefix__Q" x1=".003%" x2="100.002%" y1="49.998%" y2="49.998%">
            <stop offset="0%" stop-color="#979797"/>
            <stop offset="100%" stop-color="#E4E4E4"/>
        </linearGradient>
        <linearGradient id="prefix__T" x1="-.001%" x2="100.001%" y1="49.999%" y2="49.999%">
            <stop offset="0%" stop-color="#979797"/>
            <stop offset="100%" stop-color="#E4E4E4"/>
        </linearGradient>
        <linearGradient id="prefix__W" x1="46.471%" x2="52.6%" y1="-4.156%" y2="86.024%">
            <stop offset="0%" stop-color="#646664"/>
            <stop offset="100%" stop-color="#333"/>
        </linearGradient>
        <linearGradient id="prefix__Z" x1="-.02%" x2="100.01%" y1="49.984%" y2="49.984%">
            <stop offset="0%" stop-color="#646664"/>
            <stop offset="100%" stop-color="#333"/>
        </linearGradient>
        <linearGradient id="prefix__ac" x1="-.02%" x2="100.01%" y1="50.003%" y2="50.003%">
            <stop offset="0%" stop-color="#646664"/>
            <stop offset="100%" stop-color="#333"/>
        </linearGradient>
        <linearGradient id="prefix__af" x1="-.02%" x2="100.01%" y1="50.01%" y2="50.01%">
            <stop offset="0%" stop-color="#646664"/>
            <stop offset="100%" stop-color="#333"/>
        </linearGradient>
        <linearGradient id="prefix__ai" x1="-.02%" x2="100.01%" y1="49.99%" y2="49.99%">
            <stop offset="0%" stop-color="#646664"/>
            <stop offset="100%" stop-color="#333"/>
        </linearGradient>
        <linearGradient id="prefix__al" x1="-.02%" x2="100.01%" y1="50.023%" y2="50.023%">
            <stop offset="0%" stop-color="#646664"/>
            <stop offset="100%" stop-color="#333"/>
        </linearGradient>
        <linearGradient id="prefix__ao" x1="-.02%" x2="100.01%" y1="50.004%" y2="50.004%">
            <stop offset="0%" stop-color="#646664"/>
            <stop offset="100%" stop-color="#333"/>
        </linearGradient>
        <linearGradient id="prefix__ar" x1="-.02%" x2="100.01%" y1="50.043%" y2="50.043%">
            <stop offset="0%" stop-color="#646664"/>
            <stop offset="100%" stop-color="#333"/>
        </linearGradient>
        <linearGradient id="prefix__au" x1="-.02%" x2="100.01%" y1="49.998%" y2="49.998%">
            <stop offset="0%" stop-color="#646664"/>
            <stop offset="100%" stop-color="#333"/>
        </linearGradient>
        <linearGradient id="prefix__ax" x1="-.002%" x2="99.999%" y1="49.999%" y2="49.999%">
            <stop offset="0%" stop-color="#646664"/>
            <stop offset="100%" stop-color="#333"/>
        </linearGradient>
        <linearGradient id="prefix__aA" x1="53.231%" x2="49.37%" y1="151.162%" y2="27.814%">
            <stop offset="0%" stop-color="#646664"/>
            <stop offset="100%" stop-color="#333"/>
        </linearGradient>
        <linearGradient id="prefix__aD" x1=".001%" x2="100.003%" y1="49.995%" y2="49.995%">
            <stop offset="0%" stop-color="gray"/>
            <stop offset="100%" stop-color="#666"/>
        </linearGradient>
        <linearGradient id="prefix__aG" x1="-.013%" x2="99.999%" y1="50.005%" y2="50.005%">
            <stop offset="0%" stop-color="gray"/>
            <stop offset="100%" stop-color="#666"/>
        </linearGradient>
        <linearGradient id="prefix__aJ" x1="-.013%" x2="99.999%" y1="49.972%" y2="49.972%">
            <stop offset="0%" stop-color="gray"/>
            <stop offset="100%" stop-color="#666"/>
        </linearGradient>
        <linearGradient id="prefix__aM" x1="10.605%" x2="89.439%" y1="50%" y2="50%">
            <stop offset="0%" stop-color="#979797"/>
            <stop offset="100%" stop-color="#E4E4E4"/>
        </linearGradient>
        <linearGradient id="prefix__aP" x1="-.002%" x2="99.998%" y1="50%" y2="50%">
            <stop offset="0%" stop-color="#979797"/>
            <stop offset="100%" stop-color="#E4E4E4"/>
        </linearGradient>
        <linearGradient id="prefix__aS" x1="0%" x2="100%" y1="50.001%" y2="50.001%">
            <stop offset="0%" stop-color="#979797"/>
            <stop offset="100%" stop-color="#E4E4E4"/>
        </linearGradient>
        <linearGradient id="prefix__aV" x1="-.005%" x2="100.001%" y1="49.998%" y2="49.998%">
            <stop offset="0%" stop-color="#979797"/>
            <stop offset="100%" stop-color="#E4E4E4"/>
        </linearGradient>
        <filter id="prefix__a" width="130.4%" height="133.3%" x="-15.2%" y="-16.7%" filterUnits="objectBoundingBox">
            <feMorphology in="SourceAlpha" operator="dilate" radius="7" result="shadowSpreadOuter1"/>
            <feOffset in="shadowSpreadOuter1" result="shadowOffsetOuter1"/>
            <feMorphology in="SourceAlpha" radius="7" result="shadowInner"/>
            <feOffset in="shadowInner" result="shadowInner"/>
            <feComposite in="shadowOffsetOuter1" in2="shadowInner" operator="out" result="shadowOffsetOuter1"/>
            <feGaussianBlur in="shadowOffsetOuter1" result="shadowBlurOuter1" stdDeviation="5"/>
            <feColorMatrix in="shadowBlurOuter1" values="0 0 0 0 1 0 0 0 0 0.329411765 0 0 0 0 0.329411765 0 0 0 1 0"/>
        </filter>
    </defs>
    <g fill="none" fill-rule="evenodd">
        <path fill="#CBCBCB" d="M68.64 131.676L53.135 137.69 6.803 84.986 17.815 76.166z" transform="translate(10 11.5)"/>
        <g stroke-linecap="round" stroke-linejoin="round" transform="translate(10 11.5)">
            <use fill="#000" filter="url(#prefix__a)" xlink:href="#prefix__b"/>
            <use stroke="#FFF" stroke-width="6" xlink:href="#prefix__b"/>
        </g>
        <g transform="translate(10 11.5) translate(0 84)">
            <mask id="prefix__e" fill="#fff">
                <use xlink:href="#prefix__c"/>
            </mask>
            <path fill="url(#prefix__d)" d="M0.974 5.748L61.506 72.151 61.506 64.746 0.974 0.291z" mask="url(#prefix__e)"/>
        </g>
        <g transform="translate(10 11.5) translate(61 114)">
            <mask id="prefix__h" fill="#fff">
                <use xlink:href="#prefix__f"/>
            </mask>
            <path fill="url(#prefix__g)" d="M0.505 34.666L0.505 42.345 111.182 7.21 111.182 0.161z" mask="url(#prefix__h)"/>
        </g>
        <g>
            <path fill="#FF7A79" d="M0.974 35.484L61.506 99.939 172.182 65.248 111.733 0.54z" transform="translate(10 11.5) translate(0 49)"/>
            <path fill="#4D4D4D" d="M131.205 48.97c0 10.36-18.363 18.762-41.015 18.762S49.174 59.33 49.174 48.97 67.538 30.209 90.19 30.209c22.652 0 41.015 8.4 41.015 18.76" transform="translate(10 11.5) translate(0 49)"/>
            <path stroke="#000" d="M98.523 42.865c4.603 2.21 4.603 5.79 0 8-4.603 2.208-12.065 2.208-16.668 0-4.603-2.21-4.603-5.79 0-8 4.603-2.209 12.065-2.209 16.668 0zM78.403 39.733L78.403 46.44M101.975 39.733L101.975 46.44M90.189 52.706L90.189 41.844" transform="translate(10 11.5) translate(0 49)"/>
        </g>
        <g transform="translate(10 11.5) translate(77 80)">
            <mask id="prefix__k" fill="#fff">
                <use xlink:href="#prefix__i"/>
            </mask>
            <path fill="url(#prefix__j)" d="M4.259 2.993c-4.932 2.848-4.932 7.464 0 10.311 4.932 2.848 12.929 2.848 17.86 0 4.933-2.847 4.933-7.463 0-10.311-2.466-1.424-5.698-2.136-8.93-2.136-3.232 0-6.464.712-8.93 2.136" mask="url(#prefix__k)"/>
        </g>
        <g>
            <path fill="#FFF" d="M95.12 82.269c4.931 2.848 4.931 7.464 0 10.312-4.933 2.847-12.929 2.847-17.86 0-4.933-2.848-4.933-7.464 0-10.312 4.931-2.848 12.927-2.848 17.86 0M.634 34.007L.634 83.403 108.28 50.43 108.28.32z" transform="translate(10 11.5) translate(4)"/>
            <path fill="#CBCBCB" d="M13.67 36.32L13.67 67.471 55.985 53.945 55.985 23.708zM98.147 10.744L58.038 23.295 58.038 52.869 98.147 40.412z" transform="translate(10 11.5) translate(4)"/>
        </g>
        <g transform="translate(10 11.5) translate(15 7)">
            <mask id="prefix__n" fill="#fff">
                <use xlink:href="#prefix__l"/>
            </mask>
            <path fill="url(#prefix__m)" d="M.534 27.622v35.573l44.869-14.042 1.446-.379 42.535-13.521V.73L.534 27.622zm46.505-11.327L87.146 3.743v29.669L47.039 45.869V16.295zM2.671 29.32l42.315-12.612v30.238L2.671 60.472V29.32z" mask="url(#prefix__n)"/>
        </g>
        <g>
            <path fill="#B2B2B2" d="M54.091 36.263L36.257 58.322 53.734 53.271zM2.08 41.937L109.726 7.577 109.726 1.353 2.08 35.041z" transform="translate(10 11.5) translate(4)"/>
            <path fill="#989898" d="M108.281 0.32L109.727 1.353 2.08 35.04 0.635 34.007z" transform="translate(10 11.5) translate(4)"/>
            <path fill="#B2B2B2" d="M96.341 22.671L78.507 44.73 95.985 39.679z" transform="translate(10 11.5) translate(4)"/>
            <path fill="#989898" d="M2.08 35.04L0.634 34.007 0.634 40.823 2.08 41.936z" transform="translate(10 11.5) translate(4)"/>
            <path fill="#000" d="M78.998 61.865L76.474 70.84 77.168 70.84 81.189 62.075zM83.998 65.404L81.473 74.379 82.168 74.379 86.189 65.614zM93.499 62.766L97.382 70.452 96.749 70.738 91.591 63.861z" transform="translate(10 11.5) translate(4)"/>
        </g>
        <g transform="translate(10 11.5) translate(91 45)">
            <mask id="prefix__q" fill="#fff">
                <use xlink:href="#prefix__o"/>
            </mask>
            <path fill="url(#prefix__p)" d="M.341 14.961c0 .439.309 1.056.689 1.378l7.113 6.011c.38.321.688.226.688-.212v-6.454c0-.44-.308-1.057-.688-1.378l-4.759-4.023.003-5.041C3.388 3.223 2.228 1.366.389.531.268.476.196.448.196.448l.145 14.513z" mask="url(#prefix__q)"/>
        </g>
        <g transform="translate(10 11.5) translate(91 45)">
            <mask id="prefix__t" fill="#fff">
                <use xlink:href="#prefix__r"/>
            </mask>
            <path fill="url(#prefix__s)" d="M.196.448s2.921 1.649 3.041 3.935c.121 2.286.147 5.9.147 5.9l4.501 3.805s.895.51.938 1.524l-.217 6.924.936-.464v-6.618c0-.702-.247-1.401-.754-1.888-.057-.056-.118-.108-.182-.158L4.065 9.639s1.386-4.807-1.321-7.816C2.337 1.372 1.319.557.759.289L.196.448z" mask="url(#prefix__t)"/>
        </g>
        <g transform="translate(10 11.5) translate(89 64)">
            <mask id="prefix__w" fill="#fff">
                <use xlink:href="#prefix__u"/>
            </mask>
            <path fill="url(#prefix__v)" d="M0.791 3.577L0.791 5.732 10.119 2.619 10.119 0.464z" mask="url(#prefix__w)"/>
        </g>
        <g transform="translate(10 11.5) translate(93 57)">
            <mask id="prefix__z" fill="#fff">
                <use xlink:href="#prefix__x"/>
            </mask>
            <path fill="url(#prefix__y)" d="M.181 4.106l4.818 4.07V6.169c0-.624-.438-1.501-.978-1.958L.181.969v3.137z" mask="url(#prefix__z)"/>
        </g>
        <g transform="translate(10 11.5) translate(81 48)">
            <mask id="prefix__C" fill="#fff">
                <use xlink:href="#prefix__A"/>
            </mask>
            <path fill="url(#prefix__B)" d="M.301 9.118v5.475c0 .439.308 1.055.689 1.378l7.112 6.012c.381.321.689.225.689-.215v-6.453c0-.439-.308-1.056-.689-1.377L3.343 9.915l.291-5.325c-.118-1.002-.789-2.236-1.579-2.904L.156.726l.145 8.392z" mask="url(#prefix__C)"/>
        </g>
        <g transform="translate(10 11.5) translate(80 45)">
            <mask id="prefix__F" fill="#fff">
                <use xlink:href="#prefix__D"/>
            </mask>
            <path fill="url(#prefix__E)" d="M.473 3.726l3.19 9.834.261 2.273 8.334-2.578 1.285-.144S17.688 4.505 11.196.448L.473 3.726z" mask="url(#prefix__F)"/>
        </g>
        <g transform="translate(10 11.5) translate(83 56)">
            <mask id="prefix__I" fill="#fff">
                <use xlink:href="#prefix__G"/>
            </mask>
            <path fill="url(#prefix__H)" d="M.365 4.362l5.612 7.492 10.142-3.39s.819-2.458 0-3.282c-1.404-1.411-5.224-4.25-5.224-4.25L.365 4.362z" mask="url(#prefix__I)"/>
        </g>
        <g transform="translate(10 11.5) translate(80 48)">
            <mask id="prefix__L" fill="#fff">
                <use xlink:href="#prefix__J"/>
            </mask>
            <path fill="url(#prefix__K)" d="M.619 15.237c0 .439.309 1.057.69 1.378l7.111 6.012c.381.321.69.227.69-.213V15.96c0-.439-.309-1.056-.69-1.378L3.661 10.56l.004-5.041C3.666 3.499 2.507 1.643.668.807.545.752.473.726.473.726l.146 14.511z" mask="url(#prefix__L)"/>
        </g>
        <g transform="translate(10 11.5) translate(80 48)">
            <mask id="prefix__O" fill="#fff">
                <use xlink:href="#prefix__M"/>
            </mask>
            <path fill="url(#prefix__N)" d="M.473.726S3.395 2.373 3.515 4.66c.121 2.285.146 5.9.146 5.9l4.502 3.804s.896.512.939 1.525l-.219 6.923.936-.463V15.73c0-.702-.247-1.4-.752-1.887-.058-.055-.119-.109-.184-.158l-4.54-3.77.055-4.248c.019-1.496-.451-2.976-1.413-4.122-.389-.466-.863-.887-1.422-1.154L.473.726z" mask="url(#prefix__O)"/>
        </g>
        <path fill="#CBCBCB" d="M67.927 128.004L52.69 132.744 4.594 80.513 21.022 77.223z" transform="translate(10 11.5)"/>
        <g transform="translate(10 11.5) translate(52 128)">
            <mask id="prefix__R" fill="#fff">
                <use xlink:href="#prefix__P"/>
            </mask>
            <path fill="url(#prefix__Q)" d="M0.69 4.744L0.69 11.594 15.927 6.712 15.927 0.004z" mask="url(#prefix__R)"/>
        </g>
        <g transform="translate(10 11.5) translate(4 80)">
            <mask id="prefix__U" fill="#fff">
                <use xlink:href="#prefix__S"/>
            </mask>
            <path fill="url(#prefix__T)" d="M0.594 7.799L48.69 59.594 48.69 52.744 0.594 0.513z" mask="url(#prefix__U)"/>
        </g>
        <g transform="translate(10 11.5) translate(6 46)">
            <mask id="prefix__X" fill="#fff">
                <use xlink:href="#prefix__V"/>
            </mask>
            <path fill="url(#prefix__W)" d="M0.751 33.034L34.257 67.585 34.257 31.712 0.751 0.178z" mask="url(#prefix__X)"/>
        </g>
        <path fill="#1A1A1A" d="M40.257 77.632L40.257 113.778 44.185 109.356 43.786 76.068z" transform="translate(10 11.5)"/>
        <g transform="translate(10 11.5) translate(41 95)">
            <mask id="prefix__aa" fill="#fff">
                <use xlink:href="#prefix__Y"/>
            </mask>
            <path fill="url(#prefix__Z)" d="M0.467 1.527L0.467 2.131 2.536 0.764 2.595 0.193z" mask="url(#prefix__aa)"/>
        </g>
        <g transform="translate(10 11.5) translate(41 89)">
            <mask id="prefix__ad" fill="#fff">
                <use xlink:href="#prefix__ab"/>
            </mask>
            <path fill="url(#prefix__ac)" d="M0.467 1.574L0.467 2.178 2.536 0.811 2.595 0.239z" mask="url(#prefix__ad)"/>
        </g>
        <g transform="translate(10 11.5) translate(41 90)">
            <mask id="prefix__ag" fill="#fff">
                <use xlink:href="#prefix__ae"/>
            </mask>
            <path fill="url(#prefix__af)" d="M0.467 1.764L0.467 2.368 2.536 1.001 2.595 0.43z" mask="url(#prefix__ag)"/>
        </g>
        <g transform="translate(10 11.5) translate(41 91)">
            <mask id="prefix__aj" fill="#fff">
                <use xlink:href="#prefix__ah"/>
            </mask>
            <path fill="url(#prefix__ai)" d="M0.467 1.956L0.467 2.56 2.536 1.191 2.595 0.62z" mask="url(#prefix__aj)"/>
        </g>
        <g transform="translate(10 11.5) translate(41 92)">
            <mask id="prefix__am" fill="#fff">
                <use xlink:href="#prefix__ak"/>
            </mask>
            <path fill="url(#prefix__al)" d="M0.467 2.147L0.467 2.75 2.536 1.382 2.595 0.81z" mask="url(#prefix__am)"/>
        </g>
        <g transform="translate(10 11.5) translate(41 94)">
            <mask id="prefix__ap" fill="#fff">
                <use xlink:href="#prefix__an"/>
            </mask>
            <path fill="url(#prefix__ao)" d="M0.467 1.337L0.467 1.94 2.536 0.573 2.595 0.002z" mask="url(#prefix__ap)"/>
        </g>
        <g transform="translate(10 11.5) translate(41 96)">
            <mask id="prefix__as" fill="#fff">
                <use xlink:href="#prefix__aq"/>
            </mask>
            <path fill="url(#prefix__ar)" d="M0.467 1.718L0.467 2.321 2.536 0.954 2.595 0.382z" mask="url(#prefix__as)"/>
        </g>
        <g transform="translate(10 11.5) translate(41 97)">
            <mask id="prefix__av" fill="#fff">
                <use xlink:href="#prefix__at"/>
            </mask>
            <path fill="url(#prefix__au)" d="M0.467 1.91L0.467 2.513 2.536 1.145 2.595 0.573z" mask="url(#prefix__av)"/>
        </g>
        <g transform="translate(10 11.5) translate(6 46)">
            <mask id="prefix__ay" fill="#fff">
                <use xlink:href="#prefix__aw"/>
            </mask>
            <path fill="url(#prefix__ax)" d="M34.257 31.905L37.786 30.068 5.536 0.593 0.751 0.178z" mask="url(#prefix__ay)"/>
        </g>
        <path fill="#1A1A1A" d="M34.67 77.23L13.45 57.86c-.384-.386-.875-.505-1.328-.428l-.004-.01-2.108.483.893.597c-.039.136-.062.28-.062.433V78.56c0 .383.143.75.401 1.032l20.844 20.745-.153 1.317 1.983-.448.026-.005.026-.007-.002-.001c.625-.163 1.147-.708 1.147-1.477v-21.41c0-.402-.16-.789-.444-1.075" transform="translate(10 11.5)"/>
        <g transform="translate(10 11.5) translate(8 57)">
            <mask id="prefix__aB" fill="#fff">
                <use xlink:href="#prefix__az"/>
            </mask>
            <path fill="url(#prefix__aA)" d="M.873 2.38l.001 19.624c0 .383.143.75.401 1.032l21.22 21.155c.94 1.026 2.65.36 2.65-1.03v-21.41c0-.404-.159-.79-.444-1.076L3.481 1.304C3.17.991 2.787.851 2.411.851 1.626.851.873 1.46.873 2.38" mask="url(#prefix__aB)"/>
        </g>
        <g fill="#B2B2B2">
            <path d="M1.003 1.19c.176.266.166.583-.024.709-.19.124-.486.012-.663-.254C.14 1.38.15 1.063.34.936c.19-.126.487-.013.663.253M1.003 19.877c.176.266.166.583-.024.709s-.486.013-.663-.253c-.176-.266-.165-.583.024-.709.19-.126.487-.013.663.253M21.204 20.245c.176.266.166.583-.024.71-.19.125-.486.012-.663-.254-.176-.266-.165-.583.024-.709.19-.126.487-.013.663.253M21.204 38.934c.176.266.166.583-.024.708-.19.126-.486.014-.663-.252-.176-.266-.165-.583.024-.71.19-.125.487-.012.663.254" transform="translate(10 11.5) translate(10 59)"/>
        </g>
        <g transform="translate(10 11.5) translate(105 63)">
            <mask id="prefix__aE" fill="#fff">
                <use xlink:href="#prefix__aC"/>
            </mask>
            <path fill="url(#prefix__aD)" d="M2.099 1.599c-1.727.997-1.727 2.613 0 3.611 1.728.997 4.528.997 6.255 0 1.727-.998 1.727-2.614 0-3.611C7.49 1.1 6.359.851 5.227.851c-1.132 0-2.264.249-3.128.748" mask="url(#prefix__aE)"/>
        </g>
        <path fill="#1A1A1A" d="M113.354 64.153c1.728.997 1.728 2.614 0 3.611-1.727.997-4.527.997-6.255 0-1.727-.997-1.727-2.614 0-3.61 1.728-.998 4.528-.998 6.255 0" transform="translate(10 11.5)"/>
        <g transform="translate(10 11.5) translate(108 65)">
            <mask id="prefix__aH" fill="#fff">
                <use xlink:href="#prefix__aF"/>
            </mask>
            <path fill="url(#prefix__aG)" d="M1.254.397c-.537.31-.537.813 0 1.123.537.311 1.408.311 1.945 0 .538-.31.538-.813 0-1.123-.268-.155-.62-.233-.972-.233-.353 0-.705.078-.973.233" mask="url(#prefix__aH)"/>
        </g>
        <g transform="translate(10 11.5) translate(108 64)">
            <mask id="prefix__aK" fill="#fff">
                <use xlink:href="#prefix__aI"/>
            </mask>
            <path fill="url(#prefix__aJ)" d="M1.254 1.048c-.537.31-.537.814 0 1.124.537.31 1.408.31 1.945 0 .538-.31.538-.814 0-1.124-.268-.155-.62-.232-.972-.232-.353 0-.705.077-.973.232" mask="url(#prefix__aK)"/>
        </g>
        <g transform="translate(10 11.5) translate(109 56)">
            <mask id="prefix__aN" fill="#fff">
                <use xlink:href="#prefix__aL"/>
            </mask>
            <path fill="url(#prefix__aM)" d="M.832.753v8.644h.003c.008.139.044.276.113.384.154.237.404.237.558 0 .068-.108.105-.245.112-.384h.003V.753H.832z" mask="url(#prefix__aN)"/>
        </g>
        <g transform="translate(10 11.5) translate(101 50)">
            <mask id="prefix__aQ" fill="#fff">
                <use xlink:href="#prefix__aO"/>
            </mask>
            <path fill="url(#prefix__aP)" d="M2.968 2.434c-3.457 1.997-3.457 5.232 0 7.228 3.456 1.997 9.061 1.997 12.518 0 3.457-1.996 3.457-5.231 0-7.228C13.758 1.436 11.492.937 9.227.937c-2.266 0-4.531.499-6.259 1.497" mask="url(#prefix__aQ)"/>
        </g>
        <path fill="#E5E5E5" d="M116.486 51.927c3.457 1.996 3.457 5.23 0 7.228-3.457 1.996-9.062 1.996-12.518 0-3.457-1.997-3.457-5.232 0-7.228 3.456-1.996 9.06-1.996 12.518 0" transform="translate(10 11.5)"/>
        <g transform="translate(10 11.5) translate(105 76)">
            <mask id="prefix__aT" fill="#fff">
                <use xlink:href="#prefix__aR"/>
            </mask>
            <path fill="url(#prefix__aS)" d="M23.759.58l-10.99 2.571c-1.179.275-1.621 1.721-.8 2.609l11.069 11.875c2.156 2.328 1.469 6.074-1.372 7.486l-19.9 10.078c-.99.492-1.181 1.823-.368 2.573l7.76 7.162c.497.458 1.229.549 1.823.227l23.254-13.18c6.95-3.774 8.363-13.148 2.833-18.802L25.247 1.014c-.3-.308-.709-.476-1.128-.476-.12 0-.241.014-.36.042" mask="url(#prefix__aT)"/>
        </g>
        <path fill="#CBCBCB" d="M145.466 97.127l-.77.318c-.56-1.479-1.43-2.878-2.627-4.102l-11.822-12.165c-.386-.395-.95-.56-1.488-.434l-10.991 2.571c-1.178.276-1.62 1.721-.798 2.609l11.069 11.875c1.795 1.939 1.613 4.857-.138 6.596l-22.011 8.643v4.276l.159.129c.084.178.192.349.349.494l7.76 7.161c.496.458 1.229.55 1.823.227l23.254-13.18c4.199-2.28 6.372-6.603 6.22-10.916l.01-.008v-4.094z" transform="translate(10 11.5)"/>
        <g transform="translate(10 11.5) translate(116 80)">
            <mask id="prefix__aW" fill="#fff">
                <use xlink:href="#prefix__aU"/>
            </mask>
            <path fill="url(#prefix__aV)" d="M.569 5.087l12.256 13.858s1.292-2.245.245-4.095C12.022 12.999.569.703.569.703v4.384z" mask="url(#prefix__aW)"/>
        </g>
        <g>
            <path fill="#F1F1F1" d="M1.766 41.2l19.9-10.079c2.841-1.412 3.528-5.158 1.372-7.486L11.97 11.76c-.823-.888-.38-2.333.798-2.609l10.991-2.57c.538-.127 1.102.037 1.488.432l11.821 12.165c5.53 5.655 4.117 15.03-2.833 18.802L10.981 51.161c-.594.322-1.327.23-1.823-.228l-7.76-7.16c-.813-.75-.622-2.082.368-2.574" transform="translate(10 11.5) translate(105 70)"/>
            <path fill="#CBCBCB" d="M41.292 24.202c.032.064.063.13.093.194.03-.064.055-.13.083-.194h-.176z" transform="translate(10 11.5) translate(105 70)"/>
            <path fill="#989898" d="M41.599 20.702c-.53-3.408-5.22-8.11-5.22-8.11l-3.998-4.229-1.556-.456v4.886l6.244 6.386c1.473 1.506 2.449 3.28 2.964 5.138l.596 2.688s1.5-2.894.97-6.303" transform="translate(10 11.5) translate(105 70)"/>
            <path fill="#989898" d="M42.43 28.734v-6.506l-1.137-.475-1.451 7.472c-.957 1.197-2.166 2.238-3.624 3.03l-18.03 9.887c-.594.322-1.327.231-1.824-.227v7.544c.497.458 1.23.55 1.824.226l18.03-9.887c6.282-3.41 6.213-9.036 6.213-9.036v-.9c.017-.376.018-.752 0-1.128" transform="translate(10 11.5) translate(105 70)"/>
            <path fill="gray" d="M31.362 7.436c.538-.125 1.102.038 1.488.434l6.2 6.593c5.53 5.655 4.118 14.057-2.832 17.832l-18.03 9.887c-.594.322-1.327.231-1.824-.227L35.198 31.05c7.233-4.67 7.219-11.226 2.024-16.537l-6.398-6.565c-.362-.37.538-.51.538-.51" transform="translate(10 11.5) translate(105 70)"/>
            <path fill="#4D4D4D" d="M41.38 20.29l-2.506-5.77-1.451 7.473c-.957 1.198-2.166 2.238-3.624 3.03l-18.03 9.887c-.594.322-1.327.232-1.824-.227v13.63c.497.458 1.23.55 1.824.227l18.03-9.888c6.283-3.41 7.006-9.064 7.006-9.064l.575-9.299z" transform="translate(10 11.5) translate(105 70)"/>
            <path fill="#B2B2B2" d="M42.43 28.734v-6.506l-1.137-.475-1.451 7.472c-.957 1.197-2.166 2.238-3.624 3.03l-18.03 9.887c-.594.322-1.327.231-1.824-.227v7.544c.497.458 1.23.55 1.824.226l18.03-9.887c6.282-3.41 6.213-9.036 6.213-9.036v-.9c.017-.376.018-.752 0-1.128" transform="translate(10 11.5) translate(105 70)"/>
            <path fill="#989898" d="M31.362 7.436c.538-.125 1.102.038 1.488.434l6.2 6.593c5.53 5.655 4.118 14.057-2.832 17.832l-18.03 9.887c-.594.322-1.327.231-1.824-.227L35.198 31.05c7.233-4.67 7.219-11.226 2.024-16.537l-6.398-6.565c-.362-.37.538-.51.538-.51" transform="translate(10 11.5) translate(105 70)"/>
            <path fill="#4D4D4D" d="M39.18 13.47c-.53-3.408-5.219-8.111-5.219-8.111L29.962 1.13 28.406.676v10.769l6.244 6.384c1.473 1.508 2.45 3.28 2.963 5.14l.597 2.688s1.5-8.778.97-12.187" transform="translate(10 11.5) translate(105 70)"/>
            <path fill="gray" d="M28.943.204c.538-.126 1.102.038 1.488.433l6.201 6.593c5.53 5.655 4.117 14.058-2.833 17.832L15.77 34.95c-.594.322-1.327.231-1.824-.227L32.78 23.816c7.233-4.67 7.22-11.224 2.024-16.537L28.405.715c-.362-.37.538-.51.538-.51" transform="translate(10 11.5) translate(105 70)"/>
            <path stroke="#989898" stroke-width=".125" d="M24.48 28.623L25.979 29.601 25.979 36.189M34.77 22.313L36.269 23.291 36.269 30.256M36.495 20.363L36.495 9.3 38.253 9.251" transform="translate(10 11.5) translate(105 70)"/>
        </g>
    </g>
</svg>
