<svg xmlns="http://www.w3.org/2000/svg" xmlns:xlink="http://www.w3.org/1999/xlink" width="560" height="341" viewBox="0 0 560 341">
    <defs>
        <path id="prefix__a" d="M0.984 127.549L0.984 140 406.237 13.541 405.918 0.486z"/>
        <path id="prefix__d" d="M0.001 12.804L95.984 116 95.984 103.549 0.001 0.294z"/>
        <path id="prefix__g" d="M101.333 103.416L101.333 115.866 0.033 12.67 0.033 0.16z"/>
        <path id="prefix__j" d="M0 0.096L500.918 0.096 500.918 212.549 0 212.549z"/>
        <path id="prefix__l" d="M20.441.68H5.163c-7.559 9.765-3.149 21.97-3.149 21.97 6.3 3.071 30.555 3.071 36.855 0 0 0 4.41-12.205-3.151-21.97H20.441z"/>
        <path id="prefix__o" d="M19.814.129H4.536c-7.559 9.765-3.149 21.969-3.149 21.969 6.299 3.071 30.554 3.071 36.854 0 0 0 4.41-12.204-3.15-21.969H19.814z"/>
        <path id="prefix__r" d="M0.033 0.969L361.043 0.969 361.043 142.316 0.033 142.316z"/>
        <path id="prefix__t" d="M20.322.64H5.045c-7.561 9.764-3.151 21.969-3.151 21.969 6.3 3.07 30.555 3.07 36.855 0 0 0 4.41-12.205-3.15-21.969H20.322z"/>
        <path id="prefix__w" d="M20.448.803H5.17c-7.559 9.765-3.149 21.97-3.149 21.97 6.3 3.07 30.555 3.07 36.854 0 0 0 4.411-12.205-3.149-21.97H20.448z"/>
        <linearGradient id="prefix__b" x1="0%" x2="100%" y1="50%" y2="50%">
            <stop offset="0%" stop-color="#646664"/>
            <stop offset="100%" stop-color="#4D4D4D"/>
        </linearGradient>
        <linearGradient id="prefix__e" x1="-.001%" x2="99.999%" y1="50%" y2="50%">
            <stop offset="0%" stop-color="gray"/>
            <stop offset="100%" stop-color="#666"/>
        </linearGradient>
        <linearGradient id="prefix__h" x1="0%" x2="99.999%" y1="50%" y2="50%">
            <stop offset="0%" stop-color="gray"/>
            <stop offset="100%" stop-color="#666"/>
        </linearGradient>
        <linearGradient id="prefix__m" x1="0%" x2="100%" y1="50.001%" y2="50.001%">
            <stop offset="0%" stop-color="#F0233D"/>
            <stop offset="100%" stop-color="#FF7979"/>
        </linearGradient>
        <linearGradient id="prefix__p" x1="-.001%" x2="100.001%" y1="49.998%" y2="49.998%">
            <stop offset="0%" stop-color="#F0233D"/>
            <stop offset="100%" stop-color="#FF7979"/>
        </linearGradient>
        <linearGradient id="prefix__u" x1="0%" x2="100%" y1="50%" y2="50%">
            <stop offset="0%" stop-color="#F0233D"/>
            <stop offset="100%" stop-color="#FF7979"/>
        </linearGradient>
        <linearGradient id="prefix__x" x1="0%" x2="100.001%" y1="50.001%" y2="50.001%">
            <stop offset="0%" stop-color="#F0233D"/>
            <stop offset="100%" stop-color="#FF7979"/>
        </linearGradient>
    </defs>
    <g fill="none" fill-rule="evenodd">
        <g transform="translate(29 28) translate(95 142.031)">
            <mask id="prefix__c" fill="#fff">
                <use xlink:href="#prefix__a"/>
            </mask>
            <path fill="url(#prefix__b)" d="M0.984 127.549L0.984 140 406.237 13.541 405.918 0.486z" mask="url(#prefix__c)"/>
        </g>
        <g transform="translate(29 28) translate(0 166.031)">
            <mask id="prefix__f" fill="#fff">
                <use xlink:href="#prefix__d"/>
            </mask>
            <path fill="url(#prefix__e)" d="M0.001 12.804L95.984 116 95.984 103.549 0.001 0.294z" mask="url(#prefix__f)"/>
        </g>
        <g transform="translate(29 28) translate(135 91.031)">
            <mask id="prefix__i" fill="#fff">
                <use xlink:href="#prefix__g"/>
            </mask>
            <path fill="url(#prefix__h)" d="M101.333 103.416L101.333 115.866 0.033 12.67 0.033 0.16z" mask="url(#prefix__i)"/>
        </g>
        <g transform="translate(29 28) translate(0 57.031)">
            <mask id="prefix__k" fill="#fff">
                <use xlink:href="#prefix__j"/>
            </mask>
            <path fill="#B2B2B2" d="M333.028.188c-3.517.086-7.376.201-11.518.376h-.02c-3.305.14-6.791.316-10.442.548C203.445 7.56 134.866 34.09 134.866 34.09l24.272 24.273L0 109.293 95.983 212.55 500.918 85.485c-.06-.16-32.13-88.642-167.89-85.297" mask="url(#prefix__k)"/>
        </g>
        <g transform="translate(29 28) translate(244 77.031)">
            <mask id="prefix__n" fill="#fff">
                <use xlink:href="#prefix__l"/>
            </mask>
            <path fill="url(#prefix__m)" d="M20.441.68H5.163c-7.559 9.765-3.149 21.97-3.149 21.97 6.3 3.071 30.555 3.071 36.855 0 0 0 4.41-12.205-3.151-21.97H20.441z" mask="url(#prefix__n)"/>
        </g>
        <path fill="#DA2128" d="M279.718 77.712c0 1.13-6.84 2.047-15.277 2.047-8.438 0-15.278-.916-15.278-2.047 0-1.132 6.84-2.049 15.278-2.049 8.437 0 15.277.918 15.277 2.049" transform="translate(29 28)"/>
        <g transform="translate(29 28) translate(328 104.031)">
            <mask id="prefix__q" fill="#fff">
                <use xlink:href="#prefix__o"/>
            </mask>
            <path fill="url(#prefix__p)" d="M19.814.129H4.536c-7.559 9.765-3.149 21.969-3.149 21.969 6.299 3.071 30.554 3.071 36.854 0 0 0 4.41-12.204-3.15-21.969H19.814z" mask="url(#prefix__q)"/>
        </g>
        <g transform="translate(29 28) translate(135 .031)">
            <path fill="#DA2128" d="M228.091 104.129c0 1.13-6.84 2.047-15.277 2.047-8.438 0-15.278-.916-15.278-2.047 0-1.131 6.84-2.048 15.278-2.048 8.437 0 15.277.917 15.277 2.048"/>
            <mask id="prefix__s" fill="#fff">
                <use xlink:href="#prefix__r"/>
            </mask>
            <path fill="#E5E5E5" d="M193.471 1.06c-3.517.087-7.376.202-11.518.376l-.01.001h-.009c-3.306.14-6.792.315-10.443.547C155.685 2.931 14.061 36.152.033 37.818v55.2c14.028-1.665 155.652-34.886 171.458-35.833 3.651-.23 7.137-.408 10.443-.548h.02c4.141-.175 8-.29 11.517-.376 135.761-3.345 167.513 85.893 167.572 86.055v-55.2c-.059-.162-31.81-89.4-167.572-86.056" mask="url(#prefix__s)"/>
            <path fill="#FFF" d="M196.11 7.815c-3.358.082-7.044.192-11.001.36h-.02c-3.156.132-6.487.301-9.975.523C159.733 9.62 18.524 42.81 4.908 44.442v52.73c13.617-1.63 154.825-34.823 170.206-35.745 3.488-.22 6.819-.389 9.976-.522h.019c3.957-.167 7.643-.277 11.002-.36 129.686-3.195 160 82.082 160.058 82.237v-52.73c-.057-.154-30.372-85.43-160.058-82.237"/>
            <path fill="gray" d="M0.033 93.018L4.908 96.812 4.908 44.082 0.033 37.818z"/>
        </g>
        <g transform="translate(29 28) translate(322 51.031)">
            <mask id="prefix__v" fill="#fff">
                <use xlink:href="#prefix__t"/>
            </mask>
            <path fill="url(#prefix__u)" d="M20.322.64H5.045c-7.561 9.764-3.151 21.969-3.151 21.969 6.3 3.07 30.555 3.07 36.855 0 0 0 4.41-12.205-3.15-21.969H20.322z" mask="url(#prefix__v)"/>
        </g>
        <path fill="#DA2128" d="M357.6 51.67c0 1.131-6.84 2.048-15.278 2.048s-15.279-.917-15.279-2.048c0-1.13 6.841-2.047 15.28-2.047 8.436 0 15.276.916 15.276 2.047" transform="translate(29 28)"/>
        <g transform="translate(29 28) translate(391 77.031)">
            <mask id="prefix__y" fill="#fff">
                <use xlink:href="#prefix__w"/>
            </mask>
            <path fill="url(#prefix__x)" d="M20.448.803H5.17c-7.559 9.765-3.149 21.97-3.149 21.97 6.3 3.07 30.555 3.07 36.854 0 0 0 4.411-12.205-3.149-21.97H20.448z" mask="url(#prefix__y)"/>
        </g>
        <g>
            <path fill="#DA2128" d="M335.726 2.804c0 1.13-6.84 2.047-15.278 2.047s-15.278-.916-15.278-2.047c0-1.131 6.84-2.048 15.278-2.048s15.278.917 15.278 2.048" transform="translate(29 28) translate(91 75.031)"/>
            <path fill="#FFF" d="M0.746 132.387L4.983 137.359 406.752 9.796 401.546 5.152z" transform="translate(29 28) translate(91 75.031)"/>
            <path fill="#CBCBCB" d="M4.984 137.359L4.984 194.549 406.752 67.274 406.752 9.797zM.746 132.387L.746 187.91 4.966 194.549 4.966 137.361z" transform="translate(29 28) translate(91 75.031)"/>
        </g>
    </g>
</svg>
