<svg xmlns="http://www.w3.org/2000/svg" xmlns:xlink="http://www.w3.org/1999/xlink" width="357" height="326" viewBox="0 0 357 326">
    <defs>
        <linearGradient id="prefix__b" x1="0%" x2="100%" y1="50%" y2="50%">
            <stop offset="0%" stop-color="#646664"/>
            <stop offset="100%" stop-color="#4D4D4D"/>
        </linearGradient>
        <linearGradient id="prefix__e" x1="-.001%" x2="100%" y1="50.001%" y2="50.001%">
            <stop offset="0%" stop-color="#979797"/>
            <stop offset="100%" stop-color="#E4E4E4"/>
        </linearGradient>
        <linearGradient id="prefix__h" x1="-113.026%" x2="100.001%" y1="50%" y2="50%">
            <stop offset="0%" stop-color="#646664"/>
            <stop offset="100%" stop-color="#333"/>
        </linearGradient>
        <linearGradient id="prefix__k" x1="0%" x2="100.001%" y1="49.999%" y2="49.999%">
            <stop offset="0%" stop-color="#C10021"/>
            <stop offset="100%" stop-color="#F0233D"/>
        </linearGradient>
        <linearGradient id="prefix__n" x1=".001%" x2="100%" y1="50%" y2="50%">
            <stop offset="0%" stop-color="#C10021"/>
            <stop offset="100%" stop-color="#F0233D"/>
        </linearGradient>
        <linearGradient id="prefix__q" x1="0%" x2="99.999%" y1="50.004%" y2="50.004%">
            <stop offset="0%" stop-color="#C10021"/>
            <stop offset="100%" stop-color="#F0233D"/>
        </linearGradient>
        <linearGradient id="prefix__t" x1=".003%" x2="100.003%" y1="49.998%" y2="49.998%">
            <stop offset="0%" stop-color="#C10021"/>
            <stop offset="100%" stop-color="#F0233D"/>
        </linearGradient>
        <linearGradient id="prefix__w" x1="-.001%" x2="100%" y1="50%" y2="50%">
            <stop offset="0%" stop-color="#C10021"/>
            <stop offset="100%" stop-color="#F0233D"/>
        </linearGradient>
        <linearGradient id="prefix__z" x1=".001%" x2="100.002%" y1="49.999%" y2="49.999%">
            <stop offset="0%" stop-color="#C10021"/>
            <stop offset="100%" stop-color="#F0233D"/>
        </linearGradient>
        <linearGradient id="prefix__C" x1="-.001%" x2="100%" y1="49.998%" y2="49.998%">
            <stop offset="0%" stop-color="#C10021"/>
            <stop offset="100%" stop-color="#F0233D"/>
        </linearGradient>
        <linearGradient id="prefix__F" x1=".004%" x2="100.005%" y1="50%" y2="50%">
            <stop offset="0%" stop-color="#C10021"/>
            <stop offset="100%" stop-color="#F0233D"/>
        </linearGradient>
        <linearGradient id="prefix__I" x1="-.001%" x2="99.998%" y1="50%" y2="50%">
            <stop offset="0%" stop-color="#C10021"/>
            <stop offset="100%" stop-color="#F0233D"/>
        </linearGradient>
        <linearGradient id="prefix__L" x1=".002%" x2="100.001%" y1="50%" y2="50%">
            <stop offset="0%" stop-color="#979797"/>
            <stop offset="100%" stop-color="#E4E4E4"/>
        </linearGradient>
        <linearGradient id="prefix__O" x1="0%" x2="100.001%" y1="50%" y2="50%">
            <stop offset="0%" stop-color="#979797"/>
            <stop offset="100%" stop-color="#E4E4E4"/>
        </linearGradient>
        <linearGradient id="prefix__R" x1="46.471%" x2="52.6%" y1="-4.155%" y2="86.025%">
            <stop offset="0%" stop-color="#646664"/>
            <stop offset="100%" stop-color="#333"/>
        </linearGradient>
        <linearGradient id="prefix__U" x1="-.009%" x2="100.006%" y1="49.996%" y2="49.996%">
            <stop offset="0%" stop-color="#646664"/>
            <stop offset="100%" stop-color="#333"/>
        </linearGradient>
        <linearGradient id="prefix__X" x1="-.009%" x2="100.006%" y1="49.987%" y2="49.987%">
            <stop offset="0%" stop-color="#646664"/>
            <stop offset="100%" stop-color="#333"/>
        </linearGradient>
        <linearGradient id="prefix__aa" x1="-.009%" x2="100.006%" y1="49.999%" y2="49.999%">
            <stop offset="0%" stop-color="#646664"/>
            <stop offset="100%" stop-color="#333"/>
        </linearGradient>
        <linearGradient id="prefix__ad" x1="-.009%" x2="100.006%" y1="49.986%" y2="49.986%">
            <stop offset="0%" stop-color="#646664"/>
            <stop offset="100%" stop-color="#333"/>
        </linearGradient>
        <linearGradient id="prefix__ag" x1="-.009%" x2="100.006%" y1="49.998%" y2="49.998%">
            <stop offset="0%" stop-color="#646664"/>
            <stop offset="100%" stop-color="#333"/>
        </linearGradient>
        <linearGradient id="prefix__aj" x1="-.009%" x2="100.006%" y1="50.01%" y2="50.01%">
            <stop offset="0%" stop-color="#646664"/>
            <stop offset="100%" stop-color="#333"/>
        </linearGradient>
        <linearGradient id="prefix__am" x1="-.009%" x2="100.006%" y1="50.008%" y2="50.008%">
            <stop offset="0%" stop-color="#646664"/>
            <stop offset="100%" stop-color="#333"/>
        </linearGradient>
        <linearGradient id="prefix__ap" x1="-.009%" x2="100.006%" y1="50.008%" y2="50.008%">
            <stop offset="0%" stop-color="#646664"/>
            <stop offset="100%" stop-color="#333"/>
        </linearGradient>
        <linearGradient id="prefix__as" x1="-.001%" x2="100%" y1="50%" y2="50%">
            <stop offset="0%" stop-color="#646664"/>
            <stop offset="100%" stop-color="#333"/>
        </linearGradient>
        <linearGradient id="prefix__av" x1="53.231%" x2="49.369%" y1="151.162%" y2="27.814%">
            <stop offset="0%" stop-color="#646664"/>
            <stop offset="100%" stop-color="#333"/>
        </linearGradient>
        <linearGradient id="prefix__ay" x1="-.004%" x2="99.999%" y1="50.001%" y2="50.001%">
            <stop offset="0%" stop-color="gray"/>
            <stop offset="100%" stop-color="#666"/>
        </linearGradient>
        <linearGradient id="prefix__aB" x1="-.003%" x2="99.997%" y1="49.991%" y2="49.991%">
            <stop offset="0%" stop-color="gray"/>
            <stop offset="100%" stop-color="#666"/>
        </linearGradient>
        <linearGradient id="prefix__aE" x1="-.003%" x2="99.997%" y1="49.999%" y2="49.999%">
            <stop offset="0%" stop-color="gray"/>
            <stop offset="100%" stop-color="#666"/>
        </linearGradient>
        <linearGradient id="prefix__aH" x1=".043%" x2="100.005%" y1="49.997%" y2="49.997%">
            <stop offset="0%" stop-color="#979797"/>
            <stop offset="100%" stop-color="#E4E4E4"/>
        </linearGradient>
        <linearGradient id="prefix__aK" x1="0%" x2="99.999%" y1="50.001%" y2="50.001%">
            <stop offset="0%" stop-color="#979797"/>
            <stop offset="100%" stop-color="#E4E4E4"/>
        </linearGradient>
        <linearGradient id="prefix__aN" x1="0%" x2="100%" y1="50%" y2="50%">
            <stop offset="0%" stop-color="#979797"/>
            <stop offset="100%" stop-color="#E4E4E4"/>
        </linearGradient>
        <linearGradient id="prefix__aQ" x1="-.001%" x2="100%" y1="49.999%" y2="49.999%">
            <stop offset="0%" stop-color="#979797"/>
            <stop offset="100%" stop-color="#E4E4E4"/>
        </linearGradient>
        <path id="prefix__a" d="M0 73.29L126.109 207.572 356.684 135.298 230.747 0.49z"/>
        <path id="prefix__d" d="M8.262 5.185c-10.274 5.931-10.274 15.55 0 21.483 10.275 5.931 26.934 5.931 37.208 0 10.275-5.933 10.275-15.552 0-21.483C40.333 2.218 33.6.735 26.866.735c-6.733 0-13.467 1.483-18.604 4.45"/>
        <path id="prefix__g" d="M.334 56.411v74.111l93.478-29.254 3.012-.791 88.613-28.168V.384L.334 56.411zm96.885-23.598l83.557-26.149v61.81L97.219 94.425V32.813zM4.785 59.949l88.158-26.276v62.995l-88.158 28.18V59.949z"/>
        <path id="prefix__j" d="M1.266 31.2c0 .915.643 2.201 1.435 2.871l14.818 12.525c.793.67 1.435.47 1.435-.444V32.706c0-.915-.642-2.2-1.435-2.87l-9.915-8.381.007-10.501c.002-4.208-2.413-8.076-6.244-9.816C1.113 1.022.963.967.963.967L1.266 31.2z"/>
        <path id="prefix__m" d="M.963.967S7.049 4.4 7.299 9.164c.251 4.762.305 12.291.305 12.291l9.377 7.927s1.867 1.065 1.957 3.174l-.455 14.424 1.95-.964V32.229c0-1.465-.514-2.919-1.569-3.934-.12-.115-.246-.225-.381-.33l-9.459-7.854S11.912 10.098 6.27 3.83C5.425 2.891 3.302 1.191 2.137.634L.963.967z"/>
        <path id="prefix__p" d="M0.037 7.068L0.037 11.557 19.469 5.071 19.469 0.581z"/>
        <path id="prefix__s" d="M.099 6.588l10.038 8.478v-4.182c0-1.301-.913-3.127-2.039-4.079L.099.051v6.537z"/>
        <path id="prefix__v" d="M.349 18.278v11.405c0 .915.642 2.2 1.435 2.871l14.818 12.524c.792.67 1.434.471 1.434-.444l.001-13.445c0-.916-.642-2.201-1.435-2.871l-9.915-8.38.606-11.093c-.246-2.087-1.644-4.66-3.291-6.051L.046.793l.303 17.485z"/>
        <path id="prefix__y" d="M.625 7.794l6.644 20.488.544 4.736 17.363-5.371 2.677-.303S36.488 9.417 22.963.967L.625 7.794z"/>
        <path id="prefix__B" d="M.649 8.034L12.34 23.647l21.129-7.066s1.707-5.12 0-6.836C30.544 6.806 22.587.889 22.587.889L.649 8.034z"/>
        <path id="prefix__E" d="M.929 31.027c0 .915.642 2.2 1.436 2.871l14.816 12.524c.793.67 1.435.471 1.435-.445V32.532c0-.915-.642-2.2-1.434-2.87l-9.915-8.381.006-10.502C7.275 6.573 4.86 2.704 1.029.964.775.849.625.793.625.793l.304 30.234z"/>
        <path id="prefix__H" d="M.626.793s6.085 3.433 6.336 8.196c.251 4.763.305 12.292.305 12.292l9.378 7.928s1.865 1.063 1.956 3.174l-.456 14.423 1.951-.964V32.055c0-1.464-.515-2.919-1.57-3.934-.119-.115-.245-.225-.381-.33l-9.458-7.853.115-8.851c.04-3.116-.943-6.198-2.944-8.588C5.045 1.531 4.061.653 2.896.097L.626.793z"/>
        <path id="prefix__K" d="M0.743 10.833L0.743 25.102 32.487 14.932 32.487 0.957z"/>
        <path id="prefix__N" d="M0.542 15.198L100.743 123.102 100.743 108.833 0.542 0.017z"/>
        <path id="prefix__Q" d="M0.036 68.937L69.842 140.917 69.842 66.182 0.036 0.485z"/>
        <path id="prefix__T" d="M0.361 3.381L0.361 4.639 4.673 1.789 4.795 0.599z"/>
        <path id="prefix__W" d="M0.361 2.979L0.361 4.237 4.673 1.387 4.795 0.197z"/>
        <path id="prefix__Z" d="M0.361 3.459L0.361 4.717 4.673 1.868 4.795 0.677z"/>
        <path id="prefix__ac" d="M0.361 2.939L0.361 4.198 4.673 1.348 4.795 0.158z"/>
        <path id="prefix__af" d="M0.361 3.42L0.361 4.678 4.673 1.829 4.795 0.638z"/>
        <path id="prefix__ai" d="M0.361 2.9L0.361 4.158 4.673 1.309 4.795 0.118z"/>
        <path id="prefix__al" d="M0.361 2.862L0.361 4.119 4.673 1.27 4.795 0.079z"/>
        <path id="prefix__ao" d="M0.361 3.342L0.361 4.6 4.673 1.75 4.795 0.559z"/>
        <path id="prefix__ar" d="M69.84 66.584L77.192 62.755 10.005 1.35 0.036 0.485z"/>
        <path id="prefix__au" d="M.458 3.991v40.883c0 .796.298 1.562.836 2.15l44.209 44.073c1.96 2.137 5.522.75 5.522-2.148V44.346c0-.84-.332-1.646-.925-2.241L5.891 1.749C5.242 1.097 4.444.805 3.66.805 2.026.805.458 2.074.458 3.991"/>
        <path id="prefix__ax" d="M3.095 1.863c-3.597 2.077-3.597 5.445 0 7.523 3.599 2.077 9.433 2.077 13.031 0 3.599-2.078 3.599-5.446 0-7.523C14.327.823 11.969.304 9.611.304c-2.358 0-4.717.519-6.516 1.559"/>
        <path id="prefix__aA" d="M1.584.526c-1.119.646-1.119 1.693 0 2.341 1.12.646 2.934.646 4.054 0 1.119-.648 1.119-1.695 0-2.341C5.078.203 4.344.041 3.611.041c-.734 0-1.467.162-2.027.485"/>
        <path id="prefix__aD" d="M1.584.799c-1.119.647-1.119 1.694 0 2.34 1.12.647 2.934.647 4.054 0 1.119-.646 1.119-1.693 0-2.34C5.078.476 4.344.314 3.611.314c-.734 0-1.467.162-2.027.485"/>
        <path id="prefix__aG" d="M.789.518v18.008h.007c.015.29.091.575.234.797.321.498.84.498 1.161 0 .144-.222.219-.507.235-.797h.006V.518H.789z"/>
        <path id="prefix__aJ" d="M5.571 3.52c-7.202 4.159-7.202 10.9 0 15.058 7.202 4.158 18.877 4.158 26.08 0 7.202-4.158 7.202-10.899 0-15.058C28.05 1.441 23.33.402 18.611.402c-4.72 0-9.439 1.039-13.04 3.118"/>
        <path id="prefix__aM" d="M48.22.823L25.322 6.18c-2.455.574-3.377 3.585-1.664 5.435l23.061 24.74c4.491 4.85 3.06 12.655-2.86 15.596L2.401 72.947c-2.063 1.025-2.46 3.799-.767 5.362L17.8 93.228c1.035.954 2.562 1.145 3.799.472l48.445-27.458c14.481-7.862 17.423-27.391 5.903-39.171L51.32 1.727c-.626-.641-1.477-.99-2.352-.99-.249 0-.5.028-.748.086"/>
        <path id="prefix__aP" d="M.823 9.547l25.535 28.87s2.692-4.675.509-8.531C24.685 26.03.823.413.823.413v9.134z"/>
    </defs>
    <g fill="none" fill-rule="evenodd">
        <path fill="#CBCBCB" d="M140.971 274.657L108.669 287.184 12.144 177.385 35.086 159.012z" transform="translate(17 -10)"/>
        <path fill="#333" d="M0 187.307L126.109 325.648 126.109 310.22 0 175.938zM126.109 310.053L126.109 326.05 356.684 252.853 356.684 238.168z" transform="translate(17 -10)"/>
        <g transform="translate(17 -10) translate(0 103.05)">
            <mask id="prefix__c" fill="#fff">
                <use xlink:href="#prefix__a"/>
            </mask>
            <path fill="url(#prefix__b)" d="M0 73.29L126.109 207.572 356.684 135.298 230.747 0.49z" mask="url(#prefix__c)"/>
        </g>
        <g>
            <path fill="#4D4D4D" d="M171.315 39.386c0 21.587-38.257 39.086-85.448 39.086-47.193 0-85.448-17.5-85.448-39.086C.419 17.799 38.674.3 85.867.3c47.19 0 85.448 17.499 85.448 39.086" transform="translate(17 -10) translate(100 165.05)"/>
            <path stroke="#000" stroke-width="2" d="M103.229 26.668c9.589 4.602 9.589 12.063 0 16.664-9.59 4.602-25.136 4.602-34.726 0-9.588-4.6-9.588-12.062 0-16.664 9.59-4.602 25.137-4.602 34.726 0zM61.312 20.143L61.312 34.117M110.42 20.143L110.42 34.117M85.867 47.169L85.867 24.54" transform="translate(17 -10) translate(100 165.05)"/>
        </g>
        <g transform="translate(17 -10) translate(159 168.05)">
            <mask id="prefix__f" fill="#fff">
                <use xlink:href="#prefix__d"/>
            </mask>
            <path fill="url(#prefix__e)" d="M8.262 5.185c-10.274 5.931-10.274 15.55 0 21.483 10.275 5.931 26.934 5.931 37.208 0 10.275-5.933 10.275-15.552 0-21.483C40.333 2.218 33.6.735 26.866.735c-6.733 0-13.467 1.483-18.604 4.45" mask="url(#prefix__f)"/>
        </g>
        <g>
            <path fill="#FFF" d="M197.47 171.675c10.275 5.933 10.275 15.551 0 21.482-10.274 5.933-26.934 5.933-37.208 0-10.274-5.931-10.274-15.549 0-21.482s26.934-5.933 37.208 0M.626 71.13L.626 174.038 224.89 105.344 224.89.95z" transform="translate(17 -10) translate(7 .05)"/>
            <path fill="#CBCBCB" d="M27.785 75.949L27.785 140.848 115.942 112.667 115.942 49.673zM203.777 22.664L120.219 48.812 120.219 110.425 203.777 84.474z" transform="translate(17 -10) translate(7 .05)"/>
        </g>
        <g transform="translate(17 -10) translate(30 16.05)">
            <mask id="prefix__i" fill="#fff">
                <use xlink:href="#prefix__g"/>
            </mask>
            <path fill="url(#prefix__h)" d="M.334 56.411v74.111l93.478-29.254 3.012-.791 88.613-28.168V.384L.334 56.411zm96.885-23.598l83.557-26.149v61.81L97.219 94.425V32.813zM4.785 59.949l88.158-26.276v62.995l-88.158 28.18V59.949z" mask="url(#prefix__i)"/>
        </g>
        <g>
            <path fill="#B2B2B2" d="M111.995 75.829L74.841 121.784 111.252 111.262zM3.639 87.65L227.903 16.067 227.903 3.102 3.639 73.282z" transform="translate(17 -10) translate(7 .05)"/>
            <path fill="#989898" d="M224.89 0.95L227.903 3.101 3.639 73.281 0.626 71.13z" transform="translate(17 -10) translate(7 .05)"/>
            <path fill="#B2B2B2" d="M200.015 47.514L162.861 93.469 199.272 82.947z" transform="translate(17 -10) translate(7 .05)"/>
            <path fill="#989898" d="M3.639 73.281L0.626 71.13 0.626 85.331 3.639 87.649z" transform="translate(17 -10) translate(7 .05)"/>
            <path fill="#000" d="M163.885 129.167L158.625 147.865 160.072 147.865 168.449 129.605zM174.301 136.541L169.041 155.238 170.488 155.238 178.866 136.978zM194.096 131.043L202.183 147.055 200.865 147.651 190.118 133.325z" transform="translate(17 -10) translate(7 .05)"/>
        </g>
        <g transform="translate(17 -10) translate(187 94.05)">
            <mask id="prefix__l" fill="#fff">
                <use xlink:href="#prefix__j"/>
            </mask>
            <path fill="url(#prefix__k)" d="M1.266 31.2c0 .915.643 2.201 1.435 2.871l14.818 12.525c.793.67 1.435.47 1.435-.444V32.706c0-.915-.642-2.2-1.435-2.87l-9.915-8.381.007-10.501c.002-4.208-2.413-8.076-6.244-9.816C1.113 1.022.963.967.963.967L1.266 31.2z" mask="url(#prefix__l)"/>
        </g>
        <g transform="translate(17 -10) translate(187 94.05)">
            <mask id="prefix__o" fill="#fff">
                <use xlink:href="#prefix__m"/>
            </mask>
            <path fill="url(#prefix__n)" d="M.963.967S7.049 4.4 7.299 9.164c.251 4.762.305 12.291.305 12.291l9.377 7.927s1.867 1.065 1.957 3.174l-.455 14.424 1.95-.964V32.229c0-1.465-.514-2.919-1.569-3.934-.12-.115-.246-.225-.381-.33l-9.459-7.854S11.912 10.098 6.27 3.83C5.425 2.891 3.302 1.191 2.137.634L.963.967z" mask="url(#prefix__o)"/>
        </g>
        <g transform="translate(17 -10) translate(185 134.05)">
            <mask id="prefix__r" fill="#fff">
                <use xlink:href="#prefix__p"/>
            </mask>
            <path fill="url(#prefix__q)" d="M0.037 7.068L0.037 11.557 19.469 5.071 19.469 0.581z" mask="url(#prefix__r)"/>
        </g>
        <g transform="translate(17 -10) translate(192 121.05)">
            <mask id="prefix__u" fill="#fff">
                <use xlink:href="#prefix__s"/>
            </mask>
            <path fill="url(#prefix__t)" d="M.099 6.588l10.038 8.478v-4.182c0-1.301-.913-3.127-2.039-4.079L.099.051v6.537z" mask="url(#prefix__u)"/>
        </g>
        <g transform="translate(17 -10) translate(167 101.05)">
            <mask id="prefix__x" fill="#fff">
                <use xlink:href="#prefix__v"/>
            </mask>
            <path fill="url(#prefix__w)" d="M.349 18.278v11.405c0 .915.642 2.2 1.435 2.871l14.818 12.524c.792.67 1.434.471 1.434-.444l.001-13.445c0-.916-.642-2.201-1.435-2.871l-9.915-8.38.606-11.093c-.246-2.087-1.644-4.66-3.291-6.051L.046.793l.303 17.485z" mask="url(#prefix__x)"/>
        </g>
        <g transform="translate(17 -10) translate(165 94.05)">
            <mask id="prefix__A" fill="#fff">
                <use xlink:href="#prefix__y"/>
            </mask>
            <path fill="url(#prefix__z)" d="M.625 7.794l6.644 20.488.544 4.736 17.363-5.371 2.677-.303S36.488 9.417 22.963.967L.625 7.794z" mask="url(#prefix__A)"/>
        </g>
        <g transform="translate(17 -10) translate(171 118.05)">
            <mask id="prefix__D" fill="#fff">
                <use xlink:href="#prefix__B"/>
            </mask>
            <path fill="url(#prefix__C)" d="M.649 8.034L12.34 23.647l21.129-7.066s1.707-5.12 0-6.836C30.544 6.806 22.587.889 22.587.889L.649 8.034z" mask="url(#prefix__D)"/>
        </g>
        <g transform="translate(17 -10) translate(165 101.05)">
            <mask id="prefix__G" fill="#fff">
                <use xlink:href="#prefix__E"/>
            </mask>
            <path fill="url(#prefix__F)" d="M.929 31.027c0 .915.642 2.2 1.436 2.871l14.816 12.524c.793.67 1.435.471 1.435-.445V32.532c0-.915-.642-2.2-1.434-2.87l-9.915-8.381.006-10.502C7.275 6.573 4.86 2.704 1.029.964.775.849.625.793.625.793l.304 30.234z" mask="url(#prefix__G)"/>
        </g>
        <g transform="translate(17 -10) translate(165 101.05)">
            <mask id="prefix__J" fill="#fff">
                <use xlink:href="#prefix__H"/>
            </mask>
            <path fill="url(#prefix__I)" d="M.626.793s6.085 3.433 6.336 8.196c.251 4.763.305 12.292.305 12.292l9.378 7.928s1.865 1.063 1.956 3.174l-.456 14.423 1.951-.964V32.055c0-1.464-.515-2.919-1.57-3.934-.119-.115-.245-.225-.381-.33l-9.458-7.853.115-8.851c.04-3.116-.943-6.198-2.944-8.588C5.045 1.531 4.061.653 2.896.097L.626.793z" mask="url(#prefix__J)"/>
        </g>
        <path fill="#CBCBCB" d="M139.488 267.007L107.743 276.883 7.543 168.067 41.767 161.212z" transform="translate(17 -10)"/>
        <g transform="translate(17 -10) translate(107 266.05)">
            <mask id="prefix__M" fill="#fff">
                <use xlink:href="#prefix__K"/>
            </mask>
            <path fill="url(#prefix__L)" d="M0.743 10.833L0.743 25.102 32.487 14.932 32.487 0.957z" mask="url(#prefix__M)"/>
        </g>
        <g transform="translate(17 -10) translate(7 168.05)">
            <mask id="prefix__P" fill="#fff">
                <use xlink:href="#prefix__N"/>
            </mask>
            <path fill="url(#prefix__O)" d="M0.542 15.198L100.743 123.102 100.743 108.833 0.542 0.017z" mask="url(#prefix__P)"/>
        </g>
        <g transform="translate(17 -10) translate(12 96.05)">
            <mask id="prefix__S" fill="#fff">
                <use xlink:href="#prefix__Q"/>
            </mask>
            <path fill="url(#prefix__R)" d="M0.036 68.937L69.842 140.917 69.842 66.182 0.036 0.485z" mask="url(#prefix__S)"/>
        </g>
        <path fill="#1A1A1A" d="M81.84 162.065L81.84 237.37 90.024 228.157 89.192 158.805z" transform="translate(17 -10)"/>
        <g transform="translate(17 -10) translate(84 198.05)">
            <mask id="prefix__V" fill="#fff">
                <use xlink:href="#prefix__T"/>
            </mask>
            <path fill="url(#prefix__U)" d="M0.361 3.381L0.361 4.639 4.673 1.789 4.795 0.599z" mask="url(#prefix__V)"/>
        </g>
        <g transform="translate(17 -10) translate(84 186.05)">
            <mask id="prefix__Y" fill="#fff">
                <use xlink:href="#prefix__W"/>
            </mask>
            <path fill="url(#prefix__X)" d="M0.361 2.979L0.361 4.237 4.673 1.387 4.795 0.197z" mask="url(#prefix__Y)"/>
        </g>
        <g transform="translate(17 -10) translate(84 188.05)">
            <mask id="prefix__ab" fill="#fff">
                <use xlink:href="#prefix__Z"/>
            </mask>
            <path fill="url(#prefix__aa)" d="M0.361 3.459L0.361 4.717 4.673 1.868 4.795 0.677z" mask="url(#prefix__ab)"/>
        </g>
        <g transform="translate(17 -10) translate(84 191.05)">
            <mask id="prefix__ae" fill="#fff">
                <use xlink:href="#prefix__ac"/>
            </mask>
            <path fill="url(#prefix__ad)" d="M0.361 2.939L0.361 4.198 4.673 1.348 4.795 0.158z" mask="url(#prefix__ae)"/>
        </g>
        <g transform="translate(17 -10) translate(84 193.05)">
            <mask id="prefix__ah" fill="#fff">
                <use xlink:href="#prefix__af"/>
            </mask>
            <path fill="url(#prefix__ag)" d="M0.361 3.42L0.361 4.678 4.673 1.829 4.795 0.638z" mask="url(#prefix__ah)"/>
        </g>
        <g transform="translate(17 -10) translate(84 196.05)">
            <mask id="prefix__ak" fill="#fff">
                <use xlink:href="#prefix__ai"/>
            </mask>
            <path fill="url(#prefix__aj)" d="M0.361 2.9L0.361 4.158 4.673 1.309 4.795 0.118z" mask="url(#prefix__ak)"/>
        </g>
        <g transform="translate(17 -10) translate(84 201.05)">
            <mask id="prefix__an" fill="#fff">
                <use xlink:href="#prefix__al"/>
            </mask>
            <path fill="url(#prefix__am)" d="M0.361 2.862L0.361 4.119 4.673 1.27 4.795 0.079z" mask="url(#prefix__an)"/>
        </g>
        <g transform="translate(17 -10) translate(84 203.05)">
            <mask id="prefix__aq" fill="#fff">
                <use xlink:href="#prefix__ao"/>
            </mask>
            <path fill="url(#prefix__ap)" d="M0.361 3.342L0.361 4.6 4.673 1.75 4.795 0.559z" mask="url(#prefix__aq)"/>
        </g>
        <g transform="translate(17 -10) translate(12 96.05)">
            <mask id="prefix__at" fill="#fff">
                <use xlink:href="#prefix__ar"/>
            </mask>
            <path fill="url(#prefix__as)" d="M69.84 66.584L77.192 62.755 10.005 1.35 0.036 0.485z" mask="url(#prefix__at)"/>
        </g>
        <path fill="#1A1A1A" d="M70.2 161.228L25.99 120.874c-.797-.802-1.82-1.052-2.765-.892l-.008-.02-4.39 1.004 1.86 1.246c-.081.283-.13.582-.13.903v40.884c0 .795.297 1.562.835 2.148l43.424 43.218-.316 2.745 4.13-.935.055-.012.053-.012-.002-.004c1.302-.34 2.388-1.476 2.388-3.075v-44.603c0-.84-.332-1.645-.925-2.241" transform="translate(17 -10)"/>
        <g transform="translate(17 -10) translate(16 120.05)">
            <mask id="prefix__aw" fill="#fff">
                <use xlink:href="#prefix__au"/>
            </mask>
            <path fill="url(#prefix__av)" d="M.458 3.991v40.883c0 .796.298 1.562.836 2.15l44.209 44.073c1.96 2.137 5.522.75 5.522-2.148V44.346c0-.84-.332-1.646-.925-2.241L5.891 1.749C5.242 1.097 4.444.805 3.66.805 2.026.805.458 2.074.458 3.991" mask="url(#prefix__aw)"/>
        </g>
        <g fill="#B2B2B2">
            <path d="M1.895.676c.367.554.345 1.215-.05 1.477-.395.262-1.012.026-1.381-.527C.097 1.073.12.412.514.15.91-.113 1.528.123 1.894.676M1.895 39.61c.367.553.345 1.214-.05 1.477-.395.262-1.012.026-1.381-.527-.367-.554-.344-1.215.05-1.476.396-.263 1.014-.027 1.38.526M43.98 40.376c.368.554.346 1.215-.05 1.477-.394.262-1.012.026-1.38-.527-.367-.553-.344-1.214.05-1.476.395-.263 1.013-.027 1.38.526M43.98 79.31c.368.553.346 1.214-.05 1.477-.394.262-1.012.026-1.38-.527-.367-.554-.344-1.215.05-1.476.395-.263 1.013-.027 1.38.526" transform="translate(17 -10) translate(19 125.05)"/>
        </g>
        <g transform="translate(17 -10) translate(218 133.05)">
            <mask id="prefix__az" fill="#fff">
                <use xlink:href="#prefix__ax"/>
            </mask>
            <path fill="url(#prefix__ay)" d="M3.095 1.863c-3.597 2.077-3.597 5.445 0 7.523 3.599 2.077 9.433 2.077 13.031 0 3.599-2.078 3.599-5.446 0-7.523C14.327.823 11.969.304 9.611.304c-2.358 0-4.717.519-6.516 1.559" mask="url(#prefix__az)"/>
        </g>
        <path fill="#1A1A1A" d="M234.126 133.984c3.6 2.078 3.6 5.446 0 7.524-3.599 2.078-9.433 2.078-13.03 0-3.599-2.078-3.599-5.446 0-7.524 3.597-2.077 9.431-2.077 13.03 0" transform="translate(17 -10)"/>
        <g transform="translate(17 -10) translate(224 136.05)">
            <mask id="prefix__aC" fill="#fff">
                <use xlink:href="#prefix__aA"/>
            </mask>
            <path fill="url(#prefix__aB)" d="M1.584.526c-1.119.646-1.119 1.693 0 2.341 1.12.646 2.934.646 4.054 0 1.119-.648 1.119-1.695 0-2.341C5.078.203 4.344.041 3.611.041c-.734 0-1.467.162-2.027.485" mask="url(#prefix__aC)"/>
        </g>
        <g transform="translate(17 -10) translate(224 135.05)">
            <mask id="prefix__aF" fill="#fff">
                <use xlink:href="#prefix__aD"/>
            </mask>
            <path fill="url(#prefix__aE)" d="M1.584.799c-1.119.647-1.119 1.694 0 2.34 1.12.647 2.934.647 4.054 0 1.119-.646 1.119-1.693 0-2.34C5.078.476 4.344.314 3.611.314c-.734 0-1.467.162-2.027.485" mask="url(#prefix__aF)"/>
        </g>
        <g transform="translate(17 -10) translate(226 118.05)">
            <mask id="prefix__aI" fill="#fff">
                <use xlink:href="#prefix__aG"/>
            </mask>
            <path fill="url(#prefix__aH)" d="M.789.518v18.008h.007c.015.29.091.575.234.797.321.498.84.498 1.161 0 .144-.222.219-.507.235-.797h.006V.518H.789z" mask="url(#prefix__aI)"/>
        </g>
        <g transform="translate(17 -10) translate(209 106.05)">
            <mask id="prefix__aL" fill="#fff">
                <use xlink:href="#prefix__aJ"/>
            </mask>
            <path fill="url(#prefix__aK)" d="M5.571 3.52c-7.202 4.159-7.202 10.9 0 15.058 7.202 4.158 18.877 4.158 26.08 0 7.202-4.158 7.202-10.899 0-15.058C28.05 1.441 23.33.402 18.611.402c-4.72 0-9.439 1.039-13.04 3.118" mask="url(#prefix__aL)"/>
        </g>
        <path fill="#E5E5E5" d="M240.65 108.513c7.203 4.157 7.203 10.9 0 15.057-7.201 4.158-18.877 4.158-26.08 0-7.2-4.158-7.2-10.9 0-15.057 7.203-4.158 18.879-4.158 26.08 0" transform="translate(17 -10)"/>
        <g transform="translate(17 -10) translate(218 159.05)">
            <mask id="prefix__aO" fill="#fff">
                <use xlink:href="#prefix__aM"/>
            </mask>
            <path fill="url(#prefix__aN)" d="M48.22.823L25.322 6.18c-2.455.574-3.377 3.585-1.664 5.435l23.061 24.74c4.491 4.85 3.06 12.655-2.86 15.596L2.401 72.947c-2.063 1.025-2.46 3.799-.767 5.362L17.8 93.228c1.035.954 2.562 1.145 3.799.472l48.445-27.458c14.481-7.862 17.423-27.391 5.903-39.171L51.32 1.727c-.626-.641-1.477-.99-2.352-.99-.249 0-.5.028-.748.086" mask="url(#prefix__aO)"/>
        </g>
        <path fill="#CBCBCB" d="M301.027 202.68l-1.603.662c-1.168-3.08-2.982-5.996-5.476-8.547l-24.628-25.344c-.804-.822-1.98-1.165-3.1-.903l-22.897 5.357c-2.456.575-3.377 3.585-1.664 5.435l23.06 24.74c3.74 4.04 3.36 10.12-.287 13.741l-45.856 18.007v8.907l.33.27c.176.371.4.727.728 1.028l16.166 14.92c1.036.955 2.563 1.144 3.799.472l48.446-27.458c8.747-4.75 13.275-13.757 12.958-22.742l.024-.017v-8.529z" transform="translate(17 -10)"/>
        <g transform="translate(17 -10) translate(240 168.05)">
            <mask id="prefix__aR" fill="#fff">
                <use xlink:href="#prefix__aP"/>
            </mask>
            <path fill="url(#prefix__aQ)" d="M.823 9.547l25.535 28.87s2.692-4.675.509-8.531C24.685 26.03.823.413.823.413v9.134z" mask="url(#prefix__aR)"/>
        </g>
        <g>
            <path fill="#F1F1F1" d="M2.4 85.947L43.86 64.951c5.92-2.94 7.352-10.746 2.86-15.597l-23.06-24.739c-1.713-1.85-.791-4.86 1.664-5.436l22.897-5.356c1.12-.262 2.296.081 3.1.903L75.948 40.07c11.519 11.78 8.577 31.31-5.903 39.172L21.599 106.7c-1.236.672-2.763.481-3.8-.473L1.635 91.308c-1.692-1.562-1.296-4.336.767-5.36" transform="translate(17 -10) translate(218 146.05)"/>
            <path fill="#CBCBCB" d="M84.748 50.536c.064.135.132.27.193.405.061-.134.114-.27.171-.405h-.364z" transform="translate(17 -10) translate(218 146.05)"/>
            <path fill="#989898" d="M85.386 43.245c-1.104-7.1-10.874-16.899-10.874-16.899l-8.33-8.808-3.243-.948v10.177L75.948 40.07c3.07 3.14 5.103 6.832 6.174 10.706l1.243 5.6s3.125-6.029 2.021-13.13" transform="translate(17 -10) translate(218 146.05)"/>
            <path fill="#989898" d="M87.12 59.979V46.425l-2.372-.992-3.024 15.569c-1.994 2.496-4.512 4.664-7.548 6.312L36.612 87.913c-1.237.67-2.764.48-3.8-.474v15.716c1.036.955 2.563 1.145 3.8.473L74.176 83.03C87.263 75.923 87.12 64.205 87.12 64.205v-1.88c.035-.781.037-1.563 0-2.346" transform="translate(17 -10) translate(218 146.05)"/>
            <path fill="gray" d="M64.059 15.607c1.12-.262 2.295.08 3.1.903l12.92 13.737c11.52 11.78 8.577 29.287-5.903 37.149l-37.563 20.6c-1.238.67-2.765.48-3.8-.474L72.053 64.8c15.068-9.73 15.038-23.385 4.216-34.453l-13.33-13.676c-.755-.772 1.12-1.065 1.12-1.065" transform="translate(17 -10) translate(218 146.05)"/>
            <path fill="#4D4D4D" d="M84.93 42.384l-5.221-12.019-3.023 15.57c-1.994 2.495-4.513 4.663-7.55 6.311L31.575 72.845c-1.238.672-2.765.481-3.8-.474v28.396c1.035.955 2.562 1.145 3.8.473l37.563-20.598c13.088-7.107 14.595-18.885 14.595-18.885l1.198-19.373z" transform="translate(17 -10) translate(218 146.05)"/>
            <path fill="#B2B2B2" d="M87.12 59.979V46.425l-2.372-.992-3.024 15.569c-1.994 2.496-4.512 4.664-7.548 6.312L36.612 87.913c-1.237.67-2.764.48-3.8-.474v15.716c1.036.955 2.563 1.145 3.8.473L74.176 83.03C87.263 75.923 87.12 64.205 87.12 64.205v-1.88c.035-.781.037-1.563 0-2.346" transform="translate(17 -10) translate(218 146.05)"/>
            <path fill="#989898" d="M64.059 15.607c1.12-.262 2.295.08 3.1.903l12.92 13.737c11.52 11.78 8.577 29.287-5.903 37.149l-37.563 20.6c-1.238.67-2.765.48-3.8-.474L72.053 64.8c15.068-9.73 15.038-23.385 4.216-34.453l-13.33-13.676c-.755-.772 1.12-1.065 1.12-1.065" transform="translate(17 -10) translate(218 146.05)"/>
            <path fill="#4D4D4D" d="M80.347 28.178c-1.104-7.101-10.873-16.9-10.873-16.9l-8.33-8.807-3.243-.948v22.434L70.909 37.26c3.07 3.14 5.103 6.833 6.174 10.706l1.243 5.6s3.125-18.286 2.02-25.388" transform="translate(17 -10) translate(218 146.05)"/>
            <path fill="gray" d="M59.02.54c1.12-.263 2.296.08 3.1.902L75.04 15.18c11.52 11.78 8.578 29.287-5.903 37.15l-37.563 20.6c-1.238.67-2.765.48-3.8-.475l39.239-22.72c15.068-9.73 15.039-23.386 4.217-34.454L57.9 1.604C57.146.832 59.02.54 59.02.54" transform="translate(17 -10) translate(218 146.05)"/>
            <path stroke="#989898" stroke-width=".25" d="M49.721 59.746L52.843 61.783 52.843 75.51M71.158 46.6L74.28 48.636 74.28 63.148M74.753 42.539L74.753 19.49 78.415 19.389" transform="translate(17 -10) translate(218 146.05)"/>
        </g>
    </g>
</svg>
