<svg xmlns="http://www.w3.org/2000/svg" xmlns:xlink="http://www.w3.org/1999/xlink" width="455" height="399" viewBox="0 0 455 399">
    <defs>
        <path id="prefix__a" d="M0 84.841L123.49 219.48l272.342-85.038h-.002L272.708.924C264.907 1.743 0 84.841 0 84.841"/>
        <path id="prefix__d" d="M.45 28.746l-.026 76.028 88.993-27.62.181-76.741L.45 28.746zm49.708-10.373L84.934 6.692l-.179 67.387-34.774 10.722.177-66.428zM4.902 32.287l40.979-13.055-.177 67.035L4.877 99.101l.025-66.814z"/>
        <path id="prefix__g" d="M.973 28.868l-.026 76.027 88.993-27.62.18-76.74L.973 28.868zm49.709-10.373L85.457 6.814l-.179 67.388-34.774 10.721.178-66.428zM5.424 32.409l40.981-13.055-.177 67.035L5.401 99.223l.023-66.814z"/>
        <path id="prefix__j" d="M0.207 0.182L275.91 0.182 275.91 88.049 0.207 88.049z"/>
        <path id="prefix__l" d="M.193.569v11.658c0 8.241 14.403 14.922 32.171 14.922s32.172-6.681 32.172-14.922V.569H.193z"/>
        <path id="prefix__o" d="M0 340L396.098 340 396.098 0.182 0 0.182z"/>
        <path id="prefix__q" d="M.193.593v81.814c0 8.24 14.403 14.921 32.171 14.921s32.172-6.681 32.172-14.921V.593H.193z"/>
        <path id="prefix__t" d="M32.364 15.896C14.596 15.896.193 9.215.193.975v11.657c0 8.24 14.403 14.921 32.171 14.921s32.172-6.681 32.172-14.921V.975c0 8.24-14.404 14.921-32.172 14.921"/>
        <path id="prefix__w" d="M32.364 15.896C14.596 15.896.193 9.215.193.975v11.657c0 8.24 14.403 14.921 32.171 14.921s32.172-6.681 32.172-14.921V.975c0 8.24-14.404 14.921-32.172 14.921"/>
        <path id="prefix__y" d="M0.512 8.575L0.512 34.658 38.485 26.453 38.485 0.369z"/>
        <path id="prefix__B" d="M0.902 8.23L0.902 32.403 36.094 24.798 36.094 0.626z"/>
        <path id="prefix__E" d="M0.618 26.281L2.512 27.658 2.512 1.575 0.618 0.697z"/>
        <path id="prefix__H" d="M0.618 8.697L2.512 9.575 40.485 1.369 38.161 0.729z"/>
        <path id="prefix__K" d="M.734.022V11.68c0 8.24 14.404 14.921 32.172 14.921 17.767 0 32.171-6.681 32.171-14.921V.022H.734z"/>
        <path id="prefix__N" d="M0 340L396.098 340 396.098 0.182 0 0.182z"/>
        <path id="prefix__P" d="M.734.045v81.814c0 8.24 14.404 14.921 32.172 14.921 17.768 0 32.171-6.681 32.171-14.921V.045H.734z"/>
        <path id="prefix__S" d="M32.906 15.348C15.138 15.348.734 8.667.734.427v11.657c0 8.241 14.404 14.921 32.172 14.921 17.767 0 32.171-6.68 32.171-14.921V.427c0 8.24-14.404 14.921-32.171 14.921"/>
        <path id="prefix__V" d="M32.906 15.348C15.138 15.348.734 8.667.734.427v11.657c0 8.241 14.404 14.921 32.172 14.921 17.767 0 32.171-6.68 32.171-14.921V.427c0 8.24-14.404 14.921-32.171 14.921"/>
        <path id="prefix__X" d="M0.053 9.027L0.053 35.11 38.026 26.905 38.026 0.823z"/>
        <path id="prefix__aa" d="M0.445 7.682L0.445 31.855 35.636 24.251 35.636 0.078z"/>
        <path id="prefix__ad" d="M0.158 25.734L2.053 27.11 2.053 1.027 0.158 0.149z"/>
        <path id="prefix__ag" d="M0.158 8.149L2.053 9.027 40.026 0.823 37.702 0.181z"/>
        <path id="prefix__aj" d="M0 340L396.098 340 396.098 0.182 0 0.182z"/>
        <linearGradient id="prefix__b" x1="0%" x2="100%" y1="50%" y2="50%">
            <stop offset="0%" stop-color="#646664"/>
            <stop offset="100%" stop-color="#4D4D4D"/>
        </linearGradient>
        <linearGradient id="prefix__e" x1="-112.97%" x2="99.983%" y1="49.961%" y2="50.012%">
            <stop offset="0%" stop-color="#646664"/>
            <stop offset="100%" stop-color="#333"/>
        </linearGradient>
        <linearGradient id="prefix__h" x1="-112.971%" x2="99.985%" y1="49.961%" y2="50.012%">
            <stop offset="0%" stop-color="#646664"/>
            <stop offset="100%" stop-color="#333"/>
        </linearGradient>
        <linearGradient id="prefix__m" x1="0%" x2="99.999%" y1="50%" y2="50%">
            <stop offset="0%" stop-color="#F0233D"/>
            <stop offset="100%" stop-color="#FF7979"/>
        </linearGradient>
        <linearGradient id="prefix__r" x1="48.964%" x2="50.805%" y1="121.548%" y2="-19.283%">
            <stop offset="0%" stop-color="#FFF"/>
            <stop offset="100%" stop-color="#FFF"/>
        </linearGradient>
        <linearGradient id="prefix__u" x1="0%" x2="99.999%" y1="50%" y2="50%">
            <stop offset="0%" stop-color="#F0233D"/>
            <stop offset="100%" stop-color="#FF7979"/>
        </linearGradient>
        <linearGradient id="prefix__z" x1="-.001%" x2="100%" y1="50.001%" y2="50.001%">
            <stop offset="0%" stop-color="#646664"/>
            <stop offset="100%" stop-color="#333"/>
        </linearGradient>
        <linearGradient id="prefix__C" x1="116.258%" x2="19.207%" y1="25.607%" y2="61.335%">
            <stop offset="0%" stop-color="#646664"/>
            <stop offset="100%" stop-color="#333"/>
        </linearGradient>
        <linearGradient id="prefix__F" x1="-.049%" x2="99.989%" y1="49.999%" y2="49.999%">
            <stop offset="0%" stop-color="#646664"/>
            <stop offset="100%" stop-color="#333"/>
        </linearGradient>
        <linearGradient id="prefix__I" x1="-.002%" x2="100%" y1="50.002%" y2="50.002%">
            <stop offset="0%" stop-color="#646664"/>
            <stop offset="100%" stop-color="#333"/>
        </linearGradient>
        <linearGradient id="prefix__L" x1=".001%" x2="100%" y1="50%" y2="50%">
            <stop offset="0%" stop-color="#F0233D"/>
            <stop offset="100%" stop-color="#FF7979"/>
        </linearGradient>
        <linearGradient id="prefix__Q" x1="48.965%" x2="50.806%" y1="121.548%" y2="-19.283%">
            <stop offset="0%" stop-color="#FFF"/>
            <stop offset="100%" stop-color="#FFF"/>
        </linearGradient>
        <linearGradient id="prefix__T" x1=".001%" x2="100%" y1="50.001%" y2="50.001%">
            <stop offset="0%" stop-color="#F0233D"/>
            <stop offset="100%" stop-color="#FF7979"/>
        </linearGradient>
        <linearGradient id="prefix__Y" x1=".001%" x2="100.002%" y1="50%" y2="50%">
            <stop offset="0%" stop-color="#646664"/>
            <stop offset="100%" stop-color="#333"/>
        </linearGradient>
        <linearGradient id="prefix__ab" x1="116.258%" x2="19.204%" y1="25.608%" y2="61.336%">
            <stop offset="0%" stop-color="#646664"/>
            <stop offset="100%" stop-color="#333"/>
        </linearGradient>
        <linearGradient id="prefix__ae" x1=".037%" x2="100.022%" y1="50.001%" y2="50.001%">
            <stop offset="0%" stop-color="#646664"/>
            <stop offset="100%" stop-color="#333"/>
        </linearGradient>
        <linearGradient id="prefix__ah" x1=".002%" x2="100.002%" y1="50.006%" y2="50.006%">
            <stop offset="0%" stop-color="#646664"/>
            <stop offset="100%" stop-color="#333"/>
        </linearGradient>
    </defs>
    <g fill="none" fill-rule="evenodd">
        <path fill="#1A1A1A" d="M0 202.24L123.46 340.817 123.46 325.298 0 190.787z" transform="translate(29 29)"/>
        <path fill="#333" d="M123.46 325.298L123.46 340.818 396.098 254.914 395.83 240.26z" transform="translate(29 29)"/>
        <g transform="translate(29 29) translate(0 105.818)">
            <mask id="prefix__c" fill="#fff">
                <use xlink:href="#prefix__a"/>
            </mask>
            <path fill="url(#prefix__b)" d="M0 84.841L123.49 219.48l272.342-85.038h-.002L272.708.924C264.907 1.743 0 84.841 0 84.841" mask="url(#prefix__c)"/>
        </g>
        <g>
            <path fill="#FFF" d="M0.206 85.917L0.206 180.969 272.896 96.923 272.896 0.201z" transform="translate(29 29) translate(0 9.818)"/>
            <path fill="#CBCBCB" d="M48.902 73.286L48.878 140.1 89.705 127.266 89.804 61.233zM128.934 47.693L94.159 60.053 93.981 126.482 128.755 115.08z" transform="translate(29 29) translate(0 9.818)"/>
        </g>
        <g transform="translate(29 29) translate(44 50.818)">
            <mask id="prefix__f" fill="#fff">
                <use xlink:href="#prefix__d"/>
            </mask>
            <path fill="url(#prefix__e)" d="M.45 28.746l-.026 76.028 88.993-27.62.181-76.741L.45 28.746zm49.708-10.373L84.934 6.692l-.179 67.387-34.774 10.722.177-66.428zM4.902 32.287l40.979-13.055-.177 67.035L4.877 99.101l.025-66.814z" mask="url(#prefix__f)"/>
        </g>
        <g>
            <path fill="#B2B2B2" d="M28.923 63.883L.137 114.393 28.335 106.252zM68.162 49.326L38.85 100.758 67.564 92.469z" transform="translate(29 29) translate(57 26.818)"/>
            <path fill="#CBCBCB" d="M86.424 26.409L86.401 93.222 127.228 80.388 127.326 14.355zM166.457.814L131.682 13.175 131.504 79.604 166.278 68.202z" transform="translate(29 29) translate(57 26.818)"/>
        </g>
        <g transform="translate(29 29) translate(138 20.818)">
            <mask id="prefix__i" fill="#fff">
                <use xlink:href="#prefix__g"/>
            </mask>
            <path fill="url(#prefix__h)" d="M.973 28.868l-.026 76.027 88.993-27.62.18-76.74L.973 28.868zm49.709-10.373L85.457 6.814l-.179 67.388-34.774 10.721.178-66.428zM5.424 32.409l40.981-13.055-.177 67.035L5.401 99.223l.023-66.814z" mask="url(#prefix__i)"/>
        </g>
        <g transform="translate(29 29) translate(0 .818)">
            <path fill="#B2B2B2" d="M180.446 60.005L151.661 110.514 179.858 102.373zM219.686 45.449L190.374 96.88 219.088 88.591z"/>
            <path fill="#989898" d="M3.219 88.049L0.206 85.898 0.206 100.099 3.219 102.417z"/>
            <path fill="#B2B2B2" d="M3.219 102.417L275.909 14.222 275.909 2.333 3.219 88.049z"/>
            <mask id="prefix__k" fill="#fff">
                <use xlink:href="#prefix__j"/>
            </mask>
            <path fill="#989898" d="M272.897 0.182L275.91 2.333 3.219 88.049 0.207 85.898z" mask="url(#prefix__k)"/>
            <path fill="#FFF" d="M142.535 161.555c0-8.241-14.403-14.922-32.17-14.922-17.768 0-32.173 6.681-32.173 14.922v-4.116c0-8.241 14.405-14.922 32.172-14.922 17.768 0 32.171 6.681 32.171 14.922v4.116z"/>
        </g>
        <g transform="translate(29 29) translate(78 192.818)">
            <mask id="prefix__n" fill="#fff">
                <use xlink:href="#prefix__l"/>
            </mask>
            <path fill="url(#prefix__m)" d="M.193.569v11.658c0 8.241 14.403 14.922 32.171 14.922s32.172-6.681 32.172-14.922V.569H.193z" mask="url(#prefix__n)"/>
        </g>
        <g transform="translate(29 29) translate(0 .818)">
            <path fill="#FF7A79" d="M142.535 192.57c0 8.24-14.403 14.92-32.17 14.92-17.768 0-32.173-6.68-32.173-14.92s14.405-14.921 32.172-14.921c17.768 0 32.171 6.68 32.171 14.92"/>
            <mask id="prefix__p" fill="#fff">
                <use xlink:href="#prefix__o"/>
            </mask>
            <path fill="#FFF" d="M108.822 204.285L111.906 204.285 111.906 120.491 108.822 120.491z" mask="url(#prefix__p)"/>
        </g>
        <g transform="translate(29 29) translate(78 107.818)">
            <mask id="prefix__s" fill="#fff">
                <use xlink:href="#prefix__q"/>
            </mask>
            <path fill="url(#prefix__r)" d="M.193.593v81.814c0 8.24 14.403 14.921 32.171 14.921s32.172-6.681 32.172-14.921V.593H.193z" mask="url(#prefix__s)"/>
        </g>
        <g fill="#FF7A79">
            <path d="M64.535 30.593c0 8.241-14.403 14.921-32.17 14.921-17.768 0-32.173-6.68-32.173-14.921 0-8.24 14.405-14.921 32.172-14.921 17.768 0 32.171 6.681 32.171 14.921" transform="translate(29 29) translate(78 77.818)"/>
            <path d="M64.535 14.975c0 8.24-14.403 14.92-32.17 14.92-17.768 0-32.173-6.68-32.173-14.92C.192 6.734 14.597.053 32.364.053c17.768 0 32.171 6.68 32.171 14.922" transform="translate(29 29) translate(78 77.818)"/>
        </g>
        <g transform="translate(29 29) translate(78 91.818)">
            <mask id="prefix__v" fill="#fff">
                <use xlink:href="#prefix__t"/>
            </mask>
            <path fill="url(#prefix__u)" d="M32.364 15.896C14.596 15.896.193 9.215.193.975v11.657c0 8.24 14.403 14.921 32.171 14.921s32.172-6.681 32.172-14.921V.975c0 8.24-14.404 14.921-32.172 14.921" mask="url(#prefix__v)"/>
        </g>
        <g>
            <path fill="#FFF" d="M58.17 110.26V74.654s-14.598-8.112-25.806-6.246C21.156 70.276.192 80.662.192 80.662v33.572l8.485 6.355c-5.819-11.559 17.741-18.387 28.4-17.07l21.093 6.74z" transform="translate(29 29) translate(78 77.818)"/>
            <path fill="#FF7A79" d="M64.535 14.975c0 8.24-14.403 14.92-32.17 14.92-17.768 0-32.173-6.68-32.173-14.92C.192 6.734 14.597.053 32.364.053c17.768 0 32.171 6.68 32.171 14.922" transform="translate(29 29) translate(78 77.818)"/>
            <path fill="#F1F1F1" d="M61.075 73.923c-5.309-4.854-16.172-8.182-28.71-8.182-17.769 0-32.172 6.68-32.172 14.921 0 3.09 2.026 5.961 5.495 8.343l5.978-2.826c-2.693-1.575-4.264-3.474-4.264-5.517 0-5.449 11.176-9.867 24.962-9.867 9.73 0 18.159 2.2 22.277 5.41l6.434-2.282zM61.075 109.229c-5.309-4.854-16.172-8.182-28.71-8.182-17.769 0-32.172 6.68-32.172 14.92 0 3.092 2.026 5.962 5.495 8.344l5.978-2.826c-2.693-1.574-4.264-3.473-4.264-5.517 0-5.45 11.176-9.867 24.962-9.867 9.73 0 18.159 2.2 22.277 5.41l6.434-2.282z" transform="translate(29 29) translate(78 77.818)"/>
        </g>
        <g transform="translate(29 29) translate(78 91.818)">
            <mask id="prefix__x" fill="#fff">
                <use xlink:href="#prefix__w"/>
            </mask>
            <path fill="url(#prefix__u)" d="M32.364 15.896C14.596 15.896.193 9.215.193.975v11.657c0 8.24 14.403 14.921 32.171 14.921s32.172-6.681 32.172-14.921V.975c0 8.24-14.404 14.921-32.172 14.921" mask="url(#prefix__x)"/>
        </g>
        <g>
            <path fill="#CBCBCB" d="M11.665 13.179L11.665 48.485 5.687 51.311 5.687 16.005zM54.641 3.205L54.641 38.512 61.075 36.228 61.075.923z" transform="translate(29 29) translate(78 150.818)"/>
            <path fill="#F1F1F1" d="M5.688 51.31V16.006S-2.086 10.779.623 5.239c0 0-.718.826-.574 7.94.144 7.114.144 29.789.144 29.789s-.975 6.479 5.495 8.343" transform="translate(29 29) translate(78 150.818)"/>
        </g>
        <g transform="translate(29 29) translate(100 133.818)">
            <mask id="prefix__A" fill="#fff">
                <use xlink:href="#prefix__y"/>
            </mask>
            <path fill="url(#prefix__z)" d="M0.512 8.575L0.512 34.658 38.485 26.453 38.485 0.369z" mask="url(#prefix__A)"/>
        </g>
        <g transform="translate(29 29) translate(101 134.818)">
            <mask id="prefix__D" fill="#fff">
                <use xlink:href="#prefix__B"/>
            </mask>
            <path fill="url(#prefix__C)" d="M0.902 8.23L0.902 32.403 36.094 24.798 36.094 0.626z" mask="url(#prefix__D)"/>
        </g>
        <g transform="translate(29 29) translate(98 140.818)">
            <mask id="prefix__G" fill="#fff">
                <use xlink:href="#prefix__E"/>
            </mask>
            <path fill="url(#prefix__F)" d="M0.618 26.281L2.512 27.658 2.512 1.575 0.618 0.697z" mask="url(#prefix__G)"/>
        </g>
        <g transform="translate(29 29) translate(98 132.818)">
            <mask id="prefix__J" fill="#fff">
                <use xlink:href="#prefix__H"/>
            </mask>
            <path fill="url(#prefix__I)" d="M0.618 8.697L2.512 9.575 40.485 1.369 38.161 0.729z" mask="url(#prefix__J)"/>
        </g>
        <g>
            <path fill="#E5E5E5" d="M56.585 29.871L44.264 47.156 56.585 43.957z" transform="translate(29 29) translate(78 112.818)"/>
            <path fill="#FFF" d="M64.535 45.662c0 8.24-14.403 14.921-32.17 14.921-17.768 0-32.173-6.68-32.173-14.92v4.115c0 8.24 14.405 14.921 32.172 14.921 17.768 0 32.171-6.68 32.171-14.92v-4.117zM176.077 20.007c0-8.24-14.404-14.92-32.172-14.92-17.767 0-32.17 6.68-32.17 14.92v-4.116c0-8.24 14.403-14.92 32.17-14.92 17.768 0 32.172 6.68 32.172 14.92v4.116z" transform="translate(29 29) translate(78 112.818)"/>
        </g>
        <g transform="translate(29 29) translate(189 163.818)">
            <mask id="prefix__M" fill="#fff">
                <use xlink:href="#prefix__K"/>
            </mask>
            <path fill="url(#prefix__L)" d="M.734.022V11.68c0 8.24 14.404 14.921 32.172 14.921 17.767 0 32.171-6.681 32.171-14.921V.022H.734z" mask="url(#prefix__M)"/>
        </g>
        <g transform="translate(29 29) translate(0 .818)">
            <path fill="#FF7A79" d="M254.077 163.022c0 8.24-14.404 14.922-32.172 14.922-17.767 0-32.17-6.681-32.17-14.922 0-8.24 14.403-14.921 32.17-14.921 17.768 0 32.172 6.68 32.172 14.92"/>
            <mask id="prefix__O" fill="#fff">
                <use xlink:href="#prefix__N"/>
            </mask>
            <path fill="#FFF" d="M220.365 174.738L223.448 174.738 223.448 90.944 220.365 90.944z" mask="url(#prefix__O)"/>
        </g>
        <g transform="translate(29 29) translate(189 78.818)">
            <mask id="prefix__R" fill="#fff">
                <use xlink:href="#prefix__P"/>
            </mask>
            <path fill="url(#prefix__Q)" d="M.734.045v81.814c0 8.24 14.404 14.921 32.172 14.921 17.768 0 32.171-6.681 32.171-14.921V.045H.734z" mask="url(#prefix__R)"/>
        </g>
        <g fill="#FF7A79">
            <path d="M65.077 31.045c0 8.241-14.404 14.922-32.172 14.922-17.767 0-32.17-6.68-32.17-14.922 0-8.24 14.403-14.92 32.17-14.92 17.768 0 32.172 6.68 32.172 14.92" transform="translate(29 29) translate(189 47.818)"/>
            <path d="M65.077 15.427c0 8.24-14.404 14.921-32.172 14.921-17.767 0-32.17-6.681-32.17-14.921C.734 7.186 15.137.506 32.904.506c17.768 0 32.172 6.68 32.172 14.921" transform="translate(29 29) translate(189 47.818)"/>
        </g>
        <g transform="translate(29 29) translate(189 62.818)">
            <mask id="prefix__U" fill="#fff">
                <use xlink:href="#prefix__S"/>
            </mask>
            <path fill="url(#prefix__T)" d="M32.906 15.348C15.138 15.348.734 8.667.734.427v11.657c0 8.241 14.404 14.921 32.172 14.921 17.767 0 32.171-6.68 32.171-14.921V.427c0 8.24-14.404 14.921-32.171 14.921" mask="url(#prefix__U)"/>
        </g>
        <g>
            <path fill="#FFF" d="M58.712 110.711V75.107s-14.598-8.112-25.807-6.246C21.697 70.73.735 81.114.735 81.114v33.572l8.483 6.355C3.4 109.482 26.96 102.655 37.62 103.971l21.093 6.74z" transform="translate(29 29) translate(189 47.818)"/>
            <path fill="#FF7A79" d="M65.077 15.427c0 8.24-14.404 14.921-32.172 14.921-17.767 0-32.17-6.681-32.17-14.921C.734 7.186 15.137.506 32.904.506c17.768 0 32.172 6.68 32.172 14.921" transform="translate(29 29) translate(189 47.818)"/>
            <path fill="#F1F1F1" d="M61.617 74.375c-5.308-4.854-16.172-8.182-28.711-8.182-17.768 0-32.172 6.681-32.172 14.921 0 3.09 2.026 5.961 5.495 8.343l5.978-2.826c-2.692-1.574-4.263-3.473-4.263-5.517 0-5.449 11.177-9.867 24.962-9.867 9.73 0 18.157 2.2 22.276 5.411l6.434-2.283zM61.617 109.68c-5.308-4.853-16.172-8.181-28.711-8.181-17.768 0-32.172 6.68-32.172 14.92 0 3.092 2.026 5.962 5.495 8.344l5.978-2.826c-2.692-1.574-4.263-3.473-4.263-5.517 0-5.45 11.177-9.866 24.962-9.866 9.73 0 18.157 2.2 22.276 5.41l6.434-2.283z" transform="translate(29 29) translate(189 47.818)"/>
        </g>
        <g transform="translate(29 29) translate(189 62.818)">
            <mask id="prefix__W" fill="#fff">
                <use xlink:href="#prefix__V"/>
            </mask>
            <path fill="url(#prefix__T)" d="M32.906 15.348C15.138 15.348.734 8.667.734.427v11.657c0 8.241 14.404 14.921 32.172 14.921 17.767 0 32.171-6.68 32.171-14.921V.427c0 8.24-14.404 14.921-32.171 14.921" mask="url(#prefix__W)"/>
        </g>
        <g>
            <path fill="#CBCBCB" d="M12.207 12.631L12.207 47.937 6.228 50.763 6.228 15.457zM55.183 2.659L55.183 37.965 61.617 35.681 61.617.376z" transform="translate(29 29) translate(189 121.818)"/>
            <path fill="#F1F1F1" d="M6.229 50.763V15.457s-7.774-5.226-5.065-10.766c0 0-.717.826-.574 7.94.145 7.114.145 29.789.145 29.789s-.975 6.479 5.494 8.343" transform="translate(29 29) translate(189 121.818)"/>
        </g>
        <g transform="translate(29 29) translate(212 103.818)">
            <mask id="prefix__Z" fill="#fff">
                <use xlink:href="#prefix__X"/>
            </mask>
            <path fill="url(#prefix__Y)" d="M0.053 9.027L0.053 35.11 38.026 26.905 38.026 0.823z" mask="url(#prefix__Z)"/>
        </g>
        <g transform="translate(29 29) translate(213 105.818)">
            <mask id="prefix__ac" fill="#fff">
                <use xlink:href="#prefix__aa"/>
            </mask>
            <path fill="url(#prefix__ab)" d="M0.445 7.682L0.445 31.855 35.636 24.251 35.636 0.078z" mask="url(#prefix__ac)"/>
        </g>
        <g transform="translate(29 29) translate(210 111.818)">
            <mask id="prefix__af" fill="#fff">
                <use xlink:href="#prefix__ad"/>
            </mask>
            <path fill="url(#prefix__ae)" d="M0.158 25.734L2.053 27.11 2.053 1.027 0.158 0.149z" mask="url(#prefix__af)"/>
        </g>
        <g transform="translate(29 29) translate(210 103.818)">
            <mask id="prefix__ai" fill="#fff">
                <use xlink:href="#prefix__ag"/>
            </mask>
            <path fill="url(#prefix__ah)" d="M0.158 8.149L2.053 9.027 40.026 0.823 37.702 0.181z" mask="url(#prefix__ai)"/>
        </g>
        <g transform="translate(29 29) translate(0 .818)">
            <path fill="#E5E5E5" d="M246.127 112.323L233.806 129.608 246.127 126.409z"/>
            <path fill="#FFF" d="M254.077 128.114c0 8.24-14.404 14.922-32.172 14.922-17.767 0-32.17-6.681-32.17-14.922v4.117c0 8.24 14.403 14.92 32.17 14.92 17.768 0 32.172-6.68 32.172-14.92v-4.117z"/>
            <mask id="prefix__ak" fill="#fff">
                <use xlink:href="#prefix__aj"/>
            </mask>
            <path fill="#FFF" d="M149 287.515L165.021 287.515 165.021 258.575 149 258.575z" mask="url(#prefix__ak)"/>
            <path stroke="#FFF" stroke-linecap="round" stroke-linejoin="round" d="M163.47 262.45v20.932" mask="url(#prefix__ak)"/>
            <path fill="#FFF" d="M165.02 258.575c0 1.064-3.585 1.927-8.01 1.927-4.423 0-8.01-.863-8.01-1.928 0-1.064 3.587-1.927 8.01-1.927 4.425 0 8.01.863 8.01 1.928" mask="url(#prefix__ak)"/>
            <path fill="#000" d="M164.046 259.092c0 .757-3.149 1.37-7.035 1.37s-7.036-.613-7.036-1.37c0-.757 3.15-1.37 7.036-1.37 3.886 0 7.035.613 7.035 1.37" mask="url(#prefix__ak)"/>
            <path fill="#FFF" d="M165.02 287.515c0 1.064-3.585 1.928-8.01 1.928-4.423 0-8.01-.864-8.01-1.928 0-1.063 3.587-1.927 8.01-1.927 4.425 0 8.01.864 8.01 1.927" mask="url(#prefix__ak)"/>
            <path fill="#000" d="M157.011 260.127h-.006c-.285-.003-.514-.236-.511-.52.073-6.98-2.495-15.326-15.14-28.976-7.592-8.195-15.305-13.437-15.382-13.489-.236-.16-.299-.48-.139-.717.159-.237.481-.299.717-.14.078.053 7.891 5.363 15.562 13.644 7.107 7.672 15.55 16.703 15.416 29.687-.003.283-.234.511-.517.511" mask="url(#prefix__ak)"/>
            <path fill="#000" d="M158.044 259.091c-.285 0-.517-.23-.517-.517 0-31.314-8.154-53.603-8.236-53.825-.1-.267.037-.565.304-.665.268-.099.565.037.665.305.083.223 8.301 22.674 8.301 54.185 0 .286-.232.517-.517.517M154.08 258.865c-.112-.122-.164-.293-.125-.464 1.757-7.794-10.77-19.78-10.897-19.901-.207-.196-.215-.524-.019-.732.197-.207.524-.215.731-.018.033.03 3.29 3.133 6.274 7.198 4.062 5.535 5.718 10.138 4.92 13.68-.064.279-.34.454-.619.39-.107-.023-.198-.08-.266-.153M130.486 212.966s-10.293-7.076-15.44 5.79c0 0 5.79-5.146 9.006-3.86 0 0-10.293 3.86-9.65 11.58 0 0 7.72 1.93 12.224-1.287 4.504-3.217-1.286-6.433.643-6.433 1.93 0 4.503 3.216 1.93 6.433 0 0 4.504-4.503 2.573-8.364 0 0 1.93 1.931 2.573 4.504 0 0 1.93-9.007-3.86-8.363" mask="url(#prefix__ak)"/>
            <path stroke="#989898" stroke-width=".25" d="M114.403 226.476s12.866-6.434 16.083-13.51" mask="url(#prefix__ak)"/>
            <path fill="#000" d="M154.944 258.575h-.014c-.285-.008-.51-.245-.503-.53.315-11.876 4.036-21.248 11.059-27.858 11.494-10.816 28.07-10.379 28.235-10.373.286.01.509.25.499.535-.01.286-.245.508-.534.499-.162-.005-16.324-.423-27.5 10.098-6.81 6.415-10.42 15.54-10.725 27.126-.008.28-.238.502-.517.502" mask="url(#prefix__ak)"/>
            <path fill="#000" d="M196.546 232.218s-.517-6.46 0-7.235c.517-.776 1.033 0 1.033 0-2.842 9.044 3.36 10.336 3.36 10.336-2.843-5.685-.517-9.303 0-9.303.516 0-.259 5.168 1.033 8.011 1.292 2.842 6.202 3.1 6.202 3.1s2.067-2.067 2.067-4.909c0-2.843-3.618-3.618-4.91-4.651-1.292-1.034-1.033-2.326-1.033-2.326 3.101 0 4.393 3.101 4.393 3.101-.776-5.427-5.685-6.978-8.786-7.752-3.1-.775-1.55-1.034-1.55-1.034 2.842-1.55 7.235 1.034 7.235 1.034-.775-6.977-6.719-8.269-9.044-7.752-2.326.517-4.65 0-4.393 2.067.258 2.067 2.326 3.875.517 3.618-1.809-.259-2.584-4.135-2.584-4.135s-4.135.259-3.618 3.618c.517 3.358 1.292 3.617 1.292 5.426 0 1.809.775 5.168.775 5.168s1.034-6.46 3.618-5.943c2.584.517-3.359 2.584-2.584 6.202.775 3.617 3.36 4.392 3.36 4.392s-2.068-7.493 1.291-9.044c0 0-3.1 6.202 2.326 8.011" mask="url(#prefix__ak)"/>
            <path stroke="#989898" stroke-width=".25" d="M193.317 218.461s10.465 2.903 14.857 18.666M200.68 235.319c-5.426-4.393-.455-12.104-.455-12.104s5.623.217 7.949 3.835" mask="url(#prefix__ak)"/>
            <path fill="#000" d="M144.313 214.697s3.278-5.59 3.15-6.513c-.128-.923-.93-.45-.93-.45-1.38 9.38-7.525 7.843-7.525 7.843 5.034-3.88 4.516-8.15 4.05-8.375-.464-.226-2.016 4.766-4.417 6.762-2.401 1.995-6.933.09-6.933.09s-.961-2.76.277-5.32c1.237-2.558 4.83-1.681 6.444-2.05 1.613-.368 1.944-1.642 1.944-1.642-2.791-1.35-5.305.879-5.305.879 3.06-4.548 8.155-3.806 11.284-3.154 3.129.653 1.846-.255 1.846-.255-1.884-2.633-6.963-2.22-6.963-2.22 3.735-5.944 9.648-4.518 11.516-3.04 1.87 1.476 4.188 2.024 3.055 3.772-1.133 1.749-3.781 2.477-2.04 3.031 1.74.556 4.126-2.596 4.126-2.596s3.609 2.034 1.682 4.833c-1.928 2.798-2.74 2.694-3.527 4.321-.787 1.63-2.947 4.316-2.947 4.316s1.882-6.266-.67-6.925c-2.551-.66 1.9 3.788-.373 6.708-2.273 2.919-4.937 2.492-4.937 2.492s5.124-5.847 2.775-8.704c0 0 .09 6.931-5.582 6.197" mask="url(#prefix__ak)"/>
            <path stroke="#989898" stroke-width=".25" d="M153.21 203.719s-10.685-1.941-21.503 10.335" mask="url(#prefix__ak)"/>
            <path fill="#000" d="M159.594 258.575c-.272 0-.501-.214-.516-.49-.007-.159-.175-3.928 1.954-8.482 1.959-4.19 6.321-9.84 15.975-12.966.272-.089.563.06.65.332.088.27-.06.563-.332.65-5.119 1.659-11.934 5.15-15.335 12.374-2.037 4.328-1.881 8.002-1.879 8.038.014.286-.205.527-.49.543h-.027" mask="url(#prefix__ak)"/>
            <path fill="#000" d="M176.109 238.756s-4.695-4.422-.88-6.479c3.818-2.056 5.255-.697 5.255-.697s-3.462 3.424-2.596 4.807c.867 1.382 1.066-2.174 3.898-3.53 2.833-1.357 4.94 2.01 4.94 2.01s-6.905 2.066-8.143 4.097c-1.24 2.031 2.89-2.73 7.304-2.232 4.413.498 4.606 4.813 4.606 4.813s-5.964-2.707-8.188-1.314c-2.223 1.393-1.704 2.49.55 2.082 2.256-.409 5.623-1.179 7.06.848 1.439 2.03.389 4.361.389 4.361s-2.832-4.252-6.213-2.97c0 0 5.35.413 5.286 4.973-.066 4.56-.788 5.012-.788 5.012s-6.718 1.03-7.331-2.352c-.613-3.383-1.302-8.892-1.931-6.156-.63 2.738-.361 6.084 3.065 8.29 0 0-7.665-.804-4.923-9.384 0 0 .758-1.062-.25-1.602-1.007-.54-3.002 4.56-.645 8.188 0 0-5.34-2.513-1.265-8.832 0 0-.25-.932-2.028 1.438-1.78 2.37-1.717 4.34-1.717 4.34s-4.37-8.98 4.545-9.71" mask="url(#prefix__ak)"/>
            <path stroke="#989898" stroke-width=".25" d="M176.071 238.697s6.38 5.375 12.54 15.743" mask="url(#prefix__ak)"/>
            <path fill="#000" d="M155.809 259.091c-.275 0-.505-.218-.516-.496-.681-16.97 6.245-40.07 8.722-41.31.255-.128.565-.024.693.231.128.256.025.565-.23.693-1.661.915-8.856 22.777-8.152 40.345.01.285-.21.525-.496.537h-.021zM144.78 236.36s7.061-3.752 3.17-7.46c-3.891-3.707-6.054-2.552-6.054-2.552s3.02 5.227 1.532 6.597c-1.488 1.369-.563-2.948-3.505-5.496-2.945-2.548-6.566.786-6.566.786s7.58 4.73 8.398 7.564c.816 2.834-2.565-4.211-8.005-5.058-5.44-.848-7.082 4.249-7.082 4.249s8.017-1.286 10.22 1.106c2.204 2.394 1.224 3.535-1.339 2.31-2.563-1.227-6.335-3.25-8.72-1.294-2.382 1.955-1.89 5.086-1.89 5.086s4.778-4.158 8.401-1.52c0 0-6.534-1.255-7.948 4.219-1.412 5.475-.697 6.25-.697 6.25s7.697 3.43 9.536-.414c1.839-3.845 4.465-10.206 4.322-6.728-.143 3.478-1.559 7.393-6.377 8.909 0 0 9.43 1.546 8.958-9.612 0 0-.56-1.516.822-1.832 1.382-.316 2.098 6.433-1.906 10 0 0 7.206-1.256 4.4-10.146 0 0 .603-1.032 1.956 2.383 1.351 3.416.632 5.75.632 5.75s8.162-9.306-2.258-13.097" mask="url(#prefix__ak)"/>
            <path fill="#000" d="M160.05 215.541s-7.292-2.168-4.362-6.358c2.928-4.19 5.163-3.52 5.163-3.52s-1.83 5.441-.185 6.438c1.646.997-.03-2.854 2.234-5.785 2.263-2.93 6.27-.504 6.27-.504s-6.179 5.84-6.405 8.635c-.227 2.796 1.596-4.41 6.51-6.225 4.912-1.816 7.403 2.627 7.403 2.627s-7.718.311-9.32 2.96c-1.604 2.645-.475 3.524 1.683 1.898 2.158-1.626 5.296-4.223 7.887-2.85 2.59 1.374 2.721 4.386 2.721 4.386s-5.238-2.976-8.12.167c0 0 5.856-2.402 8.206 2.436 2.35 4.838 1.83 5.696 1.83 5.696s-6.532 4.647-8.97 1.41c-2.44-3.237-6.089-8.674-5.299-5.458.79 3.217 2.847 6.6 7.625 7.106 0 0-8.5 3.217-10.163-7.274 0 0 .236-1.519-1.112-1.554-1.348-.034-.744 6.394 3.663 8.965 0 0-6.957.187-6.017-8.63 0 0-.757-.85-1.373 2.59-.617 3.44.493 5.481.493 5.481s-9.364-7.139-.363-12.637" mask="url(#prefix__ak)"/>
            <path stroke="#989898" stroke-width=".25" d="M159.978 215.497s9.57 2.277 21.559 9.93" mask="url(#prefix__ak)"/>
        </g>
    </g>
</svg>
