<svg width="357px" height="327px" viewBox="0 0 357 327" version="1.1" xmlns="http://www.w3.org/2000/svg" xmlns:xlink="http://www.w3.org/1999/xlink">
    <defs>
        <polygon id="path-1" points="0 73.29 126.109 207.572 356.684 135.298 230.747 0.49"></polygon>
        <linearGradient x1="0%" y1="50.0000765%" x2="99.9999375%" y2="50.0000765%" id="linearGradient-3">
            <stop stop-color="#646664" offset="0%"></stop>
            <stop stop-color="#4D4D4D" offset="100%"></stop>
        </linearGradient>
        <path d="M8.262,5.185 C-2.012,11.116 -2.012,20.735 8.262,26.668 L8.262,26.668 C18.537,32.599 35.196,32.599 45.47,26.668 L45.47,26.668 C55.745,20.735 55.745,11.116 45.47,5.185 L45.47,5.185 C40.333,2.218 33.6,0.735 26.866,0.735 L26.866,0.735 C20.133,0.735 13.399,2.218 8.262,5.185" id="path-4"></path>
        <linearGradient x1="-0.0011826358%" y1="50.000916%" x2="100.000073%" y2="50.000916%" id="linearGradient-6">
            <stop stop-color="#979797" offset="0%"></stop>
            <stop stop-color="#E4E4E4" offset="100%"></stop>
        </linearGradient>
        <path d="M0.334,56.411 L0.334,130.522 L93.812,101.268 L96.824,100.477 L185.437,72.309 L185.437,0.384 L0.334,56.411 Z M97.219,32.813 L180.776,6.664 L180.776,68.474 L97.219,94.425 L97.219,32.813 Z M4.785,59.949 L92.943,33.673 L92.943,96.668 L4.785,124.848 L4.785,59.949 Z" id="path-7"></path>
        <linearGradient x1="-113.026408%" y1="50.000014%" x2="100.000674%" y2="50.000014%" id="linearGradient-9">
            <stop stop-color="#646664" offset="0%"></stop>
            <stop stop-color="#333333" offset="100%"></stop>
        </linearGradient>
        <path d="M1.266,31.2 C1.266,32.115 1.909,33.401 2.701,34.071 L2.701,34.071 L17.519,46.596 C18.312,47.266 18.954,47.066 18.954,46.152 L18.954,46.152 L18.954,32.706 C18.954,31.791 18.312,30.506 17.519,29.836 L17.519,29.836 L7.604,21.455 L7.611,10.954 C7.613,6.746 5.198,2.878 1.367,1.138 L1.367,1.138 C1.113,1.022 0.963,0.967 0.963,0.967 L0.963,0.967 L1.266,31.2 Z" id="path-10"></path>
        <linearGradient x1="0.00049469179%" y1="49.9993328%" x2="100.001254%" y2="49.9993328%" id="linearGradient-12">
            <stop stop-color="#C10021" offset="0%"></stop>
            <stop stop-color="#F0233D" offset="100%"></stop>
        </linearGradient>
        <path d="M0.963,0.967 C0.963,0.967 7.049,4.4 7.299,9.164 L7.299,9.164 C7.55,13.926 7.604,21.455 7.604,21.455 L7.604,21.455 L16.981,29.382 C16.981,29.382 18.848,30.447 18.938,32.556 L18.938,32.556 L18.483,46.98 L20.433,46.016 L20.433,32.229 C20.433,30.764 19.919,29.31 18.864,28.295 L18.864,28.295 C18.744,28.18 18.618,28.07 18.483,27.965 L18.483,27.965 L9.024,20.111 C9.024,20.111 11.912,10.098 6.27,3.83 L6.27,3.83 C5.425,2.891 3.302,1.191 2.137,0.634 L2.137,0.634 L0.963,0.967 Z" id="path-13"></path>
        <linearGradient x1="0.000927067283%" y1="50.0000807%" x2="99.99966%" y2="50.0000807%" id="linearGradient-15">
            <stop stop-color="#C10021" offset="0%"></stop>
            <stop stop-color="#F0233D" offset="100%"></stop>
        </linearGradient>
        <polygon id="path-16" points="0.037 7.068 0.037 11.557 19.469 5.071 19.469 0.581"></polygon>
        <linearGradient x1="-0.000379271305%" y1="50.0038949%" x2="99.9991257%" y2="50.0038949%" id="linearGradient-18">
            <stop stop-color="#C10021" offset="0%"></stop>
            <stop stop-color="#F0233D" offset="100%"></stop>
        </linearGradient>
        <path d="M0.099,6.588 L10.137,15.066 L10.137,10.884 C10.137,9.583 9.224,7.757 8.098,6.805 L8.098,6.805 L0.099,0.051 L0.099,6.588 Z" id="path-19"></path>
        <linearGradient x1="0.00272663877%" y1="49.9977789%" x2="100.002614%" y2="49.9977789%" id="linearGradient-21">
            <stop stop-color="#C10021" offset="0%"></stop>
            <stop stop-color="#F0233D" offset="100%"></stop>
        </linearGradient>
        <path d="M0.349,18.278 L0.349,29.683 C0.349,30.598 0.991,31.883 1.784,32.554 L1.784,32.554 L16.602,45.078 C17.394,45.748 18.036,45.549 18.036,44.634 L18.036,44.634 L18.037,31.189 C18.037,30.273 17.395,28.988 16.602,28.318 L16.602,28.318 L6.687,19.938 L7.293,8.845 C7.047,6.758 5.649,4.185 4.002,2.794 L4.002,2.794 L0.046,0.793 L0.349,18.278 Z" id="path-22"></path>
        <linearGradient x1="-0.000818742705%" y1="49.999792%" x2="99.9999405%" y2="49.999792%" id="linearGradient-24">
            <stop stop-color="#C10021" offset="0%"></stop>
            <stop stop-color="#F0233D" offset="100%"></stop>
        </linearGradient>
        <path d="M0.625,7.794 L7.269,28.282 L7.813,33.018 L25.176,27.647 L27.853,27.344 C27.853,27.344 36.488,9.417 22.963,0.967 L22.963,0.967 L0.625,7.794 Z" id="path-25"></path>
        <linearGradient x1="0.000611480265%" y1="49.999025%" x2="100.001571%" y2="49.999025%" id="linearGradient-27">
            <stop stop-color="#C10021" offset="0%"></stop>
            <stop stop-color="#F0233D" offset="100%"></stop>
        </linearGradient>
        <path d="M0.649,8.034 L12.34,23.647 L33.469,16.581 C33.469,16.581 35.176,11.461 33.469,9.745 L33.469,9.745 C30.544,6.806 22.587,0.889 22.587,0.889 L22.587,0.889 L0.649,8.034 Z" id="path-28"></path>
        <linearGradient x1="-0.0011754487%" y1="49.9984146%" x2="99.9998697%" y2="49.9984146%" id="linearGradient-30">
            <stop stop-color="#C10021" offset="0%"></stop>
            <stop stop-color="#F0233D" offset="100%"></stop>
        </linearGradient>
        <path d="M0.929,31.027 C0.929,31.942 1.571,33.227 2.365,33.898 L2.365,33.898 L17.181,46.422 C17.974,47.092 18.616,46.893 18.616,45.977 L18.616,45.977 L18.616,32.532 C18.616,31.617 17.974,30.332 17.182,29.662 L17.182,29.662 L7.267,21.281 L7.273,10.779 C7.275,6.573 4.86,2.704 1.029,0.964 L1.029,0.964 C0.775,0.849 0.625,0.793 0.625,0.793 L0.625,0.793 L0.929,31.027 Z" id="path-31"></path>
        <linearGradient x1="0.00381635262%" y1="49.999662%" x2="100.004576%" y2="49.999662%" id="linearGradient-33">
            <stop stop-color="#C10021" offset="0%"></stop>
            <stop stop-color="#F0233D" offset="100%"></stop>
        </linearGradient>
        <path d="M0.626,0.793 C0.626,0.793 6.711,4.226 6.962,8.989 L6.962,8.989 C7.213,13.752 7.267,21.281 7.267,21.281 L7.267,21.281 L16.645,29.209 C16.645,29.209 18.51,30.272 18.601,32.383 L18.601,32.383 L18.145,46.806 L20.096,45.842 L20.096,32.055 C20.096,30.591 19.581,29.136 18.526,28.121 L18.526,28.121 C18.407,28.006 18.281,27.896 18.145,27.791 L18.145,27.791 L8.687,19.938 L8.802,11.087 C8.842,7.971 7.859,4.889 5.858,2.499 L5.858,2.499 C5.045,1.531 4.061,0.653 2.896,0.097 L2.896,0.097 L0.626,0.793 Z" id="path-34"></path>
        <linearGradient x1="-0.0011391885%" y1="49.9998202%" x2="99.9975937%" y2="49.9998202%" id="linearGradient-36">
            <stop stop-color="#C10021" offset="0%"></stop>
            <stop stop-color="#F0233D" offset="100%"></stop>
        </linearGradient>
        <polygon id="path-37" points="0.743 10.833 0.743 25.102 32.487 14.932 32.487 0.957"></polygon>
        <linearGradient x1="0.00217521421%" y1="49.9997117%" x2="100.000521%" y2="49.9997117%" id="linearGradient-39">
            <stop stop-color="#979797" offset="0%"></stop>
            <stop stop-color="#E4E4E4" offset="100%"></stop>
        </linearGradient>
        <polygon id="path-40" points="0.542 15.198 100.743 123.102 100.743 108.833 0.542 0.017"></polygon>
        <linearGradient x1="-0.000154888674%" y1="49.9999517%" x2="100.000694%" y2="49.9999517%" id="linearGradient-42">
            <stop stop-color="#979797" offset="0%"></stop>
            <stop stop-color="#E4E4E4" offset="100%"></stop>
        </linearGradient>
        <polygon id="path-43" points="0.036 68.937 69.842 140.917 69.842 66.182 0.036 0.485"></polygon>
        <linearGradient x1="46.4710025%" y1="-4.15520323%" x2="52.6001076%" y2="86.0245531%" id="linearGradient-45">
            <stop stop-color="#646664" offset="0%"></stop>
            <stop stop-color="#333333" offset="100%"></stop>
        </linearGradient>
        <polygon id="path-46" points="0.361 3.381 0.361 4.639 4.673 1.789 4.795 0.599"></polygon>
        <linearGradient x1="-0.00946323861%" y1="49.9964926%" x2="100.005625%" y2="49.9964926%" id="linearGradient-48">
            <stop stop-color="#646664" offset="0%"></stop>
            <stop stop-color="#333333" offset="100%"></stop>
        </linearGradient>
        <polygon id="path-49" points="0.361 2.979 0.361 4.237 4.673 1.387 4.795 0.197"></polygon>
        <linearGradient x1="-0.00946323861%" y1="49.9874183%" x2="100.005625%" y2="49.9874183%" id="linearGradient-51">
            <stop stop-color="#646664" offset="0%"></stop>
            <stop stop-color="#333333" offset="100%"></stop>
        </linearGradient>
        <polygon id="path-52" points="0.361 3.459 0.361 4.717 4.673 1.868 4.795 0.677"></polygon>
        <linearGradient x1="-0.00946323861%" y1="49.9990198%" x2="100.005625%" y2="49.9990198%" id="linearGradient-54">
            <stop stop-color="#646664" offset="0%"></stop>
            <stop stop-color="#333333" offset="100%"></stop>
        </linearGradient>
        <polygon id="path-55" points="0.361 2.939 0.361 4.198 4.673 1.348 4.795 0.158"></polygon>
        <linearGradient x1="-0.00946323861%" y1="49.9858713%" x2="100.005625%" y2="49.9858713%" id="linearGradient-57">
            <stop stop-color="#646664" offset="0%"></stop>
            <stop stop-color="#333333" offset="100%"></stop>
        </linearGradient>
        <polygon id="path-58" points="0.361 3.42 0.361 4.678 4.673 1.829 4.795 0.638"></polygon>
        <linearGradient x1="-0.00946323861%" y1="49.9978515%" x2="100.005625%" y2="49.9978515%" id="linearGradient-60">
            <stop stop-color="#646664" offset="0%"></stop>
            <stop stop-color="#333333" offset="100%"></stop>
        </linearGradient>
        <polygon id="path-61" points="0.361 2.9 0.361 4.158 4.673 1.309 4.795 0.118"></polygon>
        <linearGradient x1="-0.00946323861%" y1="50.0096436%" x2="100.005625%" y2="50.0096436%" id="linearGradient-63">
            <stop stop-color="#646664" offset="0%"></stop>
            <stop stop-color="#333333" offset="100%"></stop>
        </linearGradient>
        <polygon id="path-64" points="0.361 2.862 0.361 4.119 4.673 1.27 4.795 0.079"></polygon>
        <linearGradient x1="-0.00946323861%" y1="50.0082847%" x2="100.005625%" y2="50.0082847%" id="linearGradient-66">
            <stop stop-color="#646664" offset="0%"></stop>
            <stop stop-color="#333333" offset="100%"></stop>
        </linearGradient>
        <polygon id="path-67" points="0.361 3.342 0.361 4.6 4.673 1.75 4.795 0.559"></polygon>
        <linearGradient x1="-0.00946323861%" y1="50.0076986%" x2="100.005625%" y2="50.0076986%" id="linearGradient-69">
            <stop stop-color="#646664" offset="0%"></stop>
            <stop stop-color="#333333" offset="100%"></stop>
        </linearGradient>
        <polygon id="path-70" points="69.84 66.584 77.192 62.755 10.005 1.35 0.036 0.485"></polygon>
        <linearGradient x1="-0.0012517497%" y1="50.0000694%" x2="99.9999622%" y2="50.0000694%" id="linearGradient-72">
            <stop stop-color="#646664" offset="0%"></stop>
            <stop stop-color="#333333" offset="100%"></stop>
        </linearGradient>
        <path d="M0.458,3.991 L0.458,44.874 C0.458,45.67 0.756,46.436 1.294,47.024 L1.294,47.024 L45.503,91.097 C47.463,93.234 51.025,91.847 51.025,88.949 L51.025,88.949 L51.025,44.346 C51.025,43.506 50.693,42.7 50.1,42.105 L50.1,42.105 L5.891,1.749 C5.242,1.097 4.444,0.805 3.66,0.805 L3.66,0.805 C2.026,0.805 0.458,2.074 0.458,3.991" id="path-73"></path>
        <linearGradient x1="53.2309511%" y1="151.16221%" x2="49.3689984%" y2="27.8137444%" id="linearGradient-75">
            <stop stop-color="#646664" offset="0%"></stop>
            <stop stop-color="#333333" offset="100%"></stop>
        </linearGradient>
        <path d="M3.095,1.863 C-0.502,3.94 -0.502,7.308 3.095,9.386 L3.095,9.386 C6.694,11.463 12.528,11.463 16.126,9.386 L16.126,9.386 C19.725,7.308 19.725,3.94 16.126,1.863 L16.126,1.863 C14.327,0.823 11.969,0.304 9.611,0.304 L9.611,0.304 C7.253,0.304 4.894,0.823 3.095,1.863" id="path-76"></path>
        <linearGradient x1="-0.00407206425%" y1="50.0008214%" x2="99.999351%" y2="50.0008214%" id="linearGradient-78">
            <stop stop-color="#808080" offset="0%"></stop>
            <stop stop-color="#666666" offset="100%"></stop>
        </linearGradient>
        <path d="M1.584,0.526 C0.465,1.172 0.465,2.219 1.584,2.867 L1.584,2.867 C2.704,3.513 4.518,3.513 5.638,2.867 L5.638,2.867 C6.757,2.219 6.757,1.172 5.638,0.526 L5.638,0.526 C5.078,0.203 4.344,0.041 3.611,0.041 L3.611,0.041 C2.877,0.041 2.144,0.203 1.584,0.526" id="path-79"></path>
        <linearGradient x1="-0.00291146969%" y1="49.9910406%" x2="99.9965251%" y2="49.9910406%" id="linearGradient-81">
            <stop stop-color="#808080" offset="0%"></stop>
            <stop stop-color="#666666" offset="100%"></stop>
        </linearGradient>
        <path d="M1.584,0.799 C0.465,1.446 0.465,2.493 1.584,3.139 L1.584,3.139 C2.704,3.786 4.518,3.786 5.638,3.139 L5.638,3.139 C6.757,2.493 6.757,1.446 5.638,0.799 L5.638,0.799 C5.078,0.476 4.344,0.314 3.611,0.314 L3.611,0.314 C2.877,0.314 2.144,0.476 1.584,0.799" id="path-82"></path>
        <linearGradient x1="-0.00291146969%" y1="49.9988128%" x2="99.9965251%" y2="49.9988128%" id="linearGradient-84">
            <stop stop-color="#808080" offset="0%"></stop>
            <stop stop-color="#666666" offset="100%"></stop>
        </linearGradient>
        <path d="M0.789,0.518 L0.789,18.424 L0.789,18.425 L0.789,18.526 L0.796,18.526 C0.811,18.816 0.887,19.101 1.03,19.323 L1.03,19.323 C1.351,19.821 1.87,19.821 2.191,19.323 L2.191,19.323 C2.335,19.101 2.41,18.816 2.426,18.526 L2.426,18.526 L2.432,18.526 L2.432,18.425 L2.432,18.424 L2.432,0.518 L0.789,0.518 Z" id="path-85"></path>
        <linearGradient x1="0.0428119294%" y1="49.9974748%" x2="100.004772%" y2="49.9974748%" id="linearGradient-87">
            <stop stop-color="#979797" offset="0%"></stop>
            <stop stop-color="#E4E4E4" offset="100%"></stop>
        </linearGradient>
        <path d="M5.571,3.52 C-1.631,7.679 -1.631,14.42 5.571,18.578 L5.571,18.578 C12.773,22.736 24.448,22.736 31.651,18.578 L31.651,18.578 C38.853,14.42 38.853,7.679 31.651,3.52 L31.651,3.52 C28.05,1.441 23.33,0.402 18.611,0.402 L18.611,0.402 C13.891,0.402 9.172,1.441 5.571,3.52" id="path-88"></path>
        <linearGradient x1="0.00048179378%" y1="50.0009566%" x2="99.9985565%" y2="50.0009566%" id="linearGradient-90">
            <stop stop-color="#979797" offset="0%"></stop>
            <stop stop-color="#E4E4E4" offset="100%"></stop>
        </linearGradient>
        <path d="M48.22,0.823 L25.322,6.18 C22.867,6.754 21.945,9.765 23.658,11.615 L23.658,11.615 L46.719,36.355 C51.21,41.205 49.779,49.01 43.859,51.951 L43.859,51.951 L2.401,72.947 C0.338,73.972 -0.059,76.746 1.634,78.309 L1.634,78.309 L17.8,93.228 C18.835,94.182 20.362,94.373 21.599,93.7 L21.599,93.7 L70.044,66.242 C84.525,58.38 87.467,38.851 75.947,27.071 L75.947,27.071 L51.32,1.727 C50.694,1.086 49.843,0.737 48.968,0.737 L48.968,0.737 C48.719,0.737 48.468,0.765 48.22,0.823" id="path-91"></path>
        <linearGradient x1="0.000187567412%" y1="50.0000499%" x2="99.9999521%" y2="50.0000499%" id="linearGradient-93">
            <stop stop-color="#979797" offset="0%"></stop>
            <stop stop-color="#E4E4E4" offset="100%"></stop>
        </linearGradient>
        <path d="M0.823,9.547 L26.358,38.417 C26.358,38.417 29.05,33.742 26.867,29.886 L26.867,29.886 C24.685,26.03 0.823,0.413 0.823,0.413 L0.823,0.413 L0.823,9.547 Z" id="path-94"></path>
        <linearGradient x1="-0.00125512042%" y1="49.9986975%" x2="100.000043%" y2="49.9986975%" id="linearGradient-96">
            <stop stop-color="#979797" offset="0%"></stop>
            <stop stop-color="#E4E4E4" offset="100%"></stop>
        </linearGradient>
    </defs>
    <g id="Symbols" stroke="none" stroke-width="1" fill="none" fill-rule="evenodd">
        <g id="img/intro/map/3/default">
            <g id="Group-185">
                <polygon id="Fill-1" fill="#CBCBCB" points="140.9709 274.6566 108.6689 287.1836 12.1439 177.3846 35.0859 159.0116"></polygon>
                <polygon id="Fill-2" fill="#333333" points="0 187.3069 126.109 325.6479 126.109 310.2199 0 175.9379"></polygon>
                <polygon id="Fill-3" fill="#333333" points="126.1089 310.0534 126.1089 326.0504 356.6839 252.8534 356.6839 238.1684"></polygon>
                <g id="Group-6" transform="translate(0.000000, 103.050000)">
                    <mask id="mask-2" fill="white">
                        <use xlink:href="#path-1"></use>
                    </mask>
                    <g id="Clip-5"></g>
                    <polygon id="Fill-4" fill="url(#linearGradient-3)" mask="url(#mask-2)" points="0 73.29 126.109 207.572 356.684 135.298 230.747 0.49"></polygon>
                </g>
                <g id="Group-17" transform="translate(100.000000, 165.050000)">
                    <path d="M171.3147,39.3859 C171.3147,60.9729 133.0577,78.4719 85.8667,78.4719 C38.6737,78.4719 0.4187,60.9729 0.4187,39.3859 C0.4187,17.7989 38.6737,0.2999 85.8667,0.2999 C133.0577,0.2999 171.3147,17.7989 171.3147,39.3859" id="Fill-7" fill="#4D4D4D"></path>
                    <path d="M103.2288,26.6682 C112.8178,31.2702 112.8178,38.7312 103.2288,43.3322 C93.6398,47.9342 78.0928,47.9342 68.5028,43.3322 C58.9148,38.7312 58.9148,31.2702 68.5028,26.6682 C78.0928,22.0662 93.6398,22.0662 103.2288,26.6682 Z" id="Stroke-9" stroke="#000000" stroke-width="2"></path>
                    <line x1="61.3118" y1="20.1428" x2="61.3118" y2="34.1168" id="Stroke-11" stroke="#000000" stroke-width="2"></line>
                    <line x1="110.4202" y1="20.1428" x2="110.4202" y2="34.1168" id="Stroke-13" stroke="#000000" stroke-width="2"></line>
                    <line x1="85.8665" y1="47.1691" x2="85.8665" y2="24.5401" id="Stroke-15" stroke="#000000" stroke-width="2"></line>
                </g>
                <g id="Group-20" transform="translate(159.000000, 168.050000)">
                    <mask id="mask-5" fill="white">
                        <use xlink:href="#path-4"></use>
                    </mask>
                    <g id="Clip-19"></g>
                    <path d="M8.262,5.185 C-2.012,11.116 -2.012,20.735 8.262,26.668 L8.262,26.668 C18.537,32.599 35.196,32.599 45.47,26.668 L45.47,26.668 C55.745,20.735 55.745,11.116 45.47,5.185 L45.47,5.185 C40.333,2.218 33.6,0.735 26.866,0.735 L26.866,0.735 C20.133,0.735 13.399,2.218 8.262,5.185" id="Fill-18" fill="url(#linearGradient-6)" mask="url(#mask-5)"></path>
                </g>
                <g id="Group-29" transform="translate(7.000000, 0.050000)">
                    <path d="M197.47,171.675 C207.745,177.608 207.745,187.226 197.47,193.157 C187.196,199.09 170.536,199.09 160.262,193.157 C149.988,187.226 149.988,177.608 160.262,171.675 C170.536,165.742 187.196,165.742 197.47,171.675" id="Fill-21" fill="#FFFFFF"></path>
                    <polygon id="Fill-23" fill="#FFFFFF" points="0.6262 71.1301 0.6262 174.0381 224.8902 105.3441 224.8902 0.9501"></polygon>
                    <polygon id="Fill-25" fill="#CBCBCB" points="27.7854 75.9494 27.7854 140.8484 115.9424 112.6674 115.9424 49.6734"></polygon>
                    <polygon id="Fill-27" fill="#CBCBCB" points="203.7766 22.6642 120.2186 48.8122 120.2186 110.4252 203.7766 84.4742"></polygon>
                </g>
                <g id="Group-32" transform="translate(30.000000, 16.050000)">
                    <mask id="mask-8" fill="white">
                        <use xlink:href="#path-7"></use>
                    </mask>
                    <g id="Clip-31"></g>
                    <path d="M0.334,56.411 L0.334,130.522 L93.812,101.268 L96.824,100.477 L185.437,72.309 L185.437,0.384 L0.334,56.411 Z M97.219,32.813 L180.776,6.664 L180.776,68.474 L97.219,94.425 L97.219,32.813 Z M4.785,59.949 L92.943,33.673 L92.943,96.668 L4.785,124.848 L4.785,59.949 Z" id="Fill-30" fill="url(#linearGradient-9)" mask="url(#mask-8)"></path>
                </g>
                <g id="Group-49" transform="translate(7.000000, 0.050000)">
                    <polygon id="Fill-33" fill="#B2B2B2" points="111.9954 75.8293 74.8414 121.7843 111.2524 111.2623"></polygon>
                    <polygon id="Fill-35" fill="#B2B2B2" points="3.6389 87.6496 227.9029 16.0666 227.9029 3.1016 3.6389 73.2816"></polygon>
                    <polygon id="Fill-37" fill="#989898" points="224.8899 0.9504 227.9029 3.1014 3.6389 73.2814 0.6259 71.1304"></polygon>
                    <polygon id="Fill-39" fill="#B2B2B2" points="200.0149 47.5139 162.8609 93.4689 199.2719 82.9469"></polygon>
                    <polygon id="Fill-41" fill="#989898" points="3.6389 73.2814 0.6259 71.1304 0.6259 85.3314 3.6389 87.6494"></polygon>
                    <polygon id="Fill-43" fill="#000000" points="163.885 129.1672 158.625 147.8652 160.072 147.8652 168.449 129.6052"></polygon>
                    <polygon id="Fill-45" fill="#000000" points="174.301 136.5412 169.041 155.2382 170.488 155.2382 178.866 136.9782"></polygon>
                    <polygon id="Fill-47" fill="#000000" points="194.0959 131.0432 202.1829 147.0552 200.8649 147.6512 190.1179 133.3252"></polygon>
                </g>
                <g id="Group-52" transform="translate(187.000000, 94.050000)">
                    <mask id="mask-11" fill="white">
                        <use xlink:href="#path-10"></use>
                    </mask>
                    <g id="Clip-51"></g>
                    <path d="M1.266,31.2 C1.266,32.115 1.909,33.401 2.701,34.071 L2.701,34.071 L17.519,46.596 C18.312,47.266 18.954,47.066 18.954,46.152 L18.954,46.152 L18.954,32.706 C18.954,31.791 18.312,30.506 17.519,29.836 L17.519,29.836 L7.604,21.455 L7.611,10.954 C7.613,6.746 5.198,2.878 1.367,1.138 L1.367,1.138 C1.113,1.022 0.963,0.967 0.963,0.967 L0.963,0.967 L1.266,31.2 Z" id="Fill-50" fill="url(#linearGradient-12)" mask="url(#mask-11)"></path>
                </g>
                <g id="Group-55" transform="translate(187.000000, 94.050000)">
                    <mask id="mask-14" fill="white">
                        <use xlink:href="#path-13"></use>
                    </mask>
                    <g id="Clip-54"></g>
                    <path d="M0.963,0.967 C0.963,0.967 7.049,4.4 7.299,9.164 L7.299,9.164 C7.55,13.926 7.604,21.455 7.604,21.455 L7.604,21.455 L16.981,29.382 C16.981,29.382 18.848,30.447 18.938,32.556 L18.938,32.556 L18.483,46.98 L20.433,46.016 L20.433,32.229 C20.433,30.764 19.919,29.31 18.864,28.295 L18.864,28.295 C18.744,28.18 18.618,28.07 18.483,27.965 L18.483,27.965 L9.024,20.111 C9.024,20.111 11.912,10.098 6.27,3.83 L6.27,3.83 C5.425,2.891 3.302,1.191 2.137,0.634 L2.137,0.634 L0.963,0.967 Z" id="Fill-53" fill="url(#linearGradient-15)" mask="url(#mask-14)"></path>
                </g>
                <g id="Group-58" transform="translate(185.000000, 134.050000)">
                    <mask id="mask-17" fill="white">
                        <use xlink:href="#path-16"></use>
                    </mask>
                    <g id="Clip-57"></g>
                    <polygon id="Fill-56" fill="url(#linearGradient-18)" mask="url(#mask-17)" points="0.037 7.068 0.037 11.557 19.469 5.071 19.469 0.581"></polygon>
                </g>
                <g id="Group-61" transform="translate(192.000000, 121.050000)">
                    <mask id="mask-20" fill="white">
                        <use xlink:href="#path-19"></use>
                    </mask>
                    <g id="Clip-60"></g>
                    <path d="M0.099,6.588 L10.137,15.066 L10.137,10.884 C10.137,9.583 9.224,7.757 8.098,6.805 L8.098,6.805 L0.099,0.051 L0.099,6.588 Z" id="Fill-59" fill="url(#linearGradient-21)" mask="url(#mask-20)"></path>
                </g>
                <g id="Group-64" transform="translate(167.000000, 101.050000)">
                    <mask id="mask-23" fill="white">
                        <use xlink:href="#path-22"></use>
                    </mask>
                    <g id="Clip-63"></g>
                    <path d="M0.349,18.278 L0.349,29.683 C0.349,30.598 0.991,31.883 1.784,32.554 L1.784,32.554 L16.602,45.078 C17.394,45.748 18.036,45.549 18.036,44.634 L18.036,44.634 L18.037,31.189 C18.037,30.273 17.395,28.988 16.602,28.318 L16.602,28.318 L6.687,19.938 L7.293,8.845 C7.047,6.758 5.649,4.185 4.002,2.794 L4.002,2.794 L0.046,0.793 L0.349,18.278 Z" id="Fill-62" fill="url(#linearGradient-24)" mask="url(#mask-23)"></path>
                </g>
                <g id="Group-67" transform="translate(165.000000, 94.050000)">
                    <mask id="mask-26" fill="white">
                        <use xlink:href="#path-25"></use>
                    </mask>
                    <g id="Clip-66"></g>
                    <path d="M0.625,7.794 L7.269,28.282 L7.813,33.018 L25.176,27.647 L27.853,27.344 C27.853,27.344 36.488,9.417 22.963,0.967 L22.963,0.967 L0.625,7.794 Z" id="Fill-65" fill="url(#linearGradient-27)" mask="url(#mask-26)"></path>
                </g>
                <g id="Group-70" transform="translate(171.000000, 118.050000)">
                    <mask id="mask-29" fill="white">
                        <use xlink:href="#path-28"></use>
                    </mask>
                    <g id="Clip-69"></g>
                    <path d="M0.649,8.034 L12.34,23.647 L33.469,16.581 C33.469,16.581 35.176,11.461 33.469,9.745 L33.469,9.745 C30.544,6.806 22.587,0.889 22.587,0.889 L22.587,0.889 L0.649,8.034 Z" id="Fill-68" fill="url(#linearGradient-30)" mask="url(#mask-29)"></path>
                </g>
                <g id="Group-73" transform="translate(165.000000, 101.050000)">
                    <mask id="mask-32" fill="white">
                        <use xlink:href="#path-31"></use>
                    </mask>
                    <g id="Clip-72"></g>
                    <path d="M0.929,31.027 C0.929,31.942 1.571,33.227 2.365,33.898 L2.365,33.898 L17.181,46.422 C17.974,47.092 18.616,46.893 18.616,45.977 L18.616,45.977 L18.616,32.532 C18.616,31.617 17.974,30.332 17.182,29.662 L17.182,29.662 L7.267,21.281 L7.273,10.779 C7.275,6.573 4.86,2.704 1.029,0.964 L1.029,0.964 C0.775,0.849 0.625,0.793 0.625,0.793 L0.625,0.793 L0.929,31.027 Z" id="Fill-71" fill="url(#linearGradient-33)" mask="url(#mask-32)"></path>
                </g>
                <g id="Group-76" transform="translate(165.000000, 101.050000)">
                    <mask id="mask-35" fill="white">
                        <use xlink:href="#path-34"></use>
                    </mask>
                    <g id="Clip-75"></g>
                    <path d="M0.626,0.793 C0.626,0.793 6.711,4.226 6.962,8.989 L6.962,8.989 C7.213,13.752 7.267,21.281 7.267,21.281 L7.267,21.281 L16.645,29.209 C16.645,29.209 18.51,30.272 18.601,32.383 L18.601,32.383 L18.145,46.806 L20.096,45.842 L20.096,32.055 C20.096,30.591 19.581,29.136 18.526,28.121 L18.526,28.121 C18.407,28.006 18.281,27.896 18.145,27.791 L18.145,27.791 L8.687,19.938 L8.802,11.087 C8.842,7.971 7.859,4.889 5.858,2.499 L5.858,2.499 C5.045,1.531 4.061,0.653 2.896,0.097 L2.896,0.097 L0.626,0.793 Z" id="Fill-74" fill="url(#linearGradient-36)" mask="url(#mask-35)"></path>
                </g>
                <polygon id="Fill-77" fill="#CBCBCB" points="139.4875 267.0072 107.7435 276.8832 7.5425 168.0672 41.7675 161.2122"></polygon>
                <g id="Group-81" transform="translate(107.000000, 266.050000)">
                    <mask id="mask-38" fill="white">
                        <use xlink:href="#path-37"></use>
                    </mask>
                    <g id="Clip-80"></g>
                    <polygon id="Fill-79" fill="url(#linearGradient-39)" mask="url(#mask-38)" points="0.743 10.833 0.743 25.102 32.487 14.932 32.487 0.957"></polygon>
                </g>
                <g id="Group-84" transform="translate(7.000000, 168.050000)">
                    <mask id="mask-41" fill="white">
                        <use xlink:href="#path-40"></use>
                    </mask>
                    <g id="Clip-83"></g>
                    <polygon id="Fill-82" fill="url(#linearGradient-42)" mask="url(#mask-41)" points="0.542 15.198 100.743 123.102 100.743 108.833 0.542 0.017"></polygon>
                </g>
                <g id="Group-87" transform="translate(12.000000, 96.050000)">
                    <mask id="mask-44" fill="white">
                        <use xlink:href="#path-43"></use>
                    </mask>
                    <g id="Clip-86"></g>
                    <polygon id="Fill-85" fill="url(#linearGradient-45)" mask="url(#mask-44)" points="0.036 68.937 69.842 140.917 69.842 66.182 0.036 0.485"></polygon>
                </g>
                <polygon id="Fill-88" fill="#1A1A1A" points="81.8401 162.0648 81.8401 237.3698 90.0241 228.1568 89.1921 158.8048"></polygon>
                <g id="Group-92" transform="translate(84.000000, 198.050000)">
                    <mask id="mask-47" fill="white">
                        <use xlink:href="#path-46"></use>
                    </mask>
                    <g id="Clip-91"></g>
                    <polygon id="Fill-90" fill="url(#linearGradient-48)" mask="url(#mask-47)" points="0.361 3.381 0.361 4.639 4.673 1.789 4.795 0.599"></polygon>
                </g>
                <g id="Group-95" transform="translate(84.000000, 186.050000)">
                    <mask id="mask-50" fill="white">
                        <use xlink:href="#path-49"></use>
                    </mask>
                    <g id="Clip-94"></g>
                    <polygon id="Fill-93" fill="url(#linearGradient-51)" mask="url(#mask-50)" points="0.361 2.979 0.361 4.237 4.673 1.387 4.795 0.197"></polygon>
                </g>
                <g id="Group-98" transform="translate(84.000000, 188.050000)">
                    <mask id="mask-53" fill="white">
                        <use xlink:href="#path-52"></use>
                    </mask>
                    <g id="Clip-97"></g>
                    <polygon id="Fill-96" fill="url(#linearGradient-54)" mask="url(#mask-53)" points="0.361 3.459 0.361 4.717 4.673 1.868 4.795 0.677"></polygon>
                </g>
                <g id="Group-101" transform="translate(84.000000, 191.050000)">
                    <mask id="mask-56" fill="white">
                        <use xlink:href="#path-55"></use>
                    </mask>
                    <g id="Clip-100"></g>
                    <polygon id="Fill-99" fill="url(#linearGradient-57)" mask="url(#mask-56)" points="0.361 2.939 0.361 4.198 4.673 1.348 4.795 0.158"></polygon>
                </g>
                <g id="Group-104" transform="translate(84.000000, 193.050000)">
                    <mask id="mask-59" fill="white">
                        <use xlink:href="#path-58"></use>
                    </mask>
                    <g id="Clip-103"></g>
                    <polygon id="Fill-102" fill="url(#linearGradient-60)" mask="url(#mask-59)" points="0.361 3.42 0.361 4.678 4.673 1.829 4.795 0.638"></polygon>
                </g>
                <g id="Group-107" transform="translate(84.000000, 196.050000)">
                    <mask id="mask-62" fill="white">
                        <use xlink:href="#path-61"></use>
                    </mask>
                    <g id="Clip-106"></g>
                    <polygon id="Fill-105" fill="url(#linearGradient-63)" mask="url(#mask-62)" points="0.361 2.9 0.361 4.158 4.673 1.309 4.795 0.118"></polygon>
                </g>
                <g id="Group-110" transform="translate(84.000000, 201.050000)">
                    <mask id="mask-65" fill="white">
                        <use xlink:href="#path-64"></use>
                    </mask>
                    <g id="Clip-109"></g>
                    <polygon id="Fill-108" fill="url(#linearGradient-66)" mask="url(#mask-65)" points="0.361 2.862 0.361 4.119 4.673 1.27 4.795 0.079"></polygon>
                </g>
                <g id="Group-113" transform="translate(84.000000, 203.050000)">
                    <mask id="mask-68" fill="white">
                        <use xlink:href="#path-67"></use>
                    </mask>
                    <g id="Clip-112"></g>
                    <polygon id="Fill-111" fill="url(#linearGradient-69)" mask="url(#mask-68)" points="0.361 3.342 0.361 4.6 4.673 1.75 4.795 0.559"></polygon>
                </g>
                <g id="Group-116" transform="translate(12.000000, 96.050000)">
                    <mask id="mask-71" fill="white">
                        <use xlink:href="#path-70"></use>
                    </mask>
                    <g id="Clip-115"></g>
                    <polygon id="Fill-114" fill="url(#linearGradient-72)" mask="url(#mask-71)" points="69.84 66.584 77.192 62.755 10.005 1.35 0.036 0.485"></polygon>
                </g>
                <path d="M70.1995,161.2279 L25.9915,120.8739 C25.1935,120.0719 24.1705,119.8219 23.2255,119.9819 L23.2185,119.9629 L18.8275,120.9659 L20.6875,122.2119 C20.6065,122.4949 20.5575,122.7939 20.5575,123.1149 L20.5575,163.9989 C20.5575,164.7939 20.8555,165.5609 21.3935,166.1469 L64.8175,209.3649 L64.5005,212.1099 L68.6305,211.1749 C68.6485,211.1709 68.6675,211.1669 68.6865,211.1629 L68.7395,211.1509 L68.7365,211.1469 C70.0385,210.8069 71.1245,209.6709 71.1245,208.0719 L71.1245,163.4689 C71.1245,162.6289 70.7925,161.8239 70.1995,161.2279" id="Fill-117" fill="#1A1A1A"></path>
                <g id="Group-121" transform="translate(16.000000, 120.050000)">
                    <mask id="mask-74" fill="white">
                        <use xlink:href="#path-73"></use>
                    </mask>
                    <g id="Clip-120"></g>
                    <path d="M0.458,3.991 L0.458,44.874 C0.458,45.67 0.756,46.436 1.294,47.024 L1.294,47.024 L45.503,91.097 C47.463,93.234 51.025,91.847 51.025,88.949 L51.025,88.949 L51.025,44.346 C51.025,43.506 50.693,42.7 50.1,42.105 L50.1,42.105 L5.891,1.749 C5.242,1.097 4.444,0.805 3.66,0.805 L3.66,0.805 C2.026,0.805 0.458,2.074 0.458,3.991" id="Fill-119" fill="url(#linearGradient-75)" mask="url(#mask-74)"></path>
                </g>
                <g id="Group-130" transform="translate(19.000000, 125.050000)" fill="#B2B2B2">
                    <path d="M1.8948,0.676 C2.2618,1.23 2.2398,1.891 1.8448,2.153 C1.4498,2.415 0.8328,2.179 0.4638,1.626 C0.0968,1.073 0.1198,0.412 0.5138,0.15 C0.9098,-0.113 1.5278,0.123 1.8948,0.676" id="Fill-122"></path>
                    <path d="M1.8948,39.6096 C2.2618,40.1626 2.2398,40.8236 1.8448,41.0866 C1.4498,41.3486 0.8328,41.1126 0.4638,40.5596 C0.0968,40.0056 0.1198,39.3446 0.5138,39.0836 C0.9098,38.8206 1.5278,39.0566 1.8948,39.6096" id="Fill-124"></path>
                    <path d="M43.9797,40.3762 C44.3477,40.9302 44.3257,41.5912 43.9297,41.8532 C43.5357,42.1152 42.9177,41.8792 42.5497,41.3262 C42.1827,40.7732 42.2057,40.1122 42.5997,39.8502 C42.9947,39.5872 43.6127,39.8232 43.9797,40.3762" id="Fill-126"></path>
                    <path d="M43.9797,79.3098 C44.3477,79.8628 44.3257,80.5238 43.9297,80.7868 C43.5357,81.0488 42.9177,80.8128 42.5497,80.2598 C42.1827,79.7058 42.2057,79.0448 42.5997,78.7838 C42.9947,78.5208 43.6127,78.7568 43.9797,79.3098" id="Fill-128"></path>
                </g>
                <g id="Group-133" transform="translate(218.000000, 133.050000)">
                    <mask id="mask-77" fill="white">
                        <use xlink:href="#path-76"></use>
                    </mask>
                    <g id="Clip-132"></g>
                    <path d="M3.095,1.863 C-0.502,3.94 -0.502,7.308 3.095,9.386 L3.095,9.386 C6.694,11.463 12.528,11.463 16.126,9.386 L16.126,9.386 C19.725,7.308 19.725,3.94 16.126,1.863 L16.126,1.863 C14.327,0.823 11.969,0.304 9.611,0.304 L9.611,0.304 C7.253,0.304 4.894,0.823 3.095,1.863" id="Fill-131" fill="url(#linearGradient-78)" mask="url(#mask-77)"></path>
                </g>
                <path d="M234.1262,133.9838 C237.7252,136.0618 237.7252,139.4298 234.1262,141.5078 C230.5272,143.5858 224.6932,143.5858 221.0952,141.5078 C217.4972,139.4298 217.4972,136.0618 221.0952,133.9838 C224.6932,131.9068 230.5272,131.9068 234.1262,133.9838" id="Fill-134" fill="#1A1A1A"></path>
                <g id="Group-138" transform="translate(224.000000, 136.050000)">
                    <mask id="mask-80" fill="white">
                        <use xlink:href="#path-79"></use>
                    </mask>
                    <g id="Clip-137"></g>
                    <path d="M1.584,0.526 C0.465,1.172 0.465,2.219 1.584,2.867 L1.584,2.867 C2.704,3.513 4.518,3.513 5.638,2.867 L5.638,2.867 C6.757,2.219 6.757,1.172 5.638,0.526 L5.638,0.526 C5.078,0.203 4.344,0.041 3.611,0.041 L3.611,0.041 C2.877,0.041 2.144,0.203 1.584,0.526" id="Fill-136" fill="url(#linearGradient-81)" mask="url(#mask-80)"></path>
                </g>
                <g id="Group-141" transform="translate(224.000000, 135.050000)">
                    <mask id="mask-83" fill="white">
                        <use xlink:href="#path-82"></use>
                    </mask>
                    <g id="Clip-140"></g>
                    <path d="M1.584,0.799 C0.465,1.446 0.465,2.493 1.584,3.139 L1.584,3.139 C2.704,3.786 4.518,3.786 5.638,3.139 L5.638,3.139 C6.757,2.493 6.757,1.446 5.638,0.799 L5.638,0.799 C5.078,0.476 4.344,0.314 3.611,0.314 L3.611,0.314 C2.877,0.314 2.144,0.476 1.584,0.799" id="Fill-139" fill="url(#linearGradient-84)" mask="url(#mask-83)"></path>
                </g>
                <g id="Group-144" transform="translate(226.000000, 118.050000)">
                    <mask id="mask-86" fill="white">
                        <use xlink:href="#path-85"></use>
                    </mask>
                    <g id="Clip-143"></g>
                    <path d="M0.789,0.518 L0.789,18.424 L0.789,18.425 L0.789,18.526 L0.796,18.526 C0.811,18.816 0.887,19.101 1.03,19.323 L1.03,19.323 C1.351,19.821 1.87,19.821 2.191,19.323 L2.191,19.323 C2.335,19.101 2.41,18.816 2.426,18.526 L2.426,18.526 L2.432,18.526 L2.432,18.425 L2.432,18.424 L2.432,0.518 L0.789,0.518 Z" id="Fill-142" fill="url(#linearGradient-87)" mask="url(#mask-86)"></path>
                </g>
                <g id="Group-147" transform="translate(209.000000, 106.050000)">
                    <mask id="mask-89" fill="white">
                        <use xlink:href="#path-88"></use>
                    </mask>
                    <g id="Clip-146"></g>
                    <path d="M5.571,3.52 C-1.631,7.679 -1.631,14.42 5.571,18.578 L5.571,18.578 C12.773,22.736 24.448,22.736 31.651,18.578 L31.651,18.578 C38.853,14.42 38.853,7.679 31.651,3.52 L31.651,3.52 C28.05,1.441 23.33,0.402 18.611,0.402 L18.611,0.402 C13.891,0.402 9.172,1.441 5.571,3.52" id="Fill-145" fill="url(#linearGradient-90)" mask="url(#mask-89)"></path>
                </g>
                <path d="M240.6506,108.5131 C247.8526,112.6701 247.8526,119.4121 240.6506,123.5701 C233.4486,127.7281 221.7726,127.7281 214.5706,123.5701 C207.3696,119.4121 207.3696,112.6701 214.5706,108.5131 C221.7726,104.3551 233.4486,104.3551 240.6506,108.5131" id="Fill-148" fill="#E5E5E5"></path>
                <g id="Group-152" transform="translate(218.000000, 159.050000)">
                    <mask id="mask-92" fill="white">
                        <use xlink:href="#path-91"></use>
                    </mask>
                    <g id="Clip-151"></g>
                    <path d="M48.22,0.823 L25.322,6.18 C22.867,6.754 21.945,9.765 23.658,11.615 L23.658,11.615 L46.719,36.355 C51.21,41.205 49.779,49.01 43.859,51.951 L43.859,51.951 L2.401,72.947 C0.338,73.972 -0.059,76.746 1.634,78.309 L1.634,78.309 L17.8,93.228 C18.835,94.182 20.362,94.373 21.599,93.7 L21.599,93.7 L70.044,66.242 C84.525,58.38 87.467,38.851 75.947,27.071 L75.947,27.071 L51.32,1.727 C50.694,1.086 49.843,0.737 48.968,0.737 L48.968,0.737 C48.719,0.737 48.468,0.765 48.22,0.823" id="Fill-150" fill="url(#linearGradient-93)" mask="url(#mask-92)"></path>
                </g>
                <path d="M301.0266,202.6791 L299.4236,203.3421 C298.2556,200.2611 296.4416,197.3461 293.9476,194.7951 L269.3196,169.4511 C268.5156,168.6291 267.3396,168.2861 266.2196,168.5481 L243.3226,173.9051 C240.8666,174.4801 239.9456,177.4901 241.6586,179.3401 L264.7186,204.0791 C268.4596,208.1191 268.0796,214.1991 264.4316,217.8211 L218.5756,235.8281 L218.5756,244.7351 L218.9066,245.0051 C219.0816,245.3761 219.3066,245.7321 219.6336,246.0331 L235.7996,260.9521 C236.8356,261.9081 238.3626,262.0971 239.5986,261.4251 L288.0446,233.9671 C296.7916,229.2171 301.3196,220.2101 301.0026,211.2251 L301.0266,211.2081 L301.0266,202.6791 Z" id="Fill-153" fill="#CBCBCB"></path>
                <g id="Group-157" transform="translate(240.000000, 168.050000)">
                    <mask id="mask-95" fill="white">
                        <use xlink:href="#path-94"></use>
                    </mask>
                    <g id="Clip-156"></g>
                    <path d="M0.823,9.547 L26.358,38.417 C26.358,38.417 29.05,33.742 26.867,29.886 L26.867,29.886 C24.685,26.03 0.823,0.413 0.823,0.413 L0.823,0.413 L0.823,9.547 Z" id="Fill-155" fill="url(#linearGradient-96)" mask="url(#mask-95)"></path>
                </g>
                <g id="Group-184" transform="translate(218.000000, 146.050000)">
                    <path d="M2.4006,85.9474 L43.8586,64.9514 C49.7786,62.0104 51.2106,54.2054 46.7186,49.3544 L23.6586,24.6154 C21.9456,22.7644 22.8676,19.7544 25.3226,19.1794 L48.2196,13.8234 C49.3396,13.5614 50.5156,13.9044 51.3196,14.7264 L75.9476,40.0704 C87.4666,51.8504 84.5246,71.3804 70.0446,79.2424 L21.5986,106.7004 C20.3626,107.3724 18.8356,107.1814 17.7996,106.2274 L1.6336,91.3084 C-0.0584,89.7464 0.3376,86.9724 2.4006,85.9474" id="Fill-158" fill="#F1F1F1"></path>
                    <path d="M84.7483,50.5363 C84.8123,50.6713 84.8803,50.8063 84.9413,50.9413 C85.0023,50.8073 85.0553,50.6713 85.1123,50.5363 L84.7483,50.5363 Z" id="Fill-160" fill="#CBCBCB"></path>
                    <path d="M85.386,43.2453 C84.282,36.1443 74.512,26.3463 74.512,26.3463 L66.182,17.5383 L62.939,16.5903 L62.939,26.7673 L75.948,40.0703 C79.018,43.2103 81.051,46.9023 82.122,50.7763 L83.365,56.3763 C83.365,56.3763 86.49,50.3473 85.386,43.2453" id="Fill-162" fill="#989898"></path>
                    <path d="M87.1194,59.9787 L87.1194,46.4247 L84.7484,45.4327 L81.7244,61.0017 C79.7304,63.4977 77.2124,65.6657 74.1764,67.3137 L36.6124,87.9127 C35.3754,88.5827 33.8484,88.3937 32.8124,87.4387 L32.8124,103.1547 C33.8484,104.1097 35.3754,104.2997 36.6124,103.6277 L74.1764,83.0297 C87.2634,75.9227 87.1194,64.2047 87.1194,64.2047 L87.1194,62.3257 C87.1544,61.5437 87.1564,60.7617 87.1194,59.9787" id="Fill-164" fill="#989898"></path>
                    <path d="M64.0588,15.6066 C65.1788,15.3446 66.3538,15.6876 67.1588,16.5096 L80.0788,30.2466 C91.5988,42.0266 88.6558,59.5336 74.1758,67.3956 L36.6128,87.9956 C35.3748,88.6666 33.8478,88.4766 32.8138,87.5216 L72.0518,64.8006 C87.1198,55.0716 87.0898,41.4156 76.2678,30.3476 L62.9388,16.6716 C62.1828,15.8996 64.0588,15.6066 64.0588,15.6066" id="Fill-166" fill="#808080"></path>
                    <path d="M84.9299,42.384 L79.7089,30.365 L76.6859,45.935 C74.6919,48.43 72.1729,50.598 69.1369,52.246 L31.5739,72.845 C30.3359,73.517 28.8089,73.326 27.7749,72.371 L27.7749,100.767 C28.8089,101.722 30.3359,101.912 31.5739,101.24 L69.1369,80.642 C82.2249,73.535 83.7319,61.757 83.7319,61.757 L84.9299,42.384 Z" id="Fill-168" fill="#4D4D4D"></path>
                    <path d="M87.1194,59.9787 L87.1194,46.4247 L84.7484,45.4327 L81.7244,61.0017 C79.7304,63.4977 77.2124,65.6657 74.1764,67.3137 L36.6124,87.9127 C35.3754,88.5827 33.8484,88.3937 32.8124,87.4387 L32.8124,103.1547 C33.8484,104.1097 35.3754,104.2997 36.6124,103.6277 L74.1764,83.0297 C87.2634,75.9227 87.1194,64.2047 87.1194,64.2047 L87.1194,62.3257 C87.1544,61.5437 87.1564,60.7617 87.1194,59.9787" id="Fill-170" fill="#B2B2B2"></path>
                    <path d="M64.0588,15.6066 C65.1788,15.3446 66.3538,15.6876 67.1588,16.5096 L80.0788,30.2466 C91.5988,42.0266 88.6558,59.5336 74.1758,67.3956 L36.6128,87.9956 C35.3748,88.6666 33.8478,88.4766 32.8138,87.5216 L72.0518,64.8006 C87.1198,55.0716 87.0898,41.4156 76.2678,30.3476 L62.9388,16.6716 C62.1828,15.8996 64.0588,15.6066 64.0588,15.6066" id="Fill-172" fill="#989898"></path>
                    <path d="M80.3469,28.1779 C79.2429,21.0769 69.4739,11.2789 69.4739,11.2789 L61.1439,2.4709 L57.9009,1.5229 L57.9009,23.9569 L70.9089,37.2599 C73.9799,40.4009 76.0119,44.0929 77.0829,47.9659 L78.3259,53.5659 C78.3259,53.5659 81.4509,35.2799 80.3469,28.1779" id="Fill-174" fill="#4D4D4D"></path>
                    <path d="M59.0198,0.5392 C60.1398,0.2772 61.3158,0.6202 62.1208,1.4422 L75.0408,15.1792 C86.5598,26.9592 83.6178,44.4662 69.1368,52.3282 L31.5738,72.9282 C30.3358,73.5992 28.8088,73.4092 27.7748,72.4542 L67.0128,49.7332 C82.0808,40.0042 82.0518,26.3482 71.2298,15.2802 L57.9008,1.6042 C57.1448,0.8322 59.0198,0.5392 59.0198,0.5392" id="Fill-176" fill="#808080"></path>
                    <polyline id="Stroke-178" stroke="#989898" stroke-width="0.25" points="49.7209 59.7463 52.8429 61.7833 52.8429 75.5103"></polyline>
                    <polyline id="Stroke-180" stroke="#989898" stroke-width="0.25" points="71.1584 46.5998 74.2804 48.6358 74.2804 63.1478"></polyline>
                    <polyline id="Stroke-182" stroke="#989898" stroke-width="0.25" points="74.7532 42.5392 74.7532 19.4902 78.4152 19.3892"></polyline>
                </g>
            </g>
        </g>
    </g>
</svg>