<svg width="502px" height="283px" viewBox="0 0 502 283" version="1.1" xmlns="http://www.w3.org/2000/svg" xmlns:xlink="http://www.w3.org/1999/xlink">
    <defs>
        <polygon id="path-1" points="0.984 127.549 0.984 140 406.237 13.541 405.918 0.486"></polygon>
        <linearGradient x1="-0.000133373473%" y1="49.9998278%" x2="100.000053%" y2="49.9998278%" id="linearGradient-3">
            <stop stop-color="#646664" offset="0%"></stop>
            <stop stop-color="#4D4D4D" offset="100%"></stop>
        </linearGradient>
        <polygon id="path-4" points="0.001 12.804 95.984 116 95.984 103.549 0.001 0.294"></polygon>
        <linearGradient x1="-0.00100069804%" y1="50.0000951%" x2="99.9994382%" y2="50.0000951%" id="linearGradient-6">
            <stop stop-color="#808080" offset="0%"></stop>
            <stop stop-color="#666666" offset="100%"></stop>
        </linearGradient>
        <polygon id="path-7" points="101.333 103.416 101.333 115.866 0.033 12.67 0.033 0.16"></polygon>
        <linearGradient x1="0.000110167818%" y1="50.0000795%" x2="99.9992922%" y2="50.0000795%" id="linearGradient-9">
            <stop stop-color="#808080" offset="0%"></stop>
            <stop stop-color="#666666" offset="100%"></stop>
        </linearGradient>
        <polygon id="path-10" points="0 0.0957935278 500.9179 0.0957935278 500.9179 212.5493 0 212.5493"></polygon>
        <path d="M20.441,0.68 L5.163,0.68 C-2.396,10.445 2.014,22.65 2.014,22.65 L2.014,22.65 C8.314,25.721 32.569,25.721 38.869,22.65 L38.869,22.65 C38.869,22.65 43.279,10.445 35.718,0.68 L35.718,0.68 L20.441,0.68 Z" id="path-12"></path>
        <linearGradient x1="-0.000247157656%" y1="50.0006703%" x2="99.9997989%" y2="50.0006703%" id="linearGradient-14">
            <stop stop-color="#F0233D" offset="0%"></stop>
            <stop stop-color="#FF7979" offset="100%"></stop>
        </linearGradient>
        <path d="M19.814,0.129 L4.536,0.129 C-3.023,9.894 1.387,22.098 1.387,22.098 L1.387,22.098 C7.686,25.169 31.941,25.169 38.241,22.098 L38.241,22.098 C38.241,22.098 42.651,9.894 35.091,0.129 L35.091,0.129 L19.814,0.129 Z" id="path-15"></path>
        <linearGradient x1="-0.000825167795%" y1="49.9983508%" x2="100.001362%" y2="49.9983508%" id="linearGradient-17">
            <stop stop-color="#F0233D" offset="0%"></stop>
            <stop stop-color="#FF7979" offset="100%"></stop>
        </linearGradient>
        <path d="M20.322,0.64 L5.045,0.64 C-2.516,10.404 1.894,22.609 1.894,22.609 L1.894,22.609 C8.194,25.679 32.449,25.679 38.749,22.609 L38.749,22.609 C38.749,22.609 43.159,10.404 35.599,0.64 L35.599,0.64 L20.322,0.64 Z" id="path-18"></path>
        <linearGradient x1="-0.000407626959%" y1="49.9999654%" x2="100.000035%" y2="49.9999654%" id="linearGradient-20">
            <stop stop-color="#F0233D" offset="0%"></stop>
            <stop stop-color="#FF7979" offset="100%"></stop>
        </linearGradient>
        <path d="M20.448,0.803 L5.17,0.803 C-2.389,10.568 2.021,22.773 2.021,22.773 L2.021,22.773 C8.321,25.843 32.576,25.843 38.875,22.773 L38.875,22.773 C38.875,22.773 43.286,10.568 35.726,0.803 L35.726,0.803 L20.448,0.803 Z" id="path-21"></path>
        <linearGradient x1="-0.000198697045%" y1="50.0007741%" x2="100.000574%" y2="50.0007741%" id="linearGradient-23">
            <stop stop-color="#F0233D" offset="0%"></stop>
            <stop stop-color="#FF7979" offset="100%"></stop>
        </linearGradient>
    </defs>
    <g id="Symbols" stroke="none" stroke-width="1" fill="none" fill-rule="evenodd">
        <g id="img/guide/map/1/default">
            <g>
                <g id="Group-3" transform="translate(95.000000, 141.275000)">
                    <mask id="mask-2" fill="white">
                        <use xlink:href="#path-1"></use>
                    </mask>
                    <g id="Clip-2"></g>
                    <polygon id="Fill-1" fill="url(#linearGradient-3)" mask="url(#mask-2)" points="0.984 127.549 0.984 140 406.237 13.541 405.918 0.486"></polygon>
                </g>
                <g id="Group-6" transform="translate(0.000000, 165.275000)">
                    <mask id="mask-5" fill="white">
                        <use xlink:href="#path-4"></use>
                    </mask>
                    <g id="Clip-5"></g>
                    <polygon id="Fill-4" fill="url(#linearGradient-6)" mask="url(#mask-5)" points="0.001 12.804 95.984 116 95.984 103.549 0.001 0.294"></polygon>
                </g>
                <g id="Group-9" transform="translate(135.000000, 90.275000)">
                    <mask id="mask-8" fill="white">
                        <use xlink:href="#path-7"></use>
                    </mask>
                    <g id="Clip-8"></g>
                    <polygon id="Fill-7" fill="url(#linearGradient-9)" mask="url(#mask-8)" points="101.333 103.416 101.333 115.866 0.033 12.67 0.033 0.16"></polygon>
                </g>
                <g id="Group-12" transform="translate(0.000000, 56.275000)">
                    <mask id="mask-11" fill="white">
                        <use xlink:href="#path-10"></use>
                    </mask>
                    <g id="Clip-11"></g>
                    <path d="M333.0279,0.1883 C329.5109,0.2743 325.6519,0.3893 321.5099,0.5643 L321.4999,0.5643 L321.4909,0.5643 C318.1849,0.7043 314.6989,0.8803 311.0479,1.1123 C203.4449,7.5603 134.8659,34.0893 134.8659,34.0893 L159.1379,58.3623 L-0.0001,109.2933 L95.9829,212.5493 L500.9179,85.4853 C500.8579,85.3243 468.7889,-3.1567 333.0279,0.1883" id="Fill-10" fill="#B2B2B2" mask="url(#mask-11)"></path>
                </g>
                <g id="Group-15" transform="translate(244.000000, 76.275000)">
                    <mask id="mask-13" fill="white">
                        <use xlink:href="#path-12"></use>
                    </mask>
                    <g id="Clip-14"></g>
                    <path d="M20.441,0.68 L5.163,0.68 C-2.396,10.445 2.014,22.65 2.014,22.65 L2.014,22.65 C8.314,25.721 32.569,25.721 38.869,22.65 L38.869,22.65 C38.869,22.65 43.279,10.445 35.718,0.68 L35.718,0.68 L20.441,0.68 Z" id="Fill-13" fill="url(#linearGradient-14)" mask="url(#mask-13)"></path>
                </g>
                <path d="M279.7183,76.9555 C279.7183,78.0865 272.8783,79.0035 264.4413,79.0035 C256.0033,79.0035 249.1633,78.0865 249.1633,76.9555 C249.1633,75.8245 256.0033,74.9075 264.4413,74.9075 C272.8783,74.9075 279.7183,75.8245 279.7183,76.9555" id="Fill-16" fill="#DA2128"></path>
                <g id="Group-20" transform="translate(328.000000, 103.275000)">
                    <mask id="mask-16" fill="white">
                        <use xlink:href="#path-15"></use>
                    </mask>
                    <g id="Clip-19"></g>
                    <path d="M19.814,0.129 L4.536,0.129 C-3.023,9.894 1.387,22.098 1.387,22.098 L1.387,22.098 C7.686,25.169 31.941,25.169 38.241,22.098 L38.241,22.098 C38.241,22.098 42.651,9.894 35.091,0.129 L35.091,0.129 L19.814,0.129 Z" id="Fill-18" fill="url(#linearGradient-17)" mask="url(#mask-16)"></path>
                </g>
                <g id="Group-35" transform="translate(91.000000, 0.275000)">
                    <path d="M272.0913,103.1288 C272.0913,104.2598 265.2513,105.1758 256.8143,105.1758 C248.3763,105.1758 241.5363,104.2598 241.5363,103.1288 C241.5363,101.9978 248.3763,101.0808 256.8143,101.0808 C265.2513,101.0808 272.0913,101.9978 272.0913,103.1288" id="Fill-21" fill="#DA2128"></path>
                    <path d="M237.1538,0.8182 C233.6368,0.9052 229.7778,1.0202 225.6358,1.1942 C225.6328,1.1942 225.6298,1.1942 225.6258,1.1952 L225.6168,1.1952 C222.3108,1.3342 218.8248,1.5102 215.1738,1.7422 C199.3678,2.6892 184.4128,4.0722 170.3838,5.7382 L170.3838,60.9382 C184.4128,59.2722 199.3678,57.8892 215.1738,56.9422 C218.8248,56.7112 222.3108,56.5342 225.6168,56.3952 L225.6258,56.3952 C225.6298,56.3942 225.6328,56.3942 225.6358,56.3942 C229.7778,56.2202 233.6368,56.1052 237.1538,56.0182 C372.9148,52.6742 404.9838,141.1542 405.0438,141.3162 L405.0438,86.1162 C404.9838,85.9542 372.9148,-2.5258 237.1538,0.8182" id="Fill-23" fill="#E5E5E5"></path>
                    <path d="M239.7935,7.5721 C236.4345,7.6551 232.7475,7.7651 228.7905,7.9311 C228.7875,7.9311 228.7845,7.9311 228.7805,7.9321 L228.7725,7.9321 C225.6145,8.0651 222.2845,8.2341 218.7965,8.4551 C203.4145,9.3771 188.8755,10.7301 175.2585,12.3621 L175.2585,65.0921 C188.8755,63.4601 203.4145,62.1061 218.7965,61.1841 C222.2845,60.9641 225.6145,60.7951 228.7725,60.6621 L228.7805,60.6621 L228.7905,60.6621 C232.7475,60.4951 236.4345,60.3851 239.7935,60.3021 C369.4785,57.1081 400.1115,141.6281 400.1685,141.7821 L400.1685,89.0521 C400.1115,88.8981 369.4785,4.3781 239.7935,7.5721" id="Fill-25" fill="#FFFFFF"></path>
                    <polygon id="Fill-27" fill="#808080" points="170.3843 60.9383 175.2583 64.7313 175.2583 12.0013 170.3843 5.7383"></polygon>
                    <polygon id="Fill-29" fill="#FFFFFF" points="0.7456 206.3875 4.9826 211.3595 406.7516 83.7965 401.5456 79.1515"></polygon>
                    <polygon id="Fill-31" fill="#CBCBCB" points="4.9839 211.3592 4.9839 268.5492 406.7519 141.2742 406.7519 83.7972"></polygon>
                    <polygon id="Fill-33" fill="#CBCBCB" points="0.7456 206.3875 0.7456 261.9095 4.9656 268.5495 4.9656 211.3605"></polygon>
                </g>
                <g id="Group-38" transform="translate(322.000000, 50.275000)">
                    <mask id="mask-19" fill="white">
                        <use xlink:href="#path-18"></use>
                    </mask>
                    <g id="Clip-37"></g>
                    <path d="M20.322,0.64 L5.045,0.64 C-2.516,10.404 1.894,22.609 1.894,22.609 L1.894,22.609 C8.194,25.679 32.449,25.679 38.749,22.609 L38.749,22.609 C38.749,22.609 43.159,10.404 35.599,0.64 L35.599,0.64 L20.322,0.64 Z" id="Fill-36" fill="url(#linearGradient-20)" mask="url(#mask-19)"></path>
                </g>
                <path d="M357.5992,50.9145 C357.5992,52.0455 350.7592,52.9625 342.3222,52.9625 C333.8842,52.9625 327.0432,52.0455 327.0432,50.9145 C327.0432,49.7835 333.8842,48.8665 342.3222,48.8665 C350.7592,48.8665 357.5992,49.7835 357.5992,50.9145" id="Fill-39" fill="#DA2128"></path>
                <g id="Group-43" transform="translate(391.000000, 76.275000)">
                    <mask id="mask-22" fill="white">
                        <use xlink:href="#path-21"></use>
                    </mask>
                    <g id="Clip-42"></g>
                    <path d="M20.448,0.803 L5.17,0.803 C-2.389,10.568 2.021,22.773 2.021,22.773 L2.021,22.773 C8.321,25.843 32.576,25.843 38.875,22.773 L38.875,22.773 C38.875,22.773 43.286,10.568 35.726,0.803 L35.726,0.803 L20.448,0.803 Z" id="Fill-41" fill="url(#linearGradient-23)" mask="url(#mask-22)"></path>
                </g>
                <g id="Group-252" transform="translate(59.000000, 74.275000)">
                    <path d="M367.7261,2.8036 C367.7261,3.9346 360.8861,4.8506 352.4481,4.8506 C344.0101,4.8506 337.1701,3.9346 337.1701,2.8036 C337.1701,1.6726 344.0101,0.7556 352.4481,0.7556 C360.8861,0.7556 367.7261,1.6726 367.7261,2.8036" id="Fill-44" fill="#DA2128"></path>
                    <path d="M28.6392,105.5701 C24.6582,107.8691 18.2022,107.8691 14.2212,105.5701 C10.2402,103.2711 10.2402,99.5451 14.2212,97.2461 C18.2022,94.9471 24.6582,94.9471 28.6392,97.2461 C32.6202,99.5451 32.6202,103.2711 28.6392,105.5701" id="Fill-46" fill="#FFFFFF"></path>
                    <path d="M28.314,106.8358 C24.512,109.0308 18.348,109.0308 14.546,106.8358 C10.745,104.6408 10.745,101.0818 14.546,98.8868 C18.348,96.6918 24.512,96.6918 28.314,98.8868 C32.116,101.0818 32.116,104.6408 28.314,106.8358" id="Fill-48" fill="#333333"></path>
                    <path d="M14.1216,127.5848 C18.1606,129.9168 24.7086,129.9168 28.7476,127.5848 C30.0236,126.8488 30.8936,125.9668 31.3636,125.0318 C31.5296,124.5518 31.6246,124.0488 31.6246,123.5298 L31.6246,101.4078 C31.6246,102.9138 30.6296,104.4208 28.6396,105.5698 C24.6576,107.8688 18.2026,107.8688 14.2216,105.5698 C12.2306,104.4208 11.2346,102.9138 11.2346,101.4078 L11.2346,123.5298 C11.2346,124.0308 11.3246,124.5168 11.4806,124.9818 C11.9436,125.9358 12.8226,126.8358 14.1216,127.5848" id="Fill-50" fill="#FFFFFF"></path>
                    <path d="M21.4302,95.5213 C18.8212,95.5223 16.2112,96.0963 14.2212,97.2463 C10.2402,99.5443 10.2402,103.2713 14.2212,105.5703 C16.2122,106.7193 18.8212,107.2933 21.4302,107.2933 C24.0382,107.2933 26.6492,106.7183 28.6392,105.5703 C32.6202,103.2713 32.6202,99.5443 28.6392,97.2463 C26.6482,96.0963 24.0392,95.5213 21.4302,95.5213 L21.4302,95.5213 Z M21.4312,95.5213 L21.4312,95.7863 C24.1082,95.7863 26.6202,96.3853 28.5062,97.4743 C30.3472,98.5373 31.3612,99.9343 31.3612,101.4083 C31.3612,102.8813 30.3472,104.2783 28.5072,105.3403 C26.6202,106.4293 24.1082,107.0293 21.4302,107.0293 C18.7522,107.0293 16.2402,106.4293 14.3532,105.3403 C12.5132,104.2783 11.4992,102.8813 11.4992,101.4083 C11.4992,99.9343 12.5132,98.5373 14.3532,97.4743 C16.2392,96.3853 18.7522,95.7863 21.4302,95.7863 L21.4312,95.5213 Z" id="Fill-52" fill="#FFFFFF"></path>
                    <path d="M11.065,81.7479 C9.398,79.7419 7.672,78.2309 6.192,77.3759 C4.856,76.6039 3.719,76.3669 3.004,76.7829 C2.637,76.9959 2.147,77.2799 1.78,77.4939 C1.79,77.4889 1.8,77.4859 1.809,77.4809 C1.619,77.5859 1.456,77.7319 1.328,77.9289 C0.171,79.6959 2.108,84.5869 5.653,88.8559 C7.318,90.8619 9.043,92.3729 10.522,93.2269 C11.919,94.0329 13.098,94.2559 13.805,93.7579 C13.643,92.5049 13.619,91.2619 13.753,90.0799 C13.758,90.0379 13.763,89.9969 13.772,89.9319 C13.777,89.8939 13.782,89.8549 13.791,89.7919 C13.794,89.7589 13.799,89.7269 13.808,89.6669 C13.813,89.6319 13.819,89.5979 13.83,89.5239 C13.836,89.4889 13.841,89.4549 13.853,89.3879 C13.859,89.3499 13.866,89.3109 13.873,89.2739 C13.878,89.2449 13.883,89.2159 13.889,89.1859 L15.113,88.4759 C14.356,86.4269 12.934,84.0009 11.065,81.7479" id="Fill-54" fill="#666666"></path>
                    <path d="M30.0562,96.2264 C29.9332,95.0724 29.6892,93.9064 29.3402,92.7674 C28.4742,89.9374 26.9592,87.2864 25.0332,85.4584 C24.8872,85.3204 24.7382,85.1864 24.5422,85.0204 C24.4542,84.9454 24.3662,84.8724 24.2762,84.8004 C23.8992,84.5024 23.5222,84.2464 23.1482,84.0304 C21.9942,83.3644 20.8642,83.0834 19.8272,83.1604 C19.1682,83.2074 18.5472,83.4004 17.9832,83.7284 L16.7592,84.4394 C16.7902,84.4204 16.8252,84.4074 16.8572,84.3894 C15.4272,85.1724 14.3412,86.8084 13.8892,89.1864 C13.8832,89.2154 13.8772,89.2454 13.8722,89.2744 C13.8682,89.2994 13.8632,89.3304 13.8562,89.3654 C13.8562,89.3714 13.8552,89.3754 13.8542,89.3814 C13.8532,89.3834 13.8532,89.3854 13.8532,89.3874 C13.8522,89.3894 13.8522,89.3914 13.8522,89.3934 C13.8512,89.3954 13.8512,89.3964 13.8512,89.3994 C13.8492,89.4074 13.8482,89.4124 13.8472,89.4204 C13.8452,89.4314 13.8432,89.4454 13.8402,89.4574 C13.8402,89.4624 13.8392,89.4674 13.8382,89.4714 C13.8382,89.4744 13.8372,89.4774 13.8372,89.4804 C13.8352,89.4924 13.8322,89.5044 13.8312,89.5154 C13.8302,89.5184 13.8302,89.5214 13.8292,89.5244 C13.8282,89.5314 13.8272,89.5384 13.8272,89.5434 C13.8262,89.5474 13.8262,89.5494 13.8262,89.5534 C13.8252,89.5564 13.8252,89.5584 13.8242,89.5624 C13.8222,89.5744 13.8202,89.5874 13.8182,89.6004 C13.8172,89.6044 13.8172,89.6104 13.8162,89.6144 C13.8162,89.6164 13.8152,89.6194 13.8152,89.6224 C13.8132,89.6344 13.8112,89.6474 13.8092,89.6584 C13.8092,89.6614 13.8082,89.6644 13.8082,89.6664 C13.8072,89.6744 13.8062,89.6804 13.8052,89.6874 C13.7982,89.7334 13.7942,89.7614 13.7902,89.7894 L13.7902,89.7914 C13.7892,89.7914 13.7892,89.7924 13.7892,89.7934 C13.7892,89.7964 13.7892,89.7984 13.7882,89.8014 C13.7872,89.8074 13.7872,89.8104 13.7862,89.8174 C13.7852,89.8304 13.7832,89.8454 13.7812,89.8604 C13.7812,89.8644 13.7802,89.8694 13.7792,89.8724 C13.7792,89.8774 13.7782,89.8824 13.7772,89.8874 C13.7762,89.9014 13.7742,89.9144 13.7722,89.9264 L13.7722,89.9314 C13.7712,89.9334 13.7712,89.9364 13.7712,89.9384 C13.7712,89.9404 13.7702,89.9414 13.7702,89.9434 C13.7702,89.9484 13.7692,89.9514 13.7692,89.9554 L13.7662,89.9764 C13.7612,90.0154 13.7572,90.0474 13.7542,90.0784 C13.7542,90.0784 13.7532,90.0794 13.7532,90.0804 L13.7532,90.0804 C13.6352,91.1134 13.6462,92.1954 13.7572,93.2884 C13.7742,93.4454 13.7852,93.6014 13.8052,93.7574 C13.7752,93.7794 13.7432,93.7994 13.7092,93.8194 L13.8062,93.7624 C14.0772,95.8484 14.7342,97.9604 15.6862,99.8524 L25.9622,105.7864 L27.1862,105.0754 C28.5212,104.2384 29.5252,102.6184 29.9432,100.3204 C30.1782,99.0264 30.2062,97.6354 30.0562,96.2264" id="Fill-56" fill="#666666"></path>
                    <path d="M30.0562,96.2264 C29.9332,95.0724 29.6892,93.9064 29.3402,92.7674 C28.4742,89.9374 26.9592,87.2864 25.0332,85.4584 C24.8872,85.3204 24.7382,85.1864 24.5422,85.0204 C24.4542,84.9454 24.3662,84.8724 24.2762,84.8004 C23.8992,84.5024 23.5222,84.2464 23.1482,84.0304 C21.9942,83.3644 20.8642,83.0834 19.8272,83.1604 C19.1682,83.2074 18.5472,83.4004 17.9832,83.7284 L17.7132,83.8844 C18.1102,83.7304 18.5252,83.6294 18.9582,83.5984 C19.9952,83.5224 21.1262,83.8024 22.2802,84.4684 C22.6542,84.6844 23.0312,84.9414 23.4082,85.2394 C23.4972,85.3104 23.5862,85.3834 23.6742,85.4584 C23.8692,85.6244 24.0182,85.7584 24.1642,85.8974 C26.0912,87.7244 27.6062,90.3754 28.4722,93.2054 C28.8212,94.3444 29.0652,95.5104 29.1882,96.6644 C29.3382,98.0744 29.3102,99.4644 29.0752,100.7584 C28.6572,103.0564 27.6532,104.6754 26.3182,105.5134 L25.9062,105.7524 L25.9622,105.7864 L27.1862,105.0754 C28.5212,104.2384 29.5252,102.6184 29.9432,100.3204 C30.1782,99.0264 30.2062,97.6354 30.0562,96.2264" id="Fill-58" fill="#666666"></path>
                    <path d="M22.4976,67.4725 C22.4596,67.4485 22.4206,67.4255 22.3826,67.4035 C21.2866,66.7705 20.2556,66.7585 19.3936,67.2595 C19.0256,67.4725 18.5366,67.7565 18.1696,67.9705 C18.1776,67.9655 18.1866,67.9625 18.1946,67.9575 C16.8076,68.7455 15.8506,70.8555 15.7566,73.8485 C15.6426,77.4675 16.8166,81.3605 18.6026,83.8705 C19.6406,83.7945 20.7706,84.0755 21.9246,84.7415 C22.2986,84.9575 22.6756,85.2135 23.0516,85.5125 C23.1416,85.5825 23.2306,85.6565 23.3636,85.7695 C23.5146,85.8975 23.6626,86.0325 23.8096,86.1695 L25.0326,85.4585 C26.4116,84.6645 27.3616,82.5595 27.4546,79.5785 C27.6116,74.6715 25.3916,69.2505 22.4976,67.4725" id="Fill-60" fill="#666666"></path>
                    <path d="M43.2437,93.2703 C42.5127,91.5853 41.1667,90.1823 39.5567,89.2533 C37.7937,88.2353 35.7147,87.7853 33.7827,88.1553 C33.0587,88.2923 32.4117,88.5363 31.8477,88.8643 L30.6237,89.5753 C30.6497,89.5593 30.6787,89.5463 30.7047,89.5323 C29.1997,90.3743 28.2737,91.8083 28.1167,93.4783 C28.4657,94.6173 28.7097,95.7843 28.8327,96.9383 C29.5937,98.4463 30.8517,99.7023 32.3337,100.5573 C34.0977,101.5763 36.1757,102.0253 38.1057,101.6553 C38.8487,101.5123 39.5117,101.2583 40.0867,100.9163 C40.0707,100.9253 40.0567,100.9363 40.0417,100.9463 L41.2647,100.2343 C43.5837,98.8873 44.4747,96.1093 43.2437,93.2703" id="Fill-62" fill="#666666"></path>
                    <polygon id="Fill-64" fill="#FFFFFF" points="3.1451 79.8143 1.3921 78.4833 3.2221 79.7073"></polygon>
                    <polygon id="Fill-66" fill="#FFFFFF" points="3.4263 79.7342 3.2163 77.1332 3.5583 79.7202"></polygon>
                    <polygon id="Fill-68" fill="#FFFFFF" points="3.8775 79.6356 5.5305 78.0426 3.9725 79.7276"></polygon>
                    <polygon id="Fill-70" fill="#FFFFFF" points="4.8492 84.9696 3.3622 86.5926 4.7482 84.8836"></polygon>
                    <polygon id="Fill-72" fill="#FFFFFF" points="4.7954 84.6815 2.1864 84.6525 4.7934 84.5495"></polygon>
                    <polygon id="Fill-74" fill="#FFFFFF" points="4.7378 84.2235 3.3038 82.4315 4.8388 84.1385"></polygon>
                    <polygon id="Fill-76" fill="#FFFFFF" points="7.6324 82.4471 6.0954 80.8721 7.7244 82.3521"></polygon>
                    <polygon id="Fill-78" fill="#FFFFFF" points="7.9224 82.41 8.0994 79.806 8.0544 82.416"></polygon>
                    <polygon id="Fill-80" fill="#FFFFFF" points="8.3833 82.3787 10.2533 81.0477 8.4633 82.4837"></polygon>
                    <polygon id="Fill-82" fill="#FFFFFF" points="8.1861 89.1815 8.0591 91.3785 8.0531 89.1775"></polygon>
                    <polygon id="Fill-84" fill="#FFFFFF" points="7.9624 88.992 5.9214 90.618 7.8774 88.89"></polygon>
                    <polygon id="Fill-86" fill="#FFFFFF" points="7.6284 88.6737 5.3844 88.1907 7.6524 88.5437"></polygon>
                    <polygon id="Fill-88" fill="#FFFFFF" points="11.9136 90.7459 13.5786 92.1849 11.8296 90.8489"></polygon>
                    <polygon id="Fill-90" fill="#FFFFFF" points="11.6275 90.8074 11.6725 93.4164 11.4955 90.8134"></polygon>
                    <polygon id="Fill-92" fill="#FFFFFF" points="11.1714 90.8787 9.4204 92.3627 11.0824 90.7797"></polygon>
                    <polygon id="Fill-94" fill="#FFFFFF" points="9.3326 87.0291 9.0586 84.8441 9.4626 87.0081"></polygon>
                    <polygon id="Fill-96" fill="#FFFFFF" points="9.5865 87.1746 11.2985 85.2046 9.6885 87.2586"></polygon>
                    <polygon id="Fill-98" fill="#FFFFFF" points="9.9722 87.4276 12.2672 87.4956 9.9722 87.5596"></polygon>
                    <polygon id="Fill-100" fill="#FFFFFF" points="23.9263 72.3993 23.6533 70.2143 24.0573 72.3783"></polygon>
                    <polygon id="Fill-102" fill="#FFFFFF" points="24.1802 72.5448 25.8932 70.5748 24.2832 72.6288"></polygon>
                    <polygon id="Fill-104" fill="#FFFFFF" points="24.5669 72.7977 26.8609 72.8657 24.5669 72.9297"></polygon>
                    <polygon id="Fill-106" fill="#FFFFFF" points="23.732 77.992 23.458 75.807 23.863 77.971"></polygon>
                    <polygon id="Fill-108" fill="#FFFFFF" points="23.9859 78.1375 25.6989 76.1675 24.0879 78.2215"></polygon>
                    <polygon id="Fill-110" fill="#FFFFFF" points="24.3726 78.3905 26.6666 78.4585 24.3716 78.5225"></polygon>
                    <polygon id="Fill-112" fill="#FFFFFF" points="22.8492 83.702 23.4732 81.592 22.9772 83.735"></polygon>
                    <polygon id="Fill-114" fill="#FFFFFF" points="23.023 83.9373 25.381 82.8203 23.083 84.0553"></polygon>
                    <polygon id="Fill-116" fill="#FFFFFF" points="23.2749 84.3241 25.3499 85.3061 23.2219 84.4451"></polygon>
                    <polygon id="Fill-118" fill="#FFFFFF" points="20.5406 69.6834 18.9986 68.1124 20.6316 69.5874"></polygon>
                    <polygon id="Fill-120" fill="#FFFFFF" points="20.8306 69.6454 20.9986 67.0414 20.9626 69.6504"></polygon>
                    <polygon id="Fill-122" fill="#FFFFFF" points="21.2906 69.6122 23.1576 68.2762 21.3706 69.7172"></polygon>
                    <polygon id="Fill-124" fill="#FFFFFF" points="18.4195 78.5584 16.3295 77.8694 18.4575 78.4324"></polygon>
                    <polygon id="Fill-126" fill="#FFFFFF" points="18.6597 78.3924 17.6167 75.9994 18.7797 78.3354"></polygon>
                    <polygon id="Fill-128" fill="#FFFFFF" points="19.0542 78.1522 20.1012 76.1092 19.1732 78.2092"></polygon>
                    <polygon id="Fill-130" fill="#FFFFFF" points="20.771 74.577 18.657 73.965 20.804 74.449"></polygon>
                    <polygon id="Fill-132" fill="#FFFFFF" points="21.0054 74.4022 19.8744 72.0492 21.1224 74.3412"></polygon>
                    <polygon id="Fill-134" fill="#FFFFFF" points="21.3902 74.1473 22.3612 72.0673 21.5112 74.2003"></polygon>
                    <polygon id="Fill-136" fill="#FFFFFF" points="17.3091 73.0135 15.1131 73.1585 17.2961 72.8825"></polygon>
                    <polygon id="Fill-138" fill="#FFFFFF" points="17.4693 72.7694 15.6063 70.9424 17.5603 72.6724"></polygon>
                    <polygon id="Fill-140" fill="#FFFFFF" points="17.7447 72.3983 17.9497 70.1123 17.8767 72.4073"></polygon>
                    <polygon id="Fill-142" fill="#FFFFFF" points="20.1695 82.1248 18.4965 80.6938 20.2525 82.0218"></polygon>
                    <polygon id="Fill-144" fill="#FFFFFF" points="20.4546 82.0623 20.3966 79.4533 20.5866 82.0553"></polygon>
                    <polygon id="Fill-146" fill="#FFFFFF" points="20.9107 81.9891 22.6537 80.4961 20.9997 82.0881"></polygon>
                    <polygon id="Fill-148" fill="#FFFFFF" points="18.2456 86.6102 16.1186 86.0452 18.2756 86.4822"></polygon>
                    <polygon id="Fill-150" fill="#FFFFFF" points="18.4761 86.4305 17.2941 84.1035 18.5921 86.3675"></polygon>
                    <polygon id="Fill-152" fill="#FFFFFF" points="18.855 86.1668 19.781 84.0658 18.978 86.2168"></polygon>
                    <polygon id="Fill-154" fill="#FFFFFF" points="22.2007 89.5467 21.0687 87.6587 22.3117 89.4757"></polygon>
                    <polygon id="Fill-156" fill="#FFFFFF" points="22.4917 89.578 23.2627 87.085 22.6187 89.613"></polygon>
                    <polygon id="Fill-158" fill="#FFFFFF" points="22.9468 89.6532 25.0738 88.7902 22.9998 89.7742"></polygon>
                    <polygon id="Fill-160" fill="#FFFFFF" points="21.6841 103.1092 20.5521 101.2212 21.7951 103.0382"></polygon>
                    <polygon id="Fill-162" fill="#FFFFFF" points="21.9751 103.1405 22.7471 100.6475 22.1021 103.1765"></polygon>
                    <polygon id="Fill-164" fill="#FFFFFF" points="22.4302 103.2157 24.5572 102.3527 22.4842 103.3367"></polygon>
                    <polygon id="Fill-166" fill="#FFFFFF" points="22.3931 96.492 21.2611 94.604 22.5041 96.421"></polygon>
                    <polygon id="Fill-168" fill="#FFFFFF" points="22.6841 96.5233 23.4561 94.0303 22.8111 96.5593"></polygon>
                    <polygon id="Fill-170" fill="#FFFFFF" points="23.1392 96.5985 25.2662 95.7355 23.1932 96.7195"></polygon>
                    <polygon id="Fill-172" fill="#FFFFFF" points="18.2437 100.1287 17.1117 98.2407 18.3547 100.0577"></polygon>
                    <polygon id="Fill-174" fill="#FFFFFF" points="18.5347 100.16 19.3067 97.667 18.6617 100.196"></polygon>
                    <polygon id="Fill-176" fill="#FFFFFF" points="18.9898 100.2352 21.1168 99.3722 19.0428 100.3562"></polygon>
                    <polygon id="Fill-178" fill="#FFFFFF" points="26.5503 92.3221 26.5123 90.1221 26.6823 92.3161"></polygon>
                    <polygon id="Fill-180" fill="#FFFFFF" points="26.7867 92.494 28.7007 90.721 26.8787 92.589"></polygon>
                    <polygon id="Fill-182" fill="#FFFFFF" points="27.1431 92.7869 29.4171 93.1009 27.1291 92.9189"></polygon>
                    <polygon id="Fill-184" fill="#FFFFFF" points="33.274 90.6717 31.795 89.0407 33.369 90.5807"></polygon>
                    <polygon id="Fill-186" fill="#FFFFFF" points="33.565 90.6453 33.836 88.0493 33.697 90.6563"></polygon>
                    <polygon id="Fill-188" fill="#FFFFFF" points="34.0269 90.6307 35.9439 89.3687 34.1019 90.7387"></polygon>
                    <polygon id="Fill-190" fill="#FFFFFF" points="30.1792 94.3514 30.9582 92.2924 30.3032 94.3944"></polygon>
                    <polygon id="Fill-192" fill="#FFFFFF" points="30.3355 94.5985 32.7705 93.6605 30.3855 94.7205"></polygon>
                    <polygon id="Fill-194" fill="#FFFFFF" points="30.5581 95.0028 32.5541 96.1368 30.4961 95.1198"></polygon>
                    <polygon id="Fill-196" fill="#FFFFFF" points="39.1343 92.5194 38.7833 90.3464 39.2643 92.4954"></polygon>
                    <polygon id="Fill-198" fill="#FFFFFF" points="39.3931 92.6561 41.0361 90.6281 39.4971 92.7371"></polygon>
                    <polygon id="Fill-200" fill="#FFFFFF" points="39.7876 92.8953 42.0836 92.8833 39.7926 93.0273"></polygon>
                    <polygon id="Fill-202" fill="#FFFFFF" points="35.8726 94.327 37.3086 92.658 35.9766 94.41"></polygon>
                    <polygon id="Fill-204" fill="#FFFFFF" points="35.9351 94.6131 38.5441 94.5601 35.9421 94.7451"></polygon>
                    <polygon id="Fill-206" fill="#FFFFFF" points="36.0074 95.0692 37.4964 96.8152 35.9094 95.1582"></polygon>
                    <polygon id="Fill-208" fill="#FFFFFF" points="40.7408 97.0711 42.9008 96.6461 40.7698 97.2001"></polygon>
                    <polygon id="Fill-210" fill="#FFFFFF" points="40.6138 97.3348 42.6968 98.9068 40.5368 97.4418"></polygon>
                    <polygon id="Fill-212" fill="#FFFFFF" points="40.3882 97.7371 40.4792 100.0311 40.2562 97.7471"></polygon>
                    <polygon id="Fill-214" fill="#FFFFFF" points="37.0376 99.4119 38.6496 100.9109 36.9506 99.5119"></polygon>
                    <polygon id="Fill-216" fill="#FFFFFF" points="36.7495 99.4637 36.7005 102.0727 36.6175 99.4647"></polygon>
                    <polygon id="Fill-218" fill="#FFFFFF" points="36.2915 99.5174 34.4885 100.9384 36.2065 99.4154"></polygon>
                    <polygon id="Fill-220" fill="#FFFFFF" points="30.98 97.5985 33.157 97.9235 30.964 97.7295"></polygon>
                    <polygon id="Fill-222" fill="#FFFFFF" points="30.771 97.8035 32.207 99.9835 30.663 97.8785"></polygon>
                    <polygon id="Fill-224" fill="#FFFFFF" points="30.4234 98.1073 29.7394 100.2983 30.2964 98.0723"></polygon>
                    <polygon id="Fill-226" fill="#FFFFFF" points="25.2515 101.1824 25.2145 98.9814 25.3835 101.1764"></polygon>
                    <polygon id="Fill-228" fill="#FFFFFF" points="25.4888 101.3543 27.4028 99.5813 25.5808 101.4493"></polygon>
                    <polygon id="Fill-230" fill="#FFFFFF" points="25.8452 101.6473 28.1182 101.9613 25.8302 101.7793"></polygon>
                    <polygon id="Fill-232" fill="#FFFFFF" points="19.0376 93.0067 17.0456 92.0697 19.0906 92.8857"></polygon>
                    <polygon id="Fill-234" fill="#FFFFFF" points="19.2964 92.8699 18.5484 90.3699 19.4214 92.8289"></polygon>
                    <polygon id="Fill-236" fill="#FFFFFF" points="19.7163 92.6785 21.0013 90.7765 19.8283 92.7495"></polygon>
                    <polygon id="Fill-238" fill="#FFFFFF" points="14.8521 90.2459 12.7251 89.6799 14.8821 90.1169"></polygon>
                    <polygon id="Fill-240" fill="#FFFFFF" points="15.0826 90.0653 13.9006 87.7383 15.1986 90.0033"></polygon>
                    <polygon id="Fill-242" fill="#FFFFFF" points="15.4615 89.8026 16.3875 87.7016 15.5845 89.8526"></polygon>
                    <polygon id="Fill-244" fill="#FFFFFF" points="16.2515 96.826 14.1245 96.26 16.2805 96.697"></polygon>
                    <polygon id="Fill-246" fill="#FFFFFF" points="16.481 96.6453 15.299 94.3193 16.597 96.5833"></polygon>
                    <polygon id="Fill-248" fill="#FFFFFF" points="16.8609 96.3826 17.7859 94.2816 16.9829 96.4326"></polygon>
                    <path d="M15.6861,99.8524 C15.6861,99.8524 18.6811,103.0714 25.9621,105.7864 L15.6861,99.8524 Z" id="Fill-250" fill="#B1B1B1"></path>
                </g>
            </g>
        </g>
    </g>
</svg>