<svg xmlns="http://www.w3.org/2000/svg" xmlns:xlink="http://www.w3.org/1999/xlink" width="448" height="335" viewBox="0 0 448 335">
    <defs>
        <linearGradient id="prefix__d" x1="0%" x2="100%" y1="50%" y2="50%">
            <stop offset="0%" stop-color="#C10021"/>
            <stop offset="100%" stop-color="#F0233D"/>
        </linearGradient>
        <linearGradient id="prefix__g" x1=".001%" x2="100%" y1="50%" y2="50%">
            <stop offset="0%" stop-color="#C10021"/>
            <stop offset="100%" stop-color="#F0233D"/>
        </linearGradient>
        <linearGradient id="prefix__j" x1="100.002%" x2="-.001%" y1="49.998%" y2="49.998%">
            <stop offset="0%" stop-color="#979797"/>
            <stop offset="100%" stop-color="#E4E4E4"/>
        </linearGradient>
        <linearGradient id="prefix__m" x1="52.382%" x2="50.135%" y1="17.822%" y2="49.481%">
            <stop offset="0%" stop-color="gray"/>
            <stop offset="100%" stop-color="#666"/>
        </linearGradient>
        <linearGradient id="prefix__p" x1="49.245%" x2="51.449%" y1="-14.093%" y2="173.009%">
            <stop offset="0%" stop-color="#C10021"/>
            <stop offset="100%" stop-color="#F0233D"/>
        </linearGradient>
        <linearGradient id="prefix__s" x1="51.459%" x2="50.025%" y1="46.039%" y2="49.932%">
            <stop offset="0%" stop-color="#646664"/>
            <stop offset="100%" stop-color="#333"/>
        </linearGradient>
        <linearGradient id="prefix__v" x1="48.109%" x2="52.146%" y1="176.269%" y2="-93.554%">
            <stop offset="0%" stop-color="#979797"/>
            <stop offset="100%" stop-color="#E4E4E4"/>
        </linearGradient>
        <linearGradient id="prefix__y" x1="99.999%" x2="0%" y1="50%" y2="50%">
            <stop offset="0%" stop-color="#979797"/>
            <stop offset="100%" stop-color="#E4E4E4"/>
        </linearGradient>
        <linearGradient id="prefix__B" x1="99.998%" x2=".001%" y1="49.998%" y2="49.998%">
            <stop offset="0%" stop-color="#646664"/>
            <stop offset="100%" stop-color="#333"/>
        </linearGradient>
        <linearGradient id="prefix__E" x1="100.001%" x2=".001%" y1="50.002%" y2="50.002%">
            <stop offset="0%" stop-color="#646664"/>
            <stop offset="100%" stop-color="#333"/>
        </linearGradient>
        <linearGradient id="prefix__H" x1="100.001%" x2="-.001%" y1="50.001%" y2="50.001%">
            <stop offset="0%" stop-color="#979797"/>
            <stop offset="100%" stop-color="#E4E4E4"/>
        </linearGradient>
        <linearGradient id="prefix__K" x1="99.999%" x2="-.001%" y1="49.999%" y2="49.999%">
            <stop offset="0%" stop-color="gray"/>
            <stop offset="100%" stop-color="#666"/>
        </linearGradient>
        <linearGradient id="prefix__N" x1="100.009%" x2=".003%" y1="50%" y2="50%">
            <stop offset="0%" stop-color="gray"/>
            <stop offset="100%" stop-color="#666"/>
        </linearGradient>
        <linearGradient id="prefix__Q" x1="100%" x2="0%" y1="50%" y2="50%">
            <stop offset="0%" stop-color="gray"/>
            <stop offset="100%" stop-color="#666"/>
        </linearGradient>
        <linearGradient id="prefix__T" x1="100%" x2="0%" y1="47.735%" y2="52.266%">
            <stop offset="0%" stop-color="#979797"/>
            <stop offset="100%" stop-color="#E4E4E4"/>
        </linearGradient>
        <linearGradient id="prefix__W" x1="52.063%" x2="50.116%" y1="19.132%" y2="49.469%">
            <stop offset="0%" stop-color="gray"/>
            <stop offset="100%" stop-color="#666"/>
        </linearGradient>
        <linearGradient id="prefix__Z" x1="48.965%" x2="51.982%" y1="-22.232%" y2="188.63%">
            <stop offset="0%" stop-color="#C10021"/>
            <stop offset="100%" stop-color="#F0233D"/>
        </linearGradient>
        <linearGradient id="prefix__ac" x1="51.662%" x2="50.027%" y1="46.732%" y2="49.944%">
            <stop offset="0%" stop-color="#646664"/>
            <stop offset="100%" stop-color="#333"/>
        </linearGradient>
        <linearGradient id="prefix__af" x1="47.507%" x2="52.829%" y1="178.816%" y2="-96.454%">
            <stop offset="0%" stop-color="#979797"/>
            <stop offset="100%" stop-color="#E4E4E4"/>
        </linearGradient>
        <linearGradient id="prefix__ai" x1="77.979%" x2="22.02%" y1="43.395%" y2="56.585%">
            <stop offset="0%" stop-color="#979797"/>
            <stop offset="100%" stop-color="#E4E4E4"/>
        </linearGradient>
        <linearGradient id="prefix__al" x1="100%" x2=".002%" y1="41.191%" y2="57.601%">
            <stop offset="0%" stop-color="#646664"/>
            <stop offset="100%" stop-color="#333"/>
        </linearGradient>
        <linearGradient id="prefix__ao" x1="99.997%" x2=".001%" y1="47.471%" y2="52.795%">
            <stop offset="0%" stop-color="#979797"/>
            <stop offset="100%" stop-color="#E4E4E4"/>
        </linearGradient>
        <linearGradient id="prefix__ar" x1="99.998%" x2=".001%" y1="47.256%" y2="52.657%">
            <stop offset="0%" stop-color="gray"/>
            <stop offset="100%" stop-color="#666"/>
        </linearGradient>
        <linearGradient id="prefix__au" x1="92.133%" x2="7.87%" y1="41.907%" y2="58.093%">
            <stop offset="0%" stop-color="gray"/>
            <stop offset="100%" stop-color="#666"/>
        </linearGradient>
        <linearGradient id="prefix__ax" x1="99.998%" x2=".002%" y1="44.653%" y2="56.159%">
            <stop offset="0%" stop-color="gray"/>
            <stop offset="100%" stop-color="#666"/>
        </linearGradient>
        <linearGradient id="prefix__aA" x1=".001%" x2="100.001%" y1="47.734%" y2="52.265%">
            <stop offset="0%" stop-color="#979797"/>
            <stop offset="100%" stop-color="#E4E4E4"/>
        </linearGradient>
        <linearGradient id="prefix__aD" x1="47.937%" x2="49.884%" y1="19.13%" y2="49.465%">
            <stop offset="0%" stop-color="gray"/>
            <stop offset="100%" stop-color="#666"/>
        </linearGradient>
        <linearGradient id="prefix__aG" x1=".003%" x2="100.004%" y1="50%" y2="50%">
            <stop offset="0%" stop-color="gray"/>
            <stop offset="100%" stop-color="#666"/>
        </linearGradient>
        <linearGradient id="prefix__aJ" x1="51.034%" x2="48.018%" y1="-22.232%" y2="188.626%">
            <stop offset="0%" stop-color="#979797"/>
            <stop offset="100%" stop-color="#E4E4E4"/>
        </linearGradient>
        <linearGradient id="prefix__aM" x1="48.338%" x2="49.973%" y1="46.732%" y2="49.944%">
            <stop offset="0%" stop-color="#646664"/>
            <stop offset="100%" stop-color="#333"/>
        </linearGradient>
        <linearGradient id="prefix__aP" x1="52.49%" x2="47.168%" y1="178.825%" y2="-96.461%">
            <stop offset="0%" stop-color="#979797"/>
            <stop offset="100%" stop-color="#E4E4E4"/>
        </linearGradient>
        <linearGradient id="prefix__aS" x1="22.021%" x2="77.979%" y1="43.395%" y2="56.585%">
            <stop offset="0%" stop-color="#979797"/>
            <stop offset="100%" stop-color="#E4E4E4"/>
        </linearGradient>
        <linearGradient id="prefix__aV" x1=".002%" x2="100%" y1="41.187%" y2="57.598%">
            <stop offset="0%" stop-color="#646664"/>
            <stop offset="100%" stop-color="#333"/>
        </linearGradient>
        <linearGradient id="prefix__aY" x1=".001%" x2="100.001%" y1="47.47%" y2="52.794%">
            <stop offset="0%" stop-color="#979797"/>
            <stop offset="100%" stop-color="#E4E4E4"/>
        </linearGradient>
        <linearGradient id="prefix__bb" x1="0%" x2="100.001%" y1="47.255%" y2="52.657%">
            <stop offset="0%" stop-color="gray"/>
            <stop offset="100%" stop-color="#666"/>
        </linearGradient>
        <linearGradient id="prefix__be" x1="7.864%" x2="92.133%" y1="41.906%" y2="58.092%">
            <stop offset="0%" stop-color="gray"/>
            <stop offset="100%" stop-color="#666"/>
        </linearGradient>
        <linearGradient id="prefix__bh" x1="0%" x2="100%" y1="44.652%" y2="56.159%">
            <stop offset="0%" stop-color="gray"/>
            <stop offset="100%" stop-color="#666"/>
        </linearGradient>
        <linearGradient id="prefix__bk" x1="49.503%" x2="50.954%" y1="-3.084%" y2="151.874%">
            <stop offset="0%" stop-color="#646664"/>
            <stop offset="100%" stop-color="#333"/>
        </linearGradient>
        <linearGradient id="prefix__bn" x1="50.993%" x2="50.017%" y1="45.958%" y2="49.929%">
            <stop offset="0%" stop-color="#646664"/>
            <stop offset="100%" stop-color="#333"/>
        </linearGradient>
        <linearGradient id="prefix__bq" x1="50.995%" x2="48.967%" y1="71.582%" y2="25.383%">
            <stop offset="0%" stop-color="#979797"/>
            <stop offset="100%" stop-color="#E4E4E4"/>
        </linearGradient>
        <linearGradient id="prefix__bt" x1="100.001%" x2="0%" y1="58.087%" y2="41.914%">
            <stop offset="0%" stop-color="#979797"/>
            <stop offset="100%" stop-color="#E4E4E4"/>
        </linearGradient>
        <linearGradient id="prefix__bw" x1="56.886%" x2="49.813%" y1="14.042%" y2="49.236%">
            <stop offset="0%" stop-color="gray"/>
            <stop offset="100%" stop-color="#666"/>
        </linearGradient>
        <linearGradient id="prefix__bz" x1=".003%" x2="100%" y1="49.999%" y2="49.999%">
            <stop offset="0%" stop-color="#646664"/>
            <stop offset="100%" stop-color="#333"/>
        </linearGradient>
        <linearGradient id="prefix__bC" x1=".001%" x2="100%" y1="49.999%" y2="49.999%">
            <stop offset="0%" stop-color="gray"/>
            <stop offset="100%" stop-color="#666"/>
        </linearGradient>
        <linearGradient id="prefix__bE" x1="79.571%" x2="24.71%" y1="133.574%" y2="-21.479%">
            <stop offset="0%" stop-color="#979797"/>
            <stop offset="100%" stop-color="#E4E4E4"/>
        </linearGradient>
        <linearGradient id="prefix__bF" x1=".001%" x2="100.001%" y1="50%" y2="50%">
            <stop offset="0%" stop-color="gray"/>
            <stop offset="100%" stop-color="#666"/>
        </linearGradient>
        <linearGradient id="prefix__bG" x1="72.177%" x2="31.029%" y1="23.77%" y2="72.436%">
            <stop offset="0%" stop-color="#979797"/>
            <stop offset="100%" stop-color="#E4E4E4"/>
        </linearGradient>
        <linearGradient id="prefix__bH" x1="68.997%" x2="33.752%" y1="74.074%" y2="29.411%">
            <stop offset="0%" stop-color="gray"/>
            <stop offset="100%" stop-color="#666"/>
        </linearGradient>
        <linearGradient id="prefix__bJ" x1=".001%" x2="100.001%" y1="50.003%" y2="50.003%">
            <stop offset="0%" stop-color="#979797"/>
            <stop offset="100%" stop-color="#E4E4E4"/>
        </linearGradient>
        <linearGradient id="prefix__bL" x1="59.228%" x2="42.107%" y1="44.716%" y2="54.519%">
            <stop offset="0%" stop-color="#979797"/>
            <stop offset="100%" stop-color="#E4E4E4"/>
        </linearGradient>
        <linearGradient id="prefix__bM" x1="59.228%" x2="42.107%" y1="50.936%" y2="49.2%">
            <stop offset="0%" stop-color="gray"/>
            <stop offset="100%" stop-color="#666"/>
        </linearGradient>
        <linearGradient id="prefix__bN" x1="72.92%" x2="30.397%" y1="89.775%" y2="15.981%">
            <stop offset="0%" stop-color="#646664"/>
            <stop offset="100%" stop-color="#333"/>
        </linearGradient>
        <linearGradient id="prefix__bP" x1="100%" x2="-.004%" y1="42.288%" y2="54.789%">
            <stop offset="0%" stop-color="gray"/>
            <stop offset="100%" stop-color="#666"/>
        </linearGradient>
        <path id="prefix__b" d="M389.238 179.62V72.992S243.07-22.897 58.868 5.617l-.003-.002c-.228.036-.447.073-.674.11C51.187 6.82 44.13 8.09 37.021 9.556v.212C3.452 17.416 10.437 23.367 10.437 23.367V125.82l-9.803 2.647.014.015.256 13.704 122.61 134.607L389.14 193.64l.097-14.02z"/>
        <path id="prefix__c" d="M0.261 84.12L0.514 97.793 266.142 14.639 266.238 0.62z"/>
        <path id="prefix__f" d="M0.904 15.187L123.514 149.793 123.261 136.12 0.633 0.701z"/>
        <path id="prefix__i" d="M0.414 5.174L33.757 14.262 40.308 10.024 6.966 0.935z"/>
        <path id="prefix__l" d="M0.757 4.262L0.757 15.542 7.308 11.73 7.308 0.024z"/>
        <path id="prefix__o" d="M0.384 43.052L33.51 54.628 33.51 11.781 0.384 0.204z"/>
        <path id="prefix__r" d="M0.384 3.754L33.51 15.33 33.51 11.781 0.384 0.204z"/>
        <path id="prefix__u" d="M0.475 14.372L16.292 19.898 16.292 6.462 0.475 0.934z"/>
        <path id="prefix__x" d="M0.384 48.204L33.51 59.781 44.757 9.542 11.562 0.121z"/>
        <path id="prefix__A" d="M0.373 23.298L22.946 30.947 28.106 7.9 0.373 0.031z"/>
        <path id="prefix__D" d="M0.373 18.592L18.534 24.872 22.485 7.225 0.373 0.775z"/>
        <path id="prefix__G" d="M0.414 1.952L24.45 10.165 24.946 7.947 2.373 0.298z"/>
        <path id="prefix__J" d="M0.414 3.022L23.932 11.477 24.45 9.165 0.414 0.952z"/>
        <path id="prefix__M" d="M1.383 12.286L10.855 15.898 0.79 0.825z"/>
        <path id="prefix__P" d="M0.035 13.201L27.534 22.872 30.932 8.477 9.119 0.634z"/>
        <path id="prefix__S" d="M0.981 5.324L36.923 11.061 43.1 5.976 7.158 0.238z"/>
        <path id="prefix__V" d="M0.923 6.061L0.923 16.695 7.1 12.013 7.1 0.976z"/>
        <path id="prefix__Y" d="M0.373 40.438L36.111 48.557 36.111 8.164 0.373 0.045z"/>
        <path id="prefix__ab" d="M0.373 3.391L36.111 11.51 36.111 8.164 0.373 0.045z"/>
        <path id="prefix__ae" d="M0.057 13.248L19.478 18.542 19.478 5.875 0.057 0.581z"/>
        <path id="prefix__ah" d="M0.373 48.045L36.111 56.164 41.923 6.695 6.121 0.62z"/>
        <path id="prefix__ak" d="M0.828 22.882L29.219 29.475 31.481 6.469 0.828 0.946z"/>
        <path id="prefix__an" d="M0.981 2.766L28.15 9.227 28.618 7.052 2.828 0.882z"/>
        <path id="prefix__aq" d="M0.981 2.718L30.524 9.965 31.012 7.7 0.981 0.766z"/>
        <path id="prefix__at" d="M0.723 11.652L14.162 16.194 0.164 0.945z"/>
        <path id="prefix__aw" d="M0.814 13.607L31.248 20.865 32.768 7.063 4.588 0.012z"/>
        <path id="prefix__az" d="M0.666 6.376L6.844 11.462 42.785 5.724 36.609 0.639z"/>
        <path id="prefix__aC" d="M0.666 11.412L6.844 16.096 6.844 5.462 0.666 0.376z"/>
        <path id="prefix__aF" d="M0.666 81.486L12.656 94.958 12.656 54.564 6.844 5.096 0.666 0.29z"/>
        <path id="prefix__aI" d="M0.656 8.564L0.656 48.958 36.393 40.839 36.393 0.445z"/>
        <path id="prefix__aL" d="M0.656 8.564L0.656 11.91 36.393 3.791 36.393 0.445z"/>
        <path id="prefix__aO" d="M0.289 6.275L0.289 18.942 19.71 13.648 19.71 0.98z"/>
        <path id="prefix__aR" d="M0.844 6.096L6.656 55.564 42.393 47.445 36.646 0.02z"/>
        <path id="prefix__aU" d="M0.285 5.868L2.548 28.876 30.938 22.283 30.938 0.347z"/>
        <path id="prefix__aX" d="M0.149 6.453L0.617 8.627 27.785 2.166 25.938 0.283z"/>
        <path id="prefix__ba" d="M0.755 7.1L1.243 9.366 30.785 2.118 30.785 0.166z"/>
        <path id="prefix__bd" d="M0.604 15.594L14.043 11.051 14.603 0.345z"/>
        <path id="prefix__bg" d="M0.999 7.462L2.519 21.265 32.952 14.007 29.179 0.412z"/>
        <path id="prefix__bj" d="M0.834 42.15L29.958 59.887 29.958 17.849 0.834 0.113z"/>
        <path id="prefix__bm" d="M0.834 3.594L29.958 21.331 29.958 17.849 0.834 0.113z"/>
        <path id="prefix__bp" d="M0.834 4.113L29.958 21.849 52.85 15.551 18.483 0.589z"/>
        <path id="prefix__bs" d="M0.039 4.86L27.875 20.593 45.114 16.298 17.279 0.564z"/>
        <path id="prefix__bv" d="M0.875 4.593L0.875 15.66 18.114 10.707 18.114 0.298z"/>
        <path id="prefix__by" d="M0.449 7.785L0.449 46.489 21.85 38.769 21.85 0.294z"/>
        <path id="prefix__bB" d="M0.392 15.397L9.139 11.853 9.686 0.607z"/>
        <path id="prefix__bI" d="M22.787 0.826L11.327 0.826 0.905 6.987 22.787 6.987 44.668 6.987 34.246 0.826z"/>
        <path id="prefix__bO" d="M1.243 10.786L15.787 10.163 0.684 0.079z"/>
        <filter id="prefix__a" width="119.6%" height="127.5%" x="-9.8%" y="-13.7%" filterUnits="objectBoundingBox">
            <feMorphology in="SourceAlpha" operator="dilate" radius="11" result="shadowSpreadOuter1"/>
            <feOffset in="shadowSpreadOuter1" result="shadowOffsetOuter1"/>
            <feMorphology in="SourceAlpha" radius="11" result="shadowInner"/>
            <feOffset in="shadowInner" result="shadowInner"/>
            <feComposite in="shadowOffsetOuter1" in2="shadowInner" operator="out" result="shadowOffsetOuter1"/>
            <feGaussianBlur in="shadowOffsetOuter1" result="shadowBlurOuter1" stdDeviation="7"/>
            <feColorMatrix in="shadowBlurOuter1" values="0 0 0 0 1 0 0 0 0 0.329411765 0 0 0 0 0.329411765 0 0 0 1 0"/>
        </filter>
    </defs>
    <g fill="none" fill-rule="evenodd">
        <g stroke-linecap="round" stroke-linejoin="round" transform="translate(29 29)">
            <use fill="#000" filter="url(#prefix__a)" xlink:href="#prefix__b"/>
            <use stroke="#FFF" stroke-width="10" xlink:href="#prefix__b"/>
        </g>
        <g transform="translate(29 29) translate(123 179)">
            <mask id="prefix__e" fill="#fff">
                <use xlink:href="#prefix__c"/>
            </mask>
            <path fill="url(#prefix__d)" d="M0.261 84.12L0.514 97.793 266.142 14.639 266.238 0.62z" mask="url(#prefix__e)"/>
        </g>
        <g transform="translate(29 29) translate(0 127)">
            <mask id="prefix__h" fill="#fff">
                <use xlink:href="#prefix__f"/>
            </mask>
            <path fill="url(#prefix__g)" d="M0.904 15.187L123.514 149.793 123.261 136.12 0.633 0.701z" mask="url(#prefix__h)"/>
        </g>
        <path fill="#FF7A79" d="M389.238 179.62C360.708 169.23 231.38 76.324 37.02 116.453L.634 127.701l122.626 135.42 265.978-83.5z" transform="translate(29 29)"/>
        <path fill="#E5E5E5" d="M389.238 179.62C360.708 169.23 231.38 76.056 37.02 116.184V9.558C231.38-30.57 389.238 72.993 389.238 72.993V179.62" transform="translate(29 29)"/>
        <path fill="#E5E5E5" d="M383.935 181.645c-28.53-10.389-147.25-100.664-341.606-60.535V14.484C236.684-25.646 383.935 75.02 383.935 75.02v106.626" transform="translate(29 29)"/>
        <path fill="#B2B2B2" d="M37.02 9.558L42.328 14.484 42.328 121.111 37.02 116.454z" transform="translate(29 29)"/>
        <path fill="#FFF" d="M383.935 181.645L389.238 179.62 389.238 72.993 383.935 75.019zM292.735 83.35l2.8.75-.002-.015v-4.02l.002-.04 1.167.313V76.36c-.726-.195-1.449-.39-2.174-.583v1.01c.39.106.776.209 1.164.313v1.954c-.019-.005-.034-.01-.05-.013l-1.063-.285c-.06-.015-.054-.02-.054.04v3.977l-.003.055-.043-.012-1.356-.363c-.078-.022-.157-.046-.235-.077-.288-.111-.558-.273-.807-.49-.229-.196-.424-.42-.553-.69-.174-.365-.183-.693-.017-.972.096-.16.252-.247.426-.31.198-.07.415-.095.633-.118.227-.023.46-.038.673-.1.458-.132.784-.416.973-.856.084-.193.133-.403.155-.628.02-.207.022-.418-.02-.638-.13-.675-.472-1.264-1.017-1.765-.378-.35-.799-.568-1.25-.688l-4.01-1.075c-.016-.004-.03-.01-.047-.013v2.914l.043.007c.3.082.601.162.9.242l.048.01v-.046-1.804c0-.037.01-.044.045-.034l3.045.817c.051.014.104.029.154.05.272.105.505.283.702.523.24.294.387.612.402.953.011.262-.042.495-.174.685-.166.238-.415.354-.715.39-.199.024-.403.036-.6.064-.342.049-.662.143-.938.317-.35.22-.56.553-.602 1.015-.032.344.021.7.156 1.064.211.57.564 1.059 1.04 1.47.324.282.676.49 1.052.625l.15.055" transform="translate(29 29)"/>
        <path fill="#FFF" d="M290.366 82.7c-.09-.113-.185-.222-.269-.336-.422-.573-.687-1.182-.792-1.826-.048-.295-.059-.58-.032-.859.03-.292.123-.547.267-.772.36-.568.892-.907 1.58-1.036.168-.03.347-.032.524-.037.124-.004.245-.017.337-.09.137-.109.178-.269.115-.474-.062-.203-.196-.356-.392-.435-.097-.039-.2-.06-.298-.069-1.27-.106-2.198.345-2.79 1.331-.199.332-.32.71-.369 1.13-.03.26-.026.53-.004.803.026.324.084.651.184.982.142.47.354.916.677 1.327.012.014.031.03.045.035l1.208.324.01.001" transform="translate(29 29)"/>
        <g transform="translate(29 29) translate(277 42)">
            <mask id="prefix__k" fill="#fff">
                <use xlink:href="#prefix__i"/>
            </mask>
            <path fill="url(#prefix__j)" d="M0.414 5.174L33.757 14.262 40.308 10.024 6.966 0.935z" mask="url(#prefix__k)"/>
        </g>
        <g>
            <path fill="#989898" d="M0.414 0.174L0.561 11.121 33.757 20.542 33.757 9.262z" transform="translate(29 29) translate(277 47)"/>
            <path fill="#C10021" d="M4.383 3.433L4.496 9.194 29.787 16.371 29.787 10.358z" transform="translate(29 29) translate(277 47)"/>
        </g>
        <g transform="translate(29 29) translate(310 52)">
            <mask id="prefix__n" fill="#fff">
                <use xlink:href="#prefix__l"/>
            </mask>
            <path fill="url(#prefix__m)" d="M0.757 4.262L0.757 15.542 7.308 11.73 7.308 0.024z" mask="url(#prefix__n)"/>
        </g>
        <path fill="#1A1A1A" d="M299.51 160.628L299.51 117.781 310.757 67.542 317.309 63.6 317.309 149.728 310.757 153.539z" transform="translate(29 29)"/>
        <g transform="translate(29 29) translate(266 106)">
            <mask id="prefix__q" fill="#fff">
                <use xlink:href="#prefix__o"/>
            </mask>
            <path fill="url(#prefix__p)" d="M0.384 43.052L33.51 54.628 33.51 11.781 0.384 0.204z" mask="url(#prefix__q)"/>
        </g>
        <g transform="translate(29 29) translate(266 106)">
            <mask id="prefix__t" fill="#fff">
                <use xlink:href="#prefix__r"/>
            </mask>
            <path fill="url(#prefix__s)" d="M0.384 3.754L33.51 15.33 33.51 11.781 0.384 0.204z" mask="url(#prefix__t)"/>
        </g>
        <g transform="translate(29 29) translate(273 123)">
            <mask id="prefix__w" fill="#fff">
                <use xlink:href="#prefix__u"/>
            </mask>
            <path fill="url(#prefix__v)" d="M0.475 14.372L16.292 19.898 16.292 6.462 0.475 0.934z" mask="url(#prefix__w)"/>
        </g>
        <path fill="#1A1A1A" d="M299.51 121.33L317.309 112.114 317.309 108.685 299.51 117.781z" transform="translate(29 29)"/>
        <g transform="translate(29 29) translate(266 58)">
            <mask id="prefix__z" fill="#fff">
                <use xlink:href="#prefix__x"/>
            </mask>
            <path fill="url(#prefix__y)" d="M0.384 48.204L33.51 59.781 44.757 9.542 11.562 0.121z" mask="url(#prefix__z)"/>
        </g>
        <path fill="#989898" d="M307.106 70.9L297.709 112.872 270.036 103.201 279.373 63.03z" transform="translate(29 29)"/>
        <g transform="translate(29 29) translate(279 63)">
            <mask id="prefix__C" fill="#fff">
                <use xlink:href="#prefix__A"/>
            </mask>
            <path fill="url(#prefix__B)" d="M0.373 23.298L22.946 30.947 28.106 7.9 0.373 0.031z" mask="url(#prefix__C)"/>
        </g>
        <g transform="translate(29 29) translate(279 88)">
            <mask id="prefix__F" fill="#fff">
                <use xlink:href="#prefix__D"/>
            </mask>
            <path fill="url(#prefix__E)" d="M0.373 18.592L18.534 24.872 22.485 7.225 0.373 0.775z" mask="url(#prefix__F)"/>
        </g>
        <g transform="translate(29 29) translate(277 86)">
            <mask id="prefix__I" fill="#fff">
                <use xlink:href="#prefix__G"/>
            </mask>
            <path fill="url(#prefix__H)" d="M0.414 1.952L24.45 10.165 24.946 7.947 2.373 0.298z" mask="url(#prefix__I)"/>
        </g>
        <g transform="translate(29 29) translate(277 87)">
            <mask id="prefix__L" fill="#fff">
                <use xlink:href="#prefix__J"/>
            </mask>
            <path fill="url(#prefix__K)" d="M0.414 3.022L23.932 11.477 24.45 9.165 0.414 0.952z" mask="url(#prefix__L)"/>
        </g>
        <g transform="translate(29 29) translate(280 72)">
            <mask id="prefix__O" fill="#fff">
                <use xlink:href="#prefix__M"/>
            </mask>
            <path fill="url(#prefix__N)" d="M1.383 12.286L10.855 15.898 0.79 0.825z" mask="url(#prefix__O)"/>
        </g>
        <g transform="translate(29 29) translate(270 90)">
            <mask id="prefix__R" fill="#fff">
                <use xlink:href="#prefix__P"/>
            </mask>
            <path fill="url(#prefix__Q)" d="M0.035 13.201L27.534 22.872 30.932 8.477 9.119 0.634z" mask="url(#prefix__R)"/>
        </g>
        <g fill="#FFF">
            <path d="M56.727 20.442l-3.012-.53v-4.343l-.001-.043c-.421-.074-.84-.147-1.257-.222v-4.28l2.34.412v1.088l-1.253-.222v2.104l.055.01 1.144.202c.064.011.058.004.058.068v4.28c0 .02 0 .038.002.06l.047.01c.486.084.973.171 1.459.256.084.013.169.025.253.03.31.016.6-.027.869-.14.246-.103.456-.25.595-.48.187-.31.197-.658.017-1.038-.102-.218-.27-.387-.458-.536-.213-.17-.447-.302-.681-.43-.245-.135-.493-.26-.723-.43-.494-.362-.845-.823-1.05-1.387-.09-.248-.141-.498-.164-.75-.021-.232-.024-.46.02-.677.14-.664.509-1.134 1.095-1.413.408-.195.86-.23 1.345-.144l4.316.762.05.008v3.135c-.015-.004-.031-.008-.045-.01l-.97-.172-.051-.01v-.052-1.94c0-.04-.01-.053-.05-.06-1.091-.19-2.183-.384-3.275-.576-.056-.01-.112-.018-.167-.02-.291-.016-.543.063-.754.228-.26.202-.418.472-.433.833-.011.277.045.552.187.82.179.336.446.578.769.761.214.122.434.233.647.358.368.214.712.468 1.009.79.378.404.603.862.648 1.378.034.386-.023.744-.168 1.071-.227.514-.607.87-1.12 1.086-.35.146-.727.202-1.131.17l-.162-.015" transform="translate(29 29) translate(235 63)"/>
            <path d="M59.276 20.876c.097-.078.198-.149.29-.232.454-.414.738-.944.852-1.586.051-.294.063-.598.034-.909-.03-.328-.133-.648-.287-.96-.388-.784-.96-1.402-1.7-1.869-.182-.115-.375-.201-.565-.292-.134-.062-.265-.134-.363-.256-.147-.183-.19-.375-.123-.566.066-.188.211-.29.422-.281.104.005.215.031.32.069 1.368.493 2.366 1.422 3.003 2.767.215.452.345.917.397 1.39.033.294.028.582.004.868-.027.336-.09.661-.197.968-.153.438-.382.817-.73 1.105-.01.01-.032.018-.048.015l-1.3-.228-.009-.003M4.934 8.593c.88.08 1.759.16 2.639.242l-.001-.013V5.03c0-.01 0-.022.002-.037.368.034.734.068 1.1.1v-3.75l-2.05-.188v.954l1.098.1v1.843l-.048-.005c-.334-.03-.668-.06-1.002-.092-.056-.005-.051-.01-.051.047v3.749l-.002.053-.04-.004-1.28-.118c-.073-.007-.147-.017-.22-.032-.272-.058-.527-.165-.762-.328-.215-.147-.4-.326-.521-.56-.164-.315-.173-.622-.015-.913.09-.166.237-.275.4-.361.189-.1.393-.161.598-.218.215-.06.432-.112.634-.205.432-.202.74-.524.918-.97.079-.195.124-.402.145-.618.019-.198.02-.398-.02-.6-.121-.613-.444-1.111-.957-1.493-.357-.266-.753-.403-1.178-.441L.54.598.496.592V3.34h.04l.849.078c.014 0 .028 0 .045.002v-.044l-.001-1.701c0-.035.01-.042.044-.04.956.09 1.913.177 2.87.265.048.005.098.01.146.02.256.056.475.184.66.378.227.237.366.512.38.832.009.245-.04.473-.164.674-.156.252-.391.402-.673.486-.19.057-.381.102-.568.16-.322.104-.623.246-.883.455-.33.267-.53.616-.568 1.057-.03.33.02.656.147.977.199.505.532.905.98 1.215.307.21.638.347.992.414l.142.025" transform="translate(29 29) translate(235 63)"/>
            <path d="M2.7 8.374c-.085-.091-.174-.177-.253-.271-.399-.469-.648-1-.747-1.589-.045-.271-.056-.538-.03-.804.026-.28.116-.537.251-.774.341-.595.841-1.003 1.49-1.239.158-.057.327-.088.494-.122.117-.024.232-.056.318-.14.128-.126.167-.284.108-.466-.058-.182-.185-.304-.369-.346-.092-.02-.19-.023-.28-.015-1.199.112-2.074.691-2.63 1.719-.19.346-.304.723-.349 1.125-.028.25-.024.504-.004.759.024.302.08.601.173.894.134.419.334.806.64 1.139.01.012.027.025.042.026.378.036.758.07 1.137.105l.01-.001" transform="translate(29 29) translate(235 63)"/>
        </g>
        <g transform="translate(29 29) translate(220 32)">
            <mask id="prefix__U" fill="#fff">
                <use xlink:href="#prefix__S"/>
            </mask>
            <path fill="url(#prefix__T)" d="M0.981 5.324L36.923 11.061 43.1 5.976 7.158 0.238z" mask="url(#prefix__U)"/>
        </g>
        <g>
            <path fill="#989898" d="M0.981 0.324L1.121 10.62 36.922 16.695 36.922 6.061z" transform="translate(29 29) translate(220 37)"/>
            <path fill="#C10021" d="M4.724 2.737L4.83 8.148 33.181 13.424 33.181 7.754z" transform="translate(29 29) translate(220 37)"/>
        </g>
        <g transform="translate(29 29) translate(256 37)">
            <mask id="prefix__X" fill="#fff">
                <use xlink:href="#prefix__V"/>
            </mask>
            <path fill="url(#prefix__W)" d="M0.923 6.061L0.923 16.695 7.1 12.013 7.1 0.976z" mask="url(#prefix__X)"/>
        </g>
        <path fill="#1A1A1A" d="M251.11 143.558L251.11 103.164 256.922 53.696 263.1 48.89 263.1 130.085z" transform="translate(29 29)"/>
        <g transform="translate(29 29) translate(215 95)">
            <mask id="prefix__aa" fill="#fff">
                <use xlink:href="#prefix__Y"/>
            </mask>
            <path fill="url(#prefix__Z)" d="M0.373 40.438L36.111 48.557 36.111 8.164 0.373 0.045z" mask="url(#prefix__aa)"/>
        </g>
        <g transform="translate(29 29) translate(215 95)">
            <mask id="prefix__ad" fill="#fff">
                <use xlink:href="#prefix__ab"/>
            </mask>
            <path fill="url(#prefix__ac)" d="M0.373 3.391L36.111 11.51 36.111 8.164 0.373 0.045z" mask="url(#prefix__ad)"/>
        </g>
        <g transform="translate(29 29) translate(222 110)">
            <mask id="prefix__ag" fill="#fff">
                <use xlink:href="#prefix__ae"/>
            </mask>
            <path fill="url(#prefix__af)" d="M0.057 13.248L19.478 18.542 19.478 5.875 0.057 0.581z" mask="url(#prefix__ag)"/>
        </g>
        <path fill="#1A1A1A" d="M251.11 106.511L263.1 94.626 263.1 91.395 251.11 103.164z" transform="translate(29 29)"/>
        <g transform="translate(29 29) translate(215 47)">
            <mask id="prefix__aj" fill="#fff">
                <use xlink:href="#prefix__ah"/>
            </mask>
            <path fill="url(#prefix__ai)" d="M0.373 48.045L36.111 56.164 41.923 6.695 6.121 0.62z" mask="url(#prefix__aj)"/>
        </g>
        <path fill="#989898" d="M253.481 57.469L249.413 98.836 218.814 91.607 222.828 51.947z" transform="translate(29 29)"/>
        <g transform="translate(29 29) translate(222 51)">
            <mask id="prefix__am" fill="#fff">
                <use xlink:href="#prefix__ak"/>
            </mask>
            <path fill="url(#prefix__al)" d="M0.828 22.882L29.219 29.475 31.481 6.469 0.828 0.946z" mask="url(#prefix__am)"/>
        </g>
        <g transform="translate(29 29) translate(220 73)">
            <mask id="prefix__ap" fill="#fff">
                <use xlink:href="#prefix__an"/>
            </mask>
            <path fill="url(#prefix__ao)" d="M0.981 2.766L28.15 9.227 28.618 7.052 2.828 0.882z" mask="url(#prefix__ap)"/>
        </g>
        <g transform="translate(29 29) translate(220 75)">
            <mask id="prefix__as" fill="#fff">
                <use xlink:href="#prefix__aq"/>
            </mask>
            <path fill="url(#prefix__ar)" d="M0.981 2.718L30.524 9.965 31.012 7.7 0.981 0.766z" mask="url(#prefix__as)"/>
        </g>
        <g transform="translate(29 29) translate(224 60)">
            <mask id="prefix__av" fill="#fff">
                <use xlink:href="#prefix__at"/>
            </mask>
            <path fill="url(#prefix__au)" d="M0.723 11.652L14.162 16.194 0.164 0.945z" mask="url(#prefix__av)"/>
        </g>
        <g transform="translate(29 29) translate(218 78)">
            <mask id="prefix__ay" fill="#fff">
                <use xlink:href="#prefix__aw"/>
            </mask>
            <path fill="url(#prefix__ax)" d="M0.814 13.607L31.248 20.865 32.768 7.063 4.588 0.012z" mask="url(#prefix__ay)"/>
        </g>
        <g fill="#FFF">
            <path d="M104.122 10.268l-3.012-.53.001-.016V5.396c0-.013 0-.025-.002-.043l-1.257-.222V.85l2.34.412V2.35l-1.253-.221v2.104l.055.009 1.144.202c.064.012.058.004.058.068v4.28l.003.06.046.009 1.46.257c.084.014.168.025.252.03.31.017.601-.027.87-.14.245-.103.455-.251.594-.48.187-.31.197-.658.017-1.038-.102-.218-.27-.387-.458-.536-.213-.17-.447-.302-.68-.43-.246-.135-.494-.261-.724-.43-.494-.362-.845-.823-1.049-1.387-.09-.248-.142-.498-.165-.75-.02-.231-.024-.46.021-.677.14-.664.51-1.134 1.094-1.413.408-.195.861-.23 1.345-.143l4.316.76c.016.004.034.006.05.009v3.136c-.015-.005-.03-.01-.045-.011l-.969-.172-.052-.011v-.051l.001-1.941c0-.04-.01-.051-.05-.058-1.092-.191-2.183-.385-3.276-.577-.056-.01-.112-.017-.167-.02-.29-.016-.543.064-.754.228-.259.202-.418.473-.433.834-.01.276.045.552.187.819.18.336.446.578.77.762.213.12.433.232.646.357.368.215.712.468 1.01.789.377.406.602.863.647 1.379.034.386-.023.744-.168 1.07-.226.515-.607.87-1.119 1.087-.35.146-.728.202-1.132.169l-.162-.014" transform="translate(29 29) translate(133 59)"/>
            <path d="M106.672 10.701c.097-.077.198-.149.289-.232.455-.414.739-.943.853-1.586.05-.294.063-.597.034-.909-.03-.328-.133-.648-.287-.96-.388-.783-.96-1.402-1.7-1.869-.181-.115-.375-.2-.565-.29-.134-.064-.265-.135-.362-.258-.147-.183-.192-.375-.124-.565.066-.189.21-.29.422-.28.104.003.215.03.32.067 1.368.493 2.366 1.422 3.003 2.767.215.452.345.918.397 1.39.033.294.028.582.004.868-.027.336-.09.661-.197.968-.153.438-.382.817-.73 1.105-.011.01-.032.018-.048.015l-1.3-.228-.01-.003M3.833 10.993l-2.639.241.001-.012V7.43l-.002-.037-1.1.102v-3.75c.683-.064 1.366-.126 2.05-.189v.953l-1.098.1v1.843c.017 0 .032-.003.048-.004.334-.03.668-.06 1.002-.092.056-.005.051-.01.051.046v3.75l.001.052c.017 0 .03-.003.041-.004.427-.039.853-.077 1.279-.117.074-.007.148-.018.22-.033.272-.058.528-.165.763-.327.215-.148.4-.327.521-.56.164-.315.173-.622.014-.913-.09-.167-.236-.276-.4-.362-.188-.1-.392-.16-.597-.217-.215-.06-.432-.113-.634-.206-.432-.2-.74-.524-.918-.969-.079-.196-.124-.403-.145-.618-.019-.198-.021-.398.019-.599.122-.614.445-1.112.958-1.495.357-.266.753-.402 1.178-.44l3.781-.347c.014 0 .029-.003.043-.005V5.74l-.04.001-.848.077c-.015.002-.028.002-.045.002v-.044c0-.566-.001-1.134.001-1.7 0-.035-.01-.043-.044-.04-.957.09-1.913.176-2.87.265-.049.004-.098.01-.146.02-.256.055-.475.184-.661.377-.226.238-.366.512-.379.832-.009.245.039.473.164.675.156.252.391.401.673.486.189.056.381.101.568.16.322.103.623.245.883.455.33.267.528.615.568 1.057.029.33-.021.656-.148.977-.198.504-.531.905-.98 1.214-.306.211-.637.348-.991.414l-.142.026" transform="translate(29 29) translate(133 59)"/>
            <path d="M6.066 10.773c.085-.09.174-.177.253-.27.398-.47.648-1 .747-1.59.045-.27.056-.538.03-.804-.026-.28-.116-.537-.252-.774-.34-.595-.84-1.002-1.488-1.238-.159-.058-.328-.088-.495-.123-.117-.023-.232-.055-.318-.14-.128-.125-.167-.284-.109-.466.06-.18.186-.304.37-.345.092-.02.19-.023.281-.016 1.198.112 2.073.692 2.63 1.72.188.345.303.723.348 1.125.028.25.024.503.004.758-.024.302-.079.601-.173.895-.134.42-.334.805-.639 1.14-.01.011-.028.023-.043.024-.378.036-.758.071-1.138.105h-.008" transform="translate(29 29) translate(133 59)"/>
        </g>
        <g transform="translate(29 29) translate(113 30)">
            <mask id="prefix__aB" fill="#fff">
                <use xlink:href="#prefix__az"/>
            </mask>
            <path fill="url(#prefix__aA)" d="M0.666 6.376L6.844 11.462 42.785 5.724 36.609 0.639z" mask="url(#prefix__aB)"/>
        </g>
        <g>
            <path fill="#989898" d="M36.785 0.724L36.645 11.02 0.844 17.096 0.844 6.462z" transform="translate(29 29) translate(119 35)"/>
            <path fill="#C10021" d="M33.043 3.137L32.937 8.549 4.586 13.824 4.586 8.155z" transform="translate(29 29) translate(119 35)"/>
        </g>
        <g transform="translate(29 29) translate(113 36)">
            <mask id="prefix__aE" fill="#fff">
                <use xlink:href="#prefix__aC"/>
            </mask>
            <path fill="url(#prefix__aD)" d="M0.666 11.412L6.844 16.096 6.844 5.462 0.666 0.376z" mask="url(#prefix__aE)"/>
        </g>
        <g transform="translate(29 29) translate(113 47)">
            <mask id="prefix__aH" fill="#fff">
                <use xlink:href="#prefix__aF"/>
            </mask>
            <path fill="url(#prefix__aG)" d="M0.666 81.486L12.656 94.958 12.656 54.564 6.844 5.096 0.666 0.29z" mask="url(#prefix__aH)"/>
        </g>
        <g transform="translate(29 29) translate(125 93)">
            <mask id="prefix__aK" fill="#fff">
                <use xlink:href="#prefix__aI"/>
            </mask>
            <path fill="url(#prefix__aJ)" d="M0.656 8.564L0.656 48.958 36.393 40.839 36.393 0.445z" mask="url(#prefix__aK)"/>
        </g>
        <g transform="translate(29 29) translate(125 93)">
            <mask id="prefix__aN" fill="#fff">
                <use xlink:href="#prefix__aL"/>
            </mask>
            <path fill="url(#prefix__aM)" d="M0.656 8.564L0.656 11.91 36.393 3.791 36.393 0.445z" mask="url(#prefix__aN)"/>
        </g>
        <g transform="translate(29 29) translate(135 108)">
            <mask id="prefix__aQ" fill="#fff">
                <use xlink:href="#prefix__aO"/>
            </mask>
            <path fill="url(#prefix__aP)" d="M0.289 6.275L0.289 18.942 19.71 13.648 19.71 0.98z" mask="url(#prefix__aQ)"/>
        </g>
        <path fill="#1A1A1A" d="M125.656 104.91L113.666 93.025 113.666 89.794 125.656 101.564z" transform="translate(29 29)"/>
        <g transform="translate(29 29) translate(119 46)">
            <mask id="prefix__aT" fill="#fff">
                <use xlink:href="#prefix__aR"/>
            </mask>
            <path fill="url(#prefix__aS)" d="M0.844 6.096L6.656 55.564 42.393 47.445 36.646 0.02z" mask="url(#prefix__aT)"/>
        </g>
        <path fill="#989898" d="M123.285 55.868L127.353 97.236 157.952 90.007 153.937 50.347z" transform="translate(29 29)"/>
        <g transform="translate(29 29) translate(123 50)">
            <mask id="prefix__aW" fill="#fff">
                <use xlink:href="#prefix__aU"/>
            </mask>
            <path fill="url(#prefix__aV)" d="M0.285 5.868L2.548 28.876 30.938 22.283 30.938 0.347z" mask="url(#prefix__aW)"/>
        </g>
        <g transform="translate(29 29) translate(128 72)">
            <mask id="prefix__aZ" fill="#fff">
                <use xlink:href="#prefix__aX"/>
            </mask>
            <path fill="url(#prefix__aY)" d="M0.149 6.453L0.617 8.627 27.785 2.166 25.938 0.283z" mask="url(#prefix__aZ)"/>
        </g>
        <g transform="translate(29 29) translate(125 74)">
            <mask id="prefix__bc" fill="#fff">
                <use xlink:href="#prefix__ba"/>
            </mask>
            <path fill="url(#prefix__bb)" d="M0.755 7.1L1.243 9.366 30.785 2.118 30.785 0.166z" mask="url(#prefix__bc)"/>
        </g>
        <g transform="translate(29 29) translate(138 59)">
            <mask id="prefix__bf" fill="#fff">
                <use xlink:href="#prefix__bd"/>
            </mask>
            <path fill="url(#prefix__be)" d="M0.604 15.594L14.043 11.051 14.603 0.345z" mask="url(#prefix__bf)"/>
        </g>
        <g transform="translate(29 29) translate(125 76)">
            <mask id="prefix__bi" fill="#fff">
                <use xlink:href="#prefix__bg"/>
            </mask>
            <path fill="url(#prefix__bh)" d="M0.999 7.462L2.519 21.265 32.952 14.007 29.179 0.412z" mask="url(#prefix__bi)"/>
        </g>
        <g>
            <path fill="#FFF" d="M5.644 9.668l3.012-.531V4.795c0-.013 0-.025.002-.043l1.257-.222V.249l-2.34.412v1.088c.418-.073.834-.146 1.253-.221v2.104l-.055.01c-.381.067-.764.133-1.144.202-.065.011-.058.003-.058.068v4.279l-.003.061-.046.008c-.487.086-.974.173-1.46.257-.085.014-.168.026-.253.031-.31.016-.6-.027-.869-.141-.246-.102-.456-.25-.595-.479-.186-.31-.196-.658-.016-1.039.102-.218.27-.386.458-.535.213-.171.446-.302.68-.431.245-.134.494-.26.724-.429.494-.362.845-.823 1.048-1.387.09-.248.143-.498.165-.75.022-.232.024-.46-.021-.677-.138-.664-.508-1.134-1.093-1.413-.409-.195-.862-.23-1.346-.144-1.438.255-2.877.508-4.316.762l-.05.008v3.135l.046-.011.969-.171.052-.012v-.05c0-.647 0-1.295-.002-1.941 0-.04.012-.052.05-.059l3.276-.576c.056-.01.112-.018.167-.02.292-.016.542.063.755.228.258.202.417.472.433.833.01.277-.045.552-.188.82-.179.335-.446.578-.769.761-.215.122-.433.232-.646.357-.369.215-.713.469-1.01.79-.377.405-.603.863-.647 1.379-.034.385.022.743.167 1.07.227.514.607.871 1.12 1.086.35.147.728.203 1.131.17l.162-.014" transform="translate(29 29) translate(134 58)"/>
            <path fill="#FFF" d="M3.095 10.1c-.097-.076-.198-.147-.29-.23-.454-.415-.738-.944-.852-1.586-.051-.295-.063-.598-.034-.91.03-.327.133-.648.287-.96.388-.783.96-1.402 1.7-1.868.18-.115.374-.201.565-.292.133-.063.264-.134.362-.257.147-.182.192-.375.124-.565-.066-.19-.211-.29-.422-.281-.104.005-.215.03-.32.068-1.368.494-2.366 1.423-3.003 2.768-.215.45-.345.917-.397 1.39-.033.294-.028.582-.004.867.027.337.09.662.197.969.153.437.382.817.73 1.105.01.01.032.017.048.014l1.299-.227.01-.004" transform="translate(29 29) translate(134 58)"/>
            <path fill="#1A1A1A" d="M217.958 127.887L217.958 85.849 240.85 79.551 240.85 122.726z" transform="translate(29 29) translate(134 58)"/>
        </g>
        <g transform="translate(29 29) translate(322 126)">
            <mask id="prefix__bl" fill="#fff">
                <use xlink:href="#prefix__bj"/>
            </mask>
            <path fill="url(#prefix__bk)" d="M0.834 42.15L29.958 59.887 29.958 17.849 0.834 0.113z" mask="url(#prefix__bl)"/>
        </g>
        <g transform="translate(29 29) translate(322 126)">
            <mask id="prefix__bo" fill="#fff">
                <use xlink:href="#prefix__bm"/>
            </mask>
            <path fill="url(#prefix__bn)" d="M0.834 3.594L29.958 21.331 29.958 17.849 0.834 0.113z" mask="url(#prefix__bo)"/>
        </g>
        <path fill="#1A1A1A" d="M351.958 147.331L374.85 143.823 374.85 140.46 351.958 143.849z" transform="translate(29 29)"/>
        <g transform="translate(29 29) translate(322 122)">
            <mask id="prefix__br" fill="#fff">
                <use xlink:href="#prefix__bp"/>
            </mask>
            <path fill="url(#prefix__bq)" d="M0.834 4.113L29.958 21.849 52.85 15.551 18.483 0.589z" mask="url(#prefix__br)"/>
        </g>
        <g transform="translate(29 29) translate(327 110)">
            <mask id="prefix__bu" fill="#fff">
                <use xlink:href="#prefix__bs"/>
            </mask>
            <path fill="url(#prefix__bt)" d="M0.039 4.86L27.875 20.593 45.114 16.298 17.279 0.564z" mask="url(#prefix__bu)"/>
        </g>
        <path fill="#989898" d="M327.039 114.859L327.184 125.653 354.875 141.66 354.875 130.592z" transform="translate(29 29)"/>
        <g transform="translate(29 29) translate(354 126)">
            <mask id="prefix__bx" fill="#fff">
                <use xlink:href="#prefix__bv"/>
            </mask>
            <path fill="url(#prefix__bw)" d="M0.875 4.593L0.875 15.66 18.114 10.707 18.114 0.298z" mask="url(#prefix__bx)"/>
        </g>
        <g>
            <path fill="#FFF" d="M97.714 56.049L91.058 58.399 39.141 2.191 46.381 0.83z" transform="translate(29 29) translate(16 7)"/>
            <path fill="#B2B2B2" d="M91.058 58.398L91.058 160.703 97.714 158.058 97.714 56.048z" transform="translate(29 29) translate(16 7)"/>
            <path fill="#E5E5E5" d="M39.141 2.19L36.774 96.766 91.058 160.703 91.058 58.398z" transform="translate(29 29) translate(16 7)"/>
            <path fill="#FF7A79" d="M81.77 77.061L52.529 86.915 0.612 30.706 30.438 21.843z" transform="translate(29 29) translate(16 7)"/>
            <path fill="#E5E5E5" d="M0.611 30.707L0.611 108.015 52.529 163.311 52.529 86.915z" transform="translate(29 29) translate(16 7)"/>
            <path fill="#FFF" d="M52.529 86.915L52.529 163.311 81.77 153.163 81.77 77.061z" transform="translate(29 29) translate(16 7)"/>
        </g>
        <g transform="translate(29 29) translate(72 98)">
            <mask id="prefix__bA" fill="#fff">
                <use xlink:href="#prefix__by"/>
            </mask>
            <path fill="url(#prefix__bz)" d="M0.449 7.785L0.449 46.489 21.85 38.769 21.85 0.294z" mask="url(#prefix__bA)"/>
        </g>
        <g>
            <path fill="#FF7A79" d="M58.529 89.915L58.529 97.746 87.77 87.597 87.77 80.061z" transform="translate(29 29) translate(10 4)"/>
            <path fill="#FFF" d="M59.012 72.639L52.356 74.99 0.438 18.781 7.679 17.42z" transform="translate(29 29) translate(10 4)"/>
            <path fill="#E5E5E5" d="M0.438 18.78L0.438 121.997 52.355 177.294 52.355 74.989z" transform="translate(29 29) translate(10 4)"/>
            <path fill="#B2B2B2" d="M52.355 74.989L52.355 177.294 59.011 174.649 59.011 72.638z" transform="translate(29 29) translate(10 4)"/>
            <path fill="#989898" d="M.438 18.78S-.865 7.604 54.17.803l49.543 58.246s-18.85 3.99-51.357 15.94L.437 18.78z" transform="translate(29 29) translate(10 4)"/>
            <path fill="#B2B2B2" d="M103.714 59.049s-18.851 3.989-51.358 15.94v9.703s30.56-11.466 51.358-16.247v-9.396z" transform="translate(29 29) translate(10 4)"/>
        </g>
        <g transform="translate(29 29) translate(80 120)">
            <mask id="prefix__bD" fill="#fff">
                <use xlink:href="#prefix__bB"/>
            </mask>
            <path fill="url(#prefix__bC)" d="M0.392 15.397L9.139 11.853 9.686 0.607z" mask="url(#prefix__bD)"/>
        </g>
        <path fill="url(#prefix__bE)" d="M165.905 94.285L209.668 94.285 209.668 48.716 165.905 48.716z" transform="translate(29 29)"/>
        <path fill="url(#prefix__bF)" d="M165.905 134.918L209.668 134.918 209.668 94.285 165.905 94.285z" transform="translate(29 29)"/>
        <path fill="url(#prefix__bG)" d="M175.016 121.168L200.559 121.168 200.559 108.034 175.016 108.034z" transform="translate(29 29)"/>
        <path fill="url(#prefix__bH)" d="M169.61 91.723L205.964 91.723 205.964 74.751 169.61 74.751z" transform="translate(29 29)"/>
        <path fill="#C10021" d="M168.463 45.544L207.109 45.544 207.109 40.159 168.463 40.159z" transform="translate(29 29)"/>
        <g transform="translate(29 29) translate(165 30)">
            <mask id="prefix__bK" fill="#fff">
                <use xlink:href="#prefix__bI"/>
            </mask>
            <path fill="url(#prefix__bJ)" d="M22.787 0.826L11.327 0.826 0.905 6.987 22.787 6.987 44.668 6.987 34.246 0.826z" mask="url(#prefix__bK)"/>
        </g>
        <path fill="url(#prefix__bL)" d="M169.61 77.117L205.964 77.117 205.964 73.89 169.61 73.89z" transform="translate(29 29)"/>
        <path fill="url(#prefix__bM)" d="M169.61 78.475L205.964 78.475 205.964 77.117 169.61 77.117z" transform="translate(29 29)"/>
        <g fill="#989898">
            <path d="M.61 13.724L.61.475 4.689.477zM36.833 13.724L36.833.475 32.754.477z" transform="translate(29 29) translate(169 78)"/>
        </g>
        <path fill="url(#prefix__bN)" d="M169.61 75.14L205.964 75.14 205.964 51.897 169.61 51.897z" transform="translate(29 29)"/>
        <g transform="translate(29 29) translate(172 60)">
            <mask id="prefix__bQ" fill="#fff">
                <use xlink:href="#prefix__bO"/>
            </mask>
            <path fill="url(#prefix__bP)" d="M1.243 10.786L15.787 10.163 0.684 0.079z" mask="url(#prefix__bQ)"/>
        </g>
        <g fill="#FFF">
            <path d="M5.996.39c-1.487 0-2.723 1.207-2.75 2.694-.057 1.15.59 2.245 1.655 2.723.702.309 1.965.533 1.937 1.684C6.81 8.64 5.771 9.09 4.79 9.09H3.077V4.038h-1.43V1.653h1.43V.39H.44v4.912h1.404v5.024h3.283c1.628 0 2.947-1.291 3.003-2.92.028-1.431-1.094-2.19-2.442-2.638-.729-.196-1.234-.898-1.207-1.655.057-.786.703-1.432 1.49-1.46h3.76v2.33h1.178V.39H5.996z" transform="translate(29 29) translate(183 57)"/>
            <path d="M8.606 3.364c-.589-.42-1.263-.673-1.965-.729h-.056c-.336 0-.617.281-.617.618 0 .196.084.392.224.505.141.084.31.168.477.196 1.46.365 2.666 1.768 2.751 3.087.112 1.235-.393 2.47-1.347 3.284h1.515c.674-.674 1.123-1.796 1.095-3.228-.056-1.515-.842-2.89-2.077-3.733" transform="translate(29 29) translate(183 57)"/>
        </g>
    </g>
</svg>
