<svg xmlns="http://www.w3.org/2000/svg" xmlns:xlink="http://www.w3.org/1999/xlink" width="453" height="324" viewBox="0 0 453 324">
    <defs>
        <path id="prefix__a" d="M229.86 0.053L0 71.616 163.825 252.344 393.551 179.597z"/>
        <path id="prefix__d" d="M0.893 1.932L0.893 55.616 4.55 54.585 4.55 0.612z"/>
        <path id="prefix__f" d="M5.012 2.871c-5.599 3.233-5.599 8.473.001 11.706 5.598 3.232 14.676 3.232 20.275 0 5.6-3.233 5.6-8.473 0-11.706C22.489 1.254 18.82.446 15.15.446c-3.669 0-7.338.808-10.138 2.425"/>
        <path id="prefix__i" d="M17.85.538H3.41s-5.734 9.023 0 18.355c0 1.511 6.456 4.307 14.418 4.307 7.962 0 14.417-2.796 14.417-4.307h.044c5.736-9.332 0-18.355 0-18.355H17.85z"/>
        <path id="prefix__l" d="M.41 4.538c0 2.064 6.456 3.738 14.418 3.738 7.962 0 14.417-1.674 14.417-3.738 0-2.065-6.455-3.739-14.417-3.739S.41 2.473.41 4.538"/>
        <path id="prefix__o" d="M17.956.208H3.517s-5.734 9.024 0 18.356c0 1.512 6.454 4.307 14.417 4.307 7.962 0 14.417-2.795 14.417-4.307h.045c5.734-9.332 0-18.356 0-18.356h-14.44z"/>
        <path id="prefix__r" d="M.517 4.208c0 2.065 6.454 3.739 14.417 3.739 7.962 0 14.417-1.674 14.417-3.739 0-2.063-6.455-3.737-14.417-3.737C6.971.471.517 2.145.517 4.208"/>
        <path id="prefix__u" d="M17.753.207H3.314s-5.735 9.023 0 18.354c0 1.512 6.455 4.307 14.417 4.307s14.417-2.795 14.417-4.307h.044c5.735-9.331 0-18.354 0-18.354H17.753z"/>
        <path id="prefix__x" d="M.314 4.207c0 2.064 6.455 3.737 14.417 3.737s14.417-1.673 14.417-3.737S22.693.468 14.731.468.314 2.143.314 4.207"/>
        <path id="prefix__A" d="M17.18.546H2.74s-5.734 9.024 0 18.356c0 1.512 6.456 4.307 14.417 4.307 7.962 0 14.417-2.795 14.417-4.307h.045c5.735-9.332 0-18.356 0-18.356H17.18z"/>
        <path id="prefix__D" d="M.74 4.546c0 2.065 6.455 3.739 14.417 3.739s14.417-1.674 14.417-3.739c0-2.064-6.455-3.737-14.417-3.737S.74 2.482.74 4.546"/>
        <path id="prefix__G" d="M17.796.863H3.356s-5.734 9.023 0 18.354c0 1.512 6.456 4.308 14.417 4.308 7.963 0 14.417-2.796 14.417-4.308h.046c5.734-9.331 0-18.354 0-18.354h-14.44z"/>
        <path id="prefix__J" d="M.356 3.863c0 2.064 6.455 3.738 14.417 3.738 7.963 0 14.417-1.674 14.417-3.738S22.736.125 14.773.125C6.811.125.356 1.799.356 3.863"/>
        <path id="prefix__M" d="M3.681 2.458c-4.342 2.506-4.342 6.571 0 9.078 4.342 2.507 11.381 2.507 15.725 0 4.341-2.507 4.341-6.572 0-9.078C17.234 1.204 14.388.577 11.543.577c-2.846 0-5.691.627-7.862 1.881"/>
        <path id="prefix__P" d="M1.097 1.465c-1.351.78-1.351 2.045 0 2.824 1.35.78 3.541.78 4.892 0 1.35-.779 1.35-2.044 0-2.824C5.313 1.075 4.428.88 3.543.88c-.886 0-1.771.195-2.446.585"/>
        <path id="prefix__S" d="M1.097.587c-1.351.781-1.351 2.044 0 2.825 1.35.78 3.541.78 4.892 0 1.35-.781 1.35-2.044 0-2.825C5.313.197 4.428.002 3.543.002c-.886 0-1.771.195-2.446.585"/>
        <path id="prefix__V" d="M.552.734v21.731H.56c.018.351.109.694.282.962.386.6 1.015.6 1.402 0 .173-.268.264-.611.282-.962h.007V.734H.552z"/>
        <path id="prefix__Y" d="M6.808 3.878c-8.691 5.017-8.691 13.152 0 18.17 8.69 5.017 22.78 5.017 31.47 0 8.69-5.018 8.69-13.153 0-18.17C33.933 1.369 28.238.115 22.543.115S11.153 1.369 6.808 3.878"/>
        <path id="prefix__ab" d="M3.964 2.487c-4.342 2.507-4.342 6.573 0 9.079 4.342 2.507 11.382 2.507 15.725 0 4.342-2.506 4.342-6.572 0-9.079-2.172-1.253-5.018-1.88-7.863-1.88-2.846 0-5.691.627-7.862 1.88"/>
        <path id="prefix__ae" d="M1.38 1.495c-1.351.779-1.351 2.044 0 2.824 1.35.779 3.541.779 4.892 0 1.351-.78 1.351-2.045 0-2.824-.676-.39-1.561-.586-2.446-.586-.886 0-1.771.196-2.446.586"/>
        <path id="prefix__ah" d="M1.38.618c-1.351.78-1.351 2.044 0 2.824 1.35.78 3.541.78 4.892 0 1.351-.78 1.351-2.044 0-2.824C5.596.228 4.711.033 3.826.033c-.886 0-1.771.195-2.446.585"/>
        <path id="prefix__ak" d="M.836.763V22.495h.007c.018.351.11.694.282.963.388.598 1.015.598 1.402 0 .173-.269.264-.612.283-.963h.007V.763H.836z"/>
        <path id="prefix__an" d="M7.091 3.908c-8.691 5.016-8.691 13.152 0 18.17 8.69 5.017 22.781 5.017 31.471 0 8.691-5.018 8.691-13.154 0-18.17C34.217 1.399 28.522.144 22.826.144c-5.695 0-11.39 1.255-15.735 3.764"/>
        <path id="prefix__aq" d="M4.093 2.629c-4.342 2.506-4.342 6.571 0 9.077 4.343 2.509 11.383 2.509 15.725 0 4.342-2.506 4.342-6.571 0-9.077C17.647 1.375 14.801.748 11.956.748c-2.846 0-5.692.627-7.863 1.881"/>
        <path id="prefix__at" d="M1.51.635c-1.351.78-1.351 2.045 0 2.824 1.351.781 3.541.781 4.891 0 1.351-.779 1.351-2.044 0-2.824-.675-.39-1.56-.584-2.445-.584-.885 0-1.771.194-2.446.584"/>
        <path id="prefix__aw" d="M1.51.758c-1.351.781-1.351 2.045 0 2.825 1.351.78 3.541.78 4.891 0 1.351-.78 1.351-2.044 0-2.825C5.726.369 4.841.174 3.956.174c-.885 0-1.771.195-2.446.584"/>
        <path id="prefix__az" d="M.965.905v21.73h.006c.019.352.11.695.284.963.387.599 1.013.599 1.401 0 .173-.268.265-.611.283-.963h.007V.905H.965z"/>
        <path id="prefix__aC" d="M7.22 4.049c-8.691 5.017-8.691 13.152 0 18.169 8.69 5.018 22.78 5.018 31.471 0 8.69-5.017 8.69-13.152 0-18.169C34.346 1.54 28.65.286 22.955.286S11.565 1.54 7.22 4.049"/>
        <path id="prefix__aF" d="M17.963.299H3.524s-5.735 9.023 0 18.355c0 1.51 6.455 4.307 14.418 4.307 7.961 0 14.416-2.797 14.416-4.307h.044c5.736-9.332 0-18.355 0-18.355H17.963z"/>
        <path id="prefix__aI" d="M.524 4.299c0 2.064 6.455 3.737 14.418 3.737 7.961 0 14.416-1.673 14.416-3.737 0-2.065-6.455-3.739-14.416-3.739C6.979.56.524 2.234.524 4.299"/>
        <linearGradient id="prefix__b" x1="0%" x2="100%" y1="50%" y2="50%">
            <stop offset="0%" stop-color="#646664"/>
            <stop offset="100%" stop-color="#4D4D4D"/>
        </linearGradient>
        <linearGradient id="prefix__g" x1="50%" x2="50%" y1="-.001%" y2="100.001%">
            <stop offset="0%" stop-color="#A1A101"/>
            <stop offset="100%" stop-color="#EDD821"/>
        </linearGradient>
        <linearGradient id="prefix__j" x1=".002%" x2="100%" y1="49.999%" y2="49.999%">
            <stop offset="0%" stop-color="#C10021"/>
            <stop offset="100%" stop-color="#F0233D"/>
        </linearGradient>
        <linearGradient id="prefix__m" x1=".002%" x2="100%" y1="50.004%" y2="50.004%">
            <stop offset="0%" stop-color="#F0233D"/>
            <stop offset="100%" stop-color="#FF7979"/>
        </linearGradient>
        <linearGradient id="prefix__p" x1="-.002%" x2="99.999%" y1="50.002%" y2="50.002%">
            <stop offset="0%" stop-color="#C10021"/>
            <stop offset="100%" stop-color="#F0233D"/>
        </linearGradient>
        <linearGradient id="prefix__s" x1="-.002%" x2="99.999%" y1="49.999%" y2="49.999%">
            <stop offset="0%" stop-color="#F0233D"/>
            <stop offset="100%" stop-color="#FF7979"/>
        </linearGradient>
        <linearGradient id="prefix__v" x1="0%" x2="100.001%" y1="49.999%" y2="49.999%">
            <stop offset="0%" stop-color="#C10021"/>
            <stop offset="100%" stop-color="#F0233D"/>
        </linearGradient>
        <linearGradient id="prefix__y" x1="-.001%" x2="100%" y1="50.003%" y2="50.003%">
            <stop offset="0%" stop-color="#F0233D"/>
            <stop offset="100%" stop-color="#FF7979"/>
        </linearGradient>
        <linearGradient id="prefix__B" x1="0%" x2="99.999%" y1="50.001%" y2="50.001%">
            <stop offset="0%" stop-color="#C10021"/>
            <stop offset="100%" stop-color="#F0233D"/>
        </linearGradient>
        <linearGradient id="prefix__E" x1=".001%" x2="100.001%" y1="49.998%" y2="49.998%">
            <stop offset="0%" stop-color="#F0233D"/>
            <stop offset="100%" stop-color="#FF7979"/>
        </linearGradient>
        <linearGradient id="prefix__H" x1=".001%" x2="99.998%" y1="49.999%" y2="49.999%">
            <stop offset="0%" stop-color="#C10021"/>
            <stop offset="100%" stop-color="#F0233D"/>
        </linearGradient>
        <linearGradient id="prefix__K" x1=".001%" x2="100.002%" y1="49.999%" y2="49.999%">
            <stop offset="0%" stop-color="#F0233D"/>
            <stop offset="100%" stop-color="#FF7979"/>
        </linearGradient>
        <linearGradient id="prefix__N" x1="-.003%" x2="100%" y1="50%" y2="50%">
            <stop offset="0%" stop-color="gray"/>
            <stop offset="100%" stop-color="#666"/>
        </linearGradient>
        <linearGradient id="prefix__Q" x1=".005%" x2="100%" y1="49.995%" y2="49.995%">
            <stop offset="0%" stop-color="gray"/>
            <stop offset="100%" stop-color="#666"/>
        </linearGradient>
        <linearGradient id="prefix__T" x1=".005%" x2="100%" y1="50.004%" y2="50.004%">
            <stop offset="0%" stop-color="gray"/>
            <stop offset="100%" stop-color="#666"/>
        </linearGradient>
        <linearGradient id="prefix__W" x1="-.003%" x2="100.04%" y1="50%" y2="50%">
            <stop offset="0%" stop-color="#979797"/>
            <stop offset="100%" stop-color="#E4E4E4"/>
        </linearGradient>
        <linearGradient id="prefix__Z" x1="0%" x2="100.001%" y1="49.999%" y2="49.999%">
            <stop offset="0%" stop-color="#979797"/>
            <stop offset="100%" stop-color="#E4E4E4"/>
        </linearGradient>
        <linearGradient id="prefix__ac" x1="-.002%" x2="99.998%" y1="49.999%" y2="49.999%">
            <stop offset="0%" stop-color="gray"/>
            <stop offset="100%" stop-color="#666"/>
        </linearGradient>
        <linearGradient id="prefix__af" x1=".01%" x2="99.994%" y1="50.013%" y2="50.013%">
            <stop offset="0%" stop-color="gray"/>
            <stop offset="100%" stop-color="#666"/>
        </linearGradient>
        <linearGradient id="prefix__ai" x1=".01%" x2="99.994%" y1="49.988%" y2="49.988%">
            <stop offset="0%" stop-color="gray"/>
            <stop offset="100%" stop-color="#666"/>
        </linearGradient>
        <linearGradient id="prefix__al" x1="-.037%" x2="100.006%" y1="50.002%" y2="50.002%">
            <stop offset="0%" stop-color="#979797"/>
            <stop offset="100%" stop-color="#E4E4E4"/>
        </linearGradient>
        <linearGradient id="prefix__ao" x1=".001%" x2="99.997%" y1="50%" y2="50%">
            <stop offset="0%" stop-color="#979797"/>
            <stop offset="100%" stop-color="#E4E4E4"/>
        </linearGradient>
        <linearGradient id="prefix__ar" x1="0%" x2="100%" y1="49.998%" y2="49.998%">
            <stop offset="0%" stop-color="gray"/>
            <stop offset="100%" stop-color="#666"/>
        </linearGradient>
        <linearGradient id="prefix__au" x1=".001%" x2="99.999%" y1="49.999%" y2="49.999%">
            <stop offset="0%" stop-color="gray"/>
            <stop offset="100%" stop-color="#666"/>
        </linearGradient>
        <linearGradient id="prefix__ax" x1=".001%" x2="99.999%" y1="49.992%" y2="49.992%">
            <stop offset="0%" stop-color="gray"/>
            <stop offset="100%" stop-color="#666"/>
        </linearGradient>
        <linearGradient id="prefix__aA" x1="-.018%" x2="100.026%" y1="50.002%" y2="50.002%">
            <stop offset="0%" stop-color="#979797"/>
            <stop offset="100%" stop-color="#E4E4E4"/>
        </linearGradient>
        <linearGradient id="prefix__aD" x1=".002%" x2="100%" y1="49.999%" y2="49.999%">
            <stop offset="0%" stop-color="#979797"/>
            <stop offset="100%" stop-color="#E4E4E4"/>
        </linearGradient>
        <linearGradient id="prefix__aG" x1=".001%" x2="100%" y1="49.998%" y2="49.998%">
            <stop offset="0%" stop-color="#C10021"/>
            <stop offset="100%" stop-color="#F0233D"/>
        </linearGradient>
        <linearGradient id="prefix__aJ" x1="0%" x2="100.001%" y1="50.008%" y2="50.008%">
            <stop offset="0%" stop-color="#F0233D"/>
            <stop offset="100%" stop-color="#FF7979"/>
        </linearGradient>
    </defs>
    <g fill="none" fill-rule="evenodd">
        <g transform="translate(30 29.5) translate(0 .947)">
            <mask id="prefix__c" fill="#fff">
                <use xlink:href="#prefix__a"/>
            </mask>
            <path fill="url(#prefix__b)" d="M229.86 0.053L0 71.616 163.825 252.344 393.551 179.597z" mask="url(#prefix__c)"/>
        </g>
        <path fill="#1A1A1A" d="M0 86.878L163.825 265.947 163.825 253.292 0 72.563z" transform="translate(30 29.5)"/>
        <path fill="#333" d="M163.825 253.291L163.825 265.947 393.551 192.281 393.551 180.544z" transform="translate(30 29.5)"/>
        <g transform="translate(30 29.5) translate(389 125.947)">
            <mask id="prefix__e" fill="#fff">
                <use xlink:href="#prefix__d"/>
            </mask>
            <path d="M0.893 1.932L0.893 55.616 4.55 54.585 4.55 0.612z" mask="url(#prefix__e)"/>
        </g>
        <path fill="#E5E5E5" d="M347.486 81.666L347.486 134.936 389.894 181.562 389.894 127.879z" transform="translate(30 29.5)"/>
        <path fill="#FFF" d="M347.486 81.667L389.893 127.879 393.55 126.56 351.627 80.147z" transform="translate(30 29.5)"/>
        <path fill="#CBCBCB" d="M165.11 198.633L163.827 199.607 163.827 253.291 167.482 252.26 167.482 198.833z" transform="translate(30 29.5)"/>
        <path fill="#B2B2B2" d="M163.826 239.667L163.826 253.291 167.481 252.26 167.481 238.894z" transform="translate(30 29.5)"/>
        <path fill="#FFF" d="M0 21.358L163.825 199.607 167.482 198.833 4.018 20.189z" transform="translate(30 29.5)"/>
        <path fill="#B2B2B2" d="M0 72.775L163.826 253.291 163.826 239.281 0 59.605z" transform="translate(30 29.5)"/>
        <path fill="#E5E5E5" d="M0 59.605L163.826 239.281 163.826 199.608 0 21.359z" transform="translate(30 29.5)"/>
        <path stroke="#B2B2B2" stroke-linecap="round" d="M160.903 197.102L160.903 236.074M155.077 190.773L155.077 229.743M149.253 184.445L149.253 223.411M143.428 178.116L143.428 217.079M137.604 171.786L137.604 210.746M131.779 165.457L131.779 204.414M125.953 159.128L125.953 198.082M120.129 152.799L120.129 191.75M114.304 146.47L114.304 185.418M108.48 140.142L108.48 179.086M102.654 133.813L102.654 172.754M96.83 127.484L96.83 166.422M91.005 121.155L91.005 160.091M85.181 114.826L85.181 153.759M79.356 108.496L79.356 147.427M73.531 102.167L73.531 141.094M67.706 95.839L67.706 134.762M61.881 89.51L61.881 128.43M56.057 83.181L56.057 122.099M50.232 76.852L50.232 115.767M44.407 70.523L44.407 109.435M38.582 64.194L38.582 103.103M32.758 57.866L32.758 96.771M26.933 51.536L26.933 90.439M21.108 45.207L21.108 84.106M15.283 38.878L15.283 77.774M9.458 32.549L9.458 71.443M3.634 26.22L3.634 65.111" transform="translate(30 29.5)"/>
        <g transform="translate(30 29.5) translate(88 42.947)">
            <mask id="prefix__h" fill="#fff">
                <use xlink:href="#prefix__f"/>
            </mask>
            <path fill="url(#prefix__g)" d="M5.012 2.871c-5.599 3.233-5.599 8.473.001 11.706 5.598 3.232 14.676 3.232 20.275 0 5.6-3.233 5.6-8.473 0-11.706C22.489 1.254 18.82.446 15.15.446c-3.669 0-7.338.808-10.138 2.425" mask="url(#prefix__h)"/>
        </g>
        <g>
            <path fill="#4A2B09" d="M37.831 47.357c-5.347 3.087-14.015 3.087-19.362 0-5.347-3.087-5.347-8.092 0-11.179 5.346-3.087 14.015-3.087 19.362 0 5.347 3.087 5.347 8.092 0 11.18" transform="translate(30 29.5) translate(75 11.947)"/>
            <path fill="#FFF" d="M38.288 45.577c-5.599 3.232-14.677 3.232-20.275 0-2.8-1.616-4.2-3.735-4.2-5.854v13.11c0 .705.126 1.388.345 2.043 1.238 3.705 5.505 6.513 7.454 7.272.015.006.03.009.044.015 3.692 1.916 9.297 1.916 12.988-.001.015-.005.03-.008.044-.014 1.937-.755 6.164-3.531 7.432-7.202.234-.676.367-1.383.367-2.112V39.723c0 2.12-1.399 4.238-4.199 5.854" transform="translate(30 29.5) translate(75 11.947)"/>
            <path fill="#FDF669" d="M28.15 31.446c-3.668 0-7.338.809-10.137 2.425-5.6 3.232-5.6 8.473 0 11.706 2.8 1.616 6.468 2.425 10.138 2.425 3.669 0 7.339-.809 10.138-2.425 5.599-3.233 5.599-8.474 0-11.706-2.8-1.617-6.468-2.425-10.138-2.425zm.002 0v.371c3.765 0 7.299.844 9.95 2.375 2.589 1.494 4.015 3.459 4.015 5.531 0 2.074-1.426 4.037-4.014 5.532-2.652 1.531-6.186 2.375-9.952 2.375s-7.3-.844-9.952-2.375c-2.588-1.495-4.014-3.458-4.014-5.532 0-2.072 1.426-4.037 4.014-5.531 2.65-1.531 6.186-2.374 9.952-2.375v-.371z" transform="translate(30 29.5) translate(75 11.947)"/>
            <path fill="gray" d="M28.976 17.69c.592 2.883-.128 4.49-1.37 4.745-1.242.256-2.536-.937-3.13-3.82-.591-2.884.985-6.62.985-6.62s2.922 2.812 3.515 5.695" transform="translate(30 29.5) translate(75 11.947)"/>
            <path fill="gray" d="M29.174 10.284c.593 2.883-.127 4.489-1.369 4.745-1.242.255-2.536-.938-3.129-3.821-.593-2.884.984-6.62.984-6.62s2.922 2.812 3.514 5.696M44.908 26.304c-2.554 1.464-4.305 1.282-4.936.183-.63-1.1.098-2.704 2.652-4.167 2.554-1.464 6.596-1.135 6.596-1.135s-1.758 3.654-4.312 5.12M34.373 35.175c-3.839-2.041-4.99-4.374-4.11-6.027.88-1.655 3.457-2.005 7.296.038 3.838 2.04 6.606 7.355 6.606 7.355s-5.953.676-9.792-1.366M39.279 19.336c-2.165 1.995-3.912 2.209-4.772 1.276-.86-.932-.505-2.657 1.66-4.652 2.163-1.995 6.176-2.573 6.176-2.573s-.9 3.954-3.065 5.949" transform="translate(30 29.5) translate(75 11.947)"/>
            <path fill="gray" d="M30.117 30.409c-4.447 4.1-8.039 4.538-9.806 2.622-1.766-1.916-1.039-5.461 3.41-9.561 4.446-4.101 12.697-5.29 12.697-5.29s-1.853 8.128-6.3 12.229" transform="translate(30 29.5) translate(75 11.947)"/>
            <path fill="#979797" d="M12.453 13.383c2.202 2.744 2.313 4.845 1.132 5.794-1.183.948-3.21.386-5.41-2.357C5.971 14.075 5.61 9.242 5.61 9.242s4.641 1.398 6.842 4.141M32.643 7.443c.632 3.46-.271 5.361-1.761 5.634-1.491.271-3.007-1.188-3.638-4.649-.632-3.46 1.349-7.882 1.349-7.882s3.418 3.436 4.05 6.897M9.4 35.01c3.454-.67 5.365.21 5.653 1.697.289 1.488-1.153 3.02-4.606 3.69-3.453.671-7.898-1.262-7.898-1.262S5.948 35.68 9.4 35.01M38.128 23.16c-2.305 2.657-4.352 3.144-5.496 2.15-1.146-.992-.955-3.087 1.35-5.746 2.303-2.657 6.994-3.878 6.994-3.878s-.544 4.816-2.848 7.474M26.955 21.99c-.176 3.514-1.488 5.158-3.002 5.082-1.514-.075-2.655-1.843-2.479-5.356.176-3.513 3.117-7.366 3.117-7.366s2.54 4.127 2.364 7.64M42.088 41.74c-3.158-1.55-4.15-3.403-3.482-4.765.667-1.36 2.742-1.711 5.9-.161 3.157 1.549 5.535 5.773 5.535 5.773s-4.795.704-7.953-.846M26.422 48.792c-.646-3.457.247-5.362 1.736-5.642 1.49-.278 3.012 1.175 3.66 4.632.645 3.458-1.317 7.89-1.317 7.89s-3.432-3.423-4.079-6.88M49.026 28.03c-3.347 1.085-5.35.443-5.817-1-.467-1.44.779-3.136 4.125-4.221 3.345-1.084 7.992.295 7.992.295s-2.954 3.842-6.3 4.926M28.581 33.575c2.801 2.128 3.418 4.14 2.502 5.347-.917 1.206-3.02 1.15-5.82-.977-2.802-2.127-4.324-6.728-4.324-6.728s4.841.23 7.642 2.358" transform="translate(30 29.5) translate(75 11.947)"/>
            <path fill="#B1B1B1" d="M40.395 14.327c-2.588 1.402-4.334 1.18-4.938.065-.605-1.115.163-2.7 2.75-4.102 2.587-1.402 6.62-.977 6.62-.977s-1.844 3.612-4.432 5.014M19.198 6.267c1.587 2.48 1.492 4.237.424 4.921-1.069.683-2.705.034-4.29-2.445-1.588-2.479-1.456-6.533-1.456-6.533s3.736 1.578 5.322 4.057M16.602 44.177c2.53-1.504 4.284-1.35 4.932-.26.648 1.09-.055 2.704-2.585 4.208-2.531 1.504-6.577 1.24-6.577 1.24s1.7-3.684 4.23-5.188M6.87 29.773c2.906.465 4.155 1.706 3.955 2.958-.2 1.252-1.774 2.042-4.68 1.576C3.237 33.842.3 31.047.3 31.047s3.663-1.739 6.57-1.274M48.893 35.402c-2.81-.875-3.87-2.281-3.492-3.492.377-1.211 2.048-1.768 4.857-.893 2.81.876 5.32 4.062 5.32 4.062s-3.874 1.198-6.685.323M36.352 47.317c-2.1-2.063-2.4-3.798-1.511-4.703.889-.904 2.629-.636 4.729 1.427 2.099 2.062 2.875 6.043 2.875 6.043s-3.993-.704-6.093-2.767M41.196 32.892c-2.108 2.053-3.85 2.313-4.734 1.405-.886-.909-.579-2.642 1.53-4.696 2.108-2.053 6.105-2.74 6.105-2.74s-.793 3.977-2.901 6.031M32.841 29.892c-.256 2.932-1.404 4.267-2.667 4.156-1.264-.11-2.164-1.623-1.908-4.555.256-2.933 2.834-6.064 2.834-6.064s1.997 3.53 1.741 6.463M18.295 20.116c2.433 1.656 3.035 3.31 2.322 4.358-.714 1.049-2.474 1.094-4.907-.562-2.433-1.657-3.903-5.437-3.903-5.437s4.055-.016 6.488 1.64M20.738 35.465c2.87-.654 4.49.031 4.771 1.268.284 1.236-.883 2.556-3.753 3.21-2.87.653-6.639-.844-6.639-.844s2.75-2.981 5.62-3.634M31.5 15.52c.592 2.884-.128 4.49-1.37 4.746-1.242.255-2.537-.938-3.129-3.82-.593-2.885.984-6.62.984-6.62s2.922 2.811 3.514 5.694M44.64 22.556c-2.341 1.784-4.101 1.833-4.87.825-.768-1.009-.255-2.693 2.086-4.477 2.34-1.785 6.39-1.986 6.39-1.986s-1.265 3.854-3.606 5.638M18.107 26.017c2.94.108 4.33 1.188 4.284 2.456-.047 1.268-1.513 2.242-4.454 2.133-2.941-.109-6.197-2.526-6.197-2.526s3.426-2.17 6.367-2.063" transform="translate(30 29.5) translate(75 11.947)"/>
            <path fill="#B1B1B1" d="M23.752 13.819c-.062 2.942-1.119 4.35-2.387 4.323-1.268-.026-2.265-1.477-2.204-4.42.062-2.943 2.428-6.237 2.428-6.237s2.225 3.391 2.163 6.334" transform="translate(30 29.5) translate(75 11.947)"/>
            <path fill="#666" d="M46.472 31.848c-2.828.813-4.486.221-4.837-.998-.35-1.219.739-2.602 3.567-3.415 2.83-.814 6.677.47 6.677.47s-2.578 3.13-5.407 3.943M33.458 41.856c-2.627-1.327-3.438-2.89-2.867-4.02.572-1.133 2.311-1.406 4.938-.079 2.627 1.328 4.575 4.885 4.575 4.885s-4.018.542-6.646-.786" transform="translate(30 29.5) translate(75 11.947)"/>
            <path fill="#666" d="M24.047 38.808c2.796-2.972 5.192-3.438 6.472-2.232 1.28 1.204.96 3.624-1.836 6.595-2.797 2.971-8.29 4.164-8.29 4.164s.857-5.555 3.654-8.527M28.091 30.34c-.407 2.915-1.623 4.189-2.88 4.013-1.256-.175-2.076-1.733-1.669-4.649.408-2.915 3.145-5.907 3.145-5.907s1.811 3.628 1.404 6.543M11 17.868c2.435 1.653 3.04 3.306 2.328 4.355-.712 1.05-2.472 1.098-4.907-.554-2.437-1.653-3.914-5.43-3.914-5.43s4.055-.023 6.492 1.629M17.015 13.887c1.27 2.656.959 4.39-.186 4.936-1.144.546-2.688-.299-3.958-2.955s-.64-6.662-.64-6.662 3.514 2.026 4.784 4.681M36.666 13.19c-.462 2.907-1.7 4.157-2.954 3.958-1.252-.198-2.043-1.77-1.58-4.679.46-2.906 3.253-5.847 3.253-5.847s1.743 3.661 1.281 6.568M37.518 28.192c-2.367 1.749-4.128 1.772-4.882.753-.754-1.02-.216-2.696 2.152-4.446 2.367-1.75 6.419-1.891 6.419-1.891s-1.323 3.834-3.69 5.584M17.592 30.015c2.882-.602 4.491.113 4.75 1.355.259 1.242-.931 2.54-3.813 3.14-2.881.601-6.622-.965-6.622-.965s2.804-2.929 5.685-3.53M12.434 40.607c2.267-1.877 4.023-1.997 4.833-1.02.809.976.363 2.68-1.903 4.557-2.267 1.878-6.306 2.241-6.306 2.241s1.109-3.9 3.376-5.778" transform="translate(30 29.5) translate(75 11.947)"/>
            <path fill="#979797" d="M8.2 22.616c3.451.68 4.891 2.215 4.598 3.7-.292 1.488-2.206 2.364-5.658 1.685C3.69 27.32.3 23.858.3 23.858s4.45-1.921 7.9-1.242" transform="translate(30 29.5) translate(75 11.947)"/>
            <path fill="#B1B1B1" d="M38.41 9.94c-1.629 3.117-3.509 4.062-4.853 3.361-1.342-.702-1.64-2.785-.01-5.902 1.628-3.118 5.91-5.388 5.91-5.388s.581 4.812-1.047 7.93M25.12 7.93c.05 3.518-1.154 5.243-2.669 5.265-1.516.022-2.769-1.668-2.819-5.186-.05-3.517 2.635-7.55 2.635-7.55s2.801 3.954 2.852 7.471M12.286 26.71c3.367 1.02 4.646 2.69 4.207 4.142-.439 1.45-2.43 2.13-5.797 1.112-3.366-1.02-6.395-4.803-6.395-4.803s4.62-1.47 7.985-.45M21.947 17.63c2.282 2.678 2.456 4.774 1.303 5.758-1.154.982-3.198.48-5.48-2.197-2.281-2.675-2.785-7.496-2.785-7.496s4.68 1.258 6.962 3.936M44.625 17.776c-2.557 2.415-4.643 2.695-5.683 1.593-1.04-1.102-.642-3.167 1.914-5.583 2.558-2.415 7.346-3.163 7.346-3.163s-1.019 4.737-3.577 7.153M32.718 23.534c.269 3.508-.826 5.305-2.338 5.42-1.511.116-2.866-1.494-3.134-5.001-.268-3.507 2.163-7.7 2.163-7.7s3.04 3.774 3.309 7.28M38.176 31.516c-3.358 1.045-5.354.38-5.806-1.066-.45-1.448.816-3.128 4.174-4.174 3.359-1.046 7.988.386 7.988.386s-2.998 3.808-6.356 4.854M44.014 37.53c-3.214-1.431-4.274-3.247-3.658-4.632.616-1.385 2.677-1.812 5.889-.382 3.214 1.43 5.748 5.562 5.748 5.562s-4.766.883-7.98-.548" transform="translate(30 29.5) translate(75 11.947)"/>
            <path fill="#B1B1B1" d="M33.621 38.239c-2.797-2.133-3.41-4.146-2.49-5.351.918-1.205 3.021-1.146 5.818.987 2.797 2.133 4.31 6.736 4.31 6.736s-4.84-.24-7.638-2.372M29.54 46.068c-1.803-3.021-1.623-5.117-.32-5.894 1.3-.775 3.23.062 5.032 3.083 1.802 3.021 1.492 7.858 1.492 7.858s-4.403-2.026-6.205-5.047M20.85 45.239c1.445-3.208 3.267-4.262 4.648-3.64 1.382.622 1.8 2.684.358 5.892-1.443 3.208-5.585 5.725-5.585 5.725s-.863-4.77.58-7.977M18.098 31.827c3.212-1.434 5.272-1.01 5.89.375.618 1.385-.442 3.202-3.654 4.636-3.212 1.434-7.978.556-7.978.556s2.529-4.133 5.742-5.567M16.04 22.948c2.883 2.016 3.58 4 2.711 5.243-.868 1.242-2.973 1.27-5.856-.745-2.882-2.016-4.584-6.554-4.584-6.554s4.846.04 7.73 2.056" transform="translate(30 29.5) translate(75 11.947)"/>
            <path fill="#B1B1B1" d="M27.229 27.379c2.004 2.89 1.967 4.994.722 5.857-1.246.864-3.23.16-5.233-2.731-2.004-2.891-2.024-7.737-2.024-7.737s4.53 1.72 6.535 4.61" transform="translate(30 29.5) translate(75 11.947)"/>
            <path fill="#CACACA" d="M36.086 17.971c-1.473 2.335-3.004 2.955-4.01 2.32-1.006-.634-1.106-2.283.366-4.618 1.473-2.335 4.968-3.838 4.968-3.838s.15 3.801-1.324 6.136M26.875 12.154c.568 2.701-.1 4.212-1.264 4.457-1.164.244-2.383-.869-2.952-3.57-.568-2.702.894-6.214.894-6.214s2.754 2.625 3.322 5.327M17.298 9.583c1.401 2.379 1.252 4.023.228 4.627-1.025.604-2.537-.061-3.939-2.44-1.402-2.377-1.139-6.172-1.139-6.172s3.448 1.607 4.85 3.985M15.661 16.504c2.091 1.802 2.478 3.407 1.7 4.309-.776.9-2.42.755-4.513-1.046-2.09-1.803-3.059-5.482-3.059-5.482s3.781.416 5.872 2.219M20.4 23.404c2.75-.224 4.166.629 4.263 1.814.095 1.186-1.162 2.255-3.914 2.479-2.751.225-6.051-1.668-6.051-1.668s2.95-2.401 5.702-2.625M27.68 32.85c2.753-.224 4.167.63 4.264 1.814.096 1.186-1.161 2.255-3.913 2.48-2.752.224-6.052-1.669-6.052-1.669s2.95-2.4 5.702-2.625M10.689 32.025c2.752-.224 4.166.63 4.263 1.814.096 1.186-1.162 2.255-3.913 2.48-2.752.224-6.052-1.669-6.052-1.669s2.95-2.4 5.702-2.625M41.176 24.412c-2.041 1.859-3.682 2.05-4.482 1.17-.802-.88-.46-2.494 1.581-4.354 2.041-1.86 5.808-2.378 5.808-2.378s-.867 3.703-2.907 5.562M38.328 34.292c-2.04 1.858-3.68 2.049-4.482 1.17-.8-.88-.459-2.495 1.582-4.355 2.04-1.86 5.808-2.378 5.808-2.378s-.867 3.704-2.908 5.563" transform="translate(30 29.5) translate(75 11.947)"/>
            <path fill="#CACACA" d="M33.862 13.936c-.456 2.724-1.628 3.887-2.802 3.69-1.172-.196-1.901-1.677-1.447-4.4.457-2.724 3.099-5.46 3.099-5.46s1.605 3.447 1.15 6.17M21.702 12.612c.765 2.652.21 4.208-.934 4.537-1.142.33-2.44-.691-3.205-3.344C16.8 11.152 18 7.543 18 7.543s2.937 2.417 3.702 5.069M19.647 38.513c1.972-1.933 3.604-2.182 4.437-1.332.833.85.549 2.477-1.422 4.41-1.973 1.931-5.72 2.586-5.72 2.586s.733-3.732 2.705-5.664M32.868 42.168c-1.307-2.433-1.092-4.07-.044-4.633 1.048-.562 2.532.162 3.838 2.595 1.307 2.432.893 6.213.893 6.213s-3.38-1.743-4.687-4.175M40.176 44.93c-1.743-2.14-1.843-3.789-.92-4.54.922-.752 2.517-.32 4.26 1.82 1.743 2.14 2.054 5.931 2.054 5.931s-3.65-1.07-5.394-3.21M47.97 22.006c-2.651.77-4.208.216-4.54-.927-.33-1.142.689-2.442 3.34-3.21 2.652-.768 6.263.428 6.263.428s-2.412 2.94-5.063 3.71" transform="translate(30 29.5) translate(75 11.947)"/>
            <path fill="#B1B1B1" d="M13.373 37.856c3.478-.524 5.35.437 5.576 1.935.226 1.5-1.28 2.967-4.759 3.492-3.478.523-7.838-1.595-7.838-1.595s3.542-3.309 7.021-3.832" transform="translate(30 29.5) translate(75 11.947)"/>
            <path fill="#FF7A79" d="M27.85 9.473c-.666-.97-2.88-1.919-4.067-1.739-.078.763.954 1.94 1.426 2.502.226.268 1.077.763 1.156 1.111.15.663-1.452 1.667-1.844 2.074-.381.397-.9.766-1.068 1.286.488.07.899-.113 1.369-.218.618-.139 1.239-.066 1.847-.173.532-.094 1.28-.427 1.702-.693.374.874.976 1.768 1.408 2.648.065.134.242.682.466.658.479-.053.556-2.046.58-2.473.027-.46-.127-1.52.068-1.943.247-.535 1.368-.749 1.893-.937.564-.204 1.758-.42 2.173-.819.138-.133.427-.862.345-1.024-.38-.758-3.553-.03-4.265-.068.413-.622.735-1.228 1.052-1.903.303-.642.96-1.636.992-2.355.036-.772-.676-.724-1.192-.266-.803.712-1.36 1.78-2.177 2.537-.426.395-.968.823-1.216 1.342l-.647.453z" transform="translate(30 29.5) translate(75 11.947)"/>
            <path fill="#FF7A79" d="M27.203 11.07c-.066-1.506.354-3.077.871-4.437.422-.038.73 1.032.856 1.341.21.513.198 1.207.474 1.676.158.269.123.278.426.154.484-.198 1.06-.797 1.511-1.093.593-.39 1.442-.705 2.157-.603.081.639-.814 1.369-1.244 1.737-.226.193-.96.642-1.049.956-.117.415.587 1.266.788 1.663.246.486.53.953.56 1.492-.746.119-1.76-.677-2.532-.765-.457-.052-.875.043-1.3.098-.37 1.403-1.15 2.197-2.15 3.22-.095-.623-.148-1.281-.18-1.911-.02-.395.096-.944-.008-1.331-.175-.649-1.368-.977-1.939-1.302-.687-.392-.283-.62.4-.811.57-.159 1.076-.12 1.626-.04l.733-.044z" transform="translate(30 29.5) translate(75 11.947)"/>
            <path fill="#FF7A79" d="M28.197 10.25c-.325-.62-1.488-1.361-2.195-1.376.027 1.125 1.34 2.212 1.152 3.398-.605.035-.979.06-1.538.364-.601.324-1.11.844-1.648 1.23.974.1 2.189-.1 3.145-.302.37-.077.65-.181 1.02-.051.855.3 1.338 1.618 1.913 2.299.06-.87-.034-1.64.157-2.501.088-.4.137-.876.422-1.195.363-.403.959-.47 1.456-.636.75-.25 1.78-.527 2.447-.894-.608-.564-1.963-1.001-2.826-1.025-.458-.014-.513.08-.72-.26-.21-.343-.213-.977-.342-1.377-.986-.083-1.695 1.199-2.358 1.723l-.085.604z" transform="translate(30 29.5) translate(75 11.947)"/>
            <path fill="#FF7A79" d="M29.966 10.38c-.151-.468-1-1.53-1.505-1.68.021.564-.075 1.855-.692 2.067-.344.119-1.815-.244-1.464.538.268.598 1.269.84 1.085 1.664-.079.35-.311.575-.316.96-.005.386.131.52.265.846.281.016.467-.42.65-.629.319-.36.666-.69 1.049-.982.349-.265.64-.448 1.097-.357.272.053.771.438 1.03.255.382-.272.08-1.667.06-1.974-.042-.623.041-.673.418-1.087.156-.171.641-.873.484-1.133-.257-.423-2.284.912-2.161 1.511M12.106 23.674c-.54-.787-2.333-1.555-3.296-1.41-.063.62.774 1.573 1.156 2.027.183.218.872.619.936.901.122.538-1.177 1.35-1.493 1.68-.31.322-.73.62-.866 1.041.396.058.729-.091 1.109-.177.5-.111 1.004-.053 1.497-.14.43-.075 1.037-.346 1.378-.56.303.707.79 1.431 1.14 2.144.054.11.198.555.378.535.389-.043.452-1.659.47-2.003.023-.375-.102-1.233.056-1.575.2-.434 1.108-.608 1.533-.76.458-.165 1.425-.341 1.762-.663.11-.107.344-.698.279-.83-.308-.614-2.88-.024-3.456-.055.335-.505.596-.995.853-1.543.245-.52.778-1.325.803-1.908.029-.625-.548-.585-.966-.215-.65.576-1.101 1.442-1.763 2.056-.345.32-.785.668-.986 1.087l-.524.367z" transform="translate(30 29.5) translate(75 11.947)"/>
            <path fill="#FF7A79" d="M11.581 24.967c-.054-1.22.286-2.494.706-3.596.342-.03.591.836.692 1.087.17.415.162.978.385 1.358.13.217.1.225.346.125.392-.16.857-.646 1.224-.886.48-.316 1.168-.57 1.748-.488.065.517-.66 1.11-1.009 1.407-.182.156-.779.52-.85.775-.095.336.477 1.026.64 1.347.198.393.43.771.452 1.208-.604.098-1.425-.548-2.05-.619-.37-.042-.71.034-1.055.08-.299 1.137-.93 1.78-1.74 2.608-.078-.505-.122-1.038-.147-1.548-.017-.32.078-.765-.006-1.078-.143-.527-1.109-.793-1.57-1.055-.559-.318-.23-.502.323-.658.461-.129.872-.097 1.316-.032l.595-.035z" transform="translate(30 29.5) translate(75 11.947)"/>
            <path fill="#FF7A79" d="M12.386 24.302c-.264-.503-1.205-1.103-1.778-1.115.023.911 1.087 1.792.933 2.754-.49.027-.793.048-1.246.294-.487.262-.898.684-1.336.998.79.08 1.775-.083 2.55-.245.299-.064.525-.148.825-.042.693.242 1.085 1.31 1.55 1.862.05-.704-.026-1.328.128-2.027.07-.323.11-.709.342-.967.294-.327.776-.38 1.178-.515.609-.202 1.444-.428 1.984-.725-.492-.457-1.591-.81-2.29-.832-.371-.01-.415.067-.583-.21-.17-.277-.173-.79-.278-1.115-.797-.067-1.373.972-1.91 1.396l-.07.49z" transform="translate(30 29.5) translate(75 11.947)"/>
            <path fill="#FF7A79" d="M13.82 24.408c-.123-.378-.81-1.24-1.22-1.361.017.456-.06 1.503-.56 1.674-.28.096-1.47-.198-1.186.436.218.484 1.029.68.879 1.348-.065.285-.253.466-.257.777-.005.314.107.423.215.688.228.012.378-.341.526-.51.258-.293.54-.56.85-.796.284-.216.52-.363.89-.29.22.044.624.355.834.206.31-.22.066-1.35.048-1.6-.034-.504.034-.545.338-.88.128-.138.521-.707.393-.918-.207-.341-1.85.74-1.75 1.226M30.96 30.73c-.48-.7-2.078-1.386-2.936-1.256-.055.551.69 1.4 1.03 1.805.163.193.777.551.834.802.108.478-1.048 1.202-1.33 1.496-.276.286-.65.552-.772.928.353.05.65-.082.988-.158.447-.1.894-.048 1.333-.125.383-.067.924-.307 1.227-.499.27.631.705 1.275 1.017 1.91.046.096.174.492.336.475.345-.038.401-1.477.42-1.784.017-.333-.094-1.097.046-1.402.18-.386.988-.54 1.367-.676.407-.147 1.268-.303 1.568-.59.1-.096.308-.622.248-.74-.273-.546-2.563-.02-3.077-.048.298-.449.53-.887.76-1.373.217-.463.692-1.18.715-1.7.026-.556-.488-.522-.86-.192-.579.514-.98 1.285-1.57 1.831-.307.284-.699.594-.877.968l-.467.327z" transform="translate(30 29.5) translate(75 11.947)"/>
            <path fill="#FF7A79" d="M30.492 31.881c-.047-1.087.255-2.22.63-3.201.303-.027.524.744.616.968.15.37.144.87.342 1.209.114.194.09.2.308.11.35-.142.763-.573 1.09-.787.427-.282 1.04-.51 1.555-.436.06.46-.587.989-.897 1.253-.163.14-.693.462-.757.69-.084.3.425.913.57 1.2.176.35.382.687.401 1.075-.536.086-1.268-.488-1.825-.552-.33-.036-.63.033-.938.072-.267 1.011-.829 1.584-1.55 2.322-.068-.449-.107-.924-.13-1.378-.016-.285.07-.681-.006-.96-.127-.468-.987-.706-1.399-.94-.496-.283-.204-.447.29-.584.41-.116.775-.087 1.171-.03l.53-.03z" transform="translate(30 29.5) translate(75 11.947)"/>
            <path fill="#FF7A79" d="M31.21 31.29c-.235-.448-1.074-.982-1.584-.993.021.81.967 1.596.831 2.452-.436.023-.706.043-1.11.26-.433.235-.8.61-1.189.89.703.072 1.58-.074 2.27-.218.266-.056.468-.132.735-.038.616.216.966 1.168 1.38 1.659.044-.627-.023-1.183.113-1.805.064-.288.1-.632.305-.861.262-.291.691-.34 1.05-.458.541-.181 1.284-.381 1.765-.646-.438-.406-1.416-.722-2.039-.74-.33-.01-.369.059-.519-.188-.15-.247-.154-.704-.246-.993-.71-.06-1.224.866-1.7 1.242l-.063.437z" transform="translate(30 29.5) translate(75 11.947)"/>
            <path fill="#FF7A79" d="M32.486 31.383c-.11-.336-.721-1.104-1.085-1.211.014.405-.055 1.337-.5 1.49-.248.085-1.31-.175-1.056.389.194.431.915.605.783 1.2-.058.253-.224.413-.229.692-.004.279.095.377.191.611.204.011.337-.303.47-.454.23-.26.48-.497.757-.708.252-.194.46-.324.79-.259.197.04.557.316.743.184.276-.196.058-1.203.044-1.424-.03-.448.03-.486.302-.784.111-.123.462-.63.349-.818-.186-.303-1.648.66-1.56 1.091M42.736 23.133c-.48-.7-2.078-1.384-2.935-1.255-.056.552.688 1.4 1.03 1.805.162.194.775.55.833.802.108.479-1.047 1.203-1.33 1.495-.276.287-.65.552-.772.928.354.05.65-.082.988-.158.448-.099.895-.047 1.334-.125.383-.067.923-.306 1.227-.498.27.63.705 1.276 1.017 1.91.045.097.172.492.336.475.345-.038.4-1.477.418-1.784.019-.333-.093-1.098.047-1.402.18-.386.988-.54 1.367-.677.407-.146 1.269-.303 1.569-.59.099-.096.306-.622.247-.74-.273-.546-2.563-.02-3.077-.046.299-.45.53-.889.76-1.375.218-.462.692-1.18.715-1.7.026-.556-.487-.52-.86-.19-.578.514-.98 1.284-1.57 1.83-.306.284-.698.595-.877.967l-.468.328z" transform="translate(30 29.5) translate(75 11.947)"/>
            <path fill="#FF7A79" d="M42.269 24.285c-.048-1.087.255-2.221.628-3.201.305-.028.526.744.618.967.15.37.143.87.342 1.21.114.193.089.2.308.11.348-.143.763-.574 1.089-.788.428-.281 1.04-.51 1.556-.436.059.462-.587.989-.897 1.254-.163.139-.694.463-.757.69-.084.299.424.913.569 1.199.177.35.383.687.402 1.076-.537.087-1.268-.487-1.825-.552-.33-.037-.631.032-.938.072-.267 1.012-.83 1.584-1.551 2.323-.067-.45-.106-.925-.13-1.38-.015-.284.07-.68-.006-.96-.126-.468-.986-.704-1.398-.938-.496-.284-.204-.448.289-.585.41-.116.776-.087 1.172-.03l.529-.031z" transform="translate(30 29.5) translate(75 11.947)"/>
            <path fill="#FF7A79" d="M42.986 23.693c-.234-.448-1.073-.982-1.584-.993.02.811.968 1.596.83 2.452-.434.024-.704.043-1.108.262-.434.234-.8.609-1.19.888.703.072 1.58-.073 2.27-.218.267-.056.468-.131.736-.037.616.215.965 1.167 1.38 1.658.044-.627-.023-1.182.112-1.805.064-.288.1-.632.305-.861.261-.291.69-.339 1.05-.458.541-.18 1.285-.381 1.766-.646-.438-.406-1.416-.721-2.04-.74-.33-.01-.368.059-.518-.188-.151-.247-.154-.704-.246-.993-.712-.059-1.224.866-1.702 1.243l-.061.436z" transform="translate(30 29.5) translate(75 11.947)"/>
            <path fill="#FF7A79" d="M44.262 23.787c-.11-.337-.721-1.104-1.085-1.212.014.406-.055 1.338-.5 1.49-.248.086-1.31-.175-1.056.389.194.432.915.606.783 1.2-.057.254-.225.415-.228.693-.004.278.095.376.19.61.205.013.337-.302.47-.453.23-.26.48-.497.756-.708.253-.193.462-.324.792-.26.196.04.556.318.743.185.276-.196.058-1.203.043-1.423-.03-.45.029-.487.302-.784.112-.124.463-.631.349-.818-.186-.305-1.648.658-1.56 1.09" transform="translate(30 29.5) translate(75 11.947)"/>
        </g>
        <g transform="translate(30 29.5) translate(244 170.947)">
            <mask id="prefix__k" fill="#fff">
                <use xlink:href="#prefix__i"/>
            </mask>
            <path fill="url(#prefix__j)" d="M17.85.538H3.41s-5.734 9.023 0 18.355c0 1.511 6.456 4.307 14.418 4.307 7.962 0 14.417-2.796 14.417-4.307h.044c5.736-9.332 0-18.355 0-18.355H17.85z" mask="url(#prefix__k)"/>
        </g>
        <g transform="translate(30 29.5) translate(247 166.947)">
            <mask id="prefix__n" fill="#fff">
                <use xlink:href="#prefix__l"/>
            </mask>
            <path fill="url(#prefix__m)" d="M.41 4.538c0 2.064 6.456 3.738 14.418 3.738 7.962 0 14.417-1.674 14.417-3.738 0-2.065-6.455-3.739-14.417-3.739S.41 2.473.41 4.538" mask="url(#prefix__n)"/>
        </g>
        <g transform="translate(30 29.5) translate(176 54.947)">
            <mask id="prefix__q" fill="#fff">
                <use xlink:href="#prefix__o"/>
            </mask>
            <path fill="url(#prefix__p)" d="M17.956.208H3.517s-5.734 9.024 0 18.356c0 1.512 6.454 4.307 14.417 4.307 7.962 0 14.417-2.795 14.417-4.307h.045c5.734-9.332 0-18.356 0-18.356h-14.44z" mask="url(#prefix__q)"/>
        </g>
        <g transform="translate(30 29.5) translate(179 50.947)">
            <mask id="prefix__t" fill="#fff">
                <use xlink:href="#prefix__r"/>
            </mask>
            <path fill="url(#prefix__s)" d="M.517 4.208c0 2.065 6.454 3.739 14.417 3.739 7.962 0 14.417-1.674 14.417-3.739 0-2.063-6.455-3.737-14.417-3.737C6.971.471.517 2.145.517 4.208" mask="url(#prefix__t)"/>
        </g>
        <g transform="translate(30 29.5) translate(179 174.947)">
            <mask id="prefix__w" fill="#fff">
                <use xlink:href="#prefix__u"/>
            </mask>
            <path fill="url(#prefix__v)" d="M17.753.207H3.314s-5.735 9.023 0 18.354c0 1.512 6.455 4.307 14.417 4.307s14.417-2.795 14.417-4.307h.044c5.735-9.331 0-18.354 0-18.354H17.753z" mask="url(#prefix__w)"/>
        </g>
        <g transform="translate(30 29.5) translate(182 170.947)">
            <mask id="prefix__z" fill="#fff">
                <use xlink:href="#prefix__x"/>
            </mask>
            <path fill="url(#prefix__y)" d="M.314 4.207c0 2.064 6.455 3.737 14.417 3.737s14.417-1.673 14.417-3.737S22.693.468 14.731.468.314 2.143.314 4.207" mask="url(#prefix__z)"/>
        </g>
        <g transform="translate(30 29.5) translate(121 113.947)">
            <mask id="prefix__C" fill="#fff">
                <use xlink:href="#prefix__A"/>
            </mask>
            <path fill="url(#prefix__B)" d="M17.18.546H2.74s-5.734 9.024 0 18.356c0 1.512 6.456 4.307 14.417 4.307 7.962 0 14.417-2.795 14.417-4.307h.045c5.735-9.332 0-18.356 0-18.356H17.18z" mask="url(#prefix__C)"/>
        </g>
        <g transform="translate(30 29.5) translate(123 109.947)">
            <mask id="prefix__F" fill="#fff">
                <use xlink:href="#prefix__D"/>
            </mask>
            <path fill="url(#prefix__E)" d="M.74 4.546c0 2.065 6.455 3.739 14.417 3.739s14.417-1.674 14.417-3.739c0-2.064-6.455-3.737-14.417-3.737S.74 2.482.74 4.546" mask="url(#prefix__F)"/>
        </g>
        <g transform="translate(30 29.5) translate(304 126.947)">
            <mask id="prefix__I" fill="#fff">
                <use xlink:href="#prefix__G"/>
            </mask>
            <path fill="url(#prefix__H)" d="M17.796.863H3.356s-5.734 9.023 0 18.354c0 1.512 6.456 4.308 14.417 4.308 7.963 0 14.417-2.796 14.417-4.308h.046c5.734-9.331 0-18.354 0-18.354h-14.44z" mask="url(#prefix__I)"/>
        </g>
        <g transform="translate(30 29.5) translate(307 123.947)">
            <mask id="prefix__L" fill="#fff">
                <use xlink:href="#prefix__J"/>
            </mask>
            <path fill="url(#prefix__K)" d="M.356 3.863c0 2.064 6.455 3.738 14.417 3.738 7.963 0 14.417-1.674 14.417-3.738S22.736.125 14.773.125C6.811.125.356 1.799.356 3.863" mask="url(#prefix__L)"/>
        </g>
        <g transform="translate(30 29.5) translate(288 175.947)">
            <mask id="prefix__O" fill="#fff">
                <use xlink:href="#prefix__M"/>
            </mask>
            <path fill="url(#prefix__N)" d="M3.681 2.458c-4.342 2.506-4.342 6.571 0 9.078 4.342 2.507 11.381 2.507 15.725 0 4.341-2.507 4.341-6.572 0-9.078C17.234 1.204 14.388.577 11.543.577c-2.846 0-5.691.627-7.862 1.881" mask="url(#prefix__O)"/>
        </g>
        <path fill="#1A1A1A" d="M307.406 177.285c4.341 2.507 4.341 6.57 0 9.079-4.344 2.507-11.384 2.507-15.726 0-4.341-2.508-4.341-6.572 0-9.08 4.342-2.506 11.382-2.506 15.726 0" transform="translate(30 29.5)"/>
        <g transform="translate(30 29.5) translate(296 178.947)">
            <mask id="prefix__R" fill="#fff">
                <use xlink:href="#prefix__P"/>
            </mask>
            <path fill="url(#prefix__Q)" d="M1.097 1.465c-1.351.78-1.351 2.045 0 2.824 1.35.78 3.541.78 4.892 0 1.35-.779 1.35-2.044 0-2.824C5.313 1.075 4.428.88 3.543.88c-.886 0-1.771.195-2.446.585" mask="url(#prefix__R)"/>
        </g>
        <g transform="translate(30 29.5) translate(296 178.947)">
            <mask id="prefix__U" fill="#fff">
                <use xlink:href="#prefix__S"/>
            </mask>
            <path fill="url(#prefix__T)" d="M1.097.587c-1.351.781-1.351 2.044 0 2.825 1.35.78 3.541.78 4.892 0 1.35-.781 1.35-2.044 0-2.825C5.313.197 4.428.002 3.543.002c-.886 0-1.771.195-2.446.585" mask="url(#prefix__U)"/>
        </g>
        <g transform="translate(30 29.5) translate(298 157.947)">
            <mask id="prefix__X" fill="#fff">
                <use xlink:href="#prefix__V"/>
            </mask>
            <path fill="url(#prefix__W)" d="M.552.734v21.731H.56c.018.351.109.694.282.962.386.6 1.015.6 1.402 0 .173-.268.264-.611.282-.962h.007V.734H.552z" mask="url(#prefix__X)"/>
        </g>
        <g transform="translate(30 29.5) translate(277 143.947)">
            <mask id="prefix__aa" fill="#fff">
                <use xlink:href="#prefix__Y"/>
            </mask>
            <path fill="url(#prefix__Z)" d="M6.808 3.878c-8.691 5.017-8.691 13.152 0 18.17 8.69 5.017 22.78 5.017 31.47 0 8.69-5.018 8.69-13.153 0-18.17C33.933 1.369 28.238.115 22.543.115S11.153 1.369 6.808 3.878" mask="url(#prefix__aa)"/>
        </g>
        <path fill="#E5E5E5" d="M315.279 146.548c8.688 5.018 8.688 13.152 0 18.17-8.69 5.017-22.78 5.017-31.471 0-8.69-5.018-8.69-13.152 0-18.17 8.69-5.018 22.78-5.018 31.47 0" transform="translate(30 29.5)"/>
        <g transform="translate(30 29.5) translate(220 93.947)">
            <mask id="prefix__ad" fill="#fff">
                <use xlink:href="#prefix__ab"/>
            </mask>
            <path fill="url(#prefix__ac)" d="M3.964 2.487c-4.342 2.507-4.342 6.573 0 9.079 4.342 2.507 11.382 2.507 15.725 0 4.342-2.506 4.342-6.572 0-9.079-2.172-1.253-5.018-1.88-7.863-1.88-2.846 0-5.691.627-7.862 1.88" mask="url(#prefix__ad)"/>
        </g>
        <path fill="#1A1A1A" d="M239.689 95.314c4.342 2.508 4.342 6.572 0 9.079-4.343 2.507-11.383 2.507-15.725 0-4.342-2.507-4.342-6.571 0-9.08 4.342-2.506 11.382-2.506 15.725 0" transform="translate(30 29.5)"/>
        <g transform="translate(30 29.5) translate(228 96.947)">
            <mask id="prefix__ag" fill="#fff">
                <use xlink:href="#prefix__ae"/>
            </mask>
            <path fill="url(#prefix__af)" d="M1.38 1.495c-1.351.779-1.351 2.044 0 2.824 1.35.779 3.541.779 4.892 0 1.351-.78 1.351-2.045 0-2.824-.676-.39-1.561-.586-2.446-.586-.886 0-1.771.196-2.446.586" mask="url(#prefix__ag)"/>
        </g>
        <g transform="translate(30 29.5) translate(228 96.947)">
            <mask id="prefix__aj" fill="#fff">
                <use xlink:href="#prefix__ah"/>
            </mask>
            <path fill="url(#prefix__ai)" d="M1.38.618c-1.351.78-1.351 2.044 0 2.824 1.35.78 3.541.78 4.892 0 1.351-.78 1.351-2.044 0-2.824C5.596.228 4.711.033 3.826.033c-.886 0-1.771.195-2.446.585" mask="url(#prefix__aj)"/>
        </g>
        <g transform="translate(30 29.5) translate(230 75.947)">
            <mask id="prefix__am" fill="#fff">
                <use xlink:href="#prefix__ak"/>
            </mask>
            <path fill="url(#prefix__al)" d="M.836.763V22.495h.007c.018.351.11.694.282.963.388.598 1.015.598 1.402 0 .173-.269.264-.612.283-.963h.007V.763H.836z" mask="url(#prefix__am)"/>
        </g>
        <g transform="translate(30 29.5) translate(209 61.947)">
            <mask id="prefix__ap" fill="#fff">
                <use xlink:href="#prefix__an"/>
            </mask>
            <path fill="url(#prefix__ao)" d="M7.091 3.908c-8.691 5.016-8.691 13.152 0 18.17 8.69 5.017 22.781 5.017 31.471 0 8.691-5.018 8.691-13.154 0-18.17C34.217 1.399 28.522.144 22.826.144c-5.695 0-11.39 1.255-15.735 3.764" mask="url(#prefix__ap)"/>
        </g>
        <path fill="#E5E5E5" d="M247.562 64.578c8.69 5.017 8.69 13.151 0 18.17-8.69 5.016-22.78 5.016-31.471 0-8.69-5.019-8.69-13.153 0-18.17 8.69-5.019 22.78-5.019 31.47 0" transform="translate(30 29.5)"/>
        <g transform="translate(30 29.5) translate(166 156.947)">
            <mask id="prefix__as" fill="#fff">
                <use xlink:href="#prefix__aq"/>
            </mask>
            <path fill="url(#prefix__ar)" d="M4.093 2.629c-4.342 2.506-4.342 6.571 0 9.077 4.343 2.509 11.383 2.509 15.725 0 4.342-2.506 4.342-6.571 0-9.077C17.647 1.375 14.801.748 11.956.748c-2.846 0-5.692.627-7.863 1.881" mask="url(#prefix__as)"/>
        </g>
        <path fill="#1A1A1A" d="M185.818 158.456c4.343 2.507 4.343 6.57 0 9.079-4.342 2.507-11.382 2.507-15.725 0-4.341-2.508-4.341-6.572 0-9.08 4.343-2.507 11.383-2.507 15.725 0" transform="translate(30 29.5)"/>
        <g transform="translate(30 29.5) translate(174 160.947)">
            <mask id="prefix__av" fill="#fff">
                <use xlink:href="#prefix__at"/>
            </mask>
            <path fill="url(#prefix__au)" d="M1.51.635c-1.351.78-1.351 2.045 0 2.824 1.351.781 3.541.781 4.891 0 1.351-.779 1.351-2.044 0-2.824-.675-.39-1.56-.584-2.445-.584-.885 0-1.771.194-2.446.584" mask="url(#prefix__av)"/>
        </g>
        <g transform="translate(30 29.5) translate(174 159.947)">
            <mask id="prefix__ay" fill="#fff">
                <use xlink:href="#prefix__aw"/>
            </mask>
            <path fill="url(#prefix__ax)" d="M1.51.758c-1.351.781-1.351 2.045 0 2.825 1.351.78 3.541.78 4.891 0 1.351-.78 1.351-2.044 0-2.825C5.726.369 4.841.174 3.956.174c-.885 0-1.771.195-2.446.584" mask="url(#prefix__ay)"/>
        </g>
        <g transform="translate(30 29.5) translate(176 138.947)">
            <mask id="prefix__aB" fill="#fff">
                <use xlink:href="#prefix__az"/>
            </mask>
            <path fill="url(#prefix__aA)" d="M.965.905v21.73h.006c.019.352.11.695.284.963.387.599 1.013.599 1.401 0 .173-.268.265-.611.283-.963h.007V.905H.965z" mask="url(#prefix__aB)"/>
        </g>
        <g transform="translate(30 29.5) translate(155 124.947)">
            <mask id="prefix__aE" fill="#fff">
                <use xlink:href="#prefix__aC"/>
            </mask>
            <path fill="url(#prefix__aD)" d="M7.22 4.049c-8.691 5.017-8.691 13.152 0 18.169 8.69 5.018 22.78 5.018 31.471 0 8.69-5.017 8.69-13.152 0-18.169C34.346 1.54 28.65.286 22.955.286S11.565 1.54 7.22 4.049" mask="url(#prefix__aE)"/>
        </g>
        <path fill="#E5E5E5" d="M193.69 127.72c8.69 5.017 8.69 13.151 0 18.17-8.69 5.016-22.78 5.016-31.47 0-8.69-5.019-8.69-13.153 0-18.17 8.69-5.019 22.78-5.019 31.47 0" transform="translate(30 29.5)"/>
        <g transform="translate(30 29.5) translate(238 104.947)">
            <mask id="prefix__aH" fill="#fff">
                <use xlink:href="#prefix__aF"/>
            </mask>
            <path fill="url(#prefix__aG)" d="M17.963.299H3.524s-5.735 9.023 0 18.355c0 1.51 6.455 4.307 14.418 4.307 7.961 0 14.416-2.797 14.416-4.307h.044c5.736-9.332 0-18.355 0-18.355H17.963z" mask="url(#prefix__aH)"/>
        </g>
        <g transform="translate(30 29.5) translate(241 100.947)">
            <mask id="prefix__aK" fill="#fff">
                <use xlink:href="#prefix__aI"/>
            </mask>
            <path fill="url(#prefix__aJ)" d="M.524 4.299c0 2.064 6.455 3.737 14.418 3.737 7.961 0 14.416-1.673 14.416-3.737 0-2.065-6.455-3.739-14.416-3.739C6.979.56.524 2.234.524 4.299" mask="url(#prefix__aK)"/>
        </g>
    </g>
</svg>
