<svg xmlns="http://www.w3.org/2000/svg" xmlns:xlink="http://www.w3.org/1999/xlink" width="453" height="324" viewBox="0 0 453 324">
    <defs>
        <path id="prefix__b" d="M93.034 25.162c.052-.03.091-.074.138-.11.078.245.158.483.244.698-.214-.1-.423-.193-.625-.279-.024-.059-.05-.119-.076-.178.11-.035.218-.07.32-.13zm-3.894 7.572l-.09-.028c.006-.026.006-.056.012-.082l.078.11zm26.204-1.6c.033-.086.062-.17.094-.255.111.025.236.027.355.035-.15.07-.3.142-.449.22zm-17.45-1.988c-.068-.088-.134-.175-.207-.264.181-.1.352-.23.51-.404-.104.217-.205.44-.303.668zm1.326-2.535c-.102.164-.207.336-.315.525.07-.218.13-.453.181-.707.043.067.09.12.134.182zm7.692 3.738l-.07-.138.033-.074c.013.074.042.135.062.203l-.025.01zm-20.64 12.625c-.006-.014-.009-.03-.014-.044.055.015.103.024.158.04-.05.003-.094.001-.145.004zM394.058 179.55l-.008-.01.008-.003v-53.972l-41.923-46.413-4.14 1.52 42.406 46.213 1.984-.716-1.984.716-42.408-46.213v48.351L230.368.006 124.23 33.05c.115-.194.207-.36.283-.5 2.213-1.088 4.03-3.3 4.03-3.3s-2.64-.87-5.065-.644c.182-.446.278-.734.278-.734s-1.589.08-3.352.576c2.356-2.48 3.307-6.873 3.307-6.873s-3.105.488-5.65 1.938c1.396-1.527 2.275-3.246 2.275-3.246s-4.033-.426-6.62.976c.067-.12.135-.223.202-.35 1.63-3.117 1.047-7.928 1.047-7.928s-4.282 2.27-5.91 5.387c-.129.247-.225.474-.33.707-.118 0-.233 0-.352.015-.094-.225-.153-.354-.153-.354l-.022.022c-.018-.118-.024-.224-.048-.346-.03-.17-.073-.34-.117-.509.272-.514.54-1.075.56-1.527.034-.77-.678-.723-1.194-.265-.009.007-.015.017-.024.025-1.217-2.547-3.274-4.62-3.274-4.62s-1.267 2.835-1.449 5.741c-.783-1.024-1.483-1.7-1.483-1.7s-.36.856-.67 2.061c-.557-3.129-2.723-6.19-2.723-6.19s-2.242 3.376-2.587 6.644c-.139-.269-.297-.546-.482-.835-1.586-2.48-5.322-4.057-5.322-4.057s-.075 2.354.591 4.571c-1.089-.748-2.019-1.184-2.019-1.184s-.133 1.956.31 3.94c-.322-.213-.527-.33-.527-.33s-.285 1.828-.08 3.833c-2.295-2.515-6.54-3.798-6.54-3.798s.352 4.667 2.457 7.432c-1.86-.442-3.562-.436-3.562-.436s1.478 3.778 3.915 5.43c.104.071.201.121.302.187.06.125.123.26.194.405-.036.003-.076-.002-.108.004-.015.158.028.338.107.526-.236-.06-.458-.124-.716-.175-3.45-.679-7.9 1.242-7.9 1.242s1.908 1.95 4.318 3.21c-.197.056-.317.093-.317.093s1.07 1.331 2.64 2.627c-.026-.004-.046-.01-.07-.015C79.471 40.261 75.807 42 75.807 42s2.582 2.457 5.3 3.146c-.383.27-.613.456-.613.456s.528.301 1.333.65l-40.895 12.73L4.526 19.195.51 20.365 37.1 60.175.51 20.364v65.519l163.825 179.07 229.725-73.668V179.55z"/>
        <path id="prefix__c" d="M0.509 14.883L164.334 193.952 164.334 181.297 0.509 0.568z"/>
        <path id="prefix__f" d="M0.334 73.297L0.334 85.952 230.059 12.286 230.059 0.55z"/>
        <path id="prefix__i" d="M0.403 1.884L0.403 55.568 4.059 54.537 4.059 0.565z"/>
        <path id="prefix__k" d="M4.521 2.823c-5.599 3.233-5.599 8.474 0 11.707 5.599 3.232 14.677 3.232 20.276 0 5.599-3.233 5.599-8.474 0-11.707-2.8-1.617-6.469-2.425-10.138-2.425-3.669 0-7.339.808-10.138 2.425"/>
        <path id="prefix__n" d="M17.359.49H2.919s-5.735 9.024 0 18.356c0 1.51 6.455 4.306 14.418 4.306 7.962 0 14.417-2.796 14.417-4.306h.043c5.736-9.332 0-18.356 0-18.356H17.359z"/>
        <path id="prefix__q" d="M.919 4.49c0 2.065 6.455 3.739 14.418 3.739 7.962 0 14.417-1.674 14.417-3.739 0-2.064-6.455-3.738-14.417-3.738C7.374.752.919 2.426.919 4.49"/>
        <path id="prefix__t" d="M17.465.161H3.025s-5.734 9.023 0 18.355c0 1.512 6.456 4.307 14.417 4.307 7.962 0 14.417-2.795 14.417-4.307h.045c5.735-9.332 0-18.355 0-18.355H17.465z"/>
        <path id="prefix__w" d="M.025 4.161c0 2.064 6.455 3.738 14.417 3.738s14.417-1.674 14.417-3.738S22.404.424 14.442.424.025 2.097.025 4.161"/>
        <path id="prefix__z" d="M17.262.16H2.822s-5.734 9.021 0 18.353c0 1.512 6.455 4.308 14.417 4.308 7.963 0 14.417-2.796 14.417-4.308h.045c5.734-9.332 0-18.353 0-18.353H17.262z"/>
        <path id="prefix__C" d="M.822 4.16c0 2.063 6.455 3.736 14.417 3.736 7.963 0 14.417-1.673 14.417-3.736 0-2.065-6.454-3.739-14.417-3.739C7.277.421.822 2.095.822 4.16"/>
        <path id="prefix__F" d="M17.689.499H3.249s-5.735 9.023 0 18.355c0 1.512 6.455 4.307 14.417 4.307s14.417-2.795 14.417-4.307h.045c5.734-9.332 0-18.355 0-18.355H17.689z"/>
        <path id="prefix__I" d="M.249 4.499c0 2.064 6.454 3.738 14.417 3.738 7.962 0 14.417-1.674 14.417-3.738S22.628.762 14.666.762C6.703.762.249 2.435.249 4.499"/>
        <path id="prefix__L" d="M17.305.815H2.865s-5.734 9.024 0 18.355c0 1.512 6.455 4.307 14.418 4.307 7.961 0 14.416-2.795 14.416-4.307h.045c5.735-9.331 0-18.355 0-18.355H17.305z"/>
        <path id="prefix__O" d="M.865 3.815c0 2.065 6.454 3.739 14.418 3.739 7.961 0 14.416-1.674 14.416-3.739 0-2.064-6.455-3.738-14.416-3.738C7.319.077.865 1.751.865 3.815"/>
        <path id="prefix__R" d="M4.189 2.41c-4.342 2.507-4.342 6.571 0 9.079 4.342 2.506 11.383 2.506 15.725 0 4.342-2.508 4.342-6.572 0-9.079C17.743 1.156 14.897.529 12.051.529c-2.845 0-5.691.627-7.862 1.881"/>
        <path id="prefix__U" d="M1.605 1.417c-1.35.781-1.35 2.045 0 2.825 1.351.78 3.541.78 4.892 0 1.351-.78 1.351-2.044 0-2.825-.675-.389-1.561-.584-2.446-.584-.885 0-1.77.195-2.446.584"/>
        <path id="prefix__X" d="M1.605 1.54c-1.35.78-1.35 2.044 0 2.824 1.351.78 3.541.78 4.892 0 1.351-.78 1.351-2.044 0-2.824-.675-.39-1.561-.585-2.446-.585-.885 0-1.77.195-2.446.585"/>
        <path id="prefix__aa" d="M.061.687v21.73h.007c.018.351.11.694.283.963.387.6 1.014.6 1.401 0 .174-.269.264-.612.283-.963h.007V.687H.061z"/>
        <path id="prefix__ad" d="M7.316 3.83c-8.69 5.018-8.69 13.153 0 18.17 8.691 5.018 22.781 5.018 31.471 0 8.69-5.017 8.69-13.152 0-18.17C34.442 1.321 28.747.067 23.052.067S11.661 1.321 7.316 3.83"/>
        <path id="prefix__ag" d="M3.472 2.439c-4.342 2.508-4.342 6.573 0 9.08 4.342 2.506 11.383 2.506 15.725 0 4.342-2.507 4.342-6.572 0-9.08-2.171-1.253-5.017-1.88-7.863-1.88-2.845 0-5.691.627-7.862 1.88"/>
        <path id="prefix__aj" d="M1.889 1.447c-1.351.78-1.351 2.044 0 2.824 1.351.78 3.541.78 4.891 0 1.351-.78 1.351-2.044 0-2.824-.675-.39-1.56-.585-2.445-.585-.886 0-1.771.195-2.446.585"/>
        <path id="prefix__am" d="M1.889 1.571c-1.351.779-1.351 2.044 0 2.824 1.351.779 3.541.779 4.891 0 1.351-.78 1.351-2.045 0-2.824C6.105 1.18 5.22.985 4.335.985c-.886 0-1.771.195-2.446.586"/>
        <path id="prefix__ap" d="M.344.716v21.731h.008c.017.351.109.695.282.963.388.599 1.014.599 1.401 0 .174-.268.265-.612.283-.963h.009V.716H.344z"/>
        <path id="prefix__as" d="M6.599 3.86c-8.69 5.017-8.69 13.153 0 18.17 8.691 5.018 22.781 5.018 31.471 0 8.691-5.017 8.691-13.153 0-18.17C33.725 1.351 28.03.097 22.335.097S10.944 1.351 6.599 3.86"/>
        <path id="prefix__av" d="M3.602 2.581c-4.343 2.507-4.343 6.571 0 9.078 4.343 2.508 11.382 2.508 15.724 0 4.343-2.507 4.343-6.571 0-9.078C17.155 1.327 14.31.7 11.464.7c-2.845 0-5.691.627-7.862 1.881"/>
        <path id="prefix__ay" d="M1.018.588c-1.35.78-1.35 2.044 0 2.824 1.351.78 3.542.78 4.893 0 1.35-.78 1.35-2.044 0-2.824C5.235.198 4.35.003 3.464.003c-.885 0-1.77.195-2.446.585"/>
        <path id="prefix__aB" d="M1.018.711c-1.35.78-1.35 2.045 0 2.824 1.351.781 3.542.781 4.893 0 1.35-.779 1.35-2.044 0-2.824C5.235.321 4.35.126 3.464.126c-.885 0-1.77.195-2.446.585"/>
        <path id="prefix__aE" d="M.473.857v21.731h.008c.018.351.109.694.282.963.387.599 1.015.599 1.402 0 .173-.269.265-.612.282-.963h.008V.857H.473z"/>
        <path id="prefix__aH" d="M6.729 4.001c-8.691 5.018-8.691 13.152 0 18.17 8.69 5.018 22.78 5.018 31.47 0 8.69-5.018 8.69-13.152 0-18.17C33.854 1.493 28.159.238 22.464.238S11.074 1.493 6.729 4.001"/>
        <path id="prefix__aK" d="M17.472.251H3.032s-5.735 9.024 0 18.356c0 1.51 6.455 4.306 14.418 4.306 7.962 0 14.417-2.796 14.417-4.306h.044c5.735-9.332 0-18.356 0-18.356H17.472z"/>
        <path id="prefix__aN" d="M.032 4.251c0 2.065 6.455 3.738 14.418 3.738 7.962 0 14.417-1.673 14.417-3.738 0-2.064-6.455-3.738-14.417-3.738C6.487.513.032 2.187.032 4.251"/>
        <linearGradient id="prefix__d" x1="0%" x2="100%" y1="50%" y2="50%">
            <stop offset="0%" stop-color="#C10021"/>
            <stop offset="100%" stop-color="#F0233D"/>
        </linearGradient>
        <linearGradient id="prefix__g" x1="0%" x2="100%" y1="50%" y2="50%">
            <stop offset="0%" stop-color="#C10021"/>
            <stop offset="100%" stop-color="#F0233D"/>
        </linearGradient>
        <linearGradient id="prefix__l" x1="50%" x2="50%" y1=".002%" y2="99.998%">
            <stop offset="0%" stop-color="#A1A101"/>
            <stop offset="100%" stop-color="#EDD821"/>
        </linearGradient>
        <linearGradient id="prefix__o" x1=".002%" x2="100.001%" y1="50.001%" y2="50.001%">
            <stop offset="0%" stop-color="#C10021"/>
            <stop offset="100%" stop-color="#F0233D"/>
        </linearGradient>
        <linearGradient id="prefix__r" x1=".001%" x2="99.999%" y1="49.997%" y2="49.997%">
            <stop offset="0%" stop-color="#F0233D"/>
            <stop offset="100%" stop-color="#FF7979"/>
        </linearGradient>
        <linearGradient id="prefix__u" x1="0%" x2="99.999%" y1="50.002%" y2="50.002%">
            <stop offset="0%" stop-color="#C10021"/>
            <stop offset="100%" stop-color="#F0233D"/>
        </linearGradient>
        <linearGradient id="prefix__x" x1="0%" x2="100.001%" y1="49.999%" y2="49.999%">
            <stop offset="0%" stop-color="#F0233D"/>
            <stop offset="100%" stop-color="#FF7979"/>
        </linearGradient>
        <linearGradient id="prefix__A" x1="0%" x2="100.001%" y1="49.996%" y2="49.996%">
            <stop offset="0%" stop-color="#C10021"/>
            <stop offset="100%" stop-color="#F0233D"/>
        </linearGradient>
        <linearGradient id="prefix__D" x1=".001%" x2="100.002%" y1="50.003%" y2="50.003%">
            <stop offset="0%" stop-color="#F0233D"/>
            <stop offset="100%" stop-color="#FF7979"/>
        </linearGradient>
        <linearGradient id="prefix__G" x1="0%" x2="99.999%" y1="50.001%" y2="50.001%">
            <stop offset="0%" stop-color="#C10021"/>
            <stop offset="100%" stop-color="#F0233D"/>
        </linearGradient>
        <linearGradient id="prefix__J" x1="-.001%" x2="100%" y1="49.998%" y2="49.998%">
            <stop offset="0%" stop-color="#F0233D"/>
            <stop offset="100%" stop-color="#FF7979"/>
        </linearGradient>
        <linearGradient id="prefix__M" x1="-.001%" x2="99.999%" y1="50.001%" y2="50.001%">
            <stop offset="0%" stop-color="#C10021"/>
            <stop offset="100%" stop-color="#F0233D"/>
        </linearGradient>
        <linearGradient id="prefix__P" x1="0%" x2="100.001%" y1="49.999%" y2="49.999%">
            <stop offset="0%" stop-color="#F0233D"/>
            <stop offset="100%" stop-color="#FF7979"/>
        </linearGradient>
        <linearGradient id="prefix__S" x1="0%" x2="99.999%" y1="50.003%" y2="50.003%">
            <stop offset="0%" stop-color="gray"/>
            <stop offset="100%" stop-color="#666"/>
        </linearGradient>
        <linearGradient id="prefix__V" x1=".003%" x2="99.998%" y1="49.982%" y2="49.982%">
            <stop offset="0%" stop-color="gray"/>
            <stop offset="100%" stop-color="#666"/>
        </linearGradient>
        <linearGradient id="prefix__Y" x1=".003%" x2="99.998%" y1="50.004%" y2="50.004%">
            <stop offset="0%" stop-color="gray"/>
            <stop offset="100%" stop-color="#666"/>
        </linearGradient>
        <linearGradient id="prefix__ab" x1="-.023%" x2="100.021%" y1="49.998%" y2="49.998%">
            <stop offset="0%" stop-color="#979797"/>
            <stop offset="100%" stop-color="#E4E4E4"/>
        </linearGradient>
        <linearGradient id="prefix__ae" x1="0%" x2="100%" y1="49.999%" y2="49.999%">
            <stop offset="0%" stop-color="#979797"/>
            <stop offset="100%" stop-color="#E4E4E4"/>
        </linearGradient>
        <linearGradient id="prefix__ah" x1=".001%" x2="100.001%" y1="50.002%" y2="50.002%">
            <stop offset="0%" stop-color="gray"/>
            <stop offset="100%" stop-color="#666"/>
        </linearGradient>
        <linearGradient id="prefix__ak" x1=".004%" x2="100.002%" y1="50.003%" y2="50.003%">
            <stop offset="0%" stop-color="gray"/>
            <stop offset="100%" stop-color="#666"/>
        </linearGradient>
        <linearGradient id="prefix__an" x1=".004%" x2="100.002%" y1="49.997%" y2="49.997%">
            <stop offset="0%" stop-color="gray"/>
            <stop offset="100%" stop-color="#666"/>
        </linearGradient>
        <linearGradient id="prefix__aq" x1="-.006%" x2="99.936%" y1="50.001%" y2="50.001%">
            <stop offset="0%" stop-color="#979797"/>
            <stop offset="100%" stop-color="#E4E4E4"/>
        </linearGradient>
        <linearGradient id="prefix__at" x1="0%" x2="99.999%" y1="49.999%" y2="49.999%">
            <stop offset="0%" stop-color="#979797"/>
            <stop offset="100%" stop-color="#E4E4E4"/>
        </linearGradient>
        <linearGradient id="prefix__aw" x1=".002%" x2="99.999%" y1="50.001%" y2="50.001%">
            <stop offset="0%" stop-color="gray"/>
            <stop offset="100%" stop-color="#666"/>
        </linearGradient>
        <linearGradient id="prefix__az" x1="-.002%" x2="99.99%" y1="50.008%" y2="50.008%">
            <stop offset="0%" stop-color="gray"/>
            <stop offset="100%" stop-color="#666"/>
        </linearGradient>
        <linearGradient id="prefix__aC" x1="-.002%" x2="99.99%" y1="49.995%" y2="49.995%">
            <stop offset="0%" stop-color="gray"/>
            <stop offset="100%" stop-color="#666"/>
        </linearGradient>
        <linearGradient id="prefix__aF" x1=".012%" x2="100.005%" y1="50.002%" y2="50.002%">
            <stop offset="0%" stop-color="#979797"/>
            <stop offset="100%" stop-color="#E4E4E4"/>
        </linearGradient>
        <linearGradient id="prefix__aI" x1=".001%" x2="100.001%" y1="49.999%" y2="49.999%">
            <stop offset="0%" stop-color="#979797"/>
            <stop offset="100%" stop-color="#E4E4E4"/>
        </linearGradient>
        <linearGradient id="prefix__aL" x1=".002%" x2="100.001%" y1="50%" y2="50%">
            <stop offset="0%" stop-color="#C10021"/>
            <stop offset="100%" stop-color="#F0233D"/>
        </linearGradient>
        <linearGradient id="prefix__aO" x1=".002%" x2="99.999%" y1="50.001%" y2="50.001%">
            <stop offset="0%" stop-color="#F0233D"/>
            <stop offset="100%" stop-color="#FF7979"/>
        </linearGradient>
        <filter id="prefix__a" width="119.3%" height="128.7%" x="-9.7%" y="-14.3%" filterUnits="objectBoundingBox">
            <feMorphology in="SourceAlpha" operator="dilate" radius="11" result="shadowSpreadOuter1"/>
            <feOffset in="shadowSpreadOuter1" result="shadowOffsetOuter1"/>
            <feMorphology in="SourceAlpha" radius="11" result="shadowInner"/>
            <feOffset in="shadowInner" result="shadowInner"/>
            <feComposite in="shadowOffsetOuter1" in2="shadowInner" operator="out" result="shadowOffsetOuter1"/>
            <feGaussianBlur in="shadowOffsetOuter1" result="shadowBlurOuter1" stdDeviation="7"/>
            <feColorMatrix in="shadowBlurOuter1" values="0 0 0 0 1 0 0 0 0 0.330659299 0 0 0 0 0.330659299 0 0 0 1 0"/>
        </filter>
    </defs>
    <g fill="none" fill-rule="evenodd">
        <path stroke="#B2B2B2" stroke-linecap="round" d="M161.411 196.107L161.411 235.079M155.586 189.778L155.586 228.748M149.762 183.45L149.762 222.416M143.936 177.121L143.936 216.084M138.112 170.792L138.112 209.752M132.287 164.463L132.287 203.42M126.462 158.134L126.462 197.088M120.638 151.805L120.638 190.756M114.813 145.476L114.813 184.424M108.988 139.148L108.988 178.091M103.163 132.818L103.163 171.759M97.339 126.489L97.339 165.427M91.514 120.16L91.514 159.096M85.689 113.831L85.689 152.764M79.864 107.502L79.864 146.432M74.039 101.173L74.039 140.1M68.215 94.845L68.215 133.768M62.39 88.516L62.39 127.436M56.565 82.186L56.565 121.105M50.74 75.857L50.74 114.772M44.916 69.528L44.916 108.44M39.091 63.199L39.091 102.108M33.267 56.871L33.267 95.776M27.441 50.542L27.441 89.444M21.616 44.213L21.616 83.112M15.792 37.884L15.792 76.78M9.967 31.555L9.967 70.449M4.143 25.226L4.143 64.117" transform="translate(29 29.5)"/>
        <g stroke-linecap="round" stroke-linejoin="round" transform="translate(29 29.5)">
            <use fill="#000" filter="url(#prefix__a)" xlink:href="#prefix__b"/>
            <use stroke="#FFF" stroke-width="10" xlink:href="#prefix__b"/>
        </g>
        <path fill="#FF7A79" d="M230.368 0.006L0.509 71.569 164.334 252.297 394.059 179.55z" transform="translate(29 29.5)"/>
        <g transform="translate(29 29.5) translate(0 71)">
            <mask id="prefix__e" fill="#fff">
                <use xlink:href="#prefix__c"/>
            </mask>
            <path fill="url(#prefix__d)" d="M0.509 14.883L164.334 193.952 164.334 181.297 0.509 0.568z" mask="url(#prefix__e)"/>
        </g>
        <g transform="translate(29 29.5) translate(164 179)">
            <mask id="prefix__h" fill="#fff">
                <use xlink:href="#prefix__f"/>
            </mask>
            <path fill="url(#prefix__g)" d="M0.334 73.297L0.334 85.952 230.059 12.286 230.059 0.55z" mask="url(#prefix__h)"/>
        </g>
        <g transform="translate(29 29.5) translate(390 125)">
            <mask id="prefix__j" fill="#fff">
                <use xlink:href="#prefix__i"/>
            </mask>
            <path d="M0.403 1.884L0.403 55.568 4.059 54.537 4.059 0.565z" mask="url(#prefix__j)"/>
        </g>
        <g>
            <path fill="#E5E5E5" d="M347.994 61.672L347.994 114.942 390.402 161.568 390.402 107.885z" transform="translate(29 29.5) translate(0 19)"/>
            <path fill="#FFF" d="M347.995 61.672L390.402 107.885 394.058 106.566 352.136 60.152z" transform="translate(29 29.5) translate(0 19)"/>
            <path fill="#CBCBCB" d="M165.618 178.639L164.335 179.613 164.335 233.297 167.99 232.266 167.99 178.839z" transform="translate(29 29.5) translate(0 19)"/>
            <path fill="#B2B2B2" d="M164.335 219.673L164.335 233.297 167.99 232.266 167.99 218.9z" transform="translate(29 29.5) translate(0 19)"/>
            <path fill="#FFF" d="M0.509 1.364L164.334 179.612 167.99 178.839 4.527 0.194z" transform="translate(29 29.5) translate(0 19)"/>
            <path fill="#B2B2B2" d="M0.509 39.61L0.509 52.78 164.335 233.296 164.335 219.286z" transform="translate(29 29.5) translate(0 19)"/>
            <path fill="#E5E5E5" d="M164.335 179.613L0.509 1.364 0.509 39.61 164.335 219.286z" transform="translate(29 29.5) translate(0 19)"/>
            <path stroke="#B2B2B2" stroke-linecap="round" d="M161.411 177.107L161.411 216.079M155.586 170.778L155.586 209.748M149.762 164.45L149.762 203.416M143.936 158.121L143.936 197.084M138.112 151.792L138.112 190.752M132.287 145.463L132.287 184.42M126.462 139.134L126.462 178.088M120.638 132.805L120.638 171.756M114.813 126.476L114.813 165.424M108.988 120.147L108.988 159.091M103.163 113.818L103.163 152.759M97.339 107.489L97.339 146.427M91.514 101.16L91.514 140.096M85.689 94.831L85.689 133.764M79.864 88.502L79.864 127.432M74.039 82.173L74.039 121.1M68.215 75.845L68.215 114.768M62.39 69.516L62.39 108.436M56.565 63.187L56.565 102.105M50.74 56.857L50.74 95.772M44.916 50.528L44.916 89.44M39.091 44.199L39.091 83.108M33.267 37.871L33.267 76.776M27.441 31.542L27.441 70.444M21.616 25.213L21.616 64.112M15.792 18.884L15.792 57.78M9.967 12.555L9.967 51.449M4.143 6.226L4.143 45.117" transform="translate(29 29.5) translate(0 19)"/>
        </g>
        <g transform="translate(29 29.5) translate(89 42)">
            <mask id="prefix__m" fill="#fff">
                <use xlink:href="#prefix__k"/>
            </mask>
            <path fill="url(#prefix__l)" d="M4.521 2.823c-5.599 3.233-5.599 8.474 0 11.707 5.599 3.232 14.677 3.232 20.276 0 5.599-3.233 5.599-8.474 0-11.707-2.8-1.617-6.469-2.425-10.138-2.425-3.669 0-7.339.808-10.138 2.425" mask="url(#prefix__m)"/>
        </g>
        <g>
            <path fill="#4A2B09" d="M38.34 47.31c-5.347 3.087-14.015 3.087-19.362 0-5.347-3.087-5.347-8.092 0-11.18 5.346-3.086 14.015-3.086 19.362 0 5.347 3.088 5.347 8.093 0 11.18" transform="translate(29 29.5) translate(75 11)"/>
            <path fill="#FFF" d="M38.797 45.53c-5.6 3.231-14.677 3.231-20.275 0-2.8-1.617-4.201-3.736-4.201-5.855v13.111c0 .704.127 1.387.346 2.042 1.238 3.705 5.505 6.513 7.454 7.272l.044.015c3.692 1.916 9.297 1.916 12.988 0 .015-.006.03-.009.044-.015 1.937-.755 6.164-3.53 7.432-7.202.234-.676.367-1.383.367-2.112v-13.11c0 2.12-1.4 4.237-4.2 5.853" transform="translate(29 29.5) translate(75 11)"/>
            <path fill="#FDF669" d="M28.66 31.398c-3.67 0-7.34.81-10.139 2.425-5.599 3.232-5.599 8.473 0 11.706 2.8 1.616 6.468 2.425 10.138 2.425s7.34-.809 10.138-2.425c5.6-3.233 5.6-8.474 0-11.706-2.8-1.617-6.468-2.425-10.138-2.425zm0 0v.371c3.765 0 7.3.844 9.951 2.375 2.588 1.494 4.014 3.46 4.014 5.531 0 2.074-1.426 4.037-4.014 5.532-2.652 1.531-6.186 2.375-9.952 2.375s-7.3-.844-9.952-2.375c-2.588-1.495-4.014-3.458-4.014-5.532 0-2.072 1.426-4.037 4.014-5.53 2.651-1.532 6.186-2.375 9.952-2.376l.001-.37z" transform="translate(29 29.5) translate(75 11)"/>
            <path fill="gray" d="M29.484 17.643c.592 2.883-.128 4.49-1.37 4.745-1.242.256-2.536-.937-3.129-3.821-.592-2.883.984-6.62.984-6.62s2.922 2.813 3.515 5.696" transform="translate(29 29.5) translate(75 11)"/>
            <path fill="gray" d="M29.683 10.236c.593 2.883-.127 4.49-1.37 4.745-1.241.255-2.535-.938-3.128-3.82-.593-2.885.984-6.62.984-6.62s2.922 2.811 3.514 5.695M45.417 26.257c-2.554 1.464-4.305 1.282-4.936.183-.63-1.101.098-2.704 2.652-4.167 2.554-1.464 6.596-1.135 6.596-1.135s-1.758 3.654-4.312 5.119M34.882 35.127c-3.84-2.041-4.99-4.374-4.11-6.027.879-1.655 3.457-2.004 7.296.038 3.838 2.041 6.606 7.355 6.606 7.355s-5.953.676-9.792-1.366M39.787 19.288c-2.164 1.995-3.91 2.21-4.77 1.276-.86-.932-.506-2.657 1.658-4.652 2.164-1.995 6.177-2.573 6.177-2.573s-.9 3.954-3.065 5.95" transform="translate(29 29.5) translate(75 11)"/>
            <path fill="gray" d="M30.626 30.361c-4.447 4.101-8.039 4.538-9.806 2.622-1.766-1.916-1.039-5.46 3.409-9.56 4.447-4.102 12.698-5.29 12.698-5.29s-1.853 8.127-6.301 12.228" transform="translate(29 29.5) translate(75 11)"/>
            <path fill="#979797" d="M12.962 13.336c2.202 2.743 2.313 4.844 1.132 5.793-1.183.948-3.21.386-5.411-2.357C6.48 14.028 6.12 9.195 6.12 9.195s4.64 1.398 6.842 4.14M33.151 7.396c.632 3.46-.27 5.36-1.76 5.634-1.492.27-3.008-1.188-3.639-4.65-.632-3.46 1.35-7.882 1.35-7.882s3.417 3.436 4.05 6.897M9.91 34.962c3.452-.67 5.363.21 5.651 1.698.29 1.488-1.153 3.019-4.606 3.69-3.453.67-7.898-1.262-7.898-1.262s3.4-3.455 6.852-4.126M38.637 23.112c-2.305 2.657-4.352 3.144-5.496 2.15-1.146-.992-.955-3.087 1.35-5.746 2.303-2.657 6.994-3.878 6.994-3.878s-.544 4.816-2.848 7.474M27.464 21.942c-.176 3.514-1.488 5.158-3.002 5.082-1.514-.075-2.655-1.843-2.48-5.356.177-3.513 3.118-7.366 3.118-7.366s2.54 4.127 2.364 7.64M42.597 41.693c-3.158-1.55-4.15-3.404-3.482-4.766.667-1.36 2.742-1.71 5.899-.16 3.158 1.548 5.536 5.772 5.536 5.772s-4.795.704-7.953-.846M26.93 48.744c-.645-3.457.248-5.362 1.737-5.642 1.49-.278 3.012 1.175 3.659 4.632.646 3.458-1.316 7.89-1.316 7.89s-3.432-3.423-4.08-6.88M49.534 27.982c-3.347 1.085-5.35.443-5.817-.999-.467-1.44.78-3.137 4.125-4.222 3.345-1.084 7.992.295 7.992.295s-2.954 3.842-6.3 4.926M29.09 33.527c2.8 2.128 3.418 4.14 2.502 5.347-.917 1.206-3.021 1.151-5.821-.977-2.801-2.127-4.323-6.728-4.323-6.728s4.84.231 7.642 2.358" transform="translate(29 29.5) translate(75 11)"/>
            <path fill="#B1B1B1" d="M40.903 14.28c-2.588 1.401-4.334 1.18-4.938.064-.605-1.115.163-2.7 2.75-4.102 2.587-1.402 6.621-.977 6.621-.977s-1.845 3.612-4.433 5.014M19.707 6.22c1.587 2.479 1.492 4.237.424 4.92-1.069.684-2.705.035-4.291-2.444-1.587-2.48-1.455-6.533-1.455-6.533s3.736 1.578 5.322 4.057M17.11 44.13c2.53-1.504 4.284-1.351 4.932-.26.648 1.09-.055 2.704-2.585 4.208s-6.577 1.239-6.577 1.239 1.7-3.683 4.23-5.187M7.379 29.726c2.906.465 4.155 1.706 3.955 2.958-.2 1.252-1.774 2.042-4.681 1.576C3.747 33.795.809 31 .809 31s3.663-1.74 6.57-1.274M49.401 35.355c-2.81-.875-3.869-2.281-3.492-3.492.377-1.212 2.048-1.768 4.857-.893 2.811.876 5.32 4.062 5.32 4.062s-3.874 1.198-6.685.323M36.86 47.27c-2.1-2.064-2.399-3.799-1.51-4.704.888-.904 2.628-.636 4.728 1.427 2.1 2.063 2.875 6.043 2.875 6.043s-3.993-.703-6.093-2.767M41.704 32.845c-2.108 2.053-3.85 2.313-4.734 1.405-.885-.91-.578-2.642 1.531-4.696 2.108-2.053 6.105-2.74 6.105-2.74s-.793 3.977-2.902 6.03M33.35 29.845c-.256 2.932-1.404 4.267-2.667 4.156-1.264-.11-2.164-1.623-1.908-4.555.256-2.933 2.834-6.064 2.834-6.064s1.997 3.53 1.74 6.463M18.804 20.068c2.433 1.656 3.035 3.311 2.322 4.358-.714 1.05-2.474 1.094-4.907-.562-2.433-1.657-3.903-5.437-3.903-5.437s4.055-.016 6.488 1.641M21.246 35.417c2.87-.653 4.491.032 4.772 1.269.283 1.236-.883 2.556-3.753 3.21-2.87.652-6.639-.845-6.639-.845s2.75-2.981 5.62-3.634M32.008 15.473c.593 2.884-.127 4.49-1.37 4.746-1.241.255-2.536-.938-3.128-3.821-.593-2.884.984-6.62.984-6.62s2.922 2.812 3.514 5.695M45.148 22.509c-2.34 1.784-4.1 1.833-4.869.825-.769-1.01-.256-2.693 2.085-4.477 2.341-1.785 6.391-1.986 6.391-1.986s-1.266 3.854-3.607 5.638M18.615 25.97c2.941.108 4.331 1.188 4.284 2.456-.047 1.268-1.513 2.242-4.454 2.133-2.94-.11-6.197-2.526-6.197-2.526s3.426-2.171 6.367-2.063" transform="translate(29 29.5) translate(75 11)"/>
            <path fill="#B1B1B1" d="M24.26 13.771c-.061 2.942-1.118 4.35-2.386 4.323-1.268-.026-2.265-1.477-2.204-4.42.062-2.942 2.428-6.236 2.428-6.236s2.225 3.39 2.163 6.333" transform="translate(29 29.5) translate(75 11)"/>
            <path fill="#666" d="M46.98 31.8c-2.827.814-4.485.222-4.836-.997-.35-1.22.739-2.602 3.567-3.415 2.83-.814 6.677.469 6.677.469s-2.578 3.13-5.407 3.944M33.967 41.809c-2.627-1.327-3.438-2.89-2.867-4.021.572-1.132 2.31-1.405 4.938-.078 2.627 1.328 4.575 4.885 4.575 4.885s-4.018.542-6.646-.786" transform="translate(29 29.5) translate(75 11)"/>
            <path fill="#666" d="M24.556 38.76c2.796-2.971 5.192-3.437 6.472-2.231 1.28 1.204.96 3.624-1.836 6.595-2.797 2.97-8.29 4.164-8.29 4.164s.857-5.555 3.654-8.527M28.6 30.293c-.407 2.915-1.623 4.188-2.88 4.013-1.256-.176-2.076-1.734-1.67-4.649.409-2.915 3.146-5.908 3.146-5.908s1.81 3.629 1.404 6.544M11.508 17.82c2.436 1.653 3.04 3.306 2.329 4.355-.712 1.05-2.472 1.098-4.907-.554-2.437-1.653-3.914-5.429-3.914-5.429s4.055-.024 6.492 1.628M17.523 13.84c1.27 2.656.96 4.389-.186 4.936-1.144.546-2.688-.3-3.958-2.955-1.269-2.656-.639-6.662-.639-6.662s3.513 2.026 4.783 4.68M37.175 13.143c-.462 2.907-1.701 4.157-2.954 3.958-1.252-.198-2.043-1.771-1.581-4.68.46-2.905 3.254-5.846 3.254-5.846s1.743 3.66 1.28 6.568M38.026 28.145c-2.367 1.748-4.128 1.771-4.882.753-.754-1.02-.216-2.697 2.152-4.447 2.367-1.75 6.42-1.89 6.42-1.89s-1.324 3.834-3.69 5.584M18.1 29.968c2.883-.602 4.492.113 4.75 1.355.26 1.242-.93 2.54-3.812 3.14-2.881.6-6.622-.965-6.622-.965s2.804-2.93 5.685-3.53M12.942 40.56c2.267-1.877 4.023-1.997 4.833-1.021.81.977.363 2.68-1.903 4.558-2.267 1.878-6.306 2.24-6.306 2.24s1.11-3.9 3.376-5.777" transform="translate(29 29.5) translate(75 11)"/>
            <path fill="#979797" d="M8.709 22.568c3.451.68 4.891 2.215 4.598 3.701-.292 1.487-2.206 2.363-5.658 1.684-3.451-.679-6.84-4.143-6.84-4.143s4.449-1.92 7.9-1.242" transform="translate(29 29.5) translate(75 11)"/>
            <path fill="#B1B1B1" d="M38.919 9.893c-1.63 3.117-3.51 4.062-4.853 3.36-1.342-.701-1.64-2.784-.011-5.901 1.629-3.118 5.91-5.388 5.91-5.388s.582 4.812-1.046 7.929M25.628 7.883c.05 3.518-1.153 5.243-2.668 5.265-1.516.022-2.77-1.668-2.82-5.186C20.09 4.445 22.777.41 22.777.41s2.8 3.955 2.852 7.472M12.795 26.663c3.367 1.02 4.646 2.69 4.207 4.141-.44 1.45-2.431 2.13-5.797 1.112-3.366-1.02-6.395-4.803-6.395-4.803s4.619-1.469 7.985-.45M22.455 17.583c2.282 2.677 2.456 4.773 1.303 5.757-1.154.983-3.197.48-5.479-2.196s-2.786-7.497-2.786-7.497 4.68 1.259 6.962 3.936M45.134 17.729c-2.557 2.415-4.643 2.695-5.683 1.593-1.041-1.102-.642-3.168 1.914-5.583 2.558-2.416 7.346-3.164 7.346-3.164s-1.02 4.738-3.577 7.154M33.227 23.486c.269 3.508-.826 5.305-2.338 5.42-1.511.116-2.866-1.494-3.134-5-.268-3.508 2.163-7.7 2.163-7.7s3.04 3.773 3.309 7.28M38.685 31.469c-3.358 1.045-5.354.38-5.806-1.066-.45-1.448.816-3.128 4.174-4.174 3.359-1.046 7.988.386 7.988.386s-2.998 3.808-6.356 4.854M44.523 37.482c-3.215-1.43-4.275-3.247-3.659-4.632.617-1.385 2.678-1.812 5.89-.382 3.214 1.431 5.748 5.562 5.748 5.562s-4.767.883-7.98-.548" transform="translate(29 29.5) translate(75 11)"/>
            <path fill="#B1B1B1" d="M34.13 38.191c-2.797-2.133-3.41-4.146-2.491-5.35.919-1.206 3.022-1.147 5.819.986s4.31 6.736 4.31 6.736-4.84-.239-7.638-2.372M30.048 46.02c-1.802-3.02-1.622-5.117-.32-5.894 1.3-.774 3.23.063 5.033 3.084 1.802 3.02 1.492 7.858 1.492 7.858s-4.403-2.026-6.205-5.047M21.36 45.191c1.443-3.208 3.265-4.262 4.646-3.64 1.382.622 1.801 2.684.358 5.892s-5.585 5.725-5.585 5.725-.863-4.77.58-7.977M18.606 31.78c3.212-1.435 5.272-1.01 5.89.374.618 1.385-.442 3.202-3.654 4.636-3.212 1.434-7.978.556-7.978.556s2.53-4.133 5.742-5.567M16.549 22.9c2.883 2.016 3.579 4.001 2.71 5.243-.867 1.242-2.972 1.271-5.855-.745-2.882-2.016-4.584-6.554-4.584-6.554s4.846.04 7.729 2.056" transform="translate(29 29.5) translate(75 11)"/>
            <path fill="#B1B1B1" d="M27.737 27.331c2.004 2.891 1.967 4.994.722 5.857-1.246.864-3.229.161-5.233-2.73-2.004-2.892-2.024-7.738-2.024-7.738s4.53 1.72 6.535 4.611" transform="translate(29 29.5) translate(75 11)"/>
            <path fill="#CACACA" d="M36.595 17.924c-1.473 2.335-3.004 2.955-4.01 2.32-1.006-.634-1.106-2.283.366-4.618 1.473-2.335 4.968-3.838 4.968-3.838s.149 3.8-1.324 6.136M27.384 12.106c.568 2.701-.1 4.212-1.264 4.457-1.164.244-2.383-.869-2.952-3.57-.568-2.702.894-6.214.894-6.214s2.754 2.625 3.322 5.327M17.807 9.535c1.4 2.38 1.252 4.023.228 4.627-1.025.604-2.537-.06-3.94-2.439-1.401-2.378-1.138-6.173-1.138-6.173s3.448 1.607 4.85 3.985M16.17 16.456c2.09 1.802 2.478 3.407 1.7 4.31-.776.9-2.421.754-4.513-1.047-2.09-1.803-3.06-5.482-3.06-5.482s3.782.416 5.873 2.22M20.908 23.356c2.751-.224 4.166.63 4.263 1.814.095 1.186-1.162 2.255-3.914 2.48-2.75.224-6.05-1.669-6.05-1.669s2.95-2.4 5.701-2.625M28.19 32.803c2.752-.224 4.165.629 4.262 1.814.096 1.186-1.16 2.255-3.912 2.48-2.752.224-6.052-1.67-6.052-1.67s2.95-2.4 5.701-2.624M11.197 31.977c2.752-.224 4.166.63 4.263 1.814.096 1.187-1.162 2.256-3.913 2.48-2.752.224-6.052-1.669-6.052-1.669s2.95-2.4 5.702-2.624M41.685 24.364c-2.041 1.86-3.682 2.05-4.482 1.171-.802-.88-.46-2.495 1.58-4.355 2.042-1.859 5.809-2.378 5.809-2.378s-.867 3.703-2.907 5.562M38.837 34.244c-2.041 1.858-3.681 2.05-4.482 1.17-.801-.88-.46-2.495 1.582-4.355 2.04-1.859 5.808-2.378 5.808-2.378s-.867 3.704-2.908 5.563" transform="translate(29 29.5) translate(75 11)"/>
            <path fill="#CACACA" d="M34.371 13.889c-.456 2.724-1.628 3.887-2.802 3.69-1.173-.196-1.902-1.677-1.447-4.401.456-2.723 3.098-5.46 3.098-5.46s1.606 3.448 1.151 6.17M22.21 12.565c.766 2.652.21 4.208-.933 4.537-1.142.33-2.44-.692-3.205-3.345-.764-2.652.437-6.261.437-6.261s2.937 2.416 3.702 5.069M20.155 38.466c1.972-1.933 3.604-2.182 4.437-1.332.833.85.55 2.477-1.422 4.409-1.973 1.932-5.72 2.587-5.72 2.587s.733-3.732 2.705-5.664M33.377 42.12c-1.307-2.433-1.092-4.07-.044-4.633 1.048-.562 2.532.162 3.838 2.595 1.307 2.432.893 6.213.893 6.213s-3.381-1.743-4.687-4.175M40.685 44.883c-1.743-2.141-1.843-3.79-.92-4.54.922-.752 2.517-.321 4.26 1.819 1.743 2.14 2.054 5.932 2.054 5.932s-3.65-1.071-5.394-3.211M48.478 21.959c-2.65.769-4.208.216-4.538-.927-.331-1.142.688-2.442 3.34-3.211 2.65-.768 6.261.428 6.261.428s-2.411 2.941-5.063 3.71" transform="translate(29 29.5) translate(75 11)"/>
            <path fill="#B1B1B1" d="M13.882 37.809c3.478-.524 5.35.437 5.576 1.935.226 1.499-1.281 2.967-4.76 3.492-3.477.523-7.837-1.595-7.837-1.595s3.542-3.31 7.02-3.832" transform="translate(29 29.5) translate(75 11)"/>
            <path fill="#FF7A79" d="M28.36 9.426c-.668-.97-2.88-1.92-4.069-1.74-.078.764.954 1.94 1.426 2.503.226.268 1.077.763 1.156 1.11.15.664-1.452 1.668-1.844 2.075-.38.397-.899.766-1.068 1.286.488.07.9-.113 1.37-.218.617-.14 1.238-.066 1.846-.173.532-.094 1.281-.427 1.702-.693.374.874.976 1.768 1.408 2.648.065.134.242.682.466.658.48-.053.556-2.046.581-2.473.026-.461-.128-1.52.067-1.943.247-.535 1.368-.75 1.893-.937.564-.204 1.758-.42 2.173-.82.138-.132.427-.861.345-1.023-.379-.758-3.553-.03-4.265-.068.413-.622.735-1.228 1.052-1.903.303-.642.96-1.636.992-2.355.036-.772-.676-.724-1.192-.266-.803.712-1.359 1.78-2.177 2.537-.426.395-.968.823-1.216 1.342l-.647.453z" transform="translate(29 29.5) translate(75 11)"/>
            <path fill="#FF7A79" d="M27.712 11.023c-.066-1.506.354-3.077.87-4.438.423-.037.73 1.032.857 1.341.21.514.198 1.207.474 1.676.158.27.123.278.426.155.484-.198 1.059-.797 1.51-1.093.594-.39 1.443-.705 2.158-.604.08.64-.814 1.37-1.244 1.737-.226.194-.961.643-1.05.957-.116.415.588 1.266.789 1.662.246.486.53.954.559 1.492-.745.12-1.76-.676-2.531-.764-.457-.053-.875.043-1.3.098-.371 1.402-1.15 2.196-2.15 3.22-.095-.623-.148-1.281-.18-1.912-.02-.395.096-.944-.008-1.33-.175-.65-1.368-.978-1.94-1.303-.686-.392-.282-.62.4-.81.57-.16 1.077-.12 1.627-.04l.733-.044z" transform="translate(29 29.5) translate(75 11)"/>
            <path fill="#FF7A79" d="M28.705 10.203c-.325-.62-1.487-1.362-2.195-1.377.028 1.125 1.341 2.212 1.152 3.398-.604.035-.978.06-1.538.364-.6.324-1.109.844-1.648 1.231.974.1 2.19-.1 3.146-.303.37-.077.65-.18 1.02-.05.854.3 1.337 1.617 1.912 2.298.061-.87-.033-1.639.158-2.5.088-.4.137-.877.422-1.196.362-.403.958-.47 1.455-.636.75-.249 1.78-.527 2.448-.894-.608-.564-1.964-1-2.827-1.025-.457-.014-.512.081-.72-.26-.209-.343-.213-.977-.342-1.377-.985-.083-1.695 1.2-2.357 1.723l-.086.604z" transform="translate(29 29.5) translate(75 11)"/>
            <path fill="#FF7A79" d="M30.475 10.332c-.151-.467-1-1.53-1.505-1.68.02.564-.075 1.855-.692 2.067-.344.119-1.815-.244-1.464.538.268.598 1.269.841 1.085 1.664-.08.351-.311.575-.316.96-.005.387.13.521.265.847.28.016.467-.42.65-.629.319-.361.666-.69 1.049-.982.349-.266.64-.449 1.097-.358.272.054.77.439 1.03.255.382-.272.08-1.667.06-1.974-.042-.623.04-.673.418-1.087.156-.171.64-.873.484-1.133-.257-.422-2.284.913-2.161 1.512M12.614 23.626c-.54-.786-2.333-1.555-3.296-1.409-.063.619.774 1.572 1.156 2.026.183.218.872.619.936.902.122.537-1.177 1.349-1.493 1.679-.31.322-.73.621-.866 1.042.396.057.73-.092 1.11-.177.5-.112 1.003-.053 1.496-.14.431-.075 1.037-.346 1.378-.561.303.708.791 1.432 1.141 2.145.053.109.197.554.377.534.39-.043.452-1.658.471-2.003.022-.375-.103-1.233.055-1.575.2-.434 1.108-.607 1.533-.76.458-.165 1.425-.341 1.762-.663.111-.107.344-.698.28-.83-.309-.613-2.88-.023-3.457-.054.335-.505.596-.996.853-1.543.245-.52.778-1.325.803-1.908.03-.625-.548-.586-.966-.216-.65.577-1.1 1.443-1.763 2.057-.345.319-.785.667-.986 1.087l-.524.367z" transform="translate(29 29.5) translate(75 11)"/>
            <path fill="#FF7A79" d="M12.09 24.92c-.054-1.221.286-2.494.706-3.596.342-.03.59.836.692 1.087.17.415.162.978.385 1.358.129.217.1.225.346.125.392-.161.857-.646 1.224-.886.48-.316 1.168-.571 1.748-.488.065.517-.66 1.109-1.01 1.407-.181.156-.778.519-.85.775-.094.336.478 1.026.64 1.347.199.393.43.77.453 1.208-.604.098-1.425-.548-2.051-.62-.37-.041-.71.035-1.054.08-.3 1.138-.93 1.78-1.741 2.609-.077-.505-.121-1.038-.146-1.548-.017-.32.078-.765-.006-1.078-.143-.527-1.11-.793-1.571-1.055-.558-.318-.23-.502.324-.658.46-.13.872-.097 1.316-.032l.595-.035z" transform="translate(29 29.5) translate(75 11)"/>
            <path fill="#FF7A79" d="M12.895 24.255c-.264-.503-1.205-1.103-1.778-1.115.022.91 1.086 1.792.932 2.754-.49.027-.792.048-1.245.294-.488.262-.899.684-1.337.998.79.08 1.775-.083 2.55-.245.3-.064.526-.148.825-.042.694.242 1.085 1.31 1.55 1.862.05-.704-.025-1.328.129-2.027.07-.323.11-.71.341-.967.294-.327.777-.381 1.179-.515.608-.202 1.444-.428 1.983-.725-.492-.457-1.59-.811-2.29-.832-.37-.01-.415.067-.582-.21-.17-.277-.173-.791-.278-1.115-.798-.067-1.373.972-1.91 1.396l-.07.489z" transform="translate(29 29.5) translate(75 11)"/>
            <path fill="#FF7A79" d="M14.328 24.36c-.123-.378-.81-1.24-1.219-1.36.016.455-.06 1.502-.56 1.673-.28.096-1.47-.198-1.187.436.218.484 1.03.681.88 1.348-.065.285-.253.466-.257.777-.005.314.107.423.215.688.228.012.378-.34.526-.51.258-.293.54-.559.85-.796.283-.216.52-.363.89-.29.22.044.624.355.834.206.31-.22.065-1.35.048-1.599-.034-.505.034-.546.338-.88.127-.139.521-.708.393-.919-.208-.34-1.85.741-1.75 1.226M31.469 30.682c-.481-.7-2.078-1.385-2.936-1.255-.055.55.689 1.4 1.03 1.805.163.193.777.55.834.802.108.478-1.048 1.202-1.33 1.496-.276.286-.65.552-.772.928.353.05.65-.082.988-.158.447-.1.894-.048 1.333-.125.383-.067.924-.307 1.227-.5.27.632.705 1.276 1.017 1.91.046.097.174.493.336.476.345-.038.4-1.477.419-1.784.018-.333-.093-1.097.047-1.402.179-.386.988-.541 1.367-.676.407-.147 1.268-.303 1.568-.591.1-.095.308-.621.248-.74-.273-.545-2.563-.02-3.077-.047.298-.45.53-.887.76-1.373.217-.463.692-1.181.715-1.7.026-.556-.488-.522-.86-.192-.58.514-.98 1.285-1.57 1.83-.307.285-.7.595-.877.969l-.467.327z" transform="translate(29 29.5) translate(75 11)"/>
            <path fill="#FF7A79" d="M31.001 31.834c-.047-1.087.255-2.221.629-3.202.304-.027.525.745.617.968.15.37.144.871.342 1.209.114.194.089.201.308.111.349-.143.763-.574 1.089-.788.428-.281 1.041-.51 1.556-.436.059.461-.587.989-.897 1.254-.163.139-.693.462-.757.69-.084.299.425.913.569 1.199.177.35.383.687.402 1.076-.536.086-1.268-.488-1.825-.552-.33-.037-.631.032-.938.071-.267 1.012-.829 1.585-1.55 2.323-.068-.449-.107-.924-.131-1.378-.015-.285.07-.682-.005-.96-.127-.469-.987-.706-1.399-.94-.496-.283-.204-.447.289-.584.41-.116.776-.088 1.172-.031l.529-.03z" transform="translate(29 29.5) translate(75 11)"/>
            <path fill="#FF7A79" d="M31.718 31.242c-.234-.448-1.073-.982-1.583-.993.02.811.967 1.596.83 2.452-.435.023-.705.043-1.11.261-.432.234-.8.61-1.188.89.703.071 1.579-.075 2.27-.219.266-.056.468-.132.735-.038.616.216.966 1.168 1.38 1.66.044-.628-.023-1.184.113-1.806.064-.288.099-.632.305-.86.262-.292.69-.34 1.05-.459.54-.18 1.284-.38 1.765-.646-.438-.406-1.416-.722-2.04-.74-.33-.01-.368.06-.518-.188-.151-.247-.154-.704-.246-.993-.711-.06-1.224.866-1.701 1.242l-.062.437z" transform="translate(29 29.5) translate(75 11)"/>
            <path fill="#FF7A79" d="M32.994 31.335c-.109-.336-.72-1.104-1.085-1.211.014.406-.055 1.338-.5 1.49-.248.086-1.309-.175-1.056.389.194.432.915.606.783 1.2-.057.253-.224.414-.228.692-.004.279.095.377.191.612.204.011.336-.304.47-.454.23-.261.48-.497.756-.708.252-.194.461-.324.791-.259.196.039.557.316.743.184.276-.196.058-1.203.043-1.424-.03-.449.03-.486.302-.784.112-.123.463-.63.35-.818-.186-.304-1.648.659-1.56 1.091M43.244 23.085c-.48-.699-2.077-1.384-2.935-1.255-.055.552.69 1.401 1.03 1.805.163.194.776.551.834.803.108.478-1.048 1.202-1.33 1.495-.276.286-.65.552-.772.928.353.05.65-.082.987-.158.448-.099.895-.047 1.334-.125.383-.067.924-.307 1.227-.499.27.631.705 1.276 1.017 1.91.046.097.173.492.336.475.345-.038.401-1.477.418-1.783.02-.333-.092-1.098.048-1.403.18-.385.988-.54 1.367-.676.407-.147 1.268-.303 1.568-.591.1-.095.307-.621.248-.739-.273-.546-2.563-.02-3.077-.047.298-.45.53-.888.76-1.374.217-.463.692-1.18.715-1.7.025-.556-.488-.521-.86-.191-.579.514-.98 1.284-1.57 1.83-.307.284-.699.595-.877.968l-.468.327z" transform="translate(29 29.5) translate(75 11)"/>
            <path fill="#FF7A79" d="M42.777 24.237c-.048-1.087.255-2.22.628-3.2.305-.029.526.743.618.966.15.37.143.871.342 1.21.114.193.09.2.308.111.348-.144.763-.575 1.09-.789.427-.28 1.04-.509 1.555-.436.06.462-.587.99-.897 1.254-.163.14-.694.463-.757.69-.084.3.424.913.57 1.2.176.35.382.686.401 1.075-.537.087-1.268-.487-1.825-.552-.33-.037-.63.032-.938.072-.267 1.012-.829 1.584-1.55 2.323-.068-.45-.107-.925-.13-1.379-.016-.285.07-.68-.007-.96-.126-.469-.986-.705-1.398-.939-.496-.284-.204-.448.29-.585.41-.116.775-.087 1.171-.03l.53-.03z" transform="translate(29 29.5) translate(75 11)"/>
            <path fill="#FF7A79" d="M43.494 23.645c-.234-.447-1.073-.982-1.584-.992.021.81.968 1.596.831 2.452-.435.023-.705.043-1.109.261-.434.235-.8.61-1.19.889.703.072 1.58-.073 2.271-.218.266-.056.468-.131.735-.037.616.215.965 1.166 1.38 1.657.044-.627-.023-1.181.113-1.805.064-.288.1-.631.305-.86.261-.291.69-.34 1.05-.459.541-.18 1.284-.38 1.765-.646-.438-.405-1.416-.72-2.039-.74-.33-.01-.369.06-.519-.188-.15-.247-.154-.703-.246-.992-.71-.06-1.224.866-1.7 1.242l-.063.436z" transform="translate(29 29.5) translate(75 11)"/>
            <path fill="#FF7A79" d="M44.77 23.74c-.109-.338-.72-1.105-1.085-1.213.014.406-.055 1.338-.5 1.491-.248.085-1.31-.176-1.056.388.195.432.916.606.784 1.2-.057.254-.225.415-.228.693-.005.278.094.376.19.611.205.012.337-.303.47-.454.23-.26.48-.497.755-.708.253-.193.462-.324.792-.259.197.04.556.317.743.184.276-.196.059-1.203.044-1.423-.03-.45.029-.487.301-.784.113-.124.464-.63.35-.818-.186-.305-1.648.658-1.56 1.091" transform="translate(29 29.5) translate(75 11)"/>
        </g>
        <g transform="translate(29 29.5) translate(245 170)">
            <mask id="prefix__p" fill="#fff">
                <use xlink:href="#prefix__n"/>
            </mask>
            <path fill="url(#prefix__o)" d="M17.359.49H2.919s-5.735 9.024 0 18.356c0 1.51 6.455 4.306 14.418 4.306 7.962 0 14.417-2.796 14.417-4.306h.043c5.736-9.332 0-18.356 0-18.356H17.359z" mask="url(#prefix__p)"/>
        </g>
        <g transform="translate(29 29.5) translate(247 166)">
            <mask id="prefix__s" fill="#fff">
                <use xlink:href="#prefix__q"/>
            </mask>
            <path fill="url(#prefix__r)" d="M.919 4.49c0 2.065 6.455 3.739 14.418 3.739 7.962 0 14.417-1.674 14.417-3.739 0-2.064-6.455-3.738-14.417-3.738C7.374.752.919 2.426.919 4.49" mask="url(#prefix__s)"/>
        </g>
        <g transform="translate(29 29.5) translate(177 54)">
            <mask id="prefix__v" fill="#fff">
                <use xlink:href="#prefix__t"/>
            </mask>
            <path fill="url(#prefix__u)" d="M17.465.161H3.025s-5.734 9.023 0 18.355c0 1.512 6.456 4.307 14.417 4.307 7.962 0 14.417-2.795 14.417-4.307h.045c5.735-9.332 0-18.355 0-18.355H17.465z" mask="url(#prefix__v)"/>
        </g>
        <g transform="translate(29 29.5) translate(180 50)">
            <mask id="prefix__y" fill="#fff">
                <use xlink:href="#prefix__w"/>
            </mask>
            <path fill="url(#prefix__x)" d="M.025 4.161c0 2.064 6.455 3.738 14.417 3.738s14.417-1.674 14.417-3.738S22.404.424 14.442.424.025 2.097.025 4.161" mask="url(#prefix__y)"/>
        </g>
        <g transform="translate(29 29.5) translate(180 174)">
            <mask id="prefix__B" fill="#fff">
                <use xlink:href="#prefix__z"/>
            </mask>
            <path fill="url(#prefix__A)" d="M17.262.16H2.822s-5.734 9.021 0 18.353c0 1.512 6.455 4.308 14.417 4.308 7.963 0 14.417-2.796 14.417-4.308h.045c5.734-9.332 0-18.353 0-18.353H17.262z" mask="url(#prefix__B)"/>
        </g>
        <g transform="translate(29 29.5) translate(182 170)">
            <mask id="prefix__E" fill="#fff">
                <use xlink:href="#prefix__C"/>
            </mask>
            <path fill="url(#prefix__D)" d="M.822 4.16c0 2.063 6.455 3.736 14.417 3.736 7.963 0 14.417-1.673 14.417-3.736 0-2.065-6.454-3.739-14.417-3.739C7.277.421.822 2.095.822 4.16" mask="url(#prefix__E)"/>
        </g>
        <g transform="translate(29 29.5) translate(121 113)">
            <mask id="prefix__H" fill="#fff">
                <use xlink:href="#prefix__F"/>
            </mask>
            <path fill="url(#prefix__G)" d="M17.689.499H3.249s-5.735 9.023 0 18.355c0 1.512 6.455 4.307 14.417 4.307s14.417-2.795 14.417-4.307h.045c5.734-9.332 0-18.355 0-18.355H17.689z" mask="url(#prefix__H)"/>
        </g>
        <g transform="translate(29 29.5) translate(124 109)">
            <mask id="prefix__K" fill="#fff">
                <use xlink:href="#prefix__I"/>
            </mask>
            <path fill="url(#prefix__J)" d="M.249 4.499c0 2.064 6.454 3.738 14.417 3.738 7.962 0 14.417-1.674 14.417-3.738S22.628.762 14.666.762C6.703.762.249 2.435.249 4.499" mask="url(#prefix__K)"/>
        </g>
        <g transform="translate(29 29.5) translate(305 126)">
            <mask id="prefix__N" fill="#fff">
                <use xlink:href="#prefix__L"/>
            </mask>
            <path fill="url(#prefix__M)" d="M17.305.815H2.865s-5.734 9.024 0 18.355c0 1.512 6.455 4.307 14.418 4.307 7.961 0 14.416-2.795 14.416-4.307h.045c5.735-9.331 0-18.355 0-18.355H17.305z" mask="url(#prefix__N)"/>
        </g>
        <g transform="translate(29 29.5) translate(307 123)">
            <mask id="prefix__Q" fill="#fff">
                <use xlink:href="#prefix__O"/>
            </mask>
            <path fill="url(#prefix__P)" d="M.865 3.815c0 2.065 6.454 3.739 14.418 3.739 7.961 0 14.416-1.674 14.416-3.739 0-2.064-6.455-3.738-14.416-3.738C7.319.077.865 1.751.865 3.815" mask="url(#prefix__Q)"/>
        </g>
        <g transform="translate(29 29.5) translate(288 175)">
            <mask id="prefix__T" fill="#fff">
                <use xlink:href="#prefix__R"/>
            </mask>
            <path fill="url(#prefix__S)" d="M4.189 2.41c-4.342 2.507-4.342 6.571 0 9.079 4.342 2.506 11.383 2.506 15.725 0 4.342-2.508 4.342-6.572 0-9.079C17.743 1.156 14.897.529 12.051.529c-2.845 0-5.691.627-7.862 1.881" mask="url(#prefix__T)"/>
        </g>
        <path fill="#1A1A1A" d="M307.914 176.29c4.342 2.507 4.342 6.571 0 9.079-4.343 2.507-11.383 2.507-15.725 0-4.342-2.508-4.342-6.572 0-9.079 4.342-2.507 11.382-2.507 15.725 0" transform="translate(29 29.5)"/>
        <g transform="translate(29 29.5) translate(296 178)">
            <mask id="prefix__W" fill="#fff">
                <use xlink:href="#prefix__U"/>
            </mask>
            <path fill="url(#prefix__V)" d="M1.605 1.417c-1.35.781-1.35 2.045 0 2.825 1.351.78 3.541.78 4.892 0 1.351-.78 1.351-2.044 0-2.825-.675-.389-1.561-.584-2.446-.584-.885 0-1.77.195-2.446.584" mask="url(#prefix__W)"/>
        </g>
        <g transform="translate(29 29.5) translate(296 177)">
            <mask id="prefix__Z" fill="#fff">
                <use xlink:href="#prefix__X"/>
            </mask>
            <path fill="url(#prefix__Y)" d="M1.605 1.54c-1.35.78-1.35 2.044 0 2.824 1.351.78 3.541.78 4.892 0 1.351-.78 1.351-2.044 0-2.824-.675-.39-1.561-.585-2.446-.585-.885 0-1.77.195-2.446.585" mask="url(#prefix__Z)"/>
        </g>
        <g transform="translate(29 29.5) translate(299 157)">
            <mask id="prefix__ac" fill="#fff">
                <use xlink:href="#prefix__aa"/>
            </mask>
            <path fill="url(#prefix__ab)" d="M.061.687v21.73h.007c.018.351.11.694.283.963.387.6 1.014.6 1.401 0 .174-.269.264-.612.283-.963h.007V.687H.061z" mask="url(#prefix__ac)"/>
        </g>
        <g transform="translate(29 29.5) translate(277 143)">
            <mask id="prefix__af" fill="#fff">
                <use xlink:href="#prefix__ad"/>
            </mask>
            <path fill="url(#prefix__ae)" d="M7.316 3.83c-8.69 5.018-8.69 13.153 0 18.17 8.691 5.018 22.781 5.018 31.471 0 8.69-5.017 8.69-13.152 0-18.17C34.442 1.321 28.747.067 23.052.067S11.661 1.321 7.316 3.83" mask="url(#prefix__af)"/>
        </g>
        <path fill="#FFF" d="M315.787 145.554c8.69 5.018 8.69 13.152 0 18.17-8.69 5.017-22.78 5.017-31.47 0-8.69-5.018-8.69-13.152 0-18.17 8.69-5.018 22.78-5.018 31.47 0" transform="translate(29 29.5)"/>
        <g transform="translate(29 29.5) translate(221 93)">
            <mask id="prefix__ai" fill="#fff">
                <use xlink:href="#prefix__ag"/>
            </mask>
            <path fill="url(#prefix__ah)" d="M3.472 2.439c-4.342 2.508-4.342 6.573 0 9.08 4.342 2.506 11.383 2.506 15.725 0 4.342-2.507 4.342-6.572 0-9.08-2.171-1.253-5.017-1.88-7.863-1.88-2.845 0-5.691.627-7.862 1.88" mask="url(#prefix__ai)"/>
        </g>
        <path fill="#1A1A1A" d="M240.197 94.32c4.342 2.507 4.342 6.571 0 9.078-4.343 2.507-11.383 2.507-15.725 0-4.342-2.507-4.342-6.57 0-9.079 4.342-2.507 11.382-2.507 15.725 0" transform="translate(29 29.5)"/>
        <g transform="translate(29 29.5) translate(228 96)">
            <mask id="prefix__al" fill="#fff">
                <use xlink:href="#prefix__aj"/>
            </mask>
            <path fill="url(#prefix__ak)" d="M1.889 1.447c-1.351.78-1.351 2.044 0 2.824 1.351.78 3.541.78 4.891 0 1.351-.78 1.351-2.044 0-2.824-.675-.39-1.56-.585-2.445-.585-.886 0-1.771.195-2.446.585" mask="url(#prefix__al)"/>
        </g>
        <g transform="translate(29 29.5) translate(228 95)">
            <mask id="prefix__ao" fill="#fff">
                <use xlink:href="#prefix__am"/>
            </mask>
            <path fill="url(#prefix__an)" d="M1.889 1.571c-1.351.779-1.351 2.044 0 2.824 1.351.779 3.541.779 4.891 0 1.351-.78 1.351-2.045 0-2.824C6.105 1.18 5.22.985 4.335.985c-.886 0-1.771.195-2.446.586" mask="url(#prefix__ao)"/>
        </g>
        <g transform="translate(29 29.5) translate(231 75)">
            <mask id="prefix__ar" fill="#fff">
                <use xlink:href="#prefix__ap"/>
            </mask>
            <path fill="url(#prefix__aq)" d="M.344.716v21.731h.008c.017.351.109.695.282.963.388.599 1.014.599 1.401 0 .174-.268.265-.612.283-.963h.009V.716H.344z" mask="url(#prefix__ar)"/>
        </g>
        <g transform="translate(29 29.5) translate(210 61)">
            <mask id="prefix__au" fill="#fff">
                <use xlink:href="#prefix__as"/>
            </mask>
            <path fill="url(#prefix__at)" d="M6.599 3.86c-8.69 5.017-8.69 13.153 0 18.17 8.691 5.018 22.781 5.018 31.471 0 8.691-5.017 8.691-13.153 0-18.17C33.725 1.351 28.03.097 22.335.097S10.944 1.351 6.599 3.86" mask="url(#prefix__au)"/>
        </g>
        <path fill="#FFF" d="M248.07 63.583c8.69 5.018 8.69 13.152 0 18.17-8.69 5.017-22.78 5.017-31.47 0-8.69-5.018-8.69-13.152 0-18.17 8.69-5.018 22.78-5.018 31.47 0" transform="translate(29 29.5)"/>
        <g transform="translate(29 29.5) translate(167 156)">
            <mask id="prefix__ax" fill="#fff">
                <use xlink:href="#prefix__av"/>
            </mask>
            <path fill="url(#prefix__aw)" d="M3.602 2.581c-4.343 2.507-4.343 6.571 0 9.078 4.343 2.508 11.382 2.508 15.724 0 4.343-2.507 4.343-6.571 0-9.078C17.155 1.327 14.31.7 11.464.7c-2.845 0-5.691.627-7.862 1.881" mask="url(#prefix__ax)"/>
        </g>
        <path fill="#1A1A1A" d="M186.326 157.46c4.343 2.508 4.343 6.572 0 9.08-4.342 2.507-11.382 2.507-15.725 0-4.34-2.508-4.34-6.572 0-9.08 4.343-2.506 11.383-2.506 15.725 0" transform="translate(29 29.5)"/>
        <g transform="translate(29 29.5) translate(175 160)">
            <mask id="prefix__aA" fill="#fff">
                <use xlink:href="#prefix__ay"/>
            </mask>
            <path fill="url(#prefix__az)" d="M1.018.588c-1.35.78-1.35 2.044 0 2.824 1.351.78 3.542.78 4.893 0 1.35-.78 1.35-2.044 0-2.824C5.235.198 4.35.003 3.464.003c-.885 0-1.77.195-2.446.585" mask="url(#prefix__aA)"/>
        </g>
        <g transform="translate(29 29.5) translate(175 159)">
            <mask id="prefix__aD" fill="#fff">
                <use xlink:href="#prefix__aB"/>
            </mask>
            <path fill="url(#prefix__aC)" d="M1.018.711c-1.35.78-1.35 2.045 0 2.824 1.351.781 3.542.781 4.893 0 1.35-.779 1.35-2.044 0-2.824C5.235.321 4.35.126 3.464.126c-.885 0-1.77.195-2.446.585" mask="url(#prefix__aD)"/>
        </g>
        <g transform="translate(29 29.5) translate(177 138)">
            <mask id="prefix__aG" fill="#fff">
                <use xlink:href="#prefix__aE"/>
            </mask>
            <path fill="url(#prefix__aF)" d="M.473.857v21.731h.008c.018.351.109.694.282.963.387.599 1.015.599 1.402 0 .173-.269.265-.612.282-.963h.008V.857H.473z" mask="url(#prefix__aG)"/>
        </g>
        <g transform="translate(29 29.5) translate(156 124)">
            <mask id="prefix__aJ" fill="#fff">
                <use xlink:href="#prefix__aH"/>
            </mask>
            <path fill="url(#prefix__aI)" d="M6.729 4.001c-8.691 5.018-8.691 13.152 0 18.17 8.69 5.018 22.78 5.018 31.47 0 8.69-5.018 8.69-13.152 0-18.17C33.854 1.493 28.159.238 22.464.238S11.074 1.493 6.729 4.001" mask="url(#prefix__aJ)"/>
        </g>
        <path fill="#FFF" d="M194.2 126.725c8.69 5.018 8.69 13.152 0 18.17-8.69 5.017-22.78 5.017-31.472 0-8.69-5.018-8.69-13.152 0-18.17 8.691-5.018 22.781-5.018 31.471 0" transform="translate(29 29.5)"/>
        <g transform="translate(29 29.5) translate(239 104)">
            <mask id="prefix__aM" fill="#fff">
                <use xlink:href="#prefix__aK"/>
            </mask>
            <path fill="url(#prefix__aL)" d="M17.472.251H3.032s-5.735 9.024 0 18.356c0 1.51 6.455 4.306 14.418 4.306 7.962 0 14.417-2.796 14.417-4.306h.044c5.735-9.332 0-18.356 0-18.356H17.472z" mask="url(#prefix__aM)"/>
        </g>
        <g transform="translate(29 29.5) translate(242 100)">
            <mask id="prefix__aP" fill="#fff">
                <use xlink:href="#prefix__aN"/>
            </mask>
            <path fill="url(#prefix__aO)" d="M.032 4.251c0 2.065 6.455 3.738 14.418 3.738 7.962 0 14.417-1.673 14.417-3.738 0-2.064-6.455-3.738-14.417-3.738C6.487.513.032 2.187.032 4.251" mask="url(#prefix__aP)"/>
        </g>
    </g>
</svg>
