<svg xmlns="http://www.w3.org/2000/svg" xmlns:xlink="http://www.w3.org/1999/xlink" width="1291" height="318" viewBox="0 0 1291 318">
    <defs>
        <filter id="prefix__a" width="108.1%" height="122%" x="-4.1%" y="-11%" filterUnits="objectBoundingBox">
            <feOffset in="SourceAlpha" result="shadowOffsetOuter1"/>
            <feGaussianBlur in="shadowOffsetOuter1" result="shadowBlurOuter1" stdDeviation="6.5"/>
            <feColorMatrix in="shadowBlurOuter1" values="0 0 0 0 1 0 0 0 0 1 0 0 0 0 1 0 0 0 0.959489729 0"/>
        </filter>
        <text id="prefix__b" fill="#FFF" font-family="NotoSansTC-Bold, Noto Sans TC" font-size="120" font-weight="bold" letter-spacing=".129">
            <tspan x="401.243" y="206">各區導覽</tspan>
        </text>
    </defs>
    <g fill="none" fill-rule="evenodd">
        <path fill="gray" fill-rule="nonzero" stroke="#FFF" stroke-width="3" style="mix-blend-mode:multiply" d="M1224.35 18.52L646.82 18.52 59.28 18.52 15.41 54.74 15.41 262.49 56.75 295.69 646.82 295.69 1226.89 295.69 1268.23 262.49 1268.23 54.74z" transform="translate(4 4)"/>
        <path stroke="#FFF" stroke-width="11" d="M15.41 165.34L15.41 262.49 56.75 295.69 138.99 295.69" transform="translate(4 4)"/>
        <path stroke="#FFF" stroke-width="3" d="M223.07 19.52L1224.35 19.52 1268.23 59.07 1268.23 175.89" transform="translate(4 4)"/>
        <path fill="#FFF" fill-rule="nonzero" d="M281.86 32.75L296.62 32.75 336.78 32.75 350.24 32.75 363.94 19.02 336.78 19.02 296.62 19.02 268.15 19.02z" transform="translate(4 4)"/>
        <path stroke="#FFF" stroke-width="3" d="M167.42 295.69h731.25M372.36 39.84h830.57M58.86 276.78h830.57" transform="translate(4 4)"/>
        <path fill="#FFF" fill-rule="nonzero" d="M1192.82 295.69h39.62s35.79-31.17 35.79-35.5v-41.06L1256.34 231v20.53L1223.62 284h-22.88l-7.92 11.69z" transform="translate(4 4)"/>
        <path stroke="#C10021" stroke-width="9" d="M.5 71.86L.5 276.78 45.73 310.05M1023.49.5L1224.35.5 1282.18 50.69 1282.18 133.12" transform="translate(4 4)"/>
        <path fill="#FFF" fill-rule="nonzero" d="M56.76 55.42L56.76 116.98 112.12 55.42z" transform="translate(4 4)"/>
        <g fill="#FFF" transform="translate(4 4)">
            <use filter="url(#prefix__a)" xlink:href="#prefix__b"/>
            <use xlink:href="#prefix__b"/>
        </g>
    </g>
</svg>
