<svg xmlns="http://www.w3.org/2000/svg" width="1670" height="1655" viewBox="0 0 1670 1655">
    <g fill="none" fill-rule="evenodd">
        <path stroke="#FFF" stroke-width="2" d="M1296.318 196.094c160.24 141.353 261.17 347.317 261.17 576.641 0 426.226-348.656 771.75-778.744 771.75C348.655 1544.484 0 1198.96 0 772.734 0 359.83 327.205 22.66 738.67 1.991M738.67 1.99c13.273-.666 26.634-1.003 40.074-1.003 198.685 0 379.99 73.738 517.574 195.106" transform="translate(56 47.569)"/>
        <g stroke="#FFF" stroke-width="80">
            <path stroke-linecap="round" stroke-linejoin="round" d="M203.507 252.232C323.416 122.086 487.694 32.775 672.627 7.804" opacity=".209" transform="translate(56 47.569) translate(0 .287)"/>
            <path stroke-linecap="round" d="M53.704 1054.643C19.038 967.237 0 872.046 0 772.448 0 650.01 28.77 534.235 79.976 431.394M538.61 1506.809c-156.29-50.157-290.941-147.951-386.521-276.104M1236.778 1396.657c-91.733 66.221-198.62 113.068-314.539 134.466M1296.318 195.806c160.24 141.354 261.17 347.317 261.17 576.642 0 133.196-34.049 258.51-93.99 367.862" opacity=".209" transform="translate(56 47.569) translate(0 .287)"/>
            <path d="M738.67 1.703C751.943 1.036 765.304.7 778.744.7" transform="translate(56 47.569) translate(0 .287)"/>
        </g>
        <path fill="#FFF" d="M949.133 16.082c0 7.767-6.354 14.061-14.189 14.061s-14.188-6.294-14.188-14.06c0-7.766 6.353-14.061 14.188-14.061 7.836 0 14.189 6.295 14.189 14.06M1310.507 196.094c0 7.765-6.353 14.06-14.188 14.06-7.836 0-14.19-6.295-14.19-14.06 0-7.767 6.354-14.061 14.19-14.061 7.835 0 14.188 6.294 14.188 14.06M1557.487 912.522c0 7.766-6.353 14.06-14.188 14.06-7.835 0-14.188-6.294-14.188-14.06 0-7.766 6.352-14.06 14.188-14.06 7.835 0 14.188 6.294 14.188 14.06M1361.05 1301.065c0 7.766-6.353 14.06-14.188 14.06-7.836 0-14.19-6.294-14.19-14.06 0-7.766 6.354-14.06 14.19-14.06 7.835 0 14.188 6.294 14.188 14.06M726.524 1541.22c0 7.766-6.353 14.06-14.188 14.06-7.836 0-14.189-6.294-14.189-14.06 0-7.766 6.353-14.06 14.19-14.06 7.834 0 14.187 6.294 14.187 14.06M114.563 1148.563c0 7.766-6.352 14.06-14.188 14.06s-14.188-6.294-14.188-14.06c0-7.765 6.352-14.06 14.188-14.06s14.188 6.295 14.188 14.06M130.536 369.075c0 7.765-6.353 14.06-14.188 14.06-7.836 0-14.189-6.295-14.189-14.06 0-7.767 6.353-14.061 14.19-14.061 7.834 0 14.187 6.294 14.187 14.06M1346.298 237.286c0 3.882-3.176 7.03-7.094 7.03s-7.094-3.148-7.094-7.03c0-3.883 3.176-7.032 7.094-7.032s7.094 3.149 7.094 7.032M1392.88 1255.933c0 3.883-3.175 7.03-7.093 7.03s-7.094-3.147-7.094-7.03c0-3.883 3.176-7.031 7.094-7.031s7.094 3.148 7.094 7.031M635.748 1530.548c0 3.882-3.176 7.03-7.094 7.03s-7.094-3.148-7.094-7.03c0-3.883 3.176-7.032 7.094-7.032s7.094 3.149 7.094 7.032M167.792 305.647c0 3.883-3.176 7.032-7.094 7.032s-7.094-3.149-7.094-7.032c0-3.882 3.176-7.03 7.094-7.03s7.094 3.148 7.094 7.03" transform="translate(56 47.569)"/>
    </g>
</svg>
