<svg xmlns="http://www.w3.org/2000/svg" width="2069" height="2059" viewBox="0 0 2069 2059">
    <g fill="none" fill-rule="evenodd">
        <path stroke="#FFF" stroke-width="5" d="M1621.773 317.217c190.134 169.247 309.894 415.851 309.894 690.425 0 510.328-413.702 924.03-924.03 924.03-510.327 0-924.03-413.702-924.03-924.03 0-494.379 388.25-898.078 876.48-922.827" transform="translate(27 22.5)"/>
        <path stroke="#FFF" stroke-width="5" d="M960.087 84.815c15.75-.798 31.603-1.202 47.55-1.202 235.753 0 450.884 88.288 614.136 233.604" transform="translate(27 22.5)"/>
        <path stroke="#FFF" stroke-linecap="round" stroke-width="19" d="M329.269 263.226c103.296-94.186 226.27-167.161 362.03-212.039" transform="translate(27 22.5)"/>
        <path stroke="#FFF" stroke-width="5" d="M76.459 623.242c57.097-138.16 144.046-260.846 252.81-360.016" transform="translate(27 22.5)"/>
        <path stroke="#FFF" stroke-linecap="round" stroke-width="19" d="M107.473 1459.826c-26.597-52.844-48.678-108.351-65.736-166.015M1281.007 1977.237c-86.93 24.46-178.621 37.543-273.37 37.543-147.607 0-287.798-31.754-414.114-88.805" transform="translate(27 22.5)"/>
        <path stroke="#FFF" stroke-width="5" d="M1505.944 1883.066c-70.14 40.01-145.551 71.834-224.937 94.17" transform="translate(27 22.5)"/>
        <path stroke="#FFF" stroke-linecap="round" stroke-width="19" d="M1547.394 157.204c183.893 116.957 327.284 291.919 404.415 499.128" transform="translate(27 22.5)"/>
        <path stroke="#FFF" stroke-width="3" d="M191.717 529.227c117.614-200.154 306.774-353.206 532.345-424.018M591.987 1857.324c-200.453-98.243-361.034-265.332-450.925-470.447M1405.529 1865.8c-120.947 56.171-255.757 87.527-397.891 87.527-69.378 0-137.01-7.47-202.137-21.65M1242.743 91.413c141.932 36.312 271.008 104.734 379.032 197.07" transform="translate(27 22.5)"/>
        <path stroke="#FFF" stroke-width="5" d="M151.363 1538.113c82.138 132.304 194.083 244.167 326.454 326.207l29.983-25.685c145.96 87.983 316.987 138.598 499.837 138.598 176.755 0 342.463-47.297 485.16-129.925l43.396 17.794c130.162-80.405 240.643-189.62 322.547-318.748l-20.674-37.94c47.998-79.423 84.922-166.288 108.636-258.455l41.92-13.294c17.108-73.573 26.153-150.241 26.153-229.023 0-78.751-9.039-155.39-26.135-228.94l-40.257-6.745c-85.888-343.93-355.44-615.132-698.43-703.38l-17.97-42.993C1159.838 9.172 1084.75.504 1007.636.504c-77.112 0-152.2 8.668-224.344 25.08l-18.546 43.14C425.17 156.319 157.67 423.27 69.297 762.533l-42.789 16.717C9.494 852.63.5 929.086.5 1007.642c0 75.67 8.345 149.393 24.166 220.295l45.274 27.275c22.626 85.929 56.751 167.194 100.63 242.048l-19.207 40.853z" transform="translate(27 22.5)"/>
        <path fill="#FFF" d="M1864.023 1079.583c.185-2.175.405-4.346.562-6.522l33.624 2.53c-.163 2.26-.39 4.517-.582 6.776l-33.604-2.784zM1855.076 1151.007L1856.146 1144.55 1889.441 1149.88 1888.329 1156.591zM1840.234 1221.436L1841.785 1215.078 1874.513 1223.189 1872.9 1229.798zM1819.411 1290.33L1821.586 1284.158 1853.515 1295.001 1851.255 1301.418zM1792.914 1357.248L1795.537 1351.252 1826.437 1364.747 1823.71 1370.98zM1760.86 1421.693c1.05-1.912 2.162-3.791 3.162-5.73l29.657 16.044c-1.04 2.014-2.194 3.969-3.286 5.957l-29.534-16.271zM1723.51 1483.228L1727.109 1477.759 1755.319 1496.231 1751.579 1501.914zM1681.16 1541.44c1.369-1.7 2.752-3.388 4.062-5.134l26.57 20.76c-1.362 1.813-2.798 3.568-4.22 5.336l-26.411-20.962zM1634.087 1595.908L1638.547 1591.117 1663.297 1614.017 1658.663 1618.996zM1582.666 1646.293c1.637-1.443 3.269-2.892 4.852-4.395l22.76 24.88c-1.648 1.56-3.341 3.065-5.043 4.565l-22.57-25.05zM1527.209 1692.197L1532.404 1688.214 1553.013 1714.902 1547.615 1719.041zM1468.146 1733.349L1470.92 1731.615 1473.655 1729.814 1491.965 1758.128 1489.123 1759.998 1486.239 1761.802zM1405.826 1769.373L1411.616 1766.318 1427.49 1796.066 1421.472 1799.242zM1340.738 1800.1c2.028-.806 4.005-1.73 6.011-2.59l13.317 30.978c-2.084.892-4.14 1.851-6.248 2.69l-13.08-31.079zM1273.266 1825.149L1279.491 1823.128 1290.15 1855.119 1283.679 1857.22zM1203.945 1844.505L1210.303 1842.952 1218.227 1875.728 1211.617 1877.34zM1133.224 1857.89c2.16-.315 4.327-.574 6.48-.936l5.137 33.326c-2.236.374-4.489.645-6.732.973l-4.885-33.363zM1061.621 1865.314L1068.155 1864.9 1070.495 1898.538 1063.707 1898.968zM989.631 1866.822L996.179 1866.904 995.738 1900.621 988.938 1900.535zM917.77 1862.386c2.165.274 4.343.426 6.516.63l-3.23 33.563c-2.258-.212-4.52-.37-6.77-.654l3.484-33.539zM846.554 1851.914L852.982 1853.146 846.954 1886.322 840.272 1885.043zM776.464 1835.562L782.781 1837.271 773.981 1869.821 767.414 1868.043zM708.01 1813.334c2.043.77 4.07 1.576 6.137 2.277l-11.515 31.693c-2.147-.73-4.256-1.569-6.38-2.367l11.759-31.602zM641.678 1785.402L647.609 1788.172 633.466 1818.781 627.301 1815.903zM577.902 1752.033c1.866 1.13 3.783 2.175 5.686 3.242l-16.663 29.315c-1.978-1.111-3.97-2.197-5.91-3.37l16.887-29.187zM517.178 1713.377L522.558 1717.105 503.501 1744.924 497.91 1741.049zM459.841 1669.845c1.653 1.425 3.387 2.753 5.076 4.134l-21.31 26.132c-1.755-1.436-3.554-2.817-5.273-4.295l21.507-25.97zM406.386 1621.624L411.07 1626.197 387.659 1650.466 382.792 1645.715zM357.059 1569.187c1.407 1.668 2.886 3.273 4.325 4.914l-25.348 22.236c-1.496-1.705-3.03-3.375-4.493-5.107l25.516-22.043zM312.345 1512.765L316.202 1518.055 289.09 1538.103 285.081 1532.607zM272.408 1452.874L275.866 1458.432 247.174 1476.146 243.582 1470.369zM237.727 1389.798L240.641 1395.66 210.565 1410.905 207.536 1404.814zM208.374 1324.082L210.85 1330.141 179.599 1342.802 177.025 1336.503zM184.749 1256.097L186.614 1262.37 154.406 1272.351 152.465 1265.83zM166.891 1186.376L168.284 1192.772 135.349 1200.002 133.902 1193.353zM154.938 1115.396c.22 2.172.578 4.325.864 6.488l-33.426 4.44c-.297-2.248-.666-4.487-.896-6.743l33.458-4.185zM149.036 1043.646L149.284 1050.189 115.604 1051.83 115.346 1045.035zM149.036 971.639L148.787 978.183 115.087 977.046 115.346 970.251zM154.938 899.889L154.195 906.393 120.706 902.462 121.48 895.704zM166.891 828.91c-.454 2.133-.95 4.258-1.37 6.399l-33.043-6.725c.437-2.225.952-4.434 1.424-6.653l32.99 6.979zM184.749 759.188L182.883 765.461 150.525 755.976 152.465 749.455zM208.374 691.205c-.841 2.013-1.569 4.07-2.358 6.104l-31.442-12.18c.82-2.113 1.578-4.252 2.451-6.346l31.349 12.422zM237.727 625.486L234.815 631.347 204.51 616.564 207.536 610.471zM272.408 562.411L269.077 568.047 240.119 550.772 243.582 544.917zM312.345 502.519L308.487 507.808 281.074 488.173 285.081 482.677zM357.059 446.098L352.832 451.098 327.15 429.247 331.543 424.054zM406.386 393.661L401.701 398.234 377.926 374.324 382.792 369.571zM459.841 345.439L454.842 349.667 433.139 323.861 438.334 319.47zM517.178 301.909L511.797 305.638 492.32 278.113 497.91 274.237zM577.902 263.251L572.267 266.583 555.159 237.526 561.016 234.065zM641.678 229.882L635.747 232.651 621.136 202.261 627.301 199.382zM708.011 201.951L701.893 204.277 689.893 172.765 696.253 170.347zM776.464 179.724c-2.105.572-4.218 1.117-6.303 1.764l-9.3-32.412c2.168-.669 4.365-1.239 6.553-1.834l9.05 32.482zM846.554 163.371L840.126 164.602 833.59 131.523 840.272 130.242zM917.77 152.898L911.266 153.642 907.527 120.131 914.286 119.36zM989.63 148.462c-2.182.03-4.365.035-6.545.143l-.945-33.706c2.264-.11 4.532-.118 6.798-.148l.693 33.711zM1061.621 149.972L1055.087 149.556 1056.919 115.887 1063.707 116.317zM1133.224 157.394L1126.741 156.488 1131.371 123.088 1138.109 124.031zM1203.945 170.779c-2.114-.541-4.25-.98-6.382-1.446l7.42-32.894c2.214.487 4.436.945 6.634 1.506l-7.672 32.834zM1273.266 190.136L1267.041 188.115 1277.208 155.964 1283.679 158.065zM1340.738 215.186L1334.678 212.711 1347.52 181.533 1353.818 184.107zM1405.826 245.913L1400.037 242.857 1415.455 212.869 1421.472 216.044zM1468.146 281.936L1462.592 278.47 1480.468 249.88 1486.239 253.483zM1527.209 323.088L1522.014 319.104 1542.216 292.107 1547.615 296.244zM1582.666 368.992L1577.768 364.648 1600.149 339.427 1605.236 343.941zM1634.087 419.376L1629.624 414.587 1654.024 391.314 1658.663 396.289zM1681.161 473.845L1677.054 468.746 1703.307 447.585 1707.573 452.883zM1723.51 532.056c-1.206-1.818-2.385-3.654-3.612-5.459l27.926-18.898c1.274 1.876 2.502 3.783 3.755 5.672l-28.069 18.685zM1760.859 593.591L1757.665 587.878 1787.074 571.383 1790.393 577.321zM1792.914 658.037c-.88-1.996-1.724-4.01-2.67-5.975l30.691-13.967c.981 2.045 1.86 4.136 2.775 6.21l-30.796 13.732zM1819.411 724.955L1817.237 718.781 1848.994 707.449 1851.255 713.867zM1840.234 793.85c-.52-2.12-1.127-4.217-1.686-6.325l32.6-8.614c.582 2.192 1.21 4.373 1.752 6.575l-32.666 8.363zM1855.076 864.277L1854.007 857.82 1887.217 851.982 1888.329 858.693zM1864.023 935.703L1863.444 929.182 1897.025 926.142 1897.627 932.918zM1867.046 1007.642L1866.962 1001.095 1900.68 1000.842 1900.765 1007.642z" transform="translate(27 22.5)"/>
    </g>
</svg>
