<svg xmlns="http://www.w3.org/2000/svg" width="3411" height="3436" viewBox="0 0 3411 3436">
    <g fill="none" fill-rule="evenodd">
        <path stroke="#FFF" stroke-width="5" d="M2783.897 423.222c344.06 306.261 560.771 752.505 560.771 1249.363 0 923.467-748.617 1672.085-1672.084 1672.085C749.118 3344.67.5 2596.052.5 1672.585.5 777.977 703.06 47.46 1586.539 2.677M1586.54 2.677c28.5-1.445 57.186-2.176 86.044-2.176 426.608 0 815.901 159.763 1111.313 422.721M139.502 1305.963C298.56 637.595 883.362 134.255 1591.491 98.36" transform="translate(33 46)"/>
        <path stroke="#FFF" stroke-linecap="round" stroke-linejoin="round" stroke-width="5" d="M175.838 2166.535c-51.33-155.486-79.106-321.686-79.106-494.373 0-95.5 8.495-189.015 24.77-279.832M1591.988 3245.989C966.63 3214.485 437.384 2818.43 212.48 2266.059M2971.293 2564.983c-256.79 372.815-669.956 629.585-1144.802 675.61M3242.172 1813.639c-19.425 218.312-83.369 423.82-182.693 607.381M2937.858 732.639c195.12 262.343 310.579 587.449 310.579 939.522M2719.939 494.702c50.937 45.34 98.912 93.938 143.599 145.462" transform="translate(33 46)"/>
        <path stroke="#FFF" stroke-linecap="round" stroke-linejoin="round" stroke-width="20" d="M1012.811 240.657c142.352-65.72 296.173-110.83 457.635-131.504M182.111 1159.177c61.948-180.026 155.595-345.305 274.272-489.165M125.783 1974.897c-19.063-97.973-29.051-199.187-29.051-302.735 0-43.467 1.76-86.523 5.213-129.1M630.776 2854.535c-107.245-94.568-201.524-203.5-279.826-323.785M2884.296 2679.729c-51.246 61.56-107.094 119.154-167.016 172.254M3212.747 2007.2c-17.317 79.984-40.708 157.707-69.664 232.66M3075.359 953.425c30.968 60.32 58.16 122.897 81.263 187.421" transform="translate(33 46)"/>
        <path stroke="#FFF" stroke-linecap="round" stroke-linejoin="round" stroke-width="5" d="M2719.939 494.702c50.937 45.34 98.912 93.938 143.599 145.462" transform="translate(33 46)"/>
        <path fill="#FFF" d="M3148.334 1744.684L3148.584 1738.093 3182.271 1739.574 3182.015 1746.312zM3143.046 1817.027L3143.629 1810.459 3177.204 1813.575 3176.607 1820.293zM3134.242 1889.019L3135.155 1882.489 3168.537 1887.247 3167.602 1893.925zM3121.918 1960.49L3123.159 1954.013 3156.265 1960.408 3154.995 1967.033zM3106.089 2031.262L3107.651 2024.857 3140.402 2032.878 3138.803 2039.431zM3086.785 2101.165L3088.665 2094.846 3120.979 2104.477 3119.056 2110.942zM3064.049 2170.031L3066.239 2163.811 3098.037 2175.029 3095.796 2181.39zM3037.937 2237.687L3040.431 2231.583 3071.636 2244.359 3069.084 2250.603zM3008.517 2303.974L3011.306 2297.999 3041.843 2312.299 3038.989 2318.411zM2975.865 2368.732L2978.942 2362.9 3008.737 2378.687 3005.59 2384.652zM2940.067 2431.808L2943.422 2426.131 2972.406 2443.365 2968.973 2449.169zM2901.217 2493.054L2904.842 2487.545 2932.945 2506.179 2929.237 2511.812zM2859.413 2552.325L2863.299 2546.997 2890.455 2566.983 2886.481 2572.432zM2814.762 2609.486L2818.898 2604.349 2845.046 2625.64 2840.815 2630.892zM2767.373 2664.4L2771.749 2659.467 2796.828 2682.007 2792.351 2687.052zM2717.362 2716.94L2721.969 2712.22 2745.918 2735.959 2741.205 2740.783zM2664.823 2766.95c1.662-1.438 3.232-2.98 4.853-4.465l22.762 24.878c-1.657 1.518-3.265 3.091-4.964 4.566l-22.65-24.979zM2609.909 2814.339L2612.476 2812.27 2614.994 2810.14 2636.515 2836.099 2633.94 2838.276 2631.315 2840.392zM2552.749 2858.99c1.768-1.306 3.573-2.563 5.302-3.92l20.227 26.978c-1.768 1.389-3.614 2.674-5.422 4.01l-20.108-27.068zM2493.477 2900.794L2498.98 2897.161 2517.864 2925.097 2512.235 2928.814zM2432.231 2939.644L2437.907 2936.289 2455.398 2965.117 2449.593 2968.55zM2369.155 2975.442L2374.987 2972.366 2391.04 3002.018 2385.075 3005.167zM2304.396 3008.094L2310.372 3005.305 2324.945 3035.712 2318.834 3038.566zM2238.11 3037.514L2244.214 3035.021 2257.27 3066.11 2251.026 3068.661zM2170.453 3063.626L2176.673 3061.436 2188.176 3093.132 2181.814 3095.373zM2101.589 3086.362L2107.909 3084.483 2117.831 3116.71 2111.365 3118.633zM2031.685 3105.666L2038.091 3104.104 2046.406 3136.781 2039.853 3138.381zM1960.912 3121.494L1967.389 3120.255 1974.08 3153.303 1967.455 3154.572zM1889.442 3133.819L1895.973 3132.906 1901.028 3166.244 1894.349 3167.179zM1817.45 3142.623L1824.018 3142.032 1827.432 3175.578 1820.716 3176.184zM1745.107 3147.911L1748.402 3147.786 1751.693 3147.583 1753.47 3181.256 1750.104 3181.463 1746.735 3181.591zM1672.584 3149.7L1679.179 3149.617 1679.328 3183.336 1672.584 3183.421zM1600.062 3147.911L1606.652 3148.161 1605.173 3181.848 1598.434 3181.591zM1527.719 3142.623L1534.288 3143.206 1531.171 3176.781 1524.453 3176.184zM1455.727 3133.819L1462.258 3134.733 1457.5 3168.115 1450.82 3167.179zM1384.257 3121.494L1390.733 3122.735 1384.339 3155.842 1377.714 3154.572zM1313.484 3105.666L1319.89 3107.228 1311.868 3139.979 1305.315 3138.381zM1243.58 3086.362L1249.9 3088.242 1240.269 3120.556 1233.803 3118.633zM1174.716 3063.626L1180.935 3065.816 1169.717 3097.614 1163.356 3095.373zM1107.059 3037.514L1113.163 3040.008 1100.387 3071.213 1094.143 3068.661zM1040.773 3008.094L1046.747 3010.883 1032.447 3041.42 1026.335 3038.566zM976.014 2975.442L981.846 2978.519 966.059 3008.314 960.094 3005.167zM912.938 2939.644L918.615 2942.999 901.382 2971.983 895.576 2968.55zM851.692 2900.794L857.2 2904.419 838.567 2932.523 832.934 2928.814zM792.42 2858.99L797.749 2862.876 777.761 2890.032 772.313 2886.057zM735.26 2814.339L740.396 2818.475 719.106 2844.622 713.854 2840.392zM680.346 2766.95L685.279 2771.327 662.739 2796.405 657.694 2791.928zM627.806 2716.94L632.525 2721.546 608.788 2745.496 603.963 2740.783zM577.795 2664.4c1.44 1.662 2.98 3.232 4.466 4.854l-24.877 22.76c-1.519-1.656-3.092-3.262-4.567-4.962l24.978-22.652zM530.407 2609.486L532.476 2612.053 534.606 2614.571 508.648 2636.092 506.47 2633.517 504.354 2630.892zM485.755 2552.325c1.307 1.769 2.563 3.573 3.921 5.303l-26.979 20.226c-1.388-1.767-2.673-3.613-4.01-5.421l27.068-20.108zM443.952 2493.054L447.584 2498.558 419.649 2517.441 415.932 2511.812zM405.102 2431.808L408.457 2437.485 379.629 2454.976 376.196 2449.169zM369.304 2368.732L372.381 2374.564 342.728 2390.617 339.58 2384.652zM336.652 2303.974L339.441 2309.949 309.034 2324.523 306.18 2318.411zM307.231 2237.687L309.726 2243.791 278.635 2256.847 276.084 2250.603zM281.12 2170.031L283.31 2176.25 251.614 2187.754 249.372 2181.39zM258.384 2101.165L260.263 2107.485 228.037 2117.407 226.113 2110.942zM239.08 2031.262L240.642 2037.667 207.965 2045.984 206.365 2039.431zM223.251 1960.49L224.491 1966.966 191.443 1973.657 190.173 1967.033zM210.927 1889.019L211.84 1895.55 178.502 1900.605 177.567 1893.925zM202.122 1817.027L202.713 1823.595 169.167 1827.009 168.561 1820.293zM196.834 1744.684L196.959 1747.98 197.162 1751.271 163.489 1753.046 163.282 1749.681 163.155 1746.312zM195.045 1672.161L195.129 1678.757 161.411 1678.903 161.326 1672.161zM196.834 1599.639L196.584 1606.23 162.898 1604.75 163.155 1598.011zM202.122 1527.296L201.539 1533.864 167.964 1530.748 168.561 1524.03zM210.927 1455.304L210.013 1461.834 176.632 1457.077 177.567 1450.398zM223.251 1383.834L222.01 1390.31 188.903 1383.915 190.173 1377.29zM239.08 1313.061L237.518 1319.466 204.767 1311.445 206.365 1304.892zM258.384 1243.158L256.504 1249.476 224.19 1239.845 226.113 1233.38zM281.12 1174.293L278.93 1180.513 247.132 1169.294 249.372 1162.933zM307.231 1106.636L304.738 1112.74 273.533 1099.964 276.084 1093.72zM336.652 1040.349L333.862 1046.325 303.326 1032.025 306.18 1025.912zM369.304 975.591L366.227 981.423 336.432 965.636 339.58 959.671zM405.102 912.515L401.747 918.192 372.764 900.959 376.196 895.154zM443.952 851.269L440.327 856.778 412.224 838.144 415.932 832.511zM485.755 791.997L481.87 797.325 454.713 777.339 458.687 771.89zM530.407 734.837L526.271 739.974 500.123 718.684 504.354 713.431zM577.795 679.923L573.419 684.856 548.341 662.316 552.817 657.271zM627.806 627.384L623.2 632.103 599.251 608.365 603.963 603.54zM680.346 577.372c-1.662 1.44-3.232 2.98-4.853 4.465L652.73 556.96c1.657-1.518 3.265-3.092 4.963-4.565l22.652 24.977zM735.26 529.984L732.693 532.053 730.175 534.183 708.654 508.224 711.229 506.048 713.854 503.931zM792.42 485.333c-1.767 1.307-3.572 2.562-5.303 3.92l-20.226-26.979c1.769-1.388 3.615-2.673 5.423-4.009l20.106 27.068zM851.692 443.529L846.188 447.162 827.305 419.226 832.934 415.509zM912.938 404.679L907.261 408.034 889.771 379.206 895.576 375.773zM976.014 368.88L970.182 371.957 954.128 342.305 960.094 339.157zM1040.773 336.229L1034.797 339.018 1020.223 308.611 1026.335 305.757zM1107.059 306.808L1100.955 309.302 1087.899 278.212 1094.143 275.662zM1174.716 280.697L1168.497 282.887 1156.993 251.191 1163.356 248.949zM1243.58 257.96L1237.26 259.841 1227.338 227.614 1233.803 225.69zM1313.484 238.657L1307.078 240.22 1298.762 207.542 1305.315 205.942zM1384.257 222.827L1377.781 224.067 1371.09 191.019 1377.714 189.75zM1455.727 210.504L1449.196 211.417 1444.141 178.079 1450.82 177.144zM1527.719 201.699L1521.151 202.291 1517.737 168.746 1524.453 168.138zM1600.062 196.411L1596.767 196.536 1593.476 196.739 1591.699 163.067 1595.065 162.861 1598.434 162.732zM1672.584 194.622L1665.989 194.706 1665.841 160.987 1672.584 160.903zM1745.107 196.411L1738.516 196.161 1739.996 162.475 1746.735 162.732zM1817.45 201.699L1810.881 201.117 1813.998 167.543 1820.716 168.138zM1889.442 210.504L1882.912 209.591 1887.669 176.208 1894.349 177.144zM1960.912 222.827L1954.436 221.588 1960.831 188.48 1967.455 189.75zM2031.685 238.657L2025.279 237.095 2033.301 204.344 2039.853 205.942zM2101.589 257.96L2095.269 256.081 2104.9 223.767 2111.365 225.69zM2170.453 280.697L2164.234 278.508 2175.452 246.709 2181.814 248.949zM2238.11 306.808L2232.006 304.315 2244.781 273.11 2251.026 275.662zM2304.396 336.229L2298.421 333.44 2312.722 302.904 2318.834 305.757zM2369.155 368.88L2363.322 365.804 2379.11 336.009 2385.075 339.157zM2432.231 404.679L2426.555 401.324 2443.787 372.34 2449.593 375.773zM2493.477 443.529L2487.969 439.904 2506.602 411.801 2512.235 415.509zM2552.749 485.333L2547.421 481.446 2567.407 454.29 2572.856 458.265zM2609.909 529.984L2604.773 525.848 2626.062 499.701 2631.315 503.931zM2664.823 577.372L2659.89 572.996 2682.43 547.918 2687.474 552.395zM2717.362 627.384L2712.643 622.777 2736.38 598.827 2741.205 603.54zM2767.373 679.923c-1.439-1.662-2.98-3.232-4.465-4.854l24.877-22.76c1.519 1.656 3.092 3.263 4.566 4.962l-24.978 22.652zM2814.762 734.837L2812.693 732.27 2810.564 729.752 2836.522 708.231 2838.699 710.806 2840.815 713.431zM2859.413 791.997c-1.307-1.768-2.562-3.573-3.92-5.303l26.978-20.226c1.388 1.768 2.674 3.614 4.01 5.422l-27.068 20.107zM2901.217 851.269L2897.585 845.766 2925.52 826.882 2929.237 832.511zM2940.067 912.515L2936.712 906.838 2965.54 889.347 2968.973 895.154zM2975.865 975.591L2972.789 969.759 3002.441 953.706 3005.59 959.671zM3008.517 1040.349L3005.728 1034.374 3036.135 1019.801 3038.989 1025.912zM3037.937 1106.636L3035.444 1100.532 3066.533 1087.476 3069.084 1093.72zM3064.049 1174.293L3061.859 1168.073 3093.555 1156.57 3095.796 1162.933zM3086.785 1243.158L3084.906 1236.838 3117.133 1226.916 3119.056 1233.38zM3106.089 1313.061L3104.527 1306.656 3137.203 1298.339 3138.803 1304.892zM3121.918 1383.834L3120.677 1377.357 3153.727 1370.666 3154.995 1377.29zM3134.242 1455.304L3133.329 1448.773 3166.667 1443.718 3167.602 1450.398zM3143.046 1527.296L3142.455 1520.728 3176.001 1517.314 3176.607 1524.03zM3148.334 1599.639L3148.209 1596.343 3148.006 1593.052 3181.68 1591.277 3181.885 1594.642 3182.015 1598.011zM3150.124 1672.161L3150.039 1665.565 3183.758 1665.419 3183.843 1672.161z" transform="translate(33 46)"/>
    </g>
</svg>
